<?xml version="1.0" encoding="utf-8" standalone="no"?>
<!DOCTYPE svg PUBLIC "-//W3C//DTD SVG 1.1//EN"
  "http://www.w3.org/Graphics/SVG/1.1/DTD/svg11.dtd">
<!-- Created with matplotlib (https://matplotlib.org/) -->
<svg height="360pt" version="1.1" viewBox="0 0 720 360" width="720pt" xmlns="http://www.w3.org/2000/svg" xmlns:xlink="http://www.w3.org/1999/xlink">
 <metadata>
  <rdf:RDF xmlns:cc="http://creativecommons.org/ns#" xmlns:dc="http://purl.org/dc/elements/1.1/" xmlns:rdf="http://www.w3.org/1999/02/22-rdf-syntax-ns#">
   <cc:Work>
    <dc:type rdf:resource="http://purl.org/dc/dcmitype/StillImage"/>
    <dc:date>2021-03-02T14:25:10.156645</dc:date>
    <dc:format>image/svg+xml</dc:format>
    <dc:creator>
     <cc:Agent>
      <dc:title>Matplotlib v3.3.2, https://matplotlib.org/</dc:title>
     </cc:Agent>
    </dc:creator>
   </cc:Work>
  </rdf:RDF>
 </metadata>
 <defs>
  <style type="text/css">*{stroke-linecap:butt;stroke-linejoin:round;}</style>
 </defs>
 <g id="figure_1">
  <g id="patch_1">
   <path d="M 0 360 
L 720 360 
L 720 0 
L 0 0 
z
" style="fill:#ffffff;"/>
  </g>
  <g id="axes_1">
   <g id="patch_2">
    <path d="M 52.562 325.472 
L 259.748 325.472 
L 259.748 40.584 
L 52.562 40.584 
z
" style="fill:#ffffff;"/>
   </g>
   <g id="PathCollection_1">
    <defs>
     <path d="M 0 2.5 
C 0.663008 2.5 1.29895 2.236584 1.767767 1.767767 
C 2.236584 1.29895 2.5 0.663008 2.5 -0 
C 2.5 -0.663008 2.236584 -1.29895 1.767767 -1.767767 
C 1.29895 -2.236584 0.663008 -2.5 0 -2.5 
C -0.663008 -2.5 -1.29895 -2.236584 -1.767767 -1.767767 
C -2.236584 -1.29895 -2.5 -0.663008 -2.5 0 
C -2.5 0.663008 -2.236584 1.29895 -1.767767 1.767767 
C -1.29895 2.236584 -0.663008 2.5 0 2.5 
z
" id="C0_0_1ac77eff58"/>
    </defs>
    <g clip-path="url(#p4a76d10b83)">
     <use style="fill:#4c72b0;fill-opacity:0.3;" x="92.883734" xlink:href="#C0_0_1ac77eff58" y="88.83091"/>
    </g>
    <g clip-path="url(#p4a76d10b83)">
     <use style="fill:#4c72b0;fill-opacity:0.3;" x="97.364896" xlink:href="#C0_0_1ac77eff58" y="85.48238"/>
    </g>
    <g clip-path="url(#p4a76d10b83)">
     <use style="fill:#4c72b0;fill-opacity:0.3;" x="93.371932" xlink:href="#C0_0_1ac77eff58" y="86.812656"/>
    </g>
    <g clip-path="url(#p4a76d10b83)">
     <use style="fill:#4c72b0;fill-opacity:0.3;" x="93.536499" xlink:href="#C0_0_1ac77eff58" y="83.706088"/>
    </g>
    <g clip-path="url(#p4a76d10b83)">
     <use style="fill:#4c72b0;fill-opacity:0.3;" x="96.602803" xlink:href="#C0_0_1ac77eff58" y="87.116075"/>
    </g>
   </g>
   <g id="PathCollection_2">
    <defs>
     <path d="M 0 2.5 
C 0.663008 2.5 1.29895 2.236584 1.767767 1.767767 
C 2.236584 1.29895 2.5 0.663008 2.5 -0 
C 2.5 -0.663008 2.236584 -1.29895 1.767767 -1.767767 
C 1.29895 -2.236584 0.663008 -2.5 0 -2.5 
C -0.663008 -2.5 -1.29895 -2.236584 -1.767767 -1.767767 
C -2.236584 -1.29895 -2.5 -0.663008 -2.5 0 
C -2.5 0.663008 -2.236584 1.29895 -1.767767 1.767767 
C -1.29895 2.236584 -0.663008 2.5 0 2.5 
z
" id="C1_0_ef105b3f06"/>
    </defs>
    <g clip-path="url(#p4a76d10b83)">
     <use style="fill:#dd8452;fill-opacity:0.3;" x="134.86685" xlink:href="#C1_0_ef105b3f06" y="221.082974"/>
    </g>
    <g clip-path="url(#p4a76d10b83)">
     <use style="fill:#dd8452;fill-opacity:0.3;" x="137.296593" xlink:href="#C1_0_ef105b3f06" y="216.953622"/>
    </g>
    <g clip-path="url(#p4a76d10b83)">
     <use style="fill:#dd8452;fill-opacity:0.3;" x="139.757609" xlink:href="#C1_0_ef105b3f06" y="225.421249"/>
    </g>
    <g clip-path="url(#p4a76d10b83)">
     <use style="fill:#dd8452;fill-opacity:0.3;" x="139.429096" xlink:href="#C1_0_ef105b3f06" y="227.06812"/>
    </g>
    <g clip-path="url(#p4a76d10b83)">
     <use style="fill:#dd8452;fill-opacity:0.3;" x="137.071791" xlink:href="#C1_0_ef105b3f06" y="217.233327"/>
    </g>
    <g clip-path="url(#p4a76d10b83)">
     <use style="fill:#dd8452;fill-opacity:0.3;" x="137.225326" xlink:href="#C1_0_ef105b3f06" y="212.371942"/>
    </g>
    <g clip-path="url(#p4a76d10b83)">
     <use style="fill:#dd8452;fill-opacity:0.3;" x="139.222079" xlink:href="#C1_0_ef105b3f06" y="197.181602"/>
    </g>
    <g clip-path="url(#p4a76d10b83)">
     <use style="fill:#dd8452;fill-opacity:0.3;" x="135.774892" xlink:href="#C1_0_ef105b3f06" y="195.22638"/>
    </g>
    <g clip-path="url(#p4a76d10b83)">
     <use style="fill:#dd8452;fill-opacity:0.3;" x="137.9578" xlink:href="#C1_0_ef105b3f06" y="195.951198"/>
    </g>
    <g clip-path="url(#p4a76d10b83)">
     <use style="fill:#dd8452;fill-opacity:0.3;" x="139.270136" xlink:href="#C1_0_ef105b3f06" y="200.842824"/>
    </g>
    <g clip-path="url(#p4a76d10b83)">
     <use style="fill:#dd8452;fill-opacity:0.3;" x="137.792987" xlink:href="#C1_0_ef105b3f06" y="177.849905"/>
    </g>
    <g clip-path="url(#p4a76d10b83)">
     <use style="fill:#dd8452;fill-opacity:0.3;" x="133.966356" xlink:href="#C1_0_ef105b3f06" y="158.293148"/>
    </g>
    <g clip-path="url(#p4a76d10b83)">
     <use style="fill:#dd8452;fill-opacity:0.3;" x="133.052818" xlink:href="#C1_0_ef105b3f06" y="195.302911"/>
    </g>
    <g clip-path="url(#p4a76d10b83)">
     <use style="fill:#dd8452;fill-opacity:0.3;" x="139.649906" xlink:href="#C1_0_ef105b3f06" y="181.652074"/>
    </g>
   </g>
   <g id="PathCollection_3">
    <defs>
     <path d="M 0 2.5 
C 0.663008 2.5 1.29895 2.236584 1.767767 1.767767 
C 2.236584 1.29895 2.5 0.663008 2.5 -0 
C 2.5 -0.663008 2.236584 -1.29895 1.767767 -1.767767 
C 1.29895 -2.236584 0.663008 -2.5 0 -2.5 
C -0.663008 -2.5 -1.29895 -2.236584 -1.767767 -1.767767 
C -2.236584 -1.29895 -2.5 -0.663008 -2.5 0 
C -2.5 0.663008 -2.236584 1.29895 -1.767767 1.767767 
C -1.29895 2.236584 -0.663008 2.5 0 2.5 
z
" id="C2_0_274fd29fe8"/>
    </defs>
    <g clip-path="url(#p4a76d10b83)">
     <use style="fill:#55a868;fill-opacity:0.3;" x="175.288636" xlink:href="#C2_0_274fd29fe8" y="176.402653"/>
    </g>
    <g clip-path="url(#p4a76d10b83)">
     <use style="fill:#55a868;fill-opacity:0.3;" x="177.643742" xlink:href="#C2_0_274fd29fe8" y="179.454698"/>
    </g>
   </g>
   <g id="PathCollection_4">
    <defs>
     <path d="M 0 2.5 
C 0.663008 2.5 1.29895 2.236584 1.767767 1.767767 
C 2.236584 1.29895 2.5 0.663008 2.5 -0 
C 2.5 -0.663008 2.236584 -1.29895 1.767767 -1.767767 
C 1.29895 -2.236584 0.663008 -2.5 0 -2.5 
C -0.663008 -2.5 -1.29895 -2.236584 -1.767767 -1.767767 
C -2.236584 -1.29895 -2.5 -0.663008 -2.5 0 
C -2.5 0.663008 -2.236584 1.29895 -1.767767 1.767767 
C -1.29895 2.236584 -0.663008 2.5 0 2.5 
z
" id="C3_0_392ca69f6a"/>
    </defs>
    <g clip-path="url(#p4a76d10b83)">
     <use style="fill:#c44e52;fill-opacity:0.3;" x="223.2899" xlink:href="#C3_0_392ca69f6a" y="286.912121"/>
    </g>
    <g clip-path="url(#p4a76d10b83)">
     <use style="fill:#c44e52;fill-opacity:0.3;" x="215.344454" xlink:href="#C3_0_392ca69f6a" y="279.626722"/>
    </g>
    <g clip-path="url(#p4a76d10b83)">
     <use style="fill:#c44e52;fill-opacity:0.3;" x="213.929781" xlink:href="#C3_0_392ca69f6a" y="284.335676"/>
    </g>
    <g clip-path="url(#p4a76d10b83)">
     <use style="fill:#c44e52;fill-opacity:0.3;" x="219.840812" xlink:href="#C3_0_392ca69f6a" y="280.963121"/>
    </g>
    <g clip-path="url(#p4a76d10b83)">
     <use style="fill:#c44e52;fill-opacity:0.3;" x="222.13949" xlink:href="#C3_0_392ca69f6a" y="279.603575"/>
    </g>
    <g clip-path="url(#p4a76d10b83)">
     <use style="fill:#c44e52;fill-opacity:0.3;" x="214.837398" xlink:href="#C3_0_392ca69f6a" y="282.603153"/>
    </g>
    <g clip-path="url(#p4a76d10b83)">
     <use style="fill:#c44e52;fill-opacity:0.3;" x="222.330295" xlink:href="#C3_0_392ca69f6a" y="275.062472"/>
    </g>
    <g clip-path="url(#p4a76d10b83)">
     <use style="fill:#c44e52;fill-opacity:0.3;" x="215.018888" xlink:href="#C3_0_392ca69f6a" y="277.486116"/>
    </g>
    <g clip-path="url(#p4a76d10b83)">
     <use style="fill:#c44e52;fill-opacity:0.3;" x="222.806075" xlink:href="#C3_0_392ca69f6a" y="269.66177"/>
    </g>
    <g clip-path="url(#p4a76d10b83)">
     <use style="fill:#c44e52;fill-opacity:0.3;" x="213.152611" xlink:href="#C3_0_392ca69f6a" y="274.610196"/>
    </g>
    <g clip-path="url(#p4a76d10b83)">
     <use style="fill:#c44e52;fill-opacity:0.3;" x="221.21002" xlink:href="#C3_0_392ca69f6a" y="264.64648"/>
    </g>
    <g clip-path="url(#p4a76d10b83)">
     <use style="fill:#c44e52;fill-opacity:0.3;" x="213.93772" xlink:href="#C3_0_392ca69f6a" y="269.646679"/>
    </g>
    <g clip-path="url(#p4a76d10b83)">
     <use style="fill:#c44e52;fill-opacity:0.3;" x="215.872294" xlink:href="#C3_0_392ca69f6a" y="279.620574"/>
    </g>
    <g clip-path="url(#p4a76d10b83)">
     <use style="fill:#c44e52;fill-opacity:0.3;" x="213.491196" xlink:href="#C3_0_392ca69f6a" y="260.861395"/>
    </g>
    <g clip-path="url(#p4a76d10b83)">
     <use style="fill:#c44e52;fill-opacity:0.3;" x="215.634078" xlink:href="#C3_0_392ca69f6a" y="271.336444"/>
    </g>
    <g clip-path="url(#p4a76d10b83)">
     <use style="fill:#c44e52;fill-opacity:0.3;" x="217.915834" xlink:href="#C3_0_392ca69f6a" y="268.36617"/>
    </g>
    <g clip-path="url(#p4a76d10b83)">
     <use style="fill:#c44e52;fill-opacity:0.3;" x="221.85238" xlink:href="#C3_0_392ca69f6a" y="269.06744"/>
    </g>
    <g clip-path="url(#p4a76d10b83)">
     <use style="fill:#c44e52;fill-opacity:0.3;" x="222.299176" xlink:href="#C3_0_392ca69f6a" y="267.014527"/>
    </g>
    <g clip-path="url(#p4a76d10b83)">
     <use style="fill:#c44e52;fill-opacity:0.3;" x="215.705624" xlink:href="#C3_0_392ca69f6a" y="260.92101"/>
    </g>
    <g clip-path="url(#p4a76d10b83)">
     <use style="fill:#c44e52;fill-opacity:0.3;" x="219.603465" xlink:href="#C3_0_392ca69f6a" y="262.034308"/>
    </g>
    <g clip-path="url(#p4a76d10b83)">
     <use style="fill:#c44e52;fill-opacity:0.3;" x="221.825837" xlink:href="#C3_0_392ca69f6a" y="269.632747"/>
    </g>
    <g clip-path="url(#p4a76d10b83)">
     <use style="fill:#c44e52;fill-opacity:0.3;" x="222.957093" xlink:href="#C3_0_392ca69f6a" y="274.423998"/>
    </g>
    <g clip-path="url(#p4a76d10b83)">
     <use style="fill:#c44e52;fill-opacity:0.3;" x="223.226105" xlink:href="#C3_0_392ca69f6a" y="268.635499"/>
    </g>
    <g clip-path="url(#p4a76d10b83)">
     <use style="fill:#c44e52;fill-opacity:0.3;" x="218.817232" xlink:href="#C3_0_392ca69f6a" y="284.233992"/>
    </g>
    <g clip-path="url(#p4a76d10b83)">
     <use style="fill:#c44e52;fill-opacity:0.3;" x="221.344772" xlink:href="#C3_0_392ca69f6a" y="283.833207"/>
    </g>
    <g clip-path="url(#p4a76d10b83)">
     <use style="fill:#c44e52;fill-opacity:0.3;" x="222.416373" xlink:href="#C3_0_392ca69f6a" y="275.455188"/>
    </g>
    <g clip-path="url(#p4a76d10b83)">
     <use style="fill:#c44e52;fill-opacity:0.3;" x="217.281944" xlink:href="#C3_0_392ca69f6a" y="268.114559"/>
    </g>
    <g clip-path="url(#p4a76d10b83)">
     <use style="fill:#c44e52;fill-opacity:0.3;" x="214.571419" xlink:href="#C3_0_392ca69f6a" y="266.762577"/>
    </g>
    <g clip-path="url(#p4a76d10b83)">
     <use style="fill:#c44e52;fill-opacity:0.3;" x="215.804532" xlink:href="#C3_0_392ca69f6a" y="272.425759"/>
    </g>
    <g clip-path="url(#p4a76d10b83)">
     <use style="fill:#c44e52;fill-opacity:0.3;" x="214.65786" xlink:href="#C3_0_392ca69f6a" y="261.529977"/>
    </g>
    <g clip-path="url(#p4a76d10b83)">
     <use style="fill:#c44e52;fill-opacity:0.3;" x="213.402327" xlink:href="#C3_0_392ca69f6a" y="254.856148"/>
    </g>
    <g clip-path="url(#p4a76d10b83)">
     <use style="fill:#c44e52;fill-opacity:0.3;" x="215.479991" xlink:href="#C3_0_392ca69f6a" y="260.497018"/>
    </g>
    <g clip-path="url(#p4a76d10b83)">
     <use style="fill:#c44e52;fill-opacity:0.3;" x="223.230453" xlink:href="#C3_0_392ca69f6a" y="260.985695"/>
    </g>
    <g clip-path="url(#p4a76d10b83)">
     <use style="fill:#c44e52;fill-opacity:0.3;" x="217.051578" xlink:href="#C3_0_392ca69f6a" y="254.519314"/>
    </g>
    <g clip-path="url(#p4a76d10b83)">
     <use style="fill:#c44e52;fill-opacity:0.3;" x="214.204174" xlink:href="#C3_0_392ca69f6a" y="257.065491"/>
    </g>
    <g clip-path="url(#p4a76d10b83)">
     <use style="fill:#c44e52;fill-opacity:0.3;" x="216.675807" xlink:href="#C3_0_392ca69f6a" y="262.934986"/>
    </g>
    <g clip-path="url(#p4a76d10b83)">
     <use style="fill:#c44e52;fill-opacity:0.3;" x="219.761399" xlink:href="#C3_0_392ca69f6a" y="265.187829"/>
    </g>
    <g clip-path="url(#p4a76d10b83)">
     <use style="fill:#c44e52;fill-opacity:0.3;" x="222.606521" xlink:href="#C3_0_392ca69f6a" y="288.718911"/>
    </g>
    <g clip-path="url(#p4a76d10b83)">
     <use style="fill:#c44e52;fill-opacity:0.3;" x="220.289368" xlink:href="#C3_0_392ca69f6a" y="281.798754"/>
    </g>
    <g clip-path="url(#p4a76d10b83)">
     <use style="fill:#c44e52;fill-opacity:0.3;" x="220.167387" xlink:href="#C3_0_392ca69f6a" y="284.53133"/>
    </g>
    <g clip-path="url(#p4a76d10b83)">
     <use style="fill:#c44e52;fill-opacity:0.3;" x="215.668467" xlink:href="#C3_0_392ca69f6a" y="283.02711"/>
    </g>
    <g clip-path="url(#p4a76d10b83)">
     <use style="fill:#c44e52;fill-opacity:0.3;" x="219.776453" xlink:href="#C3_0_392ca69f6a" y="277.542999"/>
    </g>
    <g clip-path="url(#p4a76d10b83)">
     <use style="fill:#c44e52;fill-opacity:0.3;" x="219.759877" xlink:href="#C3_0_392ca69f6a" y="275.31415"/>
    </g>
    <g clip-path="url(#p4a76d10b83)">
     <use style="fill:#c44e52;fill-opacity:0.3;" x="222.743638" xlink:href="#C3_0_392ca69f6a" y="269.498078"/>
    </g>
    <g clip-path="url(#p4a76d10b83)">
     <use style="fill:#c44e52;fill-opacity:0.3;" x="223.458213" xlink:href="#C3_0_392ca69f6a" y="279.636581"/>
    </g>
    <g clip-path="url(#p4a76d10b83)">
     <use style="fill:#c44e52;fill-opacity:0.3;" x="216.04948" xlink:href="#C3_0_392ca69f6a" y="234.651035"/>
    </g>
    <g clip-path="url(#p4a76d10b83)">
     <use style="fill:#c44e52;fill-opacity:0.3;" x="214.534205" xlink:href="#C3_0_392ca69f6a" y="259.924593"/>
    </g>
    <g clip-path="url(#p4a76d10b83)">
     <use style="fill:#c44e52;fill-opacity:0.3;" x="222.051616" xlink:href="#C3_0_392ca69f6a" y="266.789656"/>
    </g>
    <g clip-path="url(#p4a76d10b83)">
     <use style="fill:#c44e52;fill-opacity:0.3;" x="218.123892" xlink:href="#C3_0_392ca69f6a" y="272.860315"/>
    </g>
    <g clip-path="url(#p4a76d10b83)">
     <use style="fill:#c44e52;fill-opacity:0.3;" x="216.071" xlink:href="#C3_0_392ca69f6a" y="274.700153"/>
    </g>
    <g clip-path="url(#p4a76d10b83)">
     <use style="fill:#c44e52;fill-opacity:0.3;" x="213.335382" xlink:href="#C3_0_392ca69f6a" y="255.041545"/>
    </g>
    <g clip-path="url(#p4a76d10b83)">
     <use style="fill:#c44e52;fill-opacity:0.3;" x="213.161779" xlink:href="#C3_0_392ca69f6a" y="283.017965"/>
    </g>
   </g>
   <g id="PathCollection_5"/>
   <g id="PathCollection_6"/>
   <g id="PathCollection_7"/>
   <g id="PathCollection_8"/>
   <g id="PathCollection_9">
    <defs>
     <path d="M 4.229935 0 
L -4.229935 -0 
" id="m2a43702f79" style="stroke:#001c7f;stroke-width:2.53125;"/>
    </defs>
    <g clip-path="url(#p4a76d10b83)">
     <use style="fill:#001c7f;stroke:#001c7f;stroke-width:2.53125;" x="93.9992" xlink:href="#m2a43702f79" y="86.389622"/>
    </g>
   </g>
   <g id="matplotlib.axis_1">
    <g id="text_1">
     <!-- edited NOAH-2 $\rm S^{+}_{crk}C^{c}$ ($\Delta' = 1/(4J)$) -->
     <g transform="translate(64.895 340.032)scale(0.12 -0.12)">
      <defs>
       <path d="M 28.21875 53.46875 
Q 33.796875 53.46875 39.015625 50.859375 
Q 44.234375 48.25 46.96875 44.09375 
Q 49.609375 40.140625 50.484375 34.859375 
Q 51.265625 31.25 51.265625 23.34375 
L 12.9375 23.34375 
Q 13.1875 15.375 16.703125 10.5625 
Q 20.21875 5.765625 27.59375 5.765625 
Q 34.46875 5.765625 38.578125 10.296875 
Q 40.921875 12.9375 41.890625 16.40625 
L 50.53125 16.40625 
Q 50.203125 13.53125 48.265625 9.984375 
Q 46.34375 6.453125 43.953125 4.203125 
Q 39.9375 0.296875 34.03125 -1.078125 
Q 30.859375 -1.859375 26.859375 -1.859375 
Q 17.09375 -1.859375 10.296875 5.25 
Q 3.515625 12.359375 3.515625 25.140625 
Q 3.515625 37.75 10.34375 45.609375 
Q 17.1875 53.46875 28.21875 53.46875 
z
M 42.234375 30.328125 
Q 41.703125 36.03125 39.75 39.453125 
Q 36.140625 45.796875 27.6875 45.796875 
Q 21.625 45.796875 17.515625 41.421875 
Q 13.421875 37.0625 13.1875 30.328125 
z
M 27.390625 53.5625 
z
" id="Helvetica-101"/>
       <path d="M 12.015625 25.53125 
Q 12.015625 17.140625 15.578125 11.46875 
Q 19.140625 5.8125 27 5.8125 
Q 33.109375 5.8125 37.03125 11.0625 
Q 40.96875 16.3125 40.96875 26.125 
Q 40.96875 36.03125 36.90625 40.796875 
Q 32.859375 45.5625 26.90625 45.5625 
Q 20.265625 45.5625 16.140625 40.484375 
Q 12.015625 35.40625 12.015625 25.53125 
z
M 25.25 53.21875 
Q 31.25 53.21875 35.296875 50.6875 
Q 37.640625 49.21875 40.625 45.5625 
L 40.625 71.96875 
L 49.078125 71.96875 
L 49.078125 0 
L 41.15625 0 
L 41.15625 7.28125 
Q 38.09375 2.4375 33.890625 0.28125 
Q 29.6875 -1.859375 24.265625 -1.859375 
Q 15.53125 -1.859375 9.125 5.484375 
Q 2.734375 12.84375 2.734375 25.046875 
Q 2.734375 36.46875 8.5625 44.84375 
Q 14.40625 53.21875 25.25 53.21875 
z
" id="Helvetica-100"/>
       <path d="M 6.453125 52.046875 
L 15.375 52.046875 
L 15.375 0 
L 6.453125 0 
z
M 6.453125 71.734375 
L 15.375 71.734375 
L 15.375 61.765625 
L 6.453125 61.765625 
z
" id="Helvetica-105"/>
       <path d="M 8.203125 66.890625 
L 17.09375 66.890625 
L 17.09375 52.296875 
L 25.4375 52.296875 
L 25.4375 45.125 
L 17.09375 45.125 
L 17.09375 10.984375 
Q 17.09375 8.25 18.953125 7.328125 
Q 19.96875 6.78125 22.359375 6.78125 
Q 23 6.78125 23.734375 6.8125 
Q 24.46875 6.84375 25.4375 6.9375 
L 25.4375 0 
Q 23.921875 -0.4375 22.28125 -0.625 
Q 20.65625 -0.828125 18.75 -0.828125 
Q 12.59375 -0.828125 10.390625 2.3125 
Q 8.203125 5.46875 8.203125 10.5 
L 8.203125 45.125 
L 1.125 45.125 
L 1.125 52.296875 
L 8.203125 52.296875 
z
" id="Helvetica-116"/>
       <path id="Helvetica-32"/>
       <path d="M 7.625 71.734375 
L 19.09375 71.734375 
L 55.328125 13.625 
L 55.328125 71.734375 
L 64.546875 71.734375 
L 64.546875 0 
L 53.65625 0 
L 16.890625 58.0625 
L 16.890625 0 
L 7.625 0 
z
M 35.453125 71.734375 
z
" id="Helvetica-78"/>
       <path d="M 38.578125 73.6875 
Q 57.5625 73.6875 66.703125 61.46875 
Q 73.828125 51.953125 73.828125 37.109375 
Q 73.828125 21.046875 65.671875 10.40625 
Q 56.109375 -2.09375 38.375 -2.09375 
Q 21.828125 -2.09375 12.359375 8.84375 
Q 3.90625 19.390625 3.90625 35.5 
Q 3.90625 50.046875 11.140625 60.40625 
Q 20.40625 73.6875 38.578125 73.6875 
z
M 39.546875 6.59375 
Q 52.390625 6.59375 58.125 15.796875 
Q 63.875 25 63.875 36.96875 
Q 63.875 49.609375 57.25 57.328125 
Q 50.640625 65.046875 39.15625 65.046875 
Q 28.03125 65.046875 21 57.390625 
Q 13.96875 49.75 13.96875 34.859375 
Q 13.96875 22.953125 20 14.765625 
Q 26.03125 6.59375 39.546875 6.59375 
z
M 38.875 73.6875 
z
" id="Helvetica-79"/>
       <path d="M 44.4375 29.390625 
L 33.546875 61.078125 
L 21.96875 29.390625 
z
M 28.46875 71.734375 
L 39.453125 71.734375 
L 65.484375 0 
L 54.828125 0 
L 47.5625 21.484375 
L 19.1875 21.484375 
L 11.421875 0 
L 1.46875 0 
z
" id="Helvetica-65"/>
       <path d="M 7.859375 71.734375 
L 17.671875 71.734375 
L 17.671875 42.09375 
L 54.984375 42.09375 
L 54.984375 71.734375 
L 64.796875 71.734375 
L 64.796875 0 
L 54.984375 0 
L 54.984375 33.546875 
L 17.671875 33.546875 
L 17.671875 0 
L 7.859375 0 
z
" id="Helvetica-72"/>
       <path d="M 4.15625 32.375 
L 28.65625 32.375 
L 28.65625 23.34375 
L 4.15625 23.34375 
z
" id="Helvetica-45"/>
       <path d="M 3.125 0 
Q 3.609375 9.03125 6.859375 15.71875 
Q 10.109375 22.40625 19.53125 27.875 
L 28.90625 33.296875 
Q 35.203125 36.96875 37.75 39.546875 
Q 41.75 43.609375 41.75 48.828125 
Q 41.75 54.9375 38.078125 58.515625 
Q 34.421875 62.109375 28.328125 62.109375 
Q 19.28125 62.109375 15.828125 55.28125 
Q 13.96875 51.609375 13.765625 45.125 
L 4.828125 45.125 
Q 4.984375 54.25 8.203125 60.015625 
Q 13.921875 70.171875 28.375 70.171875 
Q 40.375 70.171875 45.921875 63.671875 
Q 51.46875 57.171875 51.46875 49.21875 
Q 51.46875 40.828125 45.5625 34.859375 
Q 42.140625 31.390625 33.296875 26.46875 
L 26.609375 22.75 
Q 21.828125 20.125 19.09375 17.71875 
Q 14.203125 13.484375 12.9375 8.296875 
L 51.125 8.296875 
L 51.125 0 
L 3.125 0 
z
" id="Helvetica-50"/>
       <path d="M 13.96875 23.140625 
Q 14.3125 17.046875 16.84375 13.234375 
Q 21.6875 6.109375 33.890625 6.109375 
Q 39.359375 6.109375 43.84375 7.671875 
Q 52.546875 10.6875 52.546875 18.5 
Q 52.546875 24.359375 48.875 26.859375 
Q 45.171875 29.296875 37.25 31.109375 
L 27.546875 33.296875 
Q 18.015625 35.453125 14.0625 38.03125 
Q 7.234375 42.53125 7.234375 51.46875 
Q 7.234375 61.140625 13.921875 67.328125 
Q 20.609375 73.53125 32.859375 73.53125 
Q 44.140625 73.53125 52.015625 68.078125 
Q 59.90625 62.640625 59.90625 50.6875 
L 50.78125 50.6875 
Q 50.046875 56.453125 47.65625 59.515625 
Q 43.21875 65.140625 32.5625 65.140625 
Q 23.96875 65.140625 20.203125 61.515625 
Q 16.453125 57.90625 16.453125 53.125 
Q 16.453125 47.859375 20.84375 45.40625 
Q 23.734375 43.84375 33.890625 41.5 
L 43.953125 39.203125 
Q 51.21875 37.546875 55.171875 34.671875 
Q 62.015625 29.640625 62.015625 20.0625 
Q 62.015625 8.15625 53.34375 3.03125 
Q 44.671875 -2.09375 33.203125 -2.09375 
Q 19.828125 -2.09375 12.25 4.734375 
Q 4.6875 11.53125 4.828125 23.140625 
z
M 33.59375 73.6875 
z
" id="Helvetica-83"/>
       <path d="M 4.5 21.390625 
L 4.5 29.59375 
L 25.78125 29.59375 
L 25.78125 51.03125 
L 34.125 51.03125 
L 34.125 29.59375 
L 55.421875 29.59375 
L 55.421875 21.390625 
L 34.125 21.390625 
L 34.125 0 
L 25.78125 0 
L 25.78125 21.390625 
z
" id="Helvetica-43"/>
       <path d="M 26.609375 53.8125 
Q 35.453125 53.8125 40.984375 49.515625 
Q 46.53125 45.21875 47.65625 34.71875 
L 39.109375 34.71875 
Q 38.328125 39.546875 35.546875 42.75 
Q 32.765625 45.953125 26.609375 45.953125 
Q 18.21875 45.953125 14.59375 37.75 
Q 12.25 32.421875 12.25 24.609375 
Q 12.25 16.75 15.5625 11.375 
Q 18.890625 6 26.03125 6 
Q 31.5 6 34.6875 9.34375 
Q 37.890625 12.703125 39.109375 18.5 
L 47.65625 18.5 
Q 46.1875 8.109375 40.328125 3.296875 
Q 34.46875 -1.515625 25.34375 -1.515625 
Q 15.09375 -1.515625 8.984375 5.984375 
Q 2.875 13.484375 2.875 24.703125 
Q 2.875 38.484375 9.5625 46.140625 
Q 16.265625 53.8125 26.609375 53.8125 
z
M 25.25 53.5625 
z
" id="Helvetica-99"/>
       <path d="M 6.6875 52.296875 
L 15.046875 52.296875 
L 15.046875 43.265625 
Q 16.0625 45.90625 20.0625 49.6875 
Q 24.078125 53.46875 29.296875 53.46875 
Q 29.546875 53.46875 30.125 53.421875 
Q 30.71875 53.375 32.125 53.21875 
L 32.125 43.953125 
Q 31.34375 44.09375 30.6875 44.140625 
Q 30.03125 44.1875 29.25 44.1875 
Q 22.609375 44.1875 19.046875 39.90625 
Q 15.484375 35.640625 15.484375 30.078125 
L 15.484375 0 
L 6.6875 0 
z
" id="Helvetica-114"/>
       <path d="M 6.25 71.734375 
L 14.703125 71.734375 
L 14.703125 30.078125 
L 37.25 52.296875 
L 48.484375 52.296875 
L 28.46875 32.71875 
L 49.609375 0 
L 38.375 0 
L 22.078125 26.375 
L 14.703125 19.625 
L 14.703125 0 
L 6.25 0 
z
" id="Helvetica-107"/>
       <path d="M 37.84375 73.6875 
Q 51.46875 73.6875 58.984375 66.5 
Q 66.5 59.328125 67.328125 50.203125 
L 57.859375 50.203125 
Q 56.25 57.125 51.4375 61.171875 
Q 46.625 65.234375 37.9375 65.234375 
Q 27.34375 65.234375 20.828125 57.78125 
Q 14.3125 50.34375 14.3125 34.96875 
Q 14.3125 22.359375 20.1875 14.515625 
Q 26.078125 6.6875 37.75 6.6875 
Q 48.484375 6.6875 54.109375 14.9375 
Q 57.078125 19.28125 58.546875 26.375 
L 68.015625 26.375 
Q 66.75 15.046875 59.625 7.375 
Q 51.078125 -1.859375 36.578125 -1.859375 
Q 24.078125 -1.859375 15.578125 5.71875 
Q 4.390625 15.71875 4.390625 36.625 
Q 4.390625 52.484375 12.796875 62.640625 
Q 21.875 73.6875 37.84375 73.6875 
z
M 35.890625 73.6875 
z
" id="Helvetica-67"/>
       <path d="M 29.59375 72.90625 
Q 21.921875 58.015625 19.625 50.984375 
Q 16.15625 40.28125 16.15625 26.265625 
Q 16.15625 12.109375 20.125 0.390625 
Q 22.5625 -6.84375 29.734375 -20.40625 
L 23.828125 -20.40625 
Q 16.703125 -9.28125 14.984375 -6.203125 
Q 13.28125 -3.125 11.28125 2.15625 
Q 8.546875 9.375 7.46875 17.578125 
Q 6.9375 21.828125 6.9375 25.6875 
Q 6.9375 40.140625 11.46875 51.421875 
Q 14.359375 58.59375 23.484375 72.90625 
z
" id="Helvetica-40"/>
       <path d="M 14.40625 7.8125 
L 57.375 7.8125 
L 35.59375 61.578125 
z
M 30.71875 70.609375 
L 41.109375 70.609375 
L 70.21875 0 
L 2 0 
z
" id="Helvetica-916"/>
       <path d="M 29.203125 73.34375 
L 16.15625 44.578125 
L 9.421875 44.578125 
L 18.359375 73.34375 
z
" id="Helvetica-8242"/>
       <path d="M 55.421875 40.140625 
L 55.421875 31.9375 
L 4.5 31.9375 
L 4.5 40.140625 
z
M 55.421875 19.1875 
L 55.421875 10.84375 
L 4.5 10.84375 
L 4.5 19.1875 
z
" id="Helvetica-61"/>
       <path d="M 9.578125 49.515625 
L 9.578125 56.25 
Q 19.09375 57.171875 22.84375 59.34375 
Q 26.609375 61.53125 28.46875 69.625 
L 35.40625 69.625 
L 35.40625 0 
L 26.03125 0 
L 26.03125 49.515625 
z
" id="Helvetica-49"/>
       <path d="M 22.75 71.734375 
L 30.171875 71.734375 
L 7.421875 0 
L 0 0 
z
" id="Helvetica-47"/>
       <path d="M 33.0625 24.75 
L 33.0625 56.453125 
L 10.640625 24.75 
z
M 33.203125 0 
L 33.203125 17.09375 
L 2.546875 17.09375 
L 2.546875 25.6875 
L 34.578125 70.125 
L 42 70.125 
L 42 24.75 
L 52.296875 24.75 
L 52.296875 17.09375 
L 42 17.09375 
L 42 0 
z
" id="Helvetica-52"/>
       <path d="M 47.359375 21.390625 
Q 45.40625 12.3125 41.65625 7.28125 
Q 34.71875 -1.90625 20.75 -1.90625 
Q 12.703125 -1.90625 7.90625 2.46875 
Q 3.125 6.84375 5.515625 18.015625 
L 6.59375 23.140625 
L 15.71875 23.140625 
L 14.65625 18.015625 
Q 13.375 12.15625 15.375 9.203125 
Q 17.390625 6.25 22.90625 6.25 
Q 30.671875 6.25 34.1875 11.578125 
Q 36.328125 14.84375 38.28125 23.921875 
L 48.4375 71.734375 
L 58.0625 71.734375 
z
" id="Helvetica-Oblique-74"/>
       <path d="M 3.46875 -20.40625 
Q 11.234375 -5.28125 13.484375 1.65625 
Q 16.890625 12.15625 16.890625 26.265625 
Q 16.890625 40.375 12.9375 52.09375 
Q 10.5 59.328125 3.328125 72.90625 
L 9.234375 72.90625 
Q 16.75 60.890625 18.328125 58.078125 
Q 19.921875 55.28125 21.78125 50.34375 
Q 24.125 44.234375 25.125 38.28125 
Q 26.125 32.328125 26.125 26.8125 
Q 26.125 12.359375 21.53125 1.03125 
Q 18.65625 -6.25 9.578125 -20.40625 
z
" id="Helvetica-41"/>
      </defs>
      <use transform="translate(0 0.051563)" xlink:href="#Helvetica-101"/>
      <use transform="translate(55.615234 0.051563)" xlink:href="#Helvetica-100"/>
      <use transform="translate(111.230469 0.051563)" xlink:href="#Helvetica-105"/>
      <use transform="translate(133.447266 0.051563)" xlink:href="#Helvetica-116"/>
      <use transform="translate(161.230469 0.051563)" xlink:href="#Helvetica-101"/>
      <use transform="translate(216.845703 0.051563)" xlink:href="#Helvetica-100"/>
      <use transform="translate(272.460938 0.051563)" xlink:href="#Helvetica-32"/>
      <use transform="translate(300.244141 0.051563)" xlink:href="#Helvetica-78"/>
      <use transform="translate(372.460938 0.051563)" xlink:href="#Helvetica-79"/>
      <use transform="translate(450.244141 0.051563)" xlink:href="#Helvetica-65"/>
      <use transform="translate(516.943359 0.051563)" xlink:href="#Helvetica-72"/>
      <use transform="translate(589.160156 0.051563)" xlink:href="#Helvetica-45"/>
      <use transform="translate(622.460938 0.051563)" xlink:href="#Helvetica-50"/>
      <use transform="translate(678.076172 0.051563)" xlink:href="#Helvetica-32"/>
      <use transform="translate(705.859375 0.051563)" xlink:href="#Helvetica-83"/>
      <use transform="translate(773.473789 36.659375)scale(0.7)" xlink:href="#Helvetica-43"/>
      <use transform="translate(773.473789 -26.096875)scale(0.7)" xlink:href="#Helvetica-99"/>
      <use transform="translate(808.473789 -26.096875)scale(0.7)" xlink:href="#Helvetica-114"/>
      <use transform="translate(831.784336 -26.096875)scale(0.7)" xlink:href="#Helvetica-107"/>
      <use transform="translate(869.39918 0.051563)" xlink:href="#Helvetica-67"/>
      <use transform="translate(942.531172 36.659375)scale(0.7)" xlink:href="#Helvetica-99"/>
      <use transform="translate(980.146016 0.051563)" xlink:href="#Helvetica-32"/>
      <use transform="translate(1007.929219 0.051563)" xlink:href="#Helvetica-40"/>
      <use transform="translate(1041.23 0.051563)" xlink:href="#Helvetica-916"/>
      <use transform="translate(1114.361992 36.659375)scale(0.7)" xlink:href="#Helvetica-8242"/>
      <use transform="translate(1156.947539 0.051563)" xlink:href="#Helvetica-61"/>
      <use transform="translate(1232.006133 0.051563)" xlink:href="#Helvetica-49"/>
      <use transform="translate(1287.621367 0.051563)" xlink:href="#Helvetica-47"/>
      <use transform="translate(1315.40457 0.051563)" xlink:href="#Helvetica-40"/>
      <use transform="translate(1348.705352 0.051563)" xlink:href="#Helvetica-52"/>
      <use transform="translate(1404.320586 0.051563)" xlink:href="#Helvetica-Oblique-74"/>
      <use transform="translate(1454.320586 0.051563)" xlink:href="#Helvetica-41"/>
      <use transform="translate(1487.621367 0.051563)" xlink:href="#Helvetica-41"/>
     </g>
    </g>
   </g>
   <g id="matplotlib.axis_2">
    <g id="ytick_1">
     <g id="line2d_1">
      <defs>
       <path d="M 0 0 
L -3.5 0 
" id="m37e72d7033" style="stroke:#000000;stroke-width:0.8;"/>
      </defs>
      <g>
       <use style="stroke:#000000;stroke-width:0.8;" x="52.562" xlink:href="#m37e72d7033" y="293.817778"/>
      </g>
     </g>
     <g id="text_2">
      <!-- 0.0 -->
      <g transform="translate(31.66756 297.403062)scale(0.09996 -0.09996)">
       <defs>
        <path d="M 27.046875 69.921875 
Q 40.625 69.921875 46.6875 58.734375 
Q 51.375 50.09375 51.375 35.0625 
Q 51.375 20.796875 47.125 11.46875 
Q 40.96875 -1.90625 27 -1.90625 
Q 14.40625 -1.90625 8.25 9.03125 
Q 3.125 18.171875 3.125 33.546875 
Q 3.125 45.453125 6.203125 54 
Q 11.96875 69.921875 27.046875 69.921875 
z
M 26.953125 6.109375 
Q 33.796875 6.109375 37.84375 12.15625 
Q 41.890625 18.21875 41.890625 34.71875 
Q 41.890625 46.625 38.953125 54.3125 
Q 36.03125 62.015625 27.59375 62.015625 
Q 19.828125 62.015625 16.234375 54.703125 
Q 12.640625 47.40625 12.640625 33.203125 
Q 12.640625 22.515625 14.9375 16.015625 
Q 18.453125 6.109375 26.953125 6.109375 
z
" id="Helvetica-48"/>
        <path d="M 8.546875 10.640625 
L 18.75 10.640625 
L 18.75 0 
L 8.546875 0 
z
" id="Helvetica-46"/>
       </defs>
       <use xlink:href="#Helvetica-48"/>
       <use x="55.615234" xlink:href="#Helvetica-46"/>
       <use x="83.398438" xlink:href="#Helvetica-48"/>
      </g>
     </g>
    </g>
    <g id="ytick_2">
     <g id="line2d_2">
      <g>
       <use style="stroke:#000000;stroke-width:0.8;" x="52.562" xlink:href="#m37e72d7033" y="241.060741"/>
      </g>
     </g>
     <g id="text_3">
      <!-- 0.5 -->
      <g transform="translate(31.66756 244.646025)scale(0.09996 -0.09996)">
       <defs>
        <path d="M 12.359375 17.828125 
Q 13.234375 10.296875 19.34375 7.421875 
Q 22.46875 5.953125 26.5625 5.953125 
Q 34.375 5.953125 38.125 10.9375 
Q 41.890625 15.921875 41.890625 21.96875 
Q 41.890625 29.296875 37.421875 33.296875 
Q 32.953125 37.3125 26.703125 37.3125 
Q 22.171875 37.3125 18.921875 35.546875 
Q 15.671875 33.796875 13.375 30.671875 
L 5.765625 31.109375 
L 11.078125 68.75 
L 47.40625 68.75 
L 47.40625 60.25 
L 17.671875 60.25 
L 14.703125 40.828125 
Q 17.140625 42.671875 19.34375 43.609375 
Q 23.25 45.21875 28.375 45.21875 
Q 37.984375 45.21875 44.671875 39.015625 
Q 51.375 32.8125 51.375 23.296875 
Q 51.375 13.375 45.234375 5.796875 
Q 39.109375 -1.765625 25.6875 -1.765625 
Q 17.140625 -1.765625 10.5625 3.046875 
Q 4 7.859375 3.21875 17.828125 
z
" id="Helvetica-53"/>
       </defs>
       <use xlink:href="#Helvetica-48"/>
       <use x="55.615234" xlink:href="#Helvetica-46"/>
       <use x="83.398438" xlink:href="#Helvetica-53"/>
      </g>
     </g>
    </g>
    <g id="ytick_3">
     <g id="line2d_3">
      <g>
       <use style="stroke:#000000;stroke-width:0.8;" x="52.562" xlink:href="#m37e72d7033" y="188.303704"/>
      </g>
     </g>
     <g id="text_4">
      <!-- 1.0 -->
      <g transform="translate(31.66756 191.888988)scale(0.09996 -0.09996)">
       <use xlink:href="#Helvetica-49"/>
       <use x="55.615234" xlink:href="#Helvetica-46"/>
       <use x="83.398438" xlink:href="#Helvetica-48"/>
      </g>
     </g>
    </g>
    <g id="ytick_4">
     <g id="line2d_4">
      <g>
       <use style="stroke:#000000;stroke-width:0.8;" x="52.562" xlink:href="#m37e72d7033" y="135.546667"/>
      </g>
     </g>
     <g id="text_5">
      <!-- 1.5 -->
      <g transform="translate(31.66756 139.131951)scale(0.09996 -0.09996)">
       <use xlink:href="#Helvetica-49"/>
       <use x="55.615234" xlink:href="#Helvetica-46"/>
       <use x="83.398438" xlink:href="#Helvetica-53"/>
      </g>
     </g>
    </g>
    <g id="ytick_5">
     <g id="line2d_5">
      <g>
       <use style="stroke:#000000;stroke-width:0.8;" x="52.562" xlink:href="#m37e72d7033" y="82.78963"/>
      </g>
     </g>
     <g id="text_6">
      <!-- 2.0 -->
      <g transform="translate(31.66756 86.374914)scale(0.09996 -0.09996)">
       <use xlink:href="#Helvetica-50"/>
       <use x="55.615234" xlink:href="#Helvetica-46"/>
       <use x="83.398438" xlink:href="#Helvetica-48"/>
      </g>
     </g>
    </g>
    <g id="text_7">
     <!-- intensity vs edited NOAH-2 $\rm SC^{c}$ -->
     <g transform="translate(25.02756 267.388)rotate(-90)scale(0.12 -0.12)">
      <defs>
       <path d="M 6.453125 52.296875 
L 14.796875 52.296875 
L 14.796875 44.875 
Q 18.5 49.46875 22.65625 51.46875 
Q 26.8125 53.46875 31.890625 53.46875 
Q 43.015625 53.46875 46.921875 45.703125 
Q 49.078125 41.453125 49.078125 33.546875 
L 49.078125 0 
L 40.140625 0 
L 40.140625 32.953125 
Q 40.140625 37.75 38.71875 40.671875 
Q 36.375 45.5625 30.21875 45.5625 
Q 27.09375 45.5625 25.09375 44.921875 
Q 21.484375 43.84375 18.75 40.625 
Q 16.546875 38.03125 15.890625 35.265625 
Q 15.234375 32.515625 15.234375 27.390625 
L 15.234375 0 
L 6.453125 0 
z
M 27.09375 53.5625 
z
" id="Helvetica-110"/>
       <path d="M 11.671875 16.40625 
Q 12.0625 12.015625 13.875 9.671875 
Q 17.1875 5.421875 25.390625 5.421875 
Q 30.28125 5.421875 33.984375 7.546875 
Q 37.703125 9.671875 37.703125 14.109375 
Q 37.703125 17.484375 34.71875 19.234375 
Q 32.8125 20.3125 27.203125 21.734375 
L 20.21875 23.484375 
Q 13.53125 25.140625 10.359375 27.203125 
Q 4.6875 30.765625 4.6875 37.0625 
Q 4.6875 44.484375 10.03125 49.0625 
Q 15.375 53.65625 24.421875 53.65625 
Q 36.234375 53.65625 41.453125 46.734375 
Q 44.734375 42.328125 44.625 37.25 
L 36.328125 37.25 
Q 36.078125 40.234375 34.234375 42.671875 
Q 31.203125 46.140625 23.734375 46.140625 
Q 18.75 46.140625 16.1875 44.234375 
Q 13.625 42.328125 13.625 39.203125 
Q 13.625 35.796875 17 33.734375 
Q 18.953125 32.515625 22.75 31.59375 
L 28.5625 30.171875 
Q 38.03125 27.875 41.265625 25.734375 
Q 46.390625 22.359375 46.390625 15.140625 
Q 46.390625 8.15625 41.09375 3.078125 
Q 35.796875 -2 24.953125 -2 
Q 13.28125 -2 8.421875 3.296875 
Q 3.5625 8.59375 3.21875 16.40625 
z
M 24.65625 53.5625 
z
" id="Helvetica-115"/>
       <path d="M 39.109375 52.296875 
L 48.828125 52.296875 
Q 46.96875 47.265625 40.578125 29.34375 
Q 35.796875 15.875 32.5625 7.375 
Q 24.953125 -12.640625 21.828125 -17.03125 
Q 18.703125 -21.4375 11.078125 -21.4375 
Q 9.234375 -21.4375 8.234375 -21.28125 
Q 7.234375 -21.140625 5.765625 -20.75 
L 5.765625 -12.75 
Q 8.0625 -13.375 9.078125 -13.515625 
Q 10.109375 -13.671875 10.890625 -13.671875 
Q 13.328125 -13.671875 14.46875 -12.859375 
Q 15.625 -12.0625 16.40625 -10.890625 
Q 16.65625 -10.5 18.15625 -6.875 
Q 19.671875 -3.265625 20.359375 -1.515625 
L 1.03125 52.296875 
L 10.984375 52.296875 
L 25 9.71875 
z
M 24.953125 53.5625 
z
" id="Helvetica-121"/>
       <path d="M 10.75 52.296875 
L 24.703125 9.71875 
L 39.3125 52.296875 
L 48.921875 52.296875 
L 29.203125 0 
L 19.828125 0 
L 0.53125 52.296875 
z
" id="Helvetica-118"/>
      </defs>
      <use transform="translate(0 0.723438)" xlink:href="#Helvetica-105"/>
      <use transform="translate(22.216797 0.723438)" xlink:href="#Helvetica-110"/>
      <use transform="translate(77.832031 0.723438)" xlink:href="#Helvetica-116"/>
      <use transform="translate(105.615234 0.723438)" xlink:href="#Helvetica-101"/>
      <use transform="translate(161.230469 0.723438)" xlink:href="#Helvetica-110"/>
      <use transform="translate(216.845703 0.723438)" xlink:href="#Helvetica-115"/>
      <use transform="translate(266.845703 0.723438)" xlink:href="#Helvetica-105"/>
      <use transform="translate(289.0625 0.723438)" xlink:href="#Helvetica-116"/>
      <use transform="translate(316.845703 0.723438)" xlink:href="#Helvetica-121"/>
      <use transform="translate(366.845703 0.723438)" xlink:href="#Helvetica-32"/>
      <use transform="translate(394.628906 0.723438)" xlink:href="#Helvetica-118"/>
      <use transform="translate(444.628906 0.723438)" xlink:href="#Helvetica-115"/>
      <use transform="translate(494.628906 0.723438)" xlink:href="#Helvetica-32"/>
      <use transform="translate(522.412109 0.723438)" xlink:href="#Helvetica-101"/>
      <use transform="translate(578.027344 0.723438)" xlink:href="#Helvetica-100"/>
      <use transform="translate(633.642578 0.723438)" xlink:href="#Helvetica-105"/>
      <use transform="translate(655.859375 0.723438)" xlink:href="#Helvetica-116"/>
      <use transform="translate(683.642578 0.723438)" xlink:href="#Helvetica-101"/>
      <use transform="translate(739.257812 0.723438)" xlink:href="#Helvetica-100"/>
      <use transform="translate(794.873047 0.723438)" xlink:href="#Helvetica-32"/>
      <use transform="translate(822.65625 0.723438)" xlink:href="#Helvetica-78"/>
      <use transform="translate(894.873047 0.723438)" xlink:href="#Helvetica-79"/>
      <use transform="translate(972.65625 0.723438)" xlink:href="#Helvetica-65"/>
      <use transform="translate(1039.355469 0.723438)" xlink:href="#Helvetica-72"/>
      <use transform="translate(1111.572266 0.723438)" xlink:href="#Helvetica-45"/>
      <use transform="translate(1144.873047 0.723438)" xlink:href="#Helvetica-50"/>
      <use transform="translate(1200.488281 0.723438)" xlink:href="#Helvetica-32"/>
      <use transform="translate(1228.271484 0.723438)" xlink:href="#Helvetica-83"/>
      <use transform="translate(1294.970703 0.723438)" xlink:href="#Helvetica-67"/>
      <use transform="translate(1368.102695 37.33125)scale(0.7)" xlink:href="#Helvetica-99"/>
     </g>
    </g>
   </g>
   <g id="PathCollection_10">
    <defs>
     <path d="M 4.229935 0 
L -4.229935 -0 
" id="m34d8a2bfcf" style="stroke:#b1400d;stroke-width:2.53125;"/>
    </defs>
    <g clip-path="url(#p4a76d10b83)">
     <use style="fill:#b1400d;stroke:#b1400d;stroke-width:2.53125;" x="135.4364" xlink:href="#m34d8a2bfcf" y="201.602234"/>
    </g>
   </g>
   <g id="line2d_6">
    <path clip-path="url(#p4a76d10b83)" d="M 52.562 188.303704 
L 259.748 188.303704 
" style="fill:none;stroke:#808080;stroke-dasharray:1.85,0.8;stroke-dashoffset:0;stroke-width:0.5;"/>
   </g>
   <g id="patch_3">
    <path d="M 52.562 325.472 
L 52.562 40.584 
" style="fill:none;stroke:#000000;stroke-linecap:square;stroke-linejoin:miter;stroke-width:1.3;"/>
   </g>
   <g id="patch_4">
    <path d="M 259.748 325.472 
L 259.748 40.584 
" style="fill:none;stroke:#000000;stroke-linecap:square;stroke-linejoin:miter;stroke-width:1.3;"/>
   </g>
   <g id="patch_5">
    <path d="M 52.562 325.472 
L 259.748 325.472 
" style="fill:none;stroke:#000000;stroke-linecap:square;stroke-linejoin:miter;stroke-width:1.3;"/>
   </g>
   <g id="patch_6">
    <path d="M 52.562 40.584 
L 259.748 40.584 
" style="fill:none;stroke:#000000;stroke-linecap:square;stroke-linejoin:miter;stroke-width:1.3;"/>
   </g>
   <g id="PathCollection_11">
    <defs>
     <path d="M 4.229935 0 
L -4.229935 -0 
" id="m0449e49917" style="stroke:#12711c;stroke-width:2.53125;"/>
    </defs>
    <g clip-path="url(#p4a76d10b83)">
     <use style="fill:#12711c;stroke:#12711c;stroke-width:2.53125;" x="176.8736" xlink:href="#m0449e49917" y="177.928676"/>
    </g>
   </g>
   <g id="text_8">
    <!-- (1.97) -->
    <g style="fill:#4c72b0;" transform="translate(78.327012 319.77424)scale(0.12 -0.12)">
     <defs>
      <path d="M 13.28125 16.890625 
Q 13.671875 9.625 18.890625 6.84375 
Q 21.578125 5.375 24.953125 5.375 
Q 31.25 5.375 35.6875 10.625 
Q 40.140625 15.875 42 31.9375 
Q 39.0625 27.296875 34.734375 25.40625 
Q 30.421875 23.53125 25.4375 23.53125 
Q 15.328125 23.53125 9.4375 29.828125 
Q 3.5625 36.140625 3.5625 46.046875 
Q 3.5625 55.5625 9.375 62.78125 
Q 15.1875 70.015625 26.515625 70.015625 
Q 41.796875 70.015625 47.609375 56.25 
Q 50.828125 48.6875 50.828125 37.3125 
Q 50.828125 24.46875 46.96875 14.546875 
Q 40.578125 -1.953125 25.296875 -1.953125 
Q 15.046875 -1.953125 9.71875 3.421875 
Q 4.390625 8.796875 4.390625 16.890625 
z
M 26.609375 31.25 
Q 31.84375 31.25 36.15625 34.6875 
Q 40.484375 38.140625 40.484375 46.734375 
Q 40.484375 54.4375 36.59375 58.21875 
Q 32.71875 62.015625 26.703125 62.015625 
Q 20.265625 62.015625 16.484375 57.6875 
Q 12.703125 53.375 12.703125 46.140625 
Q 12.703125 39.3125 16.015625 35.28125 
Q 19.34375 31.25 26.609375 31.25 
z
" id="Helvetica-57"/>
      <path d="M 52.296875 68.75 
L 52.296875 61.078125 
Q 48.921875 57.8125 43.328125 49.703125 
Q 37.75 41.609375 33.453125 32.234375 
Q 29.203125 23.09375 27 15.578125 
Q 25.59375 10.75 23.34375 0 
L 13.625 0 
Q 16.9375 20.015625 28.265625 39.84375 
Q 34.96875 51.46875 42.328125 59.90625 
L 3.65625 59.90625 
L 3.65625 68.75 
z
" id="Helvetica-55"/>
     </defs>
     <use xlink:href="#Helvetica-40"/>
     <use x="33.300781" xlink:href="#Helvetica-49"/>
     <use x="88.916016" xlink:href="#Helvetica-46"/>
     <use x="116.699219" xlink:href="#Helvetica-57"/>
     <use x="172.314453" xlink:href="#Helvetica-55"/>
     <use x="227.929688" xlink:href="#Helvetica-41"/>
    </g>
   </g>
   <g id="text_9">
    <!-- (0.87) -->
    <g style="fill:#dd8452;" transform="translate(119.764212 319.77424)scale(0.12 -0.12)">
     <defs>
      <path d="M 27.203125 40.625 
Q 33.015625 40.625 36.28125 43.875 
Q 39.546875 47.125 39.546875 51.609375 
Q 39.546875 55.515625 36.421875 58.78125 
Q 33.296875 62.0625 26.90625 62.0625 
Q 20.5625 62.0625 17.71875 58.78125 
Q 14.890625 55.515625 14.890625 51.125 
Q 14.890625 46.1875 18.546875 43.40625 
Q 22.21875 40.625 27.203125 40.625 
z
M 27.734375 6 
Q 33.84375 6 37.859375 9.296875 
Q 41.890625 12.59375 41.890625 19.140625 
Q 41.890625 25.921875 37.734375 29.4375 
Q 33.59375 32.953125 27.09375 32.953125 
Q 20.796875 32.953125 16.8125 29.359375 
Q 12.84375 25.78125 12.84375 19.4375 
Q 12.84375 13.96875 16.484375 9.984375 
Q 20.125 6 27.734375 6 
z
M 15.234375 37.25 
Q 11.578125 38.8125 9.515625 40.921875 
Q 5.671875 44.828125 5.671875 51.078125 
Q 5.671875 58.890625 11.328125 64.5 
Q 17 70.125 27.390625 70.125 
Q 37.453125 70.125 43.15625 64.8125 
Q 48.875 59.515625 48.875 52.4375 
Q 48.875 45.90625 45.5625 41.84375 
Q 43.703125 39.546875 39.796875 37.359375 
Q 44.140625 35.359375 46.625 32.765625 
Q 51.265625 27.875 51.265625 20.0625 
Q 51.265625 10.84375 45.0625 4.421875 
Q 38.875 -2 27.546875 -2 
Q 17.328125 -2 10.265625 3.53125 
Q 3.21875 9.078125 3.21875 19.625 
Q 3.21875 25.828125 6.25 30.34375 
Q 9.28125 34.859375 15.234375 37.25 
z
" id="Helvetica-56"/>
     </defs>
     <use xlink:href="#Helvetica-40"/>
     <use x="33.300781" xlink:href="#Helvetica-48"/>
     <use x="88.916016" xlink:href="#Helvetica-46"/>
     <use x="116.699219" xlink:href="#Helvetica-56"/>
     <use x="172.314453" xlink:href="#Helvetica-55"/>
     <use x="227.929688" xlink:href="#Helvetica-41"/>
    </g>
   </g>
   <g id="text_10">
    <!-- (1.10) -->
    <g style="fill:#55a868;" transform="translate(161.201413 319.77424)scale(0.12 -0.12)">
     <use xlink:href="#Helvetica-40"/>
     <use x="33.300781" xlink:href="#Helvetica-49"/>
     <use x="88.916016" xlink:href="#Helvetica-46"/>
     <use x="116.699219" xlink:href="#Helvetica-49"/>
     <use x="172.314453" xlink:href="#Helvetica-48"/>
     <use x="227.929688" xlink:href="#Helvetica-41"/>
    </g>
   </g>
   <g id="text_11">
    <!-- (0.22) -->
    <g style="fill:#c44e52;" transform="translate(202.638613 319.77424)scale(0.12 -0.12)">
     <use xlink:href="#Helvetica-40"/>
     <use x="33.300781" xlink:href="#Helvetica-48"/>
     <use x="88.916016" xlink:href="#Helvetica-46"/>
     <use x="116.699219" xlink:href="#Helvetica-50"/>
     <use x="172.314453" xlink:href="#Helvetica-50"/>
     <use x="227.929688" xlink:href="#Helvetica-41"/>
    </g>
   </g>
   <g id="text_12">
    <!-- (a) -->
    <g transform="translate(56.70572 56.412073)scale(0.14 -0.14)">
     <defs>
      <path d="M 10.0625 53.8125 
Q 13.921875 62.796875 21.34375 73.140625 
L 31.84375 73.140625 
L 28.859375 67.671875 
Q 22.703125 56.390625 20.3125 44.046875 
Q 18.75 35.9375 18.75 26.375 
Q 18.75 11.421875 23.09375 -1.125 
Q 25.640625 -8.546875 32.078125 -20.171875 
L 21.78125 -20.171875 
L 18.3125 -15.4375 
Q 14.9375 -11.140625 11.140625 -2.640625 
Q 4.34375 12.546875 4.34375 27.25 
Q 4.34375 40.625 10.0625 53.8125 
z
" id="Helvetica-Bold-40"/>
      <path d="M 35.84375 25.875 
Q 34.515625 25.046875 33.171875 24.53125 
Q 31.84375 24.03125 29.5 23.578125 
L 26.375 23 
Q 21.96875 22.21875 20.0625 21.09375 
Q 16.84375 19.1875 16.84375 15.1875 
Q 16.84375 11.625 18.8125 10.03125 
Q 20.796875 8.453125 23.640625 8.453125 
Q 28.125 8.453125 31.90625 11.078125 
Q 35.6875 13.71875 35.84375 20.703125 
z
M 27.390625 32.375 
Q 31.25 32.859375 32.90625 33.59375 
Q 35.890625 34.859375 35.890625 37.546875 
Q 35.890625 40.828125 33.609375 42.0625 
Q 31.34375 43.3125 26.953125 43.3125 
Q 22.015625 43.3125 19.96875 40.875 
Q 18.5 39.0625 18.015625 35.984375 
L 4.59375 35.984375 
Q 5.03125 42.96875 8.5 47.46875 
Q 14.015625 54.5 27.4375 54.5 
Q 36.1875 54.5 42.96875 51.03125 
Q 49.75 47.5625 49.75 37.9375 
L 49.75 13.53125 
Q 49.75 10.984375 49.859375 7.375 
Q 50 4.640625 50.6875 3.65625 
Q 51.375 2.6875 52.734375 2.046875 
L 52.734375 0 
L 37.59375 0 
Q 36.96875 1.609375 36.71875 3.015625 
Q 36.46875 4.4375 36.328125 6.25 
Q 33.453125 3.125 29.6875 0.921875 
Q 25.203125 -1.65625 19.53125 -1.65625 
Q 12.3125 -1.65625 7.59375 2.46875 
Q 2.875 6.59375 2.875 14.15625 
Q 2.875 23.96875 10.453125 28.375 
Q 14.59375 30.765625 22.65625 31.78125 
z
M 28.125 54.640625 
z
" id="Helvetica-Bold-97"/>
      <path d="M 11.765625 73.140625 
Q 19.1875 62.796875 23.046875 53.8125 
Q 28.765625 40.625 28.765625 27.25 
Q 28.765625 12.546875 21.96875 -2.640625 
Q 18.171875 -11.140625 14.796875 -15.4375 
L 11.328125 -20.171875 
L 1.03125 -20.171875 
Q 7.46875 -8.546875 10.015625 -1.125 
Q 14.359375 11.421875 14.359375 26.375 
Q 14.359375 35.9375 12.796875 44.046875 
Q 10.40625 56.390625 4.25 67.671875 
L 1.265625 73.140625 
L 11.765625 73.140625 
z
" id="Helvetica-Bold-41"/>
     </defs>
     <use xlink:href="#Helvetica-Bold-40"/>
     <use x="33.300781" xlink:href="#Helvetica-Bold-97"/>
     <use x="88.916016" xlink:href="#Helvetica-Bold-41"/>
    </g>
   </g>
   <g id="PathCollection_12">
    <defs>
     <path d="M 4.229935 0 
L -4.229935 -0 
" id="mb5a9862ccf" style="stroke:#8c0800;stroke-width:2.53125;"/>
    </defs>
    <g clip-path="url(#p4a76d10b83)">
     <use style="fill:#8c0800;stroke:#8c0800;stroke-width:2.53125;" x="218.3108" xlink:href="#mb5a9862ccf" y="271.010137"/>
    </g>
   </g>
  </g>
  <g id="axes_2">
   <g id="patch_7">
    <path d="M 276.208 325.472 
L 483.394 325.472 
L 483.394 40.584 
L 276.208 40.584 
z
" style="fill:#ffffff;"/>
   </g>
   <g id="PathCollection_13">
    <defs>
     <path d="M 0 2.5 
C 0.663008 2.5 1.29895 2.236584 1.767767 1.767767 
C 2.236584 1.29895 2.5 0.663008 2.5 -0 
C 2.5 -0.663008 2.236584 -1.29895 1.767767 -1.767767 
C 1.29895 -2.236584 0.663008 -2.5 0 -2.5 
C -0.663008 -2.5 -1.29895 -2.236584 -1.767767 -1.767767 
C -2.236584 -1.29895 -2.5 -0.663008 -2.5 0 
C -2.5 0.663008 -2.236584 1.29895 -1.767767 1.767767 
C -1.29895 2.236584 -0.663008 2.5 0 2.5 
z
" id="C4_0_bd455d9c32"/>
    </defs>
    <g clip-path="url(#p0e06ae7bf0)">
     <use style="fill:#4c72b0;fill-opacity:0.3;" x="312.79617" xlink:href="#C4_0_bd455d9c32" y="116.318808"/>
    </g>
    <g clip-path="url(#p0e06ae7bf0)">
     <use style="fill:#4c72b0;fill-opacity:0.3;" x="313.902858" xlink:href="#C4_0_bd455d9c32" y="99.798691"/>
    </g>
    <g clip-path="url(#p0e06ae7bf0)">
     <use style="fill:#4c72b0;fill-opacity:0.3;" x="315.948303" xlink:href="#C4_0_bd455d9c32" y="103.955162"/>
    </g>
    <g clip-path="url(#p0e06ae7bf0)">
     <use style="fill:#4c72b0;fill-opacity:0.3;" x="317.706591" xlink:href="#C4_0_bd455d9c32" y="133.916971"/>
    </g>
    <g clip-path="url(#p0e06ae7bf0)">
     <use style="fill:#4c72b0;fill-opacity:0.3;" x="313.526576" xlink:href="#C4_0_bd455d9c32" y="128.898175"/>
    </g>
   </g>
   <g id="PathCollection_14">
    <defs>
     <path d="M 0 2.5 
C 0.663008 2.5 1.29895 2.236584 1.767767 1.767767 
C 2.236584 1.29895 2.5 0.663008 2.5 -0 
C 2.5 -0.663008 2.236584 -1.29895 1.767767 -1.767767 
C 1.29895 -2.236584 0.663008 -2.5 0 -2.5 
C -0.663008 -2.5 -1.29895 -2.236584 -1.767767 -1.767767 
C -2.236584 -1.29895 -2.5 -0.663008 -2.5 0 
C -2.5 0.663008 -2.236584 1.29895 -1.767767 1.767767 
C -1.29895 2.236584 -0.663008 2.5 0 2.5 
z
" id="C5_0_d7b209042c"/>
    </defs>
    <g clip-path="url(#p0e06ae7bf0)">
     <use style="fill:#dd8452;fill-opacity:0.3;" x="363.95526" xlink:href="#C5_0_d7b209042c" y="182.862134"/>
    </g>
    <g clip-path="url(#p0e06ae7bf0)">
     <use style="fill:#dd8452;fill-opacity:0.3;" x="359.448067" xlink:href="#C5_0_d7b209042c" y="177.007332"/>
    </g>
    <g clip-path="url(#p0e06ae7bf0)">
     <use style="fill:#dd8452;fill-opacity:0.3;" x="363.843995" xlink:href="#C5_0_d7b209042c" y="203.334177"/>
    </g>
    <g clip-path="url(#p0e06ae7bf0)">
     <use style="fill:#dd8452;fill-opacity:0.3;" x="358.58892" xlink:href="#C5_0_d7b209042c" y="212.815186"/>
    </g>
    <g clip-path="url(#p0e06ae7bf0)">
     <use style="fill:#dd8452;fill-opacity:0.3;" x="362.049858" xlink:href="#C5_0_d7b209042c" y="205.666259"/>
    </g>
    <g clip-path="url(#p0e06ae7bf0)">
     <use style="fill:#dd8452;fill-opacity:0.3;" x="357.791312" xlink:href="#C5_0_d7b209042c" y="203.905796"/>
    </g>
    <g clip-path="url(#p0e06ae7bf0)">
     <use style="fill:#dd8452;fill-opacity:0.3;" x="363.049464" xlink:href="#C5_0_d7b209042c" y="199.818613"/>
    </g>
    <g clip-path="url(#p0e06ae7bf0)">
     <use style="fill:#dd8452;fill-opacity:0.3;" x="355.066359" xlink:href="#C5_0_d7b209042c" y="218.203069"/>
    </g>
    <g clip-path="url(#p0e06ae7bf0)">
     <use style="fill:#dd8452;fill-opacity:0.3;" x="354.991267" xlink:href="#C5_0_d7b209042c" y="216.444979"/>
    </g>
    <g clip-path="url(#p0e06ae7bf0)">
     <use style="fill:#dd8452;fill-opacity:0.3;" x="363.717707" xlink:href="#C5_0_d7b209042c" y="203.04439"/>
    </g>
    <g clip-path="url(#p0e06ae7bf0)">
     <use style="fill:#dd8452;fill-opacity:0.3;" x="364.045601" xlink:href="#C5_0_d7b209042c" y="181.846342"/>
    </g>
    <g clip-path="url(#p0e06ae7bf0)">
     <use style="fill:#dd8452;fill-opacity:0.3;" x="362.325341" xlink:href="#C5_0_d7b209042c" y="178.485133"/>
    </g>
    <g clip-path="url(#p0e06ae7bf0)">
     <use style="fill:#dd8452;fill-opacity:0.3;" x="358.618468" xlink:href="#C5_0_d7b209042c" y="196.063628"/>
    </g>
    <g clip-path="url(#p0e06ae7bf0)">
     <use style="fill:#dd8452;fill-opacity:0.3;" x="360.870519" xlink:href="#C5_0_d7b209042c" y="204.068186"/>
    </g>
   </g>
   <g id="PathCollection_15">
    <defs>
     <path d="M 0 2.5 
C 0.663008 2.5 1.29895 2.236584 1.767767 1.767767 
C 2.236584 1.29895 2.5 0.663008 2.5 -0 
C 2.5 -0.663008 2.236584 -1.29895 1.767767 -1.767767 
C 1.29895 -2.236584 0.663008 -2.5 0 -2.5 
C -0.663008 -2.5 -1.29895 -2.236584 -1.767767 -1.767767 
C -2.236584 -1.29895 -2.5 -0.663008 -2.5 0 
C -2.5 0.663008 -2.236584 1.29895 -1.767767 1.767767 
C -1.29895 2.236584 -0.663008 2.5 0 2.5 
z
" id="C6_0_20a4e08b47"/>
    </defs>
    <g clip-path="url(#p0e06ae7bf0)">
     <use style="fill:#55a868;fill-opacity:0.3;" x="395.904647" xlink:href="#C6_0_20a4e08b47" y="201.636993"/>
    </g>
    <g clip-path="url(#p0e06ae7bf0)">
     <use style="fill:#55a868;fill-opacity:0.3;" x="397.080792" xlink:href="#C6_0_20a4e08b47" y="198.567358"/>
    </g>
   </g>
   <g id="PathCollection_16">
    <defs>
     <path d="M 0 2.5 
C 0.663008 2.5 1.29895 2.236584 1.767767 1.767767 
C 2.236584 1.29895 2.5 0.663008 2.5 -0 
C 2.5 -0.663008 2.236584 -1.29895 1.767767 -1.767767 
C 1.29895 -2.236584 0.663008 -2.5 0 -2.5 
C -0.663008 -2.5 -1.29895 -2.236584 -1.767767 -1.767767 
C -2.236584 -1.29895 -2.5 -0.663008 -2.5 0 
C -2.5 0.663008 -2.236584 1.29895 -1.767767 1.767767 
C -1.29895 2.236584 -0.663008 2.5 0 2.5 
z
" id="C7_0_cef647d806"/>
    </defs>
    <g clip-path="url(#p0e06ae7bf0)">
     <use style="fill:#c44e52;fill-opacity:0.3;" x="437.535558" xlink:href="#C7_0_cef647d806" y="190.85033"/>
    </g>
    <g clip-path="url(#p0e06ae7bf0)">
     <use style="fill:#c44e52;fill-opacity:0.3;" x="440.693667" xlink:href="#C7_0_cef647d806" y="209.266595"/>
    </g>
    <g clip-path="url(#p0e06ae7bf0)">
     <use style="fill:#c44e52;fill-opacity:0.3;" x="444.073638" xlink:href="#C7_0_cef647d806" y="197.956453"/>
    </g>
    <g clip-path="url(#p0e06ae7bf0)">
     <use style="fill:#c44e52;fill-opacity:0.3;" x="444.780371" xlink:href="#C7_0_cef647d806" y="195.544038"/>
    </g>
    <g clip-path="url(#p0e06ae7bf0)">
     <use style="fill:#c44e52;fill-opacity:0.3;" x="440.803598" xlink:href="#C7_0_cef647d806" y="189.462757"/>
    </g>
    <g clip-path="url(#p0e06ae7bf0)">
     <use style="fill:#c44e52;fill-opacity:0.3;" x="438.318872" xlink:href="#C7_0_cef647d806" y="190.953343"/>
    </g>
    <g clip-path="url(#p0e06ae7bf0)">
     <use style="fill:#c44e52;fill-opacity:0.3;" x="445.573878" xlink:href="#C7_0_cef647d806" y="194.30409"/>
    </g>
    <g clip-path="url(#p0e06ae7bf0)">
     <use style="fill:#c44e52;fill-opacity:0.3;" x="443.625262" xlink:href="#C7_0_cef647d806" y="194.165215"/>
    </g>
    <g clip-path="url(#p0e06ae7bf0)">
     <use style="fill:#c44e52;fill-opacity:0.3;" x="442.059388" xlink:href="#C7_0_cef647d806" y="190.645245"/>
    </g>
    <g clip-path="url(#p0e06ae7bf0)">
     <use style="fill:#c44e52;fill-opacity:0.3;" x="442.978479" xlink:href="#C7_0_cef647d806" y="190.130796"/>
    </g>
    <g clip-path="url(#p0e06ae7bf0)">
     <use style="fill:#c44e52;fill-opacity:0.3;" x="443.757629" xlink:href="#C7_0_cef647d806" y="191.165586"/>
    </g>
    <g clip-path="url(#p0e06ae7bf0)">
     <use style="fill:#c44e52;fill-opacity:0.3;" x="442.884217" xlink:href="#C7_0_cef647d806" y="201.141972"/>
    </g>
    <g clip-path="url(#p0e06ae7bf0)">
     <use style="fill:#c44e52;fill-opacity:0.3;" x="446.68492" xlink:href="#C7_0_cef647d806" y="198.645685"/>
    </g>
    <g clip-path="url(#p0e06ae7bf0)">
     <use style="fill:#c44e52;fill-opacity:0.3;" x="441.707005" xlink:href="#C7_0_cef647d806" y="183.489825"/>
    </g>
    <g clip-path="url(#p0e06ae7bf0)">
     <use style="fill:#c44e52;fill-opacity:0.3;" x="439.063514" xlink:href="#C7_0_cef647d806" y="194.952834"/>
    </g>
    <g clip-path="url(#p0e06ae7bf0)">
     <use style="fill:#c44e52;fill-opacity:0.3;" x="438.234748" xlink:href="#C7_0_cef647d806" y="194.853924"/>
    </g>
    <g clip-path="url(#p0e06ae7bf0)">
     <use style="fill:#c44e52;fill-opacity:0.3;" x="440.755692" xlink:href="#C7_0_cef647d806" y="195.405787"/>
    </g>
    <g clip-path="url(#p0e06ae7bf0)">
     <use style="fill:#c44e52;fill-opacity:0.3;" x="446.432681" xlink:href="#C7_0_cef647d806" y="195.594369"/>
    </g>
    <g clip-path="url(#p0e06ae7bf0)">
     <use style="fill:#c44e52;fill-opacity:0.3;" x="441.80282" xlink:href="#C7_0_cef647d806" y="182.053495"/>
    </g>
    <g clip-path="url(#p0e06ae7bf0)">
     <use style="fill:#c44e52;fill-opacity:0.3;" x="441.61164" xlink:href="#C7_0_cef647d806" y="192.624652"/>
    </g>
    <g clip-path="url(#p0e06ae7bf0)">
     <use style="fill:#c44e52;fill-opacity:0.3;" x="444.407386" xlink:href="#C7_0_cef647d806" y="199.879807"/>
    </g>
    <g clip-path="url(#p0e06ae7bf0)">
     <use style="fill:#c44e52;fill-opacity:0.3;" x="444.791012" xlink:href="#C7_0_cef647d806" y="212.004892"/>
    </g>
    <g clip-path="url(#p0e06ae7bf0)">
     <use style="fill:#c44e52;fill-opacity:0.3;" x="443.57008" xlink:href="#C7_0_cef647d806" y="200.37872"/>
    </g>
    <g clip-path="url(#p0e06ae7bf0)">
     <use style="fill:#c44e52;fill-opacity:0.3;" x="446.556829" xlink:href="#C7_0_cef647d806" y="194.319394"/>
    </g>
    <g clip-path="url(#p0e06ae7bf0)">
     <use style="fill:#c44e52;fill-opacity:0.3;" x="446.325917" xlink:href="#C7_0_cef647d806" y="189.931856"/>
    </g>
    <g clip-path="url(#p0e06ae7bf0)">
     <use style="fill:#c44e52;fill-opacity:0.3;" x="443.25401" xlink:href="#C7_0_cef647d806" y="194.497994"/>
    </g>
    <g clip-path="url(#p0e06ae7bf0)">
     <use style="fill:#c44e52;fill-opacity:0.3;" x="439.657488" xlink:href="#C7_0_cef647d806" y="190.991473"/>
    </g>
    <g clip-path="url(#p0e06ae7bf0)">
     <use style="fill:#c44e52;fill-opacity:0.3;" x="439.99419" xlink:href="#C7_0_cef647d806" y="193.271946"/>
    </g>
    <g clip-path="url(#p0e06ae7bf0)">
     <use style="fill:#c44e52;fill-opacity:0.3;" x="440.803169" xlink:href="#C7_0_cef647d806" y="192.227925"/>
    </g>
    <g clip-path="url(#p0e06ae7bf0)">
     <use style="fill:#c44e52;fill-opacity:0.3;" x="446.529766" xlink:href="#C7_0_cef647d806" y="185.708264"/>
    </g>
    <g clip-path="url(#p0e06ae7bf0)">
     <use style="fill:#c44e52;fill-opacity:0.3;" x="442.463301" xlink:href="#C7_0_cef647d806" y="202.169399"/>
    </g>
    <g clip-path="url(#p0e06ae7bf0)">
     <use style="fill:#c44e52;fill-opacity:0.3;" x="445.726026" xlink:href="#C7_0_cef647d806" y="180.356324"/>
    </g>
    <g clip-path="url(#p0e06ae7bf0)">
     <use style="fill:#c44e52;fill-opacity:0.3;" x="437.707618" xlink:href="#C7_0_cef647d806" y="182.235244"/>
    </g>
    <g clip-path="url(#p0e06ae7bf0)">
     <use style="fill:#c44e52;fill-opacity:0.3;" x="441.782213" xlink:href="#C7_0_cef647d806" y="183.480454"/>
    </g>
    <g clip-path="url(#p0e06ae7bf0)">
     <use style="fill:#c44e52;fill-opacity:0.3;" x="437.673511" xlink:href="#C7_0_cef647d806" y="181.430505"/>
    </g>
    <g clip-path="url(#p0e06ae7bf0)">
     <use style="fill:#c44e52;fill-opacity:0.3;" x="444.689905" xlink:href="#C7_0_cef647d806" y="193.77624"/>
    </g>
    <g clip-path="url(#p0e06ae7bf0)">
     <use style="fill:#c44e52;fill-opacity:0.3;" x="441.708542" xlink:href="#C7_0_cef647d806" y="177.394843"/>
    </g>
    <g clip-path="url(#p0e06ae7bf0)">
     <use style="fill:#c44e52;fill-opacity:0.3;" x="438.659346" xlink:href="#C7_0_cef647d806" y="190.610253"/>
    </g>
    <g clip-path="url(#p0e06ae7bf0)">
     <use style="fill:#c44e52;fill-opacity:0.3;" x="446.874995" xlink:href="#C7_0_cef647d806" y="215.383765"/>
    </g>
    <g clip-path="url(#p0e06ae7bf0)">
     <use style="fill:#c44e52;fill-opacity:0.3;" x="441.80571" xlink:href="#C7_0_cef647d806" y="198.348429"/>
    </g>
    <g clip-path="url(#p0e06ae7bf0)">
     <use style="fill:#c44e52;fill-opacity:0.3;" x="442.308434" xlink:href="#C7_0_cef647d806" y="190.070779"/>
    </g>
    <g clip-path="url(#p0e06ae7bf0)">
     <use style="fill:#c44e52;fill-opacity:0.3;" x="445.852462" xlink:href="#C7_0_cef647d806" y="192.530598"/>
    </g>
    <g clip-path="url(#p0e06ae7bf0)">
     <use style="fill:#c44e52;fill-opacity:0.3;" x="443.913066" xlink:href="#C7_0_cef647d806" y="186.502288"/>
    </g>
    <g clip-path="url(#p0e06ae7bf0)">
     <use style="fill:#c44e52;fill-opacity:0.3;" x="438.635541" xlink:href="#C7_0_cef647d806" y="197.16401"/>
    </g>
    <g clip-path="url(#p0e06ae7bf0)">
     <use style="fill:#c44e52;fill-opacity:0.3;" x="440.084928" xlink:href="#C7_0_cef647d806" y="197.969946"/>
    </g>
    <g clip-path="url(#p0e06ae7bf0)">
     <use style="fill:#c44e52;fill-opacity:0.3;" x="444.472085" xlink:href="#C7_0_cef647d806" y="192.940964"/>
    </g>
    <g clip-path="url(#p0e06ae7bf0)">
     <use style="fill:#c44e52;fill-opacity:0.3;" x="439.490192" xlink:href="#C7_0_cef647d806" y="190.026935"/>
    </g>
    <g clip-path="url(#p0e06ae7bf0)">
     <use style="fill:#c44e52;fill-opacity:0.3;" x="437.664596" xlink:href="#C7_0_cef647d806" y="200.646147"/>
    </g>
    <g clip-path="url(#p0e06ae7bf0)">
     <use style="fill:#c44e52;fill-opacity:0.3;" x="437.233688" xlink:href="#C7_0_cef647d806" y="201.957771"/>
    </g>
    <g clip-path="url(#p0e06ae7bf0)">
     <use style="fill:#c44e52;fill-opacity:0.3;" x="441.279918" xlink:href="#C7_0_cef647d806" y="195.608665"/>
    </g>
    <g clip-path="url(#p0e06ae7bf0)">
     <use style="fill:#c44e52;fill-opacity:0.3;" x="445.20016" xlink:href="#C7_0_cef647d806" y="187.151108"/>
    </g>
    <g clip-path="url(#p0e06ae7bf0)">
     <use style="fill:#c44e52;fill-opacity:0.3;" x="446.256744" xlink:href="#C7_0_cef647d806" y="199.571733"/>
    </g>
   </g>
   <g id="PathCollection_17"/>
   <g id="PathCollection_18"/>
   <g id="PathCollection_19"/>
   <g id="PathCollection_20"/>
   <g id="PathCollection_21">
    <g clip-path="url(#p0e06ae7bf0)">
     <use style="fill:#001c7f;stroke:#001c7f;stroke-width:2.53125;" x="317.6452" xlink:href="#m2a43702f79" y="116.577561"/>
    </g>
   </g>
   <g id="matplotlib.axis_3">
    <g id="text_13">
     <!-- edited NOAH-2 $\rm S^{+}_{1}C^{c}$ ($\Delta' = 1/(4J)$) -->
     <g transform="translate(291.661 340.032)scale(0.12 -0.12)">
      <use transform="translate(0 0.051563)" xlink:href="#Helvetica-101"/>
      <use transform="translate(55.615234 0.051563)" xlink:href="#Helvetica-100"/>
      <use transform="translate(111.230469 0.051563)" xlink:href="#Helvetica-105"/>
      <use transform="translate(133.447266 0.051563)" xlink:href="#Helvetica-116"/>
      <use transform="translate(161.230469 0.051563)" xlink:href="#Helvetica-101"/>
      <use transform="translate(216.845703 0.051563)" xlink:href="#Helvetica-100"/>
      <use transform="translate(272.460938 0.051563)" xlink:href="#Helvetica-32"/>
      <use transform="translate(300.244141 0.051563)" xlink:href="#Helvetica-78"/>
      <use transform="translate(372.460938 0.051563)" xlink:href="#Helvetica-79"/>
      <use transform="translate(450.244141 0.051563)" xlink:href="#Helvetica-65"/>
      <use transform="translate(516.943359 0.051563)" xlink:href="#Helvetica-72"/>
      <use transform="translate(589.160156 0.051563)" xlink:href="#Helvetica-45"/>
      <use transform="translate(622.460938 0.051563)" xlink:href="#Helvetica-50"/>
      <use transform="translate(678.076172 0.051563)" xlink:href="#Helvetica-32"/>
      <use transform="translate(705.859375 0.051563)" xlink:href="#Helvetica-83"/>
      <use transform="translate(773.473789 36.659375)scale(0.7)" xlink:href="#Helvetica-43"/>
      <use transform="translate(773.473789 -26.096875)scale(0.7)" xlink:href="#Helvetica-49"/>
      <use transform="translate(816.967539 0.051563)" xlink:href="#Helvetica-67"/>
      <use transform="translate(890.099531 36.659375)scale(0.7)" xlink:href="#Helvetica-99"/>
      <use transform="translate(927.714375 0.051563)" xlink:href="#Helvetica-32"/>
      <use transform="translate(955.497578 0.051563)" xlink:href="#Helvetica-40"/>
      <use transform="translate(988.798359 0.051563)" xlink:href="#Helvetica-916"/>
      <use transform="translate(1061.930352 36.659375)scale(0.7)" xlink:href="#Helvetica-8242"/>
      <use transform="translate(1104.515898 0.051563)" xlink:href="#Helvetica-61"/>
      <use transform="translate(1179.574492 0.051563)" xlink:href="#Helvetica-49"/>
      <use transform="translate(1235.189727 0.051563)" xlink:href="#Helvetica-47"/>
      <use transform="translate(1262.97293 0.051563)" xlink:href="#Helvetica-40"/>
      <use transform="translate(1296.273711 0.051563)" xlink:href="#Helvetica-52"/>
      <use transform="translate(1351.888945 0.051563)" xlink:href="#Helvetica-Oblique-74"/>
      <use transform="translate(1401.888945 0.051563)" xlink:href="#Helvetica-41"/>
      <use transform="translate(1435.189727 0.051563)" xlink:href="#Helvetica-41"/>
     </g>
    </g>
   </g>
   <g id="PathCollection_22">
    <g clip-path="url(#p0e06ae7bf0)">
     <use style="fill:#b1400d;stroke:#b1400d;stroke-width:2.53125;" x="359.0824" xlink:href="#m34d8a2bfcf" y="198.826087"/>
    </g>
   </g>
   <g id="line2d_7">
    <path clip-path="url(#p0e06ae7bf0)" d="M 276.208 188.303704 
L 483.394 188.303704 
" style="fill:none;stroke:#808080;stroke-dasharray:1.85,0.8;stroke-dashoffset:0;stroke-width:0.5;"/>
   </g>
   <g id="patch_8">
    <path d="M 276.208 325.472 
L 276.208 40.584 
" style="fill:none;stroke:#000000;stroke-linecap:square;stroke-linejoin:miter;stroke-width:1.3;"/>
   </g>
   <g id="patch_9">
    <path d="M 483.394 325.472 
L 483.394 40.584 
" style="fill:none;stroke:#000000;stroke-linecap:square;stroke-linejoin:miter;stroke-width:1.3;"/>
   </g>
   <g id="patch_10">
    <path d="M 276.208 325.472 
L 483.394 325.472 
" style="fill:none;stroke:#000000;stroke-linecap:square;stroke-linejoin:miter;stroke-width:1.3;"/>
   </g>
   <g id="patch_11">
    <path d="M 276.208 40.584 
L 483.394 40.584 
" style="fill:none;stroke:#000000;stroke-linecap:square;stroke-linejoin:miter;stroke-width:1.3;"/>
   </g>
   <g id="PathCollection_23">
    <g clip-path="url(#p0e06ae7bf0)">
     <use style="fill:#12711c;stroke:#12711c;stroke-width:2.53125;" x="400.5196" xlink:href="#m0449e49917" y="200.102176"/>
    </g>
   </g>
   <g id="text_14">
    <!-- (1.68) -->
    <g style="fill:#4c72b0;" transform="translate(301.973013 319.77424)scale(0.12 -0.12)">
     <defs>
      <path d="M 29.25 70.21875 
Q 40.96875 70.21875 45.578125 64.140625 
Q 50.203125 58.0625 50.203125 51.609375 
L 41.5 51.609375 
Q 40.71875 55.765625 39.015625 58.109375 
Q 35.84375 62.5 29.390625 62.5 
Q 22.015625 62.5 17.671875 55.6875 
Q 13.328125 48.875 12.84375 36.1875 
Q 15.875 40.625 20.453125 42.828125 
Q 24.65625 44.78125 29.828125 44.78125 
Q 38.625 44.78125 45.15625 39.15625 
Q 51.703125 33.546875 51.703125 22.40625 
Q 51.703125 12.890625 45.5 5.53125 
Q 39.3125 -1.8125 27.828125 -1.8125 
Q 18.015625 -1.8125 10.890625 5.640625 
Q 3.765625 13.09375 3.765625 30.71875 
Q 3.765625 43.75 6.9375 52.828125 
Q 13.03125 70.21875 29.25 70.21875 
z
M 28.609375 6 
Q 35.546875 6 38.984375 10.65625 
Q 42.4375 15.328125 42.4375 21.6875 
Q 42.4375 27.046875 39.359375 31.90625 
Q 36.28125 36.765625 28.171875 36.765625 
Q 22.515625 36.765625 18.234375 33 
Q 13.96875 29.25 13.96875 21.6875 
Q 13.96875 15.046875 17.84375 10.515625 
Q 21.734375 6 28.609375 6 
z
" id="Helvetica-54"/>
     </defs>
     <use xlink:href="#Helvetica-40"/>
     <use x="33.300781" xlink:href="#Helvetica-49"/>
     <use x="88.916016" xlink:href="#Helvetica-46"/>
     <use x="116.699219" xlink:href="#Helvetica-54"/>
     <use x="172.314453" xlink:href="#Helvetica-56"/>
     <use x="227.929688" xlink:href="#Helvetica-41"/>
    </g>
   </g>
   <g id="text_15">
    <!-- (0.90) -->
    <g style="fill:#dd8452;" transform="translate(343.410213 319.77424)scale(0.12 -0.12)">
     <use xlink:href="#Helvetica-40"/>
     <use x="33.300781" xlink:href="#Helvetica-48"/>
     <use x="88.916016" xlink:href="#Helvetica-46"/>
     <use x="116.699219" xlink:href="#Helvetica-57"/>
     <use x="172.314453" xlink:href="#Helvetica-48"/>
     <use x="227.929688" xlink:href="#Helvetica-41"/>
    </g>
   </g>
   <g id="text_16">
    <!-- (0.89) -->
    <g style="fill:#55a868;" transform="translate(384.847413 319.77424)scale(0.12 -0.12)">
     <use xlink:href="#Helvetica-40"/>
     <use x="33.300781" xlink:href="#Helvetica-48"/>
     <use x="88.916016" xlink:href="#Helvetica-46"/>
     <use x="116.699219" xlink:href="#Helvetica-56"/>
     <use x="172.314453" xlink:href="#Helvetica-57"/>
     <use x="227.929688" xlink:href="#Helvetica-41"/>
    </g>
   </g>
   <g id="text_17">
    <!-- (0.95) -->
    <g style="fill:#c44e52;" transform="translate(426.284613 319.77424)scale(0.12 -0.12)">
     <use xlink:href="#Helvetica-40"/>
     <use x="33.300781" xlink:href="#Helvetica-48"/>
     <use x="88.916016" xlink:href="#Helvetica-46"/>
     <use x="116.699219" xlink:href="#Helvetica-57"/>
     <use x="172.314453" xlink:href="#Helvetica-53"/>
     <use x="227.929688" xlink:href="#Helvetica-41"/>
    </g>
   </g>
   <g id="text_18">
    <!-- (b) -->
    <g transform="translate(280.35172 56.412073)scale(0.14 -0.14)">
     <defs>
      <path d="M 35.25 54.390625 
Q 45.75 54.390625 51.6875 46.828125 
Q 57.625 39.265625 57.625 27.296875 
Q 57.625 14.890625 51.765625 6.734375 
Q 45.90625 -1.421875 35.40625 -1.421875 
Q 28.8125 -1.421875 24.8125 1.21875 
Q 22.40625 2.78125 19.625 6.6875 
L 19.625 0 
L 6 0 
L 6 71.875 
L 19.875 71.875 
L 19.875 46.296875 
Q 22.515625 50 25.6875 51.953125 
Q 29.4375 54.390625 35.25 54.390625 
z
M 31.6875 10.0625 
Q 37.0625 10.0625 40.03125 14.40625 
Q 43.015625 18.75 43.015625 25.828125 
Q 43.015625 31.5 41.546875 35.203125 
Q 38.765625 42.234375 31.296875 42.234375 
Q 23.734375 42.234375 20.90625 35.359375 
Q 19.4375 31.6875 19.4375 25.875 
Q 19.4375 19.046875 22.453125 14.546875 
Q 25.484375 10.0625 31.6875 10.0625 
z
" id="Helvetica-Bold-98"/>
     </defs>
     <use xlink:href="#Helvetica-Bold-40"/>
     <use x="33.300781" xlink:href="#Helvetica-Bold-98"/>
     <use x="94.384766" xlink:href="#Helvetica-Bold-41"/>
    </g>
   </g>
   <g id="PathCollection_24">
    <g clip-path="url(#p0e06ae7bf0)">
     <use style="fill:#8c0800;stroke:#8c0800;stroke-width:2.53125;" x="441.9568" xlink:href="#mb5a9862ccf" y="193.53357"/>
    </g>
   </g>
  </g>
  <g id="axes_3">
   <g id="patch_12">
    <path d="M 499.854 325.472 
L 707.04 325.472 
L 707.04 40.584 
L 499.854 40.584 
z
" style="fill:#ffffff;"/>
   </g>
   <g id="PathCollection_25">
    <defs>
     <path d="M 0 2.5 
C 0.663008 2.5 1.29895 2.236584 1.767767 1.767767 
C 2.236584 1.29895 2.5 0.663008 2.5 -0 
C 2.5 -0.663008 2.236584 -1.29895 1.767767 -1.767767 
C 1.29895 -2.236584 0.663008 -2.5 0 -2.5 
C -0.663008 -2.5 -1.29895 -2.236584 -1.767767 -1.767767 
C -2.236584 -1.29895 -2.5 -0.663008 -2.5 0 
C -2.5 0.663008 -2.236584 1.29895 -1.767767 1.767767 
C -1.29895 2.236584 -0.663008 2.5 0 2.5 
z
" id="C8_0_b371c0fd05"/>
    </defs>
    <g clip-path="url(#p4936f345cc)">
     <use style="fill:#4c72b0;fill-opacity:0.3;" x="538.356269" xlink:href="#C8_0_b371c0fd05" y="104.637876"/>
    </g>
    <g clip-path="url(#p4936f345cc)">
     <use style="fill:#4c72b0;fill-opacity:0.3;" x="536.968124" xlink:href="#C8_0_b371c0fd05" y="105.100551"/>
    </g>
    <g clip-path="url(#p4936f345cc)">
     <use style="fill:#4c72b0;fill-opacity:0.3;" x="540.816022" xlink:href="#C8_0_b371c0fd05" y="102.469629"/>
    </g>
    <g clip-path="url(#p4936f345cc)">
     <use style="fill:#4c72b0;fill-opacity:0.3;" x="542.282882" xlink:href="#C8_0_b371c0fd05" y="140.890447"/>
    </g>
    <g clip-path="url(#p4936f345cc)">
     <use style="fill:#4c72b0;fill-opacity:0.3;" x="543.277215" xlink:href="#C8_0_b371c0fd05" y="122.762525"/>
    </g>
   </g>
   <g id="PathCollection_26">
    <defs>
     <path d="M 0 2.5 
C 0.663008 2.5 1.29895 2.236584 1.767767 1.767767 
C 2.236584 1.29895 2.5 0.663008 2.5 -0 
C 2.5 -0.663008 2.236584 -1.29895 1.767767 -1.767767 
C 1.29895 -2.236584 0.663008 -2.5 0 -2.5 
C -0.663008 -2.5 -1.29895 -2.236584 -1.767767 -1.767767 
C -2.236584 -1.29895 -2.5 -0.663008 -2.5 0 
C -2.5 0.663008 -2.236584 1.29895 -1.767767 1.767767 
C -1.29895 2.236584 -0.663008 2.5 0 2.5 
z
" id="C9_0_5e02506413"/>
    </defs>
    <g clip-path="url(#p4936f345cc)">
     <use style="fill:#dd8452;fill-opacity:0.3;" x="580.294949" xlink:href="#C9_0_5e02506413" y="225.629399"/>
    </g>
    <g clip-path="url(#p4936f345cc)">
     <use style="fill:#dd8452;fill-opacity:0.3;" x="583.789573" xlink:href="#C9_0_5e02506413" y="220.466259"/>
    </g>
    <g clip-path="url(#p4936f345cc)">
     <use style="fill:#dd8452;fill-opacity:0.3;" x="578.090873" xlink:href="#C9_0_5e02506413" y="236.962832"/>
    </g>
    <g clip-path="url(#p4936f345cc)">
     <use style="fill:#dd8452;fill-opacity:0.3;" x="577.923474" xlink:href="#C9_0_5e02506413" y="235.539988"/>
    </g>
    <g clip-path="url(#p4936f345cc)">
     <use style="fill:#dd8452;fill-opacity:0.3;" x="577.715509" xlink:href="#C9_0_5e02506413" y="233.274395"/>
    </g>
    <g clip-path="url(#p4936f345cc)">
     <use style="fill:#dd8452;fill-opacity:0.3;" x="587.819248" xlink:href="#C9_0_5e02506413" y="231.750501"/>
    </g>
    <g clip-path="url(#p4936f345cc)">
     <use style="fill:#dd8452;fill-opacity:0.3;" x="580.926473" xlink:href="#C9_0_5e02506413" y="204.320074"/>
    </g>
    <g clip-path="url(#p4936f345cc)">
     <use style="fill:#dd8452;fill-opacity:0.3;" x="584.680155" xlink:href="#C9_0_5e02506413" y="219.468733"/>
    </g>
    <g clip-path="url(#p4936f345cc)">
     <use style="fill:#dd8452;fill-opacity:0.3;" x="585.907118" xlink:href="#C9_0_5e02506413" y="221.048593"/>
    </g>
    <g clip-path="url(#p4936f345cc)">
     <use style="fill:#dd8452;fill-opacity:0.3;" x="583.318727" xlink:href="#C9_0_5e02506413" y="214.997999"/>
    </g>
    <g clip-path="url(#p4936f345cc)">
     <use style="fill:#dd8452;fill-opacity:0.3;" x="578.555907" xlink:href="#C9_0_5e02506413" y="196.538557"/>
    </g>
    <g clip-path="url(#p4936f345cc)">
     <use style="fill:#dd8452;fill-opacity:0.3;" x="577.784455" xlink:href="#C9_0_5e02506413" y="194.006697"/>
    </g>
    <g clip-path="url(#p4936f345cc)">
     <use style="fill:#dd8452;fill-opacity:0.3;" x="577.569215" xlink:href="#C9_0_5e02506413" y="210.75212"/>
    </g>
    <g clip-path="url(#p4936f345cc)">
     <use style="fill:#dd8452;fill-opacity:0.3;" x="580.838839" xlink:href="#C9_0_5e02506413" y="217.777289"/>
    </g>
   </g>
   <g id="PathCollection_27">
    <defs>
     <path d="M 0 2.5 
C 0.663008 2.5 1.29895 2.236584 1.767767 1.767767 
C 2.236584 1.29895 2.5 0.663008 2.5 -0 
C 2.5 -0.663008 2.236584 -1.29895 1.767767 -1.767767 
C 1.29895 -2.236584 0.663008 -2.5 0 -2.5 
C -0.663008 -2.5 -1.29895 -2.236584 -1.767767 -1.767767 
C -2.236584 -1.29895 -2.5 -0.663008 -2.5 0 
C -2.5 0.663008 -2.236584 1.29895 -1.767767 1.767767 
C -1.29895 2.236584 -0.663008 2.5 0 2.5 
z
" id="Ca_0_cce69127ab"/>
    </defs>
    <g clip-path="url(#p4936f345cc)">
     <use style="fill:#55a868;fill-opacity:0.3;" x="627.510738" xlink:href="#Ca_0_cce69127ab" y="205.889202"/>
    </g>
    <g clip-path="url(#p4936f345cc)">
     <use style="fill:#55a868;fill-opacity:0.3;" x="628.928649" xlink:href="#Ca_0_cce69127ab" y="215.425855"/>
    </g>
   </g>
   <g id="PathCollection_28">
    <defs>
     <path d="M 0 2.5 
C 0.663008 2.5 1.29895 2.236584 1.767767 1.767767 
C 2.236584 1.29895 2.5 0.663008 2.5 -0 
C 2.5 -0.663008 2.236584 -1.29895 1.767767 -1.767767 
C 1.29895 -2.236584 0.663008 -2.5 0 -2.5 
C -0.663008 -2.5 -1.29895 -2.236584 -1.767767 -1.767767 
C -2.236584 -1.29895 -2.5 -0.663008 -2.5 0 
C -2.5 0.663008 -2.236584 1.29895 -1.767767 1.767767 
C -1.29895 2.236584 -0.663008 2.5 0 2.5 
z
" id="Cb_0_1af0949809"/>
    </defs>
    <g clip-path="url(#p4936f345cc)">
     <use style="fill:#c44e52;fill-opacity:0.3;" x="666.654208" xlink:href="#Cb_0_1af0949809" y="200.210673"/>
    </g>
    <g clip-path="url(#p4936f345cc)">
     <use style="fill:#c44e52;fill-opacity:0.3;" x="663.404174" xlink:href="#Cb_0_1af0949809" y="180.178478"/>
    </g>
    <g clip-path="url(#p4936f345cc)">
     <use style="fill:#c44e52;fill-opacity:0.3;" x="664.338873" xlink:href="#Cb_0_1af0949809" y="188.9256"/>
    </g>
    <g clip-path="url(#p4936f345cc)">
     <use style="fill:#c44e52;fill-opacity:0.3;" x="661.197882" xlink:href="#Cb_0_1af0949809" y="190.336991"/>
    </g>
    <g clip-path="url(#p4936f345cc)">
     <use style="fill:#c44e52;fill-opacity:0.3;" x="660.953326" xlink:href="#Cb_0_1af0949809" y="190.004347"/>
    </g>
    <g clip-path="url(#p4936f345cc)">
     <use style="fill:#c44e52;fill-opacity:0.3;" x="667.545706" xlink:href="#Cb_0_1af0949809" y="181.144177"/>
    </g>
    <g clip-path="url(#p4936f345cc)">
     <use style="fill:#c44e52;fill-opacity:0.3;" x="665.990872" xlink:href="#Cb_0_1af0949809" y="193.059786"/>
    </g>
    <g clip-path="url(#p4936f345cc)">
     <use style="fill:#c44e52;fill-opacity:0.3;" x="669.941449" xlink:href="#Cb_0_1af0949809" y="188.374773"/>
    </g>
    <g clip-path="url(#p4936f345cc)">
     <use style="fill:#c44e52;fill-opacity:0.3;" x="660.709196" xlink:href="#Cb_0_1af0949809" y="178.155919"/>
    </g>
    <g clip-path="url(#p4936f345cc)">
     <use style="fill:#c44e52;fill-opacity:0.3;" x="663.17087" xlink:href="#Cb_0_1af0949809" y="173.924327"/>
    </g>
    <g clip-path="url(#p4936f345cc)">
     <use style="fill:#c44e52;fill-opacity:0.3;" x="670.22359" xlink:href="#Cb_0_1af0949809" y="181.16085"/>
    </g>
    <g clip-path="url(#p4936f345cc)">
     <use style="fill:#c44e52;fill-opacity:0.3;" x="664.651184" xlink:href="#Cb_0_1af0949809" y="187.564038"/>
    </g>
    <g clip-path="url(#p4936f345cc)">
     <use style="fill:#c44e52;fill-opacity:0.3;" x="661.429148" xlink:href="#Cb_0_1af0949809" y="185.459425"/>
    </g>
    <g clip-path="url(#p4936f345cc)">
     <use style="fill:#c44e52;fill-opacity:0.3;" x="669.670686" xlink:href="#Cb_0_1af0949809" y="167.480694"/>
    </g>
    <g clip-path="url(#p4936f345cc)">
     <use style="fill:#c44e52;fill-opacity:0.3;" x="663.865595" xlink:href="#Cb_0_1af0949809" y="178.719263"/>
    </g>
    <g clip-path="url(#p4936f345cc)">
     <use style="fill:#c44e52;fill-opacity:0.3;" x="661.758346" xlink:href="#Cb_0_1af0949809" y="179.776981"/>
    </g>
    <g clip-path="url(#p4936f345cc)">
     <use style="fill:#c44e52;fill-opacity:0.3;" x="667.141854" xlink:href="#Cb_0_1af0949809" y="192.502045"/>
    </g>
    <g clip-path="url(#p4936f345cc)">
     <use style="fill:#c44e52;fill-opacity:0.3;" x="661.290825" xlink:href="#Cb_0_1af0949809" y="192.318977"/>
    </g>
    <g clip-path="url(#p4936f345cc)">
     <use style="fill:#c44e52;fill-opacity:0.3;" x="665.487422" xlink:href="#Cb_0_1af0949809" y="164.418454"/>
    </g>
    <g clip-path="url(#p4936f345cc)">
     <use style="fill:#c44e52;fill-opacity:0.3;" x="665.901367" xlink:href="#Cb_0_1af0949809" y="175.892401"/>
    </g>
    <g clip-path="url(#p4936f345cc)">
     <use style="fill:#c44e52;fill-opacity:0.3;" x="667.550481" xlink:href="#Cb_0_1af0949809" y="202.784988"/>
    </g>
    <g clip-path="url(#p4936f345cc)">
     <use style="fill:#c44e52;fill-opacity:0.3;" x="669.28904" xlink:href="#Cb_0_1af0949809" y="194.848577"/>
    </g>
    <g clip-path="url(#p4936f345cc)">
     <use style="fill:#c44e52;fill-opacity:0.3;" x="663.985549" xlink:href="#Cb_0_1af0949809" y="192.629652"/>
    </g>
    <g clip-path="url(#p4936f345cc)">
     <use style="fill:#c44e52;fill-opacity:0.3;" x="666.073346" xlink:href="#Cb_0_1af0949809" y="188.003154"/>
    </g>
    <g clip-path="url(#p4936f345cc)">
     <use style="fill:#c44e52;fill-opacity:0.3;" x="668.655811" xlink:href="#Cb_0_1af0949809" y="181.746654"/>
    </g>
    <g clip-path="url(#p4936f345cc)">
     <use style="fill:#c44e52;fill-opacity:0.3;" x="665.232235" xlink:href="#Cb_0_1af0949809" y="193.692251"/>
    </g>
    <g clip-path="url(#p4936f345cc)">
     <use style="fill:#c44e52;fill-opacity:0.3;" x="662.192002" xlink:href="#Cb_0_1af0949809" y="175.476185"/>
    </g>
    <g clip-path="url(#p4936f345cc)">
     <use style="fill:#c44e52;fill-opacity:0.3;" x="661.269871" xlink:href="#Cb_0_1af0949809" y="188.907427"/>
    </g>
    <g clip-path="url(#p4936f345cc)">
     <use style="fill:#c44e52;fill-opacity:0.3;" x="670.291109" xlink:href="#Cb_0_1af0949809" y="177.835635"/>
    </g>
    <g clip-path="url(#p4936f345cc)">
     <use style="fill:#c44e52;fill-opacity:0.3;" x="666.838307" xlink:href="#Cb_0_1af0949809" y="168.260537"/>
    </g>
    <g clip-path="url(#p4936f345cc)">
     <use style="fill:#c44e52;fill-opacity:0.3;" x="667.563794" xlink:href="#Cb_0_1af0949809" y="196.119185"/>
    </g>
    <g clip-path="url(#p4936f345cc)">
     <use style="fill:#c44e52;fill-opacity:0.3;" x="661.182865" xlink:href="#Cb_0_1af0949809" y="164.941585"/>
    </g>
    <g clip-path="url(#p4936f345cc)">
     <use style="fill:#c44e52;fill-opacity:0.3;" x="663.494481" xlink:href="#Cb_0_1af0949809" y="164.529114"/>
    </g>
    <g clip-path="url(#p4936f345cc)">
     <use style="fill:#c44e52;fill-opacity:0.3;" x="660.834657" xlink:href="#Cb_0_1af0949809" y="173.26423"/>
    </g>
    <g clip-path="url(#p4936f345cc)">
     <use style="fill:#c44e52;fill-opacity:0.3;" x="662.983938" xlink:href="#Cb_0_1af0949809" y="170.366431"/>
    </g>
    <g clip-path="url(#p4936f345cc)">
     <use style="fill:#c44e52;fill-opacity:0.3;" x="664.489847" xlink:href="#Cb_0_1af0949809" y="181.921429"/>
    </g>
    <g clip-path="url(#p4936f345cc)">
     <use style="fill:#c44e52;fill-opacity:0.3;" x="666.467" xlink:href="#Cb_0_1af0949809" y="181.876982"/>
    </g>
    <g clip-path="url(#p4936f345cc)">
     <use style="fill:#c44e52;fill-opacity:0.3;" x="668.648291" xlink:href="#Cb_0_1af0949809" y="201.426704"/>
    </g>
    <g clip-path="url(#p4936f345cc)">
     <use style="fill:#c44e52;fill-opacity:0.3;" x="663.469842" xlink:href="#Cb_0_1af0949809" y="187.82756"/>
    </g>
    <g clip-path="url(#p4936f345cc)">
     <use style="fill:#c44e52;fill-opacity:0.3;" x="662.255992" xlink:href="#Cb_0_1af0949809" y="187.393775"/>
    </g>
    <g clip-path="url(#p4936f345cc)">
     <use style="fill:#c44e52;fill-opacity:0.3;" x="669.000511" xlink:href="#Cb_0_1af0949809" y="181.529419"/>
    </g>
    <g clip-path="url(#p4936f345cc)">
     <use style="fill:#c44e52;fill-opacity:0.3;" x="662.670485" xlink:href="#Cb_0_1af0949809" y="185.423792"/>
    </g>
    <g clip-path="url(#p4936f345cc)">
     <use style="fill:#c44e52;fill-opacity:0.3;" x="664.730864" xlink:href="#Cb_0_1af0949809" y="170.005872"/>
    </g>
    <g clip-path="url(#p4936f345cc)">
     <use style="fill:#c44e52;fill-opacity:0.3;" x="669.178277" xlink:href="#Cb_0_1af0949809" y="188.042383"/>
    </g>
    <g clip-path="url(#p4936f345cc)">
     <use style="fill:#c44e52;fill-opacity:0.3;" x="667.749899" xlink:href="#Cb_0_1af0949809" y="185.324705"/>
    </g>
    <g clip-path="url(#p4936f345cc)">
     <use style="fill:#c44e52;fill-opacity:0.3;" x="666.349505" xlink:href="#Cb_0_1af0949809" y="176.019308"/>
    </g>
    <g clip-path="url(#p4936f345cc)">
     <use style="fill:#c44e52;fill-opacity:0.3;" x="665.527412" xlink:href="#Cb_0_1af0949809" y="172.387152"/>
    </g>
    <g clip-path="url(#p4936f345cc)">
     <use style="fill:#c44e52;fill-opacity:0.3;" x="660.548652" xlink:href="#Cb_0_1af0949809" y="189.415887"/>
    </g>
    <g clip-path="url(#p4936f345cc)">
     <use style="fill:#c44e52;fill-opacity:0.3;" x="668.424395" xlink:href="#Cb_0_1af0949809" y="202.135699"/>
    </g>
    <g clip-path="url(#p4936f345cc)">
     <use style="fill:#c44e52;fill-opacity:0.3;" x="669.063309" xlink:href="#Cb_0_1af0949809" y="187.683203"/>
    </g>
    <g clip-path="url(#p4936f345cc)">
     <use style="fill:#c44e52;fill-opacity:0.3;" x="664.243214" xlink:href="#Cb_0_1af0949809" y="165.354643"/>
    </g>
    <g clip-path="url(#p4936f345cc)">
     <use style="fill:#c44e52;fill-opacity:0.3;" x="668.632947" xlink:href="#Cb_0_1af0949809" y="184.570585"/>
    </g>
   </g>
   <g id="PathCollection_29"/>
   <g id="PathCollection_30"/>
   <g id="PathCollection_31"/>
   <g id="PathCollection_32"/>
   <g id="PathCollection_33">
    <g clip-path="url(#p4936f345cc)">
     <use style="fill:#001c7f;stroke:#001c7f;stroke-width:2.53125;" x="541.2912" xlink:href="#m2a43702f79" y="115.172205"/>
    </g>
   </g>
   <g id="matplotlib.axis_4">
    <g id="text_19">
     <!-- edited NOAH-2 $\rm S^{+}_{2}C^{c}$ ($\Delta' = 1/(4J)$) -->
     <g transform="translate(515.307 340.032)scale(0.12 -0.12)">
      <use transform="translate(0 0.051563)" xlink:href="#Helvetica-101"/>
      <use transform="translate(55.615234 0.051563)" xlink:href="#Helvetica-100"/>
      <use transform="translate(111.230469 0.051563)" xlink:href="#Helvetica-105"/>
      <use transform="translate(133.447266 0.051563)" xlink:href="#Helvetica-116"/>
      <use transform="translate(161.230469 0.051563)" xlink:href="#Helvetica-101"/>
      <use transform="translate(216.845703 0.051563)" xlink:href="#Helvetica-100"/>
      <use transform="translate(272.460938 0.051563)" xlink:href="#Helvetica-32"/>
      <use transform="translate(300.244141 0.051563)" xlink:href="#Helvetica-78"/>
      <use transform="translate(372.460938 0.051563)" xlink:href="#Helvetica-79"/>
      <use transform="translate(450.244141 0.051563)" xlink:href="#Helvetica-65"/>
      <use transform="translate(516.943359 0.051563)" xlink:href="#Helvetica-72"/>
      <use transform="translate(589.160156 0.051563)" xlink:href="#Helvetica-45"/>
      <use transform="translate(622.460938 0.051563)" xlink:href="#Helvetica-50"/>
      <use transform="translate(678.076172 0.051563)" xlink:href="#Helvetica-32"/>
      <use transform="translate(705.859375 0.051563)" xlink:href="#Helvetica-83"/>
      <use transform="translate(773.473789 36.659375)scale(0.7)" xlink:href="#Helvetica-43"/>
      <use transform="translate(773.473789 -26.096875)scale(0.7)" xlink:href="#Helvetica-50"/>
      <use transform="translate(816.967539 0.051563)" xlink:href="#Helvetica-67"/>
      <use transform="translate(890.099531 36.659375)scale(0.7)" xlink:href="#Helvetica-99"/>
      <use transform="translate(927.714375 0.051563)" xlink:href="#Helvetica-32"/>
      <use transform="translate(955.497578 0.051563)" xlink:href="#Helvetica-40"/>
      <use transform="translate(988.798359 0.051563)" xlink:href="#Helvetica-916"/>
      <use transform="translate(1061.930352 36.659375)scale(0.7)" xlink:href="#Helvetica-8242"/>
      <use transform="translate(1104.515898 0.051563)" xlink:href="#Helvetica-61"/>
      <use transform="translate(1179.574492 0.051563)" xlink:href="#Helvetica-49"/>
      <use transform="translate(1235.189727 0.051563)" xlink:href="#Helvetica-47"/>
      <use transform="translate(1262.97293 0.051563)" xlink:href="#Helvetica-40"/>
      <use transform="translate(1296.273711 0.051563)" xlink:href="#Helvetica-52"/>
      <use transform="translate(1351.888945 0.051563)" xlink:href="#Helvetica-Oblique-74"/>
      <use transform="translate(1401.888945 0.051563)" xlink:href="#Helvetica-41"/>
      <use transform="translate(1435.189727 0.051563)" xlink:href="#Helvetica-41"/>
     </g>
    </g>
   </g>
   <g id="PathCollection_34">
    <g clip-path="url(#p4936f345cc)">
     <use style="fill:#b1400d;stroke:#b1400d;stroke-width:2.53125;" x="582.7284" xlink:href="#m34d8a2bfcf" y="218.752388"/>
    </g>
   </g>
   <g id="line2d_8">
    <path clip-path="url(#p4936f345cc)" d="M 499.854 188.303704 
L 707.04 188.303704 
" style="fill:none;stroke:#808080;stroke-dasharray:1.85,0.8;stroke-dashoffset:0;stroke-width:0.5;"/>
   </g>
   <g id="patch_13">
    <path d="M 499.854 325.472 
L 499.854 40.584 
" style="fill:none;stroke:#000000;stroke-linecap:square;stroke-linejoin:miter;stroke-width:1.3;"/>
   </g>
   <g id="patch_14">
    <path d="M 707.04 325.472 
L 707.04 40.584 
" style="fill:none;stroke:#000000;stroke-linecap:square;stroke-linejoin:miter;stroke-width:1.3;"/>
   </g>
   <g id="patch_15">
    <path d="M 499.854 325.472 
L 707.04 325.472 
" style="fill:none;stroke:#000000;stroke-linecap:square;stroke-linejoin:miter;stroke-width:1.3;"/>
   </g>
   <g id="patch_16">
    <path d="M 499.854 40.584 
L 707.04 40.584 
" style="fill:none;stroke:#000000;stroke-linecap:square;stroke-linejoin:miter;stroke-width:1.3;"/>
   </g>
   <g id="PathCollection_35">
    <g clip-path="url(#p4936f345cc)">
     <use style="fill:#12711c;stroke:#12711c;stroke-width:2.53125;" x="624.1656" xlink:href="#m0449e49917" y="210.657529"/>
    </g>
   </g>
   <g id="text_20">
    <!-- (1.69) -->
    <g style="fill:#4c72b0;" transform="translate(525.619013 319.77424)scale(0.12 -0.12)">
     <use xlink:href="#Helvetica-40"/>
     <use x="33.300781" xlink:href="#Helvetica-49"/>
     <use x="88.916016" xlink:href="#Helvetica-46"/>
     <use x="116.699219" xlink:href="#Helvetica-54"/>
     <use x="172.314453" xlink:href="#Helvetica-57"/>
     <use x="227.929688" xlink:href="#Helvetica-41"/>
    </g>
   </g>
   <g id="text_21">
    <!-- (0.71) -->
    <g style="fill:#dd8452;" transform="translate(567.056213 319.77424)scale(0.12 -0.12)">
     <use xlink:href="#Helvetica-40"/>
     <use x="33.300781" xlink:href="#Helvetica-48"/>
     <use x="88.916016" xlink:href="#Helvetica-46"/>
     <use x="116.699219" xlink:href="#Helvetica-55"/>
     <use x="172.314453" xlink:href="#Helvetica-49"/>
     <use x="227.929688" xlink:href="#Helvetica-41"/>
    </g>
   </g>
   <g id="text_22">
    <!-- (0.79) -->
    <g style="fill:#55a868;" transform="translate(608.493413 319.77424)scale(0.12 -0.12)">
     <use xlink:href="#Helvetica-40"/>
     <use x="33.300781" xlink:href="#Helvetica-48"/>
     <use x="88.916016" xlink:href="#Helvetica-46"/>
     <use x="116.699219" xlink:href="#Helvetica-55"/>
     <use x="172.314453" xlink:href="#Helvetica-57"/>
     <use x="227.929688" xlink:href="#Helvetica-41"/>
    </g>
   </g>
   <g id="text_23">
    <!-- (1.05) -->
    <g style="fill:#c44e52;" transform="translate(649.930613 319.77424)scale(0.12 -0.12)">
     <use xlink:href="#Helvetica-40"/>
     <use x="33.300781" xlink:href="#Helvetica-49"/>
     <use x="88.916016" xlink:href="#Helvetica-46"/>
     <use x="116.699219" xlink:href="#Helvetica-48"/>
     <use x="172.314453" xlink:href="#Helvetica-53"/>
     <use x="227.929688" xlink:href="#Helvetica-41"/>
    </g>
   </g>
   <g id="text_24">
    <!-- (c) -->
    <g transform="translate(503.99772 56.412073)scale(0.14 -0.14)">
     <defs>
      <path d="M 38.28125 34.125 
Q 37.890625 37.109375 36.28125 39.5 
Q 33.9375 42.71875 29 42.71875 
Q 21.96875 42.71875 19.390625 35.75 
Q 18.015625 32.03125 18.015625 25.875 
Q 18.015625 20.015625 19.390625 16.453125 
Q 21.875 9.8125 28.765625 9.8125 
Q 33.640625 9.8125 35.6875 12.453125 
Q 37.75 15.09375 38.1875 19.28125 
L 52.390625 19.28125 
Q 51.90625 12.9375 47.796875 7.28125 
Q 41.265625 -1.859375 28.421875 -1.859375 
Q 15.578125 -1.859375 9.515625 5.75 
Q 3.46875 13.375 3.46875 25.53125 
Q 3.46875 39.265625 10.15625 46.875 
Q 16.84375 54.5 28.609375 54.5 
Q 38.625 54.5 45 50 
Q 51.375 45.515625 52.546875 34.125 
z
M 28.859375 54.640625 
z
" id="Helvetica-Bold-99"/>
     </defs>
     <use xlink:href="#Helvetica-Bold-40"/>
     <use x="33.300781" xlink:href="#Helvetica-Bold-99"/>
     <use x="88.916016" xlink:href="#Helvetica-Bold-41"/>
    </g>
   </g>
   <g id="PathCollection_36">
    <g clip-path="url(#p4936f345cc)">
     <use style="fill:#8c0800;stroke:#8c0800;stroke-width:2.53125;" x="665.6028" xlink:href="#mb5a9862ccf" y="183.295248"/>
    </g>
   </g>
  </g>
  <g id="legend_1">
   <g id="patch_17">
    <path d="M 178.047187 30.309375 
L 599.552813 30.309375 
Q 601.952813 30.309375 601.952813 27.909375 
L 601.952813 12 
Q 601.952813 9.6 599.552813 9.6 
L 178.047187 9.6 
Q 175.647187 9.6 175.647187 12 
L 175.647187 27.909375 
Q 175.647187 30.309375 178.047187 30.309375 
z
" style="fill:#ffffff;opacity:0.8;stroke:#cccccc;stroke-linejoin:miter;"/>
   </g>
   <g id="PathCollection_37">
    <defs>
     <path d="M 0 1.936492 
C 0.513564 1.936492 1.006162 1.732451 1.369306 1.369306 
C 1.732451 1.006162 1.936492 0.513564 1.936492 0 
C 1.936492 -0.513564 1.732451 -1.006162 1.369306 -1.369306 
C 1.006162 -1.732451 0.513564 -1.936492 0 -1.936492 
C -0.513564 -1.936492 -1.006162 -1.732451 -1.369306 -1.369306 
C -1.732451 -1.006162 -1.936492 -0.513564 -1.936492 0 
C -1.936492 0.513564 -1.732451 1.006162 -1.369306 1.369306 
C -1.006162 1.732451 -0.513564 1.936492 0 1.936492 
z
" id="m41ccc1e0fe" style="stroke:#4c72b0;"/>
    </defs>
    <g>
     <use style="fill:#4c72b0;stroke:#4c72b0;" x="192.447187" xlink:href="#m41ccc1e0fe" y="19.858125"/>
    </g>
   </g>
   <g id="text_25">
    <!-- HSQC CH -->
    <g transform="translate(214.047187 23.008125)scale(0.12 -0.12)">
     <defs>
      <path d="M 73.25 0.203125 
L 68.359375 -5.71875 
L 57.28125 2.734375 
Q 53.265625 0.53125 48.609375 -0.78125 
Q 43.953125 -2.09375 38.421875 -2.09375 
Q 21.734375 -2.09375 12.25 8.84375 
Q 3.90625 19.484375 3.90625 35.5 
Q 3.90625 50.046875 11.140625 60.40625 
Q 20.40625 73.6875 38.578125 73.6875 
Q 57.5625 73.6875 66.703125 61.46875 
Q 73.828125 51.953125 73.828125 37.109375 
Q 73.828125 30.171875 72.125 23.78125 
Q 69.53125 14.015625 63.375 7.859375 
z
M 39.59375 6.59375 
Q 42.625 6.59375 45.265625 7 
Q 47.90625 7.421875 49.859375 8.640625 
L 42 14.796875 
L 46.875 20.796875 
L 56.25 13.53125 
Q 60.6875 18.609375 62.28125 24.90625 
Q 63.875 31.203125 63.875 36.96875 
Q 63.875 49.609375 57.25 57.328125 
Q 50.640625 65.046875 39.15625 65.046875 
Q 27.546875 65.046875 20.75 57.640625 
Q 13.96875 50.25 13.96875 34.859375 
Q 13.96875 21.921875 20.484375 14.25 
Q 27 6.59375 39.59375 6.59375 
z
" id="Helvetica-81"/>
     </defs>
     <use xlink:href="#Helvetica-72"/>
     <use x="72.216797" xlink:href="#Helvetica-83"/>
     <use x="138.916016" xlink:href="#Helvetica-81"/>
     <use x="216.699219" xlink:href="#Helvetica-67"/>
     <use x="288.916016" xlink:href="#Helvetica-32"/>
     <use x="316.699219" xlink:href="#Helvetica-67"/>
     <use x="388.916016" xlink:href="#Helvetica-72"/>
    </g>
   </g>
   <g id="PathCollection_38">
    <defs>
     <path d="M 0 1.936492 
C 0.513564 1.936492 1.006162 1.732451 1.369306 1.369306 
C 1.732451 1.006162 1.936492 0.513564 1.936492 0 
C 1.936492 -0.513564 1.732451 -1.006162 1.369306 -1.369306 
C 1.006162 -1.732451 0.513564 -1.936492 0 -1.936492 
C -0.513564 -1.936492 -1.006162 -1.732451 -1.369306 -1.369306 
C -1.732451 -1.006162 -1.936492 -0.513564 -1.936492 0 
C -1.936492 0.513564 -1.732451 1.006162 -1.369306 1.369306 
C -1.006162 1.732451 -0.513564 1.936492 0 1.936492 
z
" id="m114844c633" style="stroke:#dd8452;"/>
    </defs>
    <g>
     <use style="fill:#dd8452;stroke:#dd8452;" x="305.384063" xlink:href="#m114844c633" y="19.858125"/>
    </g>
   </g>
   <g id="text_26">
    <!-- HSQC CH$_2$ -->
    <g transform="translate(326.984063 23.008125)scale(0.12 -0.12)">
     <use transform="translate(0 0.3125)" xlink:href="#Helvetica-72"/>
     <use transform="translate(72.216797 0.3125)" xlink:href="#Helvetica-83"/>
     <use transform="translate(138.916016 0.3125)" xlink:href="#Helvetica-81"/>
     <use transform="translate(216.699219 0.3125)" xlink:href="#Helvetica-67"/>
     <use transform="translate(288.916016 0.3125)" xlink:href="#Helvetica-32"/>
     <use transform="translate(316.699219 0.3125)" xlink:href="#Helvetica-67"/>
     <use transform="translate(388.916016 0.3125)" xlink:href="#Helvetica-72"/>
     <use transform="translate(462.048008 -15.376563)scale(0.7)" xlink:href="#Helvetica-50"/>
    </g>
   </g>
   <g id="PathCollection_39">
    <defs>
     <path d="M 0 1.936492 
C 0.513564 1.936492 1.006162 1.732451 1.369306 1.369306 
C 1.732451 1.006162 1.936492 0.513564 1.936492 0 
C 1.936492 -0.513564 1.732451 -1.006162 1.369306 -1.369306 
C 1.006162 -1.732451 0.513564 -1.936492 0 -1.936492 
C -0.513564 -1.936492 -1.006162 -1.732451 -1.369306 -1.369306 
C -1.732451 -1.006162 -1.936492 -0.513564 -1.936492 0 
C -1.936492 0.513564 -1.732451 1.006162 -1.369306 1.369306 
C -1.006162 1.732451 -0.513564 1.936492 0 1.936492 
z
" id="m5a8a4f4df6" style="stroke:#55a868;"/>
    </defs>
    <g>
     <use style="fill:#55a868;stroke:#55a868;" x="423.464063" xlink:href="#m5a8a4f4df6" y="19.858125"/>
    </g>
   </g>
   <g id="text_27">
    <!-- HSQC CH$_3$ -->
    <g transform="translate(445.064063 23.008125)scale(0.12 -0.12)">
     <defs>
      <path d="M 25.984375 -1.90625 
Q 13.578125 -1.90625 7.984375 4.90625 
Q 2.390625 11.71875 2.390625 21.484375 
L 11.578125 21.484375 
Q 12.15625 14.703125 14.109375 11.625 
Q 17.53125 6.109375 26.46875 6.109375 
Q 33.40625 6.109375 37.59375 9.8125 
Q 41.796875 13.53125 41.796875 19.390625 
Q 41.796875 26.609375 37.375 29.484375 
Q 32.953125 32.375 25.09375 32.375 
Q 24.21875 32.375 23.3125 32.34375 
Q 22.40625 32.328125 21.484375 32.28125 
L 21.484375 40.046875 
Q 22.859375 39.890625 23.78125 39.84375 
Q 24.703125 39.796875 25.78125 39.796875 
Q 30.71875 39.796875 33.890625 41.359375 
Q 39.453125 44.09375 39.453125 51.125 
Q 39.453125 56.34375 35.734375 59.171875 
Q 32.03125 62.015625 27.09375 62.015625 
Q 18.3125 62.015625 14.9375 56.15625 
Q 13.09375 52.9375 12.84375 46.96875 
L 4.15625 46.96875 
Q 4.15625 54.78125 7.28125 60.25 
Q 12.640625 70.015625 26.171875 70.015625 
Q 36.859375 70.015625 42.71875 65.25 
Q 48.578125 60.5 48.578125 51.46875 
Q 48.578125 45.015625 45.125 41.015625 
Q 42.96875 38.53125 39.546875 37.109375 
Q 45.0625 35.59375 48.15625 31.265625 
Q 51.265625 26.953125 51.265625 20.703125 
Q 51.265625 10.6875 44.671875 4.390625 
Q 38.09375 -1.90625 25.984375 -1.90625 
z
" id="Helvetica-51"/>
     </defs>
     <use transform="translate(0 0.3125)" xlink:href="#Helvetica-72"/>
     <use transform="translate(72.216797 0.3125)" xlink:href="#Helvetica-83"/>
     <use transform="translate(138.916016 0.3125)" xlink:href="#Helvetica-81"/>
     <use transform="translate(216.699219 0.3125)" xlink:href="#Helvetica-67"/>
     <use transform="translate(288.916016 0.3125)" xlink:href="#Helvetica-32"/>
     <use transform="translate(316.699219 0.3125)" xlink:href="#Helvetica-67"/>
     <use transform="translate(388.916016 0.3125)" xlink:href="#Helvetica-72"/>
     <use transform="translate(462.048008 -15.376563)scale(0.7)" xlink:href="#Helvetica-51"/>
    </g>
   </g>
   <g id="PathCollection_40">
    <defs>
     <path d="M 0 1.936492 
C 0.513564 1.936492 1.006162 1.732451 1.369306 1.369306 
C 1.732451 1.006162 1.936492 0.513564 1.936492 0 
C 1.936492 -0.513564 1.732451 -1.006162 1.369306 -1.369306 
C 1.006162 -1.732451 0.513564 -1.936492 0 -1.936492 
C -0.513564 -1.936492 -1.006162 -1.732451 -1.369306 -1.369306 
C -1.732451 -1.006162 -1.936492 -0.513564 -1.936492 0 
C -1.936492 0.513564 -1.732451 1.006162 -1.369306 1.369306 
C -1.006162 1.732451 -0.513564 1.936492 0 1.936492 
z
" id="m71b42cc568" style="stroke:#c44e52;"/>
    </defs>
    <g>
     <use style="fill:#c44e52;stroke:#c44e52;" x="541.544063" xlink:href="#m71b42cc568" y="19.858125"/>
    </g>
   </g>
   <g id="text_28">
    <!-- COSY -->
    <g transform="translate(563.144063 23.008125)scale(0.12 -0.12)">
     <defs>
      <path d="M 2.046875 71.734375 
L 13.375 71.734375 
L 33.984375 37.25 
L 54.59375 71.734375 
L 65.96875 71.734375 
L 38.875 28.90625 
L 38.875 0 
L 29.15625 0 
L 29.15625 28.90625 
z
M 34.125 71.734375 
z
" id="Helvetica-89"/>
     </defs>
     <use xlink:href="#Helvetica-67"/>
     <use x="72.216797" xlink:href="#Helvetica-79"/>
     <use x="150" xlink:href="#Helvetica-83"/>
     <use x="216.699219" xlink:href="#Helvetica-89"/>
    </g>
   </g>
  </g>
 </g>
 <defs>
  <clipPath id="p4a76d10b83">
   <rect height="284.888" width="207.186" x="52.562" y="40.584"/>
  </clipPath>
  <clipPath id="p0e06ae7bf0">
   <rect height="284.888" width="207.186" x="276.208" y="40.584"/>
  </clipPath>
  <clipPath id="p4936f345cc">
   <rect height="284.888" width="207.186" x="499.854" y="40.584"/>
  </clipPath>
 </defs>
</svg>
