<?xml version="1.0" encoding="utf-8" standalone="no"?>
<!DOCTYPE svg PUBLIC "-//W3C//DTD SVG 1.1//EN"
  "http://www.w3.org/Graphics/SVG/1.1/DTD/svg11.dtd">
<!-- Created with matplotlib (https://matplotlib.org/) -->
<svg height="360pt" version="1.1" viewBox="0 0 720 360" width="720pt" xmlns="http://www.w3.org/2000/svg" xmlns:xlink="http://www.w3.org/1999/xlink">
 <metadata>
  <rdf:RDF xmlns:cc="http://creativecommons.org/ns#" xmlns:dc="http://purl.org/dc/elements/1.1/" xmlns:rdf="http://www.w3.org/1999/02/22-rdf-syntax-ns#">
   <cc:Work>
    <dc:type rdf:resource="http://purl.org/dc/dcmitype/StillImage"/>
    <dc:date>2021-03-02T14:25:16.370687</dc:date>
    <dc:format>image/svg+xml</dc:format>
    <dc:creator>
     <cc:Agent>
      <dc:title>Matplotlib v3.3.2, https://matplotlib.org/</dc:title>
     </cc:Agent>
    </dc:creator>
   </cc:Work>
  </rdf:RDF>
 </metadata>
 <defs>
  <style type="text/css">*{stroke-linecap:butt;stroke-linejoin:round;}</style>
 </defs>
 <g id="figure_1">
  <g id="patch_1">
   <path d="M 0 360 
L 720 360 
L 720 0 
L 0 0 
z
" style="fill:#ffffff;"/>
  </g>
  <g id="axes_1">
   <g id="patch_2">
    <path d="M 52.562 325.472 
L 259.748 325.472 
L 259.748 40.584 
L 52.562 40.584 
z
" style="fill:#ffffff;"/>
   </g>
   <g id="PathCollection_1">
    <defs>
     <path d="M 0 2.5 
C 0.663008 2.5 1.29895 2.236584 1.767767 1.767767 
C 2.236584 1.29895 2.5 0.663008 2.5 -0 
C 2.5 -0.663008 2.236584 -1.29895 1.767767 -1.767767 
C 1.29895 -2.236584 0.663008 -2.5 0 -2.5 
C -0.663008 -2.5 -1.29895 -2.236584 -1.767767 -1.767767 
C -2.236584 -1.29895 -2.5 -0.663008 -2.5 0 
C -2.5 0.663008 -2.236584 1.29895 -1.767767 1.767767 
C -1.29895 2.236584 -0.663008 2.5 0 2.5 
z
" id="C0_0_f426921833"/>
    </defs>
    <g clip-path="url(#pac4636e987)">
     <use style="fill:#4c72b0;fill-opacity:0.3;" x="89.228428" xlink:href="#C0_0_f426921833" y="62.403489"/>
    </g>
    <g clip-path="url(#pac4636e987)">
     <use style="fill:#4c72b0;fill-opacity:0.3;" x="97.188832" xlink:href="#C0_0_f426921833" y="98.507197"/>
    </g>
    <g clip-path="url(#pac4636e987)">
     <use style="fill:#4c72b0;fill-opacity:0.3;" x="91.274919" xlink:href="#C0_0_f426921833" y="90.401451"/>
    </g>
    <g clip-path="url(#pac4636e987)">
     <use style="fill:#4c72b0;fill-opacity:0.3;" x="94.933919" xlink:href="#C0_0_f426921833" y="71.830609"/>
    </g>
    <g clip-path="url(#pac4636e987)">
     <use style="fill:#4c72b0;fill-opacity:0.3;" x="89.653712" xlink:href="#C0_0_f426921833" y="100.285165"/>
    </g>
   </g>
   <g id="PathCollection_2">
    <defs>
     <path d="M 0 2.5 
C 0.663008 2.5 1.29895 2.236584 1.767767 1.767767 
C 2.236584 1.29895 2.5 0.663008 2.5 -0 
C 2.5 -0.663008 2.236584 -1.29895 1.767767 -1.767767 
C 1.29895 -2.236584 0.663008 -2.5 0 -2.5 
C -0.663008 -2.5 -1.29895 -2.236584 -1.767767 -1.767767 
C -2.236584 -1.29895 -2.5 -0.663008 -2.5 0 
C -2.5 0.663008 -2.236584 1.29895 -1.767767 1.767767 
C -1.29895 2.236584 -0.663008 2.5 0 2.5 
z
" id="C1_0_6d09479698"/>
    </defs>
    <g clip-path="url(#pac4636e987)">
     <use style="fill:#dd8452;fill-opacity:0.3;" x="136.264681" xlink:href="#C1_0_6d09479698" y="220.672993"/>
    </g>
    <g clip-path="url(#pac4636e987)">
     <use style="fill:#dd8452;fill-opacity:0.3;" x="132.545551" xlink:href="#C1_0_6d09479698" y="218.667355"/>
    </g>
    <g clip-path="url(#pac4636e987)">
     <use style="fill:#dd8452;fill-opacity:0.3;" x="130.276215" xlink:href="#C1_0_6d09479698" y="232.379067"/>
    </g>
    <g clip-path="url(#pac4636e987)">
     <use style="fill:#dd8452;fill-opacity:0.3;" x="139.351441" xlink:href="#C1_0_6d09479698" y="233.833259"/>
    </g>
    <g clip-path="url(#pac4636e987)">
     <use style="fill:#dd8452;fill-opacity:0.3;" x="133.112923" xlink:href="#C1_0_6d09479698" y="216.510215"/>
    </g>
    <g clip-path="url(#pac4636e987)">
     <use style="fill:#dd8452;fill-opacity:0.3;" x="137.180179" xlink:href="#C1_0_6d09479698" y="220.456391"/>
    </g>
    <g clip-path="url(#pac4636e987)">
     <use style="fill:#dd8452;fill-opacity:0.3;" x="130.939572" xlink:href="#C1_0_6d09479698" y="201.155896"/>
    </g>
    <g clip-path="url(#pac4636e987)">
     <use style="fill:#dd8452;fill-opacity:0.3;" x="138.221418" xlink:href="#C1_0_6d09479698" y="201.537122"/>
    </g>
    <g clip-path="url(#pac4636e987)">
     <use style="fill:#dd8452;fill-opacity:0.3;" x="134.617983" xlink:href="#C1_0_6d09479698" y="187.231275"/>
    </g>
    <g clip-path="url(#pac4636e987)">
     <use style="fill:#dd8452;fill-opacity:0.3;" x="134.562009" xlink:href="#C1_0_6d09479698" y="189.361948"/>
    </g>
    <g clip-path="url(#pac4636e987)">
     <use style="fill:#dd8452;fill-opacity:0.3;" x="131.5325" xlink:href="#C1_0_6d09479698" y="164.531883"/>
    </g>
    <g clip-path="url(#pac4636e987)">
     <use style="fill:#dd8452;fill-opacity:0.3;" x="131.156126" xlink:href="#C1_0_6d09479698" y="171.321862"/>
    </g>
    <g clip-path="url(#pac4636e987)">
     <use style="fill:#dd8452;fill-opacity:0.3;" x="139.417554" xlink:href="#C1_0_6d09479698" y="183.643692"/>
    </g>
    <g clip-path="url(#pac4636e987)">
     <use style="fill:#dd8452;fill-opacity:0.3;" x="133.53057" xlink:href="#C1_0_6d09479698" y="185.698562"/>
    </g>
   </g>
   <g id="PathCollection_3">
    <defs>
     <path d="M 0 2.5 
C 0.663008 2.5 1.29895 2.236584 1.767767 1.767767 
C 2.236584 1.29895 2.5 0.663008 2.5 -0 
C 2.5 -0.663008 2.236584 -1.29895 1.767767 -1.767767 
C 1.29895 -2.236584 0.663008 -2.5 0 -2.5 
C -0.663008 -2.5 -1.29895 -2.236584 -1.767767 -1.767767 
C -2.236584 -1.29895 -2.5 -0.663008 -2.5 0 
C -2.5 0.663008 -2.236584 1.29895 -1.767767 1.767767 
C -1.29895 2.236584 -0.663008 2.5 0 2.5 
z
" id="C2_0_5716b04c00"/>
    </defs>
    <g clip-path="url(#pac4636e987)">
     <use style="fill:#55a868;fill-opacity:0.3;" x="174.937372" xlink:href="#C2_0_5716b04c00" y="140.717467"/>
    </g>
    <g clip-path="url(#pac4636e987)">
     <use style="fill:#55a868;fill-opacity:0.3;" x="175.326568" xlink:href="#C2_0_5716b04c00" y="149.018961"/>
    </g>
   </g>
   <g id="PathCollection_4">
    <defs>
     <path d="M 0 2.5 
C 0.663008 2.5 1.29895 2.236584 1.767767 1.767767 
C 2.236584 1.29895 2.5 0.663008 2.5 -0 
C 2.5 -0.663008 2.236584 -1.29895 1.767767 -1.767767 
C 1.29895 -2.236584 0.663008 -2.5 0 -2.5 
C -0.663008 -2.5 -1.29895 -2.236584 -1.767767 -1.767767 
C -2.236584 -1.29895 -2.5 -0.663008 -2.5 0 
C -2.5 0.663008 -2.236584 1.29895 -1.767767 1.767767 
C -1.29895 2.236584 -0.663008 2.5 0 2.5 
z
" id="C3_0_ea714d1788"/>
    </defs>
    <g clip-path="url(#pac4636e987)">
     <use style="fill:#c44e52;fill-opacity:0.3;" x="216.447395" xlink:href="#C3_0_ea714d1788" y="282.115932"/>
    </g>
    <g clip-path="url(#pac4636e987)">
     <use style="fill:#c44e52;fill-opacity:0.3;" x="213.871068" xlink:href="#C3_0_ea714d1788" y="281.349423"/>
    </g>
    <g clip-path="url(#pac4636e987)">
     <use style="fill:#c44e52;fill-opacity:0.3;" x="217.902997" xlink:href="#C3_0_ea714d1788" y="285.120901"/>
    </g>
    <g clip-path="url(#pac4636e987)">
     <use style="fill:#c44e52;fill-opacity:0.3;" x="221.258304" xlink:href="#C3_0_ea714d1788" y="280.485225"/>
    </g>
    <g clip-path="url(#pac4636e987)">
     <use style="fill:#c44e52;fill-opacity:0.3;" x="213.557108" xlink:href="#C3_0_ea714d1788" y="277.738422"/>
    </g>
    <g clip-path="url(#pac4636e987)">
     <use style="fill:#c44e52;fill-opacity:0.3;" x="221.070437" xlink:href="#C3_0_ea714d1788" y="280.750764"/>
    </g>
    <g clip-path="url(#pac4636e987)">
     <use style="fill:#c44e52;fill-opacity:0.3;" x="218.638432" xlink:href="#C3_0_ea714d1788" y="286.015151"/>
    </g>
    <g clip-path="url(#pac4636e987)">
     <use style="fill:#c44e52;fill-opacity:0.3;" x="221.456097" xlink:href="#C3_0_ea714d1788" y="273.106288"/>
    </g>
    <g clip-path="url(#pac4636e987)">
     <use style="fill:#c44e52;fill-opacity:0.3;" x="218.048791" xlink:href="#C3_0_ea714d1788" y="278.469289"/>
    </g>
    <g clip-path="url(#pac4636e987)">
     <use style="fill:#c44e52;fill-opacity:0.3;" x="214.008567" xlink:href="#C3_0_ea714d1788" y="282.593005"/>
    </g>
    <g clip-path="url(#pac4636e987)">
     <use style="fill:#c44e52;fill-opacity:0.3;" x="217.237071" xlink:href="#C3_0_ea714d1788" y="277.905027"/>
    </g>
    <g clip-path="url(#pac4636e987)">
     <use style="fill:#c44e52;fill-opacity:0.3;" x="219.521334" xlink:href="#C3_0_ea714d1788" y="277.23615"/>
    </g>
    <g clip-path="url(#pac4636e987)">
     <use style="fill:#c44e52;fill-opacity:0.3;" x="221.665001" xlink:href="#C3_0_ea714d1788" y="273.586455"/>
    </g>
    <g clip-path="url(#pac4636e987)">
     <use style="fill:#c44e52;fill-opacity:0.3;" x="214.400641" xlink:href="#C3_0_ea714d1788" y="282.807492"/>
    </g>
    <g clip-path="url(#pac4636e987)">
     <use style="fill:#c44e52;fill-opacity:0.3;" x="214.054639" xlink:href="#C3_0_ea714d1788" y="285.670278"/>
    </g>
    <g clip-path="url(#pac4636e987)">
     <use style="fill:#c44e52;fill-opacity:0.3;" x="218.71889" xlink:href="#C3_0_ea714d1788" y="273.870857"/>
    </g>
    <g clip-path="url(#pac4636e987)">
     <use style="fill:#c44e52;fill-opacity:0.3;" x="216.37036" xlink:href="#C3_0_ea714d1788" y="277.698279"/>
    </g>
    <g clip-path="url(#pac4636e987)">
     <use style="fill:#c44e52;fill-opacity:0.3;" x="221.885948" xlink:href="#C3_0_ea714d1788" y="277.799383"/>
    </g>
    <g clip-path="url(#pac4636e987)">
     <use style="fill:#c44e52;fill-opacity:0.3;" x="221.111656" xlink:href="#C3_0_ea714d1788" y="281.947141"/>
    </g>
    <g clip-path="url(#pac4636e987)">
     <use style="fill:#c44e52;fill-opacity:0.3;" x="222.012755" xlink:href="#C3_0_ea714d1788" y="279.272258"/>
    </g>
    <g clip-path="url(#pac4636e987)">
     <use style="fill:#c44e52;fill-opacity:0.3;" x="218.53895" xlink:href="#C3_0_ea714d1788" y="283.401605"/>
    </g>
    <g clip-path="url(#pac4636e987)">
     <use style="fill:#c44e52;fill-opacity:0.3;" x="218.975697" xlink:href="#C3_0_ea714d1788" y="284.196786"/>
    </g>
    <g clip-path="url(#pac4636e987)">
     <use style="fill:#c44e52;fill-opacity:0.3;" x="216.587505" xlink:href="#C3_0_ea714d1788" y="276.092634"/>
    </g>
    <g clip-path="url(#pac4636e987)">
     <use style="fill:#c44e52;fill-opacity:0.3;" x="215.260839" xlink:href="#C3_0_ea714d1788" y="285.011524"/>
    </g>
    <g clip-path="url(#pac4636e987)">
     <use style="fill:#c44e52;fill-opacity:0.3;" x="221.183692" xlink:href="#C3_0_ea714d1788" y="281.72647"/>
    </g>
    <g clip-path="url(#pac4636e987)">
     <use style="fill:#c44e52;fill-opacity:0.3;" x="218.421802" xlink:href="#C3_0_ea714d1788" y="286.888861"/>
    </g>
    <g clip-path="url(#pac4636e987)">
     <use style="fill:#c44e52;fill-opacity:0.3;" x="218.722523" xlink:href="#C3_0_ea714d1788" y="277.279343"/>
    </g>
    <g clip-path="url(#pac4636e987)">
     <use style="fill:#c44e52;fill-opacity:0.3;" x="213.49656" xlink:href="#C3_0_ea714d1788" y="277.381292"/>
    </g>
    <g clip-path="url(#pac4636e987)">
     <use style="fill:#c44e52;fill-opacity:0.3;" x="216.47649" xlink:href="#C3_0_ea714d1788" y="286.816185"/>
    </g>
    <g clip-path="url(#pac4636e987)">
     <use style="fill:#c44e52;fill-opacity:0.3;" x="213.608193" xlink:href="#C3_0_ea714d1788" y="282.954812"/>
    </g>
    <g clip-path="url(#pac4636e987)">
     <use style="fill:#c44e52;fill-opacity:0.3;" x="213.294311" xlink:href="#C3_0_ea714d1788" y="279.271188"/>
    </g>
    <g clip-path="url(#pac4636e987)">
     <use style="fill:#c44e52;fill-opacity:0.3;" x="216.173842" xlink:href="#C3_0_ea714d1788" y="281.162028"/>
    </g>
    <g clip-path="url(#pac4636e987)">
     <use style="fill:#c44e52;fill-opacity:0.3;" x="223.214535" xlink:href="#C3_0_ea714d1788" y="280.237411"/>
    </g>
    <g clip-path="url(#pac4636e987)">
     <use style="fill:#c44e52;fill-opacity:0.3;" x="220.48908" xlink:href="#C3_0_ea714d1788" y="275.928883"/>
    </g>
    <g clip-path="url(#pac4636e987)">
     <use style="fill:#c44e52;fill-opacity:0.3;" x="215.464699" xlink:href="#C3_0_ea714d1788" y="276.039748"/>
    </g>
    <g clip-path="url(#pac4636e987)">
     <use style="fill:#c44e52;fill-opacity:0.3;" x="216.436114" xlink:href="#C3_0_ea714d1788" y="281.987926"/>
    </g>
    <g clip-path="url(#pac4636e987)">
     <use style="fill:#c44e52;fill-opacity:0.3;" x="223.327787" xlink:href="#C3_0_ea714d1788" y="280.657084"/>
    </g>
    <g clip-path="url(#pac4636e987)">
     <use style="fill:#c44e52;fill-opacity:0.3;" x="215.158242" xlink:href="#C3_0_ea714d1788" y="282.726633"/>
    </g>
    <g clip-path="url(#pac4636e987)">
     <use style="fill:#c44e52;fill-opacity:0.3;" x="213.268422" xlink:href="#C3_0_ea714d1788" y="281.831315"/>
    </g>
    <g clip-path="url(#pac4636e987)">
     <use style="fill:#c44e52;fill-opacity:0.3;" x="223.382555" xlink:href="#C3_0_ea714d1788" y="285.808653"/>
    </g>
    <g clip-path="url(#pac4636e987)">
     <use style="fill:#c44e52;fill-opacity:0.3;" x="218.58891" xlink:href="#C3_0_ea714d1788" y="280.907973"/>
    </g>
    <g clip-path="url(#pac4636e987)">
     <use style="fill:#c44e52;fill-opacity:0.3;" x="221.821648" xlink:href="#C3_0_ea714d1788" y="274.179899"/>
    </g>
    <g clip-path="url(#pac4636e987)">
     <use style="fill:#c44e52;fill-opacity:0.3;" x="214.512828" xlink:href="#C3_0_ea714d1788" y="283.37135"/>
    </g>
    <g clip-path="url(#pac4636e987)">
     <use style="fill:#c44e52;fill-opacity:0.3;" x="216.010505" xlink:href="#C3_0_ea714d1788" y="275.627563"/>
    </g>
    <g clip-path="url(#pac4636e987)">
     <use style="fill:#c44e52;fill-opacity:0.3;" x="213.177211" xlink:href="#C3_0_ea714d1788" y="274.547839"/>
    </g>
    <g clip-path="url(#pac4636e987)">
     <use style="fill:#c44e52;fill-opacity:0.3;" x="219.216904" xlink:href="#C3_0_ea714d1788" y="293.474273"/>
    </g>
    <g clip-path="url(#pac4636e987)">
     <use style="fill:#c44e52;fill-opacity:0.3;" x="219.961981" xlink:href="#C3_0_ea714d1788" y="285.706603"/>
    </g>
    <g clip-path="url(#pac4636e987)">
     <use style="fill:#c44e52;fill-opacity:0.3;" x="221.548979" xlink:href="#C3_0_ea714d1788" y="274.72903"/>
    </g>
    <g clip-path="url(#pac4636e987)">
     <use style="fill:#c44e52;fill-opacity:0.3;" x="218.091485" xlink:href="#C3_0_ea714d1788" y="270.708787"/>
    </g>
    <g clip-path="url(#pac4636e987)">
     <use style="fill:#c44e52;fill-opacity:0.3;" x="213.710878" xlink:href="#C3_0_ea714d1788" y="275.264979"/>
    </g>
    <g clip-path="url(#pac4636e987)">
     <use style="fill:#c44e52;fill-opacity:0.3;" x="221.099287" xlink:href="#C3_0_ea714d1788" y="282.442829"/>
    </g>
    <g clip-path="url(#pac4636e987)">
     <use style="fill:#c44e52;fill-opacity:0.3;" x="223.219643" xlink:href="#C3_0_ea714d1788" y="269.203898"/>
    </g>
   </g>
   <g id="PathCollection_5"/>
   <g id="PathCollection_6"/>
   <g id="PathCollection_7"/>
   <g id="PathCollection_8"/>
   <g id="PathCollection_9">
    <defs>
     <path d="M 4.229935 0 
L -4.229935 -0 
" id="mbd618d597e" style="stroke:#001c7f;stroke-width:2.53125;"/>
    </defs>
    <g clip-path="url(#pac4636e987)">
     <use style="fill:#001c7f;stroke:#001c7f;stroke-width:2.53125;" x="93.9992" xlink:href="#mbd618d597e" y="84.685582"/>
    </g>
   </g>
   <g id="matplotlib.axis_1">
    <g id="text_1">
     <!-- NOAH-2 $\rm S^{+}_{crk}C^{c}$ ($\Delta' = 1/(4J)$) -->
     <g transform="translate(82.895 340.032)scale(0.12 -0.12)">
      <defs>
       <path d="M 7.625 71.734375 
L 19.09375 71.734375 
L 55.328125 13.625 
L 55.328125 71.734375 
L 64.546875 71.734375 
L 64.546875 0 
L 53.65625 0 
L 16.890625 58.0625 
L 16.890625 0 
L 7.625 0 
z
M 35.453125 71.734375 
z
" id="Helvetica-78"/>
       <path d="M 38.578125 73.6875 
Q 57.5625 73.6875 66.703125 61.46875 
Q 73.828125 51.953125 73.828125 37.109375 
Q 73.828125 21.046875 65.671875 10.40625 
Q 56.109375 -2.09375 38.375 -2.09375 
Q 21.828125 -2.09375 12.359375 8.84375 
Q 3.90625 19.390625 3.90625 35.5 
Q 3.90625 50.046875 11.140625 60.40625 
Q 20.40625 73.6875 38.578125 73.6875 
z
M 39.546875 6.59375 
Q 52.390625 6.59375 58.125 15.796875 
Q 63.875 25 63.875 36.96875 
Q 63.875 49.609375 57.25 57.328125 
Q 50.640625 65.046875 39.15625 65.046875 
Q 28.03125 65.046875 21 57.390625 
Q 13.96875 49.75 13.96875 34.859375 
Q 13.96875 22.953125 20 14.765625 
Q 26.03125 6.59375 39.546875 6.59375 
z
M 38.875 73.6875 
z
" id="Helvetica-79"/>
       <path d="M 44.4375 29.390625 
L 33.546875 61.078125 
L 21.96875 29.390625 
z
M 28.46875 71.734375 
L 39.453125 71.734375 
L 65.484375 0 
L 54.828125 0 
L 47.5625 21.484375 
L 19.1875 21.484375 
L 11.421875 0 
L 1.46875 0 
z
" id="Helvetica-65"/>
       <path d="M 7.859375 71.734375 
L 17.671875 71.734375 
L 17.671875 42.09375 
L 54.984375 42.09375 
L 54.984375 71.734375 
L 64.796875 71.734375 
L 64.796875 0 
L 54.984375 0 
L 54.984375 33.546875 
L 17.671875 33.546875 
L 17.671875 0 
L 7.859375 0 
z
" id="Helvetica-72"/>
       <path d="M 4.15625 32.375 
L 28.65625 32.375 
L 28.65625 23.34375 
L 4.15625 23.34375 
z
" id="Helvetica-45"/>
       <path d="M 3.125 0 
Q 3.609375 9.03125 6.859375 15.71875 
Q 10.109375 22.40625 19.53125 27.875 
L 28.90625 33.296875 
Q 35.203125 36.96875 37.75 39.546875 
Q 41.75 43.609375 41.75 48.828125 
Q 41.75 54.9375 38.078125 58.515625 
Q 34.421875 62.109375 28.328125 62.109375 
Q 19.28125 62.109375 15.828125 55.28125 
Q 13.96875 51.609375 13.765625 45.125 
L 4.828125 45.125 
Q 4.984375 54.25 8.203125 60.015625 
Q 13.921875 70.171875 28.375 70.171875 
Q 40.375 70.171875 45.921875 63.671875 
Q 51.46875 57.171875 51.46875 49.21875 
Q 51.46875 40.828125 45.5625 34.859375 
Q 42.140625 31.390625 33.296875 26.46875 
L 26.609375 22.75 
Q 21.828125 20.125 19.09375 17.71875 
Q 14.203125 13.484375 12.9375 8.296875 
L 51.125 8.296875 
L 51.125 0 
L 3.125 0 
z
" id="Helvetica-50"/>
       <path id="Helvetica-32"/>
       <path d="M 13.96875 23.140625 
Q 14.3125 17.046875 16.84375 13.234375 
Q 21.6875 6.109375 33.890625 6.109375 
Q 39.359375 6.109375 43.84375 7.671875 
Q 52.546875 10.6875 52.546875 18.5 
Q 52.546875 24.359375 48.875 26.859375 
Q 45.171875 29.296875 37.25 31.109375 
L 27.546875 33.296875 
Q 18.015625 35.453125 14.0625 38.03125 
Q 7.234375 42.53125 7.234375 51.46875 
Q 7.234375 61.140625 13.921875 67.328125 
Q 20.609375 73.53125 32.859375 73.53125 
Q 44.140625 73.53125 52.015625 68.078125 
Q 59.90625 62.640625 59.90625 50.6875 
L 50.78125 50.6875 
Q 50.046875 56.453125 47.65625 59.515625 
Q 43.21875 65.140625 32.5625 65.140625 
Q 23.96875 65.140625 20.203125 61.515625 
Q 16.453125 57.90625 16.453125 53.125 
Q 16.453125 47.859375 20.84375 45.40625 
Q 23.734375 43.84375 33.890625 41.5 
L 43.953125 39.203125 
Q 51.21875 37.546875 55.171875 34.671875 
Q 62.015625 29.640625 62.015625 20.0625 
Q 62.015625 8.15625 53.34375 3.03125 
Q 44.671875 -2.09375 33.203125 -2.09375 
Q 19.828125 -2.09375 12.25 4.734375 
Q 4.6875 11.53125 4.828125 23.140625 
z
M 33.59375 73.6875 
z
" id="Helvetica-83"/>
       <path d="M 4.5 21.390625 
L 4.5 29.59375 
L 25.78125 29.59375 
L 25.78125 51.03125 
L 34.125 51.03125 
L 34.125 29.59375 
L 55.421875 29.59375 
L 55.421875 21.390625 
L 34.125 21.390625 
L 34.125 0 
L 25.78125 0 
L 25.78125 21.390625 
z
" id="Helvetica-43"/>
       <path d="M 26.609375 53.8125 
Q 35.453125 53.8125 40.984375 49.515625 
Q 46.53125 45.21875 47.65625 34.71875 
L 39.109375 34.71875 
Q 38.328125 39.546875 35.546875 42.75 
Q 32.765625 45.953125 26.609375 45.953125 
Q 18.21875 45.953125 14.59375 37.75 
Q 12.25 32.421875 12.25 24.609375 
Q 12.25 16.75 15.5625 11.375 
Q 18.890625 6 26.03125 6 
Q 31.5 6 34.6875 9.34375 
Q 37.890625 12.703125 39.109375 18.5 
L 47.65625 18.5 
Q 46.1875 8.109375 40.328125 3.296875 
Q 34.46875 -1.515625 25.34375 -1.515625 
Q 15.09375 -1.515625 8.984375 5.984375 
Q 2.875 13.484375 2.875 24.703125 
Q 2.875 38.484375 9.5625 46.140625 
Q 16.265625 53.8125 26.609375 53.8125 
z
M 25.25 53.5625 
z
" id="Helvetica-99"/>
       <path d="M 6.6875 52.296875 
L 15.046875 52.296875 
L 15.046875 43.265625 
Q 16.0625 45.90625 20.0625 49.6875 
Q 24.078125 53.46875 29.296875 53.46875 
Q 29.546875 53.46875 30.125 53.421875 
Q 30.71875 53.375 32.125 53.21875 
L 32.125 43.953125 
Q 31.34375 44.09375 30.6875 44.140625 
Q 30.03125 44.1875 29.25 44.1875 
Q 22.609375 44.1875 19.046875 39.90625 
Q 15.484375 35.640625 15.484375 30.078125 
L 15.484375 0 
L 6.6875 0 
z
" id="Helvetica-114"/>
       <path d="M 6.25 71.734375 
L 14.703125 71.734375 
L 14.703125 30.078125 
L 37.25 52.296875 
L 48.484375 52.296875 
L 28.46875 32.71875 
L 49.609375 0 
L 38.375 0 
L 22.078125 26.375 
L 14.703125 19.625 
L 14.703125 0 
L 6.25 0 
z
" id="Helvetica-107"/>
       <path d="M 37.84375 73.6875 
Q 51.46875 73.6875 58.984375 66.5 
Q 66.5 59.328125 67.328125 50.203125 
L 57.859375 50.203125 
Q 56.25 57.125 51.4375 61.171875 
Q 46.625 65.234375 37.9375 65.234375 
Q 27.34375 65.234375 20.828125 57.78125 
Q 14.3125 50.34375 14.3125 34.96875 
Q 14.3125 22.359375 20.1875 14.515625 
Q 26.078125 6.6875 37.75 6.6875 
Q 48.484375 6.6875 54.109375 14.9375 
Q 57.078125 19.28125 58.546875 26.375 
L 68.015625 26.375 
Q 66.75 15.046875 59.625 7.375 
Q 51.078125 -1.859375 36.578125 -1.859375 
Q 24.078125 -1.859375 15.578125 5.71875 
Q 4.390625 15.71875 4.390625 36.625 
Q 4.390625 52.484375 12.796875 62.640625 
Q 21.875 73.6875 37.84375 73.6875 
z
M 35.890625 73.6875 
z
" id="Helvetica-67"/>
       <path d="M 29.59375 72.90625 
Q 21.921875 58.015625 19.625 50.984375 
Q 16.15625 40.28125 16.15625 26.265625 
Q 16.15625 12.109375 20.125 0.390625 
Q 22.5625 -6.84375 29.734375 -20.40625 
L 23.828125 -20.40625 
Q 16.703125 -9.28125 14.984375 -6.203125 
Q 13.28125 -3.125 11.28125 2.15625 
Q 8.546875 9.375 7.46875 17.578125 
Q 6.9375 21.828125 6.9375 25.6875 
Q 6.9375 40.140625 11.46875 51.421875 
Q 14.359375 58.59375 23.484375 72.90625 
z
" id="Helvetica-40"/>
       <path d="M 14.40625 7.8125 
L 57.375 7.8125 
L 35.59375 61.578125 
z
M 30.71875 70.609375 
L 41.109375 70.609375 
L 70.21875 0 
L 2 0 
z
" id="Helvetica-916"/>
       <path d="M 29.203125 73.34375 
L 16.15625 44.578125 
L 9.421875 44.578125 
L 18.359375 73.34375 
z
" id="Helvetica-8242"/>
       <path d="M 55.421875 40.140625 
L 55.421875 31.9375 
L 4.5 31.9375 
L 4.5 40.140625 
z
M 55.421875 19.1875 
L 55.421875 10.84375 
L 4.5 10.84375 
L 4.5 19.1875 
z
" id="Helvetica-61"/>
       <path d="M 9.578125 49.515625 
L 9.578125 56.25 
Q 19.09375 57.171875 22.84375 59.34375 
Q 26.609375 61.53125 28.46875 69.625 
L 35.40625 69.625 
L 35.40625 0 
L 26.03125 0 
L 26.03125 49.515625 
z
" id="Helvetica-49"/>
       <path d="M 22.75 71.734375 
L 30.171875 71.734375 
L 7.421875 0 
L 0 0 
z
" id="Helvetica-47"/>
       <path d="M 33.0625 24.75 
L 33.0625 56.453125 
L 10.640625 24.75 
z
M 33.203125 0 
L 33.203125 17.09375 
L 2.546875 17.09375 
L 2.546875 25.6875 
L 34.578125 70.125 
L 42 70.125 
L 42 24.75 
L 52.296875 24.75 
L 52.296875 17.09375 
L 42 17.09375 
L 42 0 
z
" id="Helvetica-52"/>
       <path d="M 47.359375 21.390625 
Q 45.40625 12.3125 41.65625 7.28125 
Q 34.71875 -1.90625 20.75 -1.90625 
Q 12.703125 -1.90625 7.90625 2.46875 
Q 3.125 6.84375 5.515625 18.015625 
L 6.59375 23.140625 
L 15.71875 23.140625 
L 14.65625 18.015625 
Q 13.375 12.15625 15.375 9.203125 
Q 17.390625 6.25 22.90625 6.25 
Q 30.671875 6.25 34.1875 11.578125 
Q 36.328125 14.84375 38.28125 23.921875 
L 48.4375 71.734375 
L 58.0625 71.734375 
z
" id="Helvetica-Oblique-74"/>
       <path d="M 3.46875 -20.40625 
Q 11.234375 -5.28125 13.484375 1.65625 
Q 16.890625 12.15625 16.890625 26.265625 
Q 16.890625 40.375 12.9375 52.09375 
Q 10.5 59.328125 3.328125 72.90625 
L 9.234375 72.90625 
Q 16.75 60.890625 18.328125 58.078125 
Q 19.921875 55.28125 21.78125 50.34375 
Q 24.125 44.234375 25.125 38.28125 
Q 26.125 32.328125 26.125 26.8125 
Q 26.125 12.359375 21.53125 1.03125 
Q 18.65625 -6.25 9.578125 -20.40625 
z
" id="Helvetica-41"/>
      </defs>
      <use transform="translate(0 0.051563)" xlink:href="#Helvetica-78"/>
      <use transform="translate(72.216797 0.051563)" xlink:href="#Helvetica-79"/>
      <use transform="translate(150 0.051563)" xlink:href="#Helvetica-65"/>
      <use transform="translate(216.699219 0.051563)" xlink:href="#Helvetica-72"/>
      <use transform="translate(288.916016 0.051563)" xlink:href="#Helvetica-45"/>
      <use transform="translate(322.216797 0.051563)" xlink:href="#Helvetica-50"/>
      <use transform="translate(377.832031 0.051563)" xlink:href="#Helvetica-32"/>
      <use transform="translate(405.615234 0.051563)" xlink:href="#Helvetica-83"/>
      <use transform="translate(473.229648 36.659375)scale(0.7)" xlink:href="#Helvetica-43"/>
      <use transform="translate(473.229648 -26.096875)scale(0.7)" xlink:href="#Helvetica-99"/>
      <use transform="translate(508.229648 -26.096875)scale(0.7)" xlink:href="#Helvetica-114"/>
      <use transform="translate(531.540195 -26.096875)scale(0.7)" xlink:href="#Helvetica-107"/>
      <use transform="translate(569.155039 0.051563)" xlink:href="#Helvetica-67"/>
      <use transform="translate(642.287031 36.659375)scale(0.7)" xlink:href="#Helvetica-99"/>
      <use transform="translate(679.901875 0.051563)" xlink:href="#Helvetica-32"/>
      <use transform="translate(707.685078 0.051563)" xlink:href="#Helvetica-40"/>
      <use transform="translate(740.985859 0.051563)" xlink:href="#Helvetica-916"/>
      <use transform="translate(814.117852 36.659375)scale(0.7)" xlink:href="#Helvetica-8242"/>
      <use transform="translate(856.703398 0.051563)" xlink:href="#Helvetica-61"/>
      <use transform="translate(931.761992 0.051563)" xlink:href="#Helvetica-49"/>
      <use transform="translate(987.377227 0.051563)" xlink:href="#Helvetica-47"/>
      <use transform="translate(1015.16043 0.051563)" xlink:href="#Helvetica-40"/>
      <use transform="translate(1048.461211 0.051563)" xlink:href="#Helvetica-52"/>
      <use transform="translate(1104.076445 0.051563)" xlink:href="#Helvetica-Oblique-74"/>
      <use transform="translate(1154.076445 0.051563)" xlink:href="#Helvetica-41"/>
      <use transform="translate(1187.377227 0.051563)" xlink:href="#Helvetica-41"/>
     </g>
    </g>
   </g>
   <g id="matplotlib.axis_2">
    <g id="ytick_1">
     <g id="line2d_1">
      <defs>
       <path d="M 0 0 
L -3.5 0 
" id="m450c6528b6" style="stroke:#000000;stroke-width:0.8;"/>
      </defs>
      <g>
       <use style="stroke:#000000;stroke-width:0.8;" x="52.562" xlink:href="#m450c6528b6" y="293.817778"/>
      </g>
     </g>
     <g id="text_2">
      <!-- 0.0 -->
      <g transform="translate(31.66756 297.403062)scale(0.09996 -0.09996)">
       <defs>
        <path d="M 27.046875 69.921875 
Q 40.625 69.921875 46.6875 58.734375 
Q 51.375 50.09375 51.375 35.0625 
Q 51.375 20.796875 47.125 11.46875 
Q 40.96875 -1.90625 27 -1.90625 
Q 14.40625 -1.90625 8.25 9.03125 
Q 3.125 18.171875 3.125 33.546875 
Q 3.125 45.453125 6.203125 54 
Q 11.96875 69.921875 27.046875 69.921875 
z
M 26.953125 6.109375 
Q 33.796875 6.109375 37.84375 12.15625 
Q 41.890625 18.21875 41.890625 34.71875 
Q 41.890625 46.625 38.953125 54.3125 
Q 36.03125 62.015625 27.59375 62.015625 
Q 19.828125 62.015625 16.234375 54.703125 
Q 12.640625 47.40625 12.640625 33.203125 
Q 12.640625 22.515625 14.9375 16.015625 
Q 18.453125 6.109375 26.953125 6.109375 
z
" id="Helvetica-48"/>
        <path d="M 8.546875 10.640625 
L 18.75 10.640625 
L 18.75 0 
L 8.546875 0 
z
" id="Helvetica-46"/>
       </defs>
       <use xlink:href="#Helvetica-48"/>
       <use x="55.615234" xlink:href="#Helvetica-46"/>
       <use x="83.398438" xlink:href="#Helvetica-48"/>
      </g>
     </g>
    </g>
    <g id="ytick_2">
     <g id="line2d_2">
      <g>
       <use style="stroke:#000000;stroke-width:0.8;" x="52.562" xlink:href="#m450c6528b6" y="241.060741"/>
      </g>
     </g>
     <g id="text_3">
      <!-- 0.5 -->
      <g transform="translate(31.66756 244.646025)scale(0.09996 -0.09996)">
       <defs>
        <path d="M 12.359375 17.828125 
Q 13.234375 10.296875 19.34375 7.421875 
Q 22.46875 5.953125 26.5625 5.953125 
Q 34.375 5.953125 38.125 10.9375 
Q 41.890625 15.921875 41.890625 21.96875 
Q 41.890625 29.296875 37.421875 33.296875 
Q 32.953125 37.3125 26.703125 37.3125 
Q 22.171875 37.3125 18.921875 35.546875 
Q 15.671875 33.796875 13.375 30.671875 
L 5.765625 31.109375 
L 11.078125 68.75 
L 47.40625 68.75 
L 47.40625 60.25 
L 17.671875 60.25 
L 14.703125 40.828125 
Q 17.140625 42.671875 19.34375 43.609375 
Q 23.25 45.21875 28.375 45.21875 
Q 37.984375 45.21875 44.671875 39.015625 
Q 51.375 32.8125 51.375 23.296875 
Q 51.375 13.375 45.234375 5.796875 
Q 39.109375 -1.765625 25.6875 -1.765625 
Q 17.140625 -1.765625 10.5625 3.046875 
Q 4 7.859375 3.21875 17.828125 
z
" id="Helvetica-53"/>
       </defs>
       <use xlink:href="#Helvetica-48"/>
       <use x="55.615234" xlink:href="#Helvetica-46"/>
       <use x="83.398438" xlink:href="#Helvetica-53"/>
      </g>
     </g>
    </g>
    <g id="ytick_3">
     <g id="line2d_3">
      <g>
       <use style="stroke:#000000;stroke-width:0.8;" x="52.562" xlink:href="#m450c6528b6" y="188.303704"/>
      </g>
     </g>
     <g id="text_4">
      <!-- 1.0 -->
      <g transform="translate(31.66756 191.888988)scale(0.09996 -0.09996)">
       <use xlink:href="#Helvetica-49"/>
       <use x="55.615234" xlink:href="#Helvetica-46"/>
       <use x="83.398438" xlink:href="#Helvetica-48"/>
      </g>
     </g>
    </g>
    <g id="ytick_4">
     <g id="line2d_4">
      <g>
       <use style="stroke:#000000;stroke-width:0.8;" x="52.562" xlink:href="#m450c6528b6" y="135.546667"/>
      </g>
     </g>
     <g id="text_5">
      <!-- 1.5 -->
      <g transform="translate(31.66756 139.131951)scale(0.09996 -0.09996)">
       <use xlink:href="#Helvetica-49"/>
       <use x="55.615234" xlink:href="#Helvetica-46"/>
       <use x="83.398438" xlink:href="#Helvetica-53"/>
      </g>
     </g>
    </g>
    <g id="ytick_5">
     <g id="line2d_5">
      <g>
       <use style="stroke:#000000;stroke-width:0.8;" x="52.562" xlink:href="#m450c6528b6" y="82.78963"/>
      </g>
     </g>
     <g id="text_6">
      <!-- 2.0 -->
      <g transform="translate(31.66756 86.374914)scale(0.09996 -0.09996)">
       <use xlink:href="#Helvetica-50"/>
       <use x="55.615234" xlink:href="#Helvetica-46"/>
       <use x="83.398438" xlink:href="#Helvetica-48"/>
      </g>
     </g>
    </g>
    <g id="text_7">
     <!-- intensity vs NOAH-2 $\rm SC^{c}$ -->
     <g transform="translate(25.02756 249.388)rotate(-90)scale(0.12 -0.12)">
      <defs>
       <path d="M 6.453125 52.046875 
L 15.375 52.046875 
L 15.375 0 
L 6.453125 0 
z
M 6.453125 71.734375 
L 15.375 71.734375 
L 15.375 61.765625 
L 6.453125 61.765625 
z
" id="Helvetica-105"/>
       <path d="M 6.453125 52.296875 
L 14.796875 52.296875 
L 14.796875 44.875 
Q 18.5 49.46875 22.65625 51.46875 
Q 26.8125 53.46875 31.890625 53.46875 
Q 43.015625 53.46875 46.921875 45.703125 
Q 49.078125 41.453125 49.078125 33.546875 
L 49.078125 0 
L 40.140625 0 
L 40.140625 32.953125 
Q 40.140625 37.75 38.71875 40.671875 
Q 36.375 45.5625 30.21875 45.5625 
Q 27.09375 45.5625 25.09375 44.921875 
Q 21.484375 43.84375 18.75 40.625 
Q 16.546875 38.03125 15.890625 35.265625 
Q 15.234375 32.515625 15.234375 27.390625 
L 15.234375 0 
L 6.453125 0 
z
M 27.09375 53.5625 
z
" id="Helvetica-110"/>
       <path d="M 8.203125 66.890625 
L 17.09375 66.890625 
L 17.09375 52.296875 
L 25.4375 52.296875 
L 25.4375 45.125 
L 17.09375 45.125 
L 17.09375 10.984375 
Q 17.09375 8.25 18.953125 7.328125 
Q 19.96875 6.78125 22.359375 6.78125 
Q 23 6.78125 23.734375 6.8125 
Q 24.46875 6.84375 25.4375 6.9375 
L 25.4375 0 
Q 23.921875 -0.4375 22.28125 -0.625 
Q 20.65625 -0.828125 18.75 -0.828125 
Q 12.59375 -0.828125 10.390625 2.3125 
Q 8.203125 5.46875 8.203125 10.5 
L 8.203125 45.125 
L 1.125 45.125 
L 1.125 52.296875 
L 8.203125 52.296875 
z
" id="Helvetica-116"/>
       <path d="M 28.21875 53.46875 
Q 33.796875 53.46875 39.015625 50.859375 
Q 44.234375 48.25 46.96875 44.09375 
Q 49.609375 40.140625 50.484375 34.859375 
Q 51.265625 31.25 51.265625 23.34375 
L 12.9375 23.34375 
Q 13.1875 15.375 16.703125 10.5625 
Q 20.21875 5.765625 27.59375 5.765625 
Q 34.46875 5.765625 38.578125 10.296875 
Q 40.921875 12.9375 41.890625 16.40625 
L 50.53125 16.40625 
Q 50.203125 13.53125 48.265625 9.984375 
Q 46.34375 6.453125 43.953125 4.203125 
Q 39.9375 0.296875 34.03125 -1.078125 
Q 30.859375 -1.859375 26.859375 -1.859375 
Q 17.09375 -1.859375 10.296875 5.25 
Q 3.515625 12.359375 3.515625 25.140625 
Q 3.515625 37.75 10.34375 45.609375 
Q 17.1875 53.46875 28.21875 53.46875 
z
M 42.234375 30.328125 
Q 41.703125 36.03125 39.75 39.453125 
Q 36.140625 45.796875 27.6875 45.796875 
Q 21.625 45.796875 17.515625 41.421875 
Q 13.421875 37.0625 13.1875 30.328125 
z
M 27.390625 53.5625 
z
" id="Helvetica-101"/>
       <path d="M 11.671875 16.40625 
Q 12.0625 12.015625 13.875 9.671875 
Q 17.1875 5.421875 25.390625 5.421875 
Q 30.28125 5.421875 33.984375 7.546875 
Q 37.703125 9.671875 37.703125 14.109375 
Q 37.703125 17.484375 34.71875 19.234375 
Q 32.8125 20.3125 27.203125 21.734375 
L 20.21875 23.484375 
Q 13.53125 25.140625 10.359375 27.203125 
Q 4.6875 30.765625 4.6875 37.0625 
Q 4.6875 44.484375 10.03125 49.0625 
Q 15.375 53.65625 24.421875 53.65625 
Q 36.234375 53.65625 41.453125 46.734375 
Q 44.734375 42.328125 44.625 37.25 
L 36.328125 37.25 
Q 36.078125 40.234375 34.234375 42.671875 
Q 31.203125 46.140625 23.734375 46.140625 
Q 18.75 46.140625 16.1875 44.234375 
Q 13.625 42.328125 13.625 39.203125 
Q 13.625 35.796875 17 33.734375 
Q 18.953125 32.515625 22.75 31.59375 
L 28.5625 30.171875 
Q 38.03125 27.875 41.265625 25.734375 
Q 46.390625 22.359375 46.390625 15.140625 
Q 46.390625 8.15625 41.09375 3.078125 
Q 35.796875 -2 24.953125 -2 
Q 13.28125 -2 8.421875 3.296875 
Q 3.5625 8.59375 3.21875 16.40625 
z
M 24.65625 53.5625 
z
" id="Helvetica-115"/>
       <path d="M 39.109375 52.296875 
L 48.828125 52.296875 
Q 46.96875 47.265625 40.578125 29.34375 
Q 35.796875 15.875 32.5625 7.375 
Q 24.953125 -12.640625 21.828125 -17.03125 
Q 18.703125 -21.4375 11.078125 -21.4375 
Q 9.234375 -21.4375 8.234375 -21.28125 
Q 7.234375 -21.140625 5.765625 -20.75 
L 5.765625 -12.75 
Q 8.0625 -13.375 9.078125 -13.515625 
Q 10.109375 -13.671875 10.890625 -13.671875 
Q 13.328125 -13.671875 14.46875 -12.859375 
Q 15.625 -12.0625 16.40625 -10.890625 
Q 16.65625 -10.5 18.15625 -6.875 
Q 19.671875 -3.265625 20.359375 -1.515625 
L 1.03125 52.296875 
L 10.984375 52.296875 
L 25 9.71875 
z
M 24.953125 53.5625 
z
" id="Helvetica-121"/>
       <path d="M 10.75 52.296875 
L 24.703125 9.71875 
L 39.3125 52.296875 
L 48.921875 52.296875 
L 29.203125 0 
L 19.828125 0 
L 0.53125 52.296875 
z
" id="Helvetica-118"/>
      </defs>
      <use transform="translate(0 0.723438)" xlink:href="#Helvetica-105"/>
      <use transform="translate(22.216797 0.723438)" xlink:href="#Helvetica-110"/>
      <use transform="translate(77.832031 0.723438)" xlink:href="#Helvetica-116"/>
      <use transform="translate(105.615234 0.723438)" xlink:href="#Helvetica-101"/>
      <use transform="translate(161.230469 0.723438)" xlink:href="#Helvetica-110"/>
      <use transform="translate(216.845703 0.723438)" xlink:href="#Helvetica-115"/>
      <use transform="translate(266.845703 0.723438)" xlink:href="#Helvetica-105"/>
      <use transform="translate(289.0625 0.723438)" xlink:href="#Helvetica-116"/>
      <use transform="translate(316.845703 0.723438)" xlink:href="#Helvetica-121"/>
      <use transform="translate(366.845703 0.723438)" xlink:href="#Helvetica-32"/>
      <use transform="translate(394.628906 0.723438)" xlink:href="#Helvetica-118"/>
      <use transform="translate(444.628906 0.723438)" xlink:href="#Helvetica-115"/>
      <use transform="translate(494.628906 0.723438)" xlink:href="#Helvetica-32"/>
      <use transform="translate(522.412109 0.723438)" xlink:href="#Helvetica-78"/>
      <use transform="translate(594.628906 0.723438)" xlink:href="#Helvetica-79"/>
      <use transform="translate(672.412109 0.723438)" xlink:href="#Helvetica-65"/>
      <use transform="translate(739.111328 0.723438)" xlink:href="#Helvetica-72"/>
      <use transform="translate(811.328125 0.723438)" xlink:href="#Helvetica-45"/>
      <use transform="translate(844.628906 0.723438)" xlink:href="#Helvetica-50"/>
      <use transform="translate(900.244141 0.723438)" xlink:href="#Helvetica-32"/>
      <use transform="translate(928.027344 0.723438)" xlink:href="#Helvetica-83"/>
      <use transform="translate(994.726562 0.723438)" xlink:href="#Helvetica-67"/>
      <use transform="translate(1067.858555 37.33125)scale(0.7)" xlink:href="#Helvetica-99"/>
     </g>
    </g>
   </g>
   <g id="PathCollection_10">
    <defs>
     <path d="M 4.229935 0 
L -4.229935 -0 
" id="mbcdcf9cb5a" style="stroke:#b1400d;stroke-width:2.53125;"/>
    </defs>
    <g clip-path="url(#pac4636e987)">
     <use style="fill:#b1400d;stroke:#b1400d;stroke-width:2.53125;" x="135.4364" xlink:href="#mbcdcf9cb5a" y="201.92868"/>
    </g>
   </g>
   <g id="line2d_6">
    <path clip-path="url(#pac4636e987)" d="M 52.562 188.303704 
L 259.748 188.303704 
" style="fill:none;stroke:#808080;stroke-dasharray:1.85,0.8;stroke-dashoffset:0;stroke-width:0.5;"/>
   </g>
   <g id="patch_3">
    <path d="M 52.562 325.472 
L 52.562 40.584 
" style="fill:none;stroke:#000000;stroke-linecap:square;stroke-linejoin:miter;stroke-width:1.3;"/>
   </g>
   <g id="patch_4">
    <path d="M 259.748 325.472 
L 259.748 40.584 
" style="fill:none;stroke:#000000;stroke-linecap:square;stroke-linejoin:miter;stroke-width:1.3;"/>
   </g>
   <g id="patch_5">
    <path d="M 52.562 325.472 
L 259.748 325.472 
" style="fill:none;stroke:#000000;stroke-linecap:square;stroke-linejoin:miter;stroke-width:1.3;"/>
   </g>
   <g id="patch_6">
    <path d="M 52.562 40.584 
L 259.748 40.584 
" style="fill:none;stroke:#000000;stroke-linecap:square;stroke-linejoin:miter;stroke-width:1.3;"/>
   </g>
   <g id="PathCollection_11">
    <defs>
     <path d="M 4.229935 0 
L -4.229935 -0 
" id="mfd6d2e3ce6" style="stroke:#12711c;stroke-width:2.53125;"/>
    </defs>
    <g clip-path="url(#pac4636e987)">
     <use style="fill:#12711c;stroke:#12711c;stroke-width:2.53125;" x="176.8736" xlink:href="#mfd6d2e3ce6" y="144.868214"/>
    </g>
   </g>
   <g id="text_8">
    <!-- (1.98) -->
    <g style="fill:#4c72b0;" transform="translate(78.327012 319.77424)scale(0.12 -0.12)">
     <defs>
      <path d="M 13.28125 16.890625 
Q 13.671875 9.625 18.890625 6.84375 
Q 21.578125 5.375 24.953125 5.375 
Q 31.25 5.375 35.6875 10.625 
Q 40.140625 15.875 42 31.9375 
Q 39.0625 27.296875 34.734375 25.40625 
Q 30.421875 23.53125 25.4375 23.53125 
Q 15.328125 23.53125 9.4375 29.828125 
Q 3.5625 36.140625 3.5625 46.046875 
Q 3.5625 55.5625 9.375 62.78125 
Q 15.1875 70.015625 26.515625 70.015625 
Q 41.796875 70.015625 47.609375 56.25 
Q 50.828125 48.6875 50.828125 37.3125 
Q 50.828125 24.46875 46.96875 14.546875 
Q 40.578125 -1.953125 25.296875 -1.953125 
Q 15.046875 -1.953125 9.71875 3.421875 
Q 4.390625 8.796875 4.390625 16.890625 
z
M 26.609375 31.25 
Q 31.84375 31.25 36.15625 34.6875 
Q 40.484375 38.140625 40.484375 46.734375 
Q 40.484375 54.4375 36.59375 58.21875 
Q 32.71875 62.015625 26.703125 62.015625 
Q 20.265625 62.015625 16.484375 57.6875 
Q 12.703125 53.375 12.703125 46.140625 
Q 12.703125 39.3125 16.015625 35.28125 
Q 19.34375 31.25 26.609375 31.25 
z
" id="Helvetica-57"/>
      <path d="M 27.203125 40.625 
Q 33.015625 40.625 36.28125 43.875 
Q 39.546875 47.125 39.546875 51.609375 
Q 39.546875 55.515625 36.421875 58.78125 
Q 33.296875 62.0625 26.90625 62.0625 
Q 20.5625 62.0625 17.71875 58.78125 
Q 14.890625 55.515625 14.890625 51.125 
Q 14.890625 46.1875 18.546875 43.40625 
Q 22.21875 40.625 27.203125 40.625 
z
M 27.734375 6 
Q 33.84375 6 37.859375 9.296875 
Q 41.890625 12.59375 41.890625 19.140625 
Q 41.890625 25.921875 37.734375 29.4375 
Q 33.59375 32.953125 27.09375 32.953125 
Q 20.796875 32.953125 16.8125 29.359375 
Q 12.84375 25.78125 12.84375 19.4375 
Q 12.84375 13.96875 16.484375 9.984375 
Q 20.125 6 27.734375 6 
z
M 15.234375 37.25 
Q 11.578125 38.8125 9.515625 40.921875 
Q 5.671875 44.828125 5.671875 51.078125 
Q 5.671875 58.890625 11.328125 64.5 
Q 17 70.125 27.390625 70.125 
Q 37.453125 70.125 43.15625 64.8125 
Q 48.875 59.515625 48.875 52.4375 
Q 48.875 45.90625 45.5625 41.84375 
Q 43.703125 39.546875 39.796875 37.359375 
Q 44.140625 35.359375 46.625 32.765625 
Q 51.265625 27.875 51.265625 20.0625 
Q 51.265625 10.84375 45.0625 4.421875 
Q 38.875 -2 27.546875 -2 
Q 17.328125 -2 10.265625 3.53125 
Q 3.21875 9.078125 3.21875 19.625 
Q 3.21875 25.828125 6.25 30.34375 
Q 9.28125 34.859375 15.234375 37.25 
z
" id="Helvetica-56"/>
     </defs>
     <use xlink:href="#Helvetica-40"/>
     <use x="33.300781" xlink:href="#Helvetica-49"/>
     <use x="88.916016" xlink:href="#Helvetica-46"/>
     <use x="116.699219" xlink:href="#Helvetica-57"/>
     <use x="172.314453" xlink:href="#Helvetica-56"/>
     <use x="227.929688" xlink:href="#Helvetica-41"/>
    </g>
   </g>
   <g id="text_9">
    <!-- (0.87) -->
    <g style="fill:#dd8452;" transform="translate(119.764212 319.77424)scale(0.12 -0.12)">
     <defs>
      <path d="M 52.296875 68.75 
L 52.296875 61.078125 
Q 48.921875 57.8125 43.328125 49.703125 
Q 37.75 41.609375 33.453125 32.234375 
Q 29.203125 23.09375 27 15.578125 
Q 25.59375 10.75 23.34375 0 
L 13.625 0 
Q 16.9375 20.015625 28.265625 39.84375 
Q 34.96875 51.46875 42.328125 59.90625 
L 3.65625 59.90625 
L 3.65625 68.75 
z
" id="Helvetica-55"/>
     </defs>
     <use xlink:href="#Helvetica-40"/>
     <use x="33.300781" xlink:href="#Helvetica-48"/>
     <use x="88.916016" xlink:href="#Helvetica-46"/>
     <use x="116.699219" xlink:href="#Helvetica-56"/>
     <use x="172.314453" xlink:href="#Helvetica-55"/>
     <use x="227.929688" xlink:href="#Helvetica-41"/>
    </g>
   </g>
   <g id="text_10">
    <!-- (1.41) -->
    <g style="fill:#55a868;" transform="translate(161.201413 319.77424)scale(0.12 -0.12)">
     <use xlink:href="#Helvetica-40"/>
     <use x="33.300781" xlink:href="#Helvetica-49"/>
     <use x="88.916016" xlink:href="#Helvetica-46"/>
     <use x="116.699219" xlink:href="#Helvetica-52"/>
     <use x="172.314453" xlink:href="#Helvetica-49"/>
     <use x="227.929688" xlink:href="#Helvetica-41"/>
    </g>
   </g>
   <g id="text_11">
    <!-- (0.13) -->
    <g style="fill:#c44e52;" transform="translate(202.638613 319.77424)scale(0.12 -0.12)">
     <defs>
      <path d="M 25.984375 -1.90625 
Q 13.578125 -1.90625 7.984375 4.90625 
Q 2.390625 11.71875 2.390625 21.484375 
L 11.578125 21.484375 
Q 12.15625 14.703125 14.109375 11.625 
Q 17.53125 6.109375 26.46875 6.109375 
Q 33.40625 6.109375 37.59375 9.8125 
Q 41.796875 13.53125 41.796875 19.390625 
Q 41.796875 26.609375 37.375 29.484375 
Q 32.953125 32.375 25.09375 32.375 
Q 24.21875 32.375 23.3125 32.34375 
Q 22.40625 32.328125 21.484375 32.28125 
L 21.484375 40.046875 
Q 22.859375 39.890625 23.78125 39.84375 
Q 24.703125 39.796875 25.78125 39.796875 
Q 30.71875 39.796875 33.890625 41.359375 
Q 39.453125 44.09375 39.453125 51.125 
Q 39.453125 56.34375 35.734375 59.171875 
Q 32.03125 62.015625 27.09375 62.015625 
Q 18.3125 62.015625 14.9375 56.15625 
Q 13.09375 52.9375 12.84375 46.96875 
L 4.15625 46.96875 
Q 4.15625 54.78125 7.28125 60.25 
Q 12.640625 70.015625 26.171875 70.015625 
Q 36.859375 70.015625 42.71875 65.25 
Q 48.578125 60.5 48.578125 51.46875 
Q 48.578125 45.015625 45.125 41.015625 
Q 42.96875 38.53125 39.546875 37.109375 
Q 45.0625 35.59375 48.15625 31.265625 
Q 51.265625 26.953125 51.265625 20.703125 
Q 51.265625 10.6875 44.671875 4.390625 
Q 38.09375 -1.90625 25.984375 -1.90625 
z
" id="Helvetica-51"/>
     </defs>
     <use xlink:href="#Helvetica-40"/>
     <use x="33.300781" xlink:href="#Helvetica-48"/>
     <use x="88.916016" xlink:href="#Helvetica-46"/>
     <use x="116.699219" xlink:href="#Helvetica-49"/>
     <use x="172.314453" xlink:href="#Helvetica-51"/>
     <use x="227.929688" xlink:href="#Helvetica-41"/>
    </g>
   </g>
   <g id="text_12">
    <!-- (a) -->
    <g transform="translate(56.70572 56.412073)scale(0.14 -0.14)">
     <defs>
      <path d="M 10.0625 53.8125 
Q 13.921875 62.796875 21.34375 73.140625 
L 31.84375 73.140625 
L 28.859375 67.671875 
Q 22.703125 56.390625 20.3125 44.046875 
Q 18.75 35.9375 18.75 26.375 
Q 18.75 11.421875 23.09375 -1.125 
Q 25.640625 -8.546875 32.078125 -20.171875 
L 21.78125 -20.171875 
L 18.3125 -15.4375 
Q 14.9375 -11.140625 11.140625 -2.640625 
Q 4.34375 12.546875 4.34375 27.25 
Q 4.34375 40.625 10.0625 53.8125 
z
" id="Helvetica-Bold-40"/>
      <path d="M 35.84375 25.875 
Q 34.515625 25.046875 33.171875 24.53125 
Q 31.84375 24.03125 29.5 23.578125 
L 26.375 23 
Q 21.96875 22.21875 20.0625 21.09375 
Q 16.84375 19.1875 16.84375 15.1875 
Q 16.84375 11.625 18.8125 10.03125 
Q 20.796875 8.453125 23.640625 8.453125 
Q 28.125 8.453125 31.90625 11.078125 
Q 35.6875 13.71875 35.84375 20.703125 
z
M 27.390625 32.375 
Q 31.25 32.859375 32.90625 33.59375 
Q 35.890625 34.859375 35.890625 37.546875 
Q 35.890625 40.828125 33.609375 42.0625 
Q 31.34375 43.3125 26.953125 43.3125 
Q 22.015625 43.3125 19.96875 40.875 
Q 18.5 39.0625 18.015625 35.984375 
L 4.59375 35.984375 
Q 5.03125 42.96875 8.5 47.46875 
Q 14.015625 54.5 27.4375 54.5 
Q 36.1875 54.5 42.96875 51.03125 
Q 49.75 47.5625 49.75 37.9375 
L 49.75 13.53125 
Q 49.75 10.984375 49.859375 7.375 
Q 50 4.640625 50.6875 3.65625 
Q 51.375 2.6875 52.734375 2.046875 
L 52.734375 0 
L 37.59375 0 
Q 36.96875 1.609375 36.71875 3.015625 
Q 36.46875 4.4375 36.328125 6.25 
Q 33.453125 3.125 29.6875 0.921875 
Q 25.203125 -1.65625 19.53125 -1.65625 
Q 12.3125 -1.65625 7.59375 2.46875 
Q 2.875 6.59375 2.875 14.15625 
Q 2.875 23.96875 10.453125 28.375 
Q 14.59375 30.765625 22.65625 31.78125 
z
M 28.125 54.640625 
z
" id="Helvetica-Bold-97"/>
      <path d="M 11.765625 73.140625 
Q 19.1875 62.796875 23.046875 53.8125 
Q 28.765625 40.625 28.765625 27.25 
Q 28.765625 12.546875 21.96875 -2.640625 
Q 18.171875 -11.140625 14.796875 -15.4375 
L 11.328125 -20.171875 
L 1.03125 -20.171875 
Q 7.46875 -8.546875 10.015625 -1.125 
Q 14.359375 11.421875 14.359375 26.375 
Q 14.359375 35.9375 12.796875 44.046875 
Q 10.40625 56.390625 4.25 67.671875 
L 1.265625 73.140625 
L 11.765625 73.140625 
z
" id="Helvetica-Bold-41"/>
     </defs>
     <use xlink:href="#Helvetica-Bold-40"/>
     <use x="33.300781" xlink:href="#Helvetica-Bold-97"/>
     <use x="88.916016" xlink:href="#Helvetica-Bold-41"/>
    </g>
   </g>
   <g id="PathCollection_12">
    <defs>
     <path d="M 4.229935 0 
L -4.229935 -0 
" id="m9c94741ea5" style="stroke:#8c0800;stroke-width:2.53125;"/>
    </defs>
    <g clip-path="url(#pac4636e987)">
     <use style="fill:#8c0800;stroke:#8c0800;stroke-width:2.53125;" x="218.3108" xlink:href="#m9c94741ea5" y="280.059676"/>
    </g>
   </g>
  </g>
  <g id="axes_2">
   <g id="patch_7">
    <path d="M 276.208 325.472 
L 483.394 325.472 
L 483.394 40.584 
L 276.208 40.584 
z
" style="fill:#ffffff;"/>
   </g>
   <g id="PathCollection_13">
    <defs>
     <path d="M 0 2.5 
C 0.663008 2.5 1.29895 2.236584 1.767767 1.767767 
C 2.236584 1.29895 2.5 0.663008 2.5 -0 
C 2.5 -0.663008 2.236584 -1.29895 1.767767 -1.767767 
C 1.29895 -2.236584 0.663008 -2.5 0 -2.5 
C -0.663008 -2.5 -1.29895 -2.236584 -1.767767 -1.767767 
C -2.236584 -1.29895 -2.5 -0.663008 -2.5 0 
C -2.5 0.663008 -2.236584 1.29895 -1.767767 1.767767 
C -1.29895 2.236584 -0.663008 2.5 0 2.5 
z
" id="C4_0_23db631890"/>
    </defs>
    <g clip-path="url(#p279d3ef42d)">
     <use style="fill:#4c72b0;fill-opacity:0.3;" x="320.936878" xlink:href="#C4_0_23db631890" y="114.469061"/>
    </g>
    <g clip-path="url(#p279d3ef42d)">
     <use style="fill:#4c72b0;fill-opacity:0.3;" x="320.826868" xlink:href="#C4_0_23db631890" y="111.417059"/>
    </g>
    <g clip-path="url(#p279d3ef42d)">
     <use style="fill:#4c72b0;fill-opacity:0.3;" x="316.117402" xlink:href="#C4_0_23db631890" y="106.520398"/>
    </g>
    <g clip-path="url(#p279d3ef42d)">
     <use style="fill:#4c72b0;fill-opacity:0.3;" x="320.244577" xlink:href="#C4_0_23db631890" y="130.180214"/>
    </g>
    <g clip-path="url(#p279d3ef42d)">
     <use style="fill:#4c72b0;fill-opacity:0.3;" x="313.225167" xlink:href="#C4_0_23db631890" y="130.321542"/>
    </g>
   </g>
   <g id="PathCollection_14">
    <defs>
     <path d="M 0 2.5 
C 0.663008 2.5 1.29895 2.236584 1.767767 1.767767 
C 2.236584 1.29895 2.5 0.663008 2.5 -0 
C 2.5 -0.663008 2.236584 -1.29895 1.767767 -1.767767 
C 1.29895 -2.236584 0.663008 -2.5 0 -2.5 
C -0.663008 -2.5 -1.29895 -2.236584 -1.767767 -1.767767 
C -2.236584 -1.29895 -2.5 -0.663008 -2.5 0 
C -2.5 0.663008 -2.236584 1.29895 -1.767767 1.767767 
C -1.29895 2.236584 -0.663008 2.5 0 2.5 
z
" id="C5_0_b7c3ec20cb"/>
    </defs>
    <g clip-path="url(#p279d3ef42d)">
     <use style="fill:#dd8452;fill-opacity:0.3;" x="363.901221" xlink:href="#C5_0_b7c3ec20cb" y="184.0052"/>
    </g>
    <g clip-path="url(#p279d3ef42d)">
     <use style="fill:#dd8452;fill-opacity:0.3;" x="358.264155" xlink:href="#C5_0_b7c3ec20cb" y="179.519542"/>
    </g>
    <g clip-path="url(#p279d3ef42d)">
     <use style="fill:#dd8452;fill-opacity:0.3;" x="361.569586" xlink:href="#C5_0_b7c3ec20cb" y="207.792064"/>
    </g>
    <g clip-path="url(#p279d3ef42d)">
     <use style="fill:#dd8452;fill-opacity:0.3;" x="360.424876" xlink:href="#C5_0_b7c3ec20cb" y="204.138969"/>
    </g>
    <g clip-path="url(#p279d3ef42d)">
     <use style="fill:#dd8452;fill-opacity:0.3;" x="360.566452" xlink:href="#C5_0_b7c3ec20cb" y="206.751347"/>
    </g>
    <g clip-path="url(#p279d3ef42d)">
     <use style="fill:#dd8452;fill-opacity:0.3;" x="359.739263" xlink:href="#C5_0_b7c3ec20cb" y="207.86545"/>
    </g>
    <g clip-path="url(#p279d3ef42d)">
     <use style="fill:#dd8452;fill-opacity:0.3;" x="360.997894" xlink:href="#C5_0_b7c3ec20cb" y="211.032532"/>
    </g>
    <g clip-path="url(#p279d3ef42d)">
     <use style="fill:#dd8452;fill-opacity:0.3;" x="354.266258" xlink:href="#C5_0_b7c3ec20cb" y="217.868194"/>
    </g>
    <g clip-path="url(#p279d3ef42d)">
     <use style="fill:#dd8452;fill-opacity:0.3;" x="361.685889" xlink:href="#C5_0_b7c3ec20cb" y="211.916805"/>
    </g>
    <g clip-path="url(#p279d3ef42d)">
     <use style="fill:#dd8452;fill-opacity:0.3;" x="361.662285" xlink:href="#C5_0_b7c3ec20cb" y="210.464238"/>
    </g>
    <g clip-path="url(#p279d3ef42d)">
     <use style="fill:#dd8452;fill-opacity:0.3;" x="357.622444" xlink:href="#C5_0_b7c3ec20cb" y="188.556427"/>
    </g>
    <g clip-path="url(#p279d3ef42d)">
     <use style="fill:#dd8452;fill-opacity:0.3;" x="358.430027" xlink:href="#C5_0_b7c3ec20cb" y="194.004596"/>
    </g>
    <g clip-path="url(#p279d3ef42d)">
     <use style="fill:#dd8452;fill-opacity:0.3;" x="359.443818" xlink:href="#C5_0_b7c3ec20cb" y="211.813973"/>
    </g>
    <g clip-path="url(#p279d3ef42d)">
     <use style="fill:#dd8452;fill-opacity:0.3;" x="363.22744" xlink:href="#C5_0_b7c3ec20cb" y="219.102012"/>
    </g>
   </g>
   <g id="PathCollection_15">
    <defs>
     <path d="M 0 2.5 
C 0.663008 2.5 1.29895 2.236584 1.767767 1.767767 
C 2.236584 1.29895 2.5 0.663008 2.5 -0 
C 2.5 -0.663008 2.236584 -1.29895 1.767767 -1.767767 
C 1.29895 -2.236584 0.663008 -2.5 0 -2.5 
C -0.663008 -2.5 -1.29895 -2.236584 -1.767767 -1.767767 
C -2.236584 -1.29895 -2.5 -0.663008 -2.5 0 
C -2.5 0.663008 -2.236584 1.29895 -1.767767 1.767767 
C -1.29895 2.236584 -0.663008 2.5 0 2.5 
z
" id="C6_0_4fc814c054"/>
    </defs>
    <g clip-path="url(#p279d3ef42d)">
     <use style="fill:#55a868;fill-opacity:0.3;" x="404.990736" xlink:href="#C6_0_4fc814c054" y="207.925875"/>
    </g>
    <g clip-path="url(#p279d3ef42d)">
     <use style="fill:#55a868;fill-opacity:0.3;" x="404.640873" xlink:href="#C6_0_4fc814c054" y="210.83934"/>
    </g>
   </g>
   <g id="PathCollection_16">
    <defs>
     <path d="M 0 2.5 
C 0.663008 2.5 1.29895 2.236584 1.767767 1.767767 
C 2.236584 1.29895 2.5 0.663008 2.5 -0 
C 2.5 -0.663008 2.236584 -1.29895 1.767767 -1.767767 
C 1.29895 -2.236584 0.663008 -2.5 0 -2.5 
C -0.663008 -2.5 -1.29895 -2.236584 -1.767767 -1.767767 
C -2.236584 -1.29895 -2.5 -0.663008 -2.5 0 
C -2.5 0.663008 -2.236584 1.29895 -1.767767 1.767767 
C -1.29895 2.236584 -0.663008 2.5 0 2.5 
z
" id="C7_0_4ca28b0deb"/>
    </defs>
    <g clip-path="url(#p279d3ef42d)">
     <use style="fill:#c44e52;fill-opacity:0.3;" x="444.241526" xlink:href="#C7_0_4ca28b0deb" y="188.994361"/>
    </g>
    <g clip-path="url(#p279d3ef42d)">
     <use style="fill:#c44e52;fill-opacity:0.3;" x="440.964763" xlink:href="#C7_0_4ca28b0deb" y="215.977418"/>
    </g>
    <g clip-path="url(#p279d3ef42d)">
     <use style="fill:#c44e52;fill-opacity:0.3;" x="441.347934" xlink:href="#C7_0_4ca28b0deb" y="196.688146"/>
    </g>
    <g clip-path="url(#p279d3ef42d)">
     <use style="fill:#c44e52;fill-opacity:0.3;" x="444.296968" xlink:href="#C7_0_4ca28b0deb" y="191.136581"/>
    </g>
    <g clip-path="url(#p279d3ef42d)">
     <use style="fill:#c44e52;fill-opacity:0.3;" x="438.824966" xlink:href="#C7_0_4ca28b0deb" y="190.14238"/>
    </g>
    <g clip-path="url(#p279d3ef42d)">
     <use style="fill:#c44e52;fill-opacity:0.3;" x="438.803834" xlink:href="#C7_0_4ca28b0deb" y="191.358934"/>
    </g>
    <g clip-path="url(#p279d3ef42d)">
     <use style="fill:#c44e52;fill-opacity:0.3;" x="440.092148" xlink:href="#C7_0_4ca28b0deb" y="190.538885"/>
    </g>
    <g clip-path="url(#p279d3ef42d)">
     <use style="fill:#c44e52;fill-opacity:0.3;" x="442.666394" xlink:href="#C7_0_4ca28b0deb" y="185.543305"/>
    </g>
    <g clip-path="url(#p279d3ef42d)">
     <use style="fill:#c44e52;fill-opacity:0.3;" x="439.26811" xlink:href="#C7_0_4ca28b0deb" y="191.126066"/>
    </g>
    <g clip-path="url(#p279d3ef42d)">
     <use style="fill:#c44e52;fill-opacity:0.3;" x="439.688187" xlink:href="#C7_0_4ca28b0deb" y="189.014864"/>
    </g>
    <g clip-path="url(#p279d3ef42d)">
     <use style="fill:#c44e52;fill-opacity:0.3;" x="444.109253" xlink:href="#C7_0_4ca28b0deb" y="193.284886"/>
    </g>
    <g clip-path="url(#p279d3ef42d)">
     <use style="fill:#c44e52;fill-opacity:0.3;" x="445.20601" xlink:href="#C7_0_4ca28b0deb" y="192.780898"/>
    </g>
    <g clip-path="url(#p279d3ef42d)">
     <use style="fill:#c44e52;fill-opacity:0.3;" x="438.842599" xlink:href="#C7_0_4ca28b0deb" y="190.844921"/>
    </g>
    <g clip-path="url(#p279d3ef42d)">
     <use style="fill:#c44e52;fill-opacity:0.3;" x="437.103053" xlink:href="#C7_0_4ca28b0deb" y="196.121467"/>
    </g>
    <g clip-path="url(#p279d3ef42d)">
     <use style="fill:#c44e52;fill-opacity:0.3;" x="447.11606" xlink:href="#C7_0_4ca28b0deb" y="194.104229"/>
    </g>
    <g clip-path="url(#p279d3ef42d)">
     <use style="fill:#c44e52;fill-opacity:0.3;" x="439.970868" xlink:href="#C7_0_4ca28b0deb" y="190.428828"/>
    </g>
    <g clip-path="url(#p279d3ef42d)">
     <use style="fill:#c44e52;fill-opacity:0.3;" x="446.170024" xlink:href="#C7_0_4ca28b0deb" y="190.297292"/>
    </g>
    <g clip-path="url(#p279d3ef42d)">
     <use style="fill:#c44e52;fill-opacity:0.3;" x="446.527358" xlink:href="#C7_0_4ca28b0deb" y="195.348707"/>
    </g>
    <g clip-path="url(#p279d3ef42d)">
     <use style="fill:#c44e52;fill-opacity:0.3;" x="443.226456" xlink:href="#C7_0_4ca28b0deb" y="200.43349"/>
    </g>
    <g clip-path="url(#p279d3ef42d)">
     <use style="fill:#c44e52;fill-opacity:0.3;" x="443.476249" xlink:href="#C7_0_4ca28b0deb" y="191.362523"/>
    </g>
    <g clip-path="url(#p279d3ef42d)">
     <use style="fill:#c44e52;fill-opacity:0.3;" x="441.259331" xlink:href="#C7_0_4ca28b0deb" y="195.88853"/>
    </g>
    <g clip-path="url(#p279d3ef42d)">
     <use style="fill:#c44e52;fill-opacity:0.3;" x="446.375588" xlink:href="#C7_0_4ca28b0deb" y="199.990681"/>
    </g>
    <g clip-path="url(#p279d3ef42d)">
     <use style="fill:#c44e52;fill-opacity:0.3;" x="444.945468" xlink:href="#C7_0_4ca28b0deb" y="192.316508"/>
    </g>
    <g clip-path="url(#p279d3ef42d)">
     <use style="fill:#c44e52;fill-opacity:0.3;" x="446.484992" xlink:href="#C7_0_4ca28b0deb" y="191.50915"/>
    </g>
    <g clip-path="url(#p279d3ef42d)">
     <use style="fill:#c44e52;fill-opacity:0.3;" x="439.886385" xlink:href="#C7_0_4ca28b0deb" y="190.771605"/>
    </g>
    <g clip-path="url(#p279d3ef42d)">
     <use style="fill:#c44e52;fill-opacity:0.3;" x="436.852104" xlink:href="#C7_0_4ca28b0deb" y="188.787583"/>
    </g>
    <g clip-path="url(#p279d3ef42d)">
     <use style="fill:#c44e52;fill-opacity:0.3;" x="442.924395" xlink:href="#C7_0_4ca28b0deb" y="192.95509"/>
    </g>
    <g clip-path="url(#p279d3ef42d)">
     <use style="fill:#c44e52;fill-opacity:0.3;" x="437.188677" xlink:href="#C7_0_4ca28b0deb" y="192.977793"/>
    </g>
    <g clip-path="url(#p279d3ef42d)">
     <use style="fill:#c44e52;fill-opacity:0.3;" x="438.36657" xlink:href="#C7_0_4ca28b0deb" y="191.915727"/>
    </g>
    <g clip-path="url(#p279d3ef42d)">
     <use style="fill:#c44e52;fill-opacity:0.3;" x="436.855238" xlink:href="#C7_0_4ca28b0deb" y="197.269433"/>
    </g>
    <g clip-path="url(#p279d3ef42d)">
     <use style="fill:#c44e52;fill-opacity:0.3;" x="437.423086" xlink:href="#C7_0_4ca28b0deb" y="187.915593"/>
    </g>
    <g clip-path="url(#p279d3ef42d)">
     <use style="fill:#c44e52;fill-opacity:0.3;" x="445.319441" xlink:href="#C7_0_4ca28b0deb" y="199.622401"/>
    </g>
    <g clip-path="url(#p279d3ef42d)">
     <use style="fill:#c44e52;fill-opacity:0.3;" x="442.283594" xlink:href="#C7_0_4ca28b0deb" y="199.404672"/>
    </g>
    <g clip-path="url(#p279d3ef42d)">
     <use style="fill:#c44e52;fill-opacity:0.3;" x="442.004357" xlink:href="#C7_0_4ca28b0deb" y="200.983378"/>
    </g>
    <g clip-path="url(#p279d3ef42d)">
     <use style="fill:#c44e52;fill-opacity:0.3;" x="437.346996" xlink:href="#C7_0_4ca28b0deb" y="199.700589"/>
    </g>
    <g clip-path="url(#p279d3ef42d)">
     <use style="fill:#c44e52;fill-opacity:0.3;" x="446.957811" xlink:href="#C7_0_4ca28b0deb" y="192.347412"/>
    </g>
    <g clip-path="url(#p279d3ef42d)">
     <use style="fill:#c44e52;fill-opacity:0.3;" x="442.122887" xlink:href="#C7_0_4ca28b0deb" y="202.481268"/>
    </g>
    <g clip-path="url(#p279d3ef42d)">
     <use style="fill:#c44e52;fill-opacity:0.3;" x="438.472157" xlink:href="#C7_0_4ca28b0deb" y="187.703398"/>
    </g>
    <g clip-path="url(#p279d3ef42d)">
     <use style="fill:#c44e52;fill-opacity:0.3;" x="444.004231" xlink:href="#C7_0_4ca28b0deb" y="211.413286"/>
    </g>
    <g clip-path="url(#p279d3ef42d)">
     <use style="fill:#c44e52;fill-opacity:0.3;" x="442.400199" xlink:href="#C7_0_4ca28b0deb" y="194.379187"/>
    </g>
    <g clip-path="url(#p279d3ef42d)">
     <use style="fill:#c44e52;fill-opacity:0.3;" x="443.490871" xlink:href="#C7_0_4ca28b0deb" y="190.703998"/>
    </g>
    <g clip-path="url(#p279d3ef42d)">
     <use style="fill:#c44e52;fill-opacity:0.3;" x="445.69529" xlink:href="#C7_0_4ca28b0deb" y="187.705882"/>
    </g>
    <g clip-path="url(#p279d3ef42d)">
     <use style="fill:#c44e52;fill-opacity:0.3;" x="438.403368" xlink:href="#C7_0_4ca28b0deb" y="188.956451"/>
    </g>
    <g clip-path="url(#p279d3ef42d)">
     <use style="fill:#c44e52;fill-opacity:0.3;" x="445.264647" xlink:href="#C7_0_4ca28b0deb" y="194.690974"/>
    </g>
    <g clip-path="url(#p279d3ef42d)">
     <use style="fill:#c44e52;fill-opacity:0.3;" x="445.635261" xlink:href="#C7_0_4ca28b0deb" y="190.512836"/>
    </g>
    <g clip-path="url(#p279d3ef42d)">
     <use style="fill:#c44e52;fill-opacity:0.3;" x="444.652141" xlink:href="#C7_0_4ca28b0deb" y="194.900721"/>
    </g>
    <g clip-path="url(#p279d3ef42d)">
     <use style="fill:#c44e52;fill-opacity:0.3;" x="438.049877" xlink:href="#C7_0_4ca28b0deb" y="194.348356"/>
    </g>
    <g clip-path="url(#p279d3ef42d)">
     <use style="fill:#c44e52;fill-opacity:0.3;" x="439.383661" xlink:href="#C7_0_4ca28b0deb" y="191.435143"/>
    </g>
    <g clip-path="url(#p279d3ef42d)">
     <use style="fill:#c44e52;fill-opacity:0.3;" x="437.048699" xlink:href="#C7_0_4ca28b0deb" y="187.71539"/>
    </g>
    <g clip-path="url(#p279d3ef42d)">
     <use style="fill:#c44e52;fill-opacity:0.3;" x="445.993493" xlink:href="#C7_0_4ca28b0deb" y="188.757169"/>
    </g>
    <g clip-path="url(#p279d3ef42d)">
     <use style="fill:#c44e52;fill-opacity:0.3;" x="437.975215" xlink:href="#C7_0_4ca28b0deb" y="197.008975"/>
    </g>
    <g clip-path="url(#p279d3ef42d)">
     <use style="fill:#c44e52;fill-opacity:0.3;" x="438.829957" xlink:href="#C7_0_4ca28b0deb" y="191.614044"/>
    </g>
   </g>
   <g id="PathCollection_17"/>
   <g id="PathCollection_18"/>
   <g id="PathCollection_19"/>
   <g id="PathCollection_20"/>
   <g id="PathCollection_21">
    <g clip-path="url(#p279d3ef42d)">
     <use style="fill:#001c7f;stroke:#001c7f;stroke-width:2.53125;" x="317.6452" xlink:href="#mbd618d597e" y="118.581655"/>
    </g>
   </g>
   <g id="matplotlib.axis_3">
    <g id="text_13">
     <!-- NOAH-2 $\rm S^{+}_{1}C^{c}$ ($\Delta' = 1/(4J)$) -->
     <g transform="translate(309.661 340.032)scale(0.12 -0.12)">
      <use transform="translate(0 0.051563)" xlink:href="#Helvetica-78"/>
      <use transform="translate(72.216797 0.051563)" xlink:href="#Helvetica-79"/>
      <use transform="translate(150 0.051563)" xlink:href="#Helvetica-65"/>
      <use transform="translate(216.699219 0.051563)" xlink:href="#Helvetica-72"/>
      <use transform="translate(288.916016 0.051563)" xlink:href="#Helvetica-45"/>
      <use transform="translate(322.216797 0.051563)" xlink:href="#Helvetica-50"/>
      <use transform="translate(377.832031 0.051563)" xlink:href="#Helvetica-32"/>
      <use transform="translate(405.615234 0.051563)" xlink:href="#Helvetica-83"/>
      <use transform="translate(473.229648 36.659375)scale(0.7)" xlink:href="#Helvetica-43"/>
      <use transform="translate(473.229648 -26.096875)scale(0.7)" xlink:href="#Helvetica-49"/>
      <use transform="translate(516.723398 0.051563)" xlink:href="#Helvetica-67"/>
      <use transform="translate(589.855391 36.659375)scale(0.7)" xlink:href="#Helvetica-99"/>
      <use transform="translate(627.470234 0.051563)" xlink:href="#Helvetica-32"/>
      <use transform="translate(655.253438 0.051563)" xlink:href="#Helvetica-40"/>
      <use transform="translate(688.554219 0.051563)" xlink:href="#Helvetica-916"/>
      <use transform="translate(761.686211 36.659375)scale(0.7)" xlink:href="#Helvetica-8242"/>
      <use transform="translate(804.271758 0.051563)" xlink:href="#Helvetica-61"/>
      <use transform="translate(879.330352 0.051563)" xlink:href="#Helvetica-49"/>
      <use transform="translate(934.945586 0.051563)" xlink:href="#Helvetica-47"/>
      <use transform="translate(962.728789 0.051563)" xlink:href="#Helvetica-40"/>
      <use transform="translate(996.02957 0.051563)" xlink:href="#Helvetica-52"/>
      <use transform="translate(1051.644805 0.051563)" xlink:href="#Helvetica-Oblique-74"/>
      <use transform="translate(1101.644805 0.051563)" xlink:href="#Helvetica-41"/>
      <use transform="translate(1134.945586 0.051563)" xlink:href="#Helvetica-41"/>
     </g>
    </g>
   </g>
   <g id="PathCollection_22">
    <g clip-path="url(#p279d3ef42d)">
     <use style="fill:#b1400d;stroke:#b1400d;stroke-width:2.53125;" x="359.0824" xlink:href="#mbcdcf9cb5a" y="203.916525"/>
    </g>
   </g>
   <g id="line2d_7">
    <path clip-path="url(#p279d3ef42d)" d="M 276.208 188.303704 
L 483.394 188.303704 
" style="fill:none;stroke:#808080;stroke-dasharray:1.85,0.8;stroke-dashoffset:0;stroke-width:0.5;"/>
   </g>
   <g id="patch_8">
    <path d="M 276.208 325.472 
L 276.208 40.584 
" style="fill:none;stroke:#000000;stroke-linecap:square;stroke-linejoin:miter;stroke-width:1.3;"/>
   </g>
   <g id="patch_9">
    <path d="M 483.394 325.472 
L 483.394 40.584 
" style="fill:none;stroke:#000000;stroke-linecap:square;stroke-linejoin:miter;stroke-width:1.3;"/>
   </g>
   <g id="patch_10">
    <path d="M 276.208 325.472 
L 483.394 325.472 
" style="fill:none;stroke:#000000;stroke-linecap:square;stroke-linejoin:miter;stroke-width:1.3;"/>
   </g>
   <g id="patch_11">
    <path d="M 276.208 40.584 
L 483.394 40.584 
" style="fill:none;stroke:#000000;stroke-linecap:square;stroke-linejoin:miter;stroke-width:1.3;"/>
   </g>
   <g id="PathCollection_23">
    <g clip-path="url(#p279d3ef42d)">
     <use style="fill:#12711c;stroke:#12711c;stroke-width:2.53125;" x="400.5196" xlink:href="#mfd6d2e3ce6" y="209.382607"/>
    </g>
   </g>
   <g id="text_14">
    <!-- (1.66) -->
    <g style="fill:#4c72b0;" transform="translate(301.973013 319.77424)scale(0.12 -0.12)">
     <defs>
      <path d="M 29.25 70.21875 
Q 40.96875 70.21875 45.578125 64.140625 
Q 50.203125 58.0625 50.203125 51.609375 
L 41.5 51.609375 
Q 40.71875 55.765625 39.015625 58.109375 
Q 35.84375 62.5 29.390625 62.5 
Q 22.015625 62.5 17.671875 55.6875 
Q 13.328125 48.875 12.84375 36.1875 
Q 15.875 40.625 20.453125 42.828125 
Q 24.65625 44.78125 29.828125 44.78125 
Q 38.625 44.78125 45.15625 39.15625 
Q 51.703125 33.546875 51.703125 22.40625 
Q 51.703125 12.890625 45.5 5.53125 
Q 39.3125 -1.8125 27.828125 -1.8125 
Q 18.015625 -1.8125 10.890625 5.640625 
Q 3.765625 13.09375 3.765625 30.71875 
Q 3.765625 43.75 6.9375 52.828125 
Q 13.03125 70.21875 29.25 70.21875 
z
M 28.609375 6 
Q 35.546875 6 38.984375 10.65625 
Q 42.4375 15.328125 42.4375 21.6875 
Q 42.4375 27.046875 39.359375 31.90625 
Q 36.28125 36.765625 28.171875 36.765625 
Q 22.515625 36.765625 18.234375 33 
Q 13.96875 29.25 13.96875 21.6875 
Q 13.96875 15.046875 17.84375 10.515625 
Q 21.734375 6 28.609375 6 
z
" id="Helvetica-54"/>
     </defs>
     <use xlink:href="#Helvetica-40"/>
     <use x="33.300781" xlink:href="#Helvetica-49"/>
     <use x="88.916016" xlink:href="#Helvetica-46"/>
     <use x="116.699219" xlink:href="#Helvetica-54"/>
     <use x="172.314453" xlink:href="#Helvetica-54"/>
     <use x="227.929688" xlink:href="#Helvetica-41"/>
    </g>
   </g>
   <g id="text_15">
    <!-- (0.85) -->
    <g style="fill:#dd8452;" transform="translate(343.410213 319.77424)scale(0.12 -0.12)">
     <use xlink:href="#Helvetica-40"/>
     <use x="33.300781" xlink:href="#Helvetica-48"/>
     <use x="88.916016" xlink:href="#Helvetica-46"/>
     <use x="116.699219" xlink:href="#Helvetica-56"/>
     <use x="172.314453" xlink:href="#Helvetica-53"/>
     <use x="227.929688" xlink:href="#Helvetica-41"/>
    </g>
   </g>
   <g id="text_16">
    <!-- (0.80) -->
    <g style="fill:#55a868;" transform="translate(384.847413 319.77424)scale(0.12 -0.12)">
     <use xlink:href="#Helvetica-40"/>
     <use x="33.300781" xlink:href="#Helvetica-48"/>
     <use x="88.916016" xlink:href="#Helvetica-46"/>
     <use x="116.699219" xlink:href="#Helvetica-56"/>
     <use x="172.314453" xlink:href="#Helvetica-48"/>
     <use x="227.929688" xlink:href="#Helvetica-41"/>
    </g>
   </g>
   <g id="text_17">
    <!-- (0.95) -->
    <g style="fill:#c44e52;" transform="translate(426.284613 319.77424)scale(0.12 -0.12)">
     <use xlink:href="#Helvetica-40"/>
     <use x="33.300781" xlink:href="#Helvetica-48"/>
     <use x="88.916016" xlink:href="#Helvetica-46"/>
     <use x="116.699219" xlink:href="#Helvetica-57"/>
     <use x="172.314453" xlink:href="#Helvetica-53"/>
     <use x="227.929688" xlink:href="#Helvetica-41"/>
    </g>
   </g>
   <g id="text_18">
    <!-- (b) -->
    <g transform="translate(280.35172 56.412073)scale(0.14 -0.14)">
     <defs>
      <path d="M 35.25 54.390625 
Q 45.75 54.390625 51.6875 46.828125 
Q 57.625 39.265625 57.625 27.296875 
Q 57.625 14.890625 51.765625 6.734375 
Q 45.90625 -1.421875 35.40625 -1.421875 
Q 28.8125 -1.421875 24.8125 1.21875 
Q 22.40625 2.78125 19.625 6.6875 
L 19.625 0 
L 6 0 
L 6 71.875 
L 19.875 71.875 
L 19.875 46.296875 
Q 22.515625 50 25.6875 51.953125 
Q 29.4375 54.390625 35.25 54.390625 
z
M 31.6875 10.0625 
Q 37.0625 10.0625 40.03125 14.40625 
Q 43.015625 18.75 43.015625 25.828125 
Q 43.015625 31.5 41.546875 35.203125 
Q 38.765625 42.234375 31.296875 42.234375 
Q 23.734375 42.234375 20.90625 35.359375 
Q 19.4375 31.6875 19.4375 25.875 
Q 19.4375 19.046875 22.453125 14.546875 
Q 25.484375 10.0625 31.6875 10.0625 
z
" id="Helvetica-Bold-98"/>
     </defs>
     <use xlink:href="#Helvetica-Bold-40"/>
     <use x="33.300781" xlink:href="#Helvetica-Bold-98"/>
     <use x="94.384766" xlink:href="#Helvetica-Bold-41"/>
    </g>
   </g>
   <g id="PathCollection_24">
    <g clip-path="url(#p279d3ef42d)">
     <use style="fill:#8c0800;stroke:#8c0800;stroke-width:2.53125;" x="441.9568" xlink:href="#m9c94741ea5" y="193.734835"/>
    </g>
   </g>
  </g>
  <g id="axes_3">
   <g id="patch_12">
    <path d="M 499.854 325.472 
L 707.04 325.472 
L 707.04 40.584 
L 499.854 40.584 
z
" style="fill:#ffffff;"/>
   </g>
   <g id="PathCollection_25">
    <defs>
     <path d="M 0 2.5 
C 0.663008 2.5 1.29895 2.236584 1.767767 1.767767 
C 2.236584 1.29895 2.5 0.663008 2.5 -0 
C 2.5 -0.663008 2.236584 -1.29895 1.767767 -1.767767 
C 1.29895 -2.236584 0.663008 -2.5 0 -2.5 
C -0.663008 -2.5 -1.29895 -2.236584 -1.767767 -1.767767 
C -2.236584 -1.29895 -2.5 -0.663008 -2.5 0 
C -2.5 0.663008 -2.236584 1.29895 -1.767767 1.767767 
C -1.29895 2.236584 -0.663008 2.5 0 2.5 
z
" id="C8_0_f7edd6ad7a"/>
    </defs>
    <g clip-path="url(#p636bb41a60)">
     <use style="fill:#4c72b0;fill-opacity:0.3;" x="541.144992" xlink:href="#C8_0_f7edd6ad7a" y="85.804423"/>
    </g>
    <g clip-path="url(#p636bb41a60)">
     <use style="fill:#4c72b0;fill-opacity:0.3;" x="541.926016" xlink:href="#C8_0_f7edd6ad7a" y="116.194902"/>
    </g>
    <g clip-path="url(#p636bb41a60)">
     <use style="fill:#4c72b0;fill-opacity:0.3;" x="542.530452" xlink:href="#C8_0_f7edd6ad7a" y="110.340204"/>
    </g>
    <g clip-path="url(#p636bb41a60)">
     <use style="fill:#4c72b0;fill-opacity:0.3;" x="540.05958" xlink:href="#C8_0_f7edd6ad7a" y="138.914449"/>
    </g>
    <g clip-path="url(#p636bb41a60)">
     <use style="fill:#4c72b0;fill-opacity:0.3;" x="542.995747" xlink:href="#C8_0_f7edd6ad7a" y="127.994372"/>
    </g>
   </g>
   <g id="PathCollection_26">
    <defs>
     <path d="M 0 2.5 
C 0.663008 2.5 1.29895 2.236584 1.767767 1.767767 
C 2.236584 1.29895 2.5 0.663008 2.5 -0 
C 2.5 -0.663008 2.236584 -1.29895 1.767767 -1.767767 
C 1.29895 -2.236584 0.663008 -2.5 0 -2.5 
C -0.663008 -2.5 -1.29895 -2.236584 -1.767767 -1.767767 
C -2.236584 -1.29895 -2.5 -0.663008 -2.5 0 
C -2.5 0.663008 -2.236584 1.29895 -1.767767 1.767767 
C -1.29895 2.236584 -0.663008 2.5 0 2.5 
z
" id="C9_0_6b730d1b6e"/>
    </defs>
    <g clip-path="url(#p636bb41a60)">
     <use style="fill:#dd8452;fill-opacity:0.3;" x="585.904594" xlink:href="#C9_0_6b730d1b6e" y="225.583977"/>
    </g>
    <g clip-path="url(#p636bb41a60)">
     <use style="fill:#dd8452;fill-opacity:0.3;" x="581.918362" xlink:href="#C9_0_6b730d1b6e" y="229.071295"/>
    </g>
    <g clip-path="url(#p636bb41a60)">
     <use style="fill:#dd8452;fill-opacity:0.3;" x="587.70659" xlink:href="#C9_0_6b730d1b6e" y="230.185973"/>
    </g>
    <g clip-path="url(#p636bb41a60)">
     <use style="fill:#dd8452;fill-opacity:0.3;" x="577.742724" xlink:href="#C9_0_6b730d1b6e" y="233.38811"/>
    </g>
    <g clip-path="url(#p636bb41a60)">
     <use style="fill:#dd8452;fill-opacity:0.3;" x="583.565067" xlink:href="#C9_0_6b730d1b6e" y="216.848896"/>
    </g>
    <g clip-path="url(#p636bb41a60)">
     <use style="fill:#dd8452;fill-opacity:0.3;" x="578.081879" xlink:href="#C9_0_6b730d1b6e" y="215.587088"/>
    </g>
    <g clip-path="url(#p636bb41a60)">
     <use style="fill:#dd8452;fill-opacity:0.3;" x="586.724669" xlink:href="#C9_0_6b730d1b6e" y="203.473917"/>
    </g>
    <g clip-path="url(#p636bb41a60)">
     <use style="fill:#dd8452;fill-opacity:0.3;" x="580.522041" xlink:href="#C9_0_6b730d1b6e" y="212.922645"/>
    </g>
    <g clip-path="url(#p636bb41a60)">
     <use style="fill:#dd8452;fill-opacity:0.3;" x="585.535054" xlink:href="#C9_0_6b730d1b6e" y="199.042612"/>
    </g>
    <g clip-path="url(#p636bb41a60)">
     <use style="fill:#dd8452;fill-opacity:0.3;" x="584.912833" xlink:href="#C9_0_6b730d1b6e" y="199.888988"/>
    </g>
    <g clip-path="url(#p636bb41a60)">
     <use style="fill:#dd8452;fill-opacity:0.3;" x="582.27234" xlink:href="#C9_0_6b730d1b6e" y="187.574035"/>
    </g>
    <g clip-path="url(#p636bb41a60)">
     <use style="fill:#dd8452;fill-opacity:0.3;" x="584.563397" xlink:href="#C9_0_6b730d1b6e" y="185.882787"/>
    </g>
    <g clip-path="url(#p636bb41a60)">
     <use style="fill:#dd8452;fill-opacity:0.3;" x="582.879665" xlink:href="#C9_0_6b730d1b6e" y="209.192317"/>
    </g>
    <g clip-path="url(#p636bb41a60)">
     <use style="fill:#dd8452;fill-opacity:0.3;" x="581.031631" xlink:href="#C9_0_6b730d1b6e" y="212.321284"/>
    </g>
   </g>
   <g id="PathCollection_27">
    <defs>
     <path d="M 0 2.5 
C 0.663008 2.5 1.29895 2.236584 1.767767 1.767767 
C 2.236584 1.29895 2.5 0.663008 2.5 -0 
C 2.5 -0.663008 2.236584 -1.29895 1.767767 -1.767767 
C 1.29895 -2.236584 0.663008 -2.5 0 -2.5 
C -0.663008 -2.5 -1.29895 -2.236584 -1.767767 -1.767767 
C -2.236584 -1.29895 -2.5 -0.663008 -2.5 0 
C -2.5 0.663008 -2.236584 1.29895 -1.767767 1.767767 
C -1.29895 2.236584 -0.663008 2.5 0 2.5 
z
" id="Ca_0_0d1c629ef1"/>
    </defs>
    <g clip-path="url(#p636bb41a60)">
     <use style="fill:#55a868;fill-opacity:0.3;" x="621.919708" xlink:href="#Ca_0_0d1c629ef1" y="172.483393"/>
    </g>
    <g clip-path="url(#p636bb41a60)">
     <use style="fill:#55a868;fill-opacity:0.3;" x="621.630999" xlink:href="#Ca_0_0d1c629ef1" y="214.423812"/>
    </g>
   </g>
   <g id="PathCollection_28">
    <defs>
     <path d="M 0 2.5 
C 0.663008 2.5 1.29895 2.236584 1.767767 1.767767 
C 2.236584 1.29895 2.5 0.663008 2.5 -0 
C 2.5 -0.663008 2.236584 -1.29895 1.767767 -1.767767 
C 1.29895 -2.236584 0.663008 -2.5 0 -2.5 
C -0.663008 -2.5 -1.29895 -2.236584 -1.767767 -1.767767 
C -2.236584 -1.29895 -2.5 -0.663008 -2.5 0 
C -2.5 0.663008 -2.236584 1.29895 -1.767767 1.767767 
C -1.29895 2.236584 -0.663008 2.5 0 2.5 
z
" id="Cb_0_3a3ccae424"/>
    </defs>
    <g clip-path="url(#p636bb41a60)">
     <use style="fill:#c44e52;fill-opacity:0.3;" x="665.121534" xlink:href="#Cb_0_3a3ccae424" y="191.804187"/>
    </g>
    <g clip-path="url(#p636bb41a60)">
     <use style="fill:#c44e52;fill-opacity:0.3;" x="668.017645" xlink:href="#Cb_0_3a3ccae424" y="210.681398"/>
    </g>
    <g clip-path="url(#p636bb41a60)">
     <use style="fill:#c44e52;fill-opacity:0.3;" x="663.985301" xlink:href="#Cb_0_3a3ccae424" y="195.64982"/>
    </g>
    <g clip-path="url(#p636bb41a60)">
     <use style="fill:#c44e52;fill-opacity:0.3;" x="668.680097" xlink:href="#Cb_0_3a3ccae424" y="193.387773"/>
    </g>
    <g clip-path="url(#p636bb41a60)">
     <use style="fill:#c44e52;fill-opacity:0.3;" x="663.614869" xlink:href="#Cb_0_3a3ccae424" y="192.730477"/>
    </g>
    <g clip-path="url(#p636bb41a60)">
     <use style="fill:#c44e52;fill-opacity:0.3;" x="665.803575" xlink:href="#Cb_0_3a3ccae424" y="193.331671"/>
    </g>
    <g clip-path="url(#p636bb41a60)">
     <use style="fill:#c44e52;fill-opacity:0.3;" x="661.991223" xlink:href="#Cb_0_3a3ccae424" y="200.95013"/>
    </g>
    <g clip-path="url(#p636bb41a60)">
     <use style="fill:#c44e52;fill-opacity:0.3;" x="665.057859" xlink:href="#Cb_0_3a3ccae424" y="189.747756"/>
    </g>
    <g clip-path="url(#p636bb41a60)">
     <use style="fill:#c44e52;fill-opacity:0.3;" x="662.335696" xlink:href="#Cb_0_3a3ccae424" y="194.163689"/>
    </g>
    <g clip-path="url(#p636bb41a60)">
     <use style="fill:#c44e52;fill-opacity:0.3;" x="668.567192" xlink:href="#Cb_0_3a3ccae424" y="196.044928"/>
    </g>
    <g clip-path="url(#p636bb41a60)">
     <use style="fill:#c44e52;fill-opacity:0.3;" x="669.869988" xlink:href="#Cb_0_3a3ccae424" y="192.811899"/>
    </g>
    <g clip-path="url(#p636bb41a60)">
     <use style="fill:#c44e52;fill-opacity:0.3;" x="662.494704" xlink:href="#Cb_0_3a3ccae424" y="195.471242"/>
    </g>
    <g clip-path="url(#p636bb41a60)">
     <use style="fill:#c44e52;fill-opacity:0.3;" x="666.924688" xlink:href="#Cb_0_3a3ccae424" y="193.449919"/>
    </g>
    <g clip-path="url(#p636bb41a60)">
     <use style="fill:#c44e52;fill-opacity:0.3;" x="670.605352" xlink:href="#Cb_0_3a3ccae424" y="206.220283"/>
    </g>
    <g clip-path="url(#p636bb41a60)">
     <use style="fill:#c44e52;fill-opacity:0.3;" x="669.675251" xlink:href="#Cb_0_3a3ccae424" y="202.800204"/>
    </g>
    <g clip-path="url(#p636bb41a60)">
     <use style="fill:#c44e52;fill-opacity:0.3;" x="660.938431" xlink:href="#Cb_0_3a3ccae424" y="201.567813"/>
    </g>
    <g clip-path="url(#p636bb41a60)">
     <use style="fill:#c44e52;fill-opacity:0.3;" x="670.42872" xlink:href="#Cb_0_3a3ccae424" y="196.973406"/>
    </g>
    <g clip-path="url(#p636bb41a60)">
     <use style="fill:#c44e52;fill-opacity:0.3;" x="668.229502" xlink:href="#Cb_0_3a3ccae424" y="197.997384"/>
    </g>
    <g clip-path="url(#p636bb41a60)">
     <use style="fill:#c44e52;fill-opacity:0.3;" x="660.452598" xlink:href="#Cb_0_3a3ccae424" y="199.022444"/>
    </g>
    <g clip-path="url(#p636bb41a60)">
     <use style="fill:#c44e52;fill-opacity:0.3;" x="667.329361" xlink:href="#Cb_0_3a3ccae424" y="200.262079"/>
    </g>
    <g clip-path="url(#p636bb41a60)">
     <use style="fill:#c44e52;fill-opacity:0.3;" x="662.634167" xlink:href="#Cb_0_3a3ccae424" y="200.489797"/>
    </g>
    <g clip-path="url(#p636bb41a60)">
     <use style="fill:#c44e52;fill-opacity:0.3;" x="663.302954" xlink:href="#Cb_0_3a3ccae424" y="215.452508"/>
    </g>
    <g clip-path="url(#p636bb41a60)">
     <use style="fill:#c44e52;fill-opacity:0.3;" x="668.217706" xlink:href="#Cb_0_3a3ccae424" y="197.774712"/>
    </g>
    <g clip-path="url(#p636bb41a60)">
     <use style="fill:#c44e52;fill-opacity:0.3;" x="669.764721" xlink:href="#Cb_0_3a3ccae424" y="191.320907"/>
    </g>
    <g clip-path="url(#p636bb41a60)">
     <use style="fill:#c44e52;fill-opacity:0.3;" x="661.297766" xlink:href="#Cb_0_3a3ccae424" y="191.635679"/>
    </g>
    <g clip-path="url(#p636bb41a60)">
     <use style="fill:#c44e52;fill-opacity:0.3;" x="666.459803" xlink:href="#Cb_0_3a3ccae424" y="197.501875"/>
    </g>
    <g clip-path="url(#p636bb41a60)">
     <use style="fill:#c44e52;fill-opacity:0.3;" x="662.41515" xlink:href="#Cb_0_3a3ccae424" y="200.344814"/>
    </g>
    <g clip-path="url(#p636bb41a60)">
     <use style="fill:#c44e52;fill-opacity:0.3;" x="665.697107" xlink:href="#Cb_0_3a3ccae424" y="197.030588"/>
    </g>
    <g clip-path="url(#p636bb41a60)">
     <use style="fill:#c44e52;fill-opacity:0.3;" x="669.019036" xlink:href="#Cb_0_3a3ccae424" y="197.427978"/>
    </g>
    <g clip-path="url(#p636bb41a60)">
     <use style="fill:#c44e52;fill-opacity:0.3;" x="665.190477" xlink:href="#Cb_0_3a3ccae424" y="205.680592"/>
    </g>
    <g clip-path="url(#p636bb41a60)">
     <use style="fill:#c44e52;fill-opacity:0.3;" x="666.301476" xlink:href="#Cb_0_3a3ccae424" y="196.401736"/>
    </g>
    <g clip-path="url(#p636bb41a60)">
     <use style="fill:#c44e52;fill-opacity:0.3;" x="660.441432" xlink:href="#Cb_0_3a3ccae424" y="198.98113"/>
    </g>
    <g clip-path="url(#p636bb41a60)">
     <use style="fill:#c44e52;fill-opacity:0.3;" x="662.377919" xlink:href="#Cb_0_3a3ccae424" y="199.427644"/>
    </g>
    <g clip-path="url(#p636bb41a60)">
     <use style="fill:#c44e52;fill-opacity:0.3;" x="664.114578" xlink:href="#Cb_0_3a3ccae424" y="205.293554"/>
    </g>
    <g clip-path="url(#p636bb41a60)">
     <use style="fill:#c44e52;fill-opacity:0.3;" x="667.396471" xlink:href="#Cb_0_3a3ccae424" y="205.514193"/>
    </g>
    <g clip-path="url(#p636bb41a60)">
     <use style="fill:#c44e52;fill-opacity:0.3;" x="663.634939" xlink:href="#Cb_0_3a3ccae424" y="209.386083"/>
    </g>
    <g clip-path="url(#p636bb41a60)">
     <use style="fill:#c44e52;fill-opacity:0.3;" x="667.257516" xlink:href="#Cb_0_3a3ccae424" y="195.483213"/>
    </g>
    <g clip-path="url(#p636bb41a60)">
     <use style="fill:#c44e52;fill-opacity:0.3;" x="669.24722" xlink:href="#Cb_0_3a3ccae424" y="192.306593"/>
    </g>
    <g clip-path="url(#p636bb41a60)">
     <use style="fill:#c44e52;fill-opacity:0.3;" x="667.452932" xlink:href="#Cb_0_3a3ccae424" y="199.453413"/>
    </g>
    <g clip-path="url(#p636bb41a60)">
     <use style="fill:#c44e52;fill-opacity:0.3;" x="662.129455" xlink:href="#Cb_0_3a3ccae424" y="191.876284"/>
    </g>
    <g clip-path="url(#p636bb41a60)">
     <use style="fill:#c44e52;fill-opacity:0.3;" x="664.94462" xlink:href="#Cb_0_3a3ccae424" y="192.503574"/>
    </g>
    <g clip-path="url(#p636bb41a60)">
     <use style="fill:#c44e52;fill-opacity:0.3;" x="663.578431" xlink:href="#Cb_0_3a3ccae424" y="191.132959"/>
    </g>
    <g clip-path="url(#p636bb41a60)">
     <use style="fill:#c44e52;fill-opacity:0.3;" x="664.153278" xlink:href="#Cb_0_3a3ccae424" y="196.975883"/>
    </g>
    <g clip-path="url(#p636bb41a60)">
     <use style="fill:#c44e52;fill-opacity:0.3;" x="661.879312" xlink:href="#Cb_0_3a3ccae424" y="194.987709"/>
    </g>
    <g clip-path="url(#p636bb41a60)">
     <use style="fill:#c44e52;fill-opacity:0.3;" x="667.16093" xlink:href="#Cb_0_3a3ccae424" y="193.576384"/>
    </g>
    <g clip-path="url(#p636bb41a60)">
     <use style="fill:#c44e52;fill-opacity:0.3;" x="666.214569" xlink:href="#Cb_0_3a3ccae424" y="204.820924"/>
    </g>
    <g clip-path="url(#p636bb41a60)">
     <use style="fill:#c44e52;fill-opacity:0.3;" x="660.9279" xlink:href="#Cb_0_3a3ccae424" y="204.276378"/>
    </g>
    <g clip-path="url(#p636bb41a60)">
     <use style="fill:#c44e52;fill-opacity:0.3;" x="670.255451" xlink:href="#Cb_0_3a3ccae424" y="201.01475"/>
    </g>
    <g clip-path="url(#p636bb41a60)">
     <use style="fill:#c44e52;fill-opacity:0.3;" x="664.419655" xlink:href="#Cb_0_3a3ccae424" y="196.435818"/>
    </g>
    <g clip-path="url(#p636bb41a60)">
     <use style="fill:#c44e52;fill-opacity:0.3;" x="668.064535" xlink:href="#Cb_0_3a3ccae424" y="198.631833"/>
    </g>
    <g clip-path="url(#p636bb41a60)">
     <use style="fill:#c44e52;fill-opacity:0.3;" x="667.385137" xlink:href="#Cb_0_3a3ccae424" y="205.565148"/>
    </g>
    <g clip-path="url(#p636bb41a60)">
     <use style="fill:#c44e52;fill-opacity:0.3;" x="665.425488" xlink:href="#Cb_0_3a3ccae424" y="195.782121"/>
    </g>
   </g>
   <g id="PathCollection_29"/>
   <g id="PathCollection_30"/>
   <g id="PathCollection_31"/>
   <g id="PathCollection_32"/>
   <g id="PathCollection_33">
    <g clip-path="url(#p636bb41a60)">
     <use style="fill:#001c7f;stroke:#001c7f;stroke-width:2.53125;" x="541.2912" xlink:href="#mbd618d597e" y="115.84967"/>
    </g>
   </g>
   <g id="matplotlib.axis_4">
    <g id="text_19">
     <!-- NOAH-2 $\rm S^{+}_{2}C^{c}$ ($\Delta' = 1/(4J)$) -->
     <g transform="translate(533.307 340.032)scale(0.12 -0.12)">
      <use transform="translate(0 0.051563)" xlink:href="#Helvetica-78"/>
      <use transform="translate(72.216797 0.051563)" xlink:href="#Helvetica-79"/>
      <use transform="translate(150 0.051563)" xlink:href="#Helvetica-65"/>
      <use transform="translate(216.699219 0.051563)" xlink:href="#Helvetica-72"/>
      <use transform="translate(288.916016 0.051563)" xlink:href="#Helvetica-45"/>
      <use transform="translate(322.216797 0.051563)" xlink:href="#Helvetica-50"/>
      <use transform="translate(377.832031 0.051563)" xlink:href="#Helvetica-32"/>
      <use transform="translate(405.615234 0.051563)" xlink:href="#Helvetica-83"/>
      <use transform="translate(473.229648 36.659375)scale(0.7)" xlink:href="#Helvetica-43"/>
      <use transform="translate(473.229648 -26.096875)scale(0.7)" xlink:href="#Helvetica-50"/>
      <use transform="translate(516.723398 0.051563)" xlink:href="#Helvetica-67"/>
      <use transform="translate(589.855391 36.659375)scale(0.7)" xlink:href="#Helvetica-99"/>
      <use transform="translate(627.470234 0.051563)" xlink:href="#Helvetica-32"/>
      <use transform="translate(655.253438 0.051563)" xlink:href="#Helvetica-40"/>
      <use transform="translate(688.554219 0.051563)" xlink:href="#Helvetica-916"/>
      <use transform="translate(761.686211 36.659375)scale(0.7)" xlink:href="#Helvetica-8242"/>
      <use transform="translate(804.271758 0.051563)" xlink:href="#Helvetica-61"/>
      <use transform="translate(879.330352 0.051563)" xlink:href="#Helvetica-49"/>
      <use transform="translate(934.945586 0.051563)" xlink:href="#Helvetica-47"/>
      <use transform="translate(962.728789 0.051563)" xlink:href="#Helvetica-40"/>
      <use transform="translate(996.02957 0.051563)" xlink:href="#Helvetica-52"/>
      <use transform="translate(1051.644805 0.051563)" xlink:href="#Helvetica-Oblique-74"/>
      <use transform="translate(1101.644805 0.051563)" xlink:href="#Helvetica-41"/>
      <use transform="translate(1134.945586 0.051563)" xlink:href="#Helvetica-41"/>
     </g>
    </g>
   </g>
   <g id="PathCollection_34">
    <g clip-path="url(#p636bb41a60)">
     <use style="fill:#b1400d;stroke:#b1400d;stroke-width:2.53125;" x="582.7284" xlink:href="#mbcdcf9cb5a" y="211.497423"/>
    </g>
   </g>
   <g id="line2d_8">
    <path clip-path="url(#p636bb41a60)" d="M 499.854 188.303704 
L 707.04 188.303704 
" style="fill:none;stroke:#808080;stroke-dasharray:1.85,0.8;stroke-dashoffset:0;stroke-width:0.5;"/>
   </g>
   <g id="patch_13">
    <path d="M 499.854 325.472 
L 499.854 40.584 
" style="fill:none;stroke:#000000;stroke-linecap:square;stroke-linejoin:miter;stroke-width:1.3;"/>
   </g>
   <g id="patch_14">
    <path d="M 707.04 325.472 
L 707.04 40.584 
" style="fill:none;stroke:#000000;stroke-linecap:square;stroke-linejoin:miter;stroke-width:1.3;"/>
   </g>
   <g id="patch_15">
    <path d="M 499.854 325.472 
L 707.04 325.472 
" style="fill:none;stroke:#000000;stroke-linecap:square;stroke-linejoin:miter;stroke-width:1.3;"/>
   </g>
   <g id="patch_16">
    <path d="M 499.854 40.584 
L 707.04 40.584 
" style="fill:none;stroke:#000000;stroke-linecap:square;stroke-linejoin:miter;stroke-width:1.3;"/>
   </g>
   <g id="PathCollection_35">
    <g clip-path="url(#p636bb41a60)">
     <use style="fill:#12711c;stroke:#12711c;stroke-width:2.53125;" x="624.1656" xlink:href="#mfd6d2e3ce6" y="193.453603"/>
    </g>
   </g>
   <g id="text_20">
    <!-- (1.69) -->
    <g style="fill:#4c72b0;" transform="translate(525.619013 319.77424)scale(0.12 -0.12)">
     <use xlink:href="#Helvetica-40"/>
     <use x="33.300781" xlink:href="#Helvetica-49"/>
     <use x="88.916016" xlink:href="#Helvetica-46"/>
     <use x="116.699219" xlink:href="#Helvetica-54"/>
     <use x="172.314453" xlink:href="#Helvetica-57"/>
     <use x="227.929688" xlink:href="#Helvetica-41"/>
    </g>
   </g>
   <g id="text_21">
    <!-- (0.78) -->
    <g style="fill:#dd8452;" transform="translate(567.056213 319.77424)scale(0.12 -0.12)">
     <use xlink:href="#Helvetica-40"/>
     <use x="33.300781" xlink:href="#Helvetica-48"/>
     <use x="88.916016" xlink:href="#Helvetica-46"/>
     <use x="116.699219" xlink:href="#Helvetica-55"/>
     <use x="172.314453" xlink:href="#Helvetica-56"/>
     <use x="227.929688" xlink:href="#Helvetica-41"/>
    </g>
   </g>
   <g id="text_22">
    <!-- (0.95) -->
    <g style="fill:#55a868;" transform="translate(608.493413 319.77424)scale(0.12 -0.12)">
     <use xlink:href="#Helvetica-40"/>
     <use x="33.300781" xlink:href="#Helvetica-48"/>
     <use x="88.916016" xlink:href="#Helvetica-46"/>
     <use x="116.699219" xlink:href="#Helvetica-57"/>
     <use x="172.314453" xlink:href="#Helvetica-53"/>
     <use x="227.929688" xlink:href="#Helvetica-41"/>
    </g>
   </g>
   <g id="text_23">
    <!-- (0.91) -->
    <g style="fill:#c44e52;" transform="translate(649.930613 319.77424)scale(0.12 -0.12)">
     <use xlink:href="#Helvetica-40"/>
     <use x="33.300781" xlink:href="#Helvetica-48"/>
     <use x="88.916016" xlink:href="#Helvetica-46"/>
     <use x="116.699219" xlink:href="#Helvetica-57"/>
     <use x="172.314453" xlink:href="#Helvetica-49"/>
     <use x="227.929688" xlink:href="#Helvetica-41"/>
    </g>
   </g>
   <g id="text_24">
    <!-- (c) -->
    <g transform="translate(503.99772 56.412073)scale(0.14 -0.14)">
     <defs>
      <path d="M 38.28125 34.125 
Q 37.890625 37.109375 36.28125 39.5 
Q 33.9375 42.71875 29 42.71875 
Q 21.96875 42.71875 19.390625 35.75 
Q 18.015625 32.03125 18.015625 25.875 
Q 18.015625 20.015625 19.390625 16.453125 
Q 21.875 9.8125 28.765625 9.8125 
Q 33.640625 9.8125 35.6875 12.453125 
Q 37.75 15.09375 38.1875 19.28125 
L 52.390625 19.28125 
Q 51.90625 12.9375 47.796875 7.28125 
Q 41.265625 -1.859375 28.421875 -1.859375 
Q 15.578125 -1.859375 9.515625 5.75 
Q 3.46875 13.375 3.46875 25.53125 
Q 3.46875 39.265625 10.15625 46.875 
Q 16.84375 54.5 28.609375 54.5 
Q 38.625 54.5 45 50 
Q 51.375 45.515625 52.546875 34.125 
z
M 28.859375 54.640625 
z
" id="Helvetica-Bold-99"/>
     </defs>
     <use xlink:href="#Helvetica-Bold-40"/>
     <use x="33.300781" xlink:href="#Helvetica-Bold-99"/>
     <use x="88.916016" xlink:href="#Helvetica-Bold-41"/>
    </g>
   </g>
   <g id="PathCollection_36">
    <g clip-path="url(#p636bb41a60)">
     <use style="fill:#8c0800;stroke:#8c0800;stroke-width:2.53125;" x="665.6028" xlink:href="#m9c94741ea5" y="198.260678"/>
    </g>
   </g>
  </g>
  <g id="legend_1">
   <g id="patch_17">
    <path d="M 178.047187 30.309375 
L 599.552813 30.309375 
Q 601.952813 30.309375 601.952813 27.909375 
L 601.952813 12 
Q 601.952813 9.6 599.552813 9.6 
L 178.047187 9.6 
Q 175.647187 9.6 175.647187 12 
L 175.647187 27.909375 
Q 175.647187 30.309375 178.047187 30.309375 
z
" style="fill:#ffffff;opacity:0.8;stroke:#cccccc;stroke-linejoin:miter;"/>
   </g>
   <g id="PathCollection_37">
    <defs>
     <path d="M 0 1.936492 
C 0.513564 1.936492 1.006162 1.732451 1.369306 1.369306 
C 1.732451 1.006162 1.936492 0.513564 1.936492 0 
C 1.936492 -0.513564 1.732451 -1.006162 1.369306 -1.369306 
C 1.006162 -1.732451 0.513564 -1.936492 0 -1.936492 
C -0.513564 -1.936492 -1.006162 -1.732451 -1.369306 -1.369306 
C -1.732451 -1.006162 -1.936492 -0.513564 -1.936492 0 
C -1.936492 0.513564 -1.732451 1.006162 -1.369306 1.369306 
C -1.006162 1.732451 -0.513564 1.936492 0 1.936492 
z
" id="m1baaab0169" style="stroke:#4c72b0;"/>
    </defs>
    <g>
     <use style="fill:#4c72b0;stroke:#4c72b0;" x="192.447187" xlink:href="#m1baaab0169" y="19.858125"/>
    </g>
   </g>
   <g id="text_25">
    <!-- HSQC CH -->
    <g transform="translate(214.047187 23.008125)scale(0.12 -0.12)">
     <defs>
      <path d="M 73.25 0.203125 
L 68.359375 -5.71875 
L 57.28125 2.734375 
Q 53.265625 0.53125 48.609375 -0.78125 
Q 43.953125 -2.09375 38.421875 -2.09375 
Q 21.734375 -2.09375 12.25 8.84375 
Q 3.90625 19.484375 3.90625 35.5 
Q 3.90625 50.046875 11.140625 60.40625 
Q 20.40625 73.6875 38.578125 73.6875 
Q 57.5625 73.6875 66.703125 61.46875 
Q 73.828125 51.953125 73.828125 37.109375 
Q 73.828125 30.171875 72.125 23.78125 
Q 69.53125 14.015625 63.375 7.859375 
z
M 39.59375 6.59375 
Q 42.625 6.59375 45.265625 7 
Q 47.90625 7.421875 49.859375 8.640625 
L 42 14.796875 
L 46.875 20.796875 
L 56.25 13.53125 
Q 60.6875 18.609375 62.28125 24.90625 
Q 63.875 31.203125 63.875 36.96875 
Q 63.875 49.609375 57.25 57.328125 
Q 50.640625 65.046875 39.15625 65.046875 
Q 27.546875 65.046875 20.75 57.640625 
Q 13.96875 50.25 13.96875 34.859375 
Q 13.96875 21.921875 20.484375 14.25 
Q 27 6.59375 39.59375 6.59375 
z
" id="Helvetica-81"/>
     </defs>
     <use xlink:href="#Helvetica-72"/>
     <use x="72.216797" xlink:href="#Helvetica-83"/>
     <use x="138.916016" xlink:href="#Helvetica-81"/>
     <use x="216.699219" xlink:href="#Helvetica-67"/>
     <use x="288.916016" xlink:href="#Helvetica-32"/>
     <use x="316.699219" xlink:href="#Helvetica-67"/>
     <use x="388.916016" xlink:href="#Helvetica-72"/>
    </g>
   </g>
   <g id="PathCollection_38">
    <defs>
     <path d="M 0 1.936492 
C 0.513564 1.936492 1.006162 1.732451 1.369306 1.369306 
C 1.732451 1.006162 1.936492 0.513564 1.936492 0 
C 1.936492 -0.513564 1.732451 -1.006162 1.369306 -1.369306 
C 1.006162 -1.732451 0.513564 -1.936492 0 -1.936492 
C -0.513564 -1.936492 -1.006162 -1.732451 -1.369306 -1.369306 
C -1.732451 -1.006162 -1.936492 -0.513564 -1.936492 0 
C -1.936492 0.513564 -1.732451 1.006162 -1.369306 1.369306 
C -1.006162 1.732451 -0.513564 1.936492 0 1.936492 
z
" id="m417bba2a95" style="stroke:#dd8452;"/>
    </defs>
    <g>
     <use style="fill:#dd8452;stroke:#dd8452;" x="305.384063" xlink:href="#m417bba2a95" y="19.858125"/>
    </g>
   </g>
   <g id="text_26">
    <!-- HSQC CH$_2$ -->
    <g transform="translate(326.984063 23.008125)scale(0.12 -0.12)">
     <use transform="translate(0 0.3125)" xlink:href="#Helvetica-72"/>
     <use transform="translate(72.216797 0.3125)" xlink:href="#Helvetica-83"/>
     <use transform="translate(138.916016 0.3125)" xlink:href="#Helvetica-81"/>
     <use transform="translate(216.699219 0.3125)" xlink:href="#Helvetica-67"/>
     <use transform="translate(288.916016 0.3125)" xlink:href="#Helvetica-32"/>
     <use transform="translate(316.699219 0.3125)" xlink:href="#Helvetica-67"/>
     <use transform="translate(388.916016 0.3125)" xlink:href="#Helvetica-72"/>
     <use transform="translate(462.048008 -15.376563)scale(0.7)" xlink:href="#Helvetica-50"/>
    </g>
   </g>
   <g id="PathCollection_39">
    <defs>
     <path d="M 0 1.936492 
C 0.513564 1.936492 1.006162 1.732451 1.369306 1.369306 
C 1.732451 1.006162 1.936492 0.513564 1.936492 0 
C 1.936492 -0.513564 1.732451 -1.006162 1.369306 -1.369306 
C 1.006162 -1.732451 0.513564 -1.936492 0 -1.936492 
C -0.513564 -1.936492 -1.006162 -1.732451 -1.369306 -1.369306 
C -1.732451 -1.006162 -1.936492 -0.513564 -1.936492 0 
C -1.936492 0.513564 -1.732451 1.006162 -1.369306 1.369306 
C -1.006162 1.732451 -0.513564 1.936492 0 1.936492 
z
" id="md39336908e" style="stroke:#55a868;"/>
    </defs>
    <g>
     <use style="fill:#55a868;stroke:#55a868;" x="423.464063" xlink:href="#md39336908e" y="19.858125"/>
    </g>
   </g>
   <g id="text_27">
    <!-- HSQC CH$_3$ -->
    <g transform="translate(445.064063 23.008125)scale(0.12 -0.12)">
     <use transform="translate(0 0.3125)" xlink:href="#Helvetica-72"/>
     <use transform="translate(72.216797 0.3125)" xlink:href="#Helvetica-83"/>
     <use transform="translate(138.916016 0.3125)" xlink:href="#Helvetica-81"/>
     <use transform="translate(216.699219 0.3125)" xlink:href="#Helvetica-67"/>
     <use transform="translate(288.916016 0.3125)" xlink:href="#Helvetica-32"/>
     <use transform="translate(316.699219 0.3125)" xlink:href="#Helvetica-67"/>
     <use transform="translate(388.916016 0.3125)" xlink:href="#Helvetica-72"/>
     <use transform="translate(462.048008 -15.376563)scale(0.7)" xlink:href="#Helvetica-51"/>
    </g>
   </g>
   <g id="PathCollection_40">
    <defs>
     <path d="M 0 1.936492 
C 0.513564 1.936492 1.006162 1.732451 1.369306 1.369306 
C 1.732451 1.006162 1.936492 0.513564 1.936492 0 
C 1.936492 -0.513564 1.732451 -1.006162 1.369306 -1.369306 
C 1.006162 -1.732451 0.513564 -1.936492 0 -1.936492 
C -0.513564 -1.936492 -1.006162 -1.732451 -1.369306 -1.369306 
C -1.732451 -1.006162 -1.936492 -0.513564 -1.936492 0 
C -1.936492 0.513564 -1.732451 1.006162 -1.369306 1.369306 
C -1.006162 1.732451 -0.513564 1.936492 0 1.936492 
z
" id="m3abfabfc32" style="stroke:#c44e52;"/>
    </defs>
    <g>
     <use style="fill:#c44e52;stroke:#c44e52;" x="541.544063" xlink:href="#m3abfabfc32" y="19.858125"/>
    </g>
   </g>
   <g id="text_28">
    <!-- COSY -->
    <g transform="translate(563.144063 23.008125)scale(0.12 -0.12)">
     <defs>
      <path d="M 2.046875 71.734375 
L 13.375 71.734375 
L 33.984375 37.25 
L 54.59375 71.734375 
L 65.96875 71.734375 
L 38.875 28.90625 
L 38.875 0 
L 29.15625 0 
L 29.15625 28.90625 
z
M 34.125 71.734375 
z
" id="Helvetica-89"/>
     </defs>
     <use xlink:href="#Helvetica-67"/>
     <use x="72.216797" xlink:href="#Helvetica-79"/>
     <use x="150" xlink:href="#Helvetica-83"/>
     <use x="216.699219" xlink:href="#Helvetica-89"/>
    </g>
   </g>
  </g>
 </g>
 <defs>
  <clipPath id="pac4636e987">
   <rect height="284.888" width="207.186" x="52.562" y="40.584"/>
  </clipPath>
  <clipPath id="p279d3ef42d">
   <rect height="284.888" width="207.186" x="276.208" y="40.584"/>
  </clipPath>
  <clipPath id="p636bb41a60">
   <rect height="284.888" width="207.186" x="499.854" y="40.584"/>
  </clipPath>
 </defs>
</svg>
