<?xml version="1.0" encoding="utf-8" standalone="no"?>
<!DOCTYPE svg PUBLIC "-//W3C//DTD SVG 1.1//EN"
  "http://www.w3.org/Graphics/SVG/1.1/DTD/svg11.dtd">
<!-- Created with matplotlib (https://matplotlib.org/) -->
<svg height="288pt" version="1.1" viewBox="0 0 576 288" width="576pt" xmlns="http://www.w3.org/2000/svg" xmlns:xlink="http://www.w3.org/1999/xlink">
 <metadata>
  <rdf:RDF xmlns:cc="http://creativecommons.org/ns#" xmlns:dc="http://purl.org/dc/elements/1.1/" xmlns:rdf="http://www.w3.org/1999/02/22-rdf-syntax-ns#">
   <cc:Work>
    <dc:type rdf:resource="http://purl.org/dc/dcmitype/StillImage"/>
    <dc:date>2020-11-24T20:38:26.318992</dc:date>
    <dc:format>image/svg+xml</dc:format>
    <dc:creator>
     <cc:Agent>
      <dc:title>Matplotlib v3.3.2, https://matplotlib.org/</dc:title>
     </cc:Agent>
    </dc:creator>
   </cc:Work>
  </rdf:RDF>
 </metadata>
 <defs>
  <style type="text/css">*{stroke-linecap:butt;stroke-linejoin:round;}</style>
 </defs>
 <g id="figure_1">
  <g id="patch_1">
   <path d="M 0 288 
L 576 288 
L 576 0 
L 0 0 
z
" style="fill:#ffffff;"/>
  </g>
  <g id="axes_1">
   <g id="patch_2">
    <path d="M 48.71 263.84 
L 299.805 263.84 
L 299.805 10.8 
L 48.71 10.8 
z
" style="fill:#ffffff;"/>
   </g>
   <g id="PathCollection_1"/>
   <g id="PathCollection_2"/>
   <g id="PathCollection_3"/>
   <g id="PathCollection_4"/>
   <g id="matplotlib.axis_1">
    <g id="text_1">
     <!-- CRK edited seHSQC/CLIP-COSY -->
     <g transform="translate(109.594219 274.960312)scale(0.1 -0.1)">
      <defs>
       <path d="M 33.796875 -1.203125 
Q 27.59375 -1.203125 22.390625 1.09375 
Q 17.203125 3.40625 13.34375 7.75 
Q 9.5 12.09375 7.34375 18.4375 
Q 5.203125 24.796875 5.203125 32.796875 
Q 5.203125 40.703125 7.390625 47 
Q 9.59375 53.296875 13.5 57.6875 
Q 17.40625 62.09375 22.703125 64.4375 
Q 28 66.796875 34.296875 66.796875 
Q 40.296875 66.796875 44.84375 64.34375 
Q 49.40625 61.90625 52.296875 58.703125 
L 47.796875 53.296875 
Q 45.203125 56.09375 41.890625 57.796875 
Q 38.59375 59.5 34.40625 59.5 
Q 29.703125 59.5 25.890625 57.640625 
Q 22.09375 55.796875 19.390625 52.34375 
Q 16.703125 48.90625 15.25 44 
Q 13.796875 39.09375 13.796875 33 
Q 13.796875 26.796875 15.25 21.84375 
Q 16.703125 16.90625 19.296875 13.40625 
Q 21.90625 9.90625 25.65625 8 
Q 29.40625 6.09375 34.09375 6.09375 
Q 38.90625 6.09375 42.5 8.046875 
Q 46.09375 10 49.296875 13.5 
L 53.90625 8.296875 
Q 50 3.796875 45.09375 1.296875 
Q 40.203125 -1.203125 33.796875 -1.203125 
z
" id="SourceSansPro-Regular-67"/>
       <path d="M 9 0 
L 9 65.59375 
L 29.5 65.59375 
Q 34.5 65.59375 38.75 64.640625 
Q 43 63.703125 46.046875 61.5 
Q 49.09375 59.296875 50.796875 55.796875 
Q 52.5 52.296875 52.5 47.203125 
Q 52.5 39.5 48.5 34.890625 
Q 44.5 30.296875 37.703125 28.59375 
L 54.40625 0 
L 45 0 
L 29.203125 27.703125 
L 17.296875 27.703125 
L 17.296875 0 
z
M 17.296875 34.5 
L 28.296875 34.5 
Q 36 34.5 40.09375 37.640625 
Q 44.203125 40.796875 44.203125 47.203125 
Q 44.203125 53.703125 40.09375 56.296875 
Q 36 58.90625 28.296875 58.90625 
L 17.296875 58.90625 
z
" id="SourceSansPro-Regular-82"/>
       <path d="M 9 0 
L 9 65.59375 
L 17.296875 65.59375 
L 17.296875 32.703125 
L 17.59375 32.703125 
L 44.90625 65.59375 
L 54.296875 65.59375 
L 33.796875 40.59375 
L 57.5 0 
L 48.203125 0 
L 28.59375 34.09375 
L 17.296875 20.796875 
L 17.296875 0 
z
" id="SourceSansPro-Regular-75"/>
       <path id="SourceSansPro-Regular-32"/>
       <path d="M 27.90625 -1.203125 
Q 23 -1.203125 18.75 0.546875 
Q 14.5 2.296875 11.34375 5.546875 
Q 8.203125 8.796875 6.390625 13.5 
Q 4.59375 18.203125 4.59375 24.203125 
Q 4.59375 30.203125 6.4375 34.953125 
Q 8.296875 39.703125 11.34375 43 
Q 14.40625 46.296875 18.296875 48.046875 
Q 22.203125 49.796875 26.40625 49.796875 
Q 31 49.796875 34.640625 48.1875 
Q 38.296875 46.59375 40.75 43.59375 
Q 43.203125 40.59375 44.5 36.390625 
Q 45.796875 32.203125 45.796875 27 
Q 45.796875 25.703125 45.75 24.453125 
Q 45.703125 23.203125 45.5 22.296875 
L 12.703125 22.296875 
Q 13.203125 14.5 17.546875 9.953125 
Q 21.90625 5.40625 28.90625 5.40625 
Q 32.40625 5.40625 35.34375 6.453125 
Q 38.296875 7.5 41 9.203125 
L 43.90625 3.796875 
Q 40.703125 1.796875 36.796875 0.296875 
Q 32.90625 -1.203125 27.90625 -1.203125 
z
M 12.59375 28.203125 
L 38.59375 28.203125 
Q 38.59375 35.59375 35.4375 39.4375 
Q 32.296875 43.296875 26.59375 43.296875 
Q 24 43.296875 21.640625 42.296875 
Q 19.296875 41.296875 17.390625 39.34375 
Q 15.5 37.40625 14.25 34.59375 
Q 13 31.796875 12.59375 28.203125 
z
" id="SourceSansPro-Regular-101"/>
       <path d="M 24.796875 -1.203125 
Q 15.59375 -1.203125 10.140625 5.390625 
Q 4.703125 12 4.703125 24.203125 
Q 4.703125 30.09375 6.453125 34.84375 
Q 8.203125 39.59375 11.09375 42.890625 
Q 14 46.203125 17.796875 48 
Q 21.59375 49.796875 25.796875 49.796875 
Q 30 49.796875 33.09375 48.296875 
Q 36.203125 46.796875 39.40625 44.203125 
L 39 52.5 
L 39 71.203125 
L 47.296875 71.203125 
L 47.296875 0 
L 40.5 0 
L 39.796875 5.703125 
L 39.5 5.703125 
Q 36.59375 2.90625 32.84375 0.84375 
Q 29.09375 -1.203125 24.796875 -1.203125 
z
M 26.59375 5.703125 
Q 30 5.703125 33 7.34375 
Q 36 9 39 12.40625 
L 39 37.796875 
Q 35.90625 40.59375 33.046875 41.75 
Q 30.203125 42.90625 27.203125 42.90625 
Q 24.296875 42.90625 21.75 41.546875 
Q 19.203125 40.203125 17.296875 37.75 
Q 15.40625 35.296875 14.296875 31.890625 
Q 13.203125 28.5 13.203125 24.296875 
Q 13.203125 15.5 16.703125 10.59375 
Q 20.203125 5.703125 26.59375 5.703125 
z
" id="SourceSansPro-Regular-100"/>
       <path d="M 8.203125 0 
L 8.203125 48.59375 
L 16.40625 48.59375 
L 16.40625 0 
z
M 12.40625 58.59375 
Q 10 58.59375 8.34375 60.09375 
Q 6.703125 61.59375 6.703125 63.90625 
Q 6.703125 66.296875 8.34375 67.75 
Q 10 69.203125 12.40625 69.203125 
Q 14.796875 69.203125 16.4375 67.75 
Q 18.09375 66.296875 18.09375 63.90625 
Q 18.09375 61.59375 16.4375 60.09375 
Q 14.796875 58.59375 12.40625 58.59375 
z
" id="SourceSansPro-Regular-105"/>
       <path d="M 23.5 -1.203125 
Q 19.59375 -1.203125 16.9375 0 
Q 14.296875 1.203125 12.640625 3.296875 
Q 11 5.40625 10.296875 8.40625 
Q 9.59375 11.40625 9.59375 15 
L 9.59375 41.90625 
L 2.40625 41.90625 
L 2.40625 48.09375 
L 10 48.59375 
L 11 62.203125 
L 17.90625 62.203125 
L 17.90625 48.59375 
L 31 48.59375 
L 31 41.90625 
L 17.90625 41.90625 
L 17.90625 14.90625 
Q 17.90625 10.40625 19.546875 7.953125 
Q 21.203125 5.5 25.40625 5.5 
Q 26.703125 5.5 28.203125 5.890625 
Q 29.703125 6.296875 30.90625 6.796875 
L 32.5 0.59375 
Q 30.5 -0.09375 28.140625 -0.640625 
Q 25.796875 -1.203125 23.5 -1.203125 
z
" id="SourceSansPro-Regular-116"/>
       <path d="M 20.90625 -1.203125 
Q 15.703125 -1.203125 11 0.6875 
Q 6.296875 2.59375 2.796875 5.5 
L 6.90625 11 
Q 10.09375 8.40625 13.4375 6.796875 
Q 16.796875 5.203125 21.203125 5.203125 
Q 26 5.203125 28.390625 7.390625 
Q 30.796875 9.59375 30.796875 12.796875 
Q 30.796875 14.703125 29.796875 16.09375 
Q 28.796875 17.5 27.25 18.546875 
Q 25.703125 19.59375 23.703125 20.390625 
Q 21.703125 21.203125 19.703125 22 
Q 17.09375 22.90625 14.5 24.046875 
Q 11.90625 25.203125 9.84375 26.84375 
Q 7.796875 28.5 6.5 30.703125 
Q 5.203125 32.90625 5.203125 36 
Q 5.203125 38.90625 6.34375 41.453125 
Q 7.5 44 9.640625 45.84375 
Q 11.796875 47.703125 14.890625 48.75 
Q 18 49.796875 21.90625 49.796875 
Q 26.5 49.796875 30.34375 48.1875 
Q 34.203125 46.59375 37 44.296875 
L 33.09375 39.09375 
Q 30.59375 41 27.890625 42.203125 
Q 25.203125 43.40625 22 43.40625 
Q 17.40625 43.40625 15.25 41.296875 
Q 13.09375 39.203125 13.09375 36.40625 
Q 13.09375 34.703125 14 33.453125 
Q 14.90625 32.203125 16.40625 31.25 
Q 17.90625 30.296875 19.84375 29.546875 
Q 21.796875 28.796875 23.90625 28 
Q 26.5 27 29.140625 25.890625 
Q 31.796875 24.796875 33.890625 23.140625 
Q 36 21.5 37.34375 19.09375 
Q 38.703125 16.703125 38.703125 13.296875 
Q 38.703125 10.296875 37.546875 7.6875 
Q 36.40625 5.09375 34.15625 3.09375 
Q 31.90625 1.09375 28.546875 -0.046875 
Q 25.203125 -1.203125 20.90625 -1.203125 
z
" id="SourceSansPro-Regular-115"/>
       <path d="M 9 0 
L 9 65.59375 
L 17.296875 65.59375 
L 17.296875 38.09375 
L 47.796875 38.09375 
L 47.796875 65.59375 
L 56.203125 65.59375 
L 56.203125 0 
L 47.796875 0 
L 47.796875 30.90625 
L 17.296875 30.90625 
L 17.296875 0 
z
" id="SourceSansPro-Regular-72"/>
       <path d="M 27.203125 -1.203125 
Q 20.296875 -1.203125 14.390625 1.390625 
Q 8.5 4 4.203125 8.5 
L 9.203125 14.296875 
Q 12.703125 10.59375 17.453125 8.34375 
Q 22.203125 6.09375 27.296875 6.09375 
Q 33.796875 6.09375 37.390625 9.046875 
Q 41 12 41 16.796875 
Q 41 19.296875 40.140625 21.046875 
Q 39.296875 22.796875 37.84375 24.046875 
Q 36.40625 25.296875 34.40625 26.296875 
Q 32.40625 27.296875 30.09375 28.40625 
L 20.703125 32.5 
Q 18.40625 33.5 16 34.890625 
Q 13.59375 36.296875 11.6875 38.296875 
Q 9.796875 40.296875 8.59375 43.046875 
Q 7.40625 45.796875 7.40625 49.40625 
Q 7.40625 53.09375 8.953125 56.296875 
Q 10.5 59.5 13.25 61.84375 
Q 16 64.203125 19.75 65.5 
Q 23.5 66.796875 28 66.796875 
Q 33.90625 66.796875 38.90625 64.546875 
Q 43.90625 62.296875 47.40625 58.703125 
L 42.90625 53.296875 
Q 39.90625 56.203125 36.25 57.84375 
Q 32.59375 59.5 28 59.5 
Q 22.5 59.5 19.140625 56.953125 
Q 15.796875 54.40625 15.796875 49.90625 
Q 15.796875 47.5 16.75 45.84375 
Q 17.703125 44.203125 19.296875 42.953125 
Q 20.90625 41.703125 22.796875 40.75 
Q 24.703125 39.796875 26.703125 39 
L 36 35 
Q 38.796875 33.796875 41.296875 32.25 
Q 43.796875 30.703125 45.59375 28.640625 
Q 47.40625 26.59375 48.453125 23.84375 
Q 49.5 21.09375 49.5 17.5 
Q 49.5 13.59375 47.953125 10.1875 
Q 46.40625 6.796875 43.5 4.25 
Q 40.59375 1.703125 36.5 0.25 
Q 32.40625 -1.203125 27.203125 -1.203125 
z
" id="SourceSansPro-Regular-83"/>
       <path d="M 33.203125 5.703125 
Q 37.59375 5.703125 41.140625 7.59375 
Q 44.703125 9.5 47.25 13.09375 
Q 49.796875 16.703125 51.1875 21.75 
Q 52.59375 26.796875 52.59375 33.09375 
Q 52.59375 39.203125 51.1875 44.09375 
Q 49.796875 49 47.25 52.390625 
Q 44.703125 55.796875 41.140625 57.640625 
Q 37.59375 59.5 33.203125 59.5 
Q 28.796875 59.5 25.25 57.640625 
Q 21.703125 55.796875 19.140625 52.390625 
Q 16.59375 49 15.1875 44.09375 
Q 13.796875 39.203125 13.796875 33.09375 
Q 13.796875 26.796875 15.1875 21.75 
Q 16.59375 16.703125 19.140625 13.09375 
Q 21.703125 9.5 25.25 7.59375 
Q 28.796875 5.703125 33.203125 5.703125 
z
M 53.296875 -16.5 
Q 48.796875 -16.5 44.9375 -15.34375 
Q 41.09375 -14.203125 38.046875 -12.09375 
Q 35 -10 32.75 -7.140625 
Q 30.5 -4.296875 29.09375 -0.90625 
Q 23.703125 -0.203125 19.296875 2.5 
Q 14.90625 5.203125 11.75 9.59375 
Q 8.59375 14 6.890625 19.953125 
Q 5.203125 25.90625 5.203125 33.09375 
Q 5.203125 41 7.25 47.25 
Q 9.296875 53.5 13 57.84375 
Q 16.703125 62.203125 21.84375 64.5 
Q 27 66.796875 33.203125 66.796875 
Q 39.40625 66.796875 44.546875 64.4375 
Q 49.703125 62.09375 53.453125 57.75 
Q 57.203125 53.40625 59.25 47.15625 
Q 61.296875 40.90625 61.296875 33.09375 
Q 61.296875 26 59.640625 20.140625 
Q 58 14.296875 54.953125 9.9375 
Q 51.90625 5.59375 47.59375 2.84375 
Q 43.296875 0.09375 38.09375 -0.796875 
Q 40.40625 -5.203125 44.59375 -7.34375 
Q 48.796875 -9.5 54.203125 -9.5 
Q 56.40625 -9.5 58.046875 -9.25 
Q 59.703125 -9 61.09375 -8.59375 
L 62.703125 -15 
Q 61.203125 -15.59375 58.703125 -16.046875 
Q 56.203125 -16.5 53.296875 -16.5 
z
" id="SourceSansPro-Regular-81"/>
       <path d="M 1 -16 
L 27.703125 71 
L 33.703125 71 
L 7 -16 
z
" id="SourceSansPro-Regular-47"/>
       <path d="M 9 0 
L 9 65.59375 
L 17.296875 65.59375 
L 17.296875 7.09375 
L 46 7.09375 
L 46 0 
z
" id="SourceSansPro-Regular-76"/>
       <path d="M 9 0 
L 9 65.59375 
L 17.296875 65.59375 
L 17.296875 0 
z
" id="SourceSansPro-Regular-73"/>
       <path d="M 9 0 
L 9 65.59375 
L 27.703125 65.59375 
Q 33.203125 65.59375 37.75 64.59375 
Q 42.296875 63.59375 45.5 61.34375 
Q 48.703125 59.09375 50.5 55.390625 
Q 52.296875 51.703125 52.296875 46.296875 
Q 52.296875 41.09375 50.546875 37.296875 
Q 48.796875 33.5 45.59375 31 
Q 42.40625 28.5 37.953125 27.25 
Q 33.5 26 28.09375 26 
L 17.296875 26 
L 17.296875 0 
z
M 17.296875 32.796875 
L 27.09375 32.796875 
Q 35.703125 32.796875 39.84375 36.046875 
Q 44 39.296875 44 46.296875 
Q 44 53.40625 39.640625 56.15625 
Q 35.296875 58.90625 26.703125 58.90625 
L 17.296875 58.90625 
z
" id="SourceSansPro-Regular-80"/>
       <path d="M 4.09375 21.90625 
L 4.09375 28.203125 
L 27.09375 28.203125 
L 27.09375 21.90625 
z
" id="SourceSansPro-Regular-45"/>
       <path d="M 33.203125 -1.203125 
Q 27 -1.203125 21.84375 1.1875 
Q 16.703125 3.59375 13 8.046875 
Q 9.296875 12.5 7.25 18.84375 
Q 5.203125 25.203125 5.203125 33.09375 
Q 5.203125 41 7.25 47.25 
Q 9.296875 53.5 13 57.84375 
Q 16.703125 62.203125 21.84375 64.5 
Q 27 66.796875 33.203125 66.796875 
Q 39.40625 66.796875 44.546875 64.4375 
Q 49.703125 62.09375 53.453125 57.75 
Q 57.203125 53.40625 59.25 47.15625 
Q 61.296875 40.90625 61.296875 33.09375 
Q 61.296875 25.203125 59.25 18.84375 
Q 57.203125 12.5 53.453125 8.046875 
Q 49.703125 3.59375 44.546875 1.1875 
Q 39.40625 -1.203125 33.203125 -1.203125 
z
M 33.203125 6.09375 
Q 37.59375 6.09375 41.140625 8 
Q 44.703125 9.90625 47.25 13.453125 
Q 49.796875 17 51.1875 21.953125 
Q 52.59375 26.90625 52.59375 33.09375 
Q 52.59375 39.203125 51.1875 44.09375 
Q 49.796875 49 47.25 52.390625 
Q 44.703125 55.796875 41.140625 57.640625 
Q 37.59375 59.5 33.203125 59.5 
Q 28.796875 59.5 25.25 57.640625 
Q 21.703125 55.796875 19.140625 52.390625 
Q 16.59375 49 15.1875 44.09375 
Q 13.796875 39.203125 13.796875 33.09375 
Q 13.796875 26.90625 15.1875 21.953125 
Q 16.59375 17 19.140625 13.453125 
Q 21.703125 9.90625 25.25 8 
Q 28.796875 6.09375 33.203125 6.09375 
z
" id="SourceSansPro-Regular-79"/>
       <path d="M 19.59375 0 
L 19.59375 25.40625 
L -0.09375 65.59375 
L 8.796875 65.59375 
L 17.296875 47.09375 
Q 18.90625 43.5 20.40625 40 
Q 21.90625 36.5 23.59375 32.796875 
L 24 32.796875 
Q 25.703125 36.5 27.390625 40 
Q 29.09375 43.5 30.59375 47.09375 
L 39 65.59375 
L 47.703125 65.59375 
L 28 25.40625 
L 28 0 
z
" id="SourceSansPro-Regular-89"/>
      </defs>
      <use xlink:href="#SourceSansPro-Regular-67"/>
      <use x="57.099991" xlink:href="#SourceSansPro-Regular-82"/>
      <use x="113.999985" xlink:href="#SourceSansPro-Regular-75"/>
      <use x="171.899979" xlink:href="#SourceSansPro-Regular-32"/>
      <use x="191.899963" xlink:href="#SourceSansPro-Regular-101"/>
      <use x="241.499954" xlink:href="#SourceSansPro-Regular-100"/>
      <use x="296.999939" xlink:href="#SourceSansPro-Regular-105"/>
      <use x="321.59993" xlink:href="#SourceSansPro-Regular-116"/>
      <use x="355.399918" xlink:href="#SourceSansPro-Regular-101"/>
      <use x="404.999908" xlink:href="#SourceSansPro-Regular-100"/>
      <use x="460.499893" xlink:href="#SourceSansPro-Regular-32"/>
      <use x="480.499878" xlink:href="#SourceSansPro-Regular-115"/>
      <use x="522.399872" xlink:href="#SourceSansPro-Regular-101"/>
      <use x="571.999863" xlink:href="#SourceSansPro-Regular-72"/>
      <use x="637.19986" xlink:href="#SourceSansPro-Regular-83"/>
      <use x="690.599854" xlink:href="#SourceSansPro-Regular-81"/>
      <use x="756.999847" xlink:href="#SourceSansPro-Regular-67"/>
      <use x="814.099838" xlink:href="#SourceSansPro-Regular-47"/>
      <use x="849.099823" xlink:href="#SourceSansPro-Regular-67"/>
      <use x="906.199814" xlink:href="#SourceSansPro-Regular-76"/>
      <use x="954.799805" xlink:href="#SourceSansPro-Regular-73"/>
      <use x="981.099792" xlink:href="#SourceSansPro-Regular-80"/>
      <use x="1037.699783" xlink:href="#SourceSansPro-Regular-45"/>
      <use x="1068.799774" xlink:href="#SourceSansPro-Regular-67"/>
      <use x="1125.899765" xlink:href="#SourceSansPro-Regular-79"/>
      <use x="1192.299759" xlink:href="#SourceSansPro-Regular-83"/>
      <use x="1245.699753" xlink:href="#SourceSansPro-Regular-89"/>
     </g>
    </g>
   </g>
   <g id="matplotlib.axis_2">
    <g id="ytick_1">
     <g id="line2d_1">
      <defs>
       <path d="M 0 0 
L -3.5 0 
" id="m3cee24317f" style="stroke:#000000;stroke-width:0.8;"/>
      </defs>
      <g>
       <use style="stroke:#000000;stroke-width:0.8;" x="48.71" xlink:href="#m3cee24317f" y="239.740952"/>
      </g>
     </g>
     <g id="text_2">
      <!-- 0.00 -->
      <g transform="translate(24.308438 243.301109)scale(0.1 -0.1)">
       <defs>
        <path d="M 24.90625 -1.203125 
Q 15.203125 -1.203125 9.796875 7.390625 
Q 4.40625 16 4.40625 32.09375 
Q 4.40625 48.203125 9.796875 56.59375 
Q 15.203125 65 24.90625 65 
Q 34.5 65 39.890625 56.59375 
Q 45.296875 48.203125 45.296875 32.09375 
Q 45.296875 16 39.890625 7.390625 
Q 34.5 -1.203125 24.90625 -1.203125 
z
M 24.90625 5.40625 
Q 27.703125 5.40625 29.953125 6.953125 
Q 32.203125 8.5 33.84375 11.75 
Q 35.5 15 36.390625 20.046875 
Q 37.296875 25.09375 37.296875 32.09375 
Q 37.296875 39.09375 36.390625 44.09375 
Q 35.5 49.09375 33.84375 52.25 
Q 32.203125 55.40625 29.953125 56.90625 
Q 27.703125 58.40625 24.90625 58.40625 
Q 22.09375 58.40625 19.796875 56.90625 
Q 17.5 55.40625 15.84375 52.25 
Q 14.203125 49.09375 13.296875 44.09375 
Q 12.40625 39.09375 12.40625 32.09375 
Q 12.40625 18.09375 15.84375 11.75 
Q 19.296875 5.40625 24.90625 5.40625 
z
" id="SourceSansPro-Regular-48"/>
        <path d="M 12.5 -1.203125 
Q 10 -1.203125 8.25 0.546875 
Q 6.5 2.296875 6.5 5 
Q 6.5 7.90625 8.25 9.65625 
Q 10 11.40625 12.5 11.40625 
Q 14.90625 11.40625 16.65625 9.65625 
Q 18.40625 7.90625 18.40625 5 
Q 18.40625 2.296875 16.65625 0.546875 
Q 14.90625 -1.203125 12.5 -1.203125 
z
" id="SourceSansPro-Regular-46"/>
       </defs>
       <use xlink:href="#SourceSansPro-Regular-48"/>
       <use x="49.699997" xlink:href="#SourceSansPro-Regular-46"/>
       <use x="74.599991" xlink:href="#SourceSansPro-Regular-48"/>
       <use x="124.299988" xlink:href="#SourceSansPro-Regular-48"/>
      </g>
     </g>
    </g>
    <g id="ytick_2">
     <g id="line2d_2">
      <g>
       <use style="stroke:#000000;stroke-width:0.8;" x="48.71" xlink:href="#m3cee24317f" y="209.617143"/>
      </g>
     </g>
     <g id="text_3">
      <!-- 0.25 -->
      <g transform="translate(24.308438 213.177299)scale(0.1 -0.1)">
       <defs>
        <path d="M 4 0 
L 4 4.90625 
Q 11.203125 12.09375 16.796875 17.890625 
Q 22.40625 23.703125 26.203125 28.640625 
Q 30 33.59375 32 37.75 
Q 34 41.90625 34 45.796875 
Q 34 51.296875 31 54.796875 
Q 28 58.296875 21.90625 58.296875 
Q 17.90625 58.296875 14.5 56.046875 
Q 11.09375 53.796875 8.296875 50.59375 
L 3.59375 55.296875 
Q 7.59375 59.703125 12.09375 62.34375 
Q 16.59375 65 22.90625 65 
Q 31.796875 65 36.890625 59.84375 
Q 42 54.703125 42 46.203125 
Q 42 41.703125 40.046875 37.140625 
Q 38.09375 32.59375 34.640625 27.75 
Q 31.203125 22.90625 26.453125 17.65625 
Q 21.703125 12.40625 16 6.5 
Q 18.59375 6.703125 21.390625 6.890625 
Q 24.203125 7.09375 26.703125 7.09375 
L 45.203125 7.09375 
L 45.203125 0 
z
" id="SourceSansPro-Regular-50"/>
        <path d="M 23.40625 -1.203125 
Q 19.59375 -1.203125 16.4375 -0.453125 
Q 13.296875 0.296875 10.75 1.5 
Q 8.203125 2.703125 6.140625 4.25 
Q 4.09375 5.796875 2.5 7.5 
L 6.5 12.90625 
Q 9.296875 10 13.140625 7.796875 
Q 17 5.59375 22.59375 5.59375 
Q 25.5 5.59375 28.046875 6.640625 
Q 30.59375 7.703125 32.5 9.59375 
Q 34.40625 11.5 35.5 14.203125 
Q 36.59375 16.90625 36.59375 20.203125 
Q 36.59375 26.796875 32.890625 30.5 
Q 29.203125 34.203125 23 34.203125 
Q 19.703125 34.203125 17.34375 33.203125 
Q 15 32.203125 12.09375 30.296875 
L 7.703125 33.09375 
L 9.796875 63.796875 
L 41.703125 63.796875 
L 41.703125 56.703125 
L 17 56.703125 
L 15.296875 37.796875 
Q 17.59375 39 19.890625 39.703125 
Q 22.203125 40.40625 25.09375 40.40625 
Q 29.203125 40.40625 32.796875 39.203125 
Q 36.40625 38 39.09375 35.546875 
Q 41.796875 33.09375 43.34375 29.34375 
Q 44.90625 25.59375 44.90625 20.40625 
Q 44.90625 15.203125 43.09375 11.203125 
Q 41.296875 7.203125 38.296875 4.453125 
Q 35.296875 1.703125 31.4375 0.25 
Q 27.59375 -1.203125 23.40625 -1.203125 
z
" id="SourceSansPro-Regular-53"/>
       </defs>
       <use xlink:href="#SourceSansPro-Regular-48"/>
       <use x="49.699997" xlink:href="#SourceSansPro-Regular-46"/>
       <use x="74.599991" xlink:href="#SourceSansPro-Regular-50"/>
       <use x="124.299988" xlink:href="#SourceSansPro-Regular-53"/>
      </g>
     </g>
    </g>
    <g id="ytick_3">
     <g id="line2d_3">
      <g>
       <use style="stroke:#000000;stroke-width:0.8;" x="48.71" xlink:href="#m3cee24317f" y="179.493333"/>
      </g>
     </g>
     <g id="text_4">
      <!-- 0.50 -->
      <g transform="translate(24.308438 183.05349)scale(0.1 -0.1)">
       <use xlink:href="#SourceSansPro-Regular-48"/>
       <use x="49.699997" xlink:href="#SourceSansPro-Regular-46"/>
       <use x="74.599991" xlink:href="#SourceSansPro-Regular-53"/>
       <use x="124.299988" xlink:href="#SourceSansPro-Regular-48"/>
      </g>
     </g>
    </g>
    <g id="ytick_4">
     <g id="line2d_4">
      <g>
       <use style="stroke:#000000;stroke-width:0.8;" x="48.71" xlink:href="#m3cee24317f" y="149.369524"/>
      </g>
     </g>
     <g id="text_5">
      <!-- 0.75 -->
      <g transform="translate(24.308438 152.92968)scale(0.1 -0.1)">
       <defs>
        <path d="M 17.703125 0 
Q 18.09375 9 19.296875 16.5 
Q 20.5 24 22.640625 30.75 
Q 24.796875 37.5 28.140625 43.796875 
Q 31.5 50.09375 36.203125 56.703125 
L 4.40625 56.703125 
L 4.40625 63.796875 
L 45.5 63.796875 
L 45.5 58.703125 
Q 39.796875 51.5 36.25 44.890625 
Q 32.703125 38.296875 30.59375 31.4375 
Q 28.5 24.59375 27.546875 16.9375 
Q 26.59375 9.296875 26.203125 0 
z
" id="SourceSansPro-Regular-55"/>
       </defs>
       <use xlink:href="#SourceSansPro-Regular-48"/>
       <use x="49.699997" xlink:href="#SourceSansPro-Regular-46"/>
       <use x="74.599991" xlink:href="#SourceSansPro-Regular-55"/>
       <use x="124.299988" xlink:href="#SourceSansPro-Regular-53"/>
      </g>
     </g>
    </g>
    <g id="ytick_5">
     <g id="line2d_5">
      <g>
       <use style="stroke:#000000;stroke-width:0.8;" x="48.71" xlink:href="#m3cee24317f" y="119.245714"/>
      </g>
     </g>
     <g id="text_6">
      <!-- 1.00 -->
      <g transform="translate(24.308438 122.805871)scale(0.1 -0.1)">
       <defs>
        <path d="M 7.90625 0 
L 7.90625 6.796875 
L 22.5 6.796875 
L 22.5 53.796875 
L 10.90625 53.796875 
L 10.90625 59.09375 
Q 15.296875 59.90625 18.546875 61.046875 
Q 21.796875 62.203125 24.40625 63.796875 
L 30.703125 63.796875 
L 30.703125 6.796875 
L 43.90625 6.796875 
L 43.90625 0 
z
" id="SourceSansPro-Regular-49"/>
       </defs>
       <use xlink:href="#SourceSansPro-Regular-49"/>
       <use x="49.699997" xlink:href="#SourceSansPro-Regular-46"/>
       <use x="74.599991" xlink:href="#SourceSansPro-Regular-48"/>
       <use x="124.299988" xlink:href="#SourceSansPro-Regular-48"/>
      </g>
     </g>
    </g>
    <g id="ytick_6">
     <g id="line2d_6">
      <g>
       <use style="stroke:#000000;stroke-width:0.8;" x="48.71" xlink:href="#m3cee24317f" y="89.121905"/>
      </g>
     </g>
     <g id="text_7">
      <!-- 1.25 -->
      <g transform="translate(24.308438 92.682061)scale(0.1 -0.1)">
       <use xlink:href="#SourceSansPro-Regular-49"/>
       <use x="49.699997" xlink:href="#SourceSansPro-Regular-46"/>
       <use x="74.599991" xlink:href="#SourceSansPro-Regular-50"/>
       <use x="124.299988" xlink:href="#SourceSansPro-Regular-53"/>
      </g>
     </g>
    </g>
    <g id="ytick_7">
     <g id="line2d_7">
      <g>
       <use style="stroke:#000000;stroke-width:0.8;" x="48.71" xlink:href="#m3cee24317f" y="58.998095"/>
      </g>
     </g>
     <g id="text_8">
      <!-- 1.50 -->
      <g transform="translate(24.308438 62.558251)scale(0.1 -0.1)">
       <use xlink:href="#SourceSansPro-Regular-49"/>
       <use x="49.699997" xlink:href="#SourceSansPro-Regular-46"/>
       <use x="74.599991" xlink:href="#SourceSansPro-Regular-53"/>
       <use x="124.299988" xlink:href="#SourceSansPro-Regular-48"/>
      </g>
     </g>
    </g>
    <g id="ytick_8">
     <g id="line2d_8">
      <g>
       <use style="stroke:#000000;stroke-width:0.8;" x="48.71" xlink:href="#m3cee24317f" y="28.874286"/>
      </g>
     </g>
     <g id="text_9">
      <!-- 1.75 -->
      <g transform="translate(24.308438 32.434442)scale(0.1 -0.1)">
       <use xlink:href="#SourceSansPro-Regular-49"/>
       <use x="49.699997" xlink:href="#SourceSansPro-Regular-46"/>
       <use x="74.599991" xlink:href="#SourceSansPro-Regular-55"/>
       <use x="124.299988" xlink:href="#SourceSansPro-Regular-53"/>
      </g>
     </g>
    </g>
    <g id="text_10">
     <!-- intensity vs NOAH edited HSQC/CLIP-COSY -->
     <g transform="translate(18.217813 225.998906)rotate(-90)scale(0.1 -0.1)">
      <defs>
       <path d="M 8.203125 0 
L 8.203125 48.59375 
L 15 48.59375 
L 15.703125 41.59375 
L 16 41.59375 
Q 19.5 45.09375 23.34375 47.4375 
Q 27.203125 49.796875 32.296875 49.796875 
Q 40 49.796875 43.546875 45 
Q 47.09375 40.203125 47.09375 30.796875 
L 47.09375 0 
L 38.90625 0 
L 38.90625 29.703125 
Q 38.90625 36.59375 36.703125 39.640625 
Q 34.5 42.703125 29.703125 42.703125 
Q 25.90625 42.703125 23 40.796875 
Q 20.09375 38.90625 16.40625 35.203125 
L 16.40625 0 
z
" id="SourceSansPro-Regular-110"/>
       <path d="M 9 -20.90625 
Q 7.296875 -20.90625 5.890625 -20.65625 
Q 4.5 -20.40625 3.296875 -19.90625 
L 4.90625 -13.40625 
Q 5.703125 -13.59375 6.703125 -13.84375 
Q 7.703125 -14.09375 8.59375 -14.09375 
Q 12.796875 -14.09375 15.4375 -11.140625 
Q 18.09375 -8.203125 19.59375 -3.703125 
L 20.703125 -0.09375 
L 1.203125 48.59375 
L 9.703125 48.59375 
L 19.59375 21.703125 
Q 20.703125 18.5 21.953125 14.953125 
Q 23.203125 11.40625 24.296875 8 
L 24.703125 8 
Q 25.796875 11.296875 26.796875 14.890625 
Q 27.796875 18.5 28.796875 21.703125 
L 37.5 48.59375 
L 45.5 48.59375 
L 27.203125 -4 
Q 25.90625 -7.59375 24.296875 -10.6875 
Q 22.703125 -13.796875 20.5 -16.046875 
Q 18.296875 -18.296875 15.5 -19.59375 
Q 12.703125 -20.90625 9 -20.90625 
z
" id="SourceSansPro-Regular-121"/>
       <path d="M 18.703125 0 
L 1.203125 48.59375 
L 9.703125 48.59375 
L 18.90625 21 
Q 20 17.40625 21.140625 13.796875 
Q 22.296875 10.203125 23.40625 6.703125 
L 23.796875 6.703125 
Q 24.90625 10.203125 26 13.796875 
Q 27.09375 17.40625 28.203125 21 
L 37.40625 48.59375 
L 45.5 48.59375 
L 28.296875 0 
z
" id="SourceSansPro-Regular-118"/>
       <path d="M 9 0 
L 9 65.59375 
L 17.59375 65.59375 
L 41.296875 24.40625 
L 48.40625 10.796875 
L 48.796875 10.796875 
Q 48.5 15.796875 48.140625 21.140625 
Q 47.796875 26.5 47.796875 31.703125 
L 47.796875 65.59375 
L 55.703125 65.59375 
L 55.703125 0 
L 47.09375 0 
L 23.296875 41.296875 
L 16.203125 54.796875 
L 15.796875 54.796875 
Q 16.203125 49.796875 16.546875 44.640625 
Q 16.90625 39.5 16.90625 34.296875 
L 16.90625 0 
z
" id="SourceSansPro-Regular-78"/>
       <path d="M 20.296875 36.703125 
L 17.203125 26.703125 
L 36.90625 26.703125 
L 33.796875 36.703125 
Q 32 42.203125 30.390625 47.640625 
Q 28.796875 53.09375 27.203125 58.796875 
L 26.796875 58.796875 
Q 25.296875 53.09375 23.6875 47.640625 
Q 22.09375 42.203125 20.296875 36.703125 
z
M 0.296875 0 
L 22.5 65.59375 
L 31.90625 65.59375 
L 54.09375 0 
L 45.203125 0 
L 39 20 
L 15.09375 20 
L 8.796875 0 
z
" id="SourceSansPro-Regular-65"/>
      </defs>
      <use xlink:href="#SourceSansPro-Regular-105"/>
      <use x="24.599991" xlink:href="#SourceSansPro-Regular-110"/>
      <use x="79.299988" xlink:href="#SourceSansPro-Regular-116"/>
      <use x="113.099976" xlink:href="#SourceSansPro-Regular-101"/>
      <use x="162.699966" xlink:href="#SourceSansPro-Regular-110"/>
      <use x="217.399963" xlink:href="#SourceSansPro-Regular-115"/>
      <use x="259.299957" xlink:href="#SourceSansPro-Regular-105"/>
      <use x="283.899948" xlink:href="#SourceSansPro-Regular-116"/>
      <use x="317.699936" xlink:href="#SourceSansPro-Regular-121"/>
      <use x="364.399933" xlink:href="#SourceSansPro-Regular-32"/>
      <use x="384.399918" xlink:href="#SourceSansPro-Regular-118"/>
      <use x="431.099915" xlink:href="#SourceSansPro-Regular-115"/>
      <use x="472.999908" xlink:href="#SourceSansPro-Regular-32"/>
      <use x="492.999893" xlink:href="#SourceSansPro-Regular-78"/>
      <use x="557.69989" xlink:href="#SourceSansPro-Regular-79"/>
      <use x="624.099884" xlink:href="#SourceSansPro-Regular-65"/>
      <use x="678.499878" xlink:href="#SourceSansPro-Regular-72"/>
      <use x="743.699875" xlink:href="#SourceSansPro-Regular-32"/>
      <use x="763.69986" xlink:href="#SourceSansPro-Regular-101"/>
      <use x="813.29985" xlink:href="#SourceSansPro-Regular-100"/>
      <use x="868.799835" xlink:href="#SourceSansPro-Regular-105"/>
      <use x="893.399826" xlink:href="#SourceSansPro-Regular-116"/>
      <use x="927.199814" xlink:href="#SourceSansPro-Regular-101"/>
      <use x="976.799805" xlink:href="#SourceSansPro-Regular-100"/>
      <use x="1032.299789" xlink:href="#SourceSansPro-Regular-32"/>
      <use x="1052.299774" xlink:href="#SourceSansPro-Regular-72"/>
      <use x="1117.499771" xlink:href="#SourceSansPro-Regular-83"/>
      <use x="1170.899765" xlink:href="#SourceSansPro-Regular-81"/>
      <use x="1237.299759" xlink:href="#SourceSansPro-Regular-67"/>
      <use x="1294.39975" xlink:href="#SourceSansPro-Regular-47"/>
      <use x="1329.399734" xlink:href="#SourceSansPro-Regular-67"/>
      <use x="1386.499725" xlink:href="#SourceSansPro-Regular-76"/>
      <use x="1435.099716" xlink:href="#SourceSansPro-Regular-73"/>
      <use x="1461.399704" xlink:href="#SourceSansPro-Regular-80"/>
      <use x="1517.999695" xlink:href="#SourceSansPro-Regular-45"/>
      <use x="1549.099686" xlink:href="#SourceSansPro-Regular-67"/>
      <use x="1606.199677" xlink:href="#SourceSansPro-Regular-79"/>
      <use x="1672.59967" xlink:href="#SourceSansPro-Regular-83"/>
      <use x="1725.999664" xlink:href="#SourceSansPro-Regular-89"/>
     </g>
    </g>
   </g>
   <g id="line2d_9">
    <path clip-path="url(#p3627f6690a)" d="M 48.71 119.245714 
L 299.805 119.245714 
" style="fill:none;stroke:#808080;stroke-dasharray:1.85,0.8;stroke-dashoffset:0;stroke-width:0.5;"/>
   </g>
   <g id="patch_3">
    <path d="M 48.71 263.84 
L 48.71 10.8 
" style="fill:none;stroke:#000000;stroke-linecap:square;stroke-linejoin:miter;stroke-width:1.3;"/>
   </g>
   <g id="patch_4">
    <path d="M 299.805 263.84 
L 299.805 10.8 
" style="fill:none;stroke:#000000;stroke-linecap:square;stroke-linejoin:miter;stroke-width:1.3;"/>
   </g>
   <g id="patch_5">
    <path d="M 48.71 263.84 
L 299.805 263.84 
" style="fill:none;stroke:#000000;stroke-linecap:square;stroke-linejoin:miter;stroke-width:1.3;"/>
   </g>
   <g id="patch_6">
    <path d="M 48.71 10.8 
L 299.805 10.8 
" style="fill:none;stroke:#000000;stroke-linecap:square;stroke-linejoin:miter;stroke-width:1.3;"/>
   </g>
   <g id="PathCollection_5">
    <defs>
     <path d="M 0 2.5 
C 0.663008 2.5 1.29895 2.236584 1.767767 1.767767 
C 2.236584 1.29895 2.5 0.663008 2.5 -0 
C 2.5 -0.663008 2.236584 -1.29895 1.767767 -1.767767 
C 1.29895 -2.236584 0.663008 -2.5 0 -2.5 
C -0.663008 -2.5 -1.29895 -2.236584 -1.767767 -1.767767 
C -2.236584 -1.29895 -2.5 -0.663008 -2.5 0 
C -2.5 0.663008 -2.236584 1.29895 -1.767767 1.767767 
C -1.29895 2.236584 -0.663008 2.5 0 2.5 
z
" id="C0_0_7ed6da83e3"/>
    </defs>
    <g clip-path="url(#p3627f6690a)">
     <use style="fill:#4c72b0;" x="102.032591" xlink:href="#C0_0_7ed6da83e3" y="22.857966"/>
    </g>
    <g clip-path="url(#p3627f6690a)">
     <use style="fill:#4c72b0;" x="98.080709" xlink:href="#C0_0_7ed6da83e3" y="24.173605"/>
    </g>
    <g clip-path="url(#p3627f6690a)">
     <use style="fill:#4c72b0;" x="97.506658" xlink:href="#C0_0_7ed6da83e3" y="25.949783"/>
    </g>
    <g clip-path="url(#p3627f6690a)">
     <use style="fill:#4c72b0;" x="102.48179" xlink:href="#C0_0_7ed6da83e3" y="30.39712"/>
    </g>
    <g clip-path="url(#p3627f6690a)">
     <use style="fill:#4c72b0;" x="100.042538" xlink:href="#C0_0_7ed6da83e3" y="34.730847"/>
    </g>
   </g>
   <g id="PathCollection_6">
    <defs>
     <path d="M 0 2.5 
C 0.663008 2.5 1.29895 2.236584 1.767767 1.767767 
C 2.236584 1.29895 2.5 0.663008 2.5 -0 
C 2.5 -0.663008 2.236584 -1.29895 1.767767 -1.767767 
C 1.29895 -2.236584 0.663008 -2.5 0 -2.5 
C -0.663008 -2.5 -1.29895 -2.236584 -1.767767 -1.767767 
C -2.236584 -1.29895 -2.5 -0.663008 -2.5 0 
C -2.5 0.663008 -2.236584 1.29895 -1.767767 1.767767 
C -1.29895 2.236584 -0.663008 2.5 0 2.5 
z
" id="C1_0_ec9c886b3a"/>
    </defs>
    <g clip-path="url(#p3627f6690a)">
     <use style="fill:#dd8452;" x="143.928598" xlink:href="#C1_0_ec9c886b3a" y="79.636557"/>
    </g>
    <g clip-path="url(#p3627f6690a)">
     <use style="fill:#dd8452;" x="148.87509" xlink:href="#C1_0_ec9c886b3a" y="69.581305"/>
    </g>
    <g clip-path="url(#p3627f6690a)">
     <use style="fill:#dd8452;" x="145.616593" xlink:href="#C1_0_ec9c886b3a" y="84.008959"/>
    </g>
    <g clip-path="url(#p3627f6690a)">
     <use style="fill:#dd8452;" x="150.663919" xlink:href="#C1_0_ec9c886b3a" y="89.683271"/>
    </g>
    <g clip-path="url(#p3627f6690a)">
     <use style="fill:#dd8452;" x="147.173417" xlink:href="#C1_0_ec9c886b3a" y="91.910681"/>
    </g>
    <g clip-path="url(#p3627f6690a)">
     <use style="fill:#dd8452;" x="147.072555" xlink:href="#C1_0_ec9c886b3a" y="84.987884"/>
    </g>
    <g clip-path="url(#p3627f6690a)">
     <use style="fill:#dd8452;" x="143.521479" xlink:href="#C1_0_ec9c886b3a" y="39.141871"/>
    </g>
    <g clip-path="url(#p3627f6690a)">
     <use style="fill:#dd8452;" x="150.745475" xlink:href="#C1_0_ec9c886b3a" y="90.727718"/>
    </g>
    <g clip-path="url(#p3627f6690a)">
     <use style="fill:#dd8452;" x="149.338731" xlink:href="#C1_0_ec9c886b3a" y="81.640355"/>
    </g>
    <g clip-path="url(#p3627f6690a)">
     <use style="fill:#dd8452;" x="151.435163" xlink:href="#C1_0_ec9c886b3a" y="94.169498"/>
    </g>
    <g clip-path="url(#p3627f6690a)">
     <use style="fill:#dd8452;" x="153.085273" xlink:href="#C1_0_ec9c886b3a" y="85.912776"/>
    </g>
    <g clip-path="url(#p3627f6690a)">
     <use style="fill:#dd8452;" x="149.864752" xlink:href="#C1_0_ec9c886b3a" y="55.424383"/>
    </g>
    <g clip-path="url(#p3627f6690a)">
     <use style="fill:#dd8452;" x="151.472861" xlink:href="#C1_0_ec9c886b3a" y="81.660239"/>
    </g>
    <g clip-path="url(#p3627f6690a)">
     <use style="fill:#dd8452;" x="145.460154" xlink:href="#C1_0_ec9c886b3a" y="65.829766"/>
    </g>
   </g>
   <g id="PathCollection_7">
    <defs>
     <path d="M 0 2.5 
C 0.663008 2.5 1.29895 2.236584 1.767767 1.767767 
C 2.236584 1.29895 2.5 0.663008 2.5 -0 
C 2.5 -0.663008 2.236584 -1.29895 1.767767 -1.767767 
C 1.29895 -2.236584 0.663008 -2.5 0 -2.5 
C -0.663008 -2.5 -1.29895 -2.236584 -1.767767 -1.767767 
C -2.236584 -1.29895 -2.5 -0.663008 -2.5 0 
C -2.5 0.663008 -2.236584 1.29895 -1.767767 1.767767 
C -1.29895 2.236584 -0.663008 2.5 0 2.5 
z
" id="C2_0_0d9f84b857"/>
    </defs>
    <g clip-path="url(#p3627f6690a)">
     <use style="fill:#55a868;" x="203.552699" xlink:href="#C2_0_0d9f84b857" y="87.987975"/>
    </g>
    <g clip-path="url(#p3627f6690a)">
     <use style="fill:#55a868;" x="199.168358" xlink:href="#C2_0_0d9f84b857" y="93.315214"/>
    </g>
   </g>
   <g id="PathCollection_8">
    <defs>
     <path d="M 0 2.5 
C 0.663008 2.5 1.29895 2.236584 1.767767 1.767767 
C 2.236584 1.29895 2.5 0.663008 2.5 -0 
C 2.5 -0.663008 2.236584 -1.29895 1.767767 -1.767767 
C 1.29895 -2.236584 0.663008 -2.5 0 -2.5 
C -0.663008 -2.5 -1.29895 -2.236584 -1.767767 -1.767767 
C -2.236584 -1.29895 -2.5 -0.663008 -2.5 0 
C -2.5 0.663008 -2.236584 1.29895 -1.767767 1.767767 
C -1.29895 2.236584 -0.663008 2.5 0 2.5 
z
" id="C3_0_2ab5ba6e51"/>
    </defs>
    <g clip-path="url(#p3627f6690a)">
     <use style="fill:#c44e52;" x="248.966841" xlink:href="#C3_0_2ab5ba6e51" y="232.093559"/>
    </g>
    <g clip-path="url(#p3627f6690a)">
     <use style="fill:#c44e52;" x="249.734633" xlink:href="#C3_0_2ab5ba6e51" y="223.353966"/>
    </g>
    <g clip-path="url(#p3627f6690a)">
     <use style="fill:#c44e52;" x="252.511887" xlink:href="#C3_0_2ab5ba6e51" y="228.864769"/>
    </g>
    <g clip-path="url(#p3627f6690a)">
     <use style="fill:#c44e52;" x="244.165602" xlink:href="#C3_0_2ab5ba6e51" y="225.100789"/>
    </g>
    <g clip-path="url(#p3627f6690a)">
     <use style="fill:#c44e52;" x="243.740326" xlink:href="#C3_0_2ab5ba6e51" y="223.754127"/>
    </g>
    <g clip-path="url(#p3627f6690a)">
     <use style="fill:#c44e52;" x="249.724477" xlink:href="#C3_0_2ab5ba6e51" y="226.647642"/>
    </g>
    <g clip-path="url(#p3627f6690a)">
     <use style="fill:#c44e52;" x="249.823237" xlink:href="#C3_0_2ab5ba6e51" y="218.428072"/>
    </g>
    <g clip-path="url(#p3627f6690a)">
     <use style="fill:#c44e52;" x="251.664617" xlink:href="#C3_0_2ab5ba6e51" y="220.657649"/>
    </g>
    <g clip-path="url(#p3627f6690a)">
     <use style="fill:#c44e52;" x="254.24758" xlink:href="#C3_0_2ab5ba6e51" y="212.473377"/>
    </g>
    <g clip-path="url(#p3627f6690a)">
     <use style="fill:#c44e52;" x="251.696183" xlink:href="#C3_0_2ab5ba6e51" y="218.069131"/>
    </g>
    <g clip-path="url(#p3627f6690a)">
     <use style="fill:#c44e52;" x="244.363453" xlink:href="#C3_0_2ab5ba6e51" y="205.88212"/>
    </g>
    <g clip-path="url(#p3627f6690a)">
     <use style="fill:#c44e52;" x="253.986608" xlink:href="#C3_0_2ab5ba6e51" y="212.413303"/>
    </g>
    <g clip-path="url(#p3627f6690a)">
     <use style="fill:#c44e52;" x="247.487046" xlink:href="#C3_0_2ab5ba6e51" y="222.901572"/>
    </g>
    <g clip-path="url(#p3627f6690a)">
     <use style="fill:#c44e52;" x="245.143634" xlink:href="#C3_0_2ab5ba6e51" y="202.310152"/>
    </g>
    <g clip-path="url(#p3627f6690a)">
     <use style="fill:#c44e52;" x="255.539301" xlink:href="#C3_0_2ab5ba6e51" y="214.006322"/>
    </g>
    <g clip-path="url(#p3627f6690a)">
     <use style="fill:#c44e52;" x="250.519476" xlink:href="#C3_0_2ab5ba6e51" y="209.822517"/>
    </g>
    <g clip-path="url(#p3627f6690a)">
     <use style="fill:#c44e52;" x="248.839075" xlink:href="#C3_0_2ab5ba6e51" y="210.55674"/>
    </g>
    <g clip-path="url(#p3627f6690a)">
     <use style="fill:#c44e52;" x="246.263259" xlink:href="#C3_0_2ab5ba6e51" y="209.324383"/>
    </g>
    <g clip-path="url(#p3627f6690a)">
     <use style="fill:#c44e52;" x="245.844545" xlink:href="#C3_0_2ab5ba6e51" y="202.959306"/>
    </g>
    <g clip-path="url(#p3627f6690a)">
     <use style="fill:#c44e52;" x="251.276668" xlink:href="#C3_0_2ab5ba6e51" y="204.064207"/>
    </g>
    <g clip-path="url(#p3627f6690a)">
     <use style="fill:#c44e52;" x="253.927307" xlink:href="#C3_0_2ab5ba6e51" y="212.458105"/>
    </g>
    <g clip-path="url(#p3627f6690a)">
     <use style="fill:#c44e52;" x="253.819978" xlink:href="#C3_0_2ab5ba6e51" y="217.550286"/>
    </g>
    <g clip-path="url(#p3627f6690a)">
     <use style="fill:#c44e52;" x="247.356955" xlink:href="#C3_0_2ab5ba6e51" y="211.32357"/>
    </g>
    <g clip-path="url(#p3627f6690a)">
     <use style="fill:#c44e52;" x="250.998587" xlink:href="#C3_0_2ab5ba6e51" y="228.855893"/>
    </g>
    <g clip-path="url(#p3627f6690a)">
     <use style="fill:#c44e52;" x="244.951694" xlink:href="#C3_0_2ab5ba6e51" y="227.741915"/>
    </g>
    <g clip-path="url(#p3627f6690a)">
     <use style="fill:#c44e52;" x="246.811816" xlink:href="#C3_0_2ab5ba6e51" y="218.800142"/>
    </g>
    <g clip-path="url(#p3627f6690a)">
     <use style="fill:#c44e52;" x="244.497074" xlink:href="#C3_0_2ab5ba6e51" y="210.819625"/>
    </g>
    <g clip-path="url(#p3627f6690a)">
     <use style="fill:#c44e52;" x="246.262122" xlink:href="#C3_0_2ab5ba6e51" y="209.499611"/>
    </g>
    <g clip-path="url(#p3627f6690a)">
     <use style="fill:#c44e52;" x="254.70971" xlink:href="#C3_0_2ab5ba6e51" y="215.524838"/>
    </g>
    <g clip-path="url(#p3627f6690a)">
     <use style="fill:#c44e52;" x="247.551307" xlink:href="#C3_0_2ab5ba6e51" y="203.35857"/>
    </g>
    <g clip-path="url(#p3627f6690a)">
     <use style="fill:#c44e52;" x="247.534587" xlink:href="#C3_0_2ab5ba6e51" y="192.99058"/>
    </g>
    <g clip-path="url(#p3627f6690a)">
     <use style="fill:#c44e52;" x="253.790985" xlink:href="#C3_0_2ab5ba6e51" y="202.384597"/>
    </g>
    <g clip-path="url(#p3627f6690a)">
     <use style="fill:#c44e52;" x="251.223066" xlink:href="#C3_0_2ab5ba6e51" y="202.514554"/>
    </g>
    <g clip-path="url(#p3627f6690a)">
     <use style="fill:#c44e52;" x="252.685553" xlink:href="#C3_0_2ab5ba6e51" y="197.751892"/>
    </g>
    <g clip-path="url(#p3627f6690a)">
     <use style="fill:#c44e52;" x="254.275578" xlink:href="#C3_0_2ab5ba6e51" y="199.521947"/>
    </g>
    <g clip-path="url(#p3627f6690a)">
     <use style="fill:#c44e52;" x="254.21874" xlink:href="#C3_0_2ab5ba6e51" y="204.691815"/>
    </g>
    <g clip-path="url(#p3627f6690a)">
     <use style="fill:#c44e52;" x="252.343044" xlink:href="#C3_0_2ab5ba6e51" y="210.606862"/>
    </g>
    <g clip-path="url(#p3627f6690a)">
     <use style="fill:#c44e52;" x="245.292602" xlink:href="#C3_0_2ab5ba6e51" y="233.620072"/>
    </g>
    <g clip-path="url(#p3627f6690a)">
     <use style="fill:#c44e52;" x="249.36433" xlink:href="#C3_0_2ab5ba6e51" y="224.041382"/>
    </g>
    <g clip-path="url(#p3627f6690a)">
     <use style="fill:#c44e52;" x="253.015283" xlink:href="#C3_0_2ab5ba6e51" y="228.856376"/>
    </g>
    <g clip-path="url(#p3627f6690a)">
     <use style="fill:#c44e52;" x="253.412165" xlink:href="#C3_0_2ab5ba6e51" y="227.19674"/>
    </g>
    <g clip-path="url(#p3627f6690a)">
     <use style="fill:#c44e52;" x="244.36231" xlink:href="#C3_0_2ab5ba6e51" y="220.951273"/>
    </g>
    <g clip-path="url(#p3627f6690a)">
     <use style="fill:#c44e52;" x="247.960523" xlink:href="#C3_0_2ab5ba6e51" y="218.72102"/>
    </g>
    <g clip-path="url(#p3627f6690a)">
     <use style="fill:#c44e52;" x="245.807237" xlink:href="#C3_0_2ab5ba6e51" y="211.826468"/>
    </g>
    <g clip-path="url(#p3627f6690a)">
     <use style="fill:#c44e52;" x="247.677926" xlink:href="#C3_0_2ab5ba6e51" y="222.894479"/>
    </g>
    <g clip-path="url(#p3627f6690a)">
     <use style="fill:#c44e52;" x="251.022584" xlink:href="#C3_0_2ab5ba6e51" y="169.98128"/>
    </g>
    <g clip-path="url(#p3627f6690a)">
     <use style="fill:#c44e52;" x="254.137528" xlink:href="#C3_0_2ab5ba6e51" y="201.423106"/>
    </g>
    <g clip-path="url(#p3627f6690a)">
     <use style="fill:#c44e52;" x="251.023557" xlink:href="#C3_0_2ab5ba6e51" y="208.325323"/>
    </g>
    <g clip-path="url(#p3627f6690a)">
     <use style="fill:#c44e52;" x="249.121858" xlink:href="#C3_0_2ab5ba6e51" y="215.292686"/>
    </g>
    <g clip-path="url(#p3627f6690a)">
     <use style="fill:#c44e52;" x="245.745862" xlink:href="#C3_0_2ab5ba6e51" y="217.720029"/>
    </g>
    <g clip-path="url(#p3627f6690a)">
     <use style="fill:#c44e52;" x="247.33559" xlink:href="#C3_0_2ab5ba6e51" y="197.276012"/>
    </g>
    <g clip-path="url(#p3627f6690a)">
     <use style="fill:#c44e52;" x="252.863496" xlink:href="#C3_0_2ab5ba6e51" y="227.418103"/>
    </g>
   </g>
   <g id="text_11">
    <!-- (1.76) -->
    <g style="fill:#4c72b0;" transform="translate(87.198531 258.7792)scale(0.1 -0.1)">
     <defs>
      <path d="M 21.40625 -17.59375 
Q 15.203125 -7.59375 11.703125 3.5 
Q 8.203125 14.59375 8.203125 27.796875 
Q 8.203125 41 11.703125 52.046875 
Q 15.203125 63.09375 21.40625 73.203125 
L 26.5 70.796875 
Q 20.703125 61.203125 17.84375 50.25 
Q 15 39.296875 15 27.796875 
Q 15 16.296875 17.84375 5.34375 
Q 20.703125 -5.59375 26.5 -15.203125 
z
" id="SourceSansPro-Regular-40"/>
      <path d="M 26.796875 -1.203125 
Q 22.09375 -1.203125 18.09375 0.6875 
Q 14.09375 2.59375 11.140625 6.4375 
Q 8.203125 10.296875 6.5 16.046875 
Q 4.796875 21.796875 4.796875 29.5 
Q 4.796875 39.09375 6.796875 45.84375 
Q 8.796875 52.59375 12.1875 56.84375 
Q 15.59375 61.09375 19.9375 63.046875 
Q 24.296875 65 29.09375 65 
Q 34.296875 65 38.046875 63.046875 
Q 41.796875 61.09375 44.5 58.203125 
L 39.90625 53.09375 
Q 37.90625 55.40625 35.15625 56.75 
Q 32.40625 58.09375 29.40625 58.09375 
Q 26.09375 58.09375 23.09375 56.6875 
Q 20.09375 55.296875 17.796875 52.09375 
Q 15.5 48.90625 14.09375 43.75 
Q 12.703125 38.59375 12.59375 31 
Q 15.59375 34.703125 19.59375 36.84375 
Q 23.59375 39 27.5 39 
Q 35.796875 39 40.75 34.09375 
Q 45.703125 29.203125 45.703125 19.296875 
Q 45.703125 14.703125 44.203125 10.953125 
Q 42.703125 7.203125 40.09375 4.5 
Q 37.5 1.796875 34.09375 0.296875 
Q 30.703125 -1.203125 26.796875 -1.203125 
z
M 26.796875 5.296875 
Q 29.203125 5.296875 31.203125 6.296875 
Q 33.203125 7.296875 34.703125 9.140625 
Q 36.203125 11 37.046875 13.546875 
Q 37.90625 16.09375 37.90625 19.296875 
Q 37.90625 25.59375 35 29.1875 
Q 32.09375 32.796875 26.09375 32.796875 
Q 23 32.796875 19.390625 30.84375 
Q 15.796875 28.90625 12.796875 24.40625 
Q 13.59375 15 17.140625 10.140625 
Q 20.703125 5.296875 26.796875 5.296875 
z
" id="SourceSansPro-Regular-54"/>
      <path d="M 8.90625 -17.59375 
L 3.796875 -15.203125 
Q 9.59375 -5.59375 12.4375 5.34375 
Q 15.296875 16.296875 15.296875 27.796875 
Q 15.296875 39.296875 12.4375 50.25 
Q 9.59375 61.203125 3.796875 70.796875 
L 8.90625 73.203125 
Q 15.09375 63.09375 18.59375 52.046875 
Q 22.09375 41 22.09375 27.796875 
Q 22.09375 14.59375 18.59375 3.5 
Q 15.09375 -7.59375 8.90625 -17.59375 
z
" id="SourceSansPro-Regular-41"/>
     </defs>
     <use xlink:href="#SourceSansPro-Regular-40"/>
     <use x="30.299988" xlink:href="#SourceSansPro-Regular-49"/>
     <use x="79.999985" xlink:href="#SourceSansPro-Regular-46"/>
     <use x="104.899979" xlink:href="#SourceSansPro-Regular-55"/>
     <use x="154.599976" xlink:href="#SourceSansPro-Regular-54"/>
     <use x="204.299973" xlink:href="#SourceSansPro-Regular-41"/>
    </g>
   </g>
   <g id="text_12">
    <!-- (1.34) -->
    <g style="fill:#dd8452;" transform="translate(137.417531 258.7792)scale(0.1 -0.1)">
     <defs>
      <path d="M 23.59375 -1.203125 
Q 19.796875 -1.203125 16.640625 -0.453125 
Q 13.5 0.296875 10.890625 1.546875 
Q 8.296875 2.796875 6.25 4.390625 
Q 4.203125 6 2.59375 7.796875 
L 6.796875 13.203125 
Q 9.703125 10.203125 13.546875 7.890625 
Q 17.40625 5.59375 23.09375 5.59375 
Q 28.90625 5.59375 32.59375 8.75 
Q 36.296875 11.90625 36.296875 17.296875 
Q 36.296875 20.09375 35.25 22.4375 
Q 34.203125 24.796875 31.796875 26.5 
Q 29.40625 28.203125 25.5 29.09375 
Q 21.59375 30 15.90625 30 
L 15.90625 36.296875 
Q 21 36.296875 24.453125 37.1875 
Q 27.90625 38.09375 30.046875 39.6875 
Q 32.203125 41.296875 33.09375 43.5 
Q 34 45.703125 34 48.203125 
Q 34 52.90625 31.046875 55.59375 
Q 28.09375 58.296875 23 58.296875 
Q 19 58.296875 15.640625 56.5 
Q 12.296875 54.703125 9.40625 51.796875 
L 5 57 
Q 8.703125 60.5 13.140625 62.75 
Q 17.59375 65 23.296875 65 
Q 27.5 65 31 63.890625 
Q 34.5 62.796875 37.046875 60.75 
Q 39.59375 58.703125 41 55.703125 
Q 42.40625 52.703125 42.40625 48.796875 
Q 42.40625 43 39.203125 39.296875 
Q 36 35.59375 30.796875 33.59375 
L 30.796875 33.203125 
Q 33.703125 32.5 36.203125 31.140625 
Q 38.703125 29.796875 40.59375 27.75 
Q 42.5 25.703125 43.546875 23 
Q 44.59375 20.296875 44.59375 17 
Q 44.59375 12.796875 42.9375 9.390625 
Q 41.296875 6 38.4375 3.640625 
Q 35.59375 1.296875 31.796875 0.046875 
Q 28 -1.203125 23.59375 -1.203125 
z
" id="SourceSansPro-Regular-51"/>
      <path d="M 30.40625 0 
L 30.40625 17.59375 
L 1.703125 17.59375 
L 1.703125 23 
L 29 63.796875 
L 38.203125 63.796875 
L 38.203125 24.203125 
L 46.90625 24.203125 
L 46.90625 17.59375 
L 38.203125 17.59375 
L 38.203125 0 
z
M 10.40625 24.203125 
L 30.40625 24.203125 
L 30.40625 42.703125 
Q 30.40625 45.296875 30.546875 48.84375 
Q 30.703125 52.40625 30.90625 55 
L 30.5 55 
Q 29.296875 52.703125 28 50.5 
Q 26.703125 48.296875 25.296875 46 
z
" id="SourceSansPro-Regular-52"/>
     </defs>
     <use xlink:href="#SourceSansPro-Regular-40"/>
     <use x="30.299988" xlink:href="#SourceSansPro-Regular-49"/>
     <use x="79.999985" xlink:href="#SourceSansPro-Regular-46"/>
     <use x="104.899979" xlink:href="#SourceSansPro-Regular-51"/>
     <use x="154.599976" xlink:href="#SourceSansPro-Regular-52"/>
     <use x="204.299973" xlink:href="#SourceSansPro-Regular-41"/>
    </g>
   </g>
   <g id="text_13">
    <!-- (1.24) -->
    <g style="fill:#55a868;" transform="translate(187.636531 258.7792)scale(0.1 -0.1)">
     <use xlink:href="#SourceSansPro-Regular-40"/>
     <use x="30.299988" xlink:href="#SourceSansPro-Regular-49"/>
     <use x="79.999985" xlink:href="#SourceSansPro-Regular-46"/>
     <use x="104.899979" xlink:href="#SourceSansPro-Regular-50"/>
     <use x="154.599976" xlink:href="#SourceSansPro-Regular-52"/>
     <use x="204.299973" xlink:href="#SourceSansPro-Regular-41"/>
    </g>
   </g>
   <g id="text_14">
    <!-- (0.22) -->
    <g style="fill:#c44e52;" transform="translate(237.855531 258.7792)scale(0.1 -0.1)">
     <use xlink:href="#SourceSansPro-Regular-40"/>
     <use x="30.299988" xlink:href="#SourceSansPro-Regular-48"/>
     <use x="79.999985" xlink:href="#SourceSansPro-Regular-46"/>
     <use x="104.899979" xlink:href="#SourceSansPro-Regular-50"/>
     <use x="154.599976" xlink:href="#SourceSansPro-Regular-50"/>
     <use x="204.299973" xlink:href="#SourceSansPro-Regular-41"/>
    </g>
   </g>
   <g id="text_15">
    <!-- (a) -->
    <g transform="translate(53.7319 27.5408)scale(0.16 -0.16)">
     <defs>
      <path d="M 20.40625 -17.90625 
Q 14.09375 -7.59375 10.640625 3.5 
Q 7.203125 14.59375 7.203125 27.796875 
Q 7.203125 41 10.640625 52.09375 
Q 14.09375 63.203125 20.40625 73.5 
L 29.59375 69.703125 
Q 24.09375 59.90625 21.59375 49.203125 
Q 19.09375 38.5 19.09375 27.796875 
Q 19.09375 17.09375 21.59375 6.390625 
Q 24.09375 -4.296875 29.59375 -14.09375 
z
" id="SourceSansPro-Bold-40"/>
      <path d="M 19 -1.203125 
Q 15.59375 -1.203125 12.84375 -0.046875 
Q 10.09375 1.09375 8.1875 3.140625 
Q 6.296875 5.203125 5.25 7.890625 
Q 4.203125 10.59375 4.203125 13.796875 
Q 4.203125 21.59375 10.796875 26 
Q 17.40625 30.40625 32.09375 31.90625 
Q 31.90625 35.203125 30.15625 37.140625 
Q 28.40625 39.09375 24.296875 39.09375 
Q 21.09375 39.09375 17.9375 37.890625 
Q 14.796875 36.703125 11.203125 34.59375 
L 5.90625 44.296875 
Q 10.703125 47.203125 15.953125 49 
Q 21.203125 50.796875 27.09375 50.796875 
Q 36.703125 50.796875 41.75 45.34375 
Q 46.796875 39.90625 46.796875 28.40625 
L 46.796875 0 
L 34.796875 0 
L 33.796875 5.09375 
L 33.40625 5.09375 
Q 30.203125 2.296875 26.703125 0.546875 
Q 23.203125 -1.203125 19 -1.203125 
z
M 24 10.203125 
Q 26.5 10.203125 28.296875 11.296875 
Q 30.09375 12.40625 32.09375 14.40625 
L 32.09375 23.09375 
Q 24.296875 22 21.296875 19.890625 
Q 18.296875 17.796875 18.296875 14.90625 
Q 18.296875 12.5 19.84375 11.34375 
Q 21.40625 10.203125 24 10.203125 
z
" id="SourceSansPro-Bold-97"/>
      <path d="M 14 -17.90625 
L 4.796875 -14.09375 
Q 10.40625 -4.296875 12.90625 6.390625 
Q 15.40625 17.09375 15.40625 27.796875 
Q 15.40625 38.5 12.90625 49.203125 
Q 10.40625 59.90625 4.796875 69.703125 
L 14 73.5 
Q 20.296875 63.203125 23.75 52.09375 
Q 27.203125 41 27.203125 27.796875 
Q 27.203125 14.59375 23.75 3.5 
Q 20.296875 -7.59375 14 -17.90625 
z
" id="SourceSansPro-Bold-41"/>
     </defs>
     <use xlink:href="#SourceSansPro-Bold-40"/>
     <use x="34.399994" xlink:href="#SourceSansPro-Bold-97"/>
     <use x="87.099991" xlink:href="#SourceSansPro-Bold-41"/>
    </g>
   </g>
   <g id="legend_1">
    <g id="patch_7">
     <path d="M 217.505 75.48125 
L 292.805 75.48125 
Q 294.805 75.48125 294.805 73.48125 
L 294.805 17.8 
Q 294.805 15.8 292.805 15.8 
L 217.505 15.8 
Q 215.505 15.8 215.505 17.8 
L 215.505 73.48125 
Q 215.505 75.48125 217.505 75.48125 
z
" style="fill:#ffffff;opacity:0.8;stroke:#cccccc;stroke-linejoin:miter;"/>
    </g>
    <g id="PathCollection_9">
     <path d="M 229.505 26.795313 
C 230.168008 26.795313 230.80395 26.531897 231.272767 26.063079 
C 231.741584 25.594262 232.005 24.95832 232.005 24.295313 
C 232.005 23.632305 231.741584 22.996363 231.272767 22.527546 
C 230.80395 22.058728 230.168008 21.795313 229.505 21.795313 
C 228.841992 21.795313 228.20605 22.058728 227.737233 22.527546 
C 227.268416 22.996363 227.005 23.632305 227.005 24.295313 
C 227.005 24.95832 227.268416 25.594262 227.737233 26.063079 
C 228.20605 26.531897 228.841992 26.795313 229.505 26.795313 
z
" style="fill:#4c72b0;"/>
    </g>
    <g id="text_16">
     <!-- HSQC CH -->
     <g transform="translate(247.505 26.920313)scale(0.1 -0.1)">
      <use xlink:href="#SourceSansPro-Regular-72"/>
      <use x="65.199997" xlink:href="#SourceSansPro-Regular-83"/>
      <use x="118.599991" xlink:href="#SourceSansPro-Regular-81"/>
      <use x="184.999985" xlink:href="#SourceSansPro-Regular-67"/>
      <use x="242.099976" xlink:href="#SourceSansPro-Regular-32"/>
      <use x="262.09996" xlink:href="#SourceSansPro-Regular-67"/>
      <use x="319.199951" xlink:href="#SourceSansPro-Regular-72"/>
     </g>
    </g>
    <g id="PathCollection_10">
     <path d="M 229.505 40.965625 
C 230.168008 40.965625 230.80395 40.702209 231.272767 40.233392 
C 231.741584 39.764575 232.005 39.128633 232.005 38.465625 
C 232.005 37.802617 231.741584 37.166675 231.272767 36.697858 
C 230.80395 36.229041 230.168008 35.965625 229.505 35.965625 
C 228.841992 35.965625 228.20605 36.229041 227.737233 36.697858 
C 227.268416 37.166675 227.005 37.802617 227.005 38.465625 
C 227.005 39.128633 227.268416 39.764575 227.737233 40.233392 
C 228.20605 40.702209 228.841992 40.965625 229.505 40.965625 
z
" style="fill:#dd8452;"/>
    </g>
    <g id="text_17">
     <!-- HSQC CH$_2$ -->
     <g transform="translate(247.505 41.090625)scale(0.1 -0.1)">
      <defs>
       <path d="M 19.1875 8.296875 
L 53.609375 8.296875 
L 53.609375 0 
L 7.328125 0 
L 7.328125 8.296875 
Q 12.9375 14.109375 22.625 23.890625 
Q 32.328125 33.6875 34.8125 36.53125 
Q 39.546875 41.84375 41.421875 45.53125 
Q 43.3125 49.21875 43.3125 52.78125 
Q 43.3125 58.59375 39.234375 62.25 
Q 35.15625 65.921875 28.609375 65.921875 
Q 23.96875 65.921875 18.8125 64.3125 
Q 13.671875 62.703125 7.8125 59.421875 
L 7.8125 69.390625 
Q 13.765625 71.78125 18.9375 73 
Q 24.125 74.21875 28.421875 74.21875 
Q 39.75 74.21875 46.484375 68.546875 
Q 53.21875 62.890625 53.21875 53.421875 
Q 53.21875 48.921875 51.53125 44.890625 
Q 49.859375 40.875 45.40625 35.40625 
Q 44.1875 33.984375 37.640625 27.21875 
Q 31.109375 20.453125 19.1875 8.296875 
z
" id="DejaVuSans-50"/>
      </defs>
      <use transform="translate(0 0.203125)" xlink:href="#SourceSansPro-Regular-72"/>
      <use transform="translate(65.199997 0.203125)" xlink:href="#SourceSansPro-Regular-83"/>
      <use transform="translate(118.599991 0.203125)" xlink:href="#SourceSansPro-Regular-81"/>
      <use transform="translate(184.999985 0.203125)" xlink:href="#SourceSansPro-Regular-67"/>
      <use transform="translate(242.099976 0.203125)" xlink:href="#SourceSansPro-Regular-32"/>
      <use transform="translate(262.09996 0.203125)" xlink:href="#SourceSansPro-Regular-67"/>
      <use transform="translate(319.199951 0.203125)" xlink:href="#SourceSansPro-Regular-72"/>
      <use transform="translate(385.356979 -16.203125)scale(0.7)" xlink:href="#DejaVuSans-50"/>
     </g>
    </g>
    <g id="PathCollection_11">
     <path d="M 229.505 55.135938 
C 230.168008 55.135938 230.80395 54.872522 231.272767 54.403704 
C 231.741584 53.934887 232.005 53.298945 232.005 52.635938 
C 232.005 51.97293 231.741584 51.336988 231.272767 50.868171 
C 230.80395 50.399353 230.168008 50.135938 229.505 50.135938 
C 228.841992 50.135938 228.20605 50.399353 227.737233 50.868171 
C 227.268416 51.336988 227.005 51.97293 227.005 52.635938 
C 227.005 53.298945 227.268416 53.934887 227.737233 54.403704 
C 228.20605 54.872522 228.841992 55.135938 229.505 55.135938 
z
" style="fill:#55a868;"/>
    </g>
    <g id="text_18">
     <!-- HSQC CH$_3$ -->
     <g transform="translate(247.505 55.260938)scale(0.1 -0.1)">
      <defs>
       <path d="M 40.578125 39.3125 
Q 47.65625 37.796875 51.625 33 
Q 55.609375 28.21875 55.609375 21.1875 
Q 55.609375 10.40625 48.1875 4.484375 
Q 40.765625 -1.421875 27.09375 -1.421875 
Q 22.515625 -1.421875 17.65625 -0.515625 
Q 12.796875 0.390625 7.625 2.203125 
L 7.625 11.71875 
Q 11.71875 9.328125 16.59375 8.109375 
Q 21.484375 6.890625 26.8125 6.890625 
Q 36.078125 6.890625 40.9375 10.546875 
Q 45.796875 14.203125 45.796875 21.1875 
Q 45.796875 27.640625 41.28125 31.265625 
Q 36.765625 34.90625 28.71875 34.90625 
L 20.21875 34.90625 
L 20.21875 43.015625 
L 29.109375 43.015625 
Q 36.375 43.015625 40.234375 45.921875 
Q 44.09375 48.828125 44.09375 54.296875 
Q 44.09375 59.90625 40.109375 62.90625 
Q 36.140625 65.921875 28.71875 65.921875 
Q 24.65625 65.921875 20.015625 65.03125 
Q 15.375 64.15625 9.8125 62.3125 
L 9.8125 71.09375 
Q 15.4375 72.65625 20.34375 73.4375 
Q 25.25 74.21875 29.59375 74.21875 
Q 40.828125 74.21875 47.359375 69.109375 
Q 53.90625 64.015625 53.90625 55.328125 
Q 53.90625 49.265625 50.4375 45.09375 
Q 46.96875 40.921875 40.578125 39.3125 
z
" id="DejaVuSans-51"/>
      </defs>
      <use transform="translate(0 0.203125)" xlink:href="#SourceSansPro-Regular-72"/>
      <use transform="translate(65.199997 0.203125)" xlink:href="#SourceSansPro-Regular-83"/>
      <use transform="translate(118.599991 0.203125)" xlink:href="#SourceSansPro-Regular-81"/>
      <use transform="translate(184.999985 0.203125)" xlink:href="#SourceSansPro-Regular-67"/>
      <use transform="translate(242.099976 0.203125)" xlink:href="#SourceSansPro-Regular-32"/>
      <use transform="translate(262.09996 0.203125)" xlink:href="#SourceSansPro-Regular-67"/>
      <use transform="translate(319.199951 0.203125)" xlink:href="#SourceSansPro-Regular-72"/>
      <use transform="translate(385.356979 -16.203125)scale(0.7)" xlink:href="#DejaVuSans-51"/>
     </g>
    </g>
    <g id="PathCollection_12">
     <path d="M 229.505 69.30625 
C 230.168008 69.30625 230.80395 69.042834 231.272767 68.574017 
C 231.741584 68.1052 232.005 67.469258 232.005 66.80625 
C 232.005 66.143242 231.741584 65.5073 231.272767 65.038483 
C 230.80395 64.569666 230.168008 64.30625 229.505 64.30625 
C 228.841992 64.30625 228.20605 64.569666 227.737233 65.038483 
C 227.268416 65.5073 227.005 66.143242 227.005 66.80625 
C 227.005 67.469258 227.268416 68.1052 227.737233 68.574017 
C 228.20605 69.042834 228.841992 69.30625 229.505 69.30625 
z
" style="fill:#c44e52;"/>
    </g>
    <g id="text_19">
     <!-- COSY -->
     <g transform="translate(247.505 69.43125)scale(0.1 -0.1)">
      <use xlink:href="#SourceSansPro-Regular-67"/>
      <use x="57.099991" xlink:href="#SourceSansPro-Regular-79"/>
      <use x="123.499985" xlink:href="#SourceSansPro-Regular-83"/>
      <use x="176.899979" xlink:href="#SourceSansPro-Regular-89"/>
     </g>
    </g>
   </g>
  </g>
  <g id="axes_2">
   <g id="patch_8">
    <path d="M 314.105 263.84 
L 565.2 263.84 
L 565.2 10.8 
L 314.105 10.8 
z
" style="fill:#ffffff;"/>
   </g>
   <g id="PathCollection_13"/>
   <g id="PathCollection_14"/>
   <g id="PathCollection_15"/>
   <g id="PathCollection_16"/>
   <g id="matplotlib.axis_3">
    <g id="text_20">
     <!-- NOAH edited seHSQC/CLIP-COSY -->
     <g transform="translate(371.048594 274.960312)scale(0.1 -0.1)">
      <use xlink:href="#SourceSansPro-Regular-78"/>
      <use x="64.699997" xlink:href="#SourceSansPro-Regular-79"/>
      <use x="131.099991" xlink:href="#SourceSansPro-Regular-65"/>
      <use x="185.499985" xlink:href="#SourceSansPro-Regular-72"/>
      <use x="250.699982" xlink:href="#SourceSansPro-Regular-32"/>
      <use x="270.699966" xlink:href="#SourceSansPro-Regular-101"/>
      <use x="320.299957" xlink:href="#SourceSansPro-Regular-100"/>
      <use x="375.799942" xlink:href="#SourceSansPro-Regular-105"/>
      <use x="400.399933" xlink:href="#SourceSansPro-Regular-116"/>
      <use x="434.199921" xlink:href="#SourceSansPro-Regular-101"/>
      <use x="483.799911" xlink:href="#SourceSansPro-Regular-100"/>
      <use x="539.299896" xlink:href="#SourceSansPro-Regular-32"/>
      <use x="559.299881" xlink:href="#SourceSansPro-Regular-115"/>
      <use x="601.199875" xlink:href="#SourceSansPro-Regular-101"/>
      <use x="650.799866" xlink:href="#SourceSansPro-Regular-72"/>
      <use x="715.999863" xlink:href="#SourceSansPro-Regular-83"/>
      <use x="769.399857" xlink:href="#SourceSansPro-Regular-81"/>
      <use x="835.79985" xlink:href="#SourceSansPro-Regular-67"/>
      <use x="892.899841" xlink:href="#SourceSansPro-Regular-47"/>
      <use x="927.899826" xlink:href="#SourceSansPro-Regular-67"/>
      <use x="984.999817" xlink:href="#SourceSansPro-Regular-76"/>
      <use x="1033.599808" xlink:href="#SourceSansPro-Regular-73"/>
      <use x="1059.899796" xlink:href="#SourceSansPro-Regular-80"/>
      <use x="1116.499786" xlink:href="#SourceSansPro-Regular-45"/>
      <use x="1147.599777" xlink:href="#SourceSansPro-Regular-67"/>
      <use x="1204.699768" xlink:href="#SourceSansPro-Regular-79"/>
      <use x="1271.099762" xlink:href="#SourceSansPro-Regular-83"/>
      <use x="1324.499756" xlink:href="#SourceSansPro-Regular-89"/>
     </g>
    </g>
   </g>
   <g id="line2d_10">
    <path clip-path="url(#p2d733801b0)" d="M 314.105 119.245714 
L 565.2 119.245714 
" style="fill:none;stroke:#808080;stroke-dasharray:1.85,0.8;stroke-dashoffset:0;stroke-width:0.5;"/>
   </g>
   <g id="patch_9">
    <path d="M 314.105 263.84 
L 314.105 10.8 
" style="fill:none;stroke:#000000;stroke-linecap:square;stroke-linejoin:miter;stroke-width:1.3;"/>
   </g>
   <g id="patch_10">
    <path d="M 565.2 263.84 
L 565.2 10.8 
" style="fill:none;stroke:#000000;stroke-linecap:square;stroke-linejoin:miter;stroke-width:1.3;"/>
   </g>
   <g id="patch_11">
    <path d="M 314.105 263.84 
L 565.2 263.84 
" style="fill:none;stroke:#000000;stroke-linecap:square;stroke-linejoin:miter;stroke-width:1.3;"/>
   </g>
   <g id="patch_12">
    <path d="M 314.105 10.8 
L 565.2 10.8 
" style="fill:none;stroke:#000000;stroke-linecap:square;stroke-linejoin:miter;stroke-width:1.3;"/>
   </g>
   <g id="PathCollection_17">
    <defs>
     <path d="M 0 2.5 
C 0.663008 2.5 1.29895 2.236584 1.767767 1.767767 
C 2.236584 1.29895 2.5 0.663008 2.5 -0 
C 2.5 -0.663008 2.236584 -1.29895 1.767767 -1.767767 
C 1.29895 -2.236584 0.663008 -2.5 0 -2.5 
C -0.663008 -2.5 -1.29895 -2.236584 -1.767767 -1.767767 
C -2.236584 -1.29895 -2.5 -0.663008 -2.5 0 
C -2.5 0.663008 -2.236584 1.29895 -1.767767 1.767767 
C -1.29895 2.236584 -0.663008 2.5 0 2.5 
z
" id="C4_0_0254881f8f"/>
    </defs>
    <g clip-path="url(#p2d733801b0)">
     <use style="fill:#4c72b0;" x="362.886786" xlink:href="#C4_0_0254881f8f" y="72.020539"/>
    </g>
    <g clip-path="url(#p2d733801b0)">
     <use style="fill:#4c72b0;" x="362.417482" xlink:href="#C4_0_0254881f8f" y="39.948607"/>
    </g>
    <g clip-path="url(#p2d733801b0)">
     <use style="fill:#4c72b0;" x="370.49493" xlink:href="#C4_0_0254881f8f" y="48.852172"/>
    </g>
    <g clip-path="url(#p2d733801b0)">
     <use style="fill:#4c72b0;" x="360.678565" xlink:href="#C4_0_0254881f8f" y="81.729894"/>
    </g>
    <g clip-path="url(#p2d733801b0)">
     <use style="fill:#4c72b0;" x="365.024273" xlink:href="#C4_0_0254881f8f" y="69.591449"/>
    </g>
   </g>
   <g id="PathCollection_18">
    <defs>
     <path d="M 0 2.5 
C 0.663008 2.5 1.29895 2.236584 1.767767 1.767767 
C 2.236584 1.29895 2.5 0.663008 2.5 -0 
C 2.5 -0.663008 2.236584 -1.29895 1.767767 -1.767767 
C 1.29895 -2.236584 0.663008 -2.5 0 -2.5 
C -0.663008 -2.5 -1.29895 -2.236584 -1.767767 -1.767767 
C -2.236584 -1.29895 -2.5 -0.663008 -2.5 0 
C -2.5 0.663008 -2.236584 1.29895 -1.767767 1.767767 
C -1.29895 2.236584 -0.663008 2.5 0 2.5 
z
" id="C5_0_0e7e48fcca"/>
    </defs>
    <g clip-path="url(#p2d733801b0)">
     <use style="fill:#dd8452;" x="413.243891" xlink:href="#C5_0_0e7e48fcca" y="103.545896"/>
    </g>
    <g clip-path="url(#p2d733801b0)">
     <use style="fill:#dd8452;" x="412.171055" xlink:href="#C5_0_0e7e48fcca" y="92.081643"/>
    </g>
    <g clip-path="url(#p2d733801b0)">
     <use style="fill:#dd8452;" x="415.663589" xlink:href="#C5_0_0e7e48fcca" y="109.60221"/>
    </g>
    <g clip-path="url(#p2d733801b0)">
     <use style="fill:#dd8452;" x="416.480952" xlink:href="#C5_0_0e7e48fcca" y="103.907673"/>
    </g>
    <g clip-path="url(#p2d733801b0)">
     <use style="fill:#dd8452;" x="419.395359" xlink:href="#C5_0_0e7e48fcca" y="122.751406"/>
    </g>
    <g clip-path="url(#p2d733801b0)">
     <use style="fill:#dd8452;" x="414.990925" xlink:href="#C5_0_0e7e48fcca" y="116.113284"/>
    </g>
    <g clip-path="url(#p2d733801b0)">
     <use style="fill:#dd8452;" x="408.272601" xlink:href="#C5_0_0e7e48fcca" y="86.854402"/>
    </g>
    <g clip-path="url(#p2d733801b0)">
     <use style="fill:#dd8452;" x="411.43449" xlink:href="#C5_0_0e7e48fcca" y="129.375847"/>
    </g>
    <g clip-path="url(#p2d733801b0)">
     <use style="fill:#dd8452;" x="413.953602" xlink:href="#C5_0_0e7e48fcca" y="123.778856"/>
    </g>
    <g clip-path="url(#p2d733801b0)">
     <use style="fill:#dd8452;" x="415.394711" xlink:href="#C5_0_0e7e48fcca" y="122.731671"/>
    </g>
    <g clip-path="url(#p2d733801b0)">
     <use style="fill:#dd8452;" x="419.95699" xlink:href="#C5_0_0e7e48fcca" y="97.566161"/>
    </g>
    <g clip-path="url(#p2d733801b0)">
     <use style="fill:#dd8452;" x="409.349793" xlink:href="#C5_0_0e7e48fcca" y="117.070047"/>
    </g>
    <g clip-path="url(#p2d733801b0)">
     <use style="fill:#dd8452;" x="412.612269" xlink:href="#C5_0_0e7e48fcca" y="110.070872"/>
    </g>
    <g clip-path="url(#p2d733801b0)">
     <use style="fill:#dd8452;" x="411.577131" xlink:href="#C5_0_0e7e48fcca" y="98.943394"/>
    </g>
   </g>
   <g id="PathCollection_19">
    <defs>
     <path d="M 0 2.5 
C 0.663008 2.5 1.29895 2.236584 1.767767 1.767767 
C 2.236584 1.29895 2.5 0.663008 2.5 -0 
C 2.5 -0.663008 2.236584 -1.29895 1.767767 -1.767767 
C 1.29895 -2.236584 0.663008 -2.5 0 -2.5 
C -0.663008 -2.5 -1.29895 -2.236584 -1.767767 -1.767767 
C -2.236584 -1.29895 -2.5 -0.663008 -2.5 0 
C -2.5 0.663008 -2.236584 1.29895 -1.767767 1.767767 
C -1.29895 2.236584 -0.663008 2.5 0 2.5 
z
" id="C6_0_a6cb0f02e9"/>
    </defs>
    <g clip-path="url(#p2d733801b0)">
     <use style="fill:#55a868;" x="459.249301" xlink:href="#C6_0_a6cb0f02e9" y="126.116572"/>
    </g>
    <g clip-path="url(#p2d733801b0)">
     <use style="fill:#55a868;" x="464.289337" xlink:href="#C6_0_a6cb0f02e9" y="138.865038"/>
    </g>
   </g>
   <g id="PathCollection_20">
    <defs>
     <path d="M 0 2.5 
C 0.663008 2.5 1.29895 2.236584 1.767767 1.767767 
C 2.236584 1.29895 2.5 0.663008 2.5 -0 
C 2.5 -0.663008 2.236584 -1.29895 1.767767 -1.767767 
C 1.29895 -2.236584 0.663008 -2.5 0 -2.5 
C -0.663008 -2.5 -1.29895 -2.236584 -1.767767 -1.767767 
C -2.236584 -1.29895 -2.5 -0.663008 -2.5 0 
C -2.5 0.663008 -2.236584 1.29895 -1.767767 1.767767 
C -1.29895 2.236584 -0.663008 2.5 0 2.5 
z
" id="C7_0_c351b3d60c"/>
    </defs>
    <g clip-path="url(#p2d733801b0)">
     <use style="fill:#c44e52;" x="513.904796" xlink:href="#C7_0_c351b3d60c" y="133.916726"/>
    </g>
    <g clip-path="url(#p2d733801b0)">
     <use style="fill:#c44e52;" x="518.848243" xlink:href="#C7_0_c351b3d60c" y="103.89347"/>
    </g>
    <g clip-path="url(#p2d733801b0)">
     <use style="fill:#c44e52;" x="516.428487" xlink:href="#C7_0_c351b3d60c" y="119.432345"/>
    </g>
    <g clip-path="url(#p2d733801b0)">
     <use style="fill:#c44e52;" x="520.074699" xlink:href="#C7_0_c351b3d60c" y="121.26311"/>
    </g>
    <g clip-path="url(#p2d733801b0)">
     <use style="fill:#c44e52;" x="514.324755" xlink:href="#C7_0_c351b3d60c" y="119.618928"/>
    </g>
    <g clip-path="url(#p2d733801b0)">
     <use style="fill:#c44e52;" x="517.474245" xlink:href="#C7_0_c351b3d60c" y="108.350405"/>
    </g>
    <g clip-path="url(#p2d733801b0)">
     <use style="fill:#c44e52;" x="513.095987" xlink:href="#C7_0_c351b3d60c" y="124.207436"/>
    </g>
    <g clip-path="url(#p2d733801b0)">
     <use style="fill:#c44e52;" x="516.892287" xlink:href="#C7_0_c351b3d60c" y="117.966003"/>
    </g>
    <g clip-path="url(#p2d733801b0)">
     <use style="fill:#c44e52;" x="519.378537" xlink:href="#C7_0_c351b3d60c" y="105.801605"/>
    </g>
    <g clip-path="url(#p2d733801b0)">
     <use style="fill:#c44e52;" x="510.064417" xlink:href="#C7_0_c351b3d60c" y="101.384811"/>
    </g>
    <g clip-path="url(#p2d733801b0)">
     <use style="fill:#c44e52;" x="512.532098" xlink:href="#C7_0_c351b3d60c" y="107.351886"/>
    </g>
    <g clip-path="url(#p2d733801b0)">
     <use style="fill:#c44e52;" x="512.876204" xlink:href="#C7_0_c351b3d60c" y="118.309488"/>
    </g>
    <g clip-path="url(#p2d733801b0)">
     <use style="fill:#c44e52;" x="513.258521" xlink:href="#C7_0_c351b3d60c" y="115.670235"/>
    </g>
    <g clip-path="url(#p2d733801b0)">
     <use style="fill:#c44e52;" x="511.380051" xlink:href="#C7_0_c351b3d60c" y="91.667879"/>
    </g>
    <g clip-path="url(#p2d733801b0)">
     <use style="fill:#c44e52;" x="518.979268" xlink:href="#C7_0_c351b3d60c" y="107.552049"/>
    </g>
    <g clip-path="url(#p2d733801b0)">
     <use style="fill:#c44e52;" x="509.143849" xlink:href="#C7_0_c351b3d60c" y="111.061187"/>
    </g>
    <g clip-path="url(#p2d733801b0)">
     <use style="fill:#c44e52;" x="510.025872" xlink:href="#C7_0_c351b3d60c" y="124.370484"/>
    </g>
    <g clip-path="url(#p2d733801b0)">
     <use style="fill:#c44e52;" x="518.689618" xlink:href="#C7_0_c351b3d60c" y="121.874438"/>
    </g>
    <g clip-path="url(#p2d733801b0)">
     <use style="fill:#c44e52;" x="515.157581" xlink:href="#C7_0_c351b3d60c" y="89.653501"/>
    </g>
    <g clip-path="url(#p2d733801b0)">
     <use style="fill:#c44e52;" x="517.179747" xlink:href="#C7_0_c351b3d60c" y="101.987585"/>
    </g>
    <g clip-path="url(#p2d733801b0)">
     <use style="fill:#c44e52;" x="510.860527" xlink:href="#C7_0_c351b3d60c" y="135.072717"/>
    </g>
    <g clip-path="url(#p2d733801b0)">
     <use style="fill:#c44e52;" x="513.926781" xlink:href="#C7_0_c351b3d60c" y="125.669252"/>
    </g>
    <g clip-path="url(#p2d733801b0)">
     <use style="fill:#c44e52;" x="519.102043" xlink:href="#C7_0_c351b3d60c" y="116.367708"/>
    </g>
    <g clip-path="url(#p2d733801b0)">
     <use style="fill:#c44e52;" x="518.211318" xlink:href="#C7_0_c351b3d60c" y="114.406109"/>
    </g>
    <g clip-path="url(#p2d733801b0)">
     <use style="fill:#c44e52;" x="517.193742" xlink:href="#C7_0_c351b3d60c" y="111.63321"/>
    </g>
    <g clip-path="url(#p2d733801b0)">
     <use style="fill:#c44e52;" x="515.410521" xlink:href="#C7_0_c351b3d60c" y="124.858242"/>
    </g>
    <g clip-path="url(#p2d733801b0)">
     <use style="fill:#c44e52;" x="510.479944" xlink:href="#C7_0_c351b3d60c" y="104.016424"/>
    </g>
    <g clip-path="url(#p2d733801b0)">
     <use style="fill:#c44e52;" x="518.453846" xlink:href="#C7_0_c351b3d60c" y="118.027913"/>
    </g>
    <g clip-path="url(#p2d733801b0)">
     <use style="fill:#c44e52;" x="514.069893" xlink:href="#C7_0_c351b3d60c" y="106.409696"/>
    </g>
    <g clip-path="url(#p2d733801b0)">
     <use style="fill:#c44e52;" x="519.309641" xlink:href="#C7_0_c351b3d60c" y="91.061896"/>
    </g>
    <g clip-path="url(#p2d733801b0)">
     <use style="fill:#c44e52;" x="514.544165" xlink:href="#C7_0_c351b3d60c" y="122.119494"/>
    </g>
    <g clip-path="url(#p2d733801b0)">
     <use style="fill:#c44e52;" x="512.13186" xlink:href="#C7_0_c351b3d60c" y="89.430554"/>
    </g>
    <g clip-path="url(#p2d733801b0)">
     <use style="fill:#c44e52;" x="514.400891" xlink:href="#C7_0_c351b3d60c" y="88.290014"/>
    </g>
    <g clip-path="url(#p2d733801b0)">
     <use style="fill:#c44e52;" x="512.840642" xlink:href="#C7_0_c351b3d60c" y="101.729716"/>
    </g>
    <g clip-path="url(#p2d733801b0)">
     <use style="fill:#c44e52;" x="514.484176" xlink:href="#C7_0_c351b3d60c" y="96.142272"/>
    </g>
    <g clip-path="url(#p2d733801b0)">
     <use style="fill:#c44e52;" x="509.360491" xlink:href="#C7_0_c351b3d60c" y="108.491244"/>
    </g>
    <g clip-path="url(#p2d733801b0)">
     <use style="fill:#c44e52;" x="519.027736" xlink:href="#C7_0_c351b3d60c" y="94.436934"/>
    </g>
    <g clip-path="url(#p2d733801b0)">
     <use style="fill:#c44e52;" x="514.194202" xlink:href="#C7_0_c351b3d60c" y="134.860896"/>
    </g>
    <g clip-path="url(#p2d733801b0)">
     <use style="fill:#c44e52;" x="515.5199" xlink:href="#C7_0_c351b3d60c" y="107.780682"/>
    </g>
    <g clip-path="url(#p2d733801b0)">
     <use style="fill:#c44e52;" x="520.674818" xlink:href="#C7_0_c351b3d60c" y="119.47218"/>
    </g>
    <g clip-path="url(#p2d733801b0)">
     <use style="fill:#c44e52;" x="509.571377" xlink:href="#C7_0_c351b3d60c" y="109.980273"/>
    </g>
    <g clip-path="url(#p2d733801b0)">
     <use style="fill:#c44e52;" x="516.523214" xlink:href="#C7_0_c351b3d60c" y="115.630905"/>
    </g>
    <g clip-path="url(#p2d733801b0)">
     <use style="fill:#c44e52;" x="521.213386" xlink:href="#C7_0_c351b3d60c" y="98.093883"/>
    </g>
    <g clip-path="url(#p2d733801b0)">
     <use style="fill:#c44e52;" x="517.300531" xlink:href="#C7_0_c351b3d60c" y="116.650157"/>
    </g>
    <g clip-path="url(#p2d733801b0)">
     <use style="fill:#c44e52;" x="519.302663" xlink:href="#C7_0_c351b3d60c" y="113.871763"/>
    </g>
    <g clip-path="url(#p2d733801b0)">
     <use style="fill:#c44e52;" x="514.353548" xlink:href="#C7_0_c351b3d60c" y="99.458876"/>
    </g>
    <g clip-path="url(#p2d733801b0)">
     <use style="fill:#c44e52;" x="515.505929" xlink:href="#C7_0_c351b3d60c" y="99.138756"/>
    </g>
    <g clip-path="url(#p2d733801b0)">
     <use style="fill:#c44e52;" x="515.145867" xlink:href="#C7_0_c351b3d60c" y="122.867876"/>
    </g>
    <g clip-path="url(#p2d733801b0)">
     <use style="fill:#c44e52;" x="517.830185" xlink:href="#C7_0_c351b3d60c" y="134.235687"/>
    </g>
    <g clip-path="url(#p2d733801b0)">
     <use style="fill:#c44e52;" x="515.247814" xlink:href="#C7_0_c351b3d60c" y="119.69673"/>
    </g>
    <g clip-path="url(#p2d733801b0)">
     <use style="fill:#c44e52;" x="517.563372" xlink:href="#C7_0_c351b3d60c" y="89.941182"/>
    </g>
    <g clip-path="url(#p2d733801b0)">
     <use style="fill:#c44e52;" x="517.260763" xlink:href="#C7_0_c351b3d60c" y="115.086051"/>
    </g>
   </g>
   <g id="text_21">
    <!-- (1.47) -->
    <g style="fill:#4c72b0;" transform="translate(352.593531 258.7792)scale(0.1 -0.1)">
     <use xlink:href="#SourceSansPro-Regular-40"/>
     <use x="30.299988" xlink:href="#SourceSansPro-Regular-49"/>
     <use x="79.999985" xlink:href="#SourceSansPro-Regular-46"/>
     <use x="104.899979" xlink:href="#SourceSansPro-Regular-52"/>
     <use x="154.599976" xlink:href="#SourceSansPro-Regular-55"/>
     <use x="204.299973" xlink:href="#SourceSansPro-Regular-41"/>
    </g>
   </g>
   <g id="text_22">
    <!-- (1.08) -->
    <g style="fill:#dd8452;" transform="translate(402.812531 258.7792)scale(0.1 -0.1)">
     <defs>
      <path d="M 25 -1.203125 
Q 20.5 -1.203125 16.640625 0.09375 
Q 12.796875 1.40625 10.046875 3.75 
Q 7.296875 6.09375 5.6875 9.296875 
Q 4.09375 12.5 4.09375 16.296875 
Q 4.09375 19.40625 5.140625 22.046875 
Q 6.203125 24.703125 7.84375 26.84375 
Q 9.5 29 11.640625 30.640625 
Q 13.796875 32.296875 16.09375 33.5 
L 16.09375 33.90625 
Q 12.59375 36.40625 9.890625 39.953125 
Q 7.203125 43.5 7.203125 48.59375 
Q 7.203125 52.296875 8.59375 55.296875 
Q 10 58.296875 12.390625 60.4375 
Q 14.796875 62.59375 18.09375 63.796875 
Q 21.40625 65 25.296875 65 
Q 29.5 65 32.796875 63.75 
Q 36.09375 62.5 38.4375 60.25 
Q 40.796875 58 42.046875 54.84375 
Q 43.296875 51.703125 43.296875 48 
Q 43.296875 45.5 42.4375 43.203125 
Q 41.59375 40.90625 40.34375 38.90625 
Q 39.09375 36.90625 37.546875 35.296875 
Q 36 33.703125 34.5 32.59375 
L 34.5 32.203125 
Q 36.59375 31 38.59375 29.453125 
Q 40.59375 27.90625 42.140625 25.953125 
Q 43.703125 24 44.640625 21.5 
Q 45.59375 19 45.59375 15.796875 
Q 45.59375 12.203125 44.09375 9.09375 
Q 42.59375 6 39.890625 3.703125 
Q 37.203125 1.40625 33.390625 0.09375 
Q 29.59375 -1.203125 25 -1.203125 
z
M 29.5 34.796875 
Q 32.703125 37.703125 34.453125 40.890625 
Q 36.203125 44.09375 36.203125 47.59375 
Q 36.203125 52.40625 33.296875 55.65625 
Q 30.40625 58.90625 25.09375 58.90625 
Q 20.59375 58.90625 17.6875 56.09375 
Q 14.796875 53.296875 14.796875 48.59375 
Q 14.796875 45.703125 16 43.640625 
Q 17.203125 41.59375 19.25 40 
Q 21.296875 38.40625 23.9375 37.15625 
Q 26.59375 35.90625 29.5 34.796875 
z
M 25.203125 4.90625 
Q 30.796875 4.90625 34.25 8 
Q 37.703125 11.09375 37.703125 16.09375 
Q 37.703125 19.203125 36.296875 21.390625 
Q 34.90625 23.59375 32.5 25.25 
Q 30.09375 26.90625 26.9375 28.25 
Q 23.796875 29.59375 20.40625 31 
Q 16.59375 28.40625 14.046875 24.953125 
Q 11.5 21.5 11.5 17.09375 
Q 11.5 14.40625 12.546875 12.203125 
Q 13.59375 10 15.4375 8.34375 
Q 17.296875 6.703125 19.796875 5.796875 
Q 22.296875 4.90625 25.203125 4.90625 
z
" id="SourceSansPro-Regular-56"/>
     </defs>
     <use xlink:href="#SourceSansPro-Regular-40"/>
     <use x="30.299988" xlink:href="#SourceSansPro-Regular-49"/>
     <use x="79.999985" xlink:href="#SourceSansPro-Regular-46"/>
     <use x="104.899979" xlink:href="#SourceSansPro-Regular-48"/>
     <use x="154.599976" xlink:href="#SourceSansPro-Regular-56"/>
     <use x="204.299973" xlink:href="#SourceSansPro-Regular-41"/>
    </g>
   </g>
   <g id="text_23">
    <!-- (0.89) -->
    <g style="fill:#55a868;" transform="translate(453.031531 258.7792)scale(0.1 -0.1)">
     <defs>
      <path d="M 23.5 31 
Q 26.703125 31 30.25 33 
Q 33.796875 35 36.90625 39.5 
Q 36.09375 48.90625 32.5 53.703125 
Q 28.90625 58.5 22.796875 58.5 
Q 20.5 58.5 18.453125 57.5 
Q 16.40625 56.5 14.90625 54.640625 
Q 13.40625 52.796875 12.546875 50.1875 
Q 11.703125 47.59375 11.703125 44.5 
Q 11.703125 38.203125 14.59375 34.59375 
Q 17.5 31 23.5 31 
z
M 20.5 -1.203125 
Q 15.40625 -1.203125 11.546875 0.6875 
Q 7.703125 2.59375 5.09375 5.5 
L 9.703125 10.703125 
Q 11.703125 8.40625 14.453125 7 
Q 17.203125 5.59375 20.203125 5.59375 
Q 23.59375 5.59375 26.59375 7 
Q 29.59375 8.40625 31.890625 11.65625 
Q 34.203125 14.90625 35.59375 20.09375 
Q 37 25.296875 37.09375 33 
Q 34.09375 29.203125 30.09375 27 
Q 26.09375 24.796875 22.09375 24.796875 
Q 13.796875 24.796875 8.890625 29.6875 
Q 4 34.59375 4 44.5 
Q 4 49.09375 5.5 52.84375 
Q 7 56.59375 9.546875 59.296875 
Q 12.09375 62 15.546875 63.5 
Q 19 65 22.796875 65 
Q 27.5 65 31.546875 63.09375 
Q 35.59375 61.203125 38.546875 57.34375 
Q 41.5 53.5 43.140625 47.75 
Q 44.796875 42 44.796875 34.296875 
Q 44.796875 24.703125 42.796875 17.953125 
Q 40.796875 11.203125 37.390625 6.953125 
Q 34 2.703125 29.640625 0.75 
Q 25.296875 -1.203125 20.5 -1.203125 
z
" id="SourceSansPro-Regular-57"/>
     </defs>
     <use xlink:href="#SourceSansPro-Regular-40"/>
     <use x="30.299988" xlink:href="#SourceSansPro-Regular-48"/>
     <use x="79.999985" xlink:href="#SourceSansPro-Regular-46"/>
     <use x="104.899979" xlink:href="#SourceSansPro-Regular-56"/>
     <use x="154.599976" xlink:href="#SourceSansPro-Regular-57"/>
     <use x="204.299973" xlink:href="#SourceSansPro-Regular-41"/>
    </g>
   </g>
   <g id="text_24">
    <!-- (1.07) -->
    <g style="fill:#c44e52;" transform="translate(503.250531 258.7792)scale(0.1 -0.1)">
     <use xlink:href="#SourceSansPro-Regular-40"/>
     <use x="30.299988" xlink:href="#SourceSansPro-Regular-49"/>
     <use x="79.999985" xlink:href="#SourceSansPro-Regular-46"/>
     <use x="104.899979" xlink:href="#SourceSansPro-Regular-48"/>
     <use x="154.599976" xlink:href="#SourceSansPro-Regular-55"/>
     <use x="204.299973" xlink:href="#SourceSansPro-Regular-41"/>
    </g>
   </g>
   <g id="text_25">
    <!-- (b) -->
    <g transform="translate(319.1269 27.5408)scale(0.16 -0.16)">
     <defs>
      <path d="M 32.5 -1.203125 
Q 29.203125 -1.203125 25.84375 0.4375 
Q 22.5 2.09375 19.59375 5.296875 
L 19.203125 5.296875 
L 18 0 
L 6.5 0 
L 6.5 70.09375 
L 21.203125 70.09375 
L 21.203125 52.90625 
L 20.796875 45.296875 
Q 23.703125 47.90625 27.046875 49.34375 
Q 30.40625 50.796875 33.90625 50.796875 
Q 38.40625 50.796875 42 49 
Q 45.59375 47.203125 48.140625 43.953125 
Q 50.703125 40.703125 52.046875 36.046875 
Q 53.40625 31.40625 53.40625 25.703125 
Q 53.40625 19.296875 51.65625 14.296875 
Q 49.90625 9.296875 46.953125 5.84375 
Q 44 2.40625 40.25 0.59375 
Q 36.5 -1.203125 32.5 -1.203125 
z
M 29.09375 10.796875 
Q 32.90625 10.796875 35.59375 14.25 
Q 38.296875 17.703125 38.296875 25.40625 
Q 38.296875 38.796875 29.703125 38.796875 
Q 25.296875 38.796875 21.203125 34.296875 
L 21.203125 14 
Q 23.203125 12.203125 25.203125 11.5 
Q 27.203125 10.796875 29.09375 10.796875 
z
" id="SourceSansPro-Bold-98"/>
     </defs>
     <use xlink:href="#SourceSansPro-Bold-40"/>
     <use x="34.399994" xlink:href="#SourceSansPro-Bold-98"/>
     <use x="91.699982" xlink:href="#SourceSansPro-Bold-41"/>
    </g>
   </g>
   <g id="legend_2">
    <g id="patch_13">
     <path d="M 482.9 75.48125 
L 558.2 75.48125 
Q 560.2 75.48125 560.2 73.48125 
L 560.2 17.8 
Q 560.2 15.8 558.2 15.8 
L 482.9 15.8 
Q 480.9 15.8 480.9 17.8 
L 480.9 73.48125 
Q 480.9 75.48125 482.9 75.48125 
z
" style="fill:#ffffff;opacity:0.8;stroke:#cccccc;stroke-linejoin:miter;"/>
    </g>
    <g id="PathCollection_21">
     <path d="M 494.9 26.795313 
C 495.563008 26.795313 496.19895 26.531897 496.667767 26.063079 
C 497.136584 25.594262 497.4 24.95832 497.4 24.295313 
C 497.4 23.632305 497.136584 22.996363 496.667767 22.527546 
C 496.19895 22.058728 495.563008 21.795313 494.9 21.795313 
C 494.236992 21.795313 493.60105 22.058728 493.132233 22.527546 
C 492.663416 22.996363 492.4 23.632305 492.4 24.295313 
C 492.4 24.95832 492.663416 25.594262 493.132233 26.063079 
C 493.60105 26.531897 494.236992 26.795313 494.9 26.795313 
z
" style="fill:#4c72b0;"/>
    </g>
    <g id="text_26">
     <!-- HSQC CH -->
     <g transform="translate(512.9 26.920313)scale(0.1 -0.1)">
      <use xlink:href="#SourceSansPro-Regular-72"/>
      <use x="65.199997" xlink:href="#SourceSansPro-Regular-83"/>
      <use x="118.599991" xlink:href="#SourceSansPro-Regular-81"/>
      <use x="184.999985" xlink:href="#SourceSansPro-Regular-67"/>
      <use x="242.099976" xlink:href="#SourceSansPro-Regular-32"/>
      <use x="262.09996" xlink:href="#SourceSansPro-Regular-67"/>
      <use x="319.199951" xlink:href="#SourceSansPro-Regular-72"/>
     </g>
    </g>
    <g id="PathCollection_22">
     <path d="M 494.9 40.965625 
C 495.563008 40.965625 496.19895 40.702209 496.667767 40.233392 
C 497.136584 39.764575 497.4 39.128633 497.4 38.465625 
C 497.4 37.802617 497.136584 37.166675 496.667767 36.697858 
C 496.19895 36.229041 495.563008 35.965625 494.9 35.965625 
C 494.236992 35.965625 493.60105 36.229041 493.132233 36.697858 
C 492.663416 37.166675 492.4 37.802617 492.4 38.465625 
C 492.4 39.128633 492.663416 39.764575 493.132233 40.233392 
C 493.60105 40.702209 494.236992 40.965625 494.9 40.965625 
z
" style="fill:#dd8452;"/>
    </g>
    <g id="text_27">
     <!-- HSQC CH$_2$ -->
     <g transform="translate(512.9 41.090625)scale(0.1 -0.1)">
      <use transform="translate(0 0.203125)" xlink:href="#SourceSansPro-Regular-72"/>
      <use transform="translate(65.199997 0.203125)" xlink:href="#SourceSansPro-Regular-83"/>
      <use transform="translate(118.599991 0.203125)" xlink:href="#SourceSansPro-Regular-81"/>
      <use transform="translate(184.999985 0.203125)" xlink:href="#SourceSansPro-Regular-67"/>
      <use transform="translate(242.099976 0.203125)" xlink:href="#SourceSansPro-Regular-32"/>
      <use transform="translate(262.09996 0.203125)" xlink:href="#SourceSansPro-Regular-67"/>
      <use transform="translate(319.199951 0.203125)" xlink:href="#SourceSansPro-Regular-72"/>
      <use transform="translate(385.356979 -16.203125)scale(0.7)" xlink:href="#DejaVuSans-50"/>
     </g>
    </g>
    <g id="PathCollection_23">
     <path d="M 494.9 55.135938 
C 495.563008 55.135938 496.19895 54.872522 496.667767 54.403704 
C 497.136584 53.934887 497.4 53.298945 497.4 52.635938 
C 497.4 51.97293 497.136584 51.336988 496.667767 50.868171 
C 496.19895 50.399353 495.563008 50.135938 494.9 50.135938 
C 494.236992 50.135938 493.60105 50.399353 493.132233 50.868171 
C 492.663416 51.336988 492.4 51.97293 492.4 52.635938 
C 492.4 53.298945 492.663416 53.934887 493.132233 54.403704 
C 493.60105 54.872522 494.236992 55.135938 494.9 55.135938 
z
" style="fill:#55a868;"/>
    </g>
    <g id="text_28">
     <!-- HSQC CH$_3$ -->
     <g transform="translate(512.9 55.260938)scale(0.1 -0.1)">
      <use transform="translate(0 0.203125)" xlink:href="#SourceSansPro-Regular-72"/>
      <use transform="translate(65.199997 0.203125)" xlink:href="#SourceSansPro-Regular-83"/>
      <use transform="translate(118.599991 0.203125)" xlink:href="#SourceSansPro-Regular-81"/>
      <use transform="translate(184.999985 0.203125)" xlink:href="#SourceSansPro-Regular-67"/>
      <use transform="translate(242.099976 0.203125)" xlink:href="#SourceSansPro-Regular-32"/>
      <use transform="translate(262.09996 0.203125)" xlink:href="#SourceSansPro-Regular-67"/>
      <use transform="translate(319.199951 0.203125)" xlink:href="#SourceSansPro-Regular-72"/>
      <use transform="translate(385.356979 -16.203125)scale(0.7)" xlink:href="#DejaVuSans-51"/>
     </g>
    </g>
    <g id="PathCollection_24">
     <path d="M 494.9 69.30625 
C 495.563008 69.30625 496.19895 69.042834 496.667767 68.574017 
C 497.136584 68.1052 497.4 67.469258 497.4 66.80625 
C 497.4 66.143242 497.136584 65.5073 496.667767 65.038483 
C 496.19895 64.569666 495.563008 64.30625 494.9 64.30625 
C 494.236992 64.30625 493.60105 64.569666 493.132233 65.038483 
C 492.663416 65.5073 492.4 66.143242 492.4 66.80625 
C 492.4 67.469258 492.663416 68.1052 493.132233 68.574017 
C 493.60105 69.042834 494.236992 69.30625 494.9 69.30625 
z
" style="fill:#c44e52;"/>
    </g>
    <g id="text_29">
     <!-- COSY -->
     <g transform="translate(512.9 69.43125)scale(0.1 -0.1)">
      <use xlink:href="#SourceSansPro-Regular-67"/>
      <use x="57.099991" xlink:href="#SourceSansPro-Regular-79"/>
      <use x="123.499985" xlink:href="#SourceSansPro-Regular-83"/>
      <use x="176.899979" xlink:href="#SourceSansPro-Regular-89"/>
     </g>
    </g>
   </g>
  </g>
 </g>
 <defs>
  <clipPath id="p3627f6690a">
   <rect height="253.04" width="251.095" x="48.71" y="10.8"/>
  </clipPath>
  <clipPath id="p2d733801b0">
   <rect height="253.04" width="251.095" x="314.105" y="10.8"/>
  </clipPath>
 </defs>
</svg>
