<?xml version="1.0" encoding="utf-8" standalone="no"?>
<!DOCTYPE svg PUBLIC "-//W3C//DTD SVG 1.1//EN"
  "http://www.w3.org/Graphics/SVG/1.1/DTD/svg11.dtd">
<!-- Created with matplotlib (https://matplotlib.org/) -->
<svg height="288pt" version="1.1" viewBox="0 0 576 288" width="576pt" xmlns="http://www.w3.org/2000/svg" xmlns:xlink="http://www.w3.org/1999/xlink">
 <metadata>
  <rdf:RDF xmlns:cc="http://creativecommons.org/ns#" xmlns:dc="http://purl.org/dc/elements/1.1/" xmlns:rdf="http://www.w3.org/1999/02/22-rdf-syntax-ns#">
   <cc:Work>
    <dc:type rdf:resource="http://purl.org/dc/dcmitype/StillImage"/>
    <dc:date>2020-12-14T01:17:56.542891</dc:date>
    <dc:format>image/svg+xml</dc:format>
    <dc:creator>
     <cc:Agent>
      <dc:title>Matplotlib v3.3.2, https://matplotlib.org/</dc:title>
     </cc:Agent>
    </dc:creator>
   </cc:Work>
  </rdf:RDF>
 </metadata>
 <defs>
  <style type="text/css">*{stroke-linecap:butt;stroke-linejoin:round;}</style>
 </defs>
 <g id="figure_1">
  <g id="patch_1">
   <path d="M 0 288 
L 576 288 
L 576 0 
L 0 0 
z
" style="fill:#ffffff;"/>
  </g>
  <g id="axes_1">
   <g id="patch_2">
    <path d="M 48.78875 260.24 
L 297.684375 260.24 
L 297.684375 12.96 
L 48.78875 12.96 
z
" style="fill:#ffffff;"/>
   </g>
   <g id="PathCollection_1">
    <defs>
     <path d="M 0 2.5 
C 0.663008 2.5 1.29895 2.236584 1.767767 1.767767 
C 2.236584 1.29895 2.5 0.663008 2.5 -0 
C 2.5 -0.663008 2.236584 -1.29895 1.767767 -1.767767 
C 1.29895 -2.236584 0.663008 -2.5 0 -2.5 
C -0.663008 -2.5 -1.29895 -2.236584 -1.767767 -1.767767 
C -2.236584 -1.29895 -2.5 -0.663008 -2.5 0 
C -2.5 0.663008 -2.236584 1.29895 -1.767767 1.767767 
C -1.29895 2.236584 -0.663008 2.5 0 2.5 
z
" id="C0_0_f39f236337"/>
    </defs>
    <g clip-path="url(#p654d2d3bbb)">
     <use style="fill:#4c72b0;fill-opacity:0.3;" x="101.484668" xlink:href="#C0_0_f39f236337" y="81.181147"/>
    </g>
    <g clip-path="url(#p654d2d3bbb)">
     <use style="fill:#4c72b0;fill-opacity:0.3;" x="94.950707" xlink:href="#C0_0_f39f236337" y="82.112164"/>
    </g>
    <g clip-path="url(#p654d2d3bbb)">
     <use style="fill:#4c72b0;fill-opacity:0.3;" x="99.541499" xlink:href="#C0_0_f39f236337" y="83.369084"/>
    </g>
    <g clip-path="url(#p654d2d3bbb)">
     <use style="fill:#4c72b0;fill-opacity:0.3;" x="98.170016" xlink:href="#C0_0_f39f236337" y="86.516261"/>
    </g>
    <g clip-path="url(#p654d2d3bbb)">
     <use style="fill:#4c72b0;fill-opacity:0.3;" x="103.583471" xlink:href="#C0_0_f39f236337" y="89.583041"/>
    </g>
   </g>
   <g id="PathCollection_2">
    <defs>
     <path d="M 0 2.5 
C 0.663008 2.5 1.29895 2.236584 1.767767 1.767767 
C 2.236584 1.29895 2.5 0.663008 2.5 -0 
C 2.5 -0.663008 2.236584 -1.29895 1.767767 -1.767767 
C 1.29895 -2.236584 0.663008 -2.5 0 -2.5 
C -0.663008 -2.5 -1.29895 -2.236584 -1.767767 -1.767767 
C -2.236584 -1.29895 -2.5 -0.663008 -2.5 0 
C -2.5 0.663008 -2.236584 1.29895 -1.767767 1.767767 
C -1.29895 2.236584 -0.663008 2.5 0 2.5 
z
" id="C1_0_e1951907ea"/>
    </defs>
    <g clip-path="url(#p654d2d3bbb)">
     <use style="fill:#dd8452;fill-opacity:0.3;" x="149.977039" xlink:href="#C1_0_e1951907ea" y="121.360757"/>
    </g>
    <g clip-path="url(#p654d2d3bbb)">
     <use style="fill:#dd8452;fill-opacity:0.3;" x="149.857258" xlink:href="#C1_0_e1951907ea" y="114.245115"/>
    </g>
    <g clip-path="url(#p654d2d3bbb)">
     <use style="fill:#dd8452;fill-opacity:0.3;" x="144.387238" xlink:href="#C1_0_e1951907ea" y="124.454906"/>
    </g>
    <g clip-path="url(#p654d2d3bbb)">
     <use style="fill:#dd8452;fill-opacity:0.3;" x="143.91272" xlink:href="#C1_0_e1951907ea" y="128.470356"/>
    </g>
    <g clip-path="url(#p654d2d3bbb)">
     <use style="fill:#dd8452;fill-opacity:0.3;" x="142.169104" xlink:href="#C1_0_e1951907ea" y="130.046593"/>
    </g>
    <g clip-path="url(#p654d2d3bbb)">
     <use style="fill:#dd8452;fill-opacity:0.3;" x="143.050035" xlink:href="#C1_0_e1951907ea" y="125.147646"/>
    </g>
    <g clip-path="url(#p654d2d3bbb)">
     <use style="fill:#dd8452;fill-opacity:0.3;" x="150.820489" xlink:href="#C1_0_e1951907ea" y="125.80215"/>
    </g>
    <g clip-path="url(#p654d2d3bbb)">
     <use style="fill:#dd8452;fill-opacity:0.3;" x="147.451916" xlink:href="#C1_0_e1951907ea" y="122.778753"/>
    </g>
    <g clip-path="url(#p654d2d3bbb)">
     <use style="fill:#dd8452;fill-opacity:0.3;" x="146.103027" xlink:href="#C1_0_e1951907ea" y="129.209464"/>
    </g>
    <g clip-path="url(#p654d2d3bbb)">
     <use style="fill:#dd8452;fill-opacity:0.3;" x="146.171715" xlink:href="#C1_0_e1951907ea" y="131.645054"/>
    </g>
    <g clip-path="url(#p654d2d3bbb)">
     <use style="fill:#dd8452;fill-opacity:0.3;" x="143.020734" xlink:href="#C1_0_e1951907ea" y="111.590323"/>
    </g>
    <g clip-path="url(#p654d2d3bbb)">
     <use style="fill:#dd8452;fill-opacity:0.3;" x="152.816542" xlink:href="#C1_0_e1951907ea" y="92.704521"/>
    </g>
    <g clip-path="url(#p654d2d3bbb)">
     <use style="fill:#dd8452;fill-opacity:0.3;" x="151.852493" xlink:href="#C1_0_e1951907ea" y="122.792824"/>
    </g>
    <g clip-path="url(#p654d2d3bbb)">
     <use style="fill:#dd8452;fill-opacity:0.3;" x="143.576243" xlink:href="#C1_0_e1951907ea" y="104.22691"/>
    </g>
   </g>
   <g id="PathCollection_3">
    <defs>
     <path d="M 0 2.5 
C 0.663008 2.5 1.29895 2.236584 1.767767 1.767767 
C 2.236584 1.29895 2.5 0.663008 2.5 -0 
C 2.5 -0.663008 2.236584 -1.29895 1.767767 -1.767767 
C 1.29895 -2.236584 0.663008 -2.5 0 -2.5 
C -0.663008 -2.5 -1.29895 -2.236584 -1.767767 -1.767767 
C -2.236584 -1.29895 -2.5 -0.663008 -2.5 0 
C -2.5 0.663008 -2.236584 1.29895 -1.767767 1.767767 
C -1.29895 2.236584 -0.663008 2.5 0 2.5 
z
" id="C2_0_6b5f243b31"/>
    </defs>
    <g clip-path="url(#p654d2d3bbb)">
     <use style="fill:#55a868;fill-opacity:0.3;" x="193.383414" xlink:href="#C2_0_6b5f243b31" y="127.270673"/>
    </g>
    <g clip-path="url(#p654d2d3bbb)">
     <use style="fill:#55a868;fill-opacity:0.3;" x="196.67967" xlink:href="#C2_0_6b5f243b31" y="131.040517"/>
    </g>
   </g>
   <g id="PathCollection_4">
    <defs>
     <path d="M 0 2.5 
C 0.663008 2.5 1.29895 2.236584 1.767767 1.767767 
C 2.236584 1.29895 2.5 0.663008 2.5 -0 
C 2.5 -0.663008 2.236584 -1.29895 1.767767 -1.767767 
C 1.29895 -2.236584 0.663008 -2.5 0 -2.5 
C -0.663008 -2.5 -1.29895 -2.236584 -1.767767 -1.767767 
C -2.236584 -1.29895 -2.5 -0.663008 -2.5 0 
C -2.5 0.663008 -2.236584 1.29895 -1.767767 1.767767 
C -1.29895 2.236584 -0.663008 2.5 0 2.5 
z
" id="C3_0_81f347fe89"/>
    </defs>
    <g clip-path="url(#p654d2d3bbb)">
     <use style="fill:#c44e52;fill-opacity:0.3;" x="247.962229" xlink:href="#C3_0_81f347fe89" y="229.2476"/>
    </g>
    <g clip-path="url(#p654d2d3bbb)">
     <use style="fill:#c44e52;fill-opacity:0.3;" x="241.95749" xlink:href="#C3_0_81f347fe89" y="223.06299"/>
    </g>
    <g clip-path="url(#p654d2d3bbb)">
     <use style="fill:#c44e52;fill-opacity:0.3;" x="251.168708" xlink:href="#C3_0_81f347fe89" y="226.962733"/>
    </g>
    <g clip-path="url(#p654d2d3bbb)">
     <use style="fill:#c44e52;fill-opacity:0.3;" x="253.732657" xlink:href="#C3_0_81f347fe89" y="224.299137"/>
    </g>
    <g clip-path="url(#p654d2d3bbb)">
     <use style="fill:#c44e52;fill-opacity:0.3;" x="253.037687" xlink:href="#C3_0_81f347fe89" y="223.346166"/>
    </g>
    <g clip-path="url(#p654d2d3bbb)">
     <use style="fill:#c44e52;fill-opacity:0.3;" x="252.057317" xlink:href="#C3_0_81f347fe89" y="225.393774"/>
    </g>
    <g clip-path="url(#p654d2d3bbb)">
     <use style="fill:#c44e52;fill-opacity:0.3;" x="251.912436" xlink:href="#C3_0_81f347fe89" y="219.577161"/>
    </g>
    <g clip-path="url(#p654d2d3bbb)">
     <use style="fill:#c44e52;fill-opacity:0.3;" x="245.352429" xlink:href="#C3_0_81f347fe89" y="221.15493"/>
    </g>
    <g clip-path="url(#p654d2d3bbb)">
     <use style="fill:#c44e52;fill-opacity:0.3;" x="241.883205" xlink:href="#C3_0_81f347fe89" y="215.363295"/>
    </g>
    <g clip-path="url(#p654d2d3bbb)">
     <use style="fill:#c44e52;fill-opacity:0.3;" x="241.961701" xlink:href="#C3_0_81f347fe89" y="219.323154"/>
    </g>
    <g clip-path="url(#p654d2d3bbb)">
     <use style="fill:#c44e52;fill-opacity:0.3;" x="245.28739" xlink:href="#C3_0_81f347fe89" y="210.698964"/>
    </g>
    <g clip-path="url(#p654d2d3bbb)">
     <use style="fill:#c44e52;fill-opacity:0.3;" x="245.145037" xlink:href="#C3_0_81f347fe89" y="215.320783"/>
    </g>
    <g clip-path="url(#p654d2d3bbb)">
     <use style="fill:#c44e52;fill-opacity:0.3;" x="246.552453" xlink:href="#C3_0_81f347fe89" y="222.742851"/>
    </g>
    <g clip-path="url(#p654d2d3bbb)">
     <use style="fill:#c44e52;fill-opacity:0.3;" x="253.940266" xlink:href="#C3_0_81f347fe89" y="208.171246"/>
    </g>
    <g clip-path="url(#p654d2d3bbb)">
     <use style="fill:#c44e52;fill-opacity:0.3;" x="252.650831" xlink:href="#C3_0_81f347fe89" y="216.44809"/>
    </g>
    <g clip-path="url(#p654d2d3bbb)">
     <use style="fill:#c44e52;fill-opacity:0.3;" x="243.43692" xlink:href="#C3_0_81f347fe89" y="213.487403"/>
    </g>
    <g clip-path="url(#p654d2d3bbb)">
     <use style="fill:#c44e52;fill-opacity:0.3;" x="246.640879" xlink:href="#C3_0_81f347fe89" y="214.006979"/>
    </g>
    <g clip-path="url(#p654d2d3bbb)">
     <use style="fill:#c44e52;fill-opacity:0.3;" x="246.603328" xlink:href="#C3_0_81f347fe89" y="213.134896"/>
    </g>
    <g clip-path="url(#p654d2d3bbb)">
     <use style="fill:#c44e52;fill-opacity:0.3;" x="244.420961" xlink:href="#C3_0_81f347fe89" y="208.630622"/>
    </g>
    <g clip-path="url(#p654d2d3bbb)">
     <use style="fill:#c44e52;fill-opacity:0.3;" x="250.315804" xlink:href="#C3_0_81f347fe89" y="209.41251"/>
    </g>
    <g clip-path="url(#p654d2d3bbb)">
     <use style="fill:#c44e52;fill-opacity:0.3;" x="246.435621" xlink:href="#C3_0_81f347fe89" y="215.352488"/>
    </g>
    <g clip-path="url(#p654d2d3bbb)">
     <use style="fill:#c44e52;fill-opacity:0.3;" x="252.183912" xlink:href="#C3_0_81f347fe89" y="218.955991"/>
    </g>
    <g clip-path="url(#p654d2d3bbb)">
     <use style="fill:#c44e52;fill-opacity:0.3;" x="243.76077" xlink:href="#C3_0_81f347fe89" y="214.549629"/>
    </g>
    <g clip-path="url(#p654d2d3bbb)">
     <use style="fill:#c44e52;fill-opacity:0.3;" x="246.905741" xlink:href="#C3_0_81f347fe89" y="226.956452"/>
    </g>
    <g clip-path="url(#p654d2d3bbb)">
     <use style="fill:#c44e52;fill-opacity:0.3;" x="252.419719" xlink:href="#C3_0_81f347fe89" y="226.168141"/>
    </g>
    <g clip-path="url(#p654d2d3bbb)">
     <use style="fill:#c44e52;fill-opacity:0.3;" x="250.020374" xlink:href="#C3_0_81f347fe89" y="219.840457"/>
    </g>
    <g clip-path="url(#p654d2d3bbb)">
     <use style="fill:#c44e52;fill-opacity:0.3;" x="245.437143" xlink:href="#C3_0_81f347fe89" y="214.19301"/>
    </g>
    <g clip-path="url(#p654d2d3bbb)">
     <use style="fill:#c44e52;fill-opacity:0.3;" x="244.377382" xlink:href="#C3_0_81f347fe89" y="213.258897"/>
    </g>
    <g clip-path="url(#p654d2d3bbb)">
     <use style="fill:#c44e52;fill-opacity:0.3;" x="249.207103" xlink:href="#C3_0_81f347fe89" y="217.522675"/>
    </g>
    <g clip-path="url(#p654d2d3bbb)">
     <use style="fill:#c44e52;fill-opacity:0.3;" x="250.480154" xlink:href="#C3_0_81f347fe89" y="208.913164"/>
    </g>
    <g clip-path="url(#p654d2d3bbb)">
     <use style="fill:#c44e52;fill-opacity:0.3;" x="247.289037" xlink:href="#C3_0_81f347fe89" y="201.576211"/>
    </g>
    <g clip-path="url(#p654d2d3bbb)">
     <use style="fill:#c44e52;fill-opacity:0.3;" x="243.044282" xlink:href="#C3_0_81f347fe89" y="208.223927"/>
    </g>
    <g clip-path="url(#p654d2d3bbb)">
     <use style="fill:#c44e52;fill-opacity:0.3;" x="246.075342" xlink:href="#C3_0_81f347fe89" y="208.315892"/>
    </g>
    <g clip-path="url(#p654d2d3bbb)">
     <use style="fill:#c44e52;fill-opacity:0.3;" x="250.223913" xlink:href="#C3_0_81f347fe89" y="204.945574"/>
    </g>
    <g clip-path="url(#p654d2d3bbb)">
     <use style="fill:#c44e52;fill-opacity:0.3;" x="253.194286" xlink:href="#C3_0_81f347fe89" y="206.198161"/>
    </g>
    <g clip-path="url(#p654d2d3bbb)">
     <use style="fill:#c44e52;fill-opacity:0.3;" x="245.219688" xlink:href="#C3_0_81f347fe89" y="209.85664"/>
    </g>
    <g clip-path="url(#p654d2d3bbb)">
     <use style="fill:#c44e52;fill-opacity:0.3;" x="245.095675" xlink:href="#C3_0_81f347fe89" y="214.042448"/>
    </g>
    <g clip-path="url(#p654d2d3bbb)">
     <use style="fill:#c44e52;fill-opacity:0.3;" x="241.723014" xlink:href="#C3_0_81f347fe89" y="230.327843"/>
    </g>
    <g clip-path="url(#p654d2d3bbb)">
     <use style="fill:#c44e52;fill-opacity:0.3;" x="247.642755" xlink:href="#C3_0_81f347fe89" y="223.549443"/>
    </g>
    <g clip-path="url(#p654d2d3bbb)">
     <use style="fill:#c44e52;fill-opacity:0.3;" x="250.851205" xlink:href="#C3_0_81f347fe89" y="226.956793"/>
    </g>
    <g clip-path="url(#p654d2d3bbb)">
     <use style="fill:#c44e52;fill-opacity:0.3;" x="246.913701" xlink:href="#C3_0_81f347fe89" y="225.782345"/>
    </g>
    <g clip-path="url(#p654d2d3bbb)">
     <use style="fill:#c44e52;fill-opacity:0.3;" x="247.478889" xlink:href="#C3_0_81f347fe89" y="221.362714"/>
    </g>
    <g clip-path="url(#p654d2d3bbb)">
     <use style="fill:#c44e52;fill-opacity:0.3;" x="253.580237" xlink:href="#C3_0_81f347fe89" y="219.784466"/>
    </g>
    <g clip-path="url(#p654d2d3bbb)">
     <use style="fill:#c44e52;fill-opacity:0.3;" x="247.196481" xlink:href="#C3_0_81f347fe89" y="214.905507"/>
    </g>
    <g clip-path="url(#p654d2d3bbb)">
     <use style="fill:#c44e52;fill-opacity:0.3;" x="247.643808" xlink:href="#C3_0_81f347fe89" y="222.737832"/>
    </g>
    <g clip-path="url(#p654d2d3bbb)">
     <use style="fill:#c44e52;fill-opacity:0.3;" x="247.377545" xlink:href="#C3_0_81f347fe89" y="185.293583"/>
    </g>
    <g clip-path="url(#p654d2d3bbb)">
     <use style="fill:#c44e52;fill-opacity:0.3;" x="251.622344" xlink:href="#C3_0_81f347fe89" y="207.543524"/>
    </g>
    <g clip-path="url(#p654d2d3bbb)">
     <use style="fill:#c44e52;fill-opacity:0.3;" x="246.766032" xlink:href="#C3_0_81f347fe89" y="212.427907"/>
    </g>
    <g clip-path="url(#p654d2d3bbb)">
     <use style="fill:#c44e52;fill-opacity:0.3;" x="249.211748" xlink:href="#C3_0_81f347fe89" y="217.358391"/>
    </g>
    <g clip-path="url(#p654d2d3bbb)">
     <use style="fill:#c44e52;fill-opacity:0.3;" x="253.819665" xlink:href="#C3_0_81f347fe89" y="219.076111"/>
    </g>
    <g clip-path="url(#p654d2d3bbb)">
     <use style="fill:#c44e52;fill-opacity:0.3;" x="247.74774" xlink:href="#C3_0_81f347fe89" y="204.608816"/>
    </g>
    <g clip-path="url(#p654d2d3bbb)">
     <use style="fill:#c44e52;fill-opacity:0.3;" x="247.986689" xlink:href="#C3_0_81f347fe89" y="225.938994"/>
    </g>
   </g>
   <g id="PathCollection_5"/>
   <g id="PathCollection_6"/>
   <g id="PathCollection_7"/>
   <g id="PathCollection_8"/>
   <g id="PathCollection_9">
    <defs>
     <path d="M 4.229935 0 
L -4.229935 -0 
" id="m823522481a" style="stroke:#001c7f;stroke-width:2.53125;"/>
    </defs>
    <g clip-path="url(#p654d2d3bbb)">
     <use style="fill:#001c7f;stroke:#001c7f;stroke-width:2.53125;" x="98.567875" xlink:href="#m823522481a" y="84.552339"/>
    </g>
   </g>
   <g id="matplotlib.axis_1">
    <g id="text_1">
     <!-- CRK edited seHSQC/CLIP-COSY -->
     <g transform="translate(83.208438 272.848125)scale(0.12 -0.12)">
      <defs>
       <path d="M 37.84375 73.6875 
Q 51.46875 73.6875 58.984375 66.5 
Q 66.5 59.328125 67.328125 50.203125 
L 57.859375 50.203125 
Q 56.25 57.125 51.4375 61.171875 
Q 46.625 65.234375 37.9375 65.234375 
Q 27.34375 65.234375 20.828125 57.78125 
Q 14.3125 50.34375 14.3125 34.96875 
Q 14.3125 22.359375 20.1875 14.515625 
Q 26.078125 6.6875 37.75 6.6875 
Q 48.484375 6.6875 54.109375 14.9375 
Q 57.078125 19.28125 58.546875 26.375 
L 68.015625 26.375 
Q 66.75 15.046875 59.625 7.375 
Q 51.078125 -1.859375 36.578125 -1.859375 
Q 24.078125 -1.859375 15.578125 5.71875 
Q 4.390625 15.71875 4.390625 36.625 
Q 4.390625 52.484375 12.796875 62.640625 
Q 21.875 73.6875 37.84375 73.6875 
z
M 35.890625 73.6875 
z
" id="Helvetica-67"/>
       <path d="M 40.96875 38.875 
Q 47.796875 38.875 51.78125 41.609375 
Q 55.765625 44.34375 55.765625 51.46875 
Q 55.765625 59.125 50.203125 61.921875 
Q 47.21875 63.375 42.234375 63.375 
L 18.5 63.375 
L 18.5 38.875 
z
M 8.796875 71.734375 
L 42 71.734375 
Q 50.203125 71.734375 55.515625 69.34375 
Q 65.625 64.75 65.625 52.390625 
Q 65.625 45.953125 62.953125 41.84375 
Q 60.296875 37.75 55.515625 35.25 
Q 59.71875 33.546875 61.84375 30.765625 
Q 63.96875 27.984375 64.203125 21.734375 
L 64.546875 12.109375 
Q 64.703125 8.015625 65.234375 6 
Q 66.109375 2.59375 68.359375 1.609375 
L 68.359375 0 
L 56.453125 0 
Q 55.953125 0.921875 55.65625 2.390625 
Q 55.375 3.859375 55.171875 8.0625 
L 54.59375 20.015625 
Q 54.25 27.046875 49.359375 29.4375 
Q 46.578125 30.765625 40.625 30.765625 
L 18.5 30.765625 
L 18.5 0 
L 8.796875 0 
z
" id="Helvetica-82"/>
       <path d="M 7.625 71.734375 
L 17.09375 71.734375 
L 17.09375 36.765625 
L 52.046875 71.734375 
L 65.484375 71.734375 
L 35.640625 42.828125 
L 66.3125 0 
L 53.65625 0 
L 28.5625 35.984375 
L 17.09375 25 
L 17.09375 0 
L 7.625 0 
z
" id="Helvetica-75"/>
       <path id="Helvetica-32"/>
       <path d="M 28.21875 53.46875 
Q 33.796875 53.46875 39.015625 50.859375 
Q 44.234375 48.25 46.96875 44.09375 
Q 49.609375 40.140625 50.484375 34.859375 
Q 51.265625 31.25 51.265625 23.34375 
L 12.9375 23.34375 
Q 13.1875 15.375 16.703125 10.5625 
Q 20.21875 5.765625 27.59375 5.765625 
Q 34.46875 5.765625 38.578125 10.296875 
Q 40.921875 12.9375 41.890625 16.40625 
L 50.53125 16.40625 
Q 50.203125 13.53125 48.265625 9.984375 
Q 46.34375 6.453125 43.953125 4.203125 
Q 39.9375 0.296875 34.03125 -1.078125 
Q 30.859375 -1.859375 26.859375 -1.859375 
Q 17.09375 -1.859375 10.296875 5.25 
Q 3.515625 12.359375 3.515625 25.140625 
Q 3.515625 37.75 10.34375 45.609375 
Q 17.1875 53.46875 28.21875 53.46875 
z
M 42.234375 30.328125 
Q 41.703125 36.03125 39.75 39.453125 
Q 36.140625 45.796875 27.6875 45.796875 
Q 21.625 45.796875 17.515625 41.421875 
Q 13.421875 37.0625 13.1875 30.328125 
z
M 27.390625 53.5625 
z
" id="Helvetica-101"/>
       <path d="M 12.015625 25.53125 
Q 12.015625 17.140625 15.578125 11.46875 
Q 19.140625 5.8125 27 5.8125 
Q 33.109375 5.8125 37.03125 11.0625 
Q 40.96875 16.3125 40.96875 26.125 
Q 40.96875 36.03125 36.90625 40.796875 
Q 32.859375 45.5625 26.90625 45.5625 
Q 20.265625 45.5625 16.140625 40.484375 
Q 12.015625 35.40625 12.015625 25.53125 
z
M 25.25 53.21875 
Q 31.25 53.21875 35.296875 50.6875 
Q 37.640625 49.21875 40.625 45.5625 
L 40.625 71.96875 
L 49.078125 71.96875 
L 49.078125 0 
L 41.15625 0 
L 41.15625 7.28125 
Q 38.09375 2.4375 33.890625 0.28125 
Q 29.6875 -1.859375 24.265625 -1.859375 
Q 15.53125 -1.859375 9.125 5.484375 
Q 2.734375 12.84375 2.734375 25.046875 
Q 2.734375 36.46875 8.5625 44.84375 
Q 14.40625 53.21875 25.25 53.21875 
z
" id="Helvetica-100"/>
       <path d="M 6.453125 52.046875 
L 15.375 52.046875 
L 15.375 0 
L 6.453125 0 
z
M 6.453125 71.734375 
L 15.375 71.734375 
L 15.375 61.765625 
L 6.453125 61.765625 
z
" id="Helvetica-105"/>
       <path d="M 8.203125 66.890625 
L 17.09375 66.890625 
L 17.09375 52.296875 
L 25.4375 52.296875 
L 25.4375 45.125 
L 17.09375 45.125 
L 17.09375 10.984375 
Q 17.09375 8.25 18.953125 7.328125 
Q 19.96875 6.78125 22.359375 6.78125 
Q 23 6.78125 23.734375 6.8125 
Q 24.46875 6.84375 25.4375 6.9375 
L 25.4375 0 
Q 23.921875 -0.4375 22.28125 -0.625 
Q 20.65625 -0.828125 18.75 -0.828125 
Q 12.59375 -0.828125 10.390625 2.3125 
Q 8.203125 5.46875 8.203125 10.5 
L 8.203125 45.125 
L 1.125 45.125 
L 1.125 52.296875 
L 8.203125 52.296875 
z
" id="Helvetica-116"/>
       <path d="M 11.671875 16.40625 
Q 12.0625 12.015625 13.875 9.671875 
Q 17.1875 5.421875 25.390625 5.421875 
Q 30.28125 5.421875 33.984375 7.546875 
Q 37.703125 9.671875 37.703125 14.109375 
Q 37.703125 17.484375 34.71875 19.234375 
Q 32.8125 20.3125 27.203125 21.734375 
L 20.21875 23.484375 
Q 13.53125 25.140625 10.359375 27.203125 
Q 4.6875 30.765625 4.6875 37.0625 
Q 4.6875 44.484375 10.03125 49.0625 
Q 15.375 53.65625 24.421875 53.65625 
Q 36.234375 53.65625 41.453125 46.734375 
Q 44.734375 42.328125 44.625 37.25 
L 36.328125 37.25 
Q 36.078125 40.234375 34.234375 42.671875 
Q 31.203125 46.140625 23.734375 46.140625 
Q 18.75 46.140625 16.1875 44.234375 
Q 13.625 42.328125 13.625 39.203125 
Q 13.625 35.796875 17 33.734375 
Q 18.953125 32.515625 22.75 31.59375 
L 28.5625 30.171875 
Q 38.03125 27.875 41.265625 25.734375 
Q 46.390625 22.359375 46.390625 15.140625 
Q 46.390625 8.15625 41.09375 3.078125 
Q 35.796875 -2 24.953125 -2 
Q 13.28125 -2 8.421875 3.296875 
Q 3.5625 8.59375 3.21875 16.40625 
z
M 24.65625 53.5625 
z
" id="Helvetica-115"/>
       <path d="M 7.859375 71.734375 
L 17.671875 71.734375 
L 17.671875 42.09375 
L 54.984375 42.09375 
L 54.984375 71.734375 
L 64.796875 71.734375 
L 64.796875 0 
L 54.984375 0 
L 54.984375 33.546875 
L 17.671875 33.546875 
L 17.671875 0 
L 7.859375 0 
z
" id="Helvetica-72"/>
       <path d="M 13.96875 23.140625 
Q 14.3125 17.046875 16.84375 13.234375 
Q 21.6875 6.109375 33.890625 6.109375 
Q 39.359375 6.109375 43.84375 7.671875 
Q 52.546875 10.6875 52.546875 18.5 
Q 52.546875 24.359375 48.875 26.859375 
Q 45.171875 29.296875 37.25 31.109375 
L 27.546875 33.296875 
Q 18.015625 35.453125 14.0625 38.03125 
Q 7.234375 42.53125 7.234375 51.46875 
Q 7.234375 61.140625 13.921875 67.328125 
Q 20.609375 73.53125 32.859375 73.53125 
Q 44.140625 73.53125 52.015625 68.078125 
Q 59.90625 62.640625 59.90625 50.6875 
L 50.78125 50.6875 
Q 50.046875 56.453125 47.65625 59.515625 
Q 43.21875 65.140625 32.5625 65.140625 
Q 23.96875 65.140625 20.203125 61.515625 
Q 16.453125 57.90625 16.453125 53.125 
Q 16.453125 47.859375 20.84375 45.40625 
Q 23.734375 43.84375 33.890625 41.5 
L 43.953125 39.203125 
Q 51.21875 37.546875 55.171875 34.671875 
Q 62.015625 29.640625 62.015625 20.0625 
Q 62.015625 8.15625 53.34375 3.03125 
Q 44.671875 -2.09375 33.203125 -2.09375 
Q 19.828125 -2.09375 12.25 4.734375 
Q 4.6875 11.53125 4.828125 23.140625 
z
M 33.59375 73.6875 
z
" id="Helvetica-83"/>
       <path d="M 73.25 0.203125 
L 68.359375 -5.71875 
L 57.28125 2.734375 
Q 53.265625 0.53125 48.609375 -0.78125 
Q 43.953125 -2.09375 38.421875 -2.09375 
Q 21.734375 -2.09375 12.25 8.84375 
Q 3.90625 19.484375 3.90625 35.5 
Q 3.90625 50.046875 11.140625 60.40625 
Q 20.40625 73.6875 38.578125 73.6875 
Q 57.5625 73.6875 66.703125 61.46875 
Q 73.828125 51.953125 73.828125 37.109375 
Q 73.828125 30.171875 72.125 23.78125 
Q 69.53125 14.015625 63.375 7.859375 
z
M 39.59375 6.59375 
Q 42.625 6.59375 45.265625 7 
Q 47.90625 7.421875 49.859375 8.640625 
L 42 14.796875 
L 46.875 20.796875 
L 56.25 13.53125 
Q 60.6875 18.609375 62.28125 24.90625 
Q 63.875 31.203125 63.875 36.96875 
Q 63.875 49.609375 57.25 57.328125 
Q 50.640625 65.046875 39.15625 65.046875 
Q 27.546875 65.046875 20.75 57.640625 
Q 13.96875 50.25 13.96875 34.859375 
Q 13.96875 21.921875 20.484375 14.25 
Q 27 6.59375 39.59375 6.59375 
z
" id="Helvetica-81"/>
       <path d="M 22.75 71.734375 
L 30.171875 71.734375 
L 7.421875 0 
L 0 0 
z
" id="Helvetica-47"/>
       <path d="M 7.625 71.734375 
L 17.328125 71.734375 
L 17.328125 8.546875 
L 53.65625 8.546875 
L 53.65625 0 
L 7.625 0 
z
" id="Helvetica-76"/>
       <path d="M 9.8125 71.734375 
L 19.625 71.734375 
L 19.625 0 
L 9.8125 0 
z
" id="Helvetica-73"/>
       <path d="M 8.546875 71.734375 
L 40.828125 71.734375 
Q 50.390625 71.734375 56.25 66.328125 
Q 62.109375 60.9375 62.109375 51.171875 
Q 62.109375 42.78125 56.875 36.546875 
Q 51.65625 30.328125 40.828125 30.328125 
L 18.265625 30.328125 
L 18.265625 0 
L 8.546875 0 
z
M 52.296875 51.125 
Q 52.296875 59.03125 46.4375 61.859375 
Q 43.21875 63.375 37.59375 63.375 
L 18.265625 63.375 
L 18.265625 38.53125 
L 37.59375 38.53125 
Q 44.140625 38.53125 48.21875 41.3125 
Q 52.296875 44.09375 52.296875 51.125 
z
" id="Helvetica-80"/>
       <path d="M 4.15625 32.375 
L 28.65625 32.375 
L 28.65625 23.34375 
L 4.15625 23.34375 
z
" id="Helvetica-45"/>
       <path d="M 38.578125 73.6875 
Q 57.5625 73.6875 66.703125 61.46875 
Q 73.828125 51.953125 73.828125 37.109375 
Q 73.828125 21.046875 65.671875 10.40625 
Q 56.109375 -2.09375 38.375 -2.09375 
Q 21.828125 -2.09375 12.359375 8.84375 
Q 3.90625 19.390625 3.90625 35.5 
Q 3.90625 50.046875 11.140625 60.40625 
Q 20.40625 73.6875 38.578125 73.6875 
z
M 39.546875 6.59375 
Q 52.390625 6.59375 58.125 15.796875 
Q 63.875 25 63.875 36.96875 
Q 63.875 49.609375 57.25 57.328125 
Q 50.640625 65.046875 39.15625 65.046875 
Q 28.03125 65.046875 21 57.390625 
Q 13.96875 49.75 13.96875 34.859375 
Q 13.96875 22.953125 20 14.765625 
Q 26.03125 6.59375 39.546875 6.59375 
z
M 38.875 73.6875 
z
" id="Helvetica-79"/>
       <path d="M 2.046875 71.734375 
L 13.375 71.734375 
L 33.984375 37.25 
L 54.59375 71.734375 
L 65.96875 71.734375 
L 38.875 28.90625 
L 38.875 0 
L 29.15625 0 
L 29.15625 28.90625 
z
M 34.125 71.734375 
z
" id="Helvetica-89"/>
      </defs>
      <use xlink:href="#Helvetica-67"/>
      <use x="72.216797" xlink:href="#Helvetica-82"/>
      <use x="144.433594" xlink:href="#Helvetica-75"/>
      <use x="211.132812" xlink:href="#Helvetica-32"/>
      <use x="238.916016" xlink:href="#Helvetica-101"/>
      <use x="294.53125" xlink:href="#Helvetica-100"/>
      <use x="350.146484" xlink:href="#Helvetica-105"/>
      <use x="372.363281" xlink:href="#Helvetica-116"/>
      <use x="400.146484" xlink:href="#Helvetica-101"/>
      <use x="455.761719" xlink:href="#Helvetica-100"/>
      <use x="511.376953" xlink:href="#Helvetica-32"/>
      <use x="539.160156" xlink:href="#Helvetica-115"/>
      <use x="589.160156" xlink:href="#Helvetica-101"/>
      <use x="644.775391" xlink:href="#Helvetica-72"/>
      <use x="716.992188" xlink:href="#Helvetica-83"/>
      <use x="783.691406" xlink:href="#Helvetica-81"/>
      <use x="861.474609" xlink:href="#Helvetica-67"/>
      <use x="933.691406" xlink:href="#Helvetica-47"/>
      <use x="961.474609" xlink:href="#Helvetica-67"/>
      <use x="1033.691406" xlink:href="#Helvetica-76"/>
      <use x="1089.306641" xlink:href="#Helvetica-73"/>
      <use x="1117.089844" xlink:href="#Helvetica-80"/>
      <use x="1183.789062" xlink:href="#Helvetica-45"/>
      <use x="1217.089844" xlink:href="#Helvetica-67"/>
      <use x="1289.306641" xlink:href="#Helvetica-79"/>
      <use x="1367.089844" xlink:href="#Helvetica-83"/>
      <use x="1433.789062" xlink:href="#Helvetica-89"/>
     </g>
    </g>
   </g>
   <g id="matplotlib.axis_2">
    <g id="ytick_1">
     <g id="line2d_1">
      <defs>
       <path d="M 0 0 
L -3.5 0 
" id="m27e6c7b9ae" style="stroke:#000000;stroke-width:0.8;"/>
      </defs>
      <g>
       <use style="stroke:#000000;stroke-width:0.8;" x="48.78875" xlink:href="#m27e6c7b9ae" y="234.65931"/>
      </g>
     </g>
     <g id="text_2">
      <!-- 0.0 -->
      <g transform="translate(27.89431 238.244594)scale(0.09996 -0.09996)">
       <defs>
        <path d="M 27.046875 69.921875 
Q 40.625 69.921875 46.6875 58.734375 
Q 51.375 50.09375 51.375 35.0625 
Q 51.375 20.796875 47.125 11.46875 
Q 40.96875 -1.90625 27 -1.90625 
Q 14.40625 -1.90625 8.25 9.03125 
Q 3.125 18.171875 3.125 33.546875 
Q 3.125 45.453125 6.203125 54 
Q 11.96875 69.921875 27.046875 69.921875 
z
M 26.953125 6.109375 
Q 33.796875 6.109375 37.84375 12.15625 
Q 41.890625 18.21875 41.890625 34.71875 
Q 41.890625 46.625 38.953125 54.3125 
Q 36.03125 62.015625 27.59375 62.015625 
Q 19.828125 62.015625 16.234375 54.703125 
Q 12.640625 47.40625 12.640625 33.203125 
Q 12.640625 22.515625 14.9375 16.015625 
Q 18.453125 6.109375 26.953125 6.109375 
z
" id="Helvetica-48"/>
        <path d="M 8.546875 10.640625 
L 18.75 10.640625 
L 18.75 0 
L 8.546875 0 
z
" id="Helvetica-46"/>
       </defs>
       <use xlink:href="#Helvetica-48"/>
       <use x="55.615234" xlink:href="#Helvetica-46"/>
       <use x="83.398438" xlink:href="#Helvetica-48"/>
      </g>
     </g>
    </g>
    <g id="ytick_2">
     <g id="line2d_2">
      <g>
       <use style="stroke:#000000;stroke-width:0.8;" x="48.78875" xlink:href="#m27e6c7b9ae" y="192.024828"/>
      </g>
     </g>
     <g id="text_3">
      <!-- 0.5 -->
      <g transform="translate(27.89431 195.610112)scale(0.09996 -0.09996)">
       <defs>
        <path d="M 12.359375 17.828125 
Q 13.234375 10.296875 19.34375 7.421875 
Q 22.46875 5.953125 26.5625 5.953125 
Q 34.375 5.953125 38.125 10.9375 
Q 41.890625 15.921875 41.890625 21.96875 
Q 41.890625 29.296875 37.421875 33.296875 
Q 32.953125 37.3125 26.703125 37.3125 
Q 22.171875 37.3125 18.921875 35.546875 
Q 15.671875 33.796875 13.375 30.671875 
L 5.765625 31.109375 
L 11.078125 68.75 
L 47.40625 68.75 
L 47.40625 60.25 
L 17.671875 60.25 
L 14.703125 40.828125 
Q 17.140625 42.671875 19.34375 43.609375 
Q 23.25 45.21875 28.375 45.21875 
Q 37.984375 45.21875 44.671875 39.015625 
Q 51.375 32.8125 51.375 23.296875 
Q 51.375 13.375 45.234375 5.796875 
Q 39.109375 -1.765625 25.6875 -1.765625 
Q 17.140625 -1.765625 10.5625 3.046875 
Q 4 7.859375 3.21875 17.828125 
z
" id="Helvetica-53"/>
       </defs>
       <use xlink:href="#Helvetica-48"/>
       <use x="55.615234" xlink:href="#Helvetica-46"/>
       <use x="83.398438" xlink:href="#Helvetica-53"/>
      </g>
     </g>
    </g>
    <g id="ytick_3">
     <g id="line2d_3">
      <g>
       <use style="stroke:#000000;stroke-width:0.8;" x="48.78875" xlink:href="#m27e6c7b9ae" y="149.390345"/>
      </g>
     </g>
     <g id="text_4">
      <!-- 1.0 -->
      <g transform="translate(27.89431 152.975629)scale(0.09996 -0.09996)">
       <defs>
        <path d="M 9.578125 49.515625 
L 9.578125 56.25 
Q 19.09375 57.171875 22.84375 59.34375 
Q 26.609375 61.53125 28.46875 69.625 
L 35.40625 69.625 
L 35.40625 0 
L 26.03125 0 
L 26.03125 49.515625 
z
" id="Helvetica-49"/>
       </defs>
       <use xlink:href="#Helvetica-49"/>
       <use x="55.615234" xlink:href="#Helvetica-46"/>
       <use x="83.398438" xlink:href="#Helvetica-48"/>
      </g>
     </g>
    </g>
    <g id="ytick_4">
     <g id="line2d_4">
      <g>
       <use style="stroke:#000000;stroke-width:0.8;" x="48.78875" xlink:href="#m27e6c7b9ae" y="106.755862"/>
      </g>
     </g>
     <g id="text_5">
      <!-- 1.5 -->
      <g transform="translate(27.89431 110.341146)scale(0.09996 -0.09996)">
       <use xlink:href="#Helvetica-49"/>
       <use x="55.615234" xlink:href="#Helvetica-46"/>
       <use x="83.398438" xlink:href="#Helvetica-53"/>
      </g>
     </g>
    </g>
    <g id="ytick_5">
     <g id="line2d_5">
      <g>
       <use style="stroke:#000000;stroke-width:0.8;" x="48.78875" xlink:href="#m27e6c7b9ae" y="64.121379"/>
      </g>
     </g>
     <g id="text_6">
      <!-- 2.0 -->
      <g transform="translate(27.89431 67.706663)scale(0.09996 -0.09996)">
       <defs>
        <path d="M 3.125 0 
Q 3.609375 9.03125 6.859375 15.71875 
Q 10.109375 22.40625 19.53125 27.875 
L 28.90625 33.296875 
Q 35.203125 36.96875 37.75 39.546875 
Q 41.75 43.609375 41.75 48.828125 
Q 41.75 54.9375 38.078125 58.515625 
Q 34.421875 62.109375 28.328125 62.109375 
Q 19.28125 62.109375 15.828125 55.28125 
Q 13.96875 51.609375 13.765625 45.125 
L 4.828125 45.125 
Q 4.984375 54.25 8.203125 60.015625 
Q 13.921875 70.171875 28.375 70.171875 
Q 40.375 70.171875 45.921875 63.671875 
Q 51.46875 57.171875 51.46875 49.21875 
Q 51.46875 40.828125 45.5625 34.859375 
Q 42.140625 31.390625 33.296875 26.46875 
L 26.609375 22.75 
Q 21.828125 20.125 19.09375 17.71875 
Q 14.203125 13.484375 12.9375 8.296875 
L 51.125 8.296875 
L 51.125 0 
L 3.125 0 
z
" id="Helvetica-50"/>
       </defs>
       <use xlink:href="#Helvetica-50"/>
       <use x="55.615234" xlink:href="#Helvetica-46"/>
       <use x="83.398438" xlink:href="#Helvetica-48"/>
      </g>
     </g>
    </g>
    <g id="ytick_6">
     <g id="line2d_6">
      <g>
       <use style="stroke:#000000;stroke-width:0.8;" x="48.78875" xlink:href="#m27e6c7b9ae" y="21.486897"/>
      </g>
     </g>
     <g id="text_7">
      <!-- 2.5 -->
      <g transform="translate(27.89431 25.072181)scale(0.09996 -0.09996)">
       <use xlink:href="#Helvetica-50"/>
       <use x="55.615234" xlink:href="#Helvetica-46"/>
       <use x="83.398438" xlink:href="#Helvetica-53"/>
      </g>
     </g>
    </g>
    <g id="text_8">
     <!-- intensity vs NOAH edited HSQC/CLIP-COSY -->
     <g transform="translate(21.32181 256.301875)rotate(-90)scale(0.12 -0.12)">
      <defs>
       <path d="M 6.453125 52.296875 
L 14.796875 52.296875 
L 14.796875 44.875 
Q 18.5 49.46875 22.65625 51.46875 
Q 26.8125 53.46875 31.890625 53.46875 
Q 43.015625 53.46875 46.921875 45.703125 
Q 49.078125 41.453125 49.078125 33.546875 
L 49.078125 0 
L 40.140625 0 
L 40.140625 32.953125 
Q 40.140625 37.75 38.71875 40.671875 
Q 36.375 45.5625 30.21875 45.5625 
Q 27.09375 45.5625 25.09375 44.921875 
Q 21.484375 43.84375 18.75 40.625 
Q 16.546875 38.03125 15.890625 35.265625 
Q 15.234375 32.515625 15.234375 27.390625 
L 15.234375 0 
L 6.453125 0 
z
M 27.09375 53.5625 
z
" id="Helvetica-110"/>
       <path d="M 39.109375 52.296875 
L 48.828125 52.296875 
Q 46.96875 47.265625 40.578125 29.34375 
Q 35.796875 15.875 32.5625 7.375 
Q 24.953125 -12.640625 21.828125 -17.03125 
Q 18.703125 -21.4375 11.078125 -21.4375 
Q 9.234375 -21.4375 8.234375 -21.28125 
Q 7.234375 -21.140625 5.765625 -20.75 
L 5.765625 -12.75 
Q 8.0625 -13.375 9.078125 -13.515625 
Q 10.109375 -13.671875 10.890625 -13.671875 
Q 13.328125 -13.671875 14.46875 -12.859375 
Q 15.625 -12.0625 16.40625 -10.890625 
Q 16.65625 -10.5 18.15625 -6.875 
Q 19.671875 -3.265625 20.359375 -1.515625 
L 1.03125 52.296875 
L 10.984375 52.296875 
L 25 9.71875 
z
M 24.953125 53.5625 
z
" id="Helvetica-121"/>
       <path d="M 10.75 52.296875 
L 24.703125 9.71875 
L 39.3125 52.296875 
L 48.921875 52.296875 
L 29.203125 0 
L 19.828125 0 
L 0.53125 52.296875 
z
" id="Helvetica-118"/>
       <path d="M 7.625 71.734375 
L 19.09375 71.734375 
L 55.328125 13.625 
L 55.328125 71.734375 
L 64.546875 71.734375 
L 64.546875 0 
L 53.65625 0 
L 16.890625 58.0625 
L 16.890625 0 
L 7.625 0 
z
M 35.453125 71.734375 
z
" id="Helvetica-78"/>
       <path d="M 44.4375 29.390625 
L 33.546875 61.078125 
L 21.96875 29.390625 
z
M 28.46875 71.734375 
L 39.453125 71.734375 
L 65.484375 0 
L 54.828125 0 
L 47.5625 21.484375 
L 19.1875 21.484375 
L 11.421875 0 
L 1.46875 0 
z
" id="Helvetica-65"/>
      </defs>
      <use xlink:href="#Helvetica-105"/>
      <use x="22.216797" xlink:href="#Helvetica-110"/>
      <use x="77.832031" xlink:href="#Helvetica-116"/>
      <use x="105.615234" xlink:href="#Helvetica-101"/>
      <use x="161.230469" xlink:href="#Helvetica-110"/>
      <use x="216.845703" xlink:href="#Helvetica-115"/>
      <use x="266.845703" xlink:href="#Helvetica-105"/>
      <use x="289.0625" xlink:href="#Helvetica-116"/>
      <use x="316.845703" xlink:href="#Helvetica-121"/>
      <use x="366.845703" xlink:href="#Helvetica-32"/>
      <use x="394.628906" xlink:href="#Helvetica-118"/>
      <use x="444.628906" xlink:href="#Helvetica-115"/>
      <use x="494.628906" xlink:href="#Helvetica-32"/>
      <use x="522.412109" xlink:href="#Helvetica-78"/>
      <use x="594.628906" xlink:href="#Helvetica-79"/>
      <use x="672.412109" xlink:href="#Helvetica-65"/>
      <use x="739.111328" xlink:href="#Helvetica-72"/>
      <use x="811.328125" xlink:href="#Helvetica-32"/>
      <use x="839.111328" xlink:href="#Helvetica-101"/>
      <use x="894.726562" xlink:href="#Helvetica-100"/>
      <use x="950.341797" xlink:href="#Helvetica-105"/>
      <use x="972.558594" xlink:href="#Helvetica-116"/>
      <use x="1000.341797" xlink:href="#Helvetica-101"/>
      <use x="1055.957031" xlink:href="#Helvetica-100"/>
      <use x="1111.572266" xlink:href="#Helvetica-32"/>
      <use x="1139.355469" xlink:href="#Helvetica-72"/>
      <use x="1211.572266" xlink:href="#Helvetica-83"/>
      <use x="1278.271484" xlink:href="#Helvetica-81"/>
      <use x="1356.054688" xlink:href="#Helvetica-67"/>
      <use x="1428.271484" xlink:href="#Helvetica-47"/>
      <use x="1456.054688" xlink:href="#Helvetica-67"/>
      <use x="1528.271484" xlink:href="#Helvetica-76"/>
      <use x="1583.886719" xlink:href="#Helvetica-73"/>
      <use x="1611.669922" xlink:href="#Helvetica-80"/>
      <use x="1678.369141" xlink:href="#Helvetica-45"/>
      <use x="1711.669922" xlink:href="#Helvetica-67"/>
      <use x="1783.886719" xlink:href="#Helvetica-79"/>
      <use x="1861.669922" xlink:href="#Helvetica-83"/>
      <use x="1928.369141" xlink:href="#Helvetica-89"/>
     </g>
    </g>
   </g>
   <g id="PathCollection_10">
    <defs>
     <path d="M 4.229935 0 
L -4.229935 -0 
" id="m6917a4c339" style="stroke:#b1400d;stroke-width:2.53125;"/>
    </defs>
    <g clip-path="url(#p654d2d3bbb)">
     <use style="fill:#b1400d;stroke:#b1400d;stroke-width:2.53125;" x="148.347" xlink:href="#m6917a4c339" y="120.319669"/>
    </g>
   </g>
   <g id="line2d_7">
    <path clip-path="url(#p654d2d3bbb)" d="M 48.78875 149.390345 
L 297.684375 149.390345 
" style="fill:none;stroke:#808080;stroke-dasharray:1.85,0.8;stroke-dashoffset:0;stroke-width:0.5;"/>
   </g>
   <g id="patch_3">
    <path d="M 48.78875 260.24 
L 48.78875 12.96 
" style="fill:none;stroke:#000000;stroke-linecap:square;stroke-linejoin:miter;stroke-width:1.3;"/>
   </g>
   <g id="patch_4">
    <path d="M 297.684375 260.24 
L 297.684375 12.96 
" style="fill:none;stroke:#000000;stroke-linecap:square;stroke-linejoin:miter;stroke-width:1.3;"/>
   </g>
   <g id="patch_5">
    <path d="M 48.78875 260.24 
L 297.684375 260.24 
" style="fill:none;stroke:#000000;stroke-linecap:square;stroke-linejoin:miter;stroke-width:1.3;"/>
   </g>
   <g id="patch_6">
    <path d="M 48.78875 12.96 
L 297.684375 12.96 
" style="fill:none;stroke:#000000;stroke-linecap:square;stroke-linejoin:miter;stroke-width:1.3;"/>
   </g>
   <g id="PathCollection_11">
    <defs>
     <path d="M 4.229935 0 
L -4.229935 -0 
" id="me0a13b8279" style="stroke:#12711c;stroke-width:2.53125;"/>
    </defs>
    <g clip-path="url(#p654d2d3bbb)">
     <use style="fill:#12711c;stroke:#12711c;stroke-width:2.53125;" x="198.126125" xlink:href="#me0a13b8279" y="129.155595"/>
    </g>
   </g>
   <g id="text_9">
    <!-- (1.76) -->
    <g style="fill:#4c72b0;" transform="translate(82.895688 255.2944)scale(0.12 -0.12)">
     <defs>
      <path d="M 29.59375 72.90625 
Q 21.921875 58.015625 19.625 50.984375 
Q 16.15625 40.28125 16.15625 26.265625 
Q 16.15625 12.109375 20.125 0.390625 
Q 22.5625 -6.84375 29.734375 -20.40625 
L 23.828125 -20.40625 
Q 16.703125 -9.28125 14.984375 -6.203125 
Q 13.28125 -3.125 11.28125 2.15625 
Q 8.546875 9.375 7.46875 17.578125 
Q 6.9375 21.828125 6.9375 25.6875 
Q 6.9375 40.140625 11.46875 51.421875 
Q 14.359375 58.59375 23.484375 72.90625 
z
" id="Helvetica-40"/>
      <path d="M 52.296875 68.75 
L 52.296875 61.078125 
Q 48.921875 57.8125 43.328125 49.703125 
Q 37.75 41.609375 33.453125 32.234375 
Q 29.203125 23.09375 27 15.578125 
Q 25.59375 10.75 23.34375 0 
L 13.625 0 
Q 16.9375 20.015625 28.265625 39.84375 
Q 34.96875 51.46875 42.328125 59.90625 
L 3.65625 59.90625 
L 3.65625 68.75 
z
" id="Helvetica-55"/>
      <path d="M 29.25 70.21875 
Q 40.96875 70.21875 45.578125 64.140625 
Q 50.203125 58.0625 50.203125 51.609375 
L 41.5 51.609375 
Q 40.71875 55.765625 39.015625 58.109375 
Q 35.84375 62.5 29.390625 62.5 
Q 22.015625 62.5 17.671875 55.6875 
Q 13.328125 48.875 12.84375 36.1875 
Q 15.875 40.625 20.453125 42.828125 
Q 24.65625 44.78125 29.828125 44.78125 
Q 38.625 44.78125 45.15625 39.15625 
Q 51.703125 33.546875 51.703125 22.40625 
Q 51.703125 12.890625 45.5 5.53125 
Q 39.3125 -1.8125 27.828125 -1.8125 
Q 18.015625 -1.8125 10.890625 5.640625 
Q 3.765625 13.09375 3.765625 30.71875 
Q 3.765625 43.75 6.9375 52.828125 
Q 13.03125 70.21875 29.25 70.21875 
z
M 28.609375 6 
Q 35.546875 6 38.984375 10.65625 
Q 42.4375 15.328125 42.4375 21.6875 
Q 42.4375 27.046875 39.359375 31.90625 
Q 36.28125 36.765625 28.171875 36.765625 
Q 22.515625 36.765625 18.234375 33 
Q 13.96875 29.25 13.96875 21.6875 
Q 13.96875 15.046875 17.84375 10.515625 
Q 21.734375 6 28.609375 6 
z
" id="Helvetica-54"/>
      <path d="M 3.46875 -20.40625 
Q 11.234375 -5.28125 13.484375 1.65625 
Q 16.890625 12.15625 16.890625 26.265625 
Q 16.890625 40.375 12.9375 52.09375 
Q 10.5 59.328125 3.328125 72.90625 
L 9.234375 72.90625 
Q 16.75 60.890625 18.328125 58.078125 
Q 19.921875 55.28125 21.78125 50.34375 
Q 24.125 44.234375 25.125 38.28125 
Q 26.125 32.328125 26.125 26.8125 
Q 26.125 12.359375 21.53125 1.03125 
Q 18.65625 -6.25 9.578125 -20.40625 
z
" id="Helvetica-41"/>
     </defs>
     <use xlink:href="#Helvetica-40"/>
     <use x="33.300781" xlink:href="#Helvetica-49"/>
     <use x="88.916016" xlink:href="#Helvetica-46"/>
     <use x="116.699219" xlink:href="#Helvetica-55"/>
     <use x="172.314453" xlink:href="#Helvetica-54"/>
     <use x="227.929688" xlink:href="#Helvetica-41"/>
    </g>
   </g>
   <g id="text_10">
    <!-- (1.34) -->
    <g style="fill:#dd8452;" transform="translate(132.674813 255.2944)scale(0.12 -0.12)">
     <defs>
      <path d="M 25.984375 -1.90625 
Q 13.578125 -1.90625 7.984375 4.90625 
Q 2.390625 11.71875 2.390625 21.484375 
L 11.578125 21.484375 
Q 12.15625 14.703125 14.109375 11.625 
Q 17.53125 6.109375 26.46875 6.109375 
Q 33.40625 6.109375 37.59375 9.8125 
Q 41.796875 13.53125 41.796875 19.390625 
Q 41.796875 26.609375 37.375 29.484375 
Q 32.953125 32.375 25.09375 32.375 
Q 24.21875 32.375 23.3125 32.34375 
Q 22.40625 32.328125 21.484375 32.28125 
L 21.484375 40.046875 
Q 22.859375 39.890625 23.78125 39.84375 
Q 24.703125 39.796875 25.78125 39.796875 
Q 30.71875 39.796875 33.890625 41.359375 
Q 39.453125 44.09375 39.453125 51.125 
Q 39.453125 56.34375 35.734375 59.171875 
Q 32.03125 62.015625 27.09375 62.015625 
Q 18.3125 62.015625 14.9375 56.15625 
Q 13.09375 52.9375 12.84375 46.96875 
L 4.15625 46.96875 
Q 4.15625 54.78125 7.28125 60.25 
Q 12.640625 70.015625 26.171875 70.015625 
Q 36.859375 70.015625 42.71875 65.25 
Q 48.578125 60.5 48.578125 51.46875 
Q 48.578125 45.015625 45.125 41.015625 
Q 42.96875 38.53125 39.546875 37.109375 
Q 45.0625 35.59375 48.15625 31.265625 
Q 51.265625 26.953125 51.265625 20.703125 
Q 51.265625 10.6875 44.671875 4.390625 
Q 38.09375 -1.90625 25.984375 -1.90625 
z
" id="Helvetica-51"/>
      <path d="M 33.0625 24.75 
L 33.0625 56.453125 
L 10.640625 24.75 
z
M 33.203125 0 
L 33.203125 17.09375 
L 2.546875 17.09375 
L 2.546875 25.6875 
L 34.578125 70.125 
L 42 70.125 
L 42 24.75 
L 52.296875 24.75 
L 52.296875 17.09375 
L 42 17.09375 
L 42 0 
z
" id="Helvetica-52"/>
     </defs>
     <use xlink:href="#Helvetica-40"/>
     <use x="33.300781" xlink:href="#Helvetica-49"/>
     <use x="88.916016" xlink:href="#Helvetica-46"/>
     <use x="116.699219" xlink:href="#Helvetica-51"/>
     <use x="172.314453" xlink:href="#Helvetica-52"/>
     <use x="227.929688" xlink:href="#Helvetica-41"/>
    </g>
   </g>
   <g id="text_11">
    <!-- (1.24) -->
    <g style="fill:#55a868;" transform="translate(182.453938 255.2944)scale(0.12 -0.12)">
     <use xlink:href="#Helvetica-40"/>
     <use x="33.300781" xlink:href="#Helvetica-49"/>
     <use x="88.916016" xlink:href="#Helvetica-46"/>
     <use x="116.699219" xlink:href="#Helvetica-50"/>
     <use x="172.314453" xlink:href="#Helvetica-52"/>
     <use x="227.929688" xlink:href="#Helvetica-41"/>
    </g>
   </g>
   <g id="text_12">
    <!-- (0.22) -->
    <g style="fill:#c44e52;" transform="translate(232.233063 255.2944)scale(0.12 -0.12)">
     <use xlink:href="#Helvetica-40"/>
     <use x="33.300781" xlink:href="#Helvetica-48"/>
     <use x="88.916016" xlink:href="#Helvetica-46"/>
     <use x="116.699219" xlink:href="#Helvetica-50"/>
     <use x="172.314453" xlink:href="#Helvetica-50"/>
     <use x="227.929688" xlink:href="#Helvetica-41"/>
    </g>
   </g>
   <g id="text_13">
    <!-- (a) -->
    <g transform="translate(53.766663 28.035913)scale(0.14 -0.14)">
     <defs>
      <path d="M 10.0625 53.8125 
Q 13.921875 62.796875 21.34375 73.140625 
L 31.84375 73.140625 
L 28.859375 67.671875 
Q 22.703125 56.390625 20.3125 44.046875 
Q 18.75 35.9375 18.75 26.375 
Q 18.75 11.421875 23.09375 -1.125 
Q 25.640625 -8.546875 32.078125 -20.171875 
L 21.78125 -20.171875 
L 18.3125 -15.4375 
Q 14.9375 -11.140625 11.140625 -2.640625 
Q 4.34375 12.546875 4.34375 27.25 
Q 4.34375 40.625 10.0625 53.8125 
z
" id="Helvetica-Bold-40"/>
      <path d="M 35.84375 25.875 
Q 34.515625 25.046875 33.171875 24.53125 
Q 31.84375 24.03125 29.5 23.578125 
L 26.375 23 
Q 21.96875 22.21875 20.0625 21.09375 
Q 16.84375 19.1875 16.84375 15.1875 
Q 16.84375 11.625 18.8125 10.03125 
Q 20.796875 8.453125 23.640625 8.453125 
Q 28.125 8.453125 31.90625 11.078125 
Q 35.6875 13.71875 35.84375 20.703125 
z
M 27.390625 32.375 
Q 31.25 32.859375 32.90625 33.59375 
Q 35.890625 34.859375 35.890625 37.546875 
Q 35.890625 40.828125 33.609375 42.0625 
Q 31.34375 43.3125 26.953125 43.3125 
Q 22.015625 43.3125 19.96875 40.875 
Q 18.5 39.0625 18.015625 35.984375 
L 4.59375 35.984375 
Q 5.03125 42.96875 8.5 47.46875 
Q 14.015625 54.5 27.4375 54.5 
Q 36.1875 54.5 42.96875 51.03125 
Q 49.75 47.5625 49.75 37.9375 
L 49.75 13.53125 
Q 49.75 10.984375 49.859375 7.375 
Q 50 4.640625 50.6875 3.65625 
Q 51.375 2.6875 52.734375 2.046875 
L 52.734375 0 
L 37.59375 0 
Q 36.96875 1.609375 36.71875 3.015625 
Q 36.46875 4.4375 36.328125 6.25 
Q 33.453125 3.125 29.6875 0.921875 
Q 25.203125 -1.65625 19.53125 -1.65625 
Q 12.3125 -1.65625 7.59375 2.46875 
Q 2.875 6.59375 2.875 14.15625 
Q 2.875 23.96875 10.453125 28.375 
Q 14.59375 30.765625 22.65625 31.78125 
z
M 28.125 54.640625 
z
" id="Helvetica-Bold-97"/>
      <path d="M 11.765625 73.140625 
Q 19.1875 62.796875 23.046875 53.8125 
Q 28.765625 40.625 28.765625 27.25 
Q 28.765625 12.546875 21.96875 -2.640625 
Q 18.171875 -11.140625 14.796875 -15.4375 
L 11.328125 -20.171875 
L 1.03125 -20.171875 
Q 7.46875 -8.546875 10.015625 -1.125 
Q 14.359375 11.421875 14.359375 26.375 
Q 14.359375 35.9375 12.796875 44.046875 
Q 10.40625 56.390625 4.25 67.671875 
L 1.265625 73.140625 
L 11.765625 73.140625 
z
" id="Helvetica-Bold-41"/>
     </defs>
     <use xlink:href="#Helvetica-Bold-40"/>
     <use x="33.300781" xlink:href="#Helvetica-Bold-97"/>
     <use x="88.916016" xlink:href="#Helvetica-Bold-41"/>
    </g>
   </g>
   <g id="PathCollection_12">
    <defs>
     <path d="M 4.229935 0 
L -4.229935 -0 
" id="mb67d52e590" style="stroke:#8c0800;stroke-width:2.53125;"/>
    </defs>
    <g clip-path="url(#p654d2d3bbb)">
     <use style="fill:#8c0800;stroke:#8c0800;stroke-width:2.53125;" x="247.90525" xlink:href="#mb67d52e590" y="216.275179"/>
    </g>
   </g>
   <g id="legend_1">
    <g id="patch_7">
     <path d="M 190.404375 90.9975 
L 289.284375 90.9975 
Q 291.684375 90.9975 291.684375 88.5975 
L 291.684375 21.36 
Q 291.684375 18.96 289.284375 18.96 
L 190.404375 18.96 
Q 188.004375 18.96 188.004375 21.36 
L 188.004375 88.5975 
Q 188.004375 90.9975 190.404375 90.9975 
z
" style="fill:#ffffff;opacity:0.8;stroke:#cccccc;stroke-linejoin:miter;"/>
    </g>
    <g id="PathCollection_13">
     <defs>
      <path d="M 0 1.549193 
C 0.410851 1.549193 0.80493 1.385961 1.095445 1.095445 
C 1.385961 0.80493 1.549193 0.410851 1.549193 0 
C 1.549193 -0.410851 1.385961 -0.80493 1.095445 -1.095445 
C 0.80493 -1.385961 0.410851 -1.549193 0 -1.549193 
C -0.410851 -1.549193 -0.80493 -1.385961 -1.095445 -1.095445 
C -1.385961 -0.80493 -1.549193 -0.410851 -1.549193 0 
C -1.549193 0.410851 -1.385961 0.80493 -1.095445 1.095445 
C -0.80493 1.385961 -0.410851 1.549193 0 1.549193 
z
" id="m2f6485087e" style="stroke:#4c72b0;"/>
     </defs>
     <g>
      <use style="fill:#4c72b0;stroke:#4c72b0;" x="204.804375" xlink:href="#m2f6485087e" y="29.218125"/>
     </g>
    </g>
    <g id="text_14">
     <!-- HSQC CH -->
     <g transform="translate(226.404375 32.368125)scale(0.12 -0.12)">
      <use xlink:href="#Helvetica-72"/>
      <use x="72.216797" xlink:href="#Helvetica-83"/>
      <use x="138.916016" xlink:href="#Helvetica-81"/>
      <use x="216.699219" xlink:href="#Helvetica-67"/>
      <use x="288.916016" xlink:href="#Helvetica-32"/>
      <use x="316.699219" xlink:href="#Helvetica-67"/>
      <use x="388.916016" xlink:href="#Helvetica-72"/>
     </g>
    </g>
    <g id="PathCollection_14">
     <defs>
      <path d="M 0 1.549193 
C 0.410851 1.549193 0.80493 1.385961 1.095445 1.095445 
C 1.385961 0.80493 1.549193 0.410851 1.549193 0 
C 1.549193 -0.410851 1.385961 -0.80493 1.095445 -1.095445 
C 0.80493 -1.385961 0.410851 -1.549193 0 -1.549193 
C -0.410851 -1.549193 -0.80493 -1.385961 -1.095445 -1.095445 
C -1.385961 -0.80493 -1.549193 -0.410851 -1.549193 0 
C -1.549193 0.410851 -1.385961 0.80493 -1.095445 1.095445 
C -0.80493 1.385961 -0.410851 1.549193 0 1.549193 
z
" id="m1cd0e67571" style="stroke:#dd8452;"/>
     </defs>
     <g>
      <use style="fill:#dd8452;stroke:#dd8452;" x="204.804375" xlink:href="#m1cd0e67571" y="46.3275"/>
     </g>
    </g>
    <g id="text_15">
     <!-- HSQC CH$_2$ -->
     <g transform="translate(226.404375 49.4775)scale(0.12 -0.12)">
      <use transform="translate(0 0.3125)" xlink:href="#Helvetica-72"/>
      <use transform="translate(72.216797 0.3125)" xlink:href="#Helvetica-83"/>
      <use transform="translate(138.916016 0.3125)" xlink:href="#Helvetica-81"/>
      <use transform="translate(216.699219 0.3125)" xlink:href="#Helvetica-67"/>
      <use transform="translate(288.916016 0.3125)" xlink:href="#Helvetica-32"/>
      <use transform="translate(316.699219 0.3125)" xlink:href="#Helvetica-67"/>
      <use transform="translate(388.916016 0.3125)" xlink:href="#Helvetica-72"/>
      <use transform="translate(462.048008 -15.376563)scale(0.7)" xlink:href="#Helvetica-50"/>
     </g>
    </g>
    <g id="PathCollection_15">
     <defs>
      <path d="M 0 1.549193 
C 0.410851 1.549193 0.80493 1.385961 1.095445 1.095445 
C 1.385961 0.80493 1.549193 0.410851 1.549193 0 
C 1.549193 -0.410851 1.385961 -0.80493 1.095445 -1.095445 
C 0.80493 -1.385961 0.410851 -1.549193 0 -1.549193 
C -0.410851 -1.549193 -0.80493 -1.385961 -1.095445 -1.095445 
C -1.385961 -0.80493 -1.549193 -0.410851 -1.549193 0 
C -1.549193 0.410851 -1.385961 0.80493 -1.095445 1.095445 
C -0.80493 1.385961 -0.410851 1.549193 0 1.549193 
z
" id="m72b5c9eb47" style="stroke:#55a868;"/>
     </defs>
     <g>
      <use style="fill:#55a868;stroke:#55a868;" x="204.804375" xlink:href="#m72b5c9eb47" y="63.436875"/>
     </g>
    </g>
    <g id="text_16">
     <!-- HSQC CH$_3$ -->
     <g transform="translate(226.404375 66.586875)scale(0.12 -0.12)">
      <use transform="translate(0 0.3125)" xlink:href="#Helvetica-72"/>
      <use transform="translate(72.216797 0.3125)" xlink:href="#Helvetica-83"/>
      <use transform="translate(138.916016 0.3125)" xlink:href="#Helvetica-81"/>
      <use transform="translate(216.699219 0.3125)" xlink:href="#Helvetica-67"/>
      <use transform="translate(288.916016 0.3125)" xlink:href="#Helvetica-32"/>
      <use transform="translate(316.699219 0.3125)" xlink:href="#Helvetica-67"/>
      <use transform="translate(388.916016 0.3125)" xlink:href="#Helvetica-72"/>
      <use transform="translate(462.048008 -15.376563)scale(0.7)" xlink:href="#Helvetica-51"/>
     </g>
    </g>
    <g id="PathCollection_16">
     <defs>
      <path d="M 0 1.549193 
C 0.410851 1.549193 0.80493 1.385961 1.095445 1.095445 
C 1.385961 0.80493 1.549193 0.410851 1.549193 0 
C 1.549193 -0.410851 1.385961 -0.80493 1.095445 -1.095445 
C 0.80493 -1.385961 0.410851 -1.549193 0 -1.549193 
C -0.410851 -1.549193 -0.80493 -1.385961 -1.095445 -1.095445 
C -1.385961 -0.80493 -1.549193 -0.410851 -1.549193 0 
C -1.549193 0.410851 -1.385961 0.80493 -1.095445 1.095445 
C -0.80493 1.385961 -0.410851 1.549193 0 1.549193 
z
" id="mb34d89eca9" style="stroke:#c44e52;"/>
     </defs>
     <g>
      <use style="fill:#c44e52;stroke:#c44e52;" x="204.804375" xlink:href="#mb34d89eca9" y="80.54625"/>
     </g>
    </g>
    <g id="text_17">
     <!-- COSY -->
     <g transform="translate(226.404375 83.69625)scale(0.12 -0.12)">
      <use xlink:href="#Helvetica-67"/>
      <use x="72.216797" xlink:href="#Helvetica-79"/>
      <use x="150" xlink:href="#Helvetica-83"/>
      <use x="216.699219" xlink:href="#Helvetica-89"/>
     </g>
    </g>
   </g>
  </g>
  <g id="axes_2">
   <g id="patch_8">
    <path d="M 314.144375 260.24 
L 563.04 260.24 
L 563.04 12.96 
L 314.144375 12.96 
z
" style="fill:#ffffff;"/>
   </g>
   <g id="PathCollection_17">
    <defs>
     <path d="M 0 2.5 
C 0.663008 2.5 1.29895 2.236584 1.767767 1.767767 
C 2.236584 1.29895 2.5 0.663008 2.5 -0 
C 2.5 -0.663008 2.236584 -1.29895 1.767767 -1.767767 
C 1.29895 -2.236584 0.663008 -2.5 0 -2.5 
C -0.663008 -2.5 -1.29895 -2.236584 -1.767767 -1.767767 
C -2.236584 -1.29895 -2.5 -0.663008 -2.5 0 
C -2.5 0.663008 -2.236584 1.29895 -1.767767 1.767767 
C -1.29895 2.236584 -0.663008 2.5 0 2.5 
z
" id="C4_0_6d354df706"/>
    </defs>
    <g clip-path="url(#pe3a5b1f89e)">
     <use style="fill:#4c72b0;fill-opacity:0.3;" x="369.885782" xlink:href="#C4_0_6d354df706" y="115.97125"/>
    </g>
    <g clip-path="url(#pe3a5b1f89e)">
     <use style="fill:#4c72b0;fill-opacity:0.3;" x="369.099741" xlink:href="#C4_0_6d354df706" y="93.275411"/>
    </g>
    <g clip-path="url(#pe3a5b1f89e)">
     <use style="fill:#4c72b0;fill-opacity:0.3;" x="365.535879" xlink:href="#C4_0_6d354df706" y="99.576057"/>
    </g>
    <g clip-path="url(#pe3a5b1f89e)">
     <use style="fill:#4c72b0;fill-opacity:0.3;" x="358.143952" xlink:href="#C4_0_6d354df706" y="122.842116"/>
    </g>
    <g clip-path="url(#pe3a5b1f89e)">
     <use style="fill:#4c72b0;fill-opacity:0.3;" x="368.96772" xlink:href="#C4_0_6d354df706" y="114.252294"/>
    </g>
   </g>
   <g id="PathCollection_18">
    <defs>
     <path d="M 0 2.5 
C 0.663008 2.5 1.29895 2.236584 1.767767 1.767767 
C 2.236584 1.29895 2.5 0.663008 2.5 -0 
C 2.5 -0.663008 2.236584 -1.29895 1.767767 -1.767767 
C 1.29895 -2.236584 0.663008 -2.5 0 -2.5 
C -0.663008 -2.5 -1.29895 -2.236584 -1.767767 -1.767767 
C -2.236584 -1.29895 -2.5 -0.663008 -2.5 0 
C -2.5 0.663008 -2.236584 1.29895 -1.767767 1.767767 
C -1.29895 2.236584 -0.663008 2.5 0 2.5 
z
" id="C5_0_44dac2fc46"/>
    </defs>
    <g clip-path="url(#pe3a5b1f89e)">
     <use style="fill:#dd8452;fill-opacity:0.3;" x="409.111322" xlink:href="#C5_0_44dac2fc46" y="138.280302"/>
    </g>
    <g clip-path="url(#pe3a5b1f89e)">
     <use style="fill:#dd8452;fill-opacity:0.3;" x="407.6081" xlink:href="#C5_0_44dac2fc46" y="130.167575"/>
    </g>
    <g clip-path="url(#pe3a5b1f89e)">
     <use style="fill:#dd8452;fill-opacity:0.3;" x="413.285177" xlink:href="#C5_0_44dac2fc46" y="142.566078"/>
    </g>
    <g clip-path="url(#pe3a5b1f89e)">
     <use style="fill:#dd8452;fill-opacity:0.3;" x="413.414397" xlink:href="#C5_0_44dac2fc46" y="138.536315"/>
    </g>
    <g clip-path="url(#pe3a5b1f89e)">
     <use style="fill:#dd8452;fill-opacity:0.3;" x="415.503649" xlink:href="#C5_0_44dac2fc46" y="151.871163"/>
    </g>
    <g clip-path="url(#pe3a5b1f89e)">
     <use style="fill:#dd8452;fill-opacity:0.3;" x="410.432363" xlink:href="#C5_0_44dac2fc46" y="147.173667"/>
    </g>
    <g clip-path="url(#pe3a5b1f89e)">
     <use style="fill:#dd8452;fill-opacity:0.3;" x="410.793531" xlink:href="#C5_0_44dac2fc46" y="134.048717"/>
    </g>
    <g clip-path="url(#pe3a5b1f89e)">
     <use style="fill:#dd8452;fill-opacity:0.3;" x="411.829028" xlink:href="#C5_0_44dac2fc46" y="152.598242"/>
    </g>
    <g clip-path="url(#pe3a5b1f89e)">
     <use style="fill:#dd8452;fill-opacity:0.3;" x="415.205158" xlink:href="#C5_0_44dac2fc46" y="156.558976"/>
    </g>
    <g clip-path="url(#pe3a5b1f89e)">
     <use style="fill:#dd8452;fill-opacity:0.3;" x="419.902468" xlink:href="#C5_0_44dac2fc46" y="151.857197"/>
    </g>
    <g clip-path="url(#pe3a5b1f89e)">
     <use style="fill:#dd8452;fill-opacity:0.3;" x="413.003613" xlink:href="#C5_0_44dac2fc46" y="135.023322"/>
    </g>
    <g clip-path="url(#pe3a5b1f89e)">
     <use style="fill:#dd8452;fill-opacity:0.3;" x="409.449145" xlink:href="#C5_0_44dac2fc46" y="126.468496"/>
    </g>
    <g clip-path="url(#pe3a5b1f89e)">
     <use style="fill:#dd8452;fill-opacity:0.3;" x="412.165764" xlink:href="#C5_0_44dac2fc46" y="142.897729"/>
    </g>
    <g clip-path="url(#pe3a5b1f89e)">
     <use style="fill:#dd8452;fill-opacity:0.3;" x="411.338368" xlink:href="#C5_0_44dac2fc46" y="147.850724"/>
    </g>
   </g>
   <g id="PathCollection_19">
    <defs>
     <path d="M 0 2.5 
C 0.663008 2.5 1.29895 2.236584 1.767767 1.767767 
C 2.236584 1.29895 2.5 0.663008 2.5 -0 
C 2.5 -0.663008 2.236584 -1.29895 1.767767 -1.767767 
C 1.29895 -2.236584 0.663008 -2.5 0 -2.5 
C -0.663008 -2.5 -1.29895 -2.236584 -1.767767 -1.767767 
C -2.236584 -1.29895 -2.5 -0.663008 -2.5 0 
C -2.5 0.663008 -2.236584 1.29895 -1.767767 1.767767 
C -1.29895 2.236584 -0.663008 2.5 0 2.5 
z
" id="C6_0_7c8a5a71f7"/>
    </defs>
    <g clip-path="url(#pe3a5b1f89e)">
     <use style="fill:#55a868;fill-opacity:0.3;" x="466.678932" xlink:href="#C6_0_7c8a5a71f7" y="154.252536"/>
    </g>
    <g clip-path="url(#pe3a5b1f89e)">
     <use style="fill:#55a868;fill-opacity:0.3;" x="468.53507" xlink:href="#C6_0_7c8a5a71f7" y="163.274043"/>
    </g>
   </g>
   <g id="PathCollection_20">
    <defs>
     <path d="M 0 2.5 
C 0.663008 2.5 1.29895 2.236584 1.767767 1.767767 
C 2.236584 1.29895 2.5 0.663008 2.5 -0 
C 2.5 -0.663008 2.236584 -1.29895 1.767767 -1.767767 
C 1.29895 -2.236584 0.663008 -2.5 0 -2.5 
C -0.663008 -2.5 -1.29895 -2.236584 -1.767767 -1.767767 
C -2.236584 -1.29895 -2.5 -0.663008 -2.5 0 
C -2.5 0.663008 -2.236584 1.29895 -1.767767 1.767767 
C -1.29895 2.236584 -0.663008 2.5 0 2.5 
z
" id="C7_0_396ce77d8a"/>
    </defs>
    <g clip-path="url(#pe3a5b1f89e)">
     <use style="fill:#c44e52;fill-opacity:0.3;" x="516.950602" xlink:href="#C7_0_396ce77d8a" y="159.772348"/>
    </g>
    <g clip-path="url(#pe3a5b1f89e)">
     <use style="fill:#c44e52;fill-opacity:0.3;" x="516.207018" xlink:href="#C7_0_396ce77d8a" y="138.526264"/>
    </g>
    <g clip-path="url(#pe3a5b1f89e)">
     <use style="fill:#c44e52;fill-opacity:0.3;" x="512.520471" xlink:href="#C7_0_396ce77d8a" y="149.522415"/>
    </g>
    <g clip-path="url(#pe3a5b1f89e)">
     <use style="fill:#c44e52;fill-opacity:0.3;" x="507.080969" xlink:href="#C7_0_396ce77d8a" y="150.817964"/>
    </g>
    <g clip-path="url(#pe3a5b1f89e)">
     <use style="fill:#c44e52;fill-opacity:0.3;" x="511.591026" xlink:href="#C7_0_396ce77d8a" y="149.654451"/>
    </g>
    <g clip-path="url(#pe3a5b1f89e)">
     <use style="fill:#c44e52;fill-opacity:0.3;" x="518.975427" xlink:href="#C7_0_396ce77d8a" y="141.680233"/>
    </g>
    <g clip-path="url(#pe3a5b1f89e)">
     <use style="fill:#c44e52;fill-opacity:0.3;" x="517.954495" xlink:href="#C7_0_396ce77d8a" y="152.901528"/>
    </g>
    <g clip-path="url(#pe3a5b1f89e)">
     <use style="fill:#c44e52;fill-opacity:0.3;" x="507.638882" xlink:href="#C7_0_396ce77d8a" y="148.484752"/>
    </g>
    <g clip-path="url(#pe3a5b1f89e)">
     <use style="fill:#c44e52;fill-opacity:0.3;" x="515.471363" xlink:href="#C7_0_396ce77d8a" y="139.876564"/>
    </g>
    <g clip-path="url(#pe3a5b1f89e)">
     <use style="fill:#c44e52;fill-opacity:0.3;" x="508.581985" xlink:href="#C7_0_396ce77d8a" y="136.751001"/>
    </g>
    <g clip-path="url(#pe3a5b1f89e)">
     <use style="fill:#c44e52;fill-opacity:0.3;" x="517.83011" xlink:href="#C7_0_396ce77d8a" y="140.973627"/>
    </g>
    <g clip-path="url(#pe3a5b1f89e)">
     <use style="fill:#c44e52;fill-opacity:0.3;" x="509.142685" xlink:href="#C7_0_396ce77d8a" y="148.72782"/>
    </g>
    <g clip-path="url(#pe3a5b1f89e)">
     <use style="fill:#c44e52;fill-opacity:0.3;" x="518.191297" xlink:href="#C7_0_396ce77d8a" y="146.860141"/>
    </g>
    <g clip-path="url(#pe3a5b1f89e)">
     <use style="fill:#c44e52;fill-opacity:0.3;" x="509.882387" xlink:href="#C7_0_396ce77d8a" y="129.874773"/>
    </g>
    <g clip-path="url(#pe3a5b1f89e)">
     <use style="fill:#c44e52;fill-opacity:0.3;" x="513.157244" xlink:href="#C7_0_396ce77d8a" y="141.115273"/>
    </g>
    <g clip-path="url(#pe3a5b1f89e)">
     <use style="fill:#c44e52;fill-opacity:0.3;" x="514.900555" xlink:href="#C7_0_396ce77d8a" y="143.598529"/>
    </g>
    <g clip-path="url(#pe3a5b1f89e)">
     <use style="fill:#c44e52;fill-opacity:0.3;" x="516.922923" xlink:href="#C7_0_396ce77d8a" y="153.01691"/>
    </g>
    <g clip-path="url(#pe3a5b1f89e)">
     <use style="fill:#c44e52;fill-opacity:0.3;" x="515.848582" xlink:href="#C7_0_396ce77d8a" y="151.250572"/>
    </g>
    <g clip-path="url(#pe3a5b1f89e)">
     <use style="fill:#c44e52;fill-opacity:0.3;" x="513.729006" xlink:href="#C7_0_396ce77d8a" y="128.44929"/>
    </g>
    <g clip-path="url(#pe3a5b1f89e)">
     <use style="fill:#c44e52;fill-opacity:0.3;" x="508.233064" xlink:href="#C7_0_396ce77d8a" y="137.177557"/>
    </g>
    <g clip-path="url(#pe3a5b1f89e)">
     <use style="fill:#c44e52;fill-opacity:0.3;" x="515.656416" xlink:href="#C7_0_396ce77d8a" y="160.590391"/>
    </g>
    <g clip-path="url(#pe3a5b1f89e)">
     <use style="fill:#c44e52;fill-opacity:0.3;" x="510.105455" xlink:href="#C7_0_396ce77d8a" y="153.935989"/>
    </g>
    <g clip-path="url(#pe3a5b1f89e)">
     <use style="fill:#c44e52;fill-opacity:0.3;" x="516.405324" xlink:href="#C7_0_396ce77d8a" y="147.353711"/>
    </g>
    <g clip-path="url(#pe3a5b1f89e)">
     <use style="fill:#c44e52;fill-opacity:0.3;" x="512.954142" xlink:href="#C7_0_396ce77d8a" y="145.965578"/>
    </g>
    <g clip-path="url(#pe3a5b1f89e)">
     <use style="fill:#c44e52;fill-opacity:0.3;" x="510.329757" xlink:href="#C7_0_396ce77d8a" y="144.003324"/>
    </g>
    <g clip-path="url(#pe3a5b1f89e)">
     <use style="fill:#c44e52;fill-opacity:0.3;" x="514.142099" xlink:href="#C7_0_396ce77d8a" y="153.362074"/>
    </g>
    <g clip-path="url(#pe3a5b1f89e)">
     <use style="fill:#c44e52;fill-opacity:0.3;" x="508.054095" xlink:href="#C7_0_396ce77d8a" y="138.613273"/>
    </g>
    <g clip-path="url(#pe3a5b1f89e)">
     <use style="fill:#c44e52;fill-opacity:0.3;" x="517.374819" xlink:href="#C7_0_396ce77d8a" y="148.528563"/>
    </g>
    <g clip-path="url(#pe3a5b1f89e)">
     <use style="fill:#c44e52;fill-opacity:0.3;" x="514.979662" xlink:href="#C7_0_396ce77d8a" y="140.306882"/>
    </g>
    <g clip-path="url(#pe3a5b1f89e)">
     <use style="fill:#c44e52;fill-opacity:0.3;" x="510.985293" xlink:href="#C7_0_396ce77d8a" y="129.445947"/>
    </g>
    <g clip-path="url(#pe3a5b1f89e)">
     <use style="fill:#c44e52;fill-opacity:0.3;" x="515.049899" xlink:href="#C7_0_396ce77d8a" y="151.423987"/>
    </g>
    <g clip-path="url(#pe3a5b1f89e)">
     <use style="fill:#c44e52;fill-opacity:0.3;" x="510.056176" xlink:href="#C7_0_396ce77d8a" y="128.291521"/>
    </g>
    <g clip-path="url(#pe3a5b1f89e)">
     <use style="fill:#c44e52;fill-opacity:0.3;" x="516.122542" xlink:href="#C7_0_396ce77d8a" y="127.484412"/>
    </g>
    <g clip-path="url(#pe3a5b1f89e)">
     <use style="fill:#c44e52;fill-opacity:0.3;" x="511.714257" xlink:href="#C7_0_396ce77d8a" y="136.995074"/>
    </g>
    <g clip-path="url(#pe3a5b1f89e)">
     <use style="fill:#c44e52;fill-opacity:0.3;" x="515.864563" xlink:href="#C7_0_396ce77d8a" y="133.041096"/>
    </g>
    <g clip-path="url(#pe3a5b1f89e)">
     <use style="fill:#c44e52;fill-opacity:0.3;" x="519.456897" xlink:href="#C7_0_396ce77d8a" y="141.779898"/>
    </g>
    <g clip-path="url(#pe3a5b1f89e)">
     <use style="fill:#c44e52;fill-opacity:0.3;" x="515.362041" xlink:href="#C7_0_396ce77d8a" y="131.834307"/>
    </g>
    <g clip-path="url(#pe3a5b1f89e)">
     <use style="fill:#c44e52;fill-opacity:0.3;" x="515.286345" xlink:href="#C7_0_396ce77d8a" y="160.440494"/>
    </g>
    <g clip-path="url(#pe3a5b1f89e)">
     <use style="fill:#c44e52;fill-opacity:0.3;" x="512.806016" xlink:href="#C7_0_396ce77d8a" y="141.277066"/>
    </g>
    <g clip-path="url(#pe3a5b1f89e)">
     <use style="fill:#c44e52;fill-opacity:0.3;" x="510.424988" xlink:href="#C7_0_396ce77d8a" y="149.550604"/>
    </g>
    <g clip-path="url(#pe3a5b1f89e)">
     <use style="fill:#c44e52;fill-opacity:0.3;" x="508.281836" xlink:href="#C7_0_396ce77d8a" y="142.833616"/>
    </g>
    <g clip-path="url(#pe3a5b1f89e)">
     <use style="fill:#c44e52;fill-opacity:0.3;" x="519.374866" xlink:href="#C7_0_396ce77d8a" y="146.83231"/>
    </g>
    <g clip-path="url(#pe3a5b1f89e)">
     <use style="fill:#c44e52;fill-opacity:0.3;" x="507.967657" xlink:href="#C7_0_396ce77d8a" y="134.422162"/>
    </g>
    <g clip-path="url(#pe3a5b1f89e)">
     <use style="fill:#c44e52;fill-opacity:0.3;" x="511.93713" xlink:href="#C7_0_396ce77d8a" y="147.553588"/>
    </g>
    <g clip-path="url(#pe3a5b1f89e)">
     <use style="fill:#c44e52;fill-opacity:0.3;" x="515.315198" xlink:href="#C7_0_396ce77d8a" y="145.587446"/>
    </g>
    <g clip-path="url(#pe3a5b1f89e)">
     <use style="fill:#c44e52;fill-opacity:0.3;" x="508.500062" xlink:href="#C7_0_396ce77d8a" y="135.388105"/>
    </g>
    <g clip-path="url(#pe3a5b1f89e)">
     <use style="fill:#c44e52;fill-opacity:0.3;" x="512.140121" xlink:href="#C7_0_396ce77d8a" y="135.161571"/>
    </g>
    <g clip-path="url(#pe3a5b1f89e)">
     <use style="fill:#c44e52;fill-opacity:0.3;" x="511.512299" xlink:href="#C7_0_396ce77d8a" y="151.953583"/>
    </g>
    <g clip-path="url(#pe3a5b1f89e)">
     <use style="fill:#c44e52;fill-opacity:0.3;" x="508.221797" xlink:href="#C7_0_396ce77d8a" y="159.998063"/>
    </g>
    <g clip-path="url(#pe3a5b1f89e)">
     <use style="fill:#c44e52;fill-opacity:0.3;" x="509.525994" xlink:href="#C7_0_396ce77d8a" y="149.709508"/>
    </g>
    <g clip-path="url(#pe3a5b1f89e)">
     <use style="fill:#c44e52;fill-opacity:0.3;" x="514.37801" xlink:href="#C7_0_396ce77d8a" y="128.652869"/>
    </g>
    <g clip-path="url(#pe3a5b1f89e)">
     <use style="fill:#c44e52;fill-opacity:0.3;" x="509.318445" xlink:href="#C7_0_396ce77d8a" y="146.446742"/>
    </g>
   </g>
   <g id="PathCollection_21"/>
   <g id="PathCollection_22"/>
   <g id="PathCollection_23"/>
   <g id="PathCollection_24"/>
   <g id="PathCollection_25">
    <g clip-path="url(#pe3a5b1f89e)">
     <use style="fill:#001c7f;stroke:#001c7f;stroke-width:2.53125;" x="363.9235" xlink:href="#m823522481a" y="109.183425"/>
    </g>
   </g>
   <g id="matplotlib.axis_3">
    <g id="text_18">
     <!-- NOAH edited seHSQC/CLIP-COSY -->
     <g transform="translate(343.897187 272.848125)scale(0.12 -0.12)">
      <use xlink:href="#Helvetica-78"/>
      <use x="72.216797" xlink:href="#Helvetica-79"/>
      <use x="150" xlink:href="#Helvetica-65"/>
      <use x="216.699219" xlink:href="#Helvetica-72"/>
      <use x="288.916016" xlink:href="#Helvetica-32"/>
      <use x="316.699219" xlink:href="#Helvetica-101"/>
      <use x="372.314453" xlink:href="#Helvetica-100"/>
      <use x="427.929688" xlink:href="#Helvetica-105"/>
      <use x="450.146484" xlink:href="#Helvetica-116"/>
      <use x="477.929688" xlink:href="#Helvetica-101"/>
      <use x="533.544922" xlink:href="#Helvetica-100"/>
      <use x="589.160156" xlink:href="#Helvetica-32"/>
      <use x="616.943359" xlink:href="#Helvetica-115"/>
      <use x="666.943359" xlink:href="#Helvetica-101"/>
      <use x="722.558594" xlink:href="#Helvetica-72"/>
      <use x="794.775391" xlink:href="#Helvetica-83"/>
      <use x="861.474609" xlink:href="#Helvetica-81"/>
      <use x="939.257812" xlink:href="#Helvetica-67"/>
      <use x="1011.474609" xlink:href="#Helvetica-47"/>
      <use x="1039.257812" xlink:href="#Helvetica-67"/>
      <use x="1111.474609" xlink:href="#Helvetica-76"/>
      <use x="1167.089844" xlink:href="#Helvetica-73"/>
      <use x="1194.873047" xlink:href="#Helvetica-80"/>
      <use x="1261.572266" xlink:href="#Helvetica-45"/>
      <use x="1294.873047" xlink:href="#Helvetica-67"/>
      <use x="1367.089844" xlink:href="#Helvetica-79"/>
      <use x="1444.873047" xlink:href="#Helvetica-83"/>
      <use x="1511.572266" xlink:href="#Helvetica-89"/>
     </g>
    </g>
   </g>
   <g id="PathCollection_26">
    <g clip-path="url(#pe3a5b1f89e)">
     <use style="fill:#b1400d;stroke:#b1400d;stroke-width:2.53125;" x="413.702625" xlink:href="#m6917a4c339" y="142.564179"/>
    </g>
   </g>
   <g id="line2d_8">
    <path clip-path="url(#pe3a5b1f89e)" d="M 314.144375 149.390345 
L 563.04 149.390345 
" style="fill:none;stroke:#808080;stroke-dasharray:1.85,0.8;stroke-dashoffset:0;stroke-width:0.5;"/>
   </g>
   <g id="patch_9">
    <path d="M 314.144375 260.24 
L 314.144375 12.96 
" style="fill:none;stroke:#000000;stroke-linecap:square;stroke-linejoin:miter;stroke-width:1.3;"/>
   </g>
   <g id="patch_10">
    <path d="M 563.04 260.24 
L 563.04 12.96 
" style="fill:none;stroke:#000000;stroke-linecap:square;stroke-linejoin:miter;stroke-width:1.3;"/>
   </g>
   <g id="patch_11">
    <path d="M 314.144375 260.24 
L 563.04 260.24 
" style="fill:none;stroke:#000000;stroke-linecap:square;stroke-linejoin:miter;stroke-width:1.3;"/>
   </g>
   <g id="patch_12">
    <path d="M 314.144375 12.96 
L 563.04 12.96 
" style="fill:none;stroke:#000000;stroke-linecap:square;stroke-linejoin:miter;stroke-width:1.3;"/>
   </g>
   <g id="PathCollection_27">
    <g clip-path="url(#pe3a5b1f89e)">
     <use style="fill:#12711c;stroke:#12711c;stroke-width:2.53125;" x="463.48175" xlink:href="#me0a13b8279" y="158.763289"/>
    </g>
   </g>
   <g id="text_19">
    <!-- (1.47) -->
    <g style="fill:#4c72b0;" transform="translate(348.251312 255.2944)scale(0.12 -0.12)">
     <use xlink:href="#Helvetica-40"/>
     <use x="33.300781" xlink:href="#Helvetica-49"/>
     <use x="88.916016" xlink:href="#Helvetica-46"/>
     <use x="116.699219" xlink:href="#Helvetica-52"/>
     <use x="172.314453" xlink:href="#Helvetica-55"/>
     <use x="227.929688" xlink:href="#Helvetica-41"/>
    </g>
   </g>
   <g id="text_20">
    <!-- (1.08) -->
    <g style="fill:#dd8452;" transform="translate(398.030437 255.2944)scale(0.12 -0.12)">
     <defs>
      <path d="M 27.203125 40.625 
Q 33.015625 40.625 36.28125 43.875 
Q 39.546875 47.125 39.546875 51.609375 
Q 39.546875 55.515625 36.421875 58.78125 
Q 33.296875 62.0625 26.90625 62.0625 
Q 20.5625 62.0625 17.71875 58.78125 
Q 14.890625 55.515625 14.890625 51.125 
Q 14.890625 46.1875 18.546875 43.40625 
Q 22.21875 40.625 27.203125 40.625 
z
M 27.734375 6 
Q 33.84375 6 37.859375 9.296875 
Q 41.890625 12.59375 41.890625 19.140625 
Q 41.890625 25.921875 37.734375 29.4375 
Q 33.59375 32.953125 27.09375 32.953125 
Q 20.796875 32.953125 16.8125 29.359375 
Q 12.84375 25.78125 12.84375 19.4375 
Q 12.84375 13.96875 16.484375 9.984375 
Q 20.125 6 27.734375 6 
z
M 15.234375 37.25 
Q 11.578125 38.8125 9.515625 40.921875 
Q 5.671875 44.828125 5.671875 51.078125 
Q 5.671875 58.890625 11.328125 64.5 
Q 17 70.125 27.390625 70.125 
Q 37.453125 70.125 43.15625 64.8125 
Q 48.875 59.515625 48.875 52.4375 
Q 48.875 45.90625 45.5625 41.84375 
Q 43.703125 39.546875 39.796875 37.359375 
Q 44.140625 35.359375 46.625 32.765625 
Q 51.265625 27.875 51.265625 20.0625 
Q 51.265625 10.84375 45.0625 4.421875 
Q 38.875 -2 27.546875 -2 
Q 17.328125 -2 10.265625 3.53125 
Q 3.21875 9.078125 3.21875 19.625 
Q 3.21875 25.828125 6.25 30.34375 
Q 9.28125 34.859375 15.234375 37.25 
z
" id="Helvetica-56"/>
     </defs>
     <use xlink:href="#Helvetica-40"/>
     <use x="33.300781" xlink:href="#Helvetica-49"/>
     <use x="88.916016" xlink:href="#Helvetica-46"/>
     <use x="116.699219" xlink:href="#Helvetica-48"/>
     <use x="172.314453" xlink:href="#Helvetica-56"/>
     <use x="227.929688" xlink:href="#Helvetica-41"/>
    </g>
   </g>
   <g id="text_21">
    <!-- (0.89) -->
    <g style="fill:#55a868;" transform="translate(447.809562 255.2944)scale(0.12 -0.12)">
     <defs>
      <path d="M 13.28125 16.890625 
Q 13.671875 9.625 18.890625 6.84375 
Q 21.578125 5.375 24.953125 5.375 
Q 31.25 5.375 35.6875 10.625 
Q 40.140625 15.875 42 31.9375 
Q 39.0625 27.296875 34.734375 25.40625 
Q 30.421875 23.53125 25.4375 23.53125 
Q 15.328125 23.53125 9.4375 29.828125 
Q 3.5625 36.140625 3.5625 46.046875 
Q 3.5625 55.5625 9.375 62.78125 
Q 15.1875 70.015625 26.515625 70.015625 
Q 41.796875 70.015625 47.609375 56.25 
Q 50.828125 48.6875 50.828125 37.3125 
Q 50.828125 24.46875 46.96875 14.546875 
Q 40.578125 -1.953125 25.296875 -1.953125 
Q 15.046875 -1.953125 9.71875 3.421875 
Q 4.390625 8.796875 4.390625 16.890625 
z
M 26.609375 31.25 
Q 31.84375 31.25 36.15625 34.6875 
Q 40.484375 38.140625 40.484375 46.734375 
Q 40.484375 54.4375 36.59375 58.21875 
Q 32.71875 62.015625 26.703125 62.015625 
Q 20.265625 62.015625 16.484375 57.6875 
Q 12.703125 53.375 12.703125 46.140625 
Q 12.703125 39.3125 16.015625 35.28125 
Q 19.34375 31.25 26.609375 31.25 
z
" id="Helvetica-57"/>
     </defs>
     <use xlink:href="#Helvetica-40"/>
     <use x="33.300781" xlink:href="#Helvetica-48"/>
     <use x="88.916016" xlink:href="#Helvetica-46"/>
     <use x="116.699219" xlink:href="#Helvetica-56"/>
     <use x="172.314453" xlink:href="#Helvetica-57"/>
     <use x="227.929688" xlink:href="#Helvetica-41"/>
    </g>
   </g>
   <g id="text_22">
    <!-- (1.07) -->
    <g style="fill:#c44e52;" transform="translate(497.588687 255.2944)scale(0.12 -0.12)">
     <use xlink:href="#Helvetica-40"/>
     <use x="33.300781" xlink:href="#Helvetica-49"/>
     <use x="88.916016" xlink:href="#Helvetica-46"/>
     <use x="116.699219" xlink:href="#Helvetica-48"/>
     <use x="172.314453" xlink:href="#Helvetica-55"/>
     <use x="227.929688" xlink:href="#Helvetica-41"/>
    </g>
   </g>
   <g id="text_23">
    <!-- (b) -->
    <g transform="translate(319.122287 28.035913)scale(0.14 -0.14)">
     <defs>
      <path d="M 35.25 54.390625 
Q 45.75 54.390625 51.6875 46.828125 
Q 57.625 39.265625 57.625 27.296875 
Q 57.625 14.890625 51.765625 6.734375 
Q 45.90625 -1.421875 35.40625 -1.421875 
Q 28.8125 -1.421875 24.8125 1.21875 
Q 22.40625 2.78125 19.625 6.6875 
L 19.625 0 
L 6 0 
L 6 71.875 
L 19.875 71.875 
L 19.875 46.296875 
Q 22.515625 50 25.6875 51.953125 
Q 29.4375 54.390625 35.25 54.390625 
z
M 31.6875 10.0625 
Q 37.0625 10.0625 40.03125 14.40625 
Q 43.015625 18.75 43.015625 25.828125 
Q 43.015625 31.5 41.546875 35.203125 
Q 38.765625 42.234375 31.296875 42.234375 
Q 23.734375 42.234375 20.90625 35.359375 
Q 19.4375 31.6875 19.4375 25.875 
Q 19.4375 19.046875 22.453125 14.546875 
Q 25.484375 10.0625 31.6875 10.0625 
z
" id="Helvetica-Bold-98"/>
     </defs>
     <use xlink:href="#Helvetica-Bold-40"/>
     <use x="33.300781" xlink:href="#Helvetica-Bold-98"/>
     <use x="94.384766" xlink:href="#Helvetica-Bold-41"/>
    </g>
   </g>
   <g id="PathCollection_28">
    <g clip-path="url(#pe3a5b1f89e)">
     <use style="fill:#8c0800;stroke:#8c0800;stroke-width:2.53125;" x="513.260875" xlink:href="#mb67d52e590" y="143.803765"/>
    </g>
   </g>
   <g id="legend_2">
    <g id="patch_13">
     <path d="M 455.76 90.9975 
L 554.64 90.9975 
Q 557.04 90.9975 557.04 88.5975 
L 557.04 21.36 
Q 557.04 18.96 554.64 18.96 
L 455.76 18.96 
Q 453.36 18.96 453.36 21.36 
L 453.36 88.5975 
Q 453.36 90.9975 455.76 90.9975 
z
" style="fill:#ffffff;opacity:0.8;stroke:#cccccc;stroke-linejoin:miter;"/>
    </g>
    <g id="PathCollection_29">
     <g>
      <use style="fill:#4c72b0;stroke:#4c72b0;" x="470.16" xlink:href="#m2f6485087e" y="29.218125"/>
     </g>
    </g>
    <g id="text_24">
     <!-- HSQC CH -->
     <g transform="translate(491.76 32.368125)scale(0.12 -0.12)">
      <use xlink:href="#Helvetica-72"/>
      <use x="72.216797" xlink:href="#Helvetica-83"/>
      <use x="138.916016" xlink:href="#Helvetica-81"/>
      <use x="216.699219" xlink:href="#Helvetica-67"/>
      <use x="288.916016" xlink:href="#Helvetica-32"/>
      <use x="316.699219" xlink:href="#Helvetica-67"/>
      <use x="388.916016" xlink:href="#Helvetica-72"/>
     </g>
    </g>
    <g id="PathCollection_30">
     <g>
      <use style="fill:#dd8452;stroke:#dd8452;" x="470.16" xlink:href="#m1cd0e67571" y="46.3275"/>
     </g>
    </g>
    <g id="text_25">
     <!-- HSQC CH$_2$ -->
     <g transform="translate(491.76 49.4775)scale(0.12 -0.12)">
      <use transform="translate(0 0.3125)" xlink:href="#Helvetica-72"/>
      <use transform="translate(72.216797 0.3125)" xlink:href="#Helvetica-83"/>
      <use transform="translate(138.916016 0.3125)" xlink:href="#Helvetica-81"/>
      <use transform="translate(216.699219 0.3125)" xlink:href="#Helvetica-67"/>
      <use transform="translate(288.916016 0.3125)" xlink:href="#Helvetica-32"/>
      <use transform="translate(316.699219 0.3125)" xlink:href="#Helvetica-67"/>
      <use transform="translate(388.916016 0.3125)" xlink:href="#Helvetica-72"/>
      <use transform="translate(462.048008 -15.376563)scale(0.7)" xlink:href="#Helvetica-50"/>
     </g>
    </g>
    <g id="PathCollection_31">
     <g>
      <use style="fill:#55a868;stroke:#55a868;" x="470.16" xlink:href="#m72b5c9eb47" y="63.436875"/>
     </g>
    </g>
    <g id="text_26">
     <!-- HSQC CH$_3$ -->
     <g transform="translate(491.76 66.586875)scale(0.12 -0.12)">
      <use transform="translate(0 0.3125)" xlink:href="#Helvetica-72"/>
      <use transform="translate(72.216797 0.3125)" xlink:href="#Helvetica-83"/>
      <use transform="translate(138.916016 0.3125)" xlink:href="#Helvetica-81"/>
      <use transform="translate(216.699219 0.3125)" xlink:href="#Helvetica-67"/>
      <use transform="translate(288.916016 0.3125)" xlink:href="#Helvetica-32"/>
      <use transform="translate(316.699219 0.3125)" xlink:href="#Helvetica-67"/>
      <use transform="translate(388.916016 0.3125)" xlink:href="#Helvetica-72"/>
      <use transform="translate(462.048008 -15.376563)scale(0.7)" xlink:href="#Helvetica-51"/>
     </g>
    </g>
    <g id="PathCollection_32">
     <g>
      <use style="fill:#c44e52;stroke:#c44e52;" x="470.16" xlink:href="#mb34d89eca9" y="80.54625"/>
     </g>
    </g>
    <g id="text_27">
     <!-- COSY -->
     <g transform="translate(491.76 83.69625)scale(0.12 -0.12)">
      <use xlink:href="#Helvetica-67"/>
      <use x="72.216797" xlink:href="#Helvetica-79"/>
      <use x="150" xlink:href="#Helvetica-83"/>
      <use x="216.699219" xlink:href="#Helvetica-89"/>
     </g>
    </g>
   </g>
  </g>
 </g>
 <defs>
  <clipPath id="p654d2d3bbb">
   <rect height="247.28" width="248.895625" x="48.78875" y="12.96"/>
  </clipPath>
  <clipPath id="pe3a5b1f89e">
   <rect height="247.28" width="248.895625" x="314.144375" y="12.96"/>
  </clipPath>
 </defs>
</svg>
