<?xml version="1.0" encoding="utf-8" standalone="no"?>
<!DOCTYPE svg PUBLIC "-//W3C//DTD SVG 1.1//EN"
  "http://www.w3.org/Graphics/SVG/1.1/DTD/svg11.dtd">
<!-- Created with matplotlib (https://matplotlib.org/) -->
<svg height="288pt" version="1.1" viewBox="0 0 576 288" width="576pt" xmlns="http://www.w3.org/2000/svg" xmlns:xlink="http://www.w3.org/1999/xlink">
 <metadata>
  <rdf:RDF xmlns:cc="http://creativecommons.org/ns#" xmlns:dc="http://purl.org/dc/elements/1.1/" xmlns:rdf="http://www.w3.org/1999/02/22-rdf-syntax-ns#">
   <cc:Work>
    <dc:type rdf:resource="http://purl.org/dc/dcmitype/StillImage"/>
    <dc:date>2020-12-06T17:46:29.062261</dc:date>
    <dc:format>image/svg+xml</dc:format>
    <dc:creator>
     <cc:Agent>
      <dc:title>Matplotlib v3.3.2, https://matplotlib.org/</dc:title>
     </cc:Agent>
    </dc:creator>
   </cc:Work>
  </rdf:RDF>
 </metadata>
 <defs>
  <style type="text/css">*{stroke-linecap:butt;stroke-linejoin:round;}</style>
 </defs>
 <g id="figure_1">
  <g id="patch_1">
   <path d="M 0 288 
L 576 288 
L 576 0 
L 0 0 
z
" style="fill:#ffffff;"/>
  </g>
  <g id="axes_1">
   <g id="patch_2">
    <path d="M 48.78875 260.24 
L 297.684375 260.24 
L 297.684375 12.96 
L 48.78875 12.96 
z
" style="fill:#ffffff;"/>
   </g>
   <g id="PathCollection_1"/>
   <g id="PathCollection_2"/>
   <g id="PathCollection_3"/>
   <g id="PathCollection_4"/>
   <g id="matplotlib.axis_1">
    <g id="text_1">
     <!-- CRK edited seHSQC/CLIP-COSY -->
     <g transform="translate(83.208438 272.848125)scale(0.12 -0.12)">
      <defs>
       <path d="M 37.84375 73.6875 
Q 51.46875 73.6875 58.984375 66.5 
Q 66.5 59.328125 67.328125 50.203125 
L 57.859375 50.203125 
Q 56.25 57.125 51.4375 61.171875 
Q 46.625 65.234375 37.9375 65.234375 
Q 27.34375 65.234375 20.828125 57.78125 
Q 14.3125 50.34375 14.3125 34.96875 
Q 14.3125 22.359375 20.1875 14.515625 
Q 26.078125 6.6875 37.75 6.6875 
Q 48.484375 6.6875 54.109375 14.9375 
Q 57.078125 19.28125 58.546875 26.375 
L 68.015625 26.375 
Q 66.75 15.046875 59.625 7.375 
Q 51.078125 -1.859375 36.578125 -1.859375 
Q 24.078125 -1.859375 15.578125 5.71875 
Q 4.390625 15.71875 4.390625 36.625 
Q 4.390625 52.484375 12.796875 62.640625 
Q 21.875 73.6875 37.84375 73.6875 
z
M 35.890625 73.6875 
z
" id="Helvetica-67"/>
       <path d="M 40.96875 38.875 
Q 47.796875 38.875 51.78125 41.609375 
Q 55.765625 44.34375 55.765625 51.46875 
Q 55.765625 59.125 50.203125 61.921875 
Q 47.21875 63.375 42.234375 63.375 
L 18.5 63.375 
L 18.5 38.875 
z
M 8.796875 71.734375 
L 42 71.734375 
Q 50.203125 71.734375 55.515625 69.34375 
Q 65.625 64.75 65.625 52.390625 
Q 65.625 45.953125 62.953125 41.84375 
Q 60.296875 37.75 55.515625 35.25 
Q 59.71875 33.546875 61.84375 30.765625 
Q 63.96875 27.984375 64.203125 21.734375 
L 64.546875 12.109375 
Q 64.703125 8.015625 65.234375 6 
Q 66.109375 2.59375 68.359375 1.609375 
L 68.359375 0 
L 56.453125 0 
Q 55.953125 0.921875 55.65625 2.390625 
Q 55.375 3.859375 55.171875 8.0625 
L 54.59375 20.015625 
Q 54.25 27.046875 49.359375 29.4375 
Q 46.578125 30.765625 40.625 30.765625 
L 18.5 30.765625 
L 18.5 0 
L 8.796875 0 
z
" id="Helvetica-82"/>
       <path d="M 7.625 71.734375 
L 17.09375 71.734375 
L 17.09375 36.765625 
L 52.046875 71.734375 
L 65.484375 71.734375 
L 35.640625 42.828125 
L 66.3125 0 
L 53.65625 0 
L 28.5625 35.984375 
L 17.09375 25 
L 17.09375 0 
L 7.625 0 
z
" id="Helvetica-75"/>
       <path id="Helvetica-32"/>
       <path d="M 28.21875 53.46875 
Q 33.796875 53.46875 39.015625 50.859375 
Q 44.234375 48.25 46.96875 44.09375 
Q 49.609375 40.140625 50.484375 34.859375 
Q 51.265625 31.25 51.265625 23.34375 
L 12.9375 23.34375 
Q 13.1875 15.375 16.703125 10.5625 
Q 20.21875 5.765625 27.59375 5.765625 
Q 34.46875 5.765625 38.578125 10.296875 
Q 40.921875 12.9375 41.890625 16.40625 
L 50.53125 16.40625 
Q 50.203125 13.53125 48.265625 9.984375 
Q 46.34375 6.453125 43.953125 4.203125 
Q 39.9375 0.296875 34.03125 -1.078125 
Q 30.859375 -1.859375 26.859375 -1.859375 
Q 17.09375 -1.859375 10.296875 5.25 
Q 3.515625 12.359375 3.515625 25.140625 
Q 3.515625 37.75 10.34375 45.609375 
Q 17.1875 53.46875 28.21875 53.46875 
z
M 42.234375 30.328125 
Q 41.703125 36.03125 39.75 39.453125 
Q 36.140625 45.796875 27.6875 45.796875 
Q 21.625 45.796875 17.515625 41.421875 
Q 13.421875 37.0625 13.1875 30.328125 
z
M 27.390625 53.5625 
z
" id="Helvetica-101"/>
       <path d="M 12.015625 25.53125 
Q 12.015625 17.140625 15.578125 11.46875 
Q 19.140625 5.8125 27 5.8125 
Q 33.109375 5.8125 37.03125 11.0625 
Q 40.96875 16.3125 40.96875 26.125 
Q 40.96875 36.03125 36.90625 40.796875 
Q 32.859375 45.5625 26.90625 45.5625 
Q 20.265625 45.5625 16.140625 40.484375 
Q 12.015625 35.40625 12.015625 25.53125 
z
M 25.25 53.21875 
Q 31.25 53.21875 35.296875 50.6875 
Q 37.640625 49.21875 40.625 45.5625 
L 40.625 71.96875 
L 49.078125 71.96875 
L 49.078125 0 
L 41.15625 0 
L 41.15625 7.28125 
Q 38.09375 2.4375 33.890625 0.28125 
Q 29.6875 -1.859375 24.265625 -1.859375 
Q 15.53125 -1.859375 9.125 5.484375 
Q 2.734375 12.84375 2.734375 25.046875 
Q 2.734375 36.46875 8.5625 44.84375 
Q 14.40625 53.21875 25.25 53.21875 
z
" id="Helvetica-100"/>
       <path d="M 6.453125 52.046875 
L 15.375 52.046875 
L 15.375 0 
L 6.453125 0 
z
M 6.453125 71.734375 
L 15.375 71.734375 
L 15.375 61.765625 
L 6.453125 61.765625 
z
" id="Helvetica-105"/>
       <path d="M 8.203125 66.890625 
L 17.09375 66.890625 
L 17.09375 52.296875 
L 25.4375 52.296875 
L 25.4375 45.125 
L 17.09375 45.125 
L 17.09375 10.984375 
Q 17.09375 8.25 18.953125 7.328125 
Q 19.96875 6.78125 22.359375 6.78125 
Q 23 6.78125 23.734375 6.8125 
Q 24.46875 6.84375 25.4375 6.9375 
L 25.4375 0 
Q 23.921875 -0.4375 22.28125 -0.625 
Q 20.65625 -0.828125 18.75 -0.828125 
Q 12.59375 -0.828125 10.390625 2.3125 
Q 8.203125 5.46875 8.203125 10.5 
L 8.203125 45.125 
L 1.125 45.125 
L 1.125 52.296875 
L 8.203125 52.296875 
z
" id="Helvetica-116"/>
       <path d="M 11.671875 16.40625 
Q 12.0625 12.015625 13.875 9.671875 
Q 17.1875 5.421875 25.390625 5.421875 
Q 30.28125 5.421875 33.984375 7.546875 
Q 37.703125 9.671875 37.703125 14.109375 
Q 37.703125 17.484375 34.71875 19.234375 
Q 32.8125 20.3125 27.203125 21.734375 
L 20.21875 23.484375 
Q 13.53125 25.140625 10.359375 27.203125 
Q 4.6875 30.765625 4.6875 37.0625 
Q 4.6875 44.484375 10.03125 49.0625 
Q 15.375 53.65625 24.421875 53.65625 
Q 36.234375 53.65625 41.453125 46.734375 
Q 44.734375 42.328125 44.625 37.25 
L 36.328125 37.25 
Q 36.078125 40.234375 34.234375 42.671875 
Q 31.203125 46.140625 23.734375 46.140625 
Q 18.75 46.140625 16.1875 44.234375 
Q 13.625 42.328125 13.625 39.203125 
Q 13.625 35.796875 17 33.734375 
Q 18.953125 32.515625 22.75 31.59375 
L 28.5625 30.171875 
Q 38.03125 27.875 41.265625 25.734375 
Q 46.390625 22.359375 46.390625 15.140625 
Q 46.390625 8.15625 41.09375 3.078125 
Q 35.796875 -2 24.953125 -2 
Q 13.28125 -2 8.421875 3.296875 
Q 3.5625 8.59375 3.21875 16.40625 
z
M 24.65625 53.5625 
z
" id="Helvetica-115"/>
       <path d="M 7.859375 71.734375 
L 17.671875 71.734375 
L 17.671875 42.09375 
L 54.984375 42.09375 
L 54.984375 71.734375 
L 64.796875 71.734375 
L 64.796875 0 
L 54.984375 0 
L 54.984375 33.546875 
L 17.671875 33.546875 
L 17.671875 0 
L 7.859375 0 
z
" id="Helvetica-72"/>
       <path d="M 13.96875 23.140625 
Q 14.3125 17.046875 16.84375 13.234375 
Q 21.6875 6.109375 33.890625 6.109375 
Q 39.359375 6.109375 43.84375 7.671875 
Q 52.546875 10.6875 52.546875 18.5 
Q 52.546875 24.359375 48.875 26.859375 
Q 45.171875 29.296875 37.25 31.109375 
L 27.546875 33.296875 
Q 18.015625 35.453125 14.0625 38.03125 
Q 7.234375 42.53125 7.234375 51.46875 
Q 7.234375 61.140625 13.921875 67.328125 
Q 20.609375 73.53125 32.859375 73.53125 
Q 44.140625 73.53125 52.015625 68.078125 
Q 59.90625 62.640625 59.90625 50.6875 
L 50.78125 50.6875 
Q 50.046875 56.453125 47.65625 59.515625 
Q 43.21875 65.140625 32.5625 65.140625 
Q 23.96875 65.140625 20.203125 61.515625 
Q 16.453125 57.90625 16.453125 53.125 
Q 16.453125 47.859375 20.84375 45.40625 
Q 23.734375 43.84375 33.890625 41.5 
L 43.953125 39.203125 
Q 51.21875 37.546875 55.171875 34.671875 
Q 62.015625 29.640625 62.015625 20.0625 
Q 62.015625 8.15625 53.34375 3.03125 
Q 44.671875 -2.09375 33.203125 -2.09375 
Q 19.828125 -2.09375 12.25 4.734375 
Q 4.6875 11.53125 4.828125 23.140625 
z
M 33.59375 73.6875 
z
" id="Helvetica-83"/>
       <path d="M 73.25 0.203125 
L 68.359375 -5.71875 
L 57.28125 2.734375 
Q 53.265625 0.53125 48.609375 -0.78125 
Q 43.953125 -2.09375 38.421875 -2.09375 
Q 21.734375 -2.09375 12.25 8.84375 
Q 3.90625 19.484375 3.90625 35.5 
Q 3.90625 50.046875 11.140625 60.40625 
Q 20.40625 73.6875 38.578125 73.6875 
Q 57.5625 73.6875 66.703125 61.46875 
Q 73.828125 51.953125 73.828125 37.109375 
Q 73.828125 30.171875 72.125 23.78125 
Q 69.53125 14.015625 63.375 7.859375 
z
M 39.59375 6.59375 
Q 42.625 6.59375 45.265625 7 
Q 47.90625 7.421875 49.859375 8.640625 
L 42 14.796875 
L 46.875 20.796875 
L 56.25 13.53125 
Q 60.6875 18.609375 62.28125 24.90625 
Q 63.875 31.203125 63.875 36.96875 
Q 63.875 49.609375 57.25 57.328125 
Q 50.640625 65.046875 39.15625 65.046875 
Q 27.546875 65.046875 20.75 57.640625 
Q 13.96875 50.25 13.96875 34.859375 
Q 13.96875 21.921875 20.484375 14.25 
Q 27 6.59375 39.59375 6.59375 
z
" id="Helvetica-81"/>
       <path d="M 22.75 71.734375 
L 30.171875 71.734375 
L 7.421875 0 
L 0 0 
z
" id="Helvetica-47"/>
       <path d="M 7.625 71.734375 
L 17.328125 71.734375 
L 17.328125 8.546875 
L 53.65625 8.546875 
L 53.65625 0 
L 7.625 0 
z
" id="Helvetica-76"/>
       <path d="M 9.8125 71.734375 
L 19.625 71.734375 
L 19.625 0 
L 9.8125 0 
z
" id="Helvetica-73"/>
       <path d="M 8.546875 71.734375 
L 40.828125 71.734375 
Q 50.390625 71.734375 56.25 66.328125 
Q 62.109375 60.9375 62.109375 51.171875 
Q 62.109375 42.78125 56.875 36.546875 
Q 51.65625 30.328125 40.828125 30.328125 
L 18.265625 30.328125 
L 18.265625 0 
L 8.546875 0 
z
M 52.296875 51.125 
Q 52.296875 59.03125 46.4375 61.859375 
Q 43.21875 63.375 37.59375 63.375 
L 18.265625 63.375 
L 18.265625 38.53125 
L 37.59375 38.53125 
Q 44.140625 38.53125 48.21875 41.3125 
Q 52.296875 44.09375 52.296875 51.125 
z
" id="Helvetica-80"/>
       <path d="M 4.15625 32.375 
L 28.65625 32.375 
L 28.65625 23.34375 
L 4.15625 23.34375 
z
" id="Helvetica-45"/>
       <path d="M 38.578125 73.6875 
Q 57.5625 73.6875 66.703125 61.46875 
Q 73.828125 51.953125 73.828125 37.109375 
Q 73.828125 21.046875 65.671875 10.40625 
Q 56.109375 -2.09375 38.375 -2.09375 
Q 21.828125 -2.09375 12.359375 8.84375 
Q 3.90625 19.390625 3.90625 35.5 
Q 3.90625 50.046875 11.140625 60.40625 
Q 20.40625 73.6875 38.578125 73.6875 
z
M 39.546875 6.59375 
Q 52.390625 6.59375 58.125 15.796875 
Q 63.875 25 63.875 36.96875 
Q 63.875 49.609375 57.25 57.328125 
Q 50.640625 65.046875 39.15625 65.046875 
Q 28.03125 65.046875 21 57.390625 
Q 13.96875 49.75 13.96875 34.859375 
Q 13.96875 22.953125 20 14.765625 
Q 26.03125 6.59375 39.546875 6.59375 
z
M 38.875 73.6875 
z
" id="Helvetica-79"/>
       <path d="M 2.046875 71.734375 
L 13.375 71.734375 
L 33.984375 37.25 
L 54.59375 71.734375 
L 65.96875 71.734375 
L 38.875 28.90625 
L 38.875 0 
L 29.15625 0 
L 29.15625 28.90625 
z
M 34.125 71.734375 
z
" id="Helvetica-89"/>
      </defs>
      <use xlink:href="#Helvetica-67"/>
      <use x="72.216797" xlink:href="#Helvetica-82"/>
      <use x="144.433594" xlink:href="#Helvetica-75"/>
      <use x="211.132812" xlink:href="#Helvetica-32"/>
      <use x="238.916016" xlink:href="#Helvetica-101"/>
      <use x="294.53125" xlink:href="#Helvetica-100"/>
      <use x="350.146484" xlink:href="#Helvetica-105"/>
      <use x="372.363281" xlink:href="#Helvetica-116"/>
      <use x="400.146484" xlink:href="#Helvetica-101"/>
      <use x="455.761719" xlink:href="#Helvetica-100"/>
      <use x="511.376953" xlink:href="#Helvetica-32"/>
      <use x="539.160156" xlink:href="#Helvetica-115"/>
      <use x="589.160156" xlink:href="#Helvetica-101"/>
      <use x="644.775391" xlink:href="#Helvetica-72"/>
      <use x="716.992188" xlink:href="#Helvetica-83"/>
      <use x="783.691406" xlink:href="#Helvetica-81"/>
      <use x="861.474609" xlink:href="#Helvetica-67"/>
      <use x="933.691406" xlink:href="#Helvetica-47"/>
      <use x="961.474609" xlink:href="#Helvetica-67"/>
      <use x="1033.691406" xlink:href="#Helvetica-76"/>
      <use x="1089.306641" xlink:href="#Helvetica-73"/>
      <use x="1117.089844" xlink:href="#Helvetica-80"/>
      <use x="1183.789062" xlink:href="#Helvetica-45"/>
      <use x="1217.089844" xlink:href="#Helvetica-67"/>
      <use x="1289.306641" xlink:href="#Helvetica-79"/>
      <use x="1367.089844" xlink:href="#Helvetica-83"/>
      <use x="1433.789062" xlink:href="#Helvetica-89"/>
     </g>
    </g>
   </g>
   <g id="matplotlib.axis_2">
    <g id="ytick_1">
     <g id="line2d_1">
      <defs>
       <path d="M 0 0 
L -3.5 0 
" id="m45d3cead14" style="stroke:#000000;stroke-width:0.8;"/>
      </defs>
      <g>
       <use style="stroke:#000000;stroke-width:0.8;" x="48.78875" xlink:href="#m45d3cead14" y="229.33"/>
      </g>
     </g>
     <g id="text_2">
      <!-- 0.0 -->
      <g transform="translate(27.89431 232.915284)scale(0.09996 -0.09996)">
       <defs>
        <path d="M 27.046875 69.921875 
Q 40.625 69.921875 46.6875 58.734375 
Q 51.375 50.09375 51.375 35.0625 
Q 51.375 20.796875 47.125 11.46875 
Q 40.96875 -1.90625 27 -1.90625 
Q 14.40625 -1.90625 8.25 9.03125 
Q 3.125 18.171875 3.125 33.546875 
Q 3.125 45.453125 6.203125 54 
Q 11.96875 69.921875 27.046875 69.921875 
z
M 26.953125 6.109375 
Q 33.796875 6.109375 37.84375 12.15625 
Q 41.890625 18.21875 41.890625 34.71875 
Q 41.890625 46.625 38.953125 54.3125 
Q 36.03125 62.015625 27.59375 62.015625 
Q 19.828125 62.015625 16.234375 54.703125 
Q 12.640625 47.40625 12.640625 33.203125 
Q 12.640625 22.515625 14.9375 16.015625 
Q 18.453125 6.109375 26.953125 6.109375 
z
" id="Helvetica-48"/>
        <path d="M 8.546875 10.640625 
L 18.75 10.640625 
L 18.75 0 
L 8.546875 0 
z
" id="Helvetica-46"/>
       </defs>
       <use xlink:href="#Helvetica-48"/>
       <use x="55.615234" xlink:href="#Helvetica-46"/>
       <use x="83.398438" xlink:href="#Helvetica-48"/>
      </g>
     </g>
    </g>
    <g id="ytick_2">
     <g id="line2d_2">
      <g>
       <use style="stroke:#000000;stroke-width:0.8;" x="48.78875" xlink:href="#m45d3cead14" y="177.813333"/>
      </g>
     </g>
     <g id="text_3">
      <!-- 0.5 -->
      <g transform="translate(27.89431 181.398617)scale(0.09996 -0.09996)">
       <defs>
        <path d="M 12.359375 17.828125 
Q 13.234375 10.296875 19.34375 7.421875 
Q 22.46875 5.953125 26.5625 5.953125 
Q 34.375 5.953125 38.125 10.9375 
Q 41.890625 15.921875 41.890625 21.96875 
Q 41.890625 29.296875 37.421875 33.296875 
Q 32.953125 37.3125 26.703125 37.3125 
Q 22.171875 37.3125 18.921875 35.546875 
Q 15.671875 33.796875 13.375 30.671875 
L 5.765625 31.109375 
L 11.078125 68.75 
L 47.40625 68.75 
L 47.40625 60.25 
L 17.671875 60.25 
L 14.703125 40.828125 
Q 17.140625 42.671875 19.34375 43.609375 
Q 23.25 45.21875 28.375 45.21875 
Q 37.984375 45.21875 44.671875 39.015625 
Q 51.375 32.8125 51.375 23.296875 
Q 51.375 13.375 45.234375 5.796875 
Q 39.109375 -1.765625 25.6875 -1.765625 
Q 17.140625 -1.765625 10.5625 3.046875 
Q 4 7.859375 3.21875 17.828125 
z
" id="Helvetica-53"/>
       </defs>
       <use xlink:href="#Helvetica-48"/>
       <use x="55.615234" xlink:href="#Helvetica-46"/>
       <use x="83.398438" xlink:href="#Helvetica-53"/>
      </g>
     </g>
    </g>
    <g id="ytick_3">
     <g id="line2d_3">
      <g>
       <use style="stroke:#000000;stroke-width:0.8;" x="48.78875" xlink:href="#m45d3cead14" y="126.296667"/>
      </g>
     </g>
     <g id="text_4">
      <!-- 1.0 -->
      <g transform="translate(27.89431 129.881951)scale(0.09996 -0.09996)">
       <defs>
        <path d="M 9.578125 49.515625 
L 9.578125 56.25 
Q 19.09375 57.171875 22.84375 59.34375 
Q 26.609375 61.53125 28.46875 69.625 
L 35.40625 69.625 
L 35.40625 0 
L 26.03125 0 
L 26.03125 49.515625 
z
" id="Helvetica-49"/>
       </defs>
       <use xlink:href="#Helvetica-49"/>
       <use x="55.615234" xlink:href="#Helvetica-46"/>
       <use x="83.398438" xlink:href="#Helvetica-48"/>
      </g>
     </g>
    </g>
    <g id="ytick_4">
     <g id="line2d_4">
      <g>
       <use style="stroke:#000000;stroke-width:0.8;" x="48.78875" xlink:href="#m45d3cead14" y="74.78"/>
      </g>
     </g>
     <g id="text_5">
      <!-- 1.5 -->
      <g transform="translate(27.89431 78.365284)scale(0.09996 -0.09996)">
       <use xlink:href="#Helvetica-49"/>
       <use x="55.615234" xlink:href="#Helvetica-46"/>
       <use x="83.398438" xlink:href="#Helvetica-53"/>
      </g>
     </g>
    </g>
    <g id="ytick_5">
     <g id="line2d_5">
      <g>
       <use style="stroke:#000000;stroke-width:0.8;" x="48.78875" xlink:href="#m45d3cead14" y="23.263333"/>
      </g>
     </g>
     <g id="text_6">
      <!-- 2.0 -->
      <g transform="translate(27.89431 26.848617)scale(0.09996 -0.09996)">
       <defs>
        <path d="M 3.125 0 
Q 3.609375 9.03125 6.859375 15.71875 
Q 10.109375 22.40625 19.53125 27.875 
L 28.90625 33.296875 
Q 35.203125 36.96875 37.75 39.546875 
Q 41.75 43.609375 41.75 48.828125 
Q 41.75 54.9375 38.078125 58.515625 
Q 34.421875 62.109375 28.328125 62.109375 
Q 19.28125 62.109375 15.828125 55.28125 
Q 13.96875 51.609375 13.765625 45.125 
L 4.828125 45.125 
Q 4.984375 54.25 8.203125 60.015625 
Q 13.921875 70.171875 28.375 70.171875 
Q 40.375 70.171875 45.921875 63.671875 
Q 51.46875 57.171875 51.46875 49.21875 
Q 51.46875 40.828125 45.5625 34.859375 
Q 42.140625 31.390625 33.296875 26.46875 
L 26.609375 22.75 
Q 21.828125 20.125 19.09375 17.71875 
Q 14.203125 13.484375 12.9375 8.296875 
L 51.125 8.296875 
L 51.125 0 
L 3.125 0 
z
" id="Helvetica-50"/>
       </defs>
       <use xlink:href="#Helvetica-50"/>
       <use x="55.615234" xlink:href="#Helvetica-46"/>
       <use x="83.398438" xlink:href="#Helvetica-48"/>
      </g>
     </g>
    </g>
    <g id="text_7">
     <!-- intensity vs NOAH edited HSQC/CLIP-COSY -->
     <g transform="translate(21.32181 256.301875)rotate(-90)scale(0.12 -0.12)">
      <defs>
       <path d="M 6.453125 52.296875 
L 14.796875 52.296875 
L 14.796875 44.875 
Q 18.5 49.46875 22.65625 51.46875 
Q 26.8125 53.46875 31.890625 53.46875 
Q 43.015625 53.46875 46.921875 45.703125 
Q 49.078125 41.453125 49.078125 33.546875 
L 49.078125 0 
L 40.140625 0 
L 40.140625 32.953125 
Q 40.140625 37.75 38.71875 40.671875 
Q 36.375 45.5625 30.21875 45.5625 
Q 27.09375 45.5625 25.09375 44.921875 
Q 21.484375 43.84375 18.75 40.625 
Q 16.546875 38.03125 15.890625 35.265625 
Q 15.234375 32.515625 15.234375 27.390625 
L 15.234375 0 
L 6.453125 0 
z
M 27.09375 53.5625 
z
" id="Helvetica-110"/>
       <path d="M 39.109375 52.296875 
L 48.828125 52.296875 
Q 46.96875 47.265625 40.578125 29.34375 
Q 35.796875 15.875 32.5625 7.375 
Q 24.953125 -12.640625 21.828125 -17.03125 
Q 18.703125 -21.4375 11.078125 -21.4375 
Q 9.234375 -21.4375 8.234375 -21.28125 
Q 7.234375 -21.140625 5.765625 -20.75 
L 5.765625 -12.75 
Q 8.0625 -13.375 9.078125 -13.515625 
Q 10.109375 -13.671875 10.890625 -13.671875 
Q 13.328125 -13.671875 14.46875 -12.859375 
Q 15.625 -12.0625 16.40625 -10.890625 
Q 16.65625 -10.5 18.15625 -6.875 
Q 19.671875 -3.265625 20.359375 -1.515625 
L 1.03125 52.296875 
L 10.984375 52.296875 
L 25 9.71875 
z
M 24.953125 53.5625 
z
" id="Helvetica-121"/>
       <path d="M 10.75 52.296875 
L 24.703125 9.71875 
L 39.3125 52.296875 
L 48.921875 52.296875 
L 29.203125 0 
L 19.828125 0 
L 0.53125 52.296875 
z
" id="Helvetica-118"/>
       <path d="M 7.625 71.734375 
L 19.09375 71.734375 
L 55.328125 13.625 
L 55.328125 71.734375 
L 64.546875 71.734375 
L 64.546875 0 
L 53.65625 0 
L 16.890625 58.0625 
L 16.890625 0 
L 7.625 0 
z
M 35.453125 71.734375 
z
" id="Helvetica-78"/>
       <path d="M 44.4375 29.390625 
L 33.546875 61.078125 
L 21.96875 29.390625 
z
M 28.46875 71.734375 
L 39.453125 71.734375 
L 65.484375 0 
L 54.828125 0 
L 47.5625 21.484375 
L 19.1875 21.484375 
L 11.421875 0 
L 1.46875 0 
z
" id="Helvetica-65"/>
      </defs>
      <use xlink:href="#Helvetica-105"/>
      <use x="22.216797" xlink:href="#Helvetica-110"/>
      <use x="77.832031" xlink:href="#Helvetica-116"/>
      <use x="105.615234" xlink:href="#Helvetica-101"/>
      <use x="161.230469" xlink:href="#Helvetica-110"/>
      <use x="216.845703" xlink:href="#Helvetica-115"/>
      <use x="266.845703" xlink:href="#Helvetica-105"/>
      <use x="289.0625" xlink:href="#Helvetica-116"/>
      <use x="316.845703" xlink:href="#Helvetica-121"/>
      <use x="366.845703" xlink:href="#Helvetica-32"/>
      <use x="394.628906" xlink:href="#Helvetica-118"/>
      <use x="444.628906" xlink:href="#Helvetica-115"/>
      <use x="494.628906" xlink:href="#Helvetica-32"/>
      <use x="522.412109" xlink:href="#Helvetica-78"/>
      <use x="594.628906" xlink:href="#Helvetica-79"/>
      <use x="672.412109" xlink:href="#Helvetica-65"/>
      <use x="739.111328" xlink:href="#Helvetica-72"/>
      <use x="811.328125" xlink:href="#Helvetica-32"/>
      <use x="839.111328" xlink:href="#Helvetica-101"/>
      <use x="894.726562" xlink:href="#Helvetica-100"/>
      <use x="950.341797" xlink:href="#Helvetica-105"/>
      <use x="972.558594" xlink:href="#Helvetica-116"/>
      <use x="1000.341797" xlink:href="#Helvetica-101"/>
      <use x="1055.957031" xlink:href="#Helvetica-100"/>
      <use x="1111.572266" xlink:href="#Helvetica-32"/>
      <use x="1139.355469" xlink:href="#Helvetica-72"/>
      <use x="1211.572266" xlink:href="#Helvetica-83"/>
      <use x="1278.271484" xlink:href="#Helvetica-81"/>
      <use x="1356.054688" xlink:href="#Helvetica-67"/>
      <use x="1428.271484" xlink:href="#Helvetica-47"/>
      <use x="1456.054688" xlink:href="#Helvetica-67"/>
      <use x="1528.271484" xlink:href="#Helvetica-76"/>
      <use x="1583.886719" xlink:href="#Helvetica-73"/>
      <use x="1611.669922" xlink:href="#Helvetica-80"/>
      <use x="1678.369141" xlink:href="#Helvetica-45"/>
      <use x="1711.669922" xlink:href="#Helvetica-67"/>
      <use x="1783.886719" xlink:href="#Helvetica-79"/>
      <use x="1861.669922" xlink:href="#Helvetica-83"/>
      <use x="1928.369141" xlink:href="#Helvetica-89"/>
     </g>
    </g>
   </g>
   <g id="line2d_6">
    <path clip-path="url(#pa9aba64552)" d="M 48.78875 126.296667 
L 297.684375 126.296667 
" style="fill:none;stroke:#808080;stroke-dasharray:1.85,0.8;stroke-dashoffset:0;stroke-width:0.5;"/>
   </g>
   <g id="patch_3">
    <path d="M 48.78875 260.24 
L 48.78875 12.96 
" style="fill:none;stroke:#000000;stroke-linecap:square;stroke-linejoin:miter;stroke-width:1.3;"/>
   </g>
   <g id="patch_4">
    <path d="M 297.684375 260.24 
L 297.684375 12.96 
" style="fill:none;stroke:#000000;stroke-linecap:square;stroke-linejoin:miter;stroke-width:1.3;"/>
   </g>
   <g id="patch_5">
    <path d="M 48.78875 260.24 
L 297.684375 260.24 
" style="fill:none;stroke:#000000;stroke-linecap:square;stroke-linejoin:miter;stroke-width:1.3;"/>
   </g>
   <g id="patch_6">
    <path d="M 48.78875 12.96 
L 297.684375 12.96 
" style="fill:none;stroke:#000000;stroke-linecap:square;stroke-linejoin:miter;stroke-width:1.3;"/>
   </g>
   <g id="PathCollection_5">
    <defs>
     <path d="M 0 2.5 
C 0.663008 2.5 1.29895 2.236584 1.767767 1.767767 
C 2.236584 1.29895 2.5 0.663008 2.5 -0 
C 2.5 -0.663008 2.236584 -1.29895 1.767767 -1.767767 
C 1.29895 -2.236584 0.663008 -2.5 0 -2.5 
C -0.663008 -2.5 -1.29895 -2.236584 -1.767767 -1.767767 
C -2.236584 -1.29895 -2.5 -0.663008 -2.5 0 
C -2.5 0.663008 -2.236584 1.29895 -1.767767 1.767767 
C -1.29895 2.236584 -0.663008 2.5 0 2.5 
z
" id="C0_0_f5ceccf92a"/>
    </defs>
    <g clip-path="url(#pa9aba64552)">
     <use style="fill:#4c72b0;" x="94.763268" xlink:href="#C0_0_f5ceccf92a" y="43.877219"/>
    </g>
    <g clip-path="url(#pa9aba64552)">
     <use style="fill:#4c72b0;" x="99.558644" xlink:href="#C0_0_f5ceccf92a" y="45.002198"/>
    </g>
    <g clip-path="url(#pa9aba64552)">
     <use style="fill:#4c72b0;" x="98.956112" xlink:href="#C0_0_f5ceccf92a" y="46.520977"/>
    </g>
    <g clip-path="url(#pa9aba64552)">
     <use style="fill:#4c72b0;" x="102.693807" xlink:href="#C0_0_f5ceccf92a" y="50.323815"/>
    </g>
    <g clip-path="url(#pa9aba64552)">
     <use style="fill:#4c72b0;" x="100.887344" xlink:href="#C0_0_f5ceccf92a" y="54.029508"/>
    </g>
   </g>
   <g id="PathCollection_6">
    <defs>
     <path d="M 0 2.5 
C 0.663008 2.5 1.29895 2.236584 1.767767 1.767767 
C 2.236584 1.29895 2.5 0.663008 2.5 -0 
C 2.5 -0.663008 2.236584 -1.29895 1.767767 -1.767767 
C 1.29895 -2.236584 0.663008 -2.5 0 -2.5 
C -0.663008 -2.5 -1.29895 -2.236584 -1.767767 -1.767767 
C -2.236584 -1.29895 -2.5 -0.663008 -2.5 0 
C -2.5 0.663008 -2.236584 1.29895 -1.767767 1.767767 
C -1.29895 2.236584 -0.663008 2.5 0 2.5 
z
" id="C1_0_040cc559f3"/>
    </defs>
    <g clip-path="url(#pa9aba64552)">
     <use style="fill:#dd8452;" x="153.417653" xlink:href="#C1_0_040cc559f3" y="92.427581"/>
    </g>
    <g clip-path="url(#pa9aba64552)">
     <use style="fill:#dd8452;" x="142.963606" xlink:href="#C1_0_040cc559f3" y="83.829514"/>
    </g>
    <g clip-path="url(#pa9aba64552)">
     <use style="fill:#dd8452;" x="143.667599" xlink:href="#C1_0_040cc559f3" y="96.166344"/>
    </g>
    <g clip-path="url(#pa9aba64552)">
     <use style="fill:#dd8452;" x="146.679004" xlink:href="#C1_0_040cc559f3" y="101.018347"/>
    </g>
    <g clip-path="url(#pa9aba64552)">
     <use style="fill:#dd8452;" x="153.631844" xlink:href="#C1_0_040cc559f3" y="102.922966"/>
    </g>
    <g clip-path="url(#pa9aba64552)">
     <use style="fill:#dd8452;" x="149.18777" xlink:href="#C1_0_040cc559f3" y="97.003405"/>
    </g>
    <g clip-path="url(#pa9aba64552)">
     <use style="fill:#dd8452;" x="150.238159" xlink:href="#C1_0_040cc559f3" y="57.801296"/>
    </g>
    <g clip-path="url(#pa9aba64552)">
     <use style="fill:#dd8452;" x="154.441059" xlink:href="#C1_0_040cc559f3" y="101.911436"/>
    </g>
    <g clip-path="url(#pa9aba64552)">
     <use style="fill:#dd8452;" x="149.102386" xlink:href="#C1_0_040cc559f3" y="94.140993"/>
    </g>
    <g clip-path="url(#pa9aba64552)">
     <use style="fill:#dd8452;" x="151.233397" xlink:href="#C1_0_040cc559f3" y="104.85444"/>
    </g>
    <g clip-path="url(#pa9aba64552)">
     <use style="fill:#dd8452;" x="154.49174" xlink:href="#C1_0_040cc559f3" y="97.794264"/>
    </g>
    <g clip-path="url(#pa9aba64552)">
     <use style="fill:#dd8452;" x="153.736219" xlink:href="#C1_0_040cc559f3" y="71.724182"/>
    </g>
    <g clip-path="url(#pa9aba64552)">
     <use style="fill:#dd8452;" x="150.480912" xlink:href="#C1_0_040cc559f3" y="94.157996"/>
    </g>
    <g clip-path="url(#pa9aba64552)">
     <use style="fill:#dd8452;" x="143.365578" xlink:href="#C1_0_040cc559f3" y="80.62164"/>
    </g>
   </g>
   <g id="PathCollection_7">
    <defs>
     <path d="M 0 2.5 
C 0.663008 2.5 1.29895 2.236584 1.767767 1.767767 
C 2.236584 1.29895 2.5 0.663008 2.5 -0 
C 2.5 -0.663008 2.236584 -1.29895 1.767767 -1.767767 
C 1.29895 -2.236584 0.663008 -2.5 0 -2.5 
C -0.663008 -2.5 -1.29895 -2.236584 -1.767767 -1.767767 
C -2.236584 -1.29895 -2.5 -0.663008 -2.5 0 
C -2.5 0.663008 -2.236584 1.29895 -1.767767 1.767767 
C -1.29895 2.236584 -0.663008 2.5 0 2.5 
z
" id="C2_0_a516156eea"/>
    </defs>
    <g clip-path="url(#pa9aba64552)">
     <use style="fill:#55a868;" x="199.754521" xlink:href="#C2_0_a516156eea" y="99.56873"/>
    </g>
    <g clip-path="url(#pa9aba64552)">
     <use style="fill:#55a868;" x="198.308953" xlink:href="#C2_0_a516156eea" y="104.123958"/>
    </g>
   </g>
   <g id="PathCollection_8">
    <defs>
     <path d="M 0 2.5 
C 0.663008 2.5 1.29895 2.236584 1.767767 1.767767 
C 2.236584 1.29895 2.5 0.663008 2.5 -0 
C 2.5 -0.663008 2.236584 -1.29895 1.767767 -1.767767 
C 1.29895 -2.236584 0.663008 -2.5 0 -2.5 
C -0.663008 -2.5 -1.29895 -2.236584 -1.767767 -1.767767 
C -2.236584 -1.29895 -2.5 -0.663008 -2.5 0 
C -2.5 0.663008 -2.236584 1.29895 -1.767767 1.767767 
C -1.29895 2.236584 -0.663008 2.5 0 2.5 
z
" id="C3_0_9ee7390bbf"/>
    </defs>
    <g clip-path="url(#pa9aba64552)">
     <use style="fill:#c44e52;" x="250.158916" xlink:href="#C3_0_9ee7390bbf" y="222.79085"/>
    </g>
    <g clip-path="url(#pa9aba64552)">
     <use style="fill:#c44e52;" x="249.601708" xlink:href="#C3_0_9ee7390bbf" y="215.317779"/>
    </g>
    <g clip-path="url(#pa9aba64552)">
     <use style="fill:#c44e52;" x="248.974916" xlink:href="#C3_0_9ee7390bbf" y="220.029969"/>
    </g>
    <g clip-path="url(#pa9aba64552)">
     <use style="fill:#c44e52;" x="245.408454" xlink:href="#C3_0_9ee7390bbf" y="216.811457"/>
    </g>
    <g clip-path="url(#pa9aba64552)">
     <use style="fill:#c44e52;" x="246.513431" xlink:href="#C3_0_9ee7390bbf" y="215.65995"/>
    </g>
    <g clip-path="url(#pa9aba64552)">
     <use style="fill:#c44e52;" x="253.343483" xlink:href="#C3_0_9ee7390bbf" y="218.134143"/>
    </g>
    <g clip-path="url(#pa9aba64552)">
     <use style="fill:#c44e52;" x="242.229658" xlink:href="#C3_0_9ee7390bbf" y="211.105736"/>
    </g>
    <g clip-path="url(#pa9aba64552)">
     <use style="fill:#c44e52;" x="249.840875" xlink:href="#C3_0_9ee7390bbf" y="213.012207"/>
    </g>
    <g clip-path="url(#pa9aba64552)">
     <use style="fill:#c44e52;" x="244.693383" xlink:href="#C3_0_9ee7390bbf" y="206.013982"/>
    </g>
    <g clip-path="url(#pa9aba64552)">
     <use style="fill:#c44e52;" x="243.506919" xlink:href="#C3_0_9ee7390bbf" y="210.798811"/>
    </g>
    <g clip-path="url(#pa9aba64552)">
     <use style="fill:#c44e52;" x="246.876333" xlink:href="#C3_0_9ee7390bbf" y="200.377915"/>
    </g>
    <g clip-path="url(#pa9aba64552)">
     <use style="fill:#c44e52;" x="249.726819" xlink:href="#C3_0_9ee7390bbf" y="205.962613"/>
    </g>
    <g clip-path="url(#pa9aba64552)">
     <use style="fill:#c44e52;" x="248.317781" xlink:href="#C3_0_9ee7390bbf" y="214.930945"/>
    </g>
    <g clip-path="url(#pa9aba64552)">
     <use style="fill:#c44e52;" x="245.748549" xlink:href="#C3_0_9ee7390bbf" y="197.323589"/>
    </g>
    <g clip-path="url(#pa9aba64552)">
     <use style="fill:#c44e52;" x="246.509643" xlink:href="#C3_0_9ee7390bbf" y="207.324776"/>
    </g>
    <g clip-path="url(#pa9aba64552)">
     <use style="fill:#c44e52;" x="253.149326" xlink:href="#C3_0_9ee7390bbf" y="203.747278"/>
    </g>
    <g clip-path="url(#pa9aba64552)">
     <use style="fill:#c44e52;" x="244.358945" xlink:href="#C3_0_9ee7390bbf" y="204.375099"/>
    </g>
    <g clip-path="url(#pa9aba64552)">
     <use style="fill:#c44e52;" x="248.072719" xlink:href="#C3_0_9ee7390bbf" y="203.321333"/>
    </g>
    <g clip-path="url(#pa9aba64552)">
     <use style="fill:#c44e52;" x="243.218627" xlink:href="#C3_0_9ee7390bbf" y="197.878669"/>
    </g>
    <g clip-path="url(#pa9aba64552)">
     <use style="fill:#c44e52;" x="253.811397" xlink:href="#C3_0_9ee7390bbf" y="198.82345"/>
    </g>
    <g clip-path="url(#pa9aba64552)">
     <use style="fill:#c44e52;" x="253.734674" xlink:href="#C3_0_9ee7390bbf" y="206.000923"/>
    </g>
    <g clip-path="url(#pa9aba64552)">
     <use style="fill:#c44e52;" x="253.899108" xlink:href="#C3_0_9ee7390bbf" y="210.355156"/>
    </g>
    <g clip-path="url(#pa9aba64552)">
     <use style="fill:#c44e52;" x="253.083522" xlink:href="#C3_0_9ee7390bbf" y="205.030802"/>
    </g>
    <g clip-path="url(#pa9aba64552)">
     <use style="fill:#c44e52;" x="248.160325" xlink:href="#C3_0_9ee7390bbf" y="220.022379"/>
    </g>
    <g clip-path="url(#pa9aba64552)">
     <use style="fill:#c44e52;" x="253.597818" xlink:href="#C3_0_9ee7390bbf" y="219.069837"/>
    </g>
    <g clip-path="url(#pa9aba64552)">
     <use style="fill:#c44e52;" x="245.139507" xlink:href="#C3_0_9ee7390bbf" y="211.423886"/>
    </g>
    <g clip-path="url(#pa9aba64552)">
     <use style="fill:#c44e52;" x="253.613752" xlink:href="#C3_0_9ee7390bbf" y="204.599887"/>
    </g>
    <g clip-path="url(#pa9aba64552)">
     <use style="fill:#c44e52;" x="244.828525" xlink:href="#C3_0_9ee7390bbf" y="203.471168"/>
    </g>
    <g clip-path="url(#pa9aba64552)">
     <use style="fill:#c44e52;" x="246.460711" xlink:href="#C3_0_9ee7390bbf" y="208.623232"/>
    </g>
    <g clip-path="url(#pa9aba64552)">
     <use style="fill:#c44e52;" x="250.308898" xlink:href="#C3_0_9ee7390bbf" y="198.220073"/>
    </g>
    <g clip-path="url(#pa9aba64552)">
     <use style="fill:#c44e52;" x="248.348629" xlink:href="#C3_0_9ee7390bbf" y="189.354588"/>
    </g>
    <g clip-path="url(#pa9aba64552)">
     <use style="fill:#c44e52;" x="249.085574" xlink:href="#C3_0_9ee7390bbf" y="197.387245"/>
    </g>
    <g clip-path="url(#pa9aba64552)">
     <use style="fill:#c44e52;" x="246.475016" xlink:href="#C3_0_9ee7390bbf" y="197.49837"/>
    </g>
    <g clip-path="url(#pa9aba64552)">
     <use style="fill:#c44e52;" x="251.956488" xlink:href="#C3_0_9ee7390bbf" y="193.425902"/>
    </g>
    <g clip-path="url(#pa9aba64552)">
     <use style="fill:#c44e52;" x="248.980214" xlink:href="#C3_0_9ee7390bbf" y="194.939445"/>
    </g>
    <g clip-path="url(#pa9aba64552)">
     <use style="fill:#c44e52;" x="250.439891" xlink:href="#C3_0_9ee7390bbf" y="199.360107"/>
    </g>
    <g clip-path="url(#pa9aba64552)">
     <use style="fill:#c44e52;" x="246.740314" xlink:href="#C3_0_9ee7390bbf" y="204.417958"/>
    </g>
    <g clip-path="url(#pa9aba64552)">
     <use style="fill:#c44e52;" x="250.805953" xlink:href="#C3_0_9ee7390bbf" y="224.096144"/>
    </g>
    <g clip-path="url(#pa9aba64552)">
     <use style="fill:#c44e52;" x="248.843491" xlink:href="#C3_0_9ee7390bbf" y="215.905577"/>
    </g>
    <g clip-path="url(#pa9aba64552)">
     <use style="fill:#c44e52;" x="243.799769" xlink:href="#C3_0_9ee7390bbf" y="220.022792"/>
    </g>
    <g clip-path="url(#pa9aba64552)">
     <use style="fill:#c44e52;" x="243.163214" xlink:href="#C3_0_9ee7390bbf" y="218.603667"/>
    </g>
    <g clip-path="url(#pa9aba64552)">
     <use style="fill:#c44e52;" x="250.223442" xlink:href="#C3_0_9ee7390bbf" y="213.26328"/>
    </g>
    <g clip-path="url(#pa9aba64552)">
     <use style="fill:#c44e52;" x="244.798524" xlink:href="#C3_0_9ee7390bbf" y="211.35623"/>
    </g>
    <g clip-path="url(#pa9aba64552)">
     <use style="fill:#c44e52;" x="251.783769" xlink:href="#C3_0_9ee7390bbf" y="205.460822"/>
    </g>
    <g clip-path="url(#pa9aba64552)">
     <use style="fill:#c44e52;" x="250.342149" xlink:href="#C3_0_9ee7390bbf" y="214.92488"/>
    </g>
    <g clip-path="url(#pa9aba64552)">
     <use style="fill:#c44e52;" x="248.680514" xlink:href="#C3_0_9ee7390bbf" y="169.679746"/>
    </g>
    <g clip-path="url(#pa9aba64552)">
     <use style="fill:#c44e52;" x="252.701198" xlink:href="#C3_0_9ee7390bbf" y="196.565091"/>
    </g>
    <g clip-path="url(#pa9aba64552)">
     <use style="fill:#c44e52;" x="242.656526" xlink:href="#C3_0_9ee7390bbf" y="202.467055"/>
    </g>
    <g clip-path="url(#pa9aba64552)">
     <use style="fill:#c44e52;" x="252.154491" xlink:href="#C3_0_9ee7390bbf" y="208.424723"/>
    </g>
    <g clip-path="url(#pa9aba64552)">
     <use style="fill:#c44e52;" x="252.633164" xlink:href="#C3_0_9ee7390bbf" y="210.500301"/>
    </g>
    <g clip-path="url(#pa9aba64552)">
     <use style="fill:#c44e52;" x="249.784495" xlink:href="#C3_0_9ee7390bbf" y="193.018986"/>
    </g>
    <g clip-path="url(#pa9aba64552)">
     <use style="fill:#c44e52;" x="247.991315" xlink:href="#C3_0_9ee7390bbf" y="218.792951"/>
    </g>
   </g>
   <g id="text_8">
    <!-- (1.76) -->
    <g style="fill:#4c72b0;" transform="translate(82.895688 255.2944)scale(0.12 -0.12)">
     <defs>
      <path d="M 29.59375 72.90625 
Q 21.921875 58.015625 19.625 50.984375 
Q 16.15625 40.28125 16.15625 26.265625 
Q 16.15625 12.109375 20.125 0.390625 
Q 22.5625 -6.84375 29.734375 -20.40625 
L 23.828125 -20.40625 
Q 16.703125 -9.28125 14.984375 -6.203125 
Q 13.28125 -3.125 11.28125 2.15625 
Q 8.546875 9.375 7.46875 17.578125 
Q 6.9375 21.828125 6.9375 25.6875 
Q 6.9375 40.140625 11.46875 51.421875 
Q 14.359375 58.59375 23.484375 72.90625 
z
" id="Helvetica-40"/>
      <path d="M 52.296875 68.75 
L 52.296875 61.078125 
Q 48.921875 57.8125 43.328125 49.703125 
Q 37.75 41.609375 33.453125 32.234375 
Q 29.203125 23.09375 27 15.578125 
Q 25.59375 10.75 23.34375 0 
L 13.625 0 
Q 16.9375 20.015625 28.265625 39.84375 
Q 34.96875 51.46875 42.328125 59.90625 
L 3.65625 59.90625 
L 3.65625 68.75 
z
" id="Helvetica-55"/>
      <path d="M 29.25 70.21875 
Q 40.96875 70.21875 45.578125 64.140625 
Q 50.203125 58.0625 50.203125 51.609375 
L 41.5 51.609375 
Q 40.71875 55.765625 39.015625 58.109375 
Q 35.84375 62.5 29.390625 62.5 
Q 22.015625 62.5 17.671875 55.6875 
Q 13.328125 48.875 12.84375 36.1875 
Q 15.875 40.625 20.453125 42.828125 
Q 24.65625 44.78125 29.828125 44.78125 
Q 38.625 44.78125 45.15625 39.15625 
Q 51.703125 33.546875 51.703125 22.40625 
Q 51.703125 12.890625 45.5 5.53125 
Q 39.3125 -1.8125 27.828125 -1.8125 
Q 18.015625 -1.8125 10.890625 5.640625 
Q 3.765625 13.09375 3.765625 30.71875 
Q 3.765625 43.75 6.9375 52.828125 
Q 13.03125 70.21875 29.25 70.21875 
z
M 28.609375 6 
Q 35.546875 6 38.984375 10.65625 
Q 42.4375 15.328125 42.4375 21.6875 
Q 42.4375 27.046875 39.359375 31.90625 
Q 36.28125 36.765625 28.171875 36.765625 
Q 22.515625 36.765625 18.234375 33 
Q 13.96875 29.25 13.96875 21.6875 
Q 13.96875 15.046875 17.84375 10.515625 
Q 21.734375 6 28.609375 6 
z
" id="Helvetica-54"/>
      <path d="M 3.46875 -20.40625 
Q 11.234375 -5.28125 13.484375 1.65625 
Q 16.890625 12.15625 16.890625 26.265625 
Q 16.890625 40.375 12.9375 52.09375 
Q 10.5 59.328125 3.328125 72.90625 
L 9.234375 72.90625 
Q 16.75 60.890625 18.328125 58.078125 
Q 19.921875 55.28125 21.78125 50.34375 
Q 24.125 44.234375 25.125 38.28125 
Q 26.125 32.328125 26.125 26.8125 
Q 26.125 12.359375 21.53125 1.03125 
Q 18.65625 -6.25 9.578125 -20.40625 
z
" id="Helvetica-41"/>
     </defs>
     <use xlink:href="#Helvetica-40"/>
     <use x="33.300781" xlink:href="#Helvetica-49"/>
     <use x="88.916016" xlink:href="#Helvetica-46"/>
     <use x="116.699219" xlink:href="#Helvetica-55"/>
     <use x="172.314453" xlink:href="#Helvetica-54"/>
     <use x="227.929688" xlink:href="#Helvetica-41"/>
    </g>
   </g>
   <g id="text_9">
    <!-- (1.34) -->
    <g style="fill:#dd8452;" transform="translate(132.674813 255.2944)scale(0.12 -0.12)">
     <defs>
      <path d="M 25.984375 -1.90625 
Q 13.578125 -1.90625 7.984375 4.90625 
Q 2.390625 11.71875 2.390625 21.484375 
L 11.578125 21.484375 
Q 12.15625 14.703125 14.109375 11.625 
Q 17.53125 6.109375 26.46875 6.109375 
Q 33.40625 6.109375 37.59375 9.8125 
Q 41.796875 13.53125 41.796875 19.390625 
Q 41.796875 26.609375 37.375 29.484375 
Q 32.953125 32.375 25.09375 32.375 
Q 24.21875 32.375 23.3125 32.34375 
Q 22.40625 32.328125 21.484375 32.28125 
L 21.484375 40.046875 
Q 22.859375 39.890625 23.78125 39.84375 
Q 24.703125 39.796875 25.78125 39.796875 
Q 30.71875 39.796875 33.890625 41.359375 
Q 39.453125 44.09375 39.453125 51.125 
Q 39.453125 56.34375 35.734375 59.171875 
Q 32.03125 62.015625 27.09375 62.015625 
Q 18.3125 62.015625 14.9375 56.15625 
Q 13.09375 52.9375 12.84375 46.96875 
L 4.15625 46.96875 
Q 4.15625 54.78125 7.28125 60.25 
Q 12.640625 70.015625 26.171875 70.015625 
Q 36.859375 70.015625 42.71875 65.25 
Q 48.578125 60.5 48.578125 51.46875 
Q 48.578125 45.015625 45.125 41.015625 
Q 42.96875 38.53125 39.546875 37.109375 
Q 45.0625 35.59375 48.15625 31.265625 
Q 51.265625 26.953125 51.265625 20.703125 
Q 51.265625 10.6875 44.671875 4.390625 
Q 38.09375 -1.90625 25.984375 -1.90625 
z
" id="Helvetica-51"/>
      <path d="M 33.0625 24.75 
L 33.0625 56.453125 
L 10.640625 24.75 
z
M 33.203125 0 
L 33.203125 17.09375 
L 2.546875 17.09375 
L 2.546875 25.6875 
L 34.578125 70.125 
L 42 70.125 
L 42 24.75 
L 52.296875 24.75 
L 52.296875 17.09375 
L 42 17.09375 
L 42 0 
z
" id="Helvetica-52"/>
     </defs>
     <use xlink:href="#Helvetica-40"/>
     <use x="33.300781" xlink:href="#Helvetica-49"/>
     <use x="88.916016" xlink:href="#Helvetica-46"/>
     <use x="116.699219" xlink:href="#Helvetica-51"/>
     <use x="172.314453" xlink:href="#Helvetica-52"/>
     <use x="227.929688" xlink:href="#Helvetica-41"/>
    </g>
   </g>
   <g id="text_10">
    <!-- (1.24) -->
    <g style="fill:#55a868;" transform="translate(182.453938 255.2944)scale(0.12 -0.12)">
     <use xlink:href="#Helvetica-40"/>
     <use x="33.300781" xlink:href="#Helvetica-49"/>
     <use x="88.916016" xlink:href="#Helvetica-46"/>
     <use x="116.699219" xlink:href="#Helvetica-50"/>
     <use x="172.314453" xlink:href="#Helvetica-52"/>
     <use x="227.929688" xlink:href="#Helvetica-41"/>
    </g>
   </g>
   <g id="text_11">
    <!-- (0.22) -->
    <g style="fill:#c44e52;" transform="translate(232.233063 255.2944)scale(0.12 -0.12)">
     <use xlink:href="#Helvetica-40"/>
     <use x="33.300781" xlink:href="#Helvetica-48"/>
     <use x="88.916016" xlink:href="#Helvetica-46"/>
     <use x="116.699219" xlink:href="#Helvetica-50"/>
     <use x="172.314453" xlink:href="#Helvetica-50"/>
     <use x="227.929688" xlink:href="#Helvetica-41"/>
    </g>
   </g>
   <g id="text_12">
    <!-- (a) -->
    <g transform="translate(53.766663 28.035913)scale(0.14 -0.14)">
     <defs>
      <path d="M 10.0625 53.8125 
Q 13.921875 62.796875 21.34375 73.140625 
L 31.84375 73.140625 
L 28.859375 67.671875 
Q 22.703125 56.390625 20.3125 44.046875 
Q 18.75 35.9375 18.75 26.375 
Q 18.75 11.421875 23.09375 -1.125 
Q 25.640625 -8.546875 32.078125 -20.171875 
L 21.78125 -20.171875 
L 18.3125 -15.4375 
Q 14.9375 -11.140625 11.140625 -2.640625 
Q 4.34375 12.546875 4.34375 27.25 
Q 4.34375 40.625 10.0625 53.8125 
z
" id="Helvetica-Bold-40"/>
      <path d="M 35.84375 25.875 
Q 34.515625 25.046875 33.171875 24.53125 
Q 31.84375 24.03125 29.5 23.578125 
L 26.375 23 
Q 21.96875 22.21875 20.0625 21.09375 
Q 16.84375 19.1875 16.84375 15.1875 
Q 16.84375 11.625 18.8125 10.03125 
Q 20.796875 8.453125 23.640625 8.453125 
Q 28.125 8.453125 31.90625 11.078125 
Q 35.6875 13.71875 35.84375 20.703125 
z
M 27.390625 32.375 
Q 31.25 32.859375 32.90625 33.59375 
Q 35.890625 34.859375 35.890625 37.546875 
Q 35.890625 40.828125 33.609375 42.0625 
Q 31.34375 43.3125 26.953125 43.3125 
Q 22.015625 43.3125 19.96875 40.875 
Q 18.5 39.0625 18.015625 35.984375 
L 4.59375 35.984375 
Q 5.03125 42.96875 8.5 47.46875 
Q 14.015625 54.5 27.4375 54.5 
Q 36.1875 54.5 42.96875 51.03125 
Q 49.75 47.5625 49.75 37.9375 
L 49.75 13.53125 
Q 49.75 10.984375 49.859375 7.375 
Q 50 4.640625 50.6875 3.65625 
Q 51.375 2.6875 52.734375 2.046875 
L 52.734375 0 
L 37.59375 0 
Q 36.96875 1.609375 36.71875 3.015625 
Q 36.46875 4.4375 36.328125 6.25 
Q 33.453125 3.125 29.6875 0.921875 
Q 25.203125 -1.65625 19.53125 -1.65625 
Q 12.3125 -1.65625 7.59375 2.46875 
Q 2.875 6.59375 2.875 14.15625 
Q 2.875 23.96875 10.453125 28.375 
Q 14.59375 30.765625 22.65625 31.78125 
z
M 28.125 54.640625 
z
" id="Helvetica-Bold-97"/>
      <path d="M 11.765625 73.140625 
Q 19.1875 62.796875 23.046875 53.8125 
Q 28.765625 40.625 28.765625 27.25 
Q 28.765625 12.546875 21.96875 -2.640625 
Q 18.171875 -11.140625 14.796875 -15.4375 
L 11.328125 -20.171875 
L 1.03125 -20.171875 
Q 7.46875 -8.546875 10.015625 -1.125 
Q 14.359375 11.421875 14.359375 26.375 
Q 14.359375 35.9375 12.796875 44.046875 
Q 10.40625 56.390625 4.25 67.671875 
L 1.265625 73.140625 
L 11.765625 73.140625 
z
" id="Helvetica-Bold-41"/>
     </defs>
     <use xlink:href="#Helvetica-Bold-40"/>
     <use x="33.300781" xlink:href="#Helvetica-Bold-97"/>
     <use x="88.916016" xlink:href="#Helvetica-Bold-41"/>
    </g>
   </g>
   <g id="legend_1">
    <g id="patch_7">
     <path d="M 190.404375 90.9975 
L 289.284375 90.9975 
Q 291.684375 90.9975 291.684375 88.5975 
L 291.684375 21.36 
Q 291.684375 18.96 289.284375 18.96 
L 190.404375 18.96 
Q 188.004375 18.96 188.004375 21.36 
L 188.004375 88.5975 
Q 188.004375 90.9975 190.404375 90.9975 
z
" style="fill:#ffffff;opacity:0.8;stroke:#cccccc;stroke-linejoin:miter;"/>
    </g>
    <g id="PathCollection_9">
     <path d="M 204.804375 31.718125 
C 205.467383 31.718125 206.103325 31.454709 206.572142 30.985892 
C 207.040959 30.517075 207.304375 29.881133 207.304375 29.218125 
C 207.304375 28.555117 207.040959 27.919175 206.572142 27.450358 
C 206.103325 26.981541 205.467383 26.718125 204.804375 26.718125 
C 204.141367 26.718125 203.505425 26.981541 203.036608 27.450358 
C 202.567791 27.919175 202.304375 28.555117 202.304375 29.218125 
C 202.304375 29.881133 202.567791 30.517075 203.036608 30.985892 
C 203.505425 31.454709 204.141367 31.718125 204.804375 31.718125 
z
" style="fill:#4c72b0;"/>
    </g>
    <g id="text_13">
     <!-- HSQC CH -->
     <g transform="translate(226.404375 32.368125)scale(0.12 -0.12)">
      <use xlink:href="#Helvetica-72"/>
      <use x="72.216797" xlink:href="#Helvetica-83"/>
      <use x="138.916016" xlink:href="#Helvetica-81"/>
      <use x="216.699219" xlink:href="#Helvetica-67"/>
      <use x="288.916016" xlink:href="#Helvetica-32"/>
      <use x="316.699219" xlink:href="#Helvetica-67"/>
      <use x="388.916016" xlink:href="#Helvetica-72"/>
     </g>
    </g>
    <g id="PathCollection_10">
     <path d="M 204.804375 48.8275 
C 205.467383 48.8275 206.103325 48.564084 206.572142 48.095267 
C 207.040959 47.62645 207.304375 46.990508 207.304375 46.3275 
C 207.304375 45.664492 207.040959 45.02855 206.572142 44.559733 
C 206.103325 44.090916 205.467383 43.8275 204.804375 43.8275 
C 204.141367 43.8275 203.505425 44.090916 203.036608 44.559733 
C 202.567791 45.02855 202.304375 45.664492 202.304375 46.3275 
C 202.304375 46.990508 202.567791 47.62645 203.036608 48.095267 
C 203.505425 48.564084 204.141367 48.8275 204.804375 48.8275 
z
" style="fill:#dd8452;"/>
    </g>
    <g id="text_14">
     <!-- HSQC CH$_2$ -->
     <g transform="translate(226.404375 49.4775)scale(0.12 -0.12)">
      <use transform="translate(0 0.3125)" xlink:href="#Helvetica-72"/>
      <use transform="translate(72.216797 0.3125)" xlink:href="#Helvetica-83"/>
      <use transform="translate(138.916016 0.3125)" xlink:href="#Helvetica-81"/>
      <use transform="translate(216.699219 0.3125)" xlink:href="#Helvetica-67"/>
      <use transform="translate(288.916016 0.3125)" xlink:href="#Helvetica-32"/>
      <use transform="translate(316.699219 0.3125)" xlink:href="#Helvetica-67"/>
      <use transform="translate(388.916016 0.3125)" xlink:href="#Helvetica-72"/>
      <use transform="translate(462.048008 -15.376563)scale(0.7)" xlink:href="#Helvetica-50"/>
     </g>
    </g>
    <g id="PathCollection_11">
     <path d="M 204.804375 65.936875 
C 205.467383 65.936875 206.103325 65.673459 206.572142 65.204642 
C 207.040959 64.735825 207.304375 64.099883 207.304375 63.436875 
C 207.304375 62.773867 207.040959 62.137925 206.572142 61.669108 
C 206.103325 61.200291 205.467383 60.936875 204.804375 60.936875 
C 204.141367 60.936875 203.505425 61.200291 203.036608 61.669108 
C 202.567791 62.137925 202.304375 62.773867 202.304375 63.436875 
C 202.304375 64.099883 202.567791 64.735825 203.036608 65.204642 
C 203.505425 65.673459 204.141367 65.936875 204.804375 65.936875 
z
" style="fill:#55a868;"/>
    </g>
    <g id="text_15">
     <!-- HSQC CH$_3$ -->
     <g transform="translate(226.404375 66.586875)scale(0.12 -0.12)">
      <use transform="translate(0 0.3125)" xlink:href="#Helvetica-72"/>
      <use transform="translate(72.216797 0.3125)" xlink:href="#Helvetica-83"/>
      <use transform="translate(138.916016 0.3125)" xlink:href="#Helvetica-81"/>
      <use transform="translate(216.699219 0.3125)" xlink:href="#Helvetica-67"/>
      <use transform="translate(288.916016 0.3125)" xlink:href="#Helvetica-32"/>
      <use transform="translate(316.699219 0.3125)" xlink:href="#Helvetica-67"/>
      <use transform="translate(388.916016 0.3125)" xlink:href="#Helvetica-72"/>
      <use transform="translate(462.048008 -15.376563)scale(0.7)" xlink:href="#Helvetica-51"/>
     </g>
    </g>
    <g id="PathCollection_12">
     <path d="M 204.804375 83.04625 
C 205.467383 83.04625 206.103325 82.782834 206.572142 82.314017 
C 207.040959 81.8452 207.304375 81.209258 207.304375 80.54625 
C 207.304375 79.883242 207.040959 79.2473 206.572142 78.778483 
C 206.103325 78.309666 205.467383 78.04625 204.804375 78.04625 
C 204.141367 78.04625 203.505425 78.309666 203.036608 78.778483 
C 202.567791 79.2473 202.304375 79.883242 202.304375 80.54625 
C 202.304375 81.209258 202.567791 81.8452 203.036608 82.314017 
C 203.505425 82.782834 204.141367 83.04625 204.804375 83.04625 
z
" style="fill:#c44e52;"/>
    </g>
    <g id="text_16">
     <!-- COSY -->
     <g transform="translate(226.404375 83.69625)scale(0.12 -0.12)">
      <use xlink:href="#Helvetica-67"/>
      <use x="72.216797" xlink:href="#Helvetica-79"/>
      <use x="150" xlink:href="#Helvetica-83"/>
      <use x="216.699219" xlink:href="#Helvetica-89"/>
     </g>
    </g>
   </g>
  </g>
  <g id="axes_2">
   <g id="patch_8">
    <path d="M 314.144375 260.24 
L 563.04 260.24 
L 563.04 12.96 
L 314.144375 12.96 
z
" style="fill:#ffffff;"/>
   </g>
   <g id="PathCollection_13"/>
   <g id="PathCollection_14"/>
   <g id="PathCollection_15"/>
   <g id="PathCollection_16"/>
   <g id="matplotlib.axis_3">
    <g id="text_17">
     <!-- NOAH edited seHSQC/CLIP-COSY -->
     <g transform="translate(343.897187 272.848125)scale(0.12 -0.12)">
      <use xlink:href="#Helvetica-78"/>
      <use x="72.216797" xlink:href="#Helvetica-79"/>
      <use x="150" xlink:href="#Helvetica-65"/>
      <use x="216.699219" xlink:href="#Helvetica-72"/>
      <use x="288.916016" xlink:href="#Helvetica-32"/>
      <use x="316.699219" xlink:href="#Helvetica-101"/>
      <use x="372.314453" xlink:href="#Helvetica-100"/>
      <use x="427.929688" xlink:href="#Helvetica-105"/>
      <use x="450.146484" xlink:href="#Helvetica-116"/>
      <use x="477.929688" xlink:href="#Helvetica-101"/>
      <use x="533.544922" xlink:href="#Helvetica-100"/>
      <use x="589.160156" xlink:href="#Helvetica-32"/>
      <use x="616.943359" xlink:href="#Helvetica-115"/>
      <use x="666.943359" xlink:href="#Helvetica-101"/>
      <use x="722.558594" xlink:href="#Helvetica-72"/>
      <use x="794.775391" xlink:href="#Helvetica-83"/>
      <use x="861.474609" xlink:href="#Helvetica-81"/>
      <use x="939.257812" xlink:href="#Helvetica-67"/>
      <use x="1011.474609" xlink:href="#Helvetica-47"/>
      <use x="1039.257812" xlink:href="#Helvetica-67"/>
      <use x="1111.474609" xlink:href="#Helvetica-76"/>
      <use x="1167.089844" xlink:href="#Helvetica-73"/>
      <use x="1194.873047" xlink:href="#Helvetica-80"/>
      <use x="1261.572266" xlink:href="#Helvetica-45"/>
      <use x="1294.873047" xlink:href="#Helvetica-67"/>
      <use x="1367.089844" xlink:href="#Helvetica-79"/>
      <use x="1444.873047" xlink:href="#Helvetica-83"/>
      <use x="1511.572266" xlink:href="#Helvetica-89"/>
     </g>
    </g>
   </g>
   <g id="line2d_7">
    <path clip-path="url(#p015903a5bc)" d="M 314.144375 126.296667 
L 563.04 126.296667 
" style="fill:none;stroke:#808080;stroke-dasharray:1.85,0.8;stroke-dashoffset:0;stroke-width:0.5;"/>
   </g>
   <g id="patch_9">
    <path d="M 314.144375 260.24 
L 314.144375 12.96 
" style="fill:none;stroke:#000000;stroke-linecap:square;stroke-linejoin:miter;stroke-width:1.3;"/>
   </g>
   <g id="patch_10">
    <path d="M 563.04 260.24 
L 563.04 12.96 
" style="fill:none;stroke:#000000;stroke-linecap:square;stroke-linejoin:miter;stroke-width:1.3;"/>
   </g>
   <g id="patch_11">
    <path d="M 314.144375 260.24 
L 563.04 260.24 
" style="fill:none;stroke:#000000;stroke-linecap:square;stroke-linejoin:miter;stroke-width:1.3;"/>
   </g>
   <g id="patch_12">
    <path d="M 314.144375 12.96 
L 563.04 12.96 
" style="fill:none;stroke:#000000;stroke-linecap:square;stroke-linejoin:miter;stroke-width:1.3;"/>
   </g>
   <g id="PathCollection_17">
    <defs>
     <path d="M 0 2.5 
C 0.663008 2.5 1.29895 2.236584 1.767767 1.767767 
C 2.236584 1.29895 2.5 0.663008 2.5 -0 
C 2.5 -0.663008 2.236584 -1.29895 1.767767 -1.767767 
C 1.29895 -2.236584 0.663008 -2.5 0 -2.5 
C -0.663008 -2.5 -1.29895 -2.236584 -1.767767 -1.767767 
C -2.236584 -1.29895 -2.5 -0.663008 -2.5 0 
C -2.5 0.663008 -2.236584 1.29895 -1.767767 1.767767 
C -1.29895 2.236584 -0.663008 2.5 0 2.5 
z
" id="C4_0_75503c1baa"/>
    </defs>
    <g clip-path="url(#p015903a5bc)">
     <use style="fill:#4c72b0;" x="358.499225" xlink:href="#C4_0_75503c1baa" y="85.91526"/>
    </g>
    <g clip-path="url(#p015903a5bc)">
     <use style="fill:#4c72b0;" x="359.802936" xlink:href="#C4_0_75503c1baa" y="58.491122"/>
    </g>
    <g clip-path="url(#p015903a5bc)">
     <use style="fill:#4c72b0;" x="369.585867" xlink:href="#C4_0_75503c1baa" y="66.104402"/>
    </g>
    <g clip-path="url(#p015903a5bc)">
     <use style="fill:#4c72b0;" x="369.276521" xlink:href="#C4_0_75503c1baa" y="94.217557"/>
    </g>
    <g clip-path="url(#p015903a5bc)">
     <use style="fill:#4c72b0;" x="365.727295" xlink:href="#C4_0_75503c1baa" y="83.838188"/>
    </g>
   </g>
   <g id="PathCollection_18">
    <defs>
     <path d="M 0 2.5 
C 0.663008 2.5 1.29895 2.236584 1.767767 1.767767 
C 2.236584 1.29895 2.5 0.663008 2.5 -0 
C 2.5 -0.663008 2.236584 -1.29895 1.767767 -1.767767 
C 1.29895 -2.236584 0.663008 -2.5 0 -2.5 
C -0.663008 -2.5 -1.29895 -2.236584 -1.767767 -1.767767 
C -2.236584 -1.29895 -2.5 -0.663008 -2.5 0 
C -2.5 0.663008 -2.236584 1.29895 -1.767767 1.767767 
C -1.29895 2.236584 -0.663008 2.5 0 2.5 
z
" id="C5_0_923920a2c2"/>
    </defs>
    <g clip-path="url(#p015903a5bc)">
     <use style="fill:#dd8452;" x="419.681481" xlink:href="#C5_0_923920a2c2" y="112.872032"/>
    </g>
    <g clip-path="url(#p015903a5bc)">
     <use style="fill:#dd8452;" x="416.333528" xlink:href="#C5_0_923920a2c2" y="103.069153"/>
    </g>
    <g clip-path="url(#p015903a5bc)">
     <use style="fill:#dd8452;" x="418.077447" xlink:href="#C5_0_923920a2c2" y="118.050678"/>
    </g>
    <g clip-path="url(#p015903a5bc)">
     <use style="fill:#dd8452;" x="418.397861" xlink:href="#C5_0_923920a2c2" y="113.18138"/>
    </g>
    <g clip-path="url(#p015903a5bc)">
     <use style="fill:#dd8452;" x="416.706483" xlink:href="#C5_0_923920a2c2" y="129.294321"/>
    </g>
    <g clip-path="url(#p015903a5bc)">
     <use style="fill:#dd8452;" x="414.317245" xlink:href="#C5_0_923920a2c2" y="123.618181"/>
    </g>
    <g clip-path="url(#p015903a5bc)">
     <use style="fill:#dd8452;" x="418.389145" xlink:href="#C5_0_923920a2c2" y="98.599432"/>
    </g>
    <g clip-path="url(#p015903a5bc)">
     <use style="fill:#dd8452;" x="411.258368" xlink:href="#C5_0_923920a2c2" y="134.958763"/>
    </g>
    <g clip-path="url(#p015903a5bc)">
     <use style="fill:#dd8452;" x="413.924906" xlink:href="#C5_0_923920a2c2" y="130.172876"/>
    </g>
    <g clip-path="url(#p015903a5bc)">
     <use style="fill:#dd8452;" x="417.802248" xlink:href="#C5_0_923920a2c2" y="129.277447"/>
    </g>
    <g clip-path="url(#p015903a5bc)">
     <use style="fill:#dd8452;" x="417.203638" xlink:href="#C5_0_923920a2c2" y="107.758866"/>
    </g>
    <g clip-path="url(#p015903a5bc)">
     <use style="fill:#dd8452;" x="409.900295" xlink:href="#C5_0_923920a2c2" y="124.436292"/>
    </g>
    <g clip-path="url(#p015903a5bc)">
     <use style="fill:#dd8452;" x="412.085722" xlink:href="#C5_0_923920a2c2" y="118.451422"/>
    </g>
    <g clip-path="url(#p015903a5bc)">
     <use style="fill:#dd8452;" x="416.54893" xlink:href="#C5_0_923920a2c2" y="108.936514"/>
    </g>
   </g>
   <g id="PathCollection_19">
    <defs>
     <path d="M 0 2.5 
C 0.663008 2.5 1.29895 2.236584 1.767767 1.767767 
C 2.236584 1.29895 2.5 0.663008 2.5 -0 
C 2.5 -0.663008 2.236584 -1.29895 1.767767 -1.767767 
C 1.29895 -2.236584 0.663008 -2.5 0 -2.5 
C -0.663008 -2.5 -1.29895 -2.236584 -1.767767 -1.767767 
C -2.236584 -1.29895 -2.5 -0.663008 -2.5 0 
C -2.5 0.663008 -2.236584 1.29895 -1.767767 1.767767 
C -1.29895 2.236584 -0.663008 2.5 0 2.5 
z
" id="C6_0_ab92d796c8"/>
    </defs>
    <g clip-path="url(#p015903a5bc)">
     <use style="fill:#55a868;" x="468.128946" xlink:href="#C6_0_ab92d796c8" y="132.171815"/>
    </g>
    <g clip-path="url(#p015903a5bc)">
     <use style="fill:#55a868;" x="464.679288" xlink:href="#C6_0_ab92d796c8" y="143.072801"/>
    </g>
   </g>
   <g id="PathCollection_20">
    <defs>
     <path d="M 0 2.5 
C 0.663008 2.5 1.29895 2.236584 1.767767 1.767767 
C 2.236584 1.29895 2.5 0.663008 2.5 -0 
C 2.5 -0.663008 2.236584 -1.29895 1.767767 -1.767767 
C 1.29895 -2.236584 0.663008 -2.5 0 -2.5 
C -0.663008 -2.5 -1.29895 -2.236584 -1.767767 -1.767767 
C -2.236584 -1.29895 -2.5 -0.663008 -2.5 0 
C -2.5 0.663008 -2.236584 1.29895 -1.767767 1.767767 
C -1.29895 2.236584 -0.663008 2.5 0 2.5 
z
" id="C7_0_a45d409118"/>
    </defs>
    <g clip-path="url(#p015903a5bc)">
     <use style="fill:#c44e52;" x="515.884112" xlink:href="#C7_0_a45d409118" y="138.841587"/>
    </g>
    <g clip-path="url(#p015903a5bc)">
     <use style="fill:#c44e52;" x="512.60394" xlink:href="#C7_0_a45d409118" y="113.169236"/>
    </g>
    <g clip-path="url(#p015903a5bc)">
     <use style="fill:#c44e52;" x="508.984949" xlink:href="#C7_0_a45d409118" y="126.456252"/>
    </g>
    <g clip-path="url(#p015903a5bc)">
     <use style="fill:#c44e52;" x="516.378736" xlink:href="#C7_0_a45d409118" y="128.021706"/>
    </g>
    <g clip-path="url(#p015903a5bc)">
     <use style="fill:#c44e52;" x="511.102909" xlink:href="#C7_0_a45d409118" y="126.615795"/>
    </g>
    <g clip-path="url(#p015903a5bc)">
     <use style="fill:#c44e52;" x="518.319369" xlink:href="#C7_0_a45d409118" y="116.980282"/>
    </g>
    <g clip-path="url(#p015903a5bc)">
     <use style="fill:#c44e52;" x="518.821927" xlink:href="#C7_0_a45d409118" y="130.539347"/>
    </g>
    <g clip-path="url(#p015903a5bc)">
     <use style="fill:#c44e52;" x="512.700332" xlink:href="#C7_0_a45d409118" y="125.202408"/>
    </g>
    <g clip-path="url(#p015903a5bc)">
     <use style="fill:#c44e52;" x="517.123407" xlink:href="#C7_0_a45d409118" y="114.800848"/>
    </g>
    <g clip-path="url(#p015903a5bc)">
     <use style="fill:#c44e52;" x="515.505107" xlink:href="#C7_0_a45d409118" y="111.024126"/>
    </g>
    <g clip-path="url(#p015903a5bc)">
     <use style="fill:#c44e52;" x="515.795717" xlink:href="#C7_0_a45d409118" y="116.126466"/>
    </g>
    <g clip-path="url(#p015903a5bc)">
     <use style="fill:#c44e52;" x="515.635989" xlink:href="#C7_0_a45d409118" y="125.496116"/>
    </g>
    <g clip-path="url(#p015903a5bc)">
     <use style="fill:#c44e52;" x="512.019342" xlink:href="#C7_0_a45d409118" y="123.239338"/>
    </g>
    <g clip-path="url(#p015903a5bc)">
     <use style="fill:#c44e52;" x="507.129324" xlink:href="#C7_0_a45d409118" y="102.71535"/>
    </g>
    <g clip-path="url(#p015903a5bc)">
     <use style="fill:#c44e52;" x="517.446606" xlink:href="#C7_0_a45d409118" y="116.297622"/>
    </g>
    <g clip-path="url(#p015903a5bc)">
     <use style="fill:#c44e52;" x="519.344763" xlink:href="#C7_0_a45d409118" y="119.298223"/>
    </g>
    <g clip-path="url(#p015903a5bc)">
     <use style="fill:#c44e52;" x="519.010612" xlink:href="#C7_0_a45d409118" y="130.678766"/>
    </g>
    <g clip-path="url(#p015903a5bc)">
     <use style="fill:#c44e52;" x="511.153283" xlink:href="#C7_0_a45d409118" y="128.544441"/>
    </g>
    <g clip-path="url(#p015903a5bc)">
     <use style="fill:#c44e52;" x="509.01728" xlink:href="#C7_0_a45d409118" y="100.992892"/>
    </g>
    <g clip-path="url(#p015903a5bc)">
     <use style="fill:#c44e52;" x="517.789903" xlink:href="#C7_0_a45d409118" y="111.539548"/>
    </g>
    <g clip-path="url(#p015903a5bc)">
     <use style="fill:#c44e52;" x="513.791647" xlink:href="#C7_0_a45d409118" y="139.830055"/>
    </g>
    <g clip-path="url(#p015903a5bc)">
     <use style="fill:#c44e52;" x="507.977496" xlink:href="#C7_0_a45d409118" y="131.78932"/>
    </g>
    <g clip-path="url(#p015903a5bc)">
     <use style="fill:#c44e52;" x="514.66692" xlink:href="#C7_0_a45d409118" y="123.835734"/>
    </g>
    <g clip-path="url(#p015903a5bc)">
     <use style="fill:#c44e52;" x="516.520605" xlink:href="#C7_0_a45d409118" y="122.158406"/>
    </g>
    <g clip-path="url(#p015903a5bc)">
     <use style="fill:#c44e52;" x="507.192161" xlink:href="#C7_0_a45d409118" y="119.787349"/>
    </g>
    <g clip-path="url(#p015903a5bc)">
     <use style="fill:#c44e52;" x="513.198403" xlink:href="#C7_0_a45d409118" y="131.095839"/>
    </g>
    <g clip-path="url(#p015903a5bc)">
     <use style="fill:#c44e52;" x="511.530016" xlink:href="#C7_0_a45d409118" y="113.274371"/>
    </g>
    <g clip-path="url(#p015903a5bc)">
     <use style="fill:#c44e52;" x="510.318775" xlink:href="#C7_0_a45d409118" y="125.255346"/>
    </g>
    <g clip-path="url(#p015903a5bc)">
     <use style="fill:#c44e52;" x="513.269061" xlink:href="#C7_0_a45d409118" y="115.320816"/>
    </g>
    <g clip-path="url(#p015903a5bc)">
     <use style="fill:#c44e52;" x="512.546459" xlink:href="#C7_0_a45d409118" y="102.197186"/>
    </g>
    <g clip-path="url(#p015903a5bc)">
     <use style="fill:#c44e52;" x="512.714885" xlink:href="#C7_0_a45d409118" y="128.753984"/>
    </g>
    <g clip-path="url(#p015903a5bc)">
     <use style="fill:#c44e52;" x="510.303075" xlink:href="#C7_0_a45d409118" y="100.802254"/>
    </g>
    <g clip-path="url(#p015903a5bc)">
     <use style="fill:#c44e52;" x="515.184405" xlink:href="#C7_0_a45d409118" y="99.826998"/>
    </g>
    <g clip-path="url(#p015903a5bc)">
     <use style="fill:#c44e52;" x="518.292066" xlink:href="#C7_0_a45d409118" y="111.319048"/>
    </g>
    <g clip-path="url(#p015903a5bc)">
     <use style="fill:#c44e52;" x="513.841484" xlink:href="#C7_0_a45d409118" y="106.541324"/>
    </g>
    <g clip-path="url(#p015903a5bc)">
     <use style="fill:#c44e52;" x="510.244798" xlink:href="#C7_0_a45d409118" y="117.10071"/>
    </g>
    <g clip-path="url(#p015903a5bc)">
     <use style="fill:#c44e52;" x="512.057431" xlink:href="#C7_0_a45d409118" y="105.083121"/>
    </g>
    <g clip-path="url(#p015903a5bc)">
     <use style="fill:#c44e52;" x="519.455631" xlink:href="#C7_0_a45d409118" y="139.64893"/>
    </g>
    <g clip-path="url(#p015903a5bc)">
     <use style="fill:#c44e52;" x="507.962567" xlink:href="#C7_0_a45d409118" y="116.493122"/>
    </g>
    <g clip-path="url(#p015903a5bc)">
     <use style="fill:#c44e52;" x="511.936898" xlink:href="#C7_0_a45d409118" y="126.490313"/>
    </g>
    <g clip-path="url(#p015903a5bc)">
     <use style="fill:#c44e52;" x="519.068716" xlink:href="#C7_0_a45d409118" y="118.373953"/>
    </g>
    <g clip-path="url(#p015903a5bc)">
     <use style="fill:#c44e52;" x="514.931079" xlink:href="#C7_0_a45d409118" y="123.205708"/>
    </g>
    <g clip-path="url(#p015903a5bc)">
     <use style="fill:#c44e52;" x="519.370545" xlink:href="#C7_0_a45d409118" y="108.210112"/>
    </g>
    <g clip-path="url(#p015903a5bc)">
     <use style="fill:#c44e52;" x="508.181639" xlink:href="#C7_0_a45d409118" y="124.077252"/>
    </g>
    <g clip-path="url(#p015903a5bc)">
     <use style="fill:#c44e52;" x="510.699536" xlink:href="#C7_0_a45d409118" y="121.701497"/>
    </g>
    <g clip-path="url(#p015903a5bc)">
     <use style="fill:#c44e52;" x="514.314382" xlink:href="#C7_0_a45d409118" y="109.377293"/>
    </g>
    <g clip-path="url(#p015903a5bc)">
     <use style="fill:#c44e52;" x="512.755807" xlink:href="#C7_0_a45d409118" y="109.103564"/>
    </g>
    <g clip-path="url(#p015903a5bc)">
     <use style="fill:#c44e52;" x="513.27384" xlink:href="#C7_0_a45d409118" y="129.393913"/>
    </g>
    <g clip-path="url(#p015903a5bc)">
     <use style="fill:#c44e52;" x="518.760893" xlink:href="#C7_0_a45d409118" y="139.114326"/>
    </g>
    <g clip-path="url(#p015903a5bc)">
     <use style="fill:#c44e52;" x="514.61683" xlink:href="#C7_0_a45d409118" y="126.682322"/>
    </g>
    <g clip-path="url(#p015903a5bc)">
     <use style="fill:#c44e52;" x="517.126938" xlink:href="#C7_0_a45d409118" y="101.238883"/>
    </g>
    <g clip-path="url(#p015903a5bc)">
     <use style="fill:#c44e52;" x="511.863296" xlink:href="#C7_0_a45d409118" y="122.739813"/>
    </g>
   </g>
   <g id="text_18">
    <!-- (1.47) -->
    <g style="fill:#4c72b0;" transform="translate(348.251312 255.2944)scale(0.12 -0.12)">
     <use xlink:href="#Helvetica-40"/>
     <use x="33.300781" xlink:href="#Helvetica-49"/>
     <use x="88.916016" xlink:href="#Helvetica-46"/>
     <use x="116.699219" xlink:href="#Helvetica-52"/>
     <use x="172.314453" xlink:href="#Helvetica-55"/>
     <use x="227.929688" xlink:href="#Helvetica-41"/>
    </g>
   </g>
   <g id="text_19">
    <!-- (1.08) -->
    <g style="fill:#dd8452;" transform="translate(398.030437 255.2944)scale(0.12 -0.12)">
     <defs>
      <path d="M 27.203125 40.625 
Q 33.015625 40.625 36.28125 43.875 
Q 39.546875 47.125 39.546875 51.609375 
Q 39.546875 55.515625 36.421875 58.78125 
Q 33.296875 62.0625 26.90625 62.0625 
Q 20.5625 62.0625 17.71875 58.78125 
Q 14.890625 55.515625 14.890625 51.125 
Q 14.890625 46.1875 18.546875 43.40625 
Q 22.21875 40.625 27.203125 40.625 
z
M 27.734375 6 
Q 33.84375 6 37.859375 9.296875 
Q 41.890625 12.59375 41.890625 19.140625 
Q 41.890625 25.921875 37.734375 29.4375 
Q 33.59375 32.953125 27.09375 32.953125 
Q 20.796875 32.953125 16.8125 29.359375 
Q 12.84375 25.78125 12.84375 19.4375 
Q 12.84375 13.96875 16.484375 9.984375 
Q 20.125 6 27.734375 6 
z
M 15.234375 37.25 
Q 11.578125 38.8125 9.515625 40.921875 
Q 5.671875 44.828125 5.671875 51.078125 
Q 5.671875 58.890625 11.328125 64.5 
Q 17 70.125 27.390625 70.125 
Q 37.453125 70.125 43.15625 64.8125 
Q 48.875 59.515625 48.875 52.4375 
Q 48.875 45.90625 45.5625 41.84375 
Q 43.703125 39.546875 39.796875 37.359375 
Q 44.140625 35.359375 46.625 32.765625 
Q 51.265625 27.875 51.265625 20.0625 
Q 51.265625 10.84375 45.0625 4.421875 
Q 38.875 -2 27.546875 -2 
Q 17.328125 -2 10.265625 3.53125 
Q 3.21875 9.078125 3.21875 19.625 
Q 3.21875 25.828125 6.25 30.34375 
Q 9.28125 34.859375 15.234375 37.25 
z
" id="Helvetica-56"/>
     </defs>
     <use xlink:href="#Helvetica-40"/>
     <use x="33.300781" xlink:href="#Helvetica-49"/>
     <use x="88.916016" xlink:href="#Helvetica-46"/>
     <use x="116.699219" xlink:href="#Helvetica-48"/>
     <use x="172.314453" xlink:href="#Helvetica-56"/>
     <use x="227.929688" xlink:href="#Helvetica-41"/>
    </g>
   </g>
   <g id="text_20">
    <!-- (0.89) -->
    <g style="fill:#55a868;" transform="translate(447.809562 255.2944)scale(0.12 -0.12)">
     <defs>
      <path d="M 13.28125 16.890625 
Q 13.671875 9.625 18.890625 6.84375 
Q 21.578125 5.375 24.953125 5.375 
Q 31.25 5.375 35.6875 10.625 
Q 40.140625 15.875 42 31.9375 
Q 39.0625 27.296875 34.734375 25.40625 
Q 30.421875 23.53125 25.4375 23.53125 
Q 15.328125 23.53125 9.4375 29.828125 
Q 3.5625 36.140625 3.5625 46.046875 
Q 3.5625 55.5625 9.375 62.78125 
Q 15.1875 70.015625 26.515625 70.015625 
Q 41.796875 70.015625 47.609375 56.25 
Q 50.828125 48.6875 50.828125 37.3125 
Q 50.828125 24.46875 46.96875 14.546875 
Q 40.578125 -1.953125 25.296875 -1.953125 
Q 15.046875 -1.953125 9.71875 3.421875 
Q 4.390625 8.796875 4.390625 16.890625 
z
M 26.609375 31.25 
Q 31.84375 31.25 36.15625 34.6875 
Q 40.484375 38.140625 40.484375 46.734375 
Q 40.484375 54.4375 36.59375 58.21875 
Q 32.71875 62.015625 26.703125 62.015625 
Q 20.265625 62.015625 16.484375 57.6875 
Q 12.703125 53.375 12.703125 46.140625 
Q 12.703125 39.3125 16.015625 35.28125 
Q 19.34375 31.25 26.609375 31.25 
z
" id="Helvetica-57"/>
     </defs>
     <use xlink:href="#Helvetica-40"/>
     <use x="33.300781" xlink:href="#Helvetica-48"/>
     <use x="88.916016" xlink:href="#Helvetica-46"/>
     <use x="116.699219" xlink:href="#Helvetica-56"/>
     <use x="172.314453" xlink:href="#Helvetica-57"/>
     <use x="227.929688" xlink:href="#Helvetica-41"/>
    </g>
   </g>
   <g id="text_21">
    <!-- (1.07) -->
    <g style="fill:#c44e52;" transform="translate(497.588687 255.2944)scale(0.12 -0.12)">
     <use xlink:href="#Helvetica-40"/>
     <use x="33.300781" xlink:href="#Helvetica-49"/>
     <use x="88.916016" xlink:href="#Helvetica-46"/>
     <use x="116.699219" xlink:href="#Helvetica-48"/>
     <use x="172.314453" xlink:href="#Helvetica-55"/>
     <use x="227.929688" xlink:href="#Helvetica-41"/>
    </g>
   </g>
   <g id="text_22">
    <!-- (b) -->
    <g transform="translate(319.122287 28.035913)scale(0.14 -0.14)">
     <defs>
      <path d="M 35.25 54.390625 
Q 45.75 54.390625 51.6875 46.828125 
Q 57.625 39.265625 57.625 27.296875 
Q 57.625 14.890625 51.765625 6.734375 
Q 45.90625 -1.421875 35.40625 -1.421875 
Q 28.8125 -1.421875 24.8125 1.21875 
Q 22.40625 2.78125 19.625 6.6875 
L 19.625 0 
L 6 0 
L 6 71.875 
L 19.875 71.875 
L 19.875 46.296875 
Q 22.515625 50 25.6875 51.953125 
Q 29.4375 54.390625 35.25 54.390625 
z
M 31.6875 10.0625 
Q 37.0625 10.0625 40.03125 14.40625 
Q 43.015625 18.75 43.015625 25.828125 
Q 43.015625 31.5 41.546875 35.203125 
Q 38.765625 42.234375 31.296875 42.234375 
Q 23.734375 42.234375 20.90625 35.359375 
Q 19.4375 31.6875 19.4375 25.875 
Q 19.4375 19.046875 22.453125 14.546875 
Q 25.484375 10.0625 31.6875 10.0625 
z
" id="Helvetica-Bold-98"/>
     </defs>
     <use xlink:href="#Helvetica-Bold-40"/>
     <use x="33.300781" xlink:href="#Helvetica-Bold-98"/>
     <use x="94.384766" xlink:href="#Helvetica-Bold-41"/>
    </g>
   </g>
   <g id="legend_2">
    <g id="patch_13">
     <path d="M 455.76 90.9975 
L 554.64 90.9975 
Q 557.04 90.9975 557.04 88.5975 
L 557.04 21.36 
Q 557.04 18.96 554.64 18.96 
L 455.76 18.96 
Q 453.36 18.96 453.36 21.36 
L 453.36 88.5975 
Q 453.36 90.9975 455.76 90.9975 
z
" style="fill:#ffffff;opacity:0.8;stroke:#cccccc;stroke-linejoin:miter;"/>
    </g>
    <g id="PathCollection_21">
     <path d="M 470.16 31.718125 
C 470.823008 31.718125 471.45895 31.454709 471.927767 30.985892 
C 472.396584 30.517075 472.66 29.881133 472.66 29.218125 
C 472.66 28.555117 472.396584 27.919175 471.927767 27.450358 
C 471.45895 26.981541 470.823008 26.718125 470.16 26.718125 
C 469.496992 26.718125 468.86105 26.981541 468.392233 27.450358 
C 467.923416 27.919175 467.66 28.555117 467.66 29.218125 
C 467.66 29.881133 467.923416 30.517075 468.392233 30.985892 
C 468.86105 31.454709 469.496992 31.718125 470.16 31.718125 
z
" style="fill:#4c72b0;"/>
    </g>
    <g id="text_23">
     <!-- HSQC CH -->
     <g transform="translate(491.76 32.368125)scale(0.12 -0.12)">
      <use xlink:href="#Helvetica-72"/>
      <use x="72.216797" xlink:href="#Helvetica-83"/>
      <use x="138.916016" xlink:href="#Helvetica-81"/>
      <use x="216.699219" xlink:href="#Helvetica-67"/>
      <use x="288.916016" xlink:href="#Helvetica-32"/>
      <use x="316.699219" xlink:href="#Helvetica-67"/>
      <use x="388.916016" xlink:href="#Helvetica-72"/>
     </g>
    </g>
    <g id="PathCollection_22">
     <path d="M 470.16 48.8275 
C 470.823008 48.8275 471.45895 48.564084 471.927767 48.095267 
C 472.396584 47.62645 472.66 46.990508 472.66 46.3275 
C 472.66 45.664492 472.396584 45.02855 471.927767 44.559733 
C 471.45895 44.090916 470.823008 43.8275 470.16 43.8275 
C 469.496992 43.8275 468.86105 44.090916 468.392233 44.559733 
C 467.923416 45.02855 467.66 45.664492 467.66 46.3275 
C 467.66 46.990508 467.923416 47.62645 468.392233 48.095267 
C 468.86105 48.564084 469.496992 48.8275 470.16 48.8275 
z
" style="fill:#dd8452;"/>
    </g>
    <g id="text_24">
     <!-- HSQC CH$_2$ -->
     <g transform="translate(491.76 49.4775)scale(0.12 -0.12)">
      <use transform="translate(0 0.3125)" xlink:href="#Helvetica-72"/>
      <use transform="translate(72.216797 0.3125)" xlink:href="#Helvetica-83"/>
      <use transform="translate(138.916016 0.3125)" xlink:href="#Helvetica-81"/>
      <use transform="translate(216.699219 0.3125)" xlink:href="#Helvetica-67"/>
      <use transform="translate(288.916016 0.3125)" xlink:href="#Helvetica-32"/>
      <use transform="translate(316.699219 0.3125)" xlink:href="#Helvetica-67"/>
      <use transform="translate(388.916016 0.3125)" xlink:href="#Helvetica-72"/>
      <use transform="translate(462.048008 -15.376563)scale(0.7)" xlink:href="#Helvetica-50"/>
     </g>
    </g>
    <g id="PathCollection_23">
     <path d="M 470.16 65.936875 
C 470.823008 65.936875 471.45895 65.673459 471.927767 65.204642 
C 472.396584 64.735825 472.66 64.099883 472.66 63.436875 
C 472.66 62.773867 472.396584 62.137925 471.927767 61.669108 
C 471.45895 61.200291 470.823008 60.936875 470.16 60.936875 
C 469.496992 60.936875 468.86105 61.200291 468.392233 61.669108 
C 467.923416 62.137925 467.66 62.773867 467.66 63.436875 
C 467.66 64.099883 467.923416 64.735825 468.392233 65.204642 
C 468.86105 65.673459 469.496992 65.936875 470.16 65.936875 
z
" style="fill:#55a868;"/>
    </g>
    <g id="text_25">
     <!-- HSQC CH$_3$ -->
     <g transform="translate(491.76 66.586875)scale(0.12 -0.12)">
      <use transform="translate(0 0.3125)" xlink:href="#Helvetica-72"/>
      <use transform="translate(72.216797 0.3125)" xlink:href="#Helvetica-83"/>
      <use transform="translate(138.916016 0.3125)" xlink:href="#Helvetica-81"/>
      <use transform="translate(216.699219 0.3125)" xlink:href="#Helvetica-67"/>
      <use transform="translate(288.916016 0.3125)" xlink:href="#Helvetica-32"/>
      <use transform="translate(316.699219 0.3125)" xlink:href="#Helvetica-67"/>
      <use transform="translate(388.916016 0.3125)" xlink:href="#Helvetica-72"/>
      <use transform="translate(462.048008 -15.376563)scale(0.7)" xlink:href="#Helvetica-51"/>
     </g>
    </g>
    <g id="PathCollection_24">
     <path d="M 470.16 83.04625 
C 470.823008 83.04625 471.45895 82.782834 471.927767 82.314017 
C 472.396584 81.8452 472.66 81.209258 472.66 80.54625 
C 472.66 79.883242 472.396584 79.2473 471.927767 78.778483 
C 471.45895 78.309666 470.823008 78.04625 470.16 78.04625 
C 469.496992 78.04625 468.86105 78.309666 468.392233 78.778483 
C 467.923416 79.2473 467.66 79.883242 467.66 80.54625 
C 467.66 81.209258 467.923416 81.8452 468.392233 82.314017 
C 468.86105 82.782834 469.496992 83.04625 470.16 83.04625 
z
" style="fill:#c44e52;"/>
    </g>
    <g id="text_26">
     <!-- COSY -->
     <g transform="translate(491.76 83.69625)scale(0.12 -0.12)">
      <use xlink:href="#Helvetica-67"/>
      <use x="72.216797" xlink:href="#Helvetica-79"/>
      <use x="150" xlink:href="#Helvetica-83"/>
      <use x="216.699219" xlink:href="#Helvetica-89"/>
     </g>
    </g>
   </g>
  </g>
 </g>
 <defs>
  <clipPath id="pa9aba64552">
   <rect height="247.28" width="248.895625" x="48.78875" y="12.96"/>
  </clipPath>
  <clipPath id="p015903a5bc">
   <rect height="247.28" width="248.895625" x="314.144375" y="12.96"/>
  </clipPath>
 </defs>
</svg>
