<?xml version="1.0" encoding="utf-8" standalone="no"?>
<!DOCTYPE svg PUBLIC "-//W3C//DTD SVG 1.1//EN"
  "http://www.w3.org/Graphics/SVG/1.1/DTD/svg11.dtd">
<!-- Created with matplotlib (https://matplotlib.org/) -->
<svg height="288pt" version="1.1" viewBox="0 0 648 288" width="648pt" xmlns="http://www.w3.org/2000/svg" xmlns:xlink="http://www.w3.org/1999/xlink">
 <metadata>
  <rdf:RDF xmlns:cc="http://creativecommons.org/ns#" xmlns:dc="http://purl.org/dc/elements/1.1/" xmlns:rdf="http://www.w3.org/1999/02/22-rdf-syntax-ns#">
   <cc:Work>
    <dc:type rdf:resource="http://purl.org/dc/dcmitype/StillImage"/>
    <dc:date>2021-01-27T17:36:41.601652</dc:date>
    <dc:format>image/svg+xml</dc:format>
    <dc:creator>
     <cc:Agent>
      <dc:title>Matplotlib v3.3.2, https://matplotlib.org/</dc:title>
     </cc:Agent>
    </dc:creator>
   </cc:Work>
  </rdf:RDF>
 </metadata>
 <defs>
  <style type="text/css">*{stroke-linecap:butt;stroke-linejoin:round;}</style>
 </defs>
 <g id="figure_1">
  <g id="patch_1">
   <path d="M 0 288 
L 648 288 
L 648 0 
L 0 0 
z
" style="fill:#ffffff;"/>
  </g>
  <g id="axes_1">
   <g id="patch_2">
    <path d="M 52.562 256.64 
L 235.748 256.64 
L 235.748 38.424 
L 52.562 38.424 
z
" style="fill:#ffffff;"/>
   </g>
   <g id="PathCollection_1">
    <defs>
     <path d="M 0 2.5 
C 0.663008 2.5 1.29895 2.236584 1.767767 1.767767 
C 2.236584 1.29895 2.5 0.663008 2.5 -0 
C 2.5 -0.663008 2.236584 -1.29895 1.767767 -1.767767 
C 1.29895 -2.236584 0.663008 -2.5 0 -2.5 
C -0.663008 -2.5 -1.29895 -2.236584 -1.767767 -1.767767 
C -2.236584 -1.29895 -2.5 -0.663008 -2.5 0 
C -2.5 0.663008 -2.236584 1.29895 -1.767767 1.767767 
C -1.29895 2.236584 -0.663008 2.5 0 2.5 
z
" id="C0_0_65a610bf66"/>
    </defs>
    <g clip-path="url(#pdb12cc04f4)">
     <use style="fill:#4c72b0;fill-opacity:0.3;" x="87.142946" xlink:href="#C0_0_65a610bf66" y="193.487142"/>
    </g>
    <g clip-path="url(#pdb12cc04f4)">
     <use style="fill:#4c72b0;fill-opacity:0.3;" x="88.008032" xlink:href="#C0_0_65a610bf66" y="200.693327"/>
    </g>
    <g clip-path="url(#pdb12cc04f4)">
     <use style="fill:#4c72b0;fill-opacity:0.3;" x="91.037252" xlink:href="#C0_0_65a610bf66" y="187.173056"/>
    </g>
    <g clip-path="url(#pdb12cc04f4)">
     <use style="fill:#4c72b0;fill-opacity:0.3;" x="90.357479" xlink:href="#C0_0_65a610bf66" y="186.836201"/>
    </g>
    <g clip-path="url(#pdb12cc04f4)">
     <use style="fill:#4c72b0;fill-opacity:0.3;" x="86.897475" xlink:href="#C0_0_65a610bf66" y="186.414842"/>
    </g>
   </g>
   <g id="PathCollection_2">
    <defs>
     <path d="M 0 2.5 
C 0.663008 2.5 1.29895 2.236584 1.767767 1.767767 
C 2.236584 1.29895 2.5 0.663008 2.5 -0 
C 2.5 -0.663008 2.236584 -1.29895 1.767767 -1.767767 
C 1.29895 -2.236584 0.663008 -2.5 0 -2.5 
C -0.663008 -2.5 -1.29895 -2.236584 -1.767767 -1.767767 
C -2.236584 -1.29895 -2.5 -0.663008 -2.5 0 
C -2.5 0.663008 -2.236584 1.29895 -1.767767 1.767767 
C -1.29895 2.236584 -0.663008 2.5 0 2.5 
z
" id="C1_0_af6515d5ed"/>
    </defs>
    <g clip-path="url(#pdb12cc04f4)">
     <use style="fill:#dd8452;fill-opacity:0.3;" x="124.88124" xlink:href="#C1_0_af6515d5ed" y="214.025046"/>
    </g>
    <g clip-path="url(#pdb12cc04f4)">
     <use style="fill:#dd8452;fill-opacity:0.3;" x="121.713627" xlink:href="#C1_0_af6515d5ed" y="212.253526"/>
    </g>
    <g clip-path="url(#pdb12cc04f4)">
     <use style="fill:#dd8452;fill-opacity:0.3;" x="126.412273" xlink:href="#C1_0_af6515d5ed" y="210.54114"/>
    </g>
    <g clip-path="url(#pdb12cc04f4)">
     <use style="fill:#dd8452;fill-opacity:0.3;" x="123.904398" xlink:href="#C1_0_af6515d5ed" y="216.453667"/>
    </g>
    <g clip-path="url(#pdb12cc04f4)">
     <use style="fill:#dd8452;fill-opacity:0.3;" x="123.326626" xlink:href="#C1_0_af6515d5ed" y="212.836864"/>
    </g>
    <g clip-path="url(#pdb12cc04f4)">
     <use style="fill:#dd8452;fill-opacity:0.3;" x="125.098171" xlink:href="#C1_0_af6515d5ed" y="212.697043"/>
    </g>
    <g clip-path="url(#pdb12cc04f4)">
     <use style="fill:#dd8452;fill-opacity:0.3;" x="123.813589" xlink:href="#C1_0_af6515d5ed" y="194.481147"/>
    </g>
    <g clip-path="url(#pdb12cc04f4)">
     <use style="fill:#dd8452;fill-opacity:0.3;" x="127.894935" xlink:href="#C1_0_af6515d5ed" y="193.877853"/>
    </g>
    <g clip-path="url(#pdb12cc04f4)">
     <use style="fill:#dd8452;fill-opacity:0.3;" x="123.150813" xlink:href="#C1_0_af6515d5ed" y="186.013766"/>
    </g>
    <g clip-path="url(#pdb12cc04f4)">
     <use style="fill:#dd8452;fill-opacity:0.3;" x="125.255579" xlink:href="#C1_0_af6515d5ed" y="198.210719"/>
    </g>
    <g clip-path="url(#pdb12cc04f4)">
     <use style="fill:#dd8452;fill-opacity:0.3;" x="121.4766" xlink:href="#C1_0_af6515d5ed" y="188.589457"/>
    </g>
    <g clip-path="url(#pdb12cc04f4)">
     <use style="fill:#dd8452;fill-opacity:0.3;" x="123.035156" xlink:href="#C1_0_af6515d5ed" y="194.674571"/>
    </g>
    <g clip-path="url(#pdb12cc04f4)">
     <use style="fill:#dd8452;fill-opacity:0.3;" x="128.05958" xlink:href="#C1_0_af6515d5ed" y="195.653995"/>
    </g>
    <g clip-path="url(#pdb12cc04f4)">
     <use style="fill:#dd8452;fill-opacity:0.3;" x="126.338596" xlink:href="#C1_0_af6515d5ed" y="191.174057"/>
    </g>
   </g>
   <g id="PathCollection_3">
    <defs>
     <path d="M 0 2.5 
C 0.663008 2.5 1.29895 2.236584 1.767767 1.767767 
C 2.236584 1.29895 2.5 0.663008 2.5 -0 
C 2.5 -0.663008 2.236584 -1.29895 1.767767 -1.767767 
C 1.29895 -2.236584 0.663008 -2.5 0 -2.5 
C -0.663008 -2.5 -1.29895 -2.236584 -1.767767 -1.767767 
C -2.236584 -1.29895 -2.5 -0.663008 -2.5 0 
C -2.5 0.663008 -2.236584 1.29895 -1.767767 1.767767 
C -1.29895 2.236584 -0.663008 2.5 0 2.5 
z
" id="C2_0_95dc6fc3d4"/>
    </defs>
    <g clip-path="url(#pdb12cc04f4)">
     <use style="fill:#55a868;fill-opacity:0.3;" x="162.464454" xlink:href="#C2_0_95dc6fc3d4" y="217.419625"/>
    </g>
    <g clip-path="url(#pdb12cc04f4)">
     <use style="fill:#55a868;fill-opacity:0.3;" x="165.866495" xlink:href="#C2_0_95dc6fc3d4" y="222.300105"/>
    </g>
   </g>
   <g id="PathCollection_4">
    <defs>
     <path d="M 0 2.5 
C 0.663008 2.5 1.29895 2.236584 1.767767 1.767767 
C 2.236584 1.29895 2.5 0.663008 2.5 -0 
C 2.5 -0.663008 2.236584 -1.29895 1.767767 -1.767767 
C 1.29895 -2.236584 0.663008 -2.5 0 -2.5 
C -0.663008 -2.5 -1.29895 -2.236584 -1.767767 -1.767767 
C -2.236584 -1.29895 -2.5 -0.663008 -2.5 0 
C -2.5 0.663008 -2.236584 1.29895 -1.767767 1.767767 
C -1.29895 2.236584 -0.663008 2.5 0 2.5 
z
" id="C3_0_1cbadec29f"/>
    </defs>
    <g clip-path="url(#pdb12cc04f4)">
     <use style="fill:#c44e52;fill-opacity:0.3;" x="198.803371" xlink:href="#C3_0_1cbadec29f" y="138.483906"/>
    </g>
    <g clip-path="url(#pdb12cc04f4)">
     <use style="fill:#c44e52;fill-opacity:0.3;" x="195.090617" xlink:href="#C3_0_1cbadec29f" y="182.684399"/>
    </g>
    <g clip-path="url(#pdb12cc04f4)">
     <use style="fill:#c44e52;fill-opacity:0.3;" x="201.560049" xlink:href="#C3_0_1cbadec29f" y="161.850086"/>
    </g>
    <g clip-path="url(#pdb12cc04f4)">
     <use style="fill:#c44e52;fill-opacity:0.3;" x="198.254174" xlink:href="#C3_0_1cbadec29f" y="159.553195"/>
    </g>
    <g clip-path="url(#pdb12cc04f4)">
     <use style="fill:#c44e52;fill-opacity:0.3;" x="201.839319" xlink:href="#C3_0_1cbadec29f" y="161.316228"/>
    </g>
    <g clip-path="url(#pdb12cc04f4)">
     <use style="fill:#c44e52;fill-opacity:0.3;" x="201.473789" xlink:href="#C3_0_1cbadec29f" y="167.276862"/>
    </g>
    <g clip-path="url(#pdb12cc04f4)">
     <use style="fill:#c44e52;fill-opacity:0.3;" x="202.151035" xlink:href="#C3_0_1cbadec29f" y="162.557245"/>
    </g>
    <g clip-path="url(#pdb12cc04f4)">
     <use style="fill:#c44e52;fill-opacity:0.3;" x="201.153693" xlink:href="#C3_0_1cbadec29f" y="166.009229"/>
    </g>
    <g clip-path="url(#pdb12cc04f4)">
     <use style="fill:#c44e52;fill-opacity:0.3;" x="197.597132" xlink:href="#C3_0_1cbadec29f" y="165.23892"/>
    </g>
    <g clip-path="url(#pdb12cc04f4)">
     <use style="fill:#c44e52;fill-opacity:0.3;" x="200.017493" xlink:href="#C3_0_1cbadec29f" y="163.138572"/>
    </g>
    <g clip-path="url(#pdb12cc04f4)">
     <use style="fill:#c44e52;fill-opacity:0.3;" x="196.244735" xlink:href="#C3_0_1cbadec29f" y="170.382653"/>
    </g>
    <g clip-path="url(#pdb12cc04f4)">
     <use style="fill:#c44e52;fill-opacity:0.3;" x="195.517801" xlink:href="#C3_0_1cbadec29f" y="170.231798"/>
    </g>
    <g clip-path="url(#pdb12cc04f4)">
     <use style="fill:#c44e52;fill-opacity:0.3;" x="198.375342" xlink:href="#C3_0_1cbadec29f" y="167.178648"/>
    </g>
    <g clip-path="url(#pdb12cc04f4)">
     <use style="fill:#c44e52;fill-opacity:0.3;" x="197.467336" xlink:href="#C3_0_1cbadec29f" y="167.817134"/>
    </g>
    <g clip-path="url(#pdb12cc04f4)">
     <use style="fill:#c44e52;fill-opacity:0.3;" x="196.995496" xlink:href="#C3_0_1cbadec29f" y="165.163626"/>
    </g>
    <g clip-path="url(#pdb12cc04f4)">
     <use style="fill:#c44e52;fill-opacity:0.3;" x="202.221173" xlink:href="#C3_0_1cbadec29f" y="166.569827"/>
    </g>
    <g clip-path="url(#pdb12cc04f4)">
     <use style="fill:#c44e52;fill-opacity:0.3;" x="196.041929" xlink:href="#C3_0_1cbadec29f" y="167.550058"/>
    </g>
    <g clip-path="url(#pdb12cc04f4)">
     <use style="fill:#c44e52;fill-opacity:0.3;" x="201.989588" xlink:href="#C3_0_1cbadec29f" y="167.759105"/>
    </g>
    <g clip-path="url(#pdb12cc04f4)">
     <use style="fill:#c44e52;fill-opacity:0.3;" x="196.392427" xlink:href="#C3_0_1cbadec29f" y="165.55799"/>
    </g>
    <g clip-path="url(#pdb12cc04f4)">
     <use style="fill:#c44e52;fill-opacity:0.3;" x="203.564394" xlink:href="#C3_0_1cbadec29f" y="165.072215"/>
    </g>
    <g clip-path="url(#pdb12cc04f4)">
     <use style="fill:#c44e52;fill-opacity:0.3;" x="199.330413" xlink:href="#C3_0_1cbadec29f" y="163.448253"/>
    </g>
    <g clip-path="url(#pdb12cc04f4)">
     <use style="fill:#c44e52;fill-opacity:0.3;" x="203.102639" xlink:href="#C3_0_1cbadec29f" y="174.215898"/>
    </g>
    <g clip-path="url(#pdb12cc04f4)">
     <use style="fill:#c44e52;fill-opacity:0.3;" x="203.539407" xlink:href="#C3_0_1cbadec29f" y="169.426045"/>
    </g>
    <g clip-path="url(#pdb12cc04f4)">
     <use style="fill:#c44e52;fill-opacity:0.3;" x="201.645028" xlink:href="#C3_0_1cbadec29f" y="160.082237"/>
    </g>
    <g clip-path="url(#pdb12cc04f4)">
     <use style="fill:#c44e52;fill-opacity:0.3;" x="194.557503" xlink:href="#C3_0_1cbadec29f" y="168.380401"/>
    </g>
    <g clip-path="url(#pdb12cc04f4)">
     <use style="fill:#c44e52;fill-opacity:0.3;" x="196.548814" xlink:href="#C3_0_1cbadec29f" y="161.639323"/>
    </g>
    <g clip-path="url(#pdb12cc04f4)">
     <use style="fill:#c44e52;fill-opacity:0.3;" x="196.938626" xlink:href="#C3_0_1cbadec29f" y="167.188883"/>
    </g>
    <g clip-path="url(#pdb12cc04f4)">
     <use style="fill:#c44e52;fill-opacity:0.3;" x="202.676697" xlink:href="#C3_0_1cbadec29f" y="166.833356"/>
    </g>
    <g clip-path="url(#pdb12cc04f4)">
     <use style="fill:#c44e52;fill-opacity:0.3;" x="198.56589" xlink:href="#C3_0_1cbadec29f" y="162.616432"/>
    </g>
    <g clip-path="url(#pdb12cc04f4)">
     <use style="fill:#c44e52;fill-opacity:0.3;" x="197.174489" xlink:href="#C3_0_1cbadec29f" y="166.209834"/>
    </g>
    <g clip-path="url(#pdb12cc04f4)">
     <use style="fill:#c44e52;fill-opacity:0.3;" x="195.741234" xlink:href="#C3_0_1cbadec29f" y="170.573375"/>
    </g>
    <g clip-path="url(#pdb12cc04f4)">
     <use style="fill:#c44e52;fill-opacity:0.3;" x="201.570613" xlink:href="#C3_0_1cbadec29f" y="166.988905"/>
    </g>
    <g clip-path="url(#pdb12cc04f4)">
     <use style="fill:#c44e52;fill-opacity:0.3;" x="203.404245" xlink:href="#C3_0_1cbadec29f" y="167.677201"/>
    </g>
    <g clip-path="url(#pdb12cc04f4)">
     <use style="fill:#c44e52;fill-opacity:0.3;" x="199.35511" xlink:href="#C3_0_1cbadec29f" y="166.994602"/>
    </g>
    <g clip-path="url(#pdb12cc04f4)">
     <use style="fill:#c44e52;fill-opacity:0.3;" x="201.906911" xlink:href="#C3_0_1cbadec29f" y="167.038695"/>
    </g>
    <g clip-path="url(#pdb12cc04f4)">
     <use style="fill:#c44e52;fill-opacity:0.3;" x="199.162003" xlink:href="#C3_0_1cbadec29f" y="168.749915"/>
    </g>
    <g clip-path="url(#pdb12cc04f4)">
     <use style="fill:#c44e52;fill-opacity:0.3;" x="196.349965" xlink:href="#C3_0_1cbadec29f" y="168.332446"/>
    </g>
    <g clip-path="url(#pdb12cc04f4)">
     <use style="fill:#c44e52;fill-opacity:0.3;" x="194.764847" xlink:href="#C3_0_1cbadec29f" y="137.964181"/>
    </g>
    <g clip-path="url(#pdb12cc04f4)">
     <use style="fill:#c44e52;fill-opacity:0.3;" x="199.126513" xlink:href="#C3_0_1cbadec29f" y="182.451659"/>
    </g>
    <g clip-path="url(#pdb12cc04f4)">
     <use style="fill:#c44e52;fill-opacity:0.3;" x="197.621083" xlink:href="#C3_0_1cbadec29f" y="160.80599"/>
    </g>
    <g clip-path="url(#pdb12cc04f4)">
     <use style="fill:#c44e52;fill-opacity:0.3;" x="198.580709" xlink:href="#C3_0_1cbadec29f" y="166.120965"/>
    </g>
    <g clip-path="url(#pdb12cc04f4)">
     <use style="fill:#c44e52;fill-opacity:0.3;" x="197.639896" xlink:href="#C3_0_1cbadec29f" y="166.435961"/>
    </g>
    <g clip-path="url(#pdb12cc04f4)">
     <use style="fill:#c44e52;fill-opacity:0.3;" x="201.42944" xlink:href="#C3_0_1cbadec29f" y="163.849522"/>
    </g>
    <g clip-path="url(#pdb12cc04f4)">
     <use style="fill:#c44e52;fill-opacity:0.3;" x="196.973501" xlink:href="#C3_0_1cbadec29f" y="171.830948"/>
    </g>
    <g clip-path="url(#pdb12cc04f4)">
     <use style="fill:#c44e52;fill-opacity:0.3;" x="195.220958" xlink:href="#C3_0_1cbadec29f" y="165.988257"/>
    </g>
    <g clip-path="url(#pdb12cc04f4)">
     <use style="fill:#c44e52;fill-opacity:0.3;" x="195.124954" xlink:href="#C3_0_1cbadec29f" y="164.962352"/>
    </g>
    <g clip-path="url(#pdb12cc04f4)">
     <use style="fill:#c44e52;fill-opacity:0.3;" x="201.701425" xlink:href="#C3_0_1cbadec29f" y="165.096738"/>
    </g>
    <g clip-path="url(#pdb12cc04f4)">
     <use style="fill:#c44e52;fill-opacity:0.3;" x="202.100142" xlink:href="#C3_0_1cbadec29f" y="167.57959"/>
    </g>
    <g clip-path="url(#pdb12cc04f4)">
     <use style="fill:#c44e52;fill-opacity:0.3;" x="197.848279" xlink:href="#C3_0_1cbadec29f" y="169.171393"/>
    </g>
    <g clip-path="url(#pdb12cc04f4)">
     <use style="fill:#c44e52;fill-opacity:0.3;" x="195.031522" xlink:href="#C3_0_1cbadec29f" y="164.645374"/>
    </g>
    <g clip-path="url(#pdb12cc04f4)">
     <use style="fill:#c44e52;fill-opacity:0.3;" x="197.389564" xlink:href="#C3_0_1cbadec29f" y="169.884959"/>
    </g>
    <g clip-path="url(#pdb12cc04f4)">
     <use style="fill:#c44e52;fill-opacity:0.3;" x="194.790239" xlink:href="#C3_0_1cbadec29f" y="166.089506"/>
    </g>
   </g>
   <g id="PathCollection_5"/>
   <g id="PathCollection_6"/>
   <g id="PathCollection_7"/>
   <g id="PathCollection_8"/>
   <g id="PathCollection_9">
    <defs>
     <path d="M 4.229935 0 
L -4.229935 -0 
" id="mbce7328a5b" style="stroke:#001c7f;stroke-width:2.53125;"/>
    </defs>
    <g clip-path="url(#pdb12cc04f4)">
     <use style="fill:#001c7f;stroke:#001c7f;stroke-width:2.53125;" x="89.1992" xlink:href="#mbce7328a5b" y="190.920913"/>
    </g>
   </g>
   <g id="matplotlib.axis_1">
    <g id="text_1">
     <!-- X = seHSQC-TOCSY -->
     <g transform="translate(86.975937 269.248125)scale(0.12 -0.12)">
      <defs>
       <path d="M 13.765625 0 
L 2.046875 0 
L 27.734375 36.765625 
L 3.65625 71.734375 
L 15.828125 71.734375 
L 34.125 44.28125 
L 52.296875 71.734375 
L 63.875 71.734375 
L 39.796875 36.765625 
L 65.046875 0 
L 52.984375 0 
L 33.640625 29.5 
z
" id="Helvetica-88"/>
       <path id="Helvetica-32"/>
       <path d="M 55.421875 40.140625 
L 55.421875 31.9375 
L 4.5 31.9375 
L 4.5 40.140625 
z
M 55.421875 19.1875 
L 55.421875 10.84375 
L 4.5 10.84375 
L 4.5 19.1875 
z
" id="Helvetica-61"/>
       <path d="M 11.671875 16.40625 
Q 12.0625 12.015625 13.875 9.671875 
Q 17.1875 5.421875 25.390625 5.421875 
Q 30.28125 5.421875 33.984375 7.546875 
Q 37.703125 9.671875 37.703125 14.109375 
Q 37.703125 17.484375 34.71875 19.234375 
Q 32.8125 20.3125 27.203125 21.734375 
L 20.21875 23.484375 
Q 13.53125 25.140625 10.359375 27.203125 
Q 4.6875 30.765625 4.6875 37.0625 
Q 4.6875 44.484375 10.03125 49.0625 
Q 15.375 53.65625 24.421875 53.65625 
Q 36.234375 53.65625 41.453125 46.734375 
Q 44.734375 42.328125 44.625 37.25 
L 36.328125 37.25 
Q 36.078125 40.234375 34.234375 42.671875 
Q 31.203125 46.140625 23.734375 46.140625 
Q 18.75 46.140625 16.1875 44.234375 
Q 13.625 42.328125 13.625 39.203125 
Q 13.625 35.796875 17 33.734375 
Q 18.953125 32.515625 22.75 31.59375 
L 28.5625 30.171875 
Q 38.03125 27.875 41.265625 25.734375 
Q 46.390625 22.359375 46.390625 15.140625 
Q 46.390625 8.15625 41.09375 3.078125 
Q 35.796875 -2 24.953125 -2 
Q 13.28125 -2 8.421875 3.296875 
Q 3.5625 8.59375 3.21875 16.40625 
z
M 24.65625 53.5625 
z
" id="Helvetica-115"/>
       <path d="M 28.21875 53.46875 
Q 33.796875 53.46875 39.015625 50.859375 
Q 44.234375 48.25 46.96875 44.09375 
Q 49.609375 40.140625 50.484375 34.859375 
Q 51.265625 31.25 51.265625 23.34375 
L 12.9375 23.34375 
Q 13.1875 15.375 16.703125 10.5625 
Q 20.21875 5.765625 27.59375 5.765625 
Q 34.46875 5.765625 38.578125 10.296875 
Q 40.921875 12.9375 41.890625 16.40625 
L 50.53125 16.40625 
Q 50.203125 13.53125 48.265625 9.984375 
Q 46.34375 6.453125 43.953125 4.203125 
Q 39.9375 0.296875 34.03125 -1.078125 
Q 30.859375 -1.859375 26.859375 -1.859375 
Q 17.09375 -1.859375 10.296875 5.25 
Q 3.515625 12.359375 3.515625 25.140625 
Q 3.515625 37.75 10.34375 45.609375 
Q 17.1875 53.46875 28.21875 53.46875 
z
M 42.234375 30.328125 
Q 41.703125 36.03125 39.75 39.453125 
Q 36.140625 45.796875 27.6875 45.796875 
Q 21.625 45.796875 17.515625 41.421875 
Q 13.421875 37.0625 13.1875 30.328125 
z
M 27.390625 53.5625 
z
" id="Helvetica-101"/>
       <path d="M 7.859375 71.734375 
L 17.671875 71.734375 
L 17.671875 42.09375 
L 54.984375 42.09375 
L 54.984375 71.734375 
L 64.796875 71.734375 
L 64.796875 0 
L 54.984375 0 
L 54.984375 33.546875 
L 17.671875 33.546875 
L 17.671875 0 
L 7.859375 0 
z
" id="Helvetica-72"/>
       <path d="M 13.96875 23.140625 
Q 14.3125 17.046875 16.84375 13.234375 
Q 21.6875 6.109375 33.890625 6.109375 
Q 39.359375 6.109375 43.84375 7.671875 
Q 52.546875 10.6875 52.546875 18.5 
Q 52.546875 24.359375 48.875 26.859375 
Q 45.171875 29.296875 37.25 31.109375 
L 27.546875 33.296875 
Q 18.015625 35.453125 14.0625 38.03125 
Q 7.234375 42.53125 7.234375 51.46875 
Q 7.234375 61.140625 13.921875 67.328125 
Q 20.609375 73.53125 32.859375 73.53125 
Q 44.140625 73.53125 52.015625 68.078125 
Q 59.90625 62.640625 59.90625 50.6875 
L 50.78125 50.6875 
Q 50.046875 56.453125 47.65625 59.515625 
Q 43.21875 65.140625 32.5625 65.140625 
Q 23.96875 65.140625 20.203125 61.515625 
Q 16.453125 57.90625 16.453125 53.125 
Q 16.453125 47.859375 20.84375 45.40625 
Q 23.734375 43.84375 33.890625 41.5 
L 43.953125 39.203125 
Q 51.21875 37.546875 55.171875 34.671875 
Q 62.015625 29.640625 62.015625 20.0625 
Q 62.015625 8.15625 53.34375 3.03125 
Q 44.671875 -2.09375 33.203125 -2.09375 
Q 19.828125 -2.09375 12.25 4.734375 
Q 4.6875 11.53125 4.828125 23.140625 
z
M 33.59375 73.6875 
z
" id="Helvetica-83"/>
       <path d="M 73.25 0.203125 
L 68.359375 -5.71875 
L 57.28125 2.734375 
Q 53.265625 0.53125 48.609375 -0.78125 
Q 43.953125 -2.09375 38.421875 -2.09375 
Q 21.734375 -2.09375 12.25 8.84375 
Q 3.90625 19.484375 3.90625 35.5 
Q 3.90625 50.046875 11.140625 60.40625 
Q 20.40625 73.6875 38.578125 73.6875 
Q 57.5625 73.6875 66.703125 61.46875 
Q 73.828125 51.953125 73.828125 37.109375 
Q 73.828125 30.171875 72.125 23.78125 
Q 69.53125 14.015625 63.375 7.859375 
z
M 39.59375 6.59375 
Q 42.625 6.59375 45.265625 7 
Q 47.90625 7.421875 49.859375 8.640625 
L 42 14.796875 
L 46.875 20.796875 
L 56.25 13.53125 
Q 60.6875 18.609375 62.28125 24.90625 
Q 63.875 31.203125 63.875 36.96875 
Q 63.875 49.609375 57.25 57.328125 
Q 50.640625 65.046875 39.15625 65.046875 
Q 27.546875 65.046875 20.75 57.640625 
Q 13.96875 50.25 13.96875 34.859375 
Q 13.96875 21.921875 20.484375 14.25 
Q 27 6.59375 39.59375 6.59375 
z
" id="Helvetica-81"/>
       <path d="M 37.84375 73.6875 
Q 51.46875 73.6875 58.984375 66.5 
Q 66.5 59.328125 67.328125 50.203125 
L 57.859375 50.203125 
Q 56.25 57.125 51.4375 61.171875 
Q 46.625 65.234375 37.9375 65.234375 
Q 27.34375 65.234375 20.828125 57.78125 
Q 14.3125 50.34375 14.3125 34.96875 
Q 14.3125 22.359375 20.1875 14.515625 
Q 26.078125 6.6875 37.75 6.6875 
Q 48.484375 6.6875 54.109375 14.9375 
Q 57.078125 19.28125 58.546875 26.375 
L 68.015625 26.375 
Q 66.75 15.046875 59.625 7.375 
Q 51.078125 -1.859375 36.578125 -1.859375 
Q 24.078125 -1.859375 15.578125 5.71875 
Q 4.390625 15.71875 4.390625 36.625 
Q 4.390625 52.484375 12.796875 62.640625 
Q 21.875 73.6875 37.84375 73.6875 
z
M 35.890625 73.6875 
z
" id="Helvetica-67"/>
       <path d="M 4.15625 32.375 
L 28.65625 32.375 
L 28.65625 23.34375 
L 4.15625 23.34375 
z
" id="Helvetica-45"/>
       <path d="M 59.8125 71.734375 
L 59.8125 63.1875 
L 35.640625 63.1875 
L 35.640625 0 
L 25.78125 0 
L 25.78125 63.1875 
L 1.609375 63.1875 
L 1.609375 71.734375 
z
" id="Helvetica-84"/>
       <path d="M 38.578125 73.6875 
Q 57.5625 73.6875 66.703125 61.46875 
Q 73.828125 51.953125 73.828125 37.109375 
Q 73.828125 21.046875 65.671875 10.40625 
Q 56.109375 -2.09375 38.375 -2.09375 
Q 21.828125 -2.09375 12.359375 8.84375 
Q 3.90625 19.390625 3.90625 35.5 
Q 3.90625 50.046875 11.140625 60.40625 
Q 20.40625 73.6875 38.578125 73.6875 
z
M 39.546875 6.59375 
Q 52.390625 6.59375 58.125 15.796875 
Q 63.875 25 63.875 36.96875 
Q 63.875 49.609375 57.25 57.328125 
Q 50.640625 65.046875 39.15625 65.046875 
Q 28.03125 65.046875 21 57.390625 
Q 13.96875 49.75 13.96875 34.859375 
Q 13.96875 22.953125 20 14.765625 
Q 26.03125 6.59375 39.546875 6.59375 
z
M 38.875 73.6875 
z
" id="Helvetica-79"/>
       <path d="M 2.046875 71.734375 
L 13.375 71.734375 
L 33.984375 37.25 
L 54.59375 71.734375 
L 65.96875 71.734375 
L 38.875 28.90625 
L 38.875 0 
L 29.15625 0 
L 29.15625 28.90625 
z
M 34.125 71.734375 
z
" id="Helvetica-89"/>
      </defs>
      <use xlink:href="#Helvetica-88"/>
      <use x="66.699219" xlink:href="#Helvetica-32"/>
      <use x="94.482422" xlink:href="#Helvetica-61"/>
      <use x="152.880859" xlink:href="#Helvetica-32"/>
      <use x="180.664062" xlink:href="#Helvetica-115"/>
      <use x="230.664062" xlink:href="#Helvetica-101"/>
      <use x="286.279297" xlink:href="#Helvetica-72"/>
      <use x="358.496094" xlink:href="#Helvetica-83"/>
      <use x="425.195312" xlink:href="#Helvetica-81"/>
      <use x="502.978516" xlink:href="#Helvetica-67"/>
      <use x="575.195312" xlink:href="#Helvetica-45"/>
      <use x="608.496094" xlink:href="#Helvetica-84"/>
      <use x="669.580078" xlink:href="#Helvetica-79"/>
      <use x="747.363281" xlink:href="#Helvetica-67"/>
      <use x="819.580078" xlink:href="#Helvetica-83"/>
      <use x="886.279297" xlink:href="#Helvetica-89"/>
     </g>
    </g>
   </g>
   <g id="matplotlib.axis_2">
    <g id="ytick_1">
     <g id="line2d_1">
      <defs>
       <path d="M 0 0 
L -3.5 0 
" id="mee160b4af5" style="stroke:#000000;stroke-width:0.8;"/>
      </defs>
      <g>
       <use style="stroke:#000000;stroke-width:0.8;" x="52.562" xlink:href="#mee160b4af5" y="232.393778"/>
      </g>
     </g>
     <g id="text_2">
      <!-- 0.0 -->
      <g transform="translate(31.66756 235.979062)scale(0.09996 -0.09996)">
       <defs>
        <path d="M 27.046875 69.921875 
Q 40.625 69.921875 46.6875 58.734375 
Q 51.375 50.09375 51.375 35.0625 
Q 51.375 20.796875 47.125 11.46875 
Q 40.96875 -1.90625 27 -1.90625 
Q 14.40625 -1.90625 8.25 9.03125 
Q 3.125 18.171875 3.125 33.546875 
Q 3.125 45.453125 6.203125 54 
Q 11.96875 69.921875 27.046875 69.921875 
z
M 26.953125 6.109375 
Q 33.796875 6.109375 37.84375 12.15625 
Q 41.890625 18.21875 41.890625 34.71875 
Q 41.890625 46.625 38.953125 54.3125 
Q 36.03125 62.015625 27.59375 62.015625 
Q 19.828125 62.015625 16.234375 54.703125 
Q 12.640625 47.40625 12.640625 33.203125 
Q 12.640625 22.515625 14.9375 16.015625 
Q 18.453125 6.109375 26.953125 6.109375 
z
" id="Helvetica-48"/>
        <path d="M 8.546875 10.640625 
L 18.75 10.640625 
L 18.75 0 
L 8.546875 0 
z
" id="Helvetica-46"/>
       </defs>
       <use xlink:href="#Helvetica-48"/>
       <use x="55.615234" xlink:href="#Helvetica-46"/>
       <use x="83.398438" xlink:href="#Helvetica-48"/>
      </g>
     </g>
    </g>
    <g id="ytick_2">
     <g id="line2d_2">
      <g>
       <use style="stroke:#000000;stroke-width:0.8;" x="52.562" xlink:href="#mee160b4af5" y="191.983407"/>
      </g>
     </g>
     <g id="text_3">
      <!-- 0.5 -->
      <g transform="translate(31.66756 195.568691)scale(0.09996 -0.09996)">
       <defs>
        <path d="M 12.359375 17.828125 
Q 13.234375 10.296875 19.34375 7.421875 
Q 22.46875 5.953125 26.5625 5.953125 
Q 34.375 5.953125 38.125 10.9375 
Q 41.890625 15.921875 41.890625 21.96875 
Q 41.890625 29.296875 37.421875 33.296875 
Q 32.953125 37.3125 26.703125 37.3125 
Q 22.171875 37.3125 18.921875 35.546875 
Q 15.671875 33.796875 13.375 30.671875 
L 5.765625 31.109375 
L 11.078125 68.75 
L 47.40625 68.75 
L 47.40625 60.25 
L 17.671875 60.25 
L 14.703125 40.828125 
Q 17.140625 42.671875 19.34375 43.609375 
Q 23.25 45.21875 28.375 45.21875 
Q 37.984375 45.21875 44.671875 39.015625 
Q 51.375 32.8125 51.375 23.296875 
Q 51.375 13.375 45.234375 5.796875 
Q 39.109375 -1.765625 25.6875 -1.765625 
Q 17.140625 -1.765625 10.5625 3.046875 
Q 4 7.859375 3.21875 17.828125 
z
" id="Helvetica-53"/>
       </defs>
       <use xlink:href="#Helvetica-48"/>
       <use x="55.615234" xlink:href="#Helvetica-46"/>
       <use x="83.398438" xlink:href="#Helvetica-53"/>
      </g>
     </g>
    </g>
    <g id="ytick_3">
     <g id="line2d_3">
      <g>
       <use style="stroke:#000000;stroke-width:0.8;" x="52.562" xlink:href="#mee160b4af5" y="151.573037"/>
      </g>
     </g>
     <g id="text_4">
      <!-- 1.0 -->
      <g transform="translate(31.66756 155.158321)scale(0.09996 -0.09996)">
       <defs>
        <path d="M 9.578125 49.515625 
L 9.578125 56.25 
Q 19.09375 57.171875 22.84375 59.34375 
Q 26.609375 61.53125 28.46875 69.625 
L 35.40625 69.625 
L 35.40625 0 
L 26.03125 0 
L 26.03125 49.515625 
z
" id="Helvetica-49"/>
       </defs>
       <use xlink:href="#Helvetica-49"/>
       <use x="55.615234" xlink:href="#Helvetica-46"/>
       <use x="83.398438" xlink:href="#Helvetica-48"/>
      </g>
     </g>
    </g>
    <g id="ytick_4">
     <g id="line2d_4">
      <g>
       <use style="stroke:#000000;stroke-width:0.8;" x="52.562" xlink:href="#mee160b4af5" y="111.162667"/>
      </g>
     </g>
     <g id="text_5">
      <!-- 1.5 -->
      <g transform="translate(31.66756 114.747951)scale(0.09996 -0.09996)">
       <use xlink:href="#Helvetica-49"/>
       <use x="55.615234" xlink:href="#Helvetica-46"/>
       <use x="83.398438" xlink:href="#Helvetica-53"/>
      </g>
     </g>
    </g>
    <g id="ytick_5">
     <g id="line2d_5">
      <g>
       <use style="stroke:#000000;stroke-width:0.8;" x="52.562" xlink:href="#mee160b4af5" y="70.752296"/>
      </g>
     </g>
     <g id="text_6">
      <!-- 2.0 -->
      <g transform="translate(31.66756 74.33758)scale(0.09996 -0.09996)">
       <defs>
        <path d="M 3.125 0 
Q 3.609375 9.03125 6.859375 15.71875 
Q 10.109375 22.40625 19.53125 27.875 
L 28.90625 33.296875 
Q 35.203125 36.96875 37.75 39.546875 
Q 41.75 43.609375 41.75 48.828125 
Q 41.75 54.9375 38.078125 58.515625 
Q 34.421875 62.109375 28.328125 62.109375 
Q 19.28125 62.109375 15.828125 55.28125 
Q 13.96875 51.609375 13.765625 45.125 
L 4.828125 45.125 
Q 4.984375 54.25 8.203125 60.015625 
Q 13.921875 70.171875 28.375 70.171875 
Q 40.375 70.171875 45.921875 63.671875 
Q 51.46875 57.171875 51.46875 49.21875 
Q 51.46875 40.828125 45.5625 34.859375 
Q 42.140625 31.390625 33.296875 26.46875 
L 26.609375 22.75 
Q 21.828125 20.125 19.09375 17.71875 
Q 14.203125 13.484375 12.9375 8.296875 
L 51.125 8.296875 
L 51.125 0 
L 3.125 0 
z
" id="Helvetica-50"/>
       </defs>
       <use xlink:href="#Helvetica-50"/>
       <use x="55.615234" xlink:href="#Helvetica-46"/>
       <use x="83.398438" xlink:href="#Helvetica-48"/>
      </g>
     </g>
    </g>
    <g id="text_7">
     <!-- intensity vs NOAH-2 $\rm SC^{c}$ -->
     <g transform="translate(25.02756 213.892)rotate(-90)scale(0.12 -0.12)">
      <defs>
       <path d="M 6.453125 52.046875 
L 15.375 52.046875 
L 15.375 0 
L 6.453125 0 
z
M 6.453125 71.734375 
L 15.375 71.734375 
L 15.375 61.765625 
L 6.453125 61.765625 
z
" id="Helvetica-105"/>
       <path d="M 6.453125 52.296875 
L 14.796875 52.296875 
L 14.796875 44.875 
Q 18.5 49.46875 22.65625 51.46875 
Q 26.8125 53.46875 31.890625 53.46875 
Q 43.015625 53.46875 46.921875 45.703125 
Q 49.078125 41.453125 49.078125 33.546875 
L 49.078125 0 
L 40.140625 0 
L 40.140625 32.953125 
Q 40.140625 37.75 38.71875 40.671875 
Q 36.375 45.5625 30.21875 45.5625 
Q 27.09375 45.5625 25.09375 44.921875 
Q 21.484375 43.84375 18.75 40.625 
Q 16.546875 38.03125 15.890625 35.265625 
Q 15.234375 32.515625 15.234375 27.390625 
L 15.234375 0 
L 6.453125 0 
z
M 27.09375 53.5625 
z
" id="Helvetica-110"/>
       <path d="M 8.203125 66.890625 
L 17.09375 66.890625 
L 17.09375 52.296875 
L 25.4375 52.296875 
L 25.4375 45.125 
L 17.09375 45.125 
L 17.09375 10.984375 
Q 17.09375 8.25 18.953125 7.328125 
Q 19.96875 6.78125 22.359375 6.78125 
Q 23 6.78125 23.734375 6.8125 
Q 24.46875 6.84375 25.4375 6.9375 
L 25.4375 0 
Q 23.921875 -0.4375 22.28125 -0.625 
Q 20.65625 -0.828125 18.75 -0.828125 
Q 12.59375 -0.828125 10.390625 2.3125 
Q 8.203125 5.46875 8.203125 10.5 
L 8.203125 45.125 
L 1.125 45.125 
L 1.125 52.296875 
L 8.203125 52.296875 
z
" id="Helvetica-116"/>
       <path d="M 39.109375 52.296875 
L 48.828125 52.296875 
Q 46.96875 47.265625 40.578125 29.34375 
Q 35.796875 15.875 32.5625 7.375 
Q 24.953125 -12.640625 21.828125 -17.03125 
Q 18.703125 -21.4375 11.078125 -21.4375 
Q 9.234375 -21.4375 8.234375 -21.28125 
Q 7.234375 -21.140625 5.765625 -20.75 
L 5.765625 -12.75 
Q 8.0625 -13.375 9.078125 -13.515625 
Q 10.109375 -13.671875 10.890625 -13.671875 
Q 13.328125 -13.671875 14.46875 -12.859375 
Q 15.625 -12.0625 16.40625 -10.890625 
Q 16.65625 -10.5 18.15625 -6.875 
Q 19.671875 -3.265625 20.359375 -1.515625 
L 1.03125 52.296875 
L 10.984375 52.296875 
L 25 9.71875 
z
M 24.953125 53.5625 
z
" id="Helvetica-121"/>
       <path d="M 10.75 52.296875 
L 24.703125 9.71875 
L 39.3125 52.296875 
L 48.921875 52.296875 
L 29.203125 0 
L 19.828125 0 
L 0.53125 52.296875 
z
" id="Helvetica-118"/>
       <path d="M 7.625 71.734375 
L 19.09375 71.734375 
L 55.328125 13.625 
L 55.328125 71.734375 
L 64.546875 71.734375 
L 64.546875 0 
L 53.65625 0 
L 16.890625 58.0625 
L 16.890625 0 
L 7.625 0 
z
M 35.453125 71.734375 
z
" id="Helvetica-78"/>
       <path d="M 44.4375 29.390625 
L 33.546875 61.078125 
L 21.96875 29.390625 
z
M 28.46875 71.734375 
L 39.453125 71.734375 
L 65.484375 0 
L 54.828125 0 
L 47.5625 21.484375 
L 19.1875 21.484375 
L 11.421875 0 
L 1.46875 0 
z
" id="Helvetica-65"/>
       <path d="M 26.609375 53.8125 
Q 35.453125 53.8125 40.984375 49.515625 
Q 46.53125 45.21875 47.65625 34.71875 
L 39.109375 34.71875 
Q 38.328125 39.546875 35.546875 42.75 
Q 32.765625 45.953125 26.609375 45.953125 
Q 18.21875 45.953125 14.59375 37.75 
Q 12.25 32.421875 12.25 24.609375 
Q 12.25 16.75 15.5625 11.375 
Q 18.890625 6 26.03125 6 
Q 31.5 6 34.6875 9.34375 
Q 37.890625 12.703125 39.109375 18.5 
L 47.65625 18.5 
Q 46.1875 8.109375 40.328125 3.296875 
Q 34.46875 -1.515625 25.34375 -1.515625 
Q 15.09375 -1.515625 8.984375 5.984375 
Q 2.875 13.484375 2.875 24.703125 
Q 2.875 38.484375 9.5625 46.140625 
Q 16.265625 53.8125 26.609375 53.8125 
z
M 25.25 53.5625 
z
" id="Helvetica-99"/>
      </defs>
      <use transform="translate(0 0.723438)" xlink:href="#Helvetica-105"/>
      <use transform="translate(22.216797 0.723438)" xlink:href="#Helvetica-110"/>
      <use transform="translate(77.832031 0.723438)" xlink:href="#Helvetica-116"/>
      <use transform="translate(105.615234 0.723438)" xlink:href="#Helvetica-101"/>
      <use transform="translate(161.230469 0.723438)" xlink:href="#Helvetica-110"/>
      <use transform="translate(216.845703 0.723438)" xlink:href="#Helvetica-115"/>
      <use transform="translate(266.845703 0.723438)" xlink:href="#Helvetica-105"/>
      <use transform="translate(289.0625 0.723438)" xlink:href="#Helvetica-116"/>
      <use transform="translate(316.845703 0.723438)" xlink:href="#Helvetica-121"/>
      <use transform="translate(366.845703 0.723438)" xlink:href="#Helvetica-32"/>
      <use transform="translate(394.628906 0.723438)" xlink:href="#Helvetica-118"/>
      <use transform="translate(444.628906 0.723438)" xlink:href="#Helvetica-115"/>
      <use transform="translate(494.628906 0.723438)" xlink:href="#Helvetica-32"/>
      <use transform="translate(522.412109 0.723438)" xlink:href="#Helvetica-78"/>
      <use transform="translate(594.628906 0.723438)" xlink:href="#Helvetica-79"/>
      <use transform="translate(672.412109 0.723438)" xlink:href="#Helvetica-65"/>
      <use transform="translate(739.111328 0.723438)" xlink:href="#Helvetica-72"/>
      <use transform="translate(811.328125 0.723438)" xlink:href="#Helvetica-45"/>
      <use transform="translate(844.628906 0.723438)" xlink:href="#Helvetica-50"/>
      <use transform="translate(900.244141 0.723438)" xlink:href="#Helvetica-32"/>
      <use transform="translate(928.027344 0.723438)" xlink:href="#Helvetica-83"/>
      <use transform="translate(994.726562 0.723438)" xlink:href="#Helvetica-67"/>
      <use transform="translate(1067.858555 37.33125)scale(0.7)" xlink:href="#Helvetica-99"/>
     </g>
    </g>
   </g>
   <g id="PathCollection_10">
    <defs>
     <path d="M 4.229935 0 
L -4.229935 -0 
" id="m89649be158" style="stroke:#b1400d;stroke-width:2.53125;"/>
    </defs>
    <g clip-path="url(#pdb12cc04f4)">
     <use style="fill:#b1400d;stroke:#b1400d;stroke-width:2.53125;" x="125.8364" xlink:href="#m89649be158" y="201.534489"/>
    </g>
   </g>
   <g id="line2d_6">
    <path clip-path="url(#pdb12cc04f4)" d="M 52.562 151.573037 
L 235.748 151.573037 
" style="fill:none;stroke:#808080;stroke-dasharray:1.85,0.8;stroke-dashoffset:0;stroke-width:0.5;"/>
   </g>
   <g id="patch_3">
    <path d="M 52.562 256.64 
L 52.562 38.424 
" style="fill:none;stroke:#000000;stroke-linecap:square;stroke-linejoin:miter;stroke-width:1.3;"/>
   </g>
   <g id="patch_4">
    <path d="M 235.748 256.64 
L 235.748 38.424 
" style="fill:none;stroke:#000000;stroke-linecap:square;stroke-linejoin:miter;stroke-width:1.3;"/>
   </g>
   <g id="patch_5">
    <path d="M 52.562 256.64 
L 235.748 256.64 
" style="fill:none;stroke:#000000;stroke-linecap:square;stroke-linejoin:miter;stroke-width:1.3;"/>
   </g>
   <g id="patch_6">
    <path d="M 52.562 38.424 
L 235.748 38.424 
" style="fill:none;stroke:#000000;stroke-linecap:square;stroke-linejoin:miter;stroke-width:1.3;"/>
   </g>
   <g id="PathCollection_11">
    <defs>
     <path d="M 4.229935 0 
L -4.229935 -0 
" id="m6ea814b6ea" style="stroke:#12711c;stroke-width:2.53125;"/>
    </defs>
    <g clip-path="url(#pdb12cc04f4)">
     <use style="fill:#12711c;stroke:#12711c;stroke-width:2.53125;" x="162.4736" xlink:href="#m6ea814b6ea" y="219.859865"/>
    </g>
   </g>
   <g id="text_8">
    <!-- (0.51) -->
    <g style="fill:#4c72b0;" transform="translate(73.527012 252.27568)scale(0.12 -0.12)">
     <defs>
      <path d="M 29.59375 72.90625 
Q 21.921875 58.015625 19.625 50.984375 
Q 16.15625 40.28125 16.15625 26.265625 
Q 16.15625 12.109375 20.125 0.390625 
Q 22.5625 -6.84375 29.734375 -20.40625 
L 23.828125 -20.40625 
Q 16.703125 -9.28125 14.984375 -6.203125 
Q 13.28125 -3.125 11.28125 2.15625 
Q 8.546875 9.375 7.46875 17.578125 
Q 6.9375 21.828125 6.9375 25.6875 
Q 6.9375 40.140625 11.46875 51.421875 
Q 14.359375 58.59375 23.484375 72.90625 
z
" id="Helvetica-40"/>
      <path d="M 3.46875 -20.40625 
Q 11.234375 -5.28125 13.484375 1.65625 
Q 16.890625 12.15625 16.890625 26.265625 
Q 16.890625 40.375 12.9375 52.09375 
Q 10.5 59.328125 3.328125 72.90625 
L 9.234375 72.90625 
Q 16.75 60.890625 18.328125 58.078125 
Q 19.921875 55.28125 21.78125 50.34375 
Q 24.125 44.234375 25.125 38.28125 
Q 26.125 32.328125 26.125 26.8125 
Q 26.125 12.359375 21.53125 1.03125 
Q 18.65625 -6.25 9.578125 -20.40625 
z
" id="Helvetica-41"/>
     </defs>
     <use xlink:href="#Helvetica-40"/>
     <use x="33.300781" xlink:href="#Helvetica-48"/>
     <use x="88.916016" xlink:href="#Helvetica-46"/>
     <use x="116.699219" xlink:href="#Helvetica-53"/>
     <use x="172.314453" xlink:href="#Helvetica-49"/>
     <use x="227.929688" xlink:href="#Helvetica-41"/>
    </g>
   </g>
   <g id="text_9">
    <!-- (0.38) -->
    <g style="fill:#dd8452;" transform="translate(110.164212 252.27568)scale(0.12 -0.12)">
     <defs>
      <path d="M 25.984375 -1.90625 
Q 13.578125 -1.90625 7.984375 4.90625 
Q 2.390625 11.71875 2.390625 21.484375 
L 11.578125 21.484375 
Q 12.15625 14.703125 14.109375 11.625 
Q 17.53125 6.109375 26.46875 6.109375 
Q 33.40625 6.109375 37.59375 9.8125 
Q 41.796875 13.53125 41.796875 19.390625 
Q 41.796875 26.609375 37.375 29.484375 
Q 32.953125 32.375 25.09375 32.375 
Q 24.21875 32.375 23.3125 32.34375 
Q 22.40625 32.328125 21.484375 32.28125 
L 21.484375 40.046875 
Q 22.859375 39.890625 23.78125 39.84375 
Q 24.703125 39.796875 25.78125 39.796875 
Q 30.71875 39.796875 33.890625 41.359375 
Q 39.453125 44.09375 39.453125 51.125 
Q 39.453125 56.34375 35.734375 59.171875 
Q 32.03125 62.015625 27.09375 62.015625 
Q 18.3125 62.015625 14.9375 56.15625 
Q 13.09375 52.9375 12.84375 46.96875 
L 4.15625 46.96875 
Q 4.15625 54.78125 7.28125 60.25 
Q 12.640625 70.015625 26.171875 70.015625 
Q 36.859375 70.015625 42.71875 65.25 
Q 48.578125 60.5 48.578125 51.46875 
Q 48.578125 45.015625 45.125 41.015625 
Q 42.96875 38.53125 39.546875 37.109375 
Q 45.0625 35.59375 48.15625 31.265625 
Q 51.265625 26.953125 51.265625 20.703125 
Q 51.265625 10.6875 44.671875 4.390625 
Q 38.09375 -1.90625 25.984375 -1.90625 
z
" id="Helvetica-51"/>
      <path d="M 27.203125 40.625 
Q 33.015625 40.625 36.28125 43.875 
Q 39.546875 47.125 39.546875 51.609375 
Q 39.546875 55.515625 36.421875 58.78125 
Q 33.296875 62.0625 26.90625 62.0625 
Q 20.5625 62.0625 17.71875 58.78125 
Q 14.890625 55.515625 14.890625 51.125 
Q 14.890625 46.1875 18.546875 43.40625 
Q 22.21875 40.625 27.203125 40.625 
z
M 27.734375 6 
Q 33.84375 6 37.859375 9.296875 
Q 41.890625 12.59375 41.890625 19.140625 
Q 41.890625 25.921875 37.734375 29.4375 
Q 33.59375 32.953125 27.09375 32.953125 
Q 20.796875 32.953125 16.8125 29.359375 
Q 12.84375 25.78125 12.84375 19.4375 
Q 12.84375 13.96875 16.484375 9.984375 
Q 20.125 6 27.734375 6 
z
M 15.234375 37.25 
Q 11.578125 38.8125 9.515625 40.921875 
Q 5.671875 44.828125 5.671875 51.078125 
Q 5.671875 58.890625 11.328125 64.5 
Q 17 70.125 27.390625 70.125 
Q 37.453125 70.125 43.15625 64.8125 
Q 48.875 59.515625 48.875 52.4375 
Q 48.875 45.90625 45.5625 41.84375 
Q 43.703125 39.546875 39.796875 37.359375 
Q 44.140625 35.359375 46.625 32.765625 
Q 51.265625 27.875 51.265625 20.0625 
Q 51.265625 10.84375 45.0625 4.421875 
Q 38.875 -2 27.546875 -2 
Q 17.328125 -2 10.265625 3.53125 
Q 3.21875 9.078125 3.21875 19.625 
Q 3.21875 25.828125 6.25 30.34375 
Q 9.28125 34.859375 15.234375 37.25 
z
" id="Helvetica-56"/>
     </defs>
     <use xlink:href="#Helvetica-40"/>
     <use x="33.300781" xlink:href="#Helvetica-48"/>
     <use x="88.916016" xlink:href="#Helvetica-46"/>
     <use x="116.699219" xlink:href="#Helvetica-51"/>
     <use x="172.314453" xlink:href="#Helvetica-56"/>
     <use x="227.929688" xlink:href="#Helvetica-41"/>
    </g>
   </g>
   <g id="text_10">
    <!-- (0.16) -->
    <g style="fill:#55a868;" transform="translate(146.801412 252.27568)scale(0.12 -0.12)">
     <defs>
      <path d="M 29.25 70.21875 
Q 40.96875 70.21875 45.578125 64.140625 
Q 50.203125 58.0625 50.203125 51.609375 
L 41.5 51.609375 
Q 40.71875 55.765625 39.015625 58.109375 
Q 35.84375 62.5 29.390625 62.5 
Q 22.015625 62.5 17.671875 55.6875 
Q 13.328125 48.875 12.84375 36.1875 
Q 15.875 40.625 20.453125 42.828125 
Q 24.65625 44.78125 29.828125 44.78125 
Q 38.625 44.78125 45.15625 39.15625 
Q 51.703125 33.546875 51.703125 22.40625 
Q 51.703125 12.890625 45.5 5.53125 
Q 39.3125 -1.8125 27.828125 -1.8125 
Q 18.015625 -1.8125 10.890625 5.640625 
Q 3.765625 13.09375 3.765625 30.71875 
Q 3.765625 43.75 6.9375 52.828125 
Q 13.03125 70.21875 29.25 70.21875 
z
M 28.609375 6 
Q 35.546875 6 38.984375 10.65625 
Q 42.4375 15.328125 42.4375 21.6875 
Q 42.4375 27.046875 39.359375 31.90625 
Q 36.28125 36.765625 28.171875 36.765625 
Q 22.515625 36.765625 18.234375 33 
Q 13.96875 29.25 13.96875 21.6875 
Q 13.96875 15.046875 17.84375 10.515625 
Q 21.734375 6 28.609375 6 
z
" id="Helvetica-54"/>
     </defs>
     <use xlink:href="#Helvetica-40"/>
     <use x="33.300781" xlink:href="#Helvetica-48"/>
     <use x="88.916016" xlink:href="#Helvetica-46"/>
     <use x="116.699219" xlink:href="#Helvetica-49"/>
     <use x="172.314453" xlink:href="#Helvetica-54"/>
     <use x="227.929688" xlink:href="#Helvetica-41"/>
    </g>
   </g>
   <g id="text_11">
    <!-- (0.82) -->
    <g style="fill:#c44e52;" transform="translate(183.438612 252.27568)scale(0.12 -0.12)">
     <use xlink:href="#Helvetica-40"/>
     <use x="33.300781" xlink:href="#Helvetica-48"/>
     <use x="88.916016" xlink:href="#Helvetica-46"/>
     <use x="116.699219" xlink:href="#Helvetica-56"/>
     <use x="172.314453" xlink:href="#Helvetica-50"/>
     <use x="227.929688" xlink:href="#Helvetica-41"/>
    </g>
   </g>
   <g id="text_12">
    <!-- (a) -->
    <g transform="translate(56.22572 52.918633)scale(0.14 -0.14)">
     <defs>
      <path d="M 10.0625 53.8125 
Q 13.921875 62.796875 21.34375 73.140625 
L 31.84375 73.140625 
L 28.859375 67.671875 
Q 22.703125 56.390625 20.3125 44.046875 
Q 18.75 35.9375 18.75 26.375 
Q 18.75 11.421875 23.09375 -1.125 
Q 25.640625 -8.546875 32.078125 -20.171875 
L 21.78125 -20.171875 
L 18.3125 -15.4375 
Q 14.9375 -11.140625 11.140625 -2.640625 
Q 4.34375 12.546875 4.34375 27.25 
Q 4.34375 40.625 10.0625 53.8125 
z
" id="Helvetica-Bold-40"/>
      <path d="M 35.84375 25.875 
Q 34.515625 25.046875 33.171875 24.53125 
Q 31.84375 24.03125 29.5 23.578125 
L 26.375 23 
Q 21.96875 22.21875 20.0625 21.09375 
Q 16.84375 19.1875 16.84375 15.1875 
Q 16.84375 11.625 18.8125 10.03125 
Q 20.796875 8.453125 23.640625 8.453125 
Q 28.125 8.453125 31.90625 11.078125 
Q 35.6875 13.71875 35.84375 20.703125 
z
M 27.390625 32.375 
Q 31.25 32.859375 32.90625 33.59375 
Q 35.890625 34.859375 35.890625 37.546875 
Q 35.890625 40.828125 33.609375 42.0625 
Q 31.34375 43.3125 26.953125 43.3125 
Q 22.015625 43.3125 19.96875 40.875 
Q 18.5 39.0625 18.015625 35.984375 
L 4.59375 35.984375 
Q 5.03125 42.96875 8.5 47.46875 
Q 14.015625 54.5 27.4375 54.5 
Q 36.1875 54.5 42.96875 51.03125 
Q 49.75 47.5625 49.75 37.9375 
L 49.75 13.53125 
Q 49.75 10.984375 49.859375 7.375 
Q 50 4.640625 50.6875 3.65625 
Q 51.375 2.6875 52.734375 2.046875 
L 52.734375 0 
L 37.59375 0 
Q 36.96875 1.609375 36.71875 3.015625 
Q 36.46875 4.4375 36.328125 6.25 
Q 33.453125 3.125 29.6875 0.921875 
Q 25.203125 -1.65625 19.53125 -1.65625 
Q 12.3125 -1.65625 7.59375 2.46875 
Q 2.875 6.59375 2.875 14.15625 
Q 2.875 23.96875 10.453125 28.375 
Q 14.59375 30.765625 22.65625 31.78125 
z
M 28.125 54.640625 
z
" id="Helvetica-Bold-97"/>
      <path d="M 11.765625 73.140625 
Q 19.1875 62.796875 23.046875 53.8125 
Q 28.765625 40.625 28.765625 27.25 
Q 28.765625 12.546875 21.96875 -2.640625 
Q 18.171875 -11.140625 14.796875 -15.4375 
L 11.328125 -20.171875 
L 1.03125 -20.171875 
Q 7.46875 -8.546875 10.015625 -1.125 
Q 14.359375 11.421875 14.359375 26.375 
Q 14.359375 35.9375 12.796875 44.046875 
Q 10.40625 56.390625 4.25 67.671875 
L 1.265625 73.140625 
L 11.765625 73.140625 
z
" id="Helvetica-Bold-41"/>
     </defs>
     <use xlink:href="#Helvetica-Bold-40"/>
     <use x="33.300781" xlink:href="#Helvetica-Bold-97"/>
     <use x="88.916016" xlink:href="#Helvetica-Bold-41"/>
    </g>
   </g>
   <g id="PathCollection_12">
    <defs>
     <path d="M 4.229935 0 
L -4.229935 -0 
" id="me19aae4896" style="stroke:#8c0800;stroke-width:2.53125;"/>
    </defs>
    <g clip-path="url(#pdb12cc04f4)">
     <use style="fill:#8c0800;stroke:#8c0800;stroke-width:2.53125;" x="199.1108" xlink:href="#me19aae4896" y="165.782017"/>
    </g>
   </g>
  </g>
  <g id="axes_2">
   <g id="patch_7">
    <path d="M 252.208 256.64 
L 435.394 256.64 
L 435.394 38.424 
L 252.208 38.424 
z
" style="fill:#ffffff;"/>
   </g>
   <g id="PathCollection_13">
    <defs>
     <path d="M 0 2.5 
C 0.663008 2.5 1.29895 2.236584 1.767767 1.767767 
C 2.236584 1.29895 2.5 0.663008 2.5 -0 
C 2.5 -0.663008 2.236584 -1.29895 1.767767 -1.767767 
C 1.29895 -2.236584 0.663008 -2.5 0 -2.5 
C -0.663008 -2.5 -1.29895 -2.236584 -1.767767 -1.767767 
C -2.236584 -1.29895 -2.5 -0.663008 -2.5 0 
C -2.5 0.663008 -2.236584 1.29895 -1.767767 1.767767 
C -1.29895 2.236584 -0.663008 2.5 0 2.5 
z
" id="C4_0_e23745f529"/>
    </defs>
    <g clip-path="url(#p82a62bf37d)">
     <use style="fill:#4c72b0;fill-opacity:0.3;" x="286.273158" xlink:href="#C4_0_e23745f529" y="197.972858"/>
    </g>
    <g clip-path="url(#p82a62bf37d)">
     <use style="fill:#4c72b0;fill-opacity:0.3;" x="287.514379" xlink:href="#C4_0_e23745f529" y="204.458263"/>
    </g>
    <g clip-path="url(#p82a62bf37d)">
     <use style="fill:#4c72b0;fill-opacity:0.3;" x="292.347565" xlink:href="#C4_0_e23745f529" y="184.833917"/>
    </g>
    <g clip-path="url(#p82a62bf37d)">
     <use style="fill:#4c72b0;fill-opacity:0.3;" x="291.712765" xlink:href="#C4_0_e23745f529" y="179.713927"/>
    </g>
    <g clip-path="url(#p82a62bf37d)">
     <use style="fill:#4c72b0;fill-opacity:0.3;" x="284.927824" xlink:href="#C4_0_e23745f529" y="183.811376"/>
    </g>
   </g>
   <g id="PathCollection_14">
    <defs>
     <path d="M 0 2.5 
C 0.663008 2.5 1.29895 2.236584 1.767767 1.767767 
C 2.236584 1.29895 2.5 0.663008 2.5 -0 
C 2.5 -0.663008 2.236584 -1.29895 1.767767 -1.767767 
C 1.29895 -2.236584 0.663008 -2.5 0 -2.5 
C -0.663008 -2.5 -1.29895 -2.236584 -1.767767 -1.767767 
C -2.236584 -1.29895 -2.5 -0.663008 -2.5 0 
C -2.5 0.663008 -2.236584 1.29895 -1.767767 1.767767 
C -1.29895 2.236584 -0.663008 2.5 0 2.5 
z
" id="C5_0_d6a32f1e33"/>
    </defs>
    <g clip-path="url(#p82a62bf37d)">
     <use style="fill:#dd8452;fill-opacity:0.3;" x="328.613848" xlink:href="#C5_0_d6a32f1e33" y="219.652858"/>
    </g>
    <g clip-path="url(#p82a62bf37d)">
     <use style="fill:#dd8452;fill-opacity:0.3;" x="325.671581" xlink:href="#C5_0_d6a32f1e33" y="218.567501"/>
    </g>
    <g clip-path="url(#p82a62bf37d)">
     <use style="fill:#dd8452;fill-opacity:0.3;" x="323.183684" xlink:href="#C5_0_d6a32f1e33" y="217.560574"/>
    </g>
    <g clip-path="url(#p82a62bf37d)">
     <use style="fill:#dd8452;fill-opacity:0.3;" x="321.897793" xlink:href="#C5_0_d6a32f1e33" y="222.413392"/>
    </g>
    <g clip-path="url(#p82a62bf37d)">
     <use style="fill:#dd8452;fill-opacity:0.3;" x="321.880871" xlink:href="#C5_0_d6a32f1e33" y="212.470089"/>
    </g>
    <g clip-path="url(#p82a62bf37d)">
     <use style="fill:#dd8452;fill-opacity:0.3;" x="328.873334" xlink:href="#C5_0_d6a32f1e33" y="210.789034"/>
    </g>
    <g clip-path="url(#p82a62bf37d)">
     <use style="fill:#dd8452;fill-opacity:0.3;" x="329.327032" xlink:href="#C5_0_d6a32f1e33" y="190.405922"/>
    </g>
    <g clip-path="url(#p82a62bf37d)">
     <use style="fill:#dd8452;fill-opacity:0.3;" x="321.505247" xlink:href="#C5_0_d6a32f1e33" y="189.768386"/>
    </g>
    <g clip-path="url(#p82a62bf37d)">
     <use style="fill:#dd8452;fill-opacity:0.3;" x="328.806738" xlink:href="#C5_0_d6a32f1e33" y="183.041788"/>
    </g>
    <g clip-path="url(#p82a62bf37d)">
     <use style="fill:#dd8452;fill-opacity:0.3;" x="327.095929" xlink:href="#C5_0_d6a32f1e33" y="193.078037"/>
    </g>
    <g clip-path="url(#p82a62bf37d)">
     <use style="fill:#dd8452;fill-opacity:0.3;" x="325.535222" xlink:href="#C5_0_d6a32f1e33" y="184.293473"/>
    </g>
    <g clip-path="url(#p82a62bf37d)">
     <use style="fill:#dd8452;fill-opacity:0.3;" x="328.164918" xlink:href="#C5_0_d6a32f1e33" y="192.027261"/>
    </g>
    <g clip-path="url(#p82a62bf37d)">
     <use style="fill:#dd8452;fill-opacity:0.3;" x="328.078025" xlink:href="#C5_0_d6a32f1e33" y="191.449079"/>
    </g>
    <g clip-path="url(#p82a62bf37d)">
     <use style="fill:#dd8452;fill-opacity:0.3;" x="323.273589" xlink:href="#C5_0_d6a32f1e33" y="184.071565"/>
    </g>
   </g>
   <g id="PathCollection_15">
    <defs>
     <path d="M 0 2.5 
C 0.663008 2.5 1.29895 2.236584 1.767767 1.767767 
C 2.236584 1.29895 2.5 0.663008 2.5 -0 
C 2.5 -0.663008 2.236584 -1.29895 1.767767 -1.767767 
C 1.29895 -2.236584 0.663008 -2.5 0 -2.5 
C -0.663008 -2.5 -1.29895 -2.236584 -1.767767 -1.767767 
C -2.236584 -1.29895 -2.5 -0.663008 -2.5 0 
C -2.5 0.663008 -2.236584 1.29895 -1.767767 1.767767 
C -1.29895 2.236584 -0.663008 2.5 0 2.5 
z
" id="C6_0_3b3206838c"/>
    </defs>
    <g clip-path="url(#p82a62bf37d)">
     <use style="fill:#55a868;fill-opacity:0.3;" x="361.667283" xlink:href="#C6_0_3b3206838c" y="212.433579"/>
    </g>
    <g clip-path="url(#p82a62bf37d)">
     <use style="fill:#55a868;fill-opacity:0.3;" x="357.577593" xlink:href="#C6_0_3b3206838c" y="213.468552"/>
    </g>
   </g>
   <g id="PathCollection_16">
    <defs>
     <path d="M 0 2.5 
C 0.663008 2.5 1.29895 2.236584 1.767767 1.767767 
C 2.236584 1.29895 2.5 0.663008 2.5 -0 
C 2.5 -0.663008 2.236584 -1.29895 1.767767 -1.767767 
C 1.29895 -2.236584 0.663008 -2.5 0 -2.5 
C -0.663008 -2.5 -1.29895 -2.236584 -1.767767 -1.767767 
C -2.236584 -1.29895 -2.5 -0.663008 -2.5 0 
C -2.5 0.663008 -2.236584 1.29895 -1.767767 1.767767 
C -1.29895 2.236584 -0.663008 2.5 0 2.5 
z
" id="C7_0_4f18dba5b3"/>
    </defs>
    <g clip-path="url(#p82a62bf37d)">
     <use style="fill:#c44e52;fill-opacity:0.3;" x="402.001181" xlink:href="#C7_0_4f18dba5b3" y="132.783653"/>
    </g>
    <g clip-path="url(#p82a62bf37d)">
     <use style="fill:#c44e52;fill-opacity:0.3;" x="398.711524" xlink:href="#C7_0_4f18dba5b3" y="176.594813"/>
    </g>
    <g clip-path="url(#p82a62bf37d)">
     <use style="fill:#c44e52;fill-opacity:0.3;" x="401.586382" xlink:href="#C7_0_4f18dba5b3" y="158.155273"/>
    </g>
    <g clip-path="url(#p82a62bf37d)">
     <use style="fill:#c44e52;fill-opacity:0.3;" x="401.345518" xlink:href="#C7_0_4f18dba5b3" y="158.822143"/>
    </g>
    <g clip-path="url(#p82a62bf37d)">
     <use style="fill:#c44e52;fill-opacity:0.3;" x="399.53063" xlink:href="#C7_0_4f18dba5b3" y="158.117662"/>
    </g>
    <g clip-path="url(#p82a62bf37d)">
     <use style="fill:#c44e52;fill-opacity:0.3;" x="395.675533" xlink:href="#C7_0_4f18dba5b3" y="162.528958"/>
    </g>
    <g clip-path="url(#p82a62bf37d)">
     <use style="fill:#c44e52;fill-opacity:0.3;" x="402.052034" xlink:href="#C7_0_4f18dba5b3" y="159.242198"/>
    </g>
    <g clip-path="url(#p82a62bf37d)">
     <use style="fill:#c44e52;fill-opacity:0.3;" x="398.5514" xlink:href="#C7_0_4f18dba5b3" y="165.565561"/>
    </g>
    <g clip-path="url(#p82a62bf37d)">
     <use style="fill:#c44e52;fill-opacity:0.3;" x="401.789069" xlink:href="#C7_0_4f18dba5b3" y="161.904319"/>
    </g>
    <g clip-path="url(#p82a62bf37d)">
     <use style="fill:#c44e52;fill-opacity:0.3;" x="395.888919" xlink:href="#C7_0_4f18dba5b3" y="158.427541"/>
    </g>
    <g clip-path="url(#p82a62bf37d)">
     <use style="fill:#c44e52;fill-opacity:0.3;" x="397.779161" xlink:href="#C7_0_4f18dba5b3" y="168.182988"/>
    </g>
    <g clip-path="url(#p82a62bf37d)">
     <use style="fill:#c44e52;fill-opacity:0.3;" x="395.545818" xlink:href="#C7_0_4f18dba5b3" y="166.689722"/>
    </g>
    <g clip-path="url(#p82a62bf37d)">
     <use style="fill:#c44e52;fill-opacity:0.3;" x="394.789197" xlink:href="#C7_0_4f18dba5b3" y="164.138793"/>
    </g>
    <g clip-path="url(#p82a62bf37d)">
     <use style="fill:#c44e52;fill-opacity:0.3;" x="403.3112" xlink:href="#C7_0_4f18dba5b3" y="163.312719"/>
    </g>
    <g clip-path="url(#p82a62bf37d)">
     <use style="fill:#c44e52;fill-opacity:0.3;" x="395.087012" xlink:href="#C7_0_4f18dba5b3" y="162.02061"/>
    </g>
    <g clip-path="url(#p82a62bf37d)">
     <use style="fill:#c44e52;fill-opacity:0.3;" x="400.164278" xlink:href="#C7_0_4f18dba5b3" y="164.590595"/>
    </g>
    <g clip-path="url(#p82a62bf37d)">
     <use style="fill:#c44e52;fill-opacity:0.3;" x="398.562177" xlink:href="#C7_0_4f18dba5b3" y="164.705193"/>
    </g>
    <g clip-path="url(#p82a62bf37d)">
     <use style="fill:#c44e52;fill-opacity:0.3;" x="396.279941" xlink:href="#C7_0_4f18dba5b3" y="164.187953"/>
    </g>
    <g clip-path="url(#p82a62bf37d)">
     <use style="fill:#c44e52;fill-opacity:0.3;" x="397.17721" xlink:href="#C7_0_4f18dba5b3" y="161.818993"/>
    </g>
    <g clip-path="url(#p82a62bf37d)">
     <use style="fill:#c44e52;fill-opacity:0.3;" x="397.451449" xlink:href="#C7_0_4f18dba5b3" y="160.631735"/>
    </g>
    <g clip-path="url(#p82a62bf37d)">
     <use style="fill:#c44e52;fill-opacity:0.3;" x="396.90268" xlink:href="#C7_0_4f18dba5b3" y="161.328771"/>
    </g>
    <g clip-path="url(#p82a62bf37d)">
     <use style="fill:#c44e52;fill-opacity:0.3;" x="401.387921" xlink:href="#C7_0_4f18dba5b3" y="165.570371"/>
    </g>
    <g clip-path="url(#p82a62bf37d)">
     <use style="fill:#c44e52;fill-opacity:0.3;" x="403.04655" xlink:href="#C7_0_4f18dba5b3" y="168.451512"/>
    </g>
    <g clip-path="url(#p82a62bf37d)">
     <use style="fill:#c44e52;fill-opacity:0.3;" x="402.02221" xlink:href="#C7_0_4f18dba5b3" y="156.111232"/>
    </g>
    <g clip-path="url(#p82a62bf37d)">
     <use style="fill:#c44e52;fill-opacity:0.3;" x="401.663577" xlink:href="#C7_0_4f18dba5b3" y="163.551693"/>
    </g>
    <g clip-path="url(#p82a62bf37d)">
     <use style="fill:#c44e52;fill-opacity:0.3;" x="397.149029" xlink:href="#C7_0_4f18dba5b3" y="158.025429"/>
    </g>
    <g clip-path="url(#p82a62bf37d)">
     <use style="fill:#c44e52;fill-opacity:0.3;" x="397.174337" xlink:href="#C7_0_4f18dba5b3" y="163.835237"/>
    </g>
    <g clip-path="url(#p82a62bf37d)">
     <use style="fill:#c44e52;fill-opacity:0.3;" x="401.660973" xlink:href="#C7_0_4f18dba5b3" y="163.824439"/>
    </g>
    <g clip-path="url(#p82a62bf37d)">
     <use style="fill:#c44e52;fill-opacity:0.3;" x="402.605481" xlink:href="#C7_0_4f18dba5b3" y="160.135607"/>
    </g>
    <g clip-path="url(#p82a62bf37d)">
     <use style="fill:#c44e52;fill-opacity:0.3;" x="402.583436" xlink:href="#C7_0_4f18dba5b3" y="162.087456"/>
    </g>
    <g clip-path="url(#p82a62bf37d)">
     <use style="fill:#c44e52;fill-opacity:0.3;" x="400.779488" xlink:href="#C7_0_4f18dba5b3" y="165.917785"/>
    </g>
    <g clip-path="url(#p82a62bf37d)">
     <use style="fill:#c44e52;fill-opacity:0.3;" x="395.354664" xlink:href="#C7_0_4f18dba5b3" y="162.195943"/>
    </g>
    <g clip-path="url(#p82a62bf37d)">
     <use style="fill:#c44e52;fill-opacity:0.3;" x="401.18627" xlink:href="#C7_0_4f18dba5b3" y="162.821141"/>
    </g>
    <g clip-path="url(#p82a62bf37d)">
     <use style="fill:#c44e52;fill-opacity:0.3;" x="400.75637" xlink:href="#C7_0_4f18dba5b3" y="163.754222"/>
    </g>
    <g clip-path="url(#p82a62bf37d)">
     <use style="fill:#c44e52;fill-opacity:0.3;" x="398.30854" xlink:href="#C7_0_4f18dba5b3" y="165.187003"/>
    </g>
    <g clip-path="url(#p82a62bf37d)">
     <use style="fill:#c44e52;fill-opacity:0.3;" x="402.554931" xlink:href="#C7_0_4f18dba5b3" y="161.812342"/>
    </g>
    <g clip-path="url(#p82a62bf37d)">
     <use style="fill:#c44e52;fill-opacity:0.3;" x="394.395237" xlink:href="#C7_0_4f18dba5b3" y="160.748055"/>
    </g>
    <g clip-path="url(#p82a62bf37d)">
     <use style="fill:#c44e52;fill-opacity:0.3;" x="400.300829" xlink:href="#C7_0_4f18dba5b3" y="131.90617"/>
    </g>
    <g clip-path="url(#p82a62bf37d)">
     <use style="fill:#c44e52;fill-opacity:0.3;" x="399.887703" xlink:href="#C7_0_4f18dba5b3" y="175.29093"/>
    </g>
    <g clip-path="url(#p82a62bf37d)">
     <use style="fill:#c44e52;fill-opacity:0.3;" x="397.813238" xlink:href="#C7_0_4f18dba5b3" y="157.534525"/>
    </g>
    <g clip-path="url(#p82a62bf37d)">
     <use style="fill:#c44e52;fill-opacity:0.3;" x="403.121683" xlink:href="#C7_0_4f18dba5b3" y="162.831004"/>
    </g>
    <g clip-path="url(#p82a62bf37d)">
     <use style="fill:#c44e52;fill-opacity:0.3;" x="398.943629" xlink:href="#C7_0_4f18dba5b3" y="166.571522"/>
    </g>
    <g clip-path="url(#p82a62bf37d)">
     <use style="fill:#c44e52;fill-opacity:0.3;" x="400.815271" xlink:href="#C7_0_4f18dba5b3" y="158.543033"/>
    </g>
    <g clip-path="url(#p82a62bf37d)">
     <use style="fill:#c44e52;fill-opacity:0.3;" x="401.9049" xlink:href="#C7_0_4f18dba5b3" y="167.734977"/>
    </g>
    <g clip-path="url(#p82a62bf37d)">
     <use style="fill:#c44e52;fill-opacity:0.3;" x="403.106807" xlink:href="#C7_0_4f18dba5b3" y="163.061945"/>
    </g>
    <g clip-path="url(#p82a62bf37d)">
     <use style="fill:#c44e52;fill-opacity:0.3;" x="395.568895" xlink:href="#C7_0_4f18dba5b3" y="160.552429"/>
    </g>
    <g clip-path="url(#p82a62bf37d)">
     <use style="fill:#c44e52;fill-opacity:0.3;" x="396.883381" xlink:href="#C7_0_4f18dba5b3" y="161.617665"/>
    </g>
    <g clip-path="url(#p82a62bf37d)">
     <use style="fill:#c44e52;fill-opacity:0.3;" x="395.91554" xlink:href="#C7_0_4f18dba5b3" y="164.359941"/>
    </g>
    <g clip-path="url(#p82a62bf37d)">
     <use style="fill:#c44e52;fill-opacity:0.3;" x="394.786035" xlink:href="#C7_0_4f18dba5b3" y="164.10898"/>
    </g>
    <g clip-path="url(#p82a62bf37d)">
     <use style="fill:#c44e52;fill-opacity:0.3;" x="397.720273" xlink:href="#C7_0_4f18dba5b3" y="161.434048"/>
    </g>
    <g clip-path="url(#p82a62bf37d)">
     <use style="fill:#c44e52;fill-opacity:0.3;" x="400.936859" xlink:href="#C7_0_4f18dba5b3" y="163.68857"/>
    </g>
    <g clip-path="url(#p82a62bf37d)">
     <use style="fill:#c44e52;fill-opacity:0.3;" x="398.079665" xlink:href="#C7_0_4f18dba5b3" y="161.925936"/>
    </g>
   </g>
   <g id="PathCollection_17"/>
   <g id="PathCollection_18"/>
   <g id="PathCollection_19"/>
   <g id="PathCollection_20"/>
   <g id="PathCollection_21">
    <g clip-path="url(#p82a62bf37d)">
     <use style="fill:#001c7f;stroke:#001c7f;stroke-width:2.53125;" x="288.8452" xlink:href="#mbce7328a5b" y="190.158068"/>
    </g>
   </g>
   <g id="matplotlib.axis_3">
    <g id="text_13">
     <!-- X = HSQC-TOCSY ($f = 1$) -->
     <g transform="translate(276.781 269.52)scale(0.12 -0.12)">
      <defs>
       <path d="M 25.046875 68.265625 
Q 29.046875 72.75 37.84375 72.75 
Q 38.671875 72.75 39.546875 72.703125 
Q 40.4375 72.65625 41.5 72.5625 
L 39.796875 64.546875 
Q 38.484375 64.65625 37.859375 64.671875 
Q 37.25 64.703125 36.71875 64.703125 
Q 32.71875 64.703125 31.5 62.625 
Q 30.28125 60.546875 28.46875 52.046875 
L 37.15625 52.046875 
L 35.6875 45.125 
L 26.90625 45.125 
L 17.328125 0 
L 8.640625 0 
L 18.21875 45.125 
L 10.9375 45.125 
L 12.40625 52.046875 
L 19.671875 52.046875 
L 21.4375 60.25 
Q 22.796875 65.71875 25.046875 68.265625 
z
" id="Helvetica-Oblique-102"/>
      </defs>
      <use transform="translate(0 0.3125)" xlink:href="#Helvetica-88"/>
      <use transform="translate(66.699219 0.3125)" xlink:href="#Helvetica-32"/>
      <use transform="translate(94.482422 0.3125)" xlink:href="#Helvetica-61"/>
      <use transform="translate(152.880859 0.3125)" xlink:href="#Helvetica-32"/>
      <use transform="translate(180.664062 0.3125)" xlink:href="#Helvetica-72"/>
      <use transform="translate(252.880859 0.3125)" xlink:href="#Helvetica-83"/>
      <use transform="translate(319.580078 0.3125)" xlink:href="#Helvetica-81"/>
      <use transform="translate(397.363281 0.3125)" xlink:href="#Helvetica-67"/>
      <use transform="translate(469.580078 0.3125)" xlink:href="#Helvetica-45"/>
      <use transform="translate(502.880859 0.3125)" xlink:href="#Helvetica-84"/>
      <use transform="translate(563.964844 0.3125)" xlink:href="#Helvetica-79"/>
      <use transform="translate(641.748047 0.3125)" xlink:href="#Helvetica-67"/>
      <use transform="translate(713.964844 0.3125)" xlink:href="#Helvetica-83"/>
      <use transform="translate(780.664062 0.3125)" xlink:href="#Helvetica-89"/>
      <use transform="translate(847.363281 0.3125)" xlink:href="#Helvetica-32"/>
      <use transform="translate(875.146484 0.3125)" xlink:href="#Helvetica-40"/>
      <use transform="translate(908.447266 0.3125)" xlink:href="#Helvetica-Oblique-102"/>
      <use transform="translate(952.890625 0.3125)" xlink:href="#Helvetica-61"/>
      <use transform="translate(1027.949219 0.3125)" xlink:href="#Helvetica-49"/>
      <use transform="translate(1083.564453 0.3125)" xlink:href="#Helvetica-41"/>
     </g>
    </g>
   </g>
   <g id="PathCollection_22">
    <g clip-path="url(#p82a62bf37d)">
     <use style="fill:#b1400d;stroke:#b1400d;stroke-width:2.53125;" x="325.4824" xlink:href="#m89649be158" y="200.684926"/>
    </g>
   </g>
   <g id="line2d_7">
    <path clip-path="url(#p82a62bf37d)" d="M 252.208 151.573037 
L 435.394 151.573037 
" style="fill:none;stroke:#808080;stroke-dasharray:1.85,0.8;stroke-dashoffset:0;stroke-width:0.5;"/>
   </g>
   <g id="patch_8">
    <path d="M 252.208 256.64 
L 252.208 38.424 
" style="fill:none;stroke:#000000;stroke-linecap:square;stroke-linejoin:miter;stroke-width:1.3;"/>
   </g>
   <g id="patch_9">
    <path d="M 435.394 256.64 
L 435.394 38.424 
" style="fill:none;stroke:#000000;stroke-linecap:square;stroke-linejoin:miter;stroke-width:1.3;"/>
   </g>
   <g id="patch_10">
    <path d="M 252.208 256.64 
L 435.394 256.64 
" style="fill:none;stroke:#000000;stroke-linecap:square;stroke-linejoin:miter;stroke-width:1.3;"/>
   </g>
   <g id="patch_11">
    <path d="M 252.208 38.424 
L 435.394 38.424 
" style="fill:none;stroke:#000000;stroke-linecap:square;stroke-linejoin:miter;stroke-width:1.3;"/>
   </g>
   <g id="PathCollection_23">
    <g clip-path="url(#p82a62bf37d)">
     <use style="fill:#12711c;stroke:#12711c;stroke-width:2.53125;" x="362.1196" xlink:href="#m6ea814b6ea" y="212.951066"/>
    </g>
   </g>
   <g id="text_14">
    <!-- (0.52) -->
    <g style="fill:#4c72b0;" transform="translate(273.173012 252.27568)scale(0.12 -0.12)">
     <use xlink:href="#Helvetica-40"/>
     <use x="33.300781" xlink:href="#Helvetica-48"/>
     <use x="88.916016" xlink:href="#Helvetica-46"/>
     <use x="116.699219" xlink:href="#Helvetica-53"/>
     <use x="172.314453" xlink:href="#Helvetica-50"/>
     <use x="227.929688" xlink:href="#Helvetica-41"/>
    </g>
   </g>
   <g id="text_15">
    <!-- (0.39) -->
    <g style="fill:#dd8452;" transform="translate(309.810212 252.27568)scale(0.12 -0.12)">
     <defs>
      <path d="M 13.28125 16.890625 
Q 13.671875 9.625 18.890625 6.84375 
Q 21.578125 5.375 24.953125 5.375 
Q 31.25 5.375 35.6875 10.625 
Q 40.140625 15.875 42 31.9375 
Q 39.0625 27.296875 34.734375 25.40625 
Q 30.421875 23.53125 25.4375 23.53125 
Q 15.328125 23.53125 9.4375 29.828125 
Q 3.5625 36.140625 3.5625 46.046875 
Q 3.5625 55.5625 9.375 62.78125 
Q 15.1875 70.015625 26.515625 70.015625 
Q 41.796875 70.015625 47.609375 56.25 
Q 50.828125 48.6875 50.828125 37.3125 
Q 50.828125 24.46875 46.96875 14.546875 
Q 40.578125 -1.953125 25.296875 -1.953125 
Q 15.046875 -1.953125 9.71875 3.421875 
Q 4.390625 8.796875 4.390625 16.890625 
z
M 26.609375 31.25 
Q 31.84375 31.25 36.15625 34.6875 
Q 40.484375 38.140625 40.484375 46.734375 
Q 40.484375 54.4375 36.59375 58.21875 
Q 32.71875 62.015625 26.703125 62.015625 
Q 20.265625 62.015625 16.484375 57.6875 
Q 12.703125 53.375 12.703125 46.140625 
Q 12.703125 39.3125 16.015625 35.28125 
Q 19.34375 31.25 26.609375 31.25 
z
" id="Helvetica-57"/>
     </defs>
     <use xlink:href="#Helvetica-40"/>
     <use x="33.300781" xlink:href="#Helvetica-48"/>
     <use x="88.916016" xlink:href="#Helvetica-46"/>
     <use x="116.699219" xlink:href="#Helvetica-51"/>
     <use x="172.314453" xlink:href="#Helvetica-57"/>
     <use x="227.929688" xlink:href="#Helvetica-41"/>
    </g>
   </g>
   <g id="text_16">
    <!-- (0.24) -->
    <g style="fill:#55a868;" transform="translate(346.447412 252.27568)scale(0.12 -0.12)">
     <defs>
      <path d="M 33.0625 24.75 
L 33.0625 56.453125 
L 10.640625 24.75 
z
M 33.203125 0 
L 33.203125 17.09375 
L 2.546875 17.09375 
L 2.546875 25.6875 
L 34.578125 70.125 
L 42 70.125 
L 42 24.75 
L 52.296875 24.75 
L 52.296875 17.09375 
L 42 17.09375 
L 42 0 
z
" id="Helvetica-52"/>
     </defs>
     <use xlink:href="#Helvetica-40"/>
     <use x="33.300781" xlink:href="#Helvetica-48"/>
     <use x="88.916016" xlink:href="#Helvetica-46"/>
     <use x="116.699219" xlink:href="#Helvetica-50"/>
     <use x="172.314453" xlink:href="#Helvetica-52"/>
     <use x="227.929688" xlink:href="#Helvetica-41"/>
    </g>
   </g>
   <g id="text_17">
    <!-- (0.87) -->
    <g style="fill:#c44e52;" transform="translate(383.084612 252.27568)scale(0.12 -0.12)">
     <defs>
      <path d="M 52.296875 68.75 
L 52.296875 61.078125 
Q 48.921875 57.8125 43.328125 49.703125 
Q 37.75 41.609375 33.453125 32.234375 
Q 29.203125 23.09375 27 15.578125 
Q 25.59375 10.75 23.34375 0 
L 13.625 0 
Q 16.9375 20.015625 28.265625 39.84375 
Q 34.96875 51.46875 42.328125 59.90625 
L 3.65625 59.90625 
L 3.65625 68.75 
z
" id="Helvetica-55"/>
     </defs>
     <use xlink:href="#Helvetica-40"/>
     <use x="33.300781" xlink:href="#Helvetica-48"/>
     <use x="88.916016" xlink:href="#Helvetica-46"/>
     <use x="116.699219" xlink:href="#Helvetica-56"/>
     <use x="172.314453" xlink:href="#Helvetica-55"/>
     <use x="227.929688" xlink:href="#Helvetica-41"/>
    </g>
   </g>
   <g id="text_18">
    <!-- (b) -->
    <g transform="translate(255.87172 52.918633)scale(0.14 -0.14)">
     <defs>
      <path d="M 35.25 54.390625 
Q 45.75 54.390625 51.6875 46.828125 
Q 57.625 39.265625 57.625 27.296875 
Q 57.625 14.890625 51.765625 6.734375 
Q 45.90625 -1.421875 35.40625 -1.421875 
Q 28.8125 -1.421875 24.8125 1.21875 
Q 22.40625 2.78125 19.625 6.6875 
L 19.625 0 
L 6 0 
L 6 71.875 
L 19.875 71.875 
L 19.875 46.296875 
Q 22.515625 50 25.6875 51.953125 
Q 29.4375 54.390625 35.25 54.390625 
z
M 31.6875 10.0625 
Q 37.0625 10.0625 40.03125 14.40625 
Q 43.015625 18.75 43.015625 25.828125 
Q 43.015625 31.5 41.546875 35.203125 
Q 38.765625 42.234375 31.296875 42.234375 
Q 23.734375 42.234375 20.90625 35.359375 
Q 19.4375 31.6875 19.4375 25.875 
Q 19.4375 19.046875 22.453125 14.546875 
Q 25.484375 10.0625 31.6875 10.0625 
z
" id="Helvetica-Bold-98"/>
     </defs>
     <use xlink:href="#Helvetica-Bold-40"/>
     <use x="33.300781" xlink:href="#Helvetica-Bold-98"/>
     <use x="94.384766" xlink:href="#Helvetica-Bold-41"/>
    </g>
   </g>
   <g id="PathCollection_24">
    <g clip-path="url(#p82a62bf37d)">
     <use style="fill:#8c0800;stroke:#8c0800;stroke-width:2.53125;" x="398.7568" xlink:href="#me19aae4896" y="161.902718"/>
    </g>
   </g>
  </g>
  <g id="axes_3">
   <g id="patch_12">
    <path d="M 451.854 256.64 
L 635.04 256.64 
L 635.04 38.424 
L 451.854 38.424 
z
" style="fill:#ffffff;"/>
   </g>
   <g id="PathCollection_25">
    <defs>
     <path d="M 0 2.5 
C 0.663008 2.5 1.29895 2.236584 1.767767 1.767767 
C 2.236584 1.29895 2.5 0.663008 2.5 -0 
C 2.5 -0.663008 2.236584 -1.29895 1.767767 -1.767767 
C 1.29895 -2.236584 0.663008 -2.5 0 -2.5 
C -0.663008 -2.5 -1.29895 -2.236584 -1.767767 -1.767767 
C -2.236584 -1.29895 -2.5 -0.663008 -2.5 0 
C -2.5 0.663008 -2.236584 1.29895 -1.767767 1.767767 
C -1.29895 2.236584 -0.663008 2.5 0 2.5 
z
" id="C8_0_de037ad39c"/>
    </defs>
    <g clip-path="url(#pa5df7624b7)">
     <use style="fill:#4c72b0;fill-opacity:0.3;" x="488.876848" xlink:href="#C8_0_de037ad39c" y="180.981963"/>
    </g>
    <g clip-path="url(#pa5df7624b7)">
     <use style="fill:#4c72b0;fill-opacity:0.3;" x="491.920197" xlink:href="#C8_0_de037ad39c" y="189.791186"/>
    </g>
    <g clip-path="url(#pa5df7624b7)">
     <use style="fill:#4c72b0;fill-opacity:0.3;" x="485.745363" xlink:href="#C8_0_de037ad39c" y="176.104902"/>
    </g>
    <g clip-path="url(#pa5df7624b7)">
     <use style="fill:#4c72b0;fill-opacity:0.3;" x="491.374851" xlink:href="#C8_0_de037ad39c" y="174.212"/>
    </g>
    <g clip-path="url(#pa5df7624b7)">
     <use style="fill:#4c72b0;fill-opacity:0.3;" x="490.022572" xlink:href="#C8_0_de037ad39c" y="174.478233"/>
    </g>
   </g>
   <g id="PathCollection_26">
    <defs>
     <path d="M 0 2.5 
C 0.663008 2.5 1.29895 2.236584 1.767767 1.767767 
C 2.236584 1.29895 2.5 0.663008 2.5 -0 
C 2.5 -0.663008 2.236584 -1.29895 1.767767 -1.767767 
C 1.29895 -2.236584 0.663008 -2.5 0 -2.5 
C -0.663008 -2.5 -1.29895 -2.236584 -1.767767 -1.767767 
C -2.236584 -1.29895 -2.5 -0.663008 -2.5 0 
C -2.5 0.663008 -2.236584 1.29895 -1.767767 1.767767 
C -1.29895 2.236584 -0.663008 2.5 0 2.5 
z
" id="C9_0_18f80783de"/>
    </defs>
    <g clip-path="url(#pa5df7624b7)">
     <use style="fill:#dd8452;fill-opacity:0.3;" x="521.064679" xlink:href="#C9_0_18f80783de" y="194.9321"/>
    </g>
    <g clip-path="url(#pa5df7624b7)">
     <use style="fill:#dd8452;fill-opacity:0.3;" x="529.42845" xlink:href="#C9_0_18f80783de" y="193.092186"/>
    </g>
    <g clip-path="url(#pa5df7624b7)">
     <use style="fill:#dd8452;fill-opacity:0.3;" x="523.083333" xlink:href="#C9_0_18f80783de" y="195.62197"/>
    </g>
    <g clip-path="url(#pa5df7624b7)">
     <use style="fill:#dd8452;fill-opacity:0.3;" x="525.278144" xlink:href="#C9_0_18f80783de" y="197.040066"/>
    </g>
    <g clip-path="url(#pa5df7624b7)">
     <use style="fill:#dd8452;fill-opacity:0.3;" x="525.210767" xlink:href="#C9_0_18f80783de" y="192.081533"/>
    </g>
    <g clip-path="url(#pa5df7624b7)">
     <use style="fill:#dd8452;fill-opacity:0.3;" x="528.328716" xlink:href="#C9_0_18f80783de" y="192.002796"/>
    </g>
    <g clip-path="url(#pa5df7624b7)">
     <use style="fill:#dd8452;fill-opacity:0.3;" x="524.318891" xlink:href="#C9_0_18f80783de" y="180.222211"/>
    </g>
    <g clip-path="url(#pa5df7624b7)">
     <use style="fill:#dd8452;fill-opacity:0.3;" x="529.347262" xlink:href="#C9_0_18f80783de" y="179.767773"/>
    </g>
    <g clip-path="url(#pa5df7624b7)">
     <use style="fill:#dd8452;fill-opacity:0.3;" x="522.868023" xlink:href="#C9_0_18f80783de" y="175.901516"/>
    </g>
    <g clip-path="url(#pa5df7624b7)">
     <use style="fill:#dd8452;fill-opacity:0.3;" x="524.339499" xlink:href="#C9_0_18f80783de" y="181.494377"/>
    </g>
    <g clip-path="url(#pa5df7624b7)">
     <use style="fill:#dd8452;fill-opacity:0.3;" x="523.372487" xlink:href="#C9_0_18f80783de" y="176.474559"/>
    </g>
    <g clip-path="url(#pa5df7624b7)">
     <use style="fill:#dd8452;fill-opacity:0.3;" x="521.403773" xlink:href="#C9_0_18f80783de" y="182.659272"/>
    </g>
    <g clip-path="url(#pa5df7624b7)">
     <use style="fill:#dd8452;fill-opacity:0.3;" x="522.087101" xlink:href="#C9_0_18f80783de" y="180.982176"/>
    </g>
    <g clip-path="url(#pa5df7624b7)">
     <use style="fill:#dd8452;fill-opacity:0.3;" x="529.191156" xlink:href="#C9_0_18f80783de" y="176.569789"/>
    </g>
   </g>
   <g id="PathCollection_27">
    <defs>
     <path d="M 0 2.5 
C 0.663008 2.5 1.29895 2.236584 1.767767 1.767767 
C 2.236584 1.29895 2.5 0.663008 2.5 -0 
C 2.5 -0.663008 2.236584 -1.29895 1.767767 -1.767767 
C 1.29895 -2.236584 0.663008 -2.5 0 -2.5 
C -0.663008 -2.5 -1.29895 -2.236584 -1.767767 -1.767767 
C -2.236584 -1.29895 -2.5 -0.663008 -2.5 0 
C -2.5 0.663008 -2.236584 1.29895 -1.767767 1.767767 
C -1.29895 2.236584 -0.663008 2.5 0 2.5 
z
" id="Ca_0_a1b38adb92"/>
    </defs>
    <g clip-path="url(#pa5df7624b7)">
     <use style="fill:#55a868;fill-opacity:0.3;" x="559.60072" xlink:href="#Ca_0_a1b38adb92" y="192.391045"/>
    </g>
    <g clip-path="url(#pa5df7624b7)">
     <use style="fill:#55a868;fill-opacity:0.3;" x="560.970985" xlink:href="#Ca_0_a1b38adb92" y="189.959204"/>
    </g>
   </g>
   <g id="PathCollection_28">
    <defs>
     <path d="M 0 2.5 
C 0.663008 2.5 1.29895 2.236584 1.767767 1.767767 
C 2.236584 1.29895 2.5 0.663008 2.5 -0 
C 2.5 -0.663008 2.236584 -1.29895 1.767767 -1.767767 
C 1.29895 -2.236584 0.663008 -2.5 0 -2.5 
C -0.663008 -2.5 -1.29895 -2.236584 -1.767767 -1.767767 
C -2.236584 -1.29895 -2.5 -0.663008 -2.5 0 
C -2.5 0.663008 -2.236584 1.29895 -1.767767 1.767767 
C -1.29895 2.236584 -0.663008 2.5 0 2.5 
z
" id="Cb_0_e844a0e8d9"/>
    </defs>
    <g clip-path="url(#pa5df7624b7)">
     <use style="fill:#c44e52;fill-opacity:0.3;" x="594.220429" xlink:href="#Cb_0_e844a0e8d9" y="130.461564"/>
    </g>
    <g clip-path="url(#pa5df7624b7)">
     <use style="fill:#c44e52;fill-opacity:0.3;" x="597.120022" xlink:href="#Cb_0_e844a0e8d9" y="174.416528"/>
    </g>
    <g clip-path="url(#pa5df7624b7)">
     <use style="fill:#c44e52;fill-opacity:0.3;" x="597.102998" xlink:href="#Cb_0_e844a0e8d9" y="157.854894"/>
    </g>
    <g clip-path="url(#pa5df7624b7)">
     <use style="fill:#c44e52;fill-opacity:0.3;" x="601.353172" xlink:href="#Cb_0_e844a0e8d9" y="158.121873"/>
    </g>
    <g clip-path="url(#pa5df7624b7)">
     <use style="fill:#c44e52;fill-opacity:0.3;" x="594.055471" xlink:href="#Cb_0_e844a0e8d9" y="158.265918"/>
    </g>
    <g clip-path="url(#pa5df7624b7)">
     <use style="fill:#c44e52;fill-opacity:0.3;" x="601.494951" xlink:href="#Cb_0_e844a0e8d9" y="162.144094"/>
    </g>
    <g clip-path="url(#pa5df7624b7)">
     <use style="fill:#c44e52;fill-opacity:0.3;" x="595.199013" xlink:href="#Cb_0_e844a0e8d9" y="159.469098"/>
    </g>
    <g clip-path="url(#pa5df7624b7)">
     <use style="fill:#c44e52;fill-opacity:0.3;" x="595.930737" xlink:href="#Cb_0_e844a0e8d9" y="164.219428"/>
    </g>
    <g clip-path="url(#pa5df7624b7)">
     <use style="fill:#c44e52;fill-opacity:0.3;" x="602.779328" xlink:href="#Cb_0_e844a0e8d9" y="162.664607"/>
    </g>
    <g clip-path="url(#pa5df7624b7)">
     <use style="fill:#c44e52;fill-opacity:0.3;" x="594.49028" xlink:href="#Cb_0_e844a0e8d9" y="157.89088"/>
    </g>
    <g clip-path="url(#pa5df7624b7)">
     <use style="fill:#c44e52;fill-opacity:0.3;" x="601.756669" xlink:href="#Cb_0_e844a0e8d9" y="167.482067"/>
    </g>
    <g clip-path="url(#pa5df7624b7)">
     <use style="fill:#c44e52;fill-opacity:0.3;" x="598.794558" xlink:href="#Cb_0_e844a0e8d9" y="165.404849"/>
    </g>
    <g clip-path="url(#pa5df7624b7)">
     <use style="fill:#c44e52;fill-opacity:0.3;" x="598.109517" xlink:href="#Cb_0_e844a0e8d9" y="163.656215"/>
    </g>
    <g clip-path="url(#pa5df7624b7)">
     <use style="fill:#c44e52;fill-opacity:0.3;" x="594.708392" xlink:href="#Cb_0_e844a0e8d9" y="163.433831"/>
    </g>
    <g clip-path="url(#pa5df7624b7)">
     <use style="fill:#c44e52;fill-opacity:0.3;" x="596.371777" xlink:href="#Cb_0_e844a0e8d9" y="158.683765"/>
    </g>
    <g clip-path="url(#pa5df7624b7)">
     <use style="fill:#c44e52;fill-opacity:0.3;" x="600.508744" xlink:href="#Cb_0_e844a0e8d9" y="163.682777"/>
    </g>
    <g clip-path="url(#pa5df7624b7)">
     <use style="fill:#c44e52;fill-opacity:0.3;" x="593.908434" xlink:href="#Cb_0_e844a0e8d9" y="163.982406"/>
    </g>
    <g clip-path="url(#pa5df7624b7)">
     <use style="fill:#c44e52;fill-opacity:0.3;" x="601.995588" xlink:href="#Cb_0_e844a0e8d9" y="163.747654"/>
    </g>
    <g clip-path="url(#pa5df7624b7)">
     <use style="fill:#c44e52;fill-opacity:0.3;" x="597.857842" xlink:href="#Cb_0_e844a0e8d9" y="161.112486"/>
    </g>
    <g clip-path="url(#pa5df7624b7)">
     <use style="fill:#c44e52;fill-opacity:0.3;" x="595.745319" xlink:href="#Cb_0_e844a0e8d9" y="160.834722"/>
    </g>
    <g clip-path="url(#pa5df7624b7)">
     <use style="fill:#c44e52;fill-opacity:0.3;" x="594.875812" xlink:href="#Cb_0_e844a0e8d9" y="161.216117"/>
    </g>
    <g clip-path="url(#pa5df7624b7)">
     <use style="fill:#c44e52;fill-opacity:0.3;" x="593.918357" xlink:href="#Cb_0_e844a0e8d9" y="162.78148"/>
    </g>
    <g clip-path="url(#pa5df7624b7)">
     <use style="fill:#c44e52;fill-opacity:0.3;" x="599.742567" xlink:href="#Cb_0_e844a0e8d9" y="165.296567"/>
    </g>
    <g clip-path="url(#pa5df7624b7)">
     <use style="fill:#c44e52;fill-opacity:0.3;" x="600.870267" xlink:href="#Cb_0_e844a0e8d9" y="157.053557"/>
    </g>
    <g clip-path="url(#pa5df7624b7)">
     <use style="fill:#c44e52;fill-opacity:0.3;" x="599.044857" xlink:href="#Cb_0_e844a0e8d9" y="162.998194"/>
    </g>
    <g clip-path="url(#pa5df7624b7)">
     <use style="fill:#c44e52;fill-opacity:0.3;" x="594.847343" xlink:href="#Cb_0_e844a0e8d9" y="158.06178"/>
    </g>
    <g clip-path="url(#pa5df7624b7)">
     <use style="fill:#c44e52;fill-opacity:0.3;" x="600.992456" xlink:href="#Cb_0_e844a0e8d9" y="164.182586"/>
    </g>
    <g clip-path="url(#pa5df7624b7)">
     <use style="fill:#c44e52;fill-opacity:0.3;" x="600.42687" xlink:href="#Cb_0_e844a0e8d9" y="162.912951"/>
    </g>
    <g clip-path="url(#pa5df7624b7)">
     <use style="fill:#c44e52;fill-opacity:0.3;" x="594.087035" xlink:href="#Cb_0_e844a0e8d9" y="157.170892"/>
    </g>
    <g clip-path="url(#pa5df7624b7)">
     <use style="fill:#c44e52;fill-opacity:0.3;" x="599.465551" xlink:href="#Cb_0_e844a0e8d9" y="162.732027"/>
    </g>
    <g clip-path="url(#pa5df7624b7)">
     <use style="fill:#c44e52;fill-opacity:0.3;" x="599.404351" xlink:href="#Cb_0_e844a0e8d9" y="163.319933"/>
    </g>
    <g clip-path="url(#pa5df7624b7)">
     <use style="fill:#c44e52;fill-opacity:0.3;" x="596.465247" xlink:href="#Cb_0_e844a0e8d9" y="161.561196"/>
    </g>
    <g clip-path="url(#pa5df7624b7)">
     <use style="fill:#c44e52;fill-opacity:0.3;" x="602.711779" xlink:href="#Cb_0_e844a0e8d9" y="162.832756"/>
    </g>
    <g clip-path="url(#pa5df7624b7)">
     <use style="fill:#c44e52;fill-opacity:0.3;" x="597.221984" xlink:href="#Cb_0_e844a0e8d9" y="163.646282"/>
    </g>
    <g clip-path="url(#pa5df7624b7)">
     <use style="fill:#c44e52;fill-opacity:0.3;" x="598.307239" xlink:href="#Cb_0_e844a0e8d9" y="162.994904"/>
    </g>
    <g clip-path="url(#pa5df7624b7)">
     <use style="fill:#c44e52;fill-opacity:0.3;" x="601.822597" xlink:href="#Cb_0_e844a0e8d9" y="161.735311"/>
    </g>
    <g clip-path="url(#pa5df7624b7)">
     <use style="fill:#c44e52;fill-opacity:0.3;" x="597.104861" xlink:href="#Cb_0_e844a0e8d9" y="155.594005"/>
    </g>
    <g clip-path="url(#pa5df7624b7)">
     <use style="fill:#c44e52;fill-opacity:0.3;" x="594.556515" xlink:href="#Cb_0_e844a0e8d9" y="131.016717"/>
    </g>
    <g clip-path="url(#pa5df7624b7)">
     <use style="fill:#c44e52;fill-opacity:0.3;" x="602.004546" xlink:href="#Cb_0_e844a0e8d9" y="182.157469"/>
    </g>
    <g clip-path="url(#pa5df7624b7)">
     <use style="fill:#c44e52;fill-opacity:0.3;" x="597.039597" xlink:href="#Cb_0_e844a0e8d9" y="155.579044"/>
    </g>
    <g clip-path="url(#pa5df7624b7)">
     <use style="fill:#c44e52;fill-opacity:0.3;" x="597.032241" xlink:href="#Cb_0_e844a0e8d9" y="161.211556"/>
    </g>
    <g clip-path="url(#pa5df7624b7)">
     <use style="fill:#c44e52;fill-opacity:0.3;" x="596.395073" xlink:href="#Cb_0_e844a0e8d9" y="164.884319"/>
    </g>
    <g clip-path="url(#pa5df7624b7)">
     <use style="fill:#c44e52;fill-opacity:0.3;" x="596.827544" xlink:href="#Cb_0_e844a0e8d9" y="158.335485"/>
    </g>
    <g clip-path="url(#pa5df7624b7)">
     <use style="fill:#c44e52;fill-opacity:0.3;" x="601.45151" xlink:href="#Cb_0_e844a0e8d9" y="167.816928"/>
    </g>
    <g clip-path="url(#pa5df7624b7)">
     <use style="fill:#c44e52;fill-opacity:0.3;" x="594.986816" xlink:href="#Cb_0_e844a0e8d9" y="162.86883"/>
    </g>
    <g clip-path="url(#pa5df7624b7)">
     <use style="fill:#c44e52;fill-opacity:0.3;" x="596.11205" xlink:href="#Cb_0_e844a0e8d9" y="160.29919"/>
    </g>
    <g clip-path="url(#pa5df7624b7)">
     <use style="fill:#c44e52;fill-opacity:0.3;" x="596.907592" xlink:href="#Cb_0_e844a0e8d9" y="161.144044"/>
    </g>
    <g clip-path="url(#pa5df7624b7)">
     <use style="fill:#c44e52;fill-opacity:0.3;" x="595.781373" xlink:href="#Cb_0_e844a0e8d9" y="162.194969"/>
    </g>
    <g clip-path="url(#pa5df7624b7)">
     <use style="fill:#c44e52;fill-opacity:0.3;" x="599.599593" xlink:href="#Cb_0_e844a0e8d9" y="163.577171"/>
    </g>
    <g clip-path="url(#pa5df7624b7)">
     <use style="fill:#c44e52;fill-opacity:0.3;" x="599.472481" xlink:href="#Cb_0_e844a0e8d9" y="159.886616"/>
    </g>
    <g clip-path="url(#pa5df7624b7)">
     <use style="fill:#c44e52;fill-opacity:0.3;" x="602.868783" xlink:href="#Cb_0_e844a0e8d9" y="164.315748"/>
    </g>
    <g clip-path="url(#pa5df7624b7)">
     <use style="fill:#c44e52;fill-opacity:0.3;" x="600.84497" xlink:href="#Cb_0_e844a0e8d9" y="158.915185"/>
    </g>
   </g>
   <g id="PathCollection_29"/>
   <g id="PathCollection_30"/>
   <g id="PathCollection_31"/>
   <g id="PathCollection_32"/>
   <g id="PathCollection_33">
    <g clip-path="url(#pa5df7624b7)">
     <use style="fill:#001c7f;stroke:#001c7f;stroke-width:2.53125;" x="488.4912" xlink:href="#mbce7328a5b" y="179.113657"/>
    </g>
   </g>
   <g id="matplotlib.axis_4">
    <g id="text_19">
     <!-- X = HSQC-TOCSY ($f = 0.9$) -->
     <g transform="translate(471.387 269.52)scale(0.12 -0.12)">
      <use transform="translate(0 0.3125)" xlink:href="#Helvetica-88"/>
      <use transform="translate(66.699219 0.3125)" xlink:href="#Helvetica-32"/>
      <use transform="translate(94.482422 0.3125)" xlink:href="#Helvetica-61"/>
      <use transform="translate(152.880859 0.3125)" xlink:href="#Helvetica-32"/>
      <use transform="translate(180.664062 0.3125)" xlink:href="#Helvetica-72"/>
      <use transform="translate(252.880859 0.3125)" xlink:href="#Helvetica-83"/>
      <use transform="translate(319.580078 0.3125)" xlink:href="#Helvetica-81"/>
      <use transform="translate(397.363281 0.3125)" xlink:href="#Helvetica-67"/>
      <use transform="translate(469.580078 0.3125)" xlink:href="#Helvetica-45"/>
      <use transform="translate(502.880859 0.3125)" xlink:href="#Helvetica-84"/>
      <use transform="translate(563.964844 0.3125)" xlink:href="#Helvetica-79"/>
      <use transform="translate(641.748047 0.3125)" xlink:href="#Helvetica-67"/>
      <use transform="translate(713.964844 0.3125)" xlink:href="#Helvetica-83"/>
      <use transform="translate(780.664062 0.3125)" xlink:href="#Helvetica-89"/>
      <use transform="translate(847.363281 0.3125)" xlink:href="#Helvetica-32"/>
      <use transform="translate(875.146484 0.3125)" xlink:href="#Helvetica-40"/>
      <use transform="translate(908.447266 0.3125)" xlink:href="#Helvetica-Oblique-102"/>
      <use transform="translate(952.890625 0.3125)" xlink:href="#Helvetica-61"/>
      <use transform="translate(1027.949219 0.3125)" xlink:href="#Helvetica-48"/>
      <use transform="translate(1083.564453 0.3125)" xlink:href="#Helvetica-46"/>
      <use transform="translate(1111.347656 0.3125)" xlink:href="#Helvetica-57"/>
      <use transform="translate(1166.962891 0.3125)" xlink:href="#Helvetica-41"/>
     </g>
    </g>
   </g>
   <g id="PathCollection_34">
    <g clip-path="url(#pa5df7624b7)">
     <use style="fill:#b1400d;stroke:#b1400d;stroke-width:2.53125;" x="525.1284" xlink:href="#m89649be158" y="185.631595"/>
    </g>
   </g>
   <g id="line2d_8">
    <path clip-path="url(#pa5df7624b7)" d="M 451.854 151.573037 
L 635.04 151.573037 
" style="fill:none;stroke:#808080;stroke-dasharray:1.85,0.8;stroke-dashoffset:0;stroke-width:0.5;"/>
   </g>
   <g id="patch_13">
    <path d="M 451.854 256.64 
L 451.854 38.424 
" style="fill:none;stroke:#000000;stroke-linecap:square;stroke-linejoin:miter;stroke-width:1.3;"/>
   </g>
   <g id="patch_14">
    <path d="M 635.04 256.64 
L 635.04 38.424 
" style="fill:none;stroke:#000000;stroke-linecap:square;stroke-linejoin:miter;stroke-width:1.3;"/>
   </g>
   <g id="patch_15">
    <path d="M 451.854 256.64 
L 635.04 256.64 
" style="fill:none;stroke:#000000;stroke-linecap:square;stroke-linejoin:miter;stroke-width:1.3;"/>
   </g>
   <g id="patch_16">
    <path d="M 451.854 38.424 
L 635.04 38.424 
" style="fill:none;stroke:#000000;stroke-linecap:square;stroke-linejoin:miter;stroke-width:1.3;"/>
   </g>
   <g id="PathCollection_35">
    <g clip-path="url(#pa5df7624b7)">
     <use style="fill:#12711c;stroke:#12711c;stroke-width:2.53125;" x="561.7656" xlink:href="#m6ea814b6ea" y="191.175125"/>
    </g>
   </g>
   <g id="text_20">
    <!-- (0.66) -->
    <g style="fill:#4c72b0;" transform="translate(472.819012 252.27568)scale(0.12 -0.12)">
     <use xlink:href="#Helvetica-40"/>
     <use x="33.300781" xlink:href="#Helvetica-48"/>
     <use x="88.916016" xlink:href="#Helvetica-46"/>
     <use x="116.699219" xlink:href="#Helvetica-54"/>
     <use x="172.314453" xlink:href="#Helvetica-54"/>
     <use x="227.929688" xlink:href="#Helvetica-41"/>
    </g>
   </g>
   <g id="text_21">
    <!-- (0.58) -->
    <g style="fill:#dd8452;" transform="translate(509.456213 252.27568)scale(0.12 -0.12)">
     <use xlink:href="#Helvetica-40"/>
     <use x="33.300781" xlink:href="#Helvetica-48"/>
     <use x="88.916016" xlink:href="#Helvetica-46"/>
     <use x="116.699219" xlink:href="#Helvetica-53"/>
     <use x="172.314453" xlink:href="#Helvetica-56"/>
     <use x="227.929688" xlink:href="#Helvetica-41"/>
    </g>
   </g>
   <g id="text_22">
    <!-- (0.51) -->
    <g style="fill:#55a868;" transform="translate(546.093412 252.27568)scale(0.12 -0.12)">
     <use xlink:href="#Helvetica-40"/>
     <use x="33.300781" xlink:href="#Helvetica-48"/>
     <use x="88.916016" xlink:href="#Helvetica-46"/>
     <use x="116.699219" xlink:href="#Helvetica-53"/>
     <use x="172.314453" xlink:href="#Helvetica-49"/>
     <use x="227.929688" xlink:href="#Helvetica-41"/>
    </g>
   </g>
   <g id="text_23">
    <!-- (0.88) -->
    <g style="fill:#c44e52;" transform="translate(582.730613 252.27568)scale(0.12 -0.12)">
     <use xlink:href="#Helvetica-40"/>
     <use x="33.300781" xlink:href="#Helvetica-48"/>
     <use x="88.916016" xlink:href="#Helvetica-46"/>
     <use x="116.699219" xlink:href="#Helvetica-56"/>
     <use x="172.314453" xlink:href="#Helvetica-56"/>
     <use x="227.929688" xlink:href="#Helvetica-41"/>
    </g>
   </g>
   <g id="text_24">
    <!-- (c) -->
    <g transform="translate(455.51772 52.918633)scale(0.14 -0.14)">
     <defs>
      <path d="M 38.28125 34.125 
Q 37.890625 37.109375 36.28125 39.5 
Q 33.9375 42.71875 29 42.71875 
Q 21.96875 42.71875 19.390625 35.75 
Q 18.015625 32.03125 18.015625 25.875 
Q 18.015625 20.015625 19.390625 16.453125 
Q 21.875 9.8125 28.765625 9.8125 
Q 33.640625 9.8125 35.6875 12.453125 
Q 37.75 15.09375 38.1875 19.28125 
L 52.390625 19.28125 
Q 51.90625 12.9375 47.796875 7.28125 
Q 41.265625 -1.859375 28.421875 -1.859375 
Q 15.578125 -1.859375 9.515625 5.75 
Q 3.46875 13.375 3.46875 25.53125 
Q 3.46875 39.265625 10.15625 46.875 
Q 16.84375 54.5 28.609375 54.5 
Q 38.625 54.5 45 50 
Q 51.375 45.515625 52.546875 34.125 
z
M 28.859375 54.640625 
z
" id="Helvetica-Bold-99"/>
     </defs>
     <use xlink:href="#Helvetica-Bold-40"/>
     <use x="33.300781" xlink:href="#Helvetica-Bold-99"/>
     <use x="88.916016" xlink:href="#Helvetica-Bold-41"/>
    </g>
   </g>
   <g id="PathCollection_36">
    <g clip-path="url(#pa5df7624b7)">
     <use style="fill:#8c0800;stroke:#8c0800;stroke-width:2.53125;" x="598.4028" xlink:href="#me19aae4896" y="161.11199"/>
    </g>
   </g>
  </g>
  <g id="legend_1">
   <g id="patch_17">
    <path d="M 139.167187 29.589375 
L 560.672813 29.589375 
Q 563.072813 29.589375 563.072813 27.189375 
L 563.072813 11.28 
Q 563.072813 8.88 560.672813 8.88 
L 139.167187 8.88 
Q 136.767187 8.88 136.767187 11.28 
L 136.767187 27.189375 
Q 136.767187 29.589375 139.167187 29.589375 
z
" style="fill:#ffffff;opacity:0.8;stroke:#cccccc;stroke-linejoin:miter;"/>
   </g>
   <g id="PathCollection_37">
    <defs>
     <path d="M 0 1.936492 
C 0.513564 1.936492 1.006162 1.732451 1.369306 1.369306 
C 1.732451 1.006162 1.936492 0.513564 1.936492 0 
C 1.936492 -0.513564 1.732451 -1.006162 1.369306 -1.369306 
C 1.006162 -1.732451 0.513564 -1.936492 0 -1.936492 
C -0.513564 -1.936492 -1.006162 -1.732451 -1.369306 -1.369306 
C -1.732451 -1.006162 -1.936492 -0.513564 -1.936492 0 
C -1.936492 0.513564 -1.732451 1.006162 -1.369306 1.369306 
C -1.006162 1.732451 -0.513564 1.936492 0 1.936492 
z
" id="mdbb932fb8e" style="stroke:#4c72b0;"/>
    </defs>
    <g>
     <use style="fill:#4c72b0;stroke:#4c72b0;" x="153.567187" xlink:href="#mdbb932fb8e" y="19.138125"/>
    </g>
   </g>
   <g id="text_25">
    <!-- HSQC CH -->
    <g transform="translate(175.167187 22.288125)scale(0.12 -0.12)">
     <use xlink:href="#Helvetica-72"/>
     <use x="72.216797" xlink:href="#Helvetica-83"/>
     <use x="138.916016" xlink:href="#Helvetica-81"/>
     <use x="216.699219" xlink:href="#Helvetica-67"/>
     <use x="288.916016" xlink:href="#Helvetica-32"/>
     <use x="316.699219" xlink:href="#Helvetica-67"/>
     <use x="388.916016" xlink:href="#Helvetica-72"/>
    </g>
   </g>
   <g id="PathCollection_38">
    <defs>
     <path d="M 0 1.936492 
C 0.513564 1.936492 1.006162 1.732451 1.369306 1.369306 
C 1.732451 1.006162 1.936492 0.513564 1.936492 0 
C 1.936492 -0.513564 1.732451 -1.006162 1.369306 -1.369306 
C 1.006162 -1.732451 0.513564 -1.936492 0 -1.936492 
C -0.513564 -1.936492 -1.006162 -1.732451 -1.369306 -1.369306 
C -1.732451 -1.006162 -1.936492 -0.513564 -1.936492 0 
C -1.936492 0.513564 -1.732451 1.006162 -1.369306 1.369306 
C -1.006162 1.732451 -0.513564 1.936492 0 1.936492 
z
" id="mabb40f2984" style="stroke:#dd8452;"/>
    </defs>
    <g>
     <use style="fill:#dd8452;stroke:#dd8452;" x="266.504063" xlink:href="#mabb40f2984" y="19.138125"/>
    </g>
   </g>
   <g id="text_26">
    <!-- HSQC CH$_2$ -->
    <g transform="translate(288.104062 22.288125)scale(0.12 -0.12)">
     <use transform="translate(0 0.3125)" xlink:href="#Helvetica-72"/>
     <use transform="translate(72.216797 0.3125)" xlink:href="#Helvetica-83"/>
     <use transform="translate(138.916016 0.3125)" xlink:href="#Helvetica-81"/>
     <use transform="translate(216.699219 0.3125)" xlink:href="#Helvetica-67"/>
     <use transform="translate(288.916016 0.3125)" xlink:href="#Helvetica-32"/>
     <use transform="translate(316.699219 0.3125)" xlink:href="#Helvetica-67"/>
     <use transform="translate(388.916016 0.3125)" xlink:href="#Helvetica-72"/>
     <use transform="translate(462.048008 -15.376563)scale(0.7)" xlink:href="#Helvetica-50"/>
    </g>
   </g>
   <g id="PathCollection_39">
    <defs>
     <path d="M 0 1.936492 
C 0.513564 1.936492 1.006162 1.732451 1.369306 1.369306 
C 1.732451 1.006162 1.936492 0.513564 1.936492 0 
C 1.936492 -0.513564 1.732451 -1.006162 1.369306 -1.369306 
C 1.006162 -1.732451 0.513564 -1.936492 0 -1.936492 
C -0.513564 -1.936492 -1.006162 -1.732451 -1.369306 -1.369306 
C -1.732451 -1.006162 -1.936492 -0.513564 -1.936492 0 
C -1.936492 0.513564 -1.732451 1.006162 -1.369306 1.369306 
C -1.006162 1.732451 -0.513564 1.936492 0 1.936492 
z
" id="m55df8a56f0" style="stroke:#55a868;"/>
    </defs>
    <g>
     <use style="fill:#55a868;stroke:#55a868;" x="384.584063" xlink:href="#m55df8a56f0" y="19.138125"/>
    </g>
   </g>
   <g id="text_27">
    <!-- HSQC CH$_3$ -->
    <g transform="translate(406.184063 22.288125)scale(0.12 -0.12)">
     <use transform="translate(0 0.3125)" xlink:href="#Helvetica-72"/>
     <use transform="translate(72.216797 0.3125)" xlink:href="#Helvetica-83"/>
     <use transform="translate(138.916016 0.3125)" xlink:href="#Helvetica-81"/>
     <use transform="translate(216.699219 0.3125)" xlink:href="#Helvetica-67"/>
     <use transform="translate(288.916016 0.3125)" xlink:href="#Helvetica-32"/>
     <use transform="translate(316.699219 0.3125)" xlink:href="#Helvetica-67"/>
     <use transform="translate(388.916016 0.3125)" xlink:href="#Helvetica-72"/>
     <use transform="translate(462.048008 -15.376563)scale(0.7)" xlink:href="#Helvetica-51"/>
    </g>
   </g>
   <g id="PathCollection_40">
    <defs>
     <path d="M 0 1.936492 
C 0.513564 1.936492 1.006162 1.732451 1.369306 1.369306 
C 1.732451 1.006162 1.936492 0.513564 1.936492 0 
C 1.936492 -0.513564 1.732451 -1.006162 1.369306 -1.369306 
C 1.006162 -1.732451 0.513564 -1.936492 0 -1.936492 
C -0.513564 -1.936492 -1.006162 -1.732451 -1.369306 -1.369306 
C -1.732451 -1.006162 -1.936492 -0.513564 -1.936492 0 
C -1.936492 0.513564 -1.732451 1.006162 -1.369306 1.369306 
C -1.006162 1.732451 -0.513564 1.936492 0 1.936492 
z
" id="mfbddea49ec" style="stroke:#c44e52;"/>
    </defs>
    <g>
     <use style="fill:#c44e52;stroke:#c44e52;" x="502.664063" xlink:href="#mfbddea49ec" y="19.138125"/>
    </g>
   </g>
   <g id="text_28">
    <!-- COSY -->
    <g transform="translate(524.264063 22.288125)scale(0.12 -0.12)">
     <use xlink:href="#Helvetica-67"/>
     <use x="72.216797" xlink:href="#Helvetica-79"/>
     <use x="150" xlink:href="#Helvetica-83"/>
     <use x="216.699219" xlink:href="#Helvetica-89"/>
    </g>
   </g>
  </g>
 </g>
 <defs>
  <clipPath id="pdb12cc04f4">
   <rect height="218.216" width="183.186" x="52.562" y="38.424"/>
  </clipPath>
  <clipPath id="p82a62bf37d">
   <rect height="218.216" width="183.186" x="252.208" y="38.424"/>
  </clipPath>
  <clipPath id="pa5df7624b7">
   <rect height="218.216" width="183.186" x="451.854" y="38.424"/>
  </clipPath>
 </defs>
</svg>
