<?xml version="1.0" encoding="utf-8" standalone="no"?>
<!DOCTYPE svg PUBLIC "-//W3C//DTD SVG 1.1//EN"
  "http://www.w3.org/Graphics/SVG/1.1/DTD/svg11.dtd">
<!-- Created with matplotlib (https://matplotlib.org/) -->
<svg height="288pt" version="1.1" viewBox="0 0 648 288" width="648pt" xmlns="http://www.w3.org/2000/svg" xmlns:xlink="http://www.w3.org/1999/xlink">
 <metadata>
  <rdf:RDF xmlns:cc="http://creativecommons.org/ns#" xmlns:dc="http://purl.org/dc/elements/1.1/" xmlns:rdf="http://www.w3.org/1999/02/22-rdf-syntax-ns#">
   <cc:Work>
    <dc:type rdf:resource="http://purl.org/dc/dcmitype/StillImage"/>
    <dc:date>2021-03-02T15:44:03.182280</dc:date>
    <dc:format>image/svg+xml</dc:format>
    <dc:creator>
     <cc:Agent>
      <dc:title>Matplotlib v3.3.2, https://matplotlib.org/</dc:title>
     </cc:Agent>
    </dc:creator>
   </cc:Work>
  </rdf:RDF>
 </metadata>
 <defs>
  <style type="text/css">*{stroke-linecap:butt;stroke-linejoin:round;}</style>
 </defs>
 <g id="figure_1">
  <g id="patch_1">
   <path d="M 0 288 
L 648 288 
L 648 0 
L 0 0 
z
" style="fill:#ffffff;"/>
  </g>
  <g id="axes_1">
   <g id="patch_2">
    <path d="M 48.62 239.416 
L 635.04 239.416 
L 635.04 35.823 
L 48.62 35.823 
z
" style="fill:#ffffff;"/>
   </g>
   <g id="patch_3">
    <path clip-path="url(#pdf94f8a77b)" d="M 68.167333 239.416 
L 107.262 239.416 
L 107.262 54.824171 
L 68.167333 54.824171 
z
" style="fill:#5875a4;"/>
   </g>
   <g id="patch_4">
    <path clip-path="url(#pdf94f8a77b)" d="M 263.640667 239.416 
L 302.735333 239.416 
L 302.735333 132.278372 
L 263.640667 132.278372 
z
" style="fill:#5875a4;"/>
   </g>
   <g id="patch_5">
    <path clip-path="url(#pdf94f8a77b)" d="M 459.114 239.416 
L 498.208667 239.416 
L 498.208667 98.362424 
L 459.114 98.362424 
z
" style="fill:#5875a4;"/>
   </g>
   <g id="patch_6">
    <path clip-path="url(#pdf94f8a77b)" d="M 107.262 239.416 
L 146.356667 239.416 
L 146.356667 54.359428 
L 107.262 54.359428 
z
" style="fill:#cc8963;"/>
   </g>
   <g id="patch_7">
    <path clip-path="url(#pdf94f8a77b)" d="M 302.735333 239.416 
L 341.83 239.416 
L 341.83 116.02087 
L 302.735333 116.02087 
z
" style="fill:#cc8963;"/>
   </g>
   <g id="patch_8">
    <path clip-path="url(#pdf94f8a77b)" d="M 498.208667 239.416 
L 537.303333 239.416 
L 537.303333 98.362424 
L 498.208667 98.362424 
z
" style="fill:#cc8963;"/>
   </g>
   <g id="patch_9">
    <path clip-path="url(#pdf94f8a77b)" d="M 146.356667 239.416 
L 185.451333 239.416 
L 185.451333 72.61775 
L 146.356667 72.61775 
z
" style="fill:#5f9e6e;"/>
   </g>
   <g id="patch_10">
    <path clip-path="url(#pdf94f8a77b)" d="M 341.83 239.416 
L 380.924667 239.416 
L 380.924667 105.13946 
L 341.83 105.13946 
z
" style="fill:#5f9e6e;"/>
   </g>
   <g id="patch_11">
    <path clip-path="url(#pdf94f8a77b)" d="M 537.303333 239.416 
L 576.398 239.416 
L 576.398 98.362424 
L 537.303333 98.362424 
z
" style="fill:#5f9e6e;"/>
   </g>
   <g id="patch_12">
    <path clip-path="url(#pdf94f8a77b)" d="M 185.451333 239.416 
L 224.546 239.416 
L 224.546 93.294891 
L 185.451333 93.294891 
z
" style="fill:#b55d60;"/>
   </g>
   <g id="patch_13">
    <path clip-path="url(#pdf94f8a77b)" d="M 380.924667 239.416 
L 420.019333 239.416 
L 420.019333 120.753853 
L 380.924667 120.753853 
z
" style="fill:#b55d60;"/>
   </g>
   <g id="patch_14">
    <path clip-path="url(#pdf94f8a77b)" d="M 576.398 239.416 
L 615.492667 239.416 
L 615.492667 98.362424 
L 576.398 98.362424 
z
" style="fill:#b55d60;"/>
   </g>
   <g id="matplotlib.axis_1">
    <g id="xtick_1">
     <g id="line2d_1">
      <defs>
       <path d="M 0 0 
L 0 3.5 
" id="mbc1bb3dd78" style="stroke:#000000;stroke-width:0.8;"/>
      </defs>
      <g>
       <use style="stroke:#000000;stroke-width:0.8;" x="146.356667" xlink:href="#mbc1bb3dd78" y="239.416"/>
      </g>
     </g>
     <g id="text_1">
      <!-- NOAH-4 $\rm S_{N}S^{+}_{2}CT$ -->
      <g transform="translate(107.822087 253.81304)scale(0.09996 -0.09996)">
       <defs>
        <path d="M 7.625 71.734375 
L 19.09375 71.734375 
L 55.328125 13.625 
L 55.328125 71.734375 
L 64.546875 71.734375 
L 64.546875 0 
L 53.65625 0 
L 16.890625 58.0625 
L 16.890625 0 
L 7.625 0 
z
M 35.453125 71.734375 
z
" id="Helvetica-78"/>
        <path d="M 38.578125 73.6875 
Q 57.5625 73.6875 66.703125 61.46875 
Q 73.828125 51.953125 73.828125 37.109375 
Q 73.828125 21.046875 65.671875 10.40625 
Q 56.109375 -2.09375 38.375 -2.09375 
Q 21.828125 -2.09375 12.359375 8.84375 
Q 3.90625 19.390625 3.90625 35.5 
Q 3.90625 50.046875 11.140625 60.40625 
Q 20.40625 73.6875 38.578125 73.6875 
z
M 39.546875 6.59375 
Q 52.390625 6.59375 58.125 15.796875 
Q 63.875 25 63.875 36.96875 
Q 63.875 49.609375 57.25 57.328125 
Q 50.640625 65.046875 39.15625 65.046875 
Q 28.03125 65.046875 21 57.390625 
Q 13.96875 49.75 13.96875 34.859375 
Q 13.96875 22.953125 20 14.765625 
Q 26.03125 6.59375 39.546875 6.59375 
z
M 38.875 73.6875 
z
" id="Helvetica-79"/>
        <path d="M 44.4375 29.390625 
L 33.546875 61.078125 
L 21.96875 29.390625 
z
M 28.46875 71.734375 
L 39.453125 71.734375 
L 65.484375 0 
L 54.828125 0 
L 47.5625 21.484375 
L 19.1875 21.484375 
L 11.421875 0 
L 1.46875 0 
z
" id="Helvetica-65"/>
        <path d="M 7.859375 71.734375 
L 17.671875 71.734375 
L 17.671875 42.09375 
L 54.984375 42.09375 
L 54.984375 71.734375 
L 64.796875 71.734375 
L 64.796875 0 
L 54.984375 0 
L 54.984375 33.546875 
L 17.671875 33.546875 
L 17.671875 0 
L 7.859375 0 
z
" id="Helvetica-72"/>
        <path d="M 4.15625 32.375 
L 28.65625 32.375 
L 28.65625 23.34375 
L 4.15625 23.34375 
z
" id="Helvetica-45"/>
        <path d="M 33.0625 24.75 
L 33.0625 56.453125 
L 10.640625 24.75 
z
M 33.203125 0 
L 33.203125 17.09375 
L 2.546875 17.09375 
L 2.546875 25.6875 
L 34.578125 70.125 
L 42 70.125 
L 42 24.75 
L 52.296875 24.75 
L 52.296875 17.09375 
L 42 17.09375 
L 42 0 
z
" id="Helvetica-52"/>
        <path id="Helvetica-32"/>
        <path d="M 13.96875 23.140625 
Q 14.3125 17.046875 16.84375 13.234375 
Q 21.6875 6.109375 33.890625 6.109375 
Q 39.359375 6.109375 43.84375 7.671875 
Q 52.546875 10.6875 52.546875 18.5 
Q 52.546875 24.359375 48.875 26.859375 
Q 45.171875 29.296875 37.25 31.109375 
L 27.546875 33.296875 
Q 18.015625 35.453125 14.0625 38.03125 
Q 7.234375 42.53125 7.234375 51.46875 
Q 7.234375 61.140625 13.921875 67.328125 
Q 20.609375 73.53125 32.859375 73.53125 
Q 44.140625 73.53125 52.015625 68.078125 
Q 59.90625 62.640625 59.90625 50.6875 
L 50.78125 50.6875 
Q 50.046875 56.453125 47.65625 59.515625 
Q 43.21875 65.140625 32.5625 65.140625 
Q 23.96875 65.140625 20.203125 61.515625 
Q 16.453125 57.90625 16.453125 53.125 
Q 16.453125 47.859375 20.84375 45.40625 
Q 23.734375 43.84375 33.890625 41.5 
L 43.953125 39.203125 
Q 51.21875 37.546875 55.171875 34.671875 
Q 62.015625 29.640625 62.015625 20.0625 
Q 62.015625 8.15625 53.34375 3.03125 
Q 44.671875 -2.09375 33.203125 -2.09375 
Q 19.828125 -2.09375 12.25 4.734375 
Q 4.6875 11.53125 4.828125 23.140625 
z
M 33.59375 73.6875 
z
" id="Helvetica-83"/>
        <path d="M 4.5 21.390625 
L 4.5 29.59375 
L 25.78125 29.59375 
L 25.78125 51.03125 
L 34.125 51.03125 
L 34.125 29.59375 
L 55.421875 29.59375 
L 55.421875 21.390625 
L 34.125 21.390625 
L 34.125 0 
L 25.78125 0 
L 25.78125 21.390625 
z
" id="Helvetica-43"/>
        <path d="M 3.125 0 
Q 3.609375 9.03125 6.859375 15.71875 
Q 10.109375 22.40625 19.53125 27.875 
L 28.90625 33.296875 
Q 35.203125 36.96875 37.75 39.546875 
Q 41.75 43.609375 41.75 48.828125 
Q 41.75 54.9375 38.078125 58.515625 
Q 34.421875 62.109375 28.328125 62.109375 
Q 19.28125 62.109375 15.828125 55.28125 
Q 13.96875 51.609375 13.765625 45.125 
L 4.828125 45.125 
Q 4.984375 54.25 8.203125 60.015625 
Q 13.921875 70.171875 28.375 70.171875 
Q 40.375 70.171875 45.921875 63.671875 
Q 51.46875 57.171875 51.46875 49.21875 
Q 51.46875 40.828125 45.5625 34.859375 
Q 42.140625 31.390625 33.296875 26.46875 
L 26.609375 22.75 
Q 21.828125 20.125 19.09375 17.71875 
Q 14.203125 13.484375 12.9375 8.296875 
L 51.125 8.296875 
L 51.125 0 
L 3.125 0 
z
" id="Helvetica-50"/>
        <path d="M 37.84375 73.6875 
Q 51.46875 73.6875 58.984375 66.5 
Q 66.5 59.328125 67.328125 50.203125 
L 57.859375 50.203125 
Q 56.25 57.125 51.4375 61.171875 
Q 46.625 65.234375 37.9375 65.234375 
Q 27.34375 65.234375 20.828125 57.78125 
Q 14.3125 50.34375 14.3125 34.96875 
Q 14.3125 22.359375 20.1875 14.515625 
Q 26.078125 6.6875 37.75 6.6875 
Q 48.484375 6.6875 54.109375 14.9375 
Q 57.078125 19.28125 58.546875 26.375 
L 68.015625 26.375 
Q 66.75 15.046875 59.625 7.375 
Q 51.078125 -1.859375 36.578125 -1.859375 
Q 24.078125 -1.859375 15.578125 5.71875 
Q 4.390625 15.71875 4.390625 36.625 
Q 4.390625 52.484375 12.796875 62.640625 
Q 21.875 73.6875 37.84375 73.6875 
z
M 35.890625 73.6875 
z
" id="Helvetica-67"/>
        <path d="M 59.8125 71.734375 
L 59.8125 63.1875 
L 35.640625 63.1875 
L 35.640625 0 
L 25.78125 0 
L 25.78125 63.1875 
L 1.609375 63.1875 
L 1.609375 71.734375 
z
" id="Helvetica-84"/>
       </defs>
       <use transform="translate(0 0.3125)" xlink:href="#Helvetica-78"/>
       <use transform="translate(72.216797 0.3125)" xlink:href="#Helvetica-79"/>
       <use transform="translate(150 0.3125)" xlink:href="#Helvetica-65"/>
       <use transform="translate(216.699219 0.3125)" xlink:href="#Helvetica-72"/>
       <use transform="translate(288.916016 0.3125)" xlink:href="#Helvetica-45"/>
       <use transform="translate(322.216797 0.3125)" xlink:href="#Helvetica-52"/>
       <use transform="translate(377.832031 0.3125)" xlink:href="#Helvetica-32"/>
       <use transform="translate(405.615234 0.3125)" xlink:href="#Helvetica-83"/>
       <use transform="translate(473.229648 -15.376563)scale(0.7)" xlink:href="#Helvetica-78"/>
       <use transform="translate(526.39625 0.3125)" xlink:href="#Helvetica-83"/>
       <use transform="translate(594.010664 36.920312)scale(0.7)" xlink:href="#Helvetica-43"/>
       <use transform="translate(594.010664 -25.835938)scale(0.7)" xlink:href="#Helvetica-50"/>
       <use transform="translate(637.504414 0.3125)" xlink:href="#Helvetica-67"/>
       <use transform="translate(709.721211 0.3125)" xlink:href="#Helvetica-84"/>
      </g>
     </g>
    </g>
    <g id="xtick_2">
     <g id="line2d_2">
      <g>
       <use style="stroke:#000000;stroke-width:0.8;" x="341.83" xlink:href="#mbc1bb3dd78" y="239.416"/>
      </g>
     </g>
     <g id="text_2">
      <!-- individual NOAH modules -->
      <g transform="translate(284.884818 253.586568)scale(0.09996 -0.09996)">
       <defs>
        <path d="M 6.453125 52.046875 
L 15.375 52.046875 
L 15.375 0 
L 6.453125 0 
z
M 6.453125 71.734375 
L 15.375 71.734375 
L 15.375 61.765625 
L 6.453125 61.765625 
z
" id="Helvetica-105"/>
        <path d="M 6.453125 52.296875 
L 14.796875 52.296875 
L 14.796875 44.875 
Q 18.5 49.46875 22.65625 51.46875 
Q 26.8125 53.46875 31.890625 53.46875 
Q 43.015625 53.46875 46.921875 45.703125 
Q 49.078125 41.453125 49.078125 33.546875 
L 49.078125 0 
L 40.140625 0 
L 40.140625 32.953125 
Q 40.140625 37.75 38.71875 40.671875 
Q 36.375 45.5625 30.21875 45.5625 
Q 27.09375 45.5625 25.09375 44.921875 
Q 21.484375 43.84375 18.75 40.625 
Q 16.546875 38.03125 15.890625 35.265625 
Q 15.234375 32.515625 15.234375 27.390625 
L 15.234375 0 
L 6.453125 0 
z
M 27.09375 53.5625 
z
" id="Helvetica-110"/>
        <path d="M 12.015625 25.53125 
Q 12.015625 17.140625 15.578125 11.46875 
Q 19.140625 5.8125 27 5.8125 
Q 33.109375 5.8125 37.03125 11.0625 
Q 40.96875 16.3125 40.96875 26.125 
Q 40.96875 36.03125 36.90625 40.796875 
Q 32.859375 45.5625 26.90625 45.5625 
Q 20.265625 45.5625 16.140625 40.484375 
Q 12.015625 35.40625 12.015625 25.53125 
z
M 25.25 53.21875 
Q 31.25 53.21875 35.296875 50.6875 
Q 37.640625 49.21875 40.625 45.5625 
L 40.625 71.96875 
L 49.078125 71.96875 
L 49.078125 0 
L 41.15625 0 
L 41.15625 7.28125 
Q 38.09375 2.4375 33.890625 0.28125 
Q 29.6875 -1.859375 24.265625 -1.859375 
Q 15.53125 -1.859375 9.125 5.484375 
Q 2.734375 12.84375 2.734375 25.046875 
Q 2.734375 36.46875 8.5625 44.84375 
Q 14.40625 53.21875 25.25 53.21875 
z
" id="Helvetica-100"/>
        <path d="M 10.75 52.296875 
L 24.703125 9.71875 
L 39.3125 52.296875 
L 48.921875 52.296875 
L 29.203125 0 
L 19.828125 0 
L 0.53125 52.296875 
z
" id="Helvetica-118"/>
        <path d="M 15.234375 52.296875 
L 15.234375 17.578125 
Q 15.234375 13.578125 16.5 11.03125 
Q 18.84375 6.34375 25.25 6.34375 
Q 34.421875 6.34375 37.75 14.546875 
Q 39.546875 18.953125 39.546875 26.609375 
L 39.546875 52.296875 
L 48.34375 52.296875 
L 48.34375 0 
L 40.046875 0 
L 40.140625 7.71875 
Q 38.421875 4.734375 35.890625 2.6875 
Q 30.859375 -1.421875 23.6875 -1.421875 
Q 12.5 -1.421875 8.453125 6.0625 
Q 6.25 10.0625 6.25 16.75 
L 6.25 52.296875 
z
M 27.296875 53.5625 
z
" id="Helvetica-117"/>
        <path d="M 13.1875 13.921875 
Q 13.1875 10.109375 15.96875 7.90625 
Q 18.75 5.71875 22.5625 5.71875 
Q 27.203125 5.71875 31.546875 7.859375 
Q 38.875 11.421875 38.875 19.53125 
L 38.875 26.609375 
Q 37.25 25.59375 34.703125 24.90625 
Q 32.171875 24.21875 29.734375 23.921875 
L 24.421875 23.25 
Q 19.625 22.609375 17.234375 21.234375 
Q 13.1875 18.953125 13.1875 13.921875 
z
M 34.46875 31.6875 
Q 37.5 32.078125 38.53125 34.234375 
Q 39.109375 35.40625 39.109375 37.59375 
Q 39.109375 42.09375 35.90625 44.109375 
Q 32.71875 46.140625 26.765625 46.140625 
Q 19.875 46.140625 17 42.4375 
Q 15.375 40.375 14.890625 36.328125 
L 6.6875 36.328125 
Q 6.9375 46 12.96875 49.78125 
Q 19 53.5625 26.953125 53.5625 
Q 36.1875 53.5625 41.9375 50.046875 
Q 47.65625 46.53125 47.65625 39.109375 
L 47.65625 8.984375 
Q 47.65625 7.625 48.21875 6.78125 
Q 48.78125 5.953125 50.59375 5.953125 
Q 51.171875 5.953125 51.90625 6.03125 
Q 52.640625 6.109375 53.46875 6.25 
L 53.46875 -0.25 
Q 51.421875 -0.828125 50.34375 -0.96875 
Q 49.265625 -1.125 47.40625 -1.125 
Q 42.875 -1.125 40.828125 2.09375 
Q 39.75 3.8125 39.3125 6.9375 
Q 36.625 3.421875 31.59375 0.828125 
Q 26.5625 -1.765625 20.515625 -1.765625 
Q 13.234375 -1.765625 8.609375 2.65625 
Q 4 7.078125 4 13.71875 
Q 4 21 8.546875 25 
Q 13.09375 29 20.453125 29.9375 
z
M 27.203125 53.5625 
z
" id="Helvetica-97"/>
        <path d="M 6.6875 71.734375 
L 15.484375 71.734375 
L 15.484375 0 
L 6.6875 0 
z
" id="Helvetica-108"/>
        <path d="M 6.453125 52.296875 
L 15.140625 52.296875 
L 15.140625 44.875 
Q 18.265625 48.734375 20.796875 50.484375 
Q 25.140625 53.46875 30.671875 53.46875 
Q 36.921875 53.46875 40.71875 50.390625 
Q 42.875 48.640625 44.625 45.21875 
Q 47.5625 49.421875 51.515625 51.4375 
Q 55.46875 53.46875 60.40625 53.46875 
Q 70.953125 53.46875 74.75 45.84375 
Q 76.8125 41.75 76.8125 34.8125 
L 76.8125 0 
L 67.671875 0 
L 67.671875 36.328125 
Q 67.671875 41.546875 65.0625 43.5 
Q 62.453125 45.453125 58.6875 45.453125 
Q 53.515625 45.453125 49.78125 41.984375 
Q 46.046875 38.53125 46.046875 30.421875 
L 46.046875 0 
L 37.109375 0 
L 37.109375 34.125 
Q 37.109375 39.453125 35.84375 41.890625 
Q 33.84375 45.5625 28.375 45.5625 
Q 23.390625 45.5625 19.3125 41.703125 
Q 15.234375 37.84375 15.234375 27.734375 
L 15.234375 0 
L 6.453125 0 
z
" id="Helvetica-109"/>
        <path d="M 27.203125 5.671875 
Q 35.9375 5.671875 39.1875 12.28125 
Q 42.4375 18.890625 42.4375 27 
Q 42.4375 34.328125 40.09375 38.921875 
Q 36.375 46.140625 27.296875 46.140625 
Q 19.234375 46.140625 15.578125 39.984375 
Q 11.921875 33.84375 11.921875 25.140625 
Q 11.921875 16.796875 15.578125 11.234375 
Q 19.234375 5.671875 27.203125 5.671875 
z
M 27.546875 53.8125 
Q 37.640625 53.8125 44.625 47.0625 
Q 51.609375 40.328125 51.609375 27.25 
Q 51.609375 14.59375 45.453125 6.34375 
Q 39.3125 -1.90625 26.375 -1.90625 
Q 15.578125 -1.90625 9.21875 5.390625 
Q 2.875 12.703125 2.875 25 
Q 2.875 38.1875 9.5625 46 
Q 16.265625 53.8125 27.546875 53.8125 
z
M 27.25 53.5625 
z
" id="Helvetica-111"/>
        <path d="M 28.21875 53.46875 
Q 33.796875 53.46875 39.015625 50.859375 
Q 44.234375 48.25 46.96875 44.09375 
Q 49.609375 40.140625 50.484375 34.859375 
Q 51.265625 31.25 51.265625 23.34375 
L 12.9375 23.34375 
Q 13.1875 15.375 16.703125 10.5625 
Q 20.21875 5.765625 27.59375 5.765625 
Q 34.46875 5.765625 38.578125 10.296875 
Q 40.921875 12.9375 41.890625 16.40625 
L 50.53125 16.40625 
Q 50.203125 13.53125 48.265625 9.984375 
Q 46.34375 6.453125 43.953125 4.203125 
Q 39.9375 0.296875 34.03125 -1.078125 
Q 30.859375 -1.859375 26.859375 -1.859375 
Q 17.09375 -1.859375 10.296875 5.25 
Q 3.515625 12.359375 3.515625 25.140625 
Q 3.515625 37.75 10.34375 45.609375 
Q 17.1875 53.46875 28.21875 53.46875 
z
M 42.234375 30.328125 
Q 41.703125 36.03125 39.75 39.453125 
Q 36.140625 45.796875 27.6875 45.796875 
Q 21.625 45.796875 17.515625 41.421875 
Q 13.421875 37.0625 13.1875 30.328125 
z
M 27.390625 53.5625 
z
" id="Helvetica-101"/>
        <path d="M 11.671875 16.40625 
Q 12.0625 12.015625 13.875 9.671875 
Q 17.1875 5.421875 25.390625 5.421875 
Q 30.28125 5.421875 33.984375 7.546875 
Q 37.703125 9.671875 37.703125 14.109375 
Q 37.703125 17.484375 34.71875 19.234375 
Q 32.8125 20.3125 27.203125 21.734375 
L 20.21875 23.484375 
Q 13.53125 25.140625 10.359375 27.203125 
Q 4.6875 30.765625 4.6875 37.0625 
Q 4.6875 44.484375 10.03125 49.0625 
Q 15.375 53.65625 24.421875 53.65625 
Q 36.234375 53.65625 41.453125 46.734375 
Q 44.734375 42.328125 44.625 37.25 
L 36.328125 37.25 
Q 36.078125 40.234375 34.234375 42.671875 
Q 31.203125 46.140625 23.734375 46.140625 
Q 18.75 46.140625 16.1875 44.234375 
Q 13.625 42.328125 13.625 39.203125 
Q 13.625 35.796875 17 33.734375 
Q 18.953125 32.515625 22.75 31.59375 
L 28.5625 30.171875 
Q 38.03125 27.875 41.265625 25.734375 
Q 46.390625 22.359375 46.390625 15.140625 
Q 46.390625 8.15625 41.09375 3.078125 
Q 35.796875 -2 24.953125 -2 
Q 13.28125 -2 8.421875 3.296875 
Q 3.5625 8.59375 3.21875 16.40625 
z
M 24.65625 53.5625 
z
" id="Helvetica-115"/>
       </defs>
       <use xlink:href="#Helvetica-105"/>
       <use x="22.216797" xlink:href="#Helvetica-110"/>
       <use x="77.832031" xlink:href="#Helvetica-100"/>
       <use x="133.447266" xlink:href="#Helvetica-105"/>
       <use x="155.664062" xlink:href="#Helvetica-118"/>
       <use x="205.664062" xlink:href="#Helvetica-105"/>
       <use x="227.880859" xlink:href="#Helvetica-100"/>
       <use x="283.496094" xlink:href="#Helvetica-117"/>
       <use x="339.111328" xlink:href="#Helvetica-97"/>
       <use x="394.726562" xlink:href="#Helvetica-108"/>
       <use x="416.943359" xlink:href="#Helvetica-32"/>
       <use x="444.726562" xlink:href="#Helvetica-78"/>
       <use x="516.943359" xlink:href="#Helvetica-79"/>
       <use x="594.726562" xlink:href="#Helvetica-65"/>
       <use x="661.425781" xlink:href="#Helvetica-72"/>
       <use x="733.642578" xlink:href="#Helvetica-32"/>
       <use x="761.425781" xlink:href="#Helvetica-109"/>
       <use x="844.726562" xlink:href="#Helvetica-111"/>
       <use x="900.341797" xlink:href="#Helvetica-100"/>
       <use x="955.957031" xlink:href="#Helvetica-117"/>
       <use x="1011.572266" xlink:href="#Helvetica-108"/>
       <use x="1033.789062" xlink:href="#Helvetica-101"/>
       <use x="1089.404297" xlink:href="#Helvetica-115"/>
      </g>
     </g>
    </g>
    <g id="xtick_3">
     <g id="line2d_3">
      <g>
       <use style="stroke:#000000;stroke-width:0.8;" x="537.303333" xlink:href="#mbc1bb3dd78" y="239.416"/>
      </g>
     </g>
     <g id="text_3">
      <!-- standard 2D experiments -->
      <g transform="translate(481.467864 253.609996)scale(0.09996 -0.09996)">
       <defs>
        <path d="M 8.203125 66.890625 
L 17.09375 66.890625 
L 17.09375 52.296875 
L 25.4375 52.296875 
L 25.4375 45.125 
L 17.09375 45.125 
L 17.09375 10.984375 
Q 17.09375 8.25 18.953125 7.328125 
Q 19.96875 6.78125 22.359375 6.78125 
Q 23 6.78125 23.734375 6.8125 
Q 24.46875 6.84375 25.4375 6.9375 
L 25.4375 0 
Q 23.921875 -0.4375 22.28125 -0.625 
Q 20.65625 -0.828125 18.75 -0.828125 
Q 12.59375 -0.828125 10.390625 2.3125 
Q 8.203125 5.46875 8.203125 10.5 
L 8.203125 45.125 
L 1.125 45.125 
L 1.125 52.296875 
L 8.203125 52.296875 
z
" id="Helvetica-116"/>
        <path d="M 6.6875 52.296875 
L 15.046875 52.296875 
L 15.046875 43.265625 
Q 16.0625 45.90625 20.0625 49.6875 
Q 24.078125 53.46875 29.296875 53.46875 
Q 29.546875 53.46875 30.125 53.421875 
Q 30.71875 53.375 32.125 53.21875 
L 32.125 43.953125 
Q 31.34375 44.09375 30.6875 44.140625 
Q 30.03125 44.1875 29.25 44.1875 
Q 22.609375 44.1875 19.046875 39.90625 
Q 15.484375 35.640625 15.484375 30.078125 
L 15.484375 0 
L 6.6875 0 
z
" id="Helvetica-114"/>
        <path d="M 35.15625 8.296875 
Q 40.09375 8.296875 43.265625 9.328125 
Q 48.921875 11.234375 52.546875 16.65625 
Q 55.421875 21 56.6875 27.78125 
Q 57.421875 31.84375 57.421875 35.296875 
Q 57.421875 48.640625 52.125 56 
Q 46.828125 63.375 35.0625 63.375 
L 17.828125 63.375 
L 17.828125 8.296875 
z
M 8.0625 71.734375 
L 37.109375 71.734375 
Q 51.90625 71.734375 60.0625 61.234375 
Q 67.328125 51.765625 67.328125 36.96875 
Q 67.328125 25.53125 63.03125 16.3125 
Q 55.46875 0 37.015625 0 
L 8.0625 0 
z
" id="Helvetica-68"/>
        <path d="M 1.46875 52.296875 
L 12.84375 52.296875 
L 24.859375 33.890625 
L 37.015625 52.296875 
L 47.703125 52.046875 
L 30.078125 26.8125 
L 48.484375 0 
L 37.25 0 
L 24.265625 19.625 
L 11.671875 0 
L 0.53125 0 
L 18.953125 26.8125 
z
" id="Helvetica-120"/>
        <path d="M 28.515625 5.90625 
Q 34.671875 5.90625 38.75 11.0625 
Q 42.828125 16.21875 42.828125 26.46875 
Q 42.828125 32.71875 41.015625 37.203125 
Q 37.59375 45.84375 28.515625 45.84375 
Q 19.390625 45.84375 16.015625 36.71875 
Q 14.203125 31.84375 14.203125 24.3125 
Q 14.203125 18.265625 16.015625 14.015625 
Q 19.4375 5.90625 28.515625 5.90625 
z
M 5.765625 52.046875 
L 14.3125 52.046875 
L 14.3125 45.125 
Q 16.9375 48.6875 20.0625 50.640625 
Q 24.515625 53.5625 30.515625 53.5625 
Q 39.40625 53.5625 45.609375 46.75 
Q 51.8125 39.9375 51.8125 27.296875 
Q 51.8125 10.203125 42.875 2.875 
Q 37.203125 -1.765625 29.6875 -1.765625 
Q 23.78125 -1.765625 19.78125 0.828125 
Q 17.4375 2.296875 14.546875 5.859375 
L 14.546875 -20.84375 
L 5.765625 -20.84375 
z
" id="Helvetica-112"/>
       </defs>
       <use xlink:href="#Helvetica-115"/>
       <use x="50" xlink:href="#Helvetica-116"/>
       <use x="77.783203" xlink:href="#Helvetica-97"/>
       <use x="133.398438" xlink:href="#Helvetica-110"/>
       <use x="189.013672" xlink:href="#Helvetica-100"/>
       <use x="244.628906" xlink:href="#Helvetica-97"/>
       <use x="300.244141" xlink:href="#Helvetica-114"/>
       <use x="333.544922" xlink:href="#Helvetica-100"/>
       <use x="389.160156" xlink:href="#Helvetica-32"/>
       <use x="416.943359" xlink:href="#Helvetica-50"/>
       <use x="472.558594" xlink:href="#Helvetica-68"/>
       <use x="544.775391" xlink:href="#Helvetica-32"/>
       <use x="572.558594" xlink:href="#Helvetica-101"/>
       <use x="628.173828" xlink:href="#Helvetica-120"/>
       <use x="678.173828" xlink:href="#Helvetica-112"/>
       <use x="733.789062" xlink:href="#Helvetica-101"/>
       <use x="789.404297" xlink:href="#Helvetica-114"/>
       <use x="822.705078" xlink:href="#Helvetica-105"/>
       <use x="844.921875" xlink:href="#Helvetica-109"/>
       <use x="928.222656" xlink:href="#Helvetica-101"/>
       <use x="983.837891" xlink:href="#Helvetica-110"/>
       <use x="1039.453125" xlink:href="#Helvetica-116"/>
       <use x="1067.236328" xlink:href="#Helvetica-115"/>
      </g>
     </g>
    </g>
    <g id="text_4">
     <!-- type of experiment -->
     <g transform="translate(292.474375 269.24196)scale(0.12 -0.12)">
      <defs>
       <path d="M 39.109375 52.296875 
L 48.828125 52.296875 
Q 46.96875 47.265625 40.578125 29.34375 
Q 35.796875 15.875 32.5625 7.375 
Q 24.953125 -12.640625 21.828125 -17.03125 
Q 18.703125 -21.4375 11.078125 -21.4375 
Q 9.234375 -21.4375 8.234375 -21.28125 
Q 7.234375 -21.140625 5.765625 -20.75 
L 5.765625 -12.75 
Q 8.0625 -13.375 9.078125 -13.515625 
Q 10.109375 -13.671875 10.890625 -13.671875 
Q 13.328125 -13.671875 14.46875 -12.859375 
Q 15.625 -12.0625 16.40625 -10.890625 
Q 16.65625 -10.5 18.15625 -6.875 
Q 19.671875 -3.265625 20.359375 -1.515625 
L 1.03125 52.296875 
L 10.984375 52.296875 
L 25 9.71875 
z
M 24.953125 53.5625 
z
" id="Helvetica-121"/>
       <path d="M 8.640625 60.25 
Q 8.84375 65.71875 10.546875 68.265625 
Q 13.625 72.75 22.40625 72.75 
Q 23.25 72.75 24.125 72.703125 
Q 25 72.65625 26.125 72.5625 
L 26.125 64.546875 
Q 24.75 64.65625 24.140625 64.671875 
Q 23.53125 64.703125 23 64.703125 
Q 19 64.703125 18.21875 62.625 
Q 17.4375 60.546875 17.4375 52.046875 
L 26.125 52.046875 
L 26.125 45.125 
L 17.328125 45.125 
L 17.328125 0 
L 8.640625 0 
L 8.640625 45.125 
L 1.375 45.125 
L 1.375 52.046875 
L 8.640625 52.046875 
L 8.640625 60.25 
z
" id="Helvetica-102"/>
      </defs>
      <use xlink:href="#Helvetica-116"/>
      <use x="27.783203" xlink:href="#Helvetica-121"/>
      <use x="77.783203" xlink:href="#Helvetica-112"/>
      <use x="133.398438" xlink:href="#Helvetica-101"/>
      <use x="189.013672" xlink:href="#Helvetica-32"/>
      <use x="216.796875" xlink:href="#Helvetica-111"/>
      <use x="272.412109" xlink:href="#Helvetica-102"/>
      <use x="300.195312" xlink:href="#Helvetica-32"/>
      <use x="327.978516" xlink:href="#Helvetica-101"/>
      <use x="383.59375" xlink:href="#Helvetica-120"/>
      <use x="433.59375" xlink:href="#Helvetica-112"/>
      <use x="489.208984" xlink:href="#Helvetica-101"/>
      <use x="544.824219" xlink:href="#Helvetica-114"/>
      <use x="578.125" xlink:href="#Helvetica-105"/>
      <use x="600.341797" xlink:href="#Helvetica-109"/>
      <use x="683.642578" xlink:href="#Helvetica-101"/>
      <use x="739.257812" xlink:href="#Helvetica-110"/>
      <use x="794.873047" xlink:href="#Helvetica-116"/>
     </g>
    </g>
   </g>
   <g id="matplotlib.axis_2">
    <g id="ytick_1">
     <g id="line2d_4">
      <defs>
       <path d="M 0 0 
L -3.5 0 
" id="mcef781d9b8" style="stroke:#000000;stroke-width:0.8;"/>
      </defs>
      <g>
       <use style="stroke:#000000;stroke-width:0.8;" x="48.62" xlink:href="#mcef781d9b8" y="239.416"/>
      </g>
     </g>
     <g id="text_5">
      <!-- 0.0 -->
      <g transform="translate(27.72556 243.001284)scale(0.09996 -0.09996)">
       <defs>
        <path d="M 27.046875 69.921875 
Q 40.625 69.921875 46.6875 58.734375 
Q 51.375 50.09375 51.375 35.0625 
Q 51.375 20.796875 47.125 11.46875 
Q 40.96875 -1.90625 27 -1.90625 
Q 14.40625 -1.90625 8.25 9.03125 
Q 3.125 18.171875 3.125 33.546875 
Q 3.125 45.453125 6.203125 54 
Q 11.96875 69.921875 27.046875 69.921875 
z
M 26.953125 6.109375 
Q 33.796875 6.109375 37.84375 12.15625 
Q 41.890625 18.21875 41.890625 34.71875 
Q 41.890625 46.625 38.953125 54.3125 
Q 36.03125 62.015625 27.59375 62.015625 
Q 19.828125 62.015625 16.234375 54.703125 
Q 12.640625 47.40625 12.640625 33.203125 
Q 12.640625 22.515625 14.9375 16.015625 
Q 18.453125 6.109375 26.953125 6.109375 
z
" id="Helvetica-48"/>
        <path d="M 8.546875 10.640625 
L 18.75 10.640625 
L 18.75 0 
L 8.546875 0 
z
" id="Helvetica-46"/>
       </defs>
       <use xlink:href="#Helvetica-48"/>
       <use x="55.615234" xlink:href="#Helvetica-46"/>
       <use x="83.398438" xlink:href="#Helvetica-48"/>
      </g>
     </g>
    </g>
    <g id="ytick_2">
     <g id="line2d_5">
      <g>
       <use style="stroke:#000000;stroke-width:0.8;" x="48.62" xlink:href="#mcef781d9b8" y="211.205285"/>
      </g>
     </g>
     <g id="text_6">
      <!-- 0.2 -->
      <g transform="translate(27.72556 214.790569)scale(0.09996 -0.09996)">
       <use xlink:href="#Helvetica-48"/>
       <use x="55.615234" xlink:href="#Helvetica-46"/>
       <use x="83.398438" xlink:href="#Helvetica-50"/>
      </g>
     </g>
    </g>
    <g id="ytick_3">
     <g id="line2d_6">
      <g>
       <use style="stroke:#000000;stroke-width:0.8;" x="48.62" xlink:href="#mcef781d9b8" y="182.99457"/>
      </g>
     </g>
     <g id="text_7">
      <!-- 0.4 -->
      <g transform="translate(27.72556 186.579854)scale(0.09996 -0.09996)">
       <use xlink:href="#Helvetica-48"/>
       <use x="55.615234" xlink:href="#Helvetica-46"/>
       <use x="83.398438" xlink:href="#Helvetica-52"/>
      </g>
     </g>
    </g>
    <g id="ytick_4">
     <g id="line2d_7">
      <g>
       <use style="stroke:#000000;stroke-width:0.8;" x="48.62" xlink:href="#mcef781d9b8" y="154.783855"/>
      </g>
     </g>
     <g id="text_8">
      <!-- 0.6 -->
      <g transform="translate(27.72556 158.369139)scale(0.09996 -0.09996)">
       <defs>
        <path d="M 29.25 70.21875 
Q 40.96875 70.21875 45.578125 64.140625 
Q 50.203125 58.0625 50.203125 51.609375 
L 41.5 51.609375 
Q 40.71875 55.765625 39.015625 58.109375 
Q 35.84375 62.5 29.390625 62.5 
Q 22.015625 62.5 17.671875 55.6875 
Q 13.328125 48.875 12.84375 36.1875 
Q 15.875 40.625 20.453125 42.828125 
Q 24.65625 44.78125 29.828125 44.78125 
Q 38.625 44.78125 45.15625 39.15625 
Q 51.703125 33.546875 51.703125 22.40625 
Q 51.703125 12.890625 45.5 5.53125 
Q 39.3125 -1.8125 27.828125 -1.8125 
Q 18.015625 -1.8125 10.890625 5.640625 
Q 3.765625 13.09375 3.765625 30.71875 
Q 3.765625 43.75 6.9375 52.828125 
Q 13.03125 70.21875 29.25 70.21875 
z
M 28.609375 6 
Q 35.546875 6 38.984375 10.65625 
Q 42.4375 15.328125 42.4375 21.6875 
Q 42.4375 27.046875 39.359375 31.90625 
Q 36.28125 36.765625 28.171875 36.765625 
Q 22.515625 36.765625 18.234375 33 
Q 13.96875 29.25 13.96875 21.6875 
Q 13.96875 15.046875 17.84375 10.515625 
Q 21.734375 6 28.609375 6 
z
" id="Helvetica-54"/>
       </defs>
       <use xlink:href="#Helvetica-48"/>
       <use x="55.615234" xlink:href="#Helvetica-46"/>
       <use x="83.398438" xlink:href="#Helvetica-54"/>
      </g>
     </g>
    </g>
    <g id="ytick_5">
     <g id="line2d_8">
      <g>
       <use style="stroke:#000000;stroke-width:0.8;" x="48.62" xlink:href="#mcef781d9b8" y="126.573139"/>
      </g>
     </g>
     <g id="text_9">
      <!-- 0.8 -->
      <g transform="translate(27.72556 130.158423)scale(0.09996 -0.09996)">
       <defs>
        <path d="M 27.203125 40.625 
Q 33.015625 40.625 36.28125 43.875 
Q 39.546875 47.125 39.546875 51.609375 
Q 39.546875 55.515625 36.421875 58.78125 
Q 33.296875 62.0625 26.90625 62.0625 
Q 20.5625 62.0625 17.71875 58.78125 
Q 14.890625 55.515625 14.890625 51.125 
Q 14.890625 46.1875 18.546875 43.40625 
Q 22.21875 40.625 27.203125 40.625 
z
M 27.734375 6 
Q 33.84375 6 37.859375 9.296875 
Q 41.890625 12.59375 41.890625 19.140625 
Q 41.890625 25.921875 37.734375 29.4375 
Q 33.59375 32.953125 27.09375 32.953125 
Q 20.796875 32.953125 16.8125 29.359375 
Q 12.84375 25.78125 12.84375 19.4375 
Q 12.84375 13.96875 16.484375 9.984375 
Q 20.125 6 27.734375 6 
z
M 15.234375 37.25 
Q 11.578125 38.8125 9.515625 40.921875 
Q 5.671875 44.828125 5.671875 51.078125 
Q 5.671875 58.890625 11.328125 64.5 
Q 17 70.125 27.390625 70.125 
Q 37.453125 70.125 43.15625 64.8125 
Q 48.875 59.515625 48.875 52.4375 
Q 48.875 45.90625 45.5625 41.84375 
Q 43.703125 39.546875 39.796875 37.359375 
Q 44.140625 35.359375 46.625 32.765625 
Q 51.265625 27.875 51.265625 20.0625 
Q 51.265625 10.84375 45.0625 4.421875 
Q 38.875 -2 27.546875 -2 
Q 17.328125 -2 10.265625 3.53125 
Q 3.21875 9.078125 3.21875 19.625 
Q 3.21875 25.828125 6.25 30.34375 
Q 9.28125 34.859375 15.234375 37.25 
z
" id="Helvetica-56"/>
       </defs>
       <use xlink:href="#Helvetica-48"/>
       <use x="55.615234" xlink:href="#Helvetica-46"/>
       <use x="83.398438" xlink:href="#Helvetica-56"/>
      </g>
     </g>
    </g>
    <g id="ytick_6">
     <g id="line2d_9">
      <g>
       <use style="stroke:#000000;stroke-width:0.8;" x="48.62" xlink:href="#mcef781d9b8" y="98.362424"/>
      </g>
     </g>
     <g id="text_10">
      <!-- 1.0 -->
      <g transform="translate(27.72556 101.947708)scale(0.09996 -0.09996)">
       <defs>
        <path d="M 9.578125 49.515625 
L 9.578125 56.25 
Q 19.09375 57.171875 22.84375 59.34375 
Q 26.609375 61.53125 28.46875 69.625 
L 35.40625 69.625 
L 35.40625 0 
L 26.03125 0 
L 26.03125 49.515625 
z
" id="Helvetica-49"/>
       </defs>
       <use xlink:href="#Helvetica-49"/>
       <use x="55.615234" xlink:href="#Helvetica-46"/>
       <use x="83.398438" xlink:href="#Helvetica-48"/>
      </g>
     </g>
    </g>
    <g id="ytick_7">
     <g id="line2d_10">
      <g>
       <use style="stroke:#000000;stroke-width:0.8;" x="48.62" xlink:href="#mcef781d9b8" y="70.151709"/>
      </g>
     </g>
     <g id="text_11">
      <!-- 1.2 -->
      <g transform="translate(27.72556 73.736993)scale(0.09996 -0.09996)">
       <use xlink:href="#Helvetica-49"/>
       <use x="55.615234" xlink:href="#Helvetica-46"/>
       <use x="83.398438" xlink:href="#Helvetica-50"/>
      </g>
     </g>
    </g>
    <g id="ytick_8">
     <g id="line2d_11">
      <g>
       <use style="stroke:#000000;stroke-width:0.8;" x="48.62" xlink:href="#mcef781d9b8" y="41.940994"/>
      </g>
     </g>
     <g id="text_12">
      <!-- 1.4 -->
      <g transform="translate(27.72556 45.526278)scale(0.09996 -0.09996)">
       <use xlink:href="#Helvetica-49"/>
       <use x="55.615234" xlink:href="#Helvetica-46"/>
       <use x="83.398438" xlink:href="#Helvetica-52"/>
      </g>
     </g>
    </g>
    <g id="text_13">
     <!-- relative sensitivity / unit time -->
     <g transform="translate(21.15306 212.30825)rotate(-90)scale(0.12 -0.12)">
      <defs>
       <path d="M 22.75 71.734375 
L 30.171875 71.734375 
L 7.421875 0 
L 0 0 
z
" id="Helvetica-47"/>
      </defs>
      <use xlink:href="#Helvetica-114"/>
      <use x="33.300781" xlink:href="#Helvetica-101"/>
      <use x="88.916016" xlink:href="#Helvetica-108"/>
      <use x="111.132812" xlink:href="#Helvetica-97"/>
      <use x="166.748047" xlink:href="#Helvetica-116"/>
      <use x="194.53125" xlink:href="#Helvetica-105"/>
      <use x="216.748047" xlink:href="#Helvetica-118"/>
      <use x="266.748047" xlink:href="#Helvetica-101"/>
      <use x="322.363281" xlink:href="#Helvetica-32"/>
      <use x="350.146484" xlink:href="#Helvetica-115"/>
      <use x="400.146484" xlink:href="#Helvetica-101"/>
      <use x="455.761719" xlink:href="#Helvetica-110"/>
      <use x="511.376953" xlink:href="#Helvetica-115"/>
      <use x="561.376953" xlink:href="#Helvetica-105"/>
      <use x="583.59375" xlink:href="#Helvetica-116"/>
      <use x="611.376953" xlink:href="#Helvetica-105"/>
      <use x="633.59375" xlink:href="#Helvetica-118"/>
      <use x="683.59375" xlink:href="#Helvetica-105"/>
      <use x="705.810547" xlink:href="#Helvetica-116"/>
      <use x="733.59375" xlink:href="#Helvetica-121"/>
      <use x="783.59375" xlink:href="#Helvetica-32"/>
      <use x="811.376953" xlink:href="#Helvetica-47"/>
      <use x="839.160156" xlink:href="#Helvetica-32"/>
      <use x="866.943359" xlink:href="#Helvetica-117"/>
      <use x="922.558594" xlink:href="#Helvetica-110"/>
      <use x="978.173828" xlink:href="#Helvetica-105"/>
      <use x="1000.390625" xlink:href="#Helvetica-116"/>
      <use x="1028.173828" xlink:href="#Helvetica-32"/>
      <use x="1055.957031" xlink:href="#Helvetica-116"/>
      <use x="1083.740234" xlink:href="#Helvetica-105"/>
      <use x="1105.957031" xlink:href="#Helvetica-109"/>
      <use x="1189.257812" xlink:href="#Helvetica-101"/>
     </g>
    </g>
   </g>
   <g id="line2d_12">
    <path clip-path="url(#pdf94f8a77b)" d="M 87.714667 64.130437 
L 87.714667 45.517905 
" style="fill:none;stroke:#424242;stroke-linecap:square;stroke-width:2.7;"/>
   </g>
   <g id="line2d_13">
    <path clip-path="url(#pdf94f8a77b)" d="M 283.188 132.57647 
L 283.188 131.980274 
" style="fill:none;stroke:#424242;stroke-linecap:square;stroke-width:2.7;"/>
   </g>
   <g id="line2d_14">
    <path clip-path="url(#pdf94f8a77b)" d="M 478.661333 98.362424 
L 478.661333 98.362424 
" style="fill:none;stroke:#424242;stroke-linecap:square;stroke-width:2.7;"/>
   </g>
   <g id="line2d_15">
    <path clip-path="url(#pdf94f8a77b)" d="M 126.809333 60.615174 
L 126.809333 47.743131 
" style="fill:none;stroke:#424242;stroke-linecap:square;stroke-width:2.7;"/>
   </g>
   <g id="line2d_16">
    <path clip-path="url(#pdf94f8a77b)" d="M 322.282667 119.766412 
L 322.282667 112.253517 
" style="fill:none;stroke:#424242;stroke-linecap:square;stroke-width:2.7;"/>
   </g>
   <g id="line2d_17">
    <path clip-path="url(#pdf94f8a77b)" d="M 517.756 98.362424 
L 517.756 98.362424 
" style="fill:none;stroke:#424242;stroke-linecap:square;stroke-width:2.7;"/>
   </g>
   <g id="line2d_18">
    <path clip-path="url(#pdf94f8a77b)" d="M 165.904 96.194305 
L 165.904 50.185281 
" style="fill:none;stroke:#424242;stroke-linecap:square;stroke-width:2.7;"/>
   </g>
   <g id="line2d_19">
    <path clip-path="url(#pdf94f8a77b)" d="M 361.377333 124.499329 
L 361.377333 84.285263 
" style="fill:none;stroke:#424242;stroke-linecap:square;stroke-width:2.7;"/>
   </g>
   <g id="line2d_20">
    <path clip-path="url(#pdf94f8a77b)" d="M 556.850667 98.362424 
L 556.850667 98.362424 
" style="fill:none;stroke:#424242;stroke-linecap:square;stroke-width:2.7;"/>
   </g>
   <g id="line2d_21">
    <path clip-path="url(#pdf94f8a77b)" d="M 204.998667 105.184515 
L 204.998667 82.407784 
" style="fill:none;stroke:#424242;stroke-linecap:square;stroke-width:2.7;"/>
   </g>
   <g id="line2d_22">
    <path clip-path="url(#pdf94f8a77b)" d="M 400.472 124.286384 
L 400.472 117.322855 
" style="fill:none;stroke:#424242;stroke-linecap:square;stroke-width:2.7;"/>
   </g>
   <g id="line2d_23">
    <path clip-path="url(#pdf94f8a77b)" d="M 595.945333 98.362424 
L 595.945333 98.362424 
" style="fill:none;stroke:#424242;stroke-linecap:square;stroke-width:2.7;"/>
   </g>
   <g id="line2d_24">
    <path clip-path="url(#pdf94f8a77b)" d="M 48.62 98.362424 
L 635.04 98.362424 
" style="fill:none;stroke:#808080;stroke-dasharray:5.55,2.4;stroke-dashoffset:0;stroke-width:1.5;"/>
   </g>
   <g id="patch_15">
    <path d="M 48.62 239.416 
L 48.62 35.823 
" style="fill:none;stroke:#000000;stroke-linecap:square;stroke-linejoin:miter;stroke-width:0.8;"/>
   </g>
   <g id="patch_16">
    <path d="M 635.04 239.416 
L 635.04 35.823 
" style="fill:none;stroke:#000000;stroke-linecap:square;stroke-linejoin:miter;stroke-width:0.8;"/>
   </g>
   <g id="patch_17">
    <path d="M 48.62 239.416 
L 635.04 239.416 
" style="fill:none;stroke:#000000;stroke-linecap:square;stroke-linejoin:miter;stroke-width:0.8;"/>
   </g>
   <g id="patch_18">
    <path d="M 48.62 35.823 
L 635.04 35.823 
" style="fill:none;stroke:#000000;stroke-linecap:square;stroke-linejoin:miter;stroke-width:0.8;"/>
   </g>
  </g>
  <g id="legend_1">
   <g id="patch_19">
    <path d="M 111.606562 26.709375 
L 536.393438 26.709375 
Q 538.793437 26.709375 538.793437 24.309375 
L 538.793437 8.4 
Q 538.793437 6 536.393438 6 
L 111.606562 6 
Q 109.206562 6 109.206562 8.4 
L 109.206562 24.309375 
Q 109.206562 26.709375 111.606562 26.709375 
z
" style="fill:#ffffff;opacity:0.8;stroke:#cccccc;stroke-linejoin:miter;"/>
   </g>
   <g id="patch_20">
    <path d="M 114.006562 19.408125 
L 138.006562 19.408125 
L 138.006562 11.008125 
L 114.006562 11.008125 
z
" style="fill:#5875a4;"/>
   </g>
   <g id="text_14">
    <!-- $^{15}$N seHSQC -->
    <g transform="translate(147.606562 19.408125)scale(0.12 -0.12)">
     <defs>
      <path d="M 12.359375 17.828125 
Q 13.234375 10.296875 19.34375 7.421875 
Q 22.46875 5.953125 26.5625 5.953125 
Q 34.375 5.953125 38.125 10.9375 
Q 41.890625 15.921875 41.890625 21.96875 
Q 41.890625 29.296875 37.421875 33.296875 
Q 32.953125 37.3125 26.703125 37.3125 
Q 22.171875 37.3125 18.921875 35.546875 
Q 15.671875 33.796875 13.375 30.671875 
L 5.765625 31.109375 
L 11.078125 68.75 
L 47.40625 68.75 
L 47.40625 60.25 
L 17.671875 60.25 
L 14.703125 40.828125 
Q 17.140625 42.671875 19.34375 43.609375 
Q 23.25 45.21875 28.375 45.21875 
Q 37.984375 45.21875 44.671875 39.015625 
Q 51.375 32.8125 51.375 23.296875 
Q 51.375 13.375 45.234375 5.796875 
Q 39.109375 -1.765625 25.6875 -1.765625 
Q 17.140625 -1.765625 10.5625 3.046875 
Q 4 7.859375 3.21875 17.828125 
z
" id="Helvetica-53"/>
      <path d="M 73.25 0.203125 
L 68.359375 -5.71875 
L 57.28125 2.734375 
Q 53.265625 0.53125 48.609375 -0.78125 
Q 43.953125 -2.09375 38.421875 -2.09375 
Q 21.734375 -2.09375 12.25 8.84375 
Q 3.90625 19.484375 3.90625 35.5 
Q 3.90625 50.046875 11.140625 60.40625 
Q 20.40625 73.6875 38.578125 73.6875 
Q 57.5625 73.6875 66.703125 61.46875 
Q 73.828125 51.953125 73.828125 37.109375 
Q 73.828125 30.171875 72.125 23.78125 
Q 69.53125 14.015625 63.375 7.859375 
z
M 39.59375 6.59375 
Q 42.625 6.59375 45.265625 7 
Q 47.90625 7.421875 49.859375 8.640625 
L 42 14.796875 
L 46.875 20.796875 
L 56.25 13.53125 
Q 60.6875 18.609375 62.28125 24.90625 
Q 63.875 31.203125 63.875 36.96875 
Q 63.875 49.609375 57.25 57.328125 
Q 50.640625 65.046875 39.15625 65.046875 
Q 27.546875 65.046875 20.75 57.640625 
Q 13.96875 50.25 13.96875 34.859375 
Q 13.96875 21.921875 20.484375 14.25 
Q 27 6.59375 39.59375 6.59375 
z
" id="Helvetica-81"/>
     </defs>
     <use transform="translate(0.915195 37.2625)scale(0.7)" xlink:href="#Helvetica-49"/>
     <use transform="translate(39.845859 37.2625)scale(0.7)" xlink:href="#Helvetica-53"/>
     <use transform="translate(81.391367 0.654688)" xlink:href="#Helvetica-78"/>
     <use transform="translate(153.608164 0.654688)" xlink:href="#Helvetica-32"/>
     <use transform="translate(181.391367 0.654688)" xlink:href="#Helvetica-115"/>
     <use transform="translate(231.391367 0.654688)" xlink:href="#Helvetica-101"/>
     <use transform="translate(287.006602 0.654688)" xlink:href="#Helvetica-72"/>
     <use transform="translate(359.223398 0.654688)" xlink:href="#Helvetica-83"/>
     <use transform="translate(425.922617 0.654688)" xlink:href="#Helvetica-81"/>
     <use transform="translate(503.70582 0.654688)" xlink:href="#Helvetica-67"/>
    </g>
   </g>
   <g id="patch_21">
    <path d="M 240.726562 19.408125 
L 264.726562 19.408125 
L 264.726562 11.008125 
L 240.726562 11.008125 
z
" style="fill:#cc8963;"/>
   </g>
   <g id="text_15">
    <!-- $^{13}$C seHSQC -->
    <g transform="translate(274.326562 19.408125)scale(0.12 -0.12)">
     <defs>
      <path d="M 25.984375 -1.90625 
Q 13.578125 -1.90625 7.984375 4.90625 
Q 2.390625 11.71875 2.390625 21.484375 
L 11.578125 21.484375 
Q 12.15625 14.703125 14.109375 11.625 
Q 17.53125 6.109375 26.46875 6.109375 
Q 33.40625 6.109375 37.59375 9.8125 
Q 41.796875 13.53125 41.796875 19.390625 
Q 41.796875 26.609375 37.375 29.484375 
Q 32.953125 32.375 25.09375 32.375 
Q 24.21875 32.375 23.3125 32.34375 
Q 22.40625 32.328125 21.484375 32.28125 
L 21.484375 40.046875 
Q 22.859375 39.890625 23.78125 39.84375 
Q 24.703125 39.796875 25.78125 39.796875 
Q 30.71875 39.796875 33.890625 41.359375 
Q 39.453125 44.09375 39.453125 51.125 
Q 39.453125 56.34375 35.734375 59.171875 
Q 32.03125 62.015625 27.09375 62.015625 
Q 18.3125 62.015625 14.9375 56.15625 
Q 13.09375 52.9375 12.84375 46.96875 
L 4.15625 46.96875 
Q 4.15625 54.78125 7.28125 60.25 
Q 12.640625 70.015625 26.171875 70.015625 
Q 36.859375 70.015625 42.71875 65.25 
Q 48.578125 60.5 48.578125 51.46875 
Q 48.578125 45.015625 45.125 41.015625 
Q 42.96875 38.53125 39.546875 37.109375 
Q 45.0625 35.59375 48.15625 31.265625 
Q 51.265625 26.953125 51.265625 20.703125 
Q 51.265625 10.6875 44.671875 4.390625 
Q 38.09375 -1.90625 25.984375 -1.90625 
z
" id="Helvetica-51"/>
     </defs>
     <use transform="translate(0.915195 36.989063)scale(0.7)" xlink:href="#Helvetica-49"/>
     <use transform="translate(39.845859 36.989063)scale(0.7)" xlink:href="#Helvetica-51"/>
     <use transform="translate(81.391367 0.38125)" xlink:href="#Helvetica-67"/>
     <use transform="translate(153.608164 0.38125)" xlink:href="#Helvetica-32"/>
     <use transform="translate(181.391367 0.38125)" xlink:href="#Helvetica-115"/>
     <use transform="translate(231.391367 0.38125)" xlink:href="#Helvetica-101"/>
     <use transform="translate(287.006602 0.38125)" xlink:href="#Helvetica-72"/>
     <use transform="translate(359.223398 0.38125)" xlink:href="#Helvetica-83"/>
     <use transform="translate(425.922617 0.38125)" xlink:href="#Helvetica-81"/>
     <use transform="translate(503.70582 0.38125)" xlink:href="#Helvetica-67"/>
    </g>
   </g>
   <g id="patch_22">
    <path d="M 367.446562 19.408125 
L 391.446562 19.408125 
L 391.446562 11.008125 
L 367.446562 11.008125 
z
" style="fill:#5f9e6e;"/>
   </g>
   <g id="text_16">
    <!-- COSY -->
    <g transform="translate(401.046562 19.408125)scale(0.12 -0.12)">
     <defs>
      <path d="M 2.046875 71.734375 
L 13.375 71.734375 
L 33.984375 37.25 
L 54.59375 71.734375 
L 65.96875 71.734375 
L 38.875 28.90625 
L 38.875 0 
L 29.15625 0 
L 29.15625 28.90625 
z
M 34.125 71.734375 
z
" id="Helvetica-89"/>
     </defs>
     <use xlink:href="#Helvetica-67"/>
     <use x="72.216797" xlink:href="#Helvetica-79"/>
     <use x="150" xlink:href="#Helvetica-83"/>
     <use x="216.699219" xlink:href="#Helvetica-89"/>
    </g>
   </g>
   <g id="patch_23">
    <path d="M 459.055313 19.408125 
L 483.055313 19.408125 
L 483.055313 11.008125 
L 459.055313 11.008125 
z
" style="fill:#b55d60;"/>
   </g>
   <g id="text_17">
    <!-- TOCSY -->
    <g transform="translate(492.655313 19.408125)scale(0.12 -0.12)">
     <use xlink:href="#Helvetica-84"/>
     <use x="61.083984" xlink:href="#Helvetica-79"/>
     <use x="138.867188" xlink:href="#Helvetica-67"/>
     <use x="211.083984" xlink:href="#Helvetica-83"/>
     <use x="277.783203" xlink:href="#Helvetica-89"/>
    </g>
   </g>
  </g>
 </g>
 <defs>
  <clipPath id="pdf94f8a77b">
   <rect height="203.593" width="586.42" x="48.62" y="35.823"/>
  </clipPath>
 </defs>
</svg>
