<?xml version="1.0" encoding="utf-8" standalone="no"?>
<!DOCTYPE svg PUBLIC "-//W3C//DTD SVG 1.1//EN"
  "http://www.w3.org/Graphics/SVG/1.1/DTD/svg11.dtd">
<!-- Created with matplotlib (https://matplotlib.org/) -->
<svg height="252pt" version="1.1" viewBox="0 0 432 252" width="432pt" xmlns="http://www.w3.org/2000/svg" xmlns:xlink="http://www.w3.org/1999/xlink">
 <metadata>
  <rdf:RDF xmlns:cc="http://creativecommons.org/ns#" xmlns:dc="http://purl.org/dc/elements/1.1/" xmlns:rdf="http://www.w3.org/1999/02/22-rdf-syntax-ns#">
   <cc:Work>
    <dc:type rdf:resource="http://purl.org/dc/dcmitype/StillImage"/>
    <dc:date>2020-11-25T16:10:32.256203</dc:date>
    <dc:format>image/svg+xml</dc:format>
    <dc:creator>
     <cc:Agent>
      <dc:title>Matplotlib v3.3.2, https://matplotlib.org/</dc:title>
     </cc:Agent>
    </dc:creator>
   </cc:Work>
  </rdf:RDF>
 </metadata>
 <defs>
  <style type="text/css">*{stroke-linecap:butt;stroke-linejoin:round;}</style>
 </defs>
 <g id="figure_1">
  <g id="patch_1">
   <path d="M 0 252 
L 432 252 
L 432 0 
L 0 0 
z
" style="fill:#ffffff;"/>
  </g>
  <g id="axes_1">
   <g id="patch_2">
    <path d="M 43.67 227.84 
L 225.285 227.84 
L 225.285 10.8 
L 43.67 10.8 
z
" style="fill:#ffffff;"/>
   </g>
   <g id="PathCollection_1"/>
   <g id="PathCollection_2"/>
   <g id="PathCollection_3"/>
   <g id="PathCollection_4"/>
   <g id="matplotlib.axis_1">
    <g id="text_1">
     <!-- CRK seHSQC/CLIP-COSY -->
     <g transform="translate(84.243125 238.960312)scale(0.1 -0.1)">
      <defs>
       <path d="M 33.796875 -1.203125 
Q 27.59375 -1.203125 22.390625 1.09375 
Q 17.203125 3.40625 13.34375 7.75 
Q 9.5 12.09375 7.34375 18.4375 
Q 5.203125 24.796875 5.203125 32.796875 
Q 5.203125 40.703125 7.390625 47 
Q 9.59375 53.296875 13.5 57.6875 
Q 17.40625 62.09375 22.703125 64.4375 
Q 28 66.796875 34.296875 66.796875 
Q 40.296875 66.796875 44.84375 64.34375 
Q 49.40625 61.90625 52.296875 58.703125 
L 47.796875 53.296875 
Q 45.203125 56.09375 41.890625 57.796875 
Q 38.59375 59.5 34.40625 59.5 
Q 29.703125 59.5 25.890625 57.640625 
Q 22.09375 55.796875 19.390625 52.34375 
Q 16.703125 48.90625 15.25 44 
Q 13.796875 39.09375 13.796875 33 
Q 13.796875 26.796875 15.25 21.84375 
Q 16.703125 16.90625 19.296875 13.40625 
Q 21.90625 9.90625 25.65625 8 
Q 29.40625 6.09375 34.09375 6.09375 
Q 38.90625 6.09375 42.5 8.046875 
Q 46.09375 10 49.296875 13.5 
L 53.90625 8.296875 
Q 50 3.796875 45.09375 1.296875 
Q 40.203125 -1.203125 33.796875 -1.203125 
z
" id="SourceSansPro-Regular-67"/>
       <path d="M 9 0 
L 9 65.59375 
L 29.5 65.59375 
Q 34.5 65.59375 38.75 64.640625 
Q 43 63.703125 46.046875 61.5 
Q 49.09375 59.296875 50.796875 55.796875 
Q 52.5 52.296875 52.5 47.203125 
Q 52.5 39.5 48.5 34.890625 
Q 44.5 30.296875 37.703125 28.59375 
L 54.40625 0 
L 45 0 
L 29.203125 27.703125 
L 17.296875 27.703125 
L 17.296875 0 
z
M 17.296875 34.5 
L 28.296875 34.5 
Q 36 34.5 40.09375 37.640625 
Q 44.203125 40.796875 44.203125 47.203125 
Q 44.203125 53.703125 40.09375 56.296875 
Q 36 58.90625 28.296875 58.90625 
L 17.296875 58.90625 
z
" id="SourceSansPro-Regular-82"/>
       <path d="M 9 0 
L 9 65.59375 
L 17.296875 65.59375 
L 17.296875 32.703125 
L 17.59375 32.703125 
L 44.90625 65.59375 
L 54.296875 65.59375 
L 33.796875 40.59375 
L 57.5 0 
L 48.203125 0 
L 28.59375 34.09375 
L 17.296875 20.796875 
L 17.296875 0 
z
" id="SourceSansPro-Regular-75"/>
       <path id="SourceSansPro-Regular-32"/>
       <path d="M 20.90625 -1.203125 
Q 15.703125 -1.203125 11 0.6875 
Q 6.296875 2.59375 2.796875 5.5 
L 6.90625 11 
Q 10.09375 8.40625 13.4375 6.796875 
Q 16.796875 5.203125 21.203125 5.203125 
Q 26 5.203125 28.390625 7.390625 
Q 30.796875 9.59375 30.796875 12.796875 
Q 30.796875 14.703125 29.796875 16.09375 
Q 28.796875 17.5 27.25 18.546875 
Q 25.703125 19.59375 23.703125 20.390625 
Q 21.703125 21.203125 19.703125 22 
Q 17.09375 22.90625 14.5 24.046875 
Q 11.90625 25.203125 9.84375 26.84375 
Q 7.796875 28.5 6.5 30.703125 
Q 5.203125 32.90625 5.203125 36 
Q 5.203125 38.90625 6.34375 41.453125 
Q 7.5 44 9.640625 45.84375 
Q 11.796875 47.703125 14.890625 48.75 
Q 18 49.796875 21.90625 49.796875 
Q 26.5 49.796875 30.34375 48.1875 
Q 34.203125 46.59375 37 44.296875 
L 33.09375 39.09375 
Q 30.59375 41 27.890625 42.203125 
Q 25.203125 43.40625 22 43.40625 
Q 17.40625 43.40625 15.25 41.296875 
Q 13.09375 39.203125 13.09375 36.40625 
Q 13.09375 34.703125 14 33.453125 
Q 14.90625 32.203125 16.40625 31.25 
Q 17.90625 30.296875 19.84375 29.546875 
Q 21.796875 28.796875 23.90625 28 
Q 26.5 27 29.140625 25.890625 
Q 31.796875 24.796875 33.890625 23.140625 
Q 36 21.5 37.34375 19.09375 
Q 38.703125 16.703125 38.703125 13.296875 
Q 38.703125 10.296875 37.546875 7.6875 
Q 36.40625 5.09375 34.15625 3.09375 
Q 31.90625 1.09375 28.546875 -0.046875 
Q 25.203125 -1.203125 20.90625 -1.203125 
z
" id="SourceSansPro-Regular-115"/>
       <path d="M 27.90625 -1.203125 
Q 23 -1.203125 18.75 0.546875 
Q 14.5 2.296875 11.34375 5.546875 
Q 8.203125 8.796875 6.390625 13.5 
Q 4.59375 18.203125 4.59375 24.203125 
Q 4.59375 30.203125 6.4375 34.953125 
Q 8.296875 39.703125 11.34375 43 
Q 14.40625 46.296875 18.296875 48.046875 
Q 22.203125 49.796875 26.40625 49.796875 
Q 31 49.796875 34.640625 48.1875 
Q 38.296875 46.59375 40.75 43.59375 
Q 43.203125 40.59375 44.5 36.390625 
Q 45.796875 32.203125 45.796875 27 
Q 45.796875 25.703125 45.75 24.453125 
Q 45.703125 23.203125 45.5 22.296875 
L 12.703125 22.296875 
Q 13.203125 14.5 17.546875 9.953125 
Q 21.90625 5.40625 28.90625 5.40625 
Q 32.40625 5.40625 35.34375 6.453125 
Q 38.296875 7.5 41 9.203125 
L 43.90625 3.796875 
Q 40.703125 1.796875 36.796875 0.296875 
Q 32.90625 -1.203125 27.90625 -1.203125 
z
M 12.59375 28.203125 
L 38.59375 28.203125 
Q 38.59375 35.59375 35.4375 39.4375 
Q 32.296875 43.296875 26.59375 43.296875 
Q 24 43.296875 21.640625 42.296875 
Q 19.296875 41.296875 17.390625 39.34375 
Q 15.5 37.40625 14.25 34.59375 
Q 13 31.796875 12.59375 28.203125 
z
" id="SourceSansPro-Regular-101"/>
       <path d="M 9 0 
L 9 65.59375 
L 17.296875 65.59375 
L 17.296875 38.09375 
L 47.796875 38.09375 
L 47.796875 65.59375 
L 56.203125 65.59375 
L 56.203125 0 
L 47.796875 0 
L 47.796875 30.90625 
L 17.296875 30.90625 
L 17.296875 0 
z
" id="SourceSansPro-Regular-72"/>
       <path d="M 27.203125 -1.203125 
Q 20.296875 -1.203125 14.390625 1.390625 
Q 8.5 4 4.203125 8.5 
L 9.203125 14.296875 
Q 12.703125 10.59375 17.453125 8.34375 
Q 22.203125 6.09375 27.296875 6.09375 
Q 33.796875 6.09375 37.390625 9.046875 
Q 41 12 41 16.796875 
Q 41 19.296875 40.140625 21.046875 
Q 39.296875 22.796875 37.84375 24.046875 
Q 36.40625 25.296875 34.40625 26.296875 
Q 32.40625 27.296875 30.09375 28.40625 
L 20.703125 32.5 
Q 18.40625 33.5 16 34.890625 
Q 13.59375 36.296875 11.6875 38.296875 
Q 9.796875 40.296875 8.59375 43.046875 
Q 7.40625 45.796875 7.40625 49.40625 
Q 7.40625 53.09375 8.953125 56.296875 
Q 10.5 59.5 13.25 61.84375 
Q 16 64.203125 19.75 65.5 
Q 23.5 66.796875 28 66.796875 
Q 33.90625 66.796875 38.90625 64.546875 
Q 43.90625 62.296875 47.40625 58.703125 
L 42.90625 53.296875 
Q 39.90625 56.203125 36.25 57.84375 
Q 32.59375 59.5 28 59.5 
Q 22.5 59.5 19.140625 56.953125 
Q 15.796875 54.40625 15.796875 49.90625 
Q 15.796875 47.5 16.75 45.84375 
Q 17.703125 44.203125 19.296875 42.953125 
Q 20.90625 41.703125 22.796875 40.75 
Q 24.703125 39.796875 26.703125 39 
L 36 35 
Q 38.796875 33.796875 41.296875 32.25 
Q 43.796875 30.703125 45.59375 28.640625 
Q 47.40625 26.59375 48.453125 23.84375 
Q 49.5 21.09375 49.5 17.5 
Q 49.5 13.59375 47.953125 10.1875 
Q 46.40625 6.796875 43.5 4.25 
Q 40.59375 1.703125 36.5 0.25 
Q 32.40625 -1.203125 27.203125 -1.203125 
z
" id="SourceSansPro-Regular-83"/>
       <path d="M 33.203125 5.703125 
Q 37.59375 5.703125 41.140625 7.59375 
Q 44.703125 9.5 47.25 13.09375 
Q 49.796875 16.703125 51.1875 21.75 
Q 52.59375 26.796875 52.59375 33.09375 
Q 52.59375 39.203125 51.1875 44.09375 
Q 49.796875 49 47.25 52.390625 
Q 44.703125 55.796875 41.140625 57.640625 
Q 37.59375 59.5 33.203125 59.5 
Q 28.796875 59.5 25.25 57.640625 
Q 21.703125 55.796875 19.140625 52.390625 
Q 16.59375 49 15.1875 44.09375 
Q 13.796875 39.203125 13.796875 33.09375 
Q 13.796875 26.796875 15.1875 21.75 
Q 16.59375 16.703125 19.140625 13.09375 
Q 21.703125 9.5 25.25 7.59375 
Q 28.796875 5.703125 33.203125 5.703125 
z
M 53.296875 -16.5 
Q 48.796875 -16.5 44.9375 -15.34375 
Q 41.09375 -14.203125 38.046875 -12.09375 
Q 35 -10 32.75 -7.140625 
Q 30.5 -4.296875 29.09375 -0.90625 
Q 23.703125 -0.203125 19.296875 2.5 
Q 14.90625 5.203125 11.75 9.59375 
Q 8.59375 14 6.890625 19.953125 
Q 5.203125 25.90625 5.203125 33.09375 
Q 5.203125 41 7.25 47.25 
Q 9.296875 53.5 13 57.84375 
Q 16.703125 62.203125 21.84375 64.5 
Q 27 66.796875 33.203125 66.796875 
Q 39.40625 66.796875 44.546875 64.4375 
Q 49.703125 62.09375 53.453125 57.75 
Q 57.203125 53.40625 59.25 47.15625 
Q 61.296875 40.90625 61.296875 33.09375 
Q 61.296875 26 59.640625 20.140625 
Q 58 14.296875 54.953125 9.9375 
Q 51.90625 5.59375 47.59375 2.84375 
Q 43.296875 0.09375 38.09375 -0.796875 
Q 40.40625 -5.203125 44.59375 -7.34375 
Q 48.796875 -9.5 54.203125 -9.5 
Q 56.40625 -9.5 58.046875 -9.25 
Q 59.703125 -9 61.09375 -8.59375 
L 62.703125 -15 
Q 61.203125 -15.59375 58.703125 -16.046875 
Q 56.203125 -16.5 53.296875 -16.5 
z
" id="SourceSansPro-Regular-81"/>
       <path d="M 1 -16 
L 27.703125 71 
L 33.703125 71 
L 7 -16 
z
" id="SourceSansPro-Regular-47"/>
       <path d="M 9 0 
L 9 65.59375 
L 17.296875 65.59375 
L 17.296875 7.09375 
L 46 7.09375 
L 46 0 
z
" id="SourceSansPro-Regular-76"/>
       <path d="M 9 0 
L 9 65.59375 
L 17.296875 65.59375 
L 17.296875 0 
z
" id="SourceSansPro-Regular-73"/>
       <path d="M 9 0 
L 9 65.59375 
L 27.703125 65.59375 
Q 33.203125 65.59375 37.75 64.59375 
Q 42.296875 63.59375 45.5 61.34375 
Q 48.703125 59.09375 50.5 55.390625 
Q 52.296875 51.703125 52.296875 46.296875 
Q 52.296875 41.09375 50.546875 37.296875 
Q 48.796875 33.5 45.59375 31 
Q 42.40625 28.5 37.953125 27.25 
Q 33.5 26 28.09375 26 
L 17.296875 26 
L 17.296875 0 
z
M 17.296875 32.796875 
L 27.09375 32.796875 
Q 35.703125 32.796875 39.84375 36.046875 
Q 44 39.296875 44 46.296875 
Q 44 53.40625 39.640625 56.15625 
Q 35.296875 58.90625 26.703125 58.90625 
L 17.296875 58.90625 
z
" id="SourceSansPro-Regular-80"/>
       <path d="M 4.09375 21.90625 
L 4.09375 28.203125 
L 27.09375 28.203125 
L 27.09375 21.90625 
z
" id="SourceSansPro-Regular-45"/>
       <path d="M 33.203125 -1.203125 
Q 27 -1.203125 21.84375 1.1875 
Q 16.703125 3.59375 13 8.046875 
Q 9.296875 12.5 7.25 18.84375 
Q 5.203125 25.203125 5.203125 33.09375 
Q 5.203125 41 7.25 47.25 
Q 9.296875 53.5 13 57.84375 
Q 16.703125 62.203125 21.84375 64.5 
Q 27 66.796875 33.203125 66.796875 
Q 39.40625 66.796875 44.546875 64.4375 
Q 49.703125 62.09375 53.453125 57.75 
Q 57.203125 53.40625 59.25 47.15625 
Q 61.296875 40.90625 61.296875 33.09375 
Q 61.296875 25.203125 59.25 18.84375 
Q 57.203125 12.5 53.453125 8.046875 
Q 49.703125 3.59375 44.546875 1.1875 
Q 39.40625 -1.203125 33.203125 -1.203125 
z
M 33.203125 6.09375 
Q 37.59375 6.09375 41.140625 8 
Q 44.703125 9.90625 47.25 13.453125 
Q 49.796875 17 51.1875 21.953125 
Q 52.59375 26.90625 52.59375 33.09375 
Q 52.59375 39.203125 51.1875 44.09375 
Q 49.796875 49 47.25 52.390625 
Q 44.703125 55.796875 41.140625 57.640625 
Q 37.59375 59.5 33.203125 59.5 
Q 28.796875 59.5 25.25 57.640625 
Q 21.703125 55.796875 19.140625 52.390625 
Q 16.59375 49 15.1875 44.09375 
Q 13.796875 39.203125 13.796875 33.09375 
Q 13.796875 26.90625 15.1875 21.953125 
Q 16.59375 17 19.140625 13.453125 
Q 21.703125 9.90625 25.25 8 
Q 28.796875 6.09375 33.203125 6.09375 
z
" id="SourceSansPro-Regular-79"/>
       <path d="M 19.59375 0 
L 19.59375 25.40625 
L -0.09375 65.59375 
L 8.796875 65.59375 
L 17.296875 47.09375 
Q 18.90625 43.5 20.40625 40 
Q 21.90625 36.5 23.59375 32.796875 
L 24 32.796875 
Q 25.703125 36.5 27.390625 40 
Q 29.09375 43.5 30.59375 47.09375 
L 39 65.59375 
L 47.703125 65.59375 
L 28 25.40625 
L 28 0 
z
" id="SourceSansPro-Regular-89"/>
      </defs>
      <use xlink:href="#SourceSansPro-Regular-67"/>
      <use x="57.099991" xlink:href="#SourceSansPro-Regular-82"/>
      <use x="113.999985" xlink:href="#SourceSansPro-Regular-75"/>
      <use x="171.899979" xlink:href="#SourceSansPro-Regular-32"/>
      <use x="191.899963" xlink:href="#SourceSansPro-Regular-115"/>
      <use x="233.799957" xlink:href="#SourceSansPro-Regular-101"/>
      <use x="283.399948" xlink:href="#SourceSansPro-Regular-72"/>
      <use x="348.599945" xlink:href="#SourceSansPro-Regular-83"/>
      <use x="401.999939" xlink:href="#SourceSansPro-Regular-81"/>
      <use x="468.399933" xlink:href="#SourceSansPro-Regular-67"/>
      <use x="525.499924" xlink:href="#SourceSansPro-Regular-47"/>
      <use x="560.499908" xlink:href="#SourceSansPro-Regular-67"/>
      <use x="617.599899" xlink:href="#SourceSansPro-Regular-76"/>
      <use x="666.19989" xlink:href="#SourceSansPro-Regular-73"/>
      <use x="692.499878" xlink:href="#SourceSansPro-Regular-80"/>
      <use x="749.099869" xlink:href="#SourceSansPro-Regular-45"/>
      <use x="780.19986" xlink:href="#SourceSansPro-Regular-67"/>
      <use x="837.29985" xlink:href="#SourceSansPro-Regular-79"/>
      <use x="903.699844" xlink:href="#SourceSansPro-Regular-83"/>
      <use x="957.099838" xlink:href="#SourceSansPro-Regular-89"/>
     </g>
    </g>
   </g>
   <g id="matplotlib.axis_2">
    <g id="ytick_1">
     <g id="line2d_1">
      <defs>
       <path d="M 0 0 
L -3.5 0 
" id="m14925197e6" style="stroke:#000000;stroke-width:0.8;"/>
      </defs>
      <g>
       <use style="stroke:#000000;stroke-width:0.8;" x="43.67" xlink:href="#m14925197e6" y="211.144615"/>
      </g>
     </g>
     <g id="text_2">
      <!-- 0.0 -->
      <g transform="translate(24.23875 214.704772)scale(0.1 -0.1)">
       <defs>
        <path d="M 24.90625 -1.203125 
Q 15.203125 -1.203125 9.796875 7.390625 
Q 4.40625 16 4.40625 32.09375 
Q 4.40625 48.203125 9.796875 56.59375 
Q 15.203125 65 24.90625 65 
Q 34.5 65 39.890625 56.59375 
Q 45.296875 48.203125 45.296875 32.09375 
Q 45.296875 16 39.890625 7.390625 
Q 34.5 -1.203125 24.90625 -1.203125 
z
M 24.90625 5.40625 
Q 27.703125 5.40625 29.953125 6.953125 
Q 32.203125 8.5 33.84375 11.75 
Q 35.5 15 36.390625 20.046875 
Q 37.296875 25.09375 37.296875 32.09375 
Q 37.296875 39.09375 36.390625 44.09375 
Q 35.5 49.09375 33.84375 52.25 
Q 32.203125 55.40625 29.953125 56.90625 
Q 27.703125 58.40625 24.90625 58.40625 
Q 22.09375 58.40625 19.796875 56.90625 
Q 17.5 55.40625 15.84375 52.25 
Q 14.203125 49.09375 13.296875 44.09375 
Q 12.40625 39.09375 12.40625 32.09375 
Q 12.40625 18.09375 15.84375 11.75 
Q 19.296875 5.40625 24.90625 5.40625 
z
" id="SourceSansPro-Regular-48"/>
        <path d="M 12.5 -1.203125 
Q 10 -1.203125 8.25 0.546875 
Q 6.5 2.296875 6.5 5 
Q 6.5 7.90625 8.25 9.65625 
Q 10 11.40625 12.5 11.40625 
Q 14.90625 11.40625 16.65625 9.65625 
Q 18.40625 7.90625 18.40625 5 
Q 18.40625 2.296875 16.65625 0.546875 
Q 14.90625 -1.203125 12.5 -1.203125 
z
" id="SourceSansPro-Regular-46"/>
       </defs>
       <use xlink:href="#SourceSansPro-Regular-48"/>
       <use x="49.699997" xlink:href="#SourceSansPro-Regular-46"/>
       <use x="74.599991" xlink:href="#SourceSansPro-Regular-48"/>
      </g>
     </g>
    </g>
    <g id="ytick_2">
     <g id="line2d_2">
      <g>
       <use style="stroke:#000000;stroke-width:0.8;" x="43.67" xlink:href="#m14925197e6" y="169.406154"/>
      </g>
     </g>
     <g id="text_3">
      <!-- 0.5 -->
      <g transform="translate(24.23875 172.96631)scale(0.1 -0.1)">
       <defs>
        <path d="M 23.40625 -1.203125 
Q 19.59375 -1.203125 16.4375 -0.453125 
Q 13.296875 0.296875 10.75 1.5 
Q 8.203125 2.703125 6.140625 4.25 
Q 4.09375 5.796875 2.5 7.5 
L 6.5 12.90625 
Q 9.296875 10 13.140625 7.796875 
Q 17 5.59375 22.59375 5.59375 
Q 25.5 5.59375 28.046875 6.640625 
Q 30.59375 7.703125 32.5 9.59375 
Q 34.40625 11.5 35.5 14.203125 
Q 36.59375 16.90625 36.59375 20.203125 
Q 36.59375 26.796875 32.890625 30.5 
Q 29.203125 34.203125 23 34.203125 
Q 19.703125 34.203125 17.34375 33.203125 
Q 15 32.203125 12.09375 30.296875 
L 7.703125 33.09375 
L 9.796875 63.796875 
L 41.703125 63.796875 
L 41.703125 56.703125 
L 17 56.703125 
L 15.296875 37.796875 
Q 17.59375 39 19.890625 39.703125 
Q 22.203125 40.40625 25.09375 40.40625 
Q 29.203125 40.40625 32.796875 39.203125 
Q 36.40625 38 39.09375 35.546875 
Q 41.796875 33.09375 43.34375 29.34375 
Q 44.90625 25.59375 44.90625 20.40625 
Q 44.90625 15.203125 43.09375 11.203125 
Q 41.296875 7.203125 38.296875 4.453125 
Q 35.296875 1.703125 31.4375 0.25 
Q 27.59375 -1.203125 23.40625 -1.203125 
z
" id="SourceSansPro-Regular-53"/>
       </defs>
       <use xlink:href="#SourceSansPro-Regular-48"/>
       <use x="49.699997" xlink:href="#SourceSansPro-Regular-46"/>
       <use x="74.599991" xlink:href="#SourceSansPro-Regular-53"/>
      </g>
     </g>
    </g>
    <g id="ytick_3">
     <g id="line2d_3">
      <g>
       <use style="stroke:#000000;stroke-width:0.8;" x="43.67" xlink:href="#m14925197e6" y="127.667692"/>
      </g>
     </g>
     <g id="text_4">
      <!-- 1.0 -->
      <g transform="translate(24.23875 131.227849)scale(0.1 -0.1)">
       <defs>
        <path d="M 7.90625 0 
L 7.90625 6.796875 
L 22.5 6.796875 
L 22.5 53.796875 
L 10.90625 53.796875 
L 10.90625 59.09375 
Q 15.296875 59.90625 18.546875 61.046875 
Q 21.796875 62.203125 24.40625 63.796875 
L 30.703125 63.796875 
L 30.703125 6.796875 
L 43.90625 6.796875 
L 43.90625 0 
z
" id="SourceSansPro-Regular-49"/>
       </defs>
       <use xlink:href="#SourceSansPro-Regular-49"/>
       <use x="49.699997" xlink:href="#SourceSansPro-Regular-46"/>
       <use x="74.599991" xlink:href="#SourceSansPro-Regular-48"/>
      </g>
     </g>
    </g>
    <g id="ytick_4">
     <g id="line2d_4">
      <g>
       <use style="stroke:#000000;stroke-width:0.8;" x="43.67" xlink:href="#m14925197e6" y="85.929231"/>
      </g>
     </g>
     <g id="text_5">
      <!-- 1.5 -->
      <g transform="translate(24.23875 89.489387)scale(0.1 -0.1)">
       <use xlink:href="#SourceSansPro-Regular-49"/>
       <use x="49.699997" xlink:href="#SourceSansPro-Regular-46"/>
       <use x="74.599991" xlink:href="#SourceSansPro-Regular-53"/>
      </g>
     </g>
    </g>
    <g id="ytick_5">
     <g id="line2d_5">
      <g>
       <use style="stroke:#000000;stroke-width:0.8;" x="43.67" xlink:href="#m14925197e6" y="44.190769"/>
      </g>
     </g>
     <g id="text_6">
      <!-- 2.0 -->
      <g transform="translate(24.23875 47.750925)scale(0.1 -0.1)">
       <defs>
        <path d="M 4 0 
L 4 4.90625 
Q 11.203125 12.09375 16.796875 17.890625 
Q 22.40625 23.703125 26.203125 28.640625 
Q 30 33.59375 32 37.75 
Q 34 41.90625 34 45.796875 
Q 34 51.296875 31 54.796875 
Q 28 58.296875 21.90625 58.296875 
Q 17.90625 58.296875 14.5 56.046875 
Q 11.09375 53.796875 8.296875 50.59375 
L 3.59375 55.296875 
Q 7.59375 59.703125 12.09375 62.34375 
Q 16.59375 65 22.90625 65 
Q 31.796875 65 36.890625 59.84375 
Q 42 54.703125 42 46.203125 
Q 42 41.703125 40.046875 37.140625 
Q 38.09375 32.59375 34.640625 27.75 
Q 31.203125 22.90625 26.453125 17.65625 
Q 21.703125 12.40625 16 6.5 
Q 18.59375 6.703125 21.390625 6.890625 
Q 24.203125 7.09375 26.703125 7.09375 
L 45.203125 7.09375 
L 45.203125 0 
z
" id="SourceSansPro-Regular-50"/>
       </defs>
       <use xlink:href="#SourceSansPro-Regular-50"/>
       <use x="49.699997" xlink:href="#SourceSansPro-Regular-46"/>
       <use x="74.599991" xlink:href="#SourceSansPro-Regular-48"/>
      </g>
     </g>
    </g>
    <g id="text_7">
     <!-- intensity vs NOAH HSQC/CLIP-COSY -->
     <g transform="translate(18.148125 193.57)rotate(-90)scale(0.1 -0.1)">
      <defs>
       <path d="M 8.203125 0 
L 8.203125 48.59375 
L 16.40625 48.59375 
L 16.40625 0 
z
M 12.40625 58.59375 
Q 10 58.59375 8.34375 60.09375 
Q 6.703125 61.59375 6.703125 63.90625 
Q 6.703125 66.296875 8.34375 67.75 
Q 10 69.203125 12.40625 69.203125 
Q 14.796875 69.203125 16.4375 67.75 
Q 18.09375 66.296875 18.09375 63.90625 
Q 18.09375 61.59375 16.4375 60.09375 
Q 14.796875 58.59375 12.40625 58.59375 
z
" id="SourceSansPro-Regular-105"/>
       <path d="M 8.203125 0 
L 8.203125 48.59375 
L 15 48.59375 
L 15.703125 41.59375 
L 16 41.59375 
Q 19.5 45.09375 23.34375 47.4375 
Q 27.203125 49.796875 32.296875 49.796875 
Q 40 49.796875 43.546875 45 
Q 47.09375 40.203125 47.09375 30.796875 
L 47.09375 0 
L 38.90625 0 
L 38.90625 29.703125 
Q 38.90625 36.59375 36.703125 39.640625 
Q 34.5 42.703125 29.703125 42.703125 
Q 25.90625 42.703125 23 40.796875 
Q 20.09375 38.90625 16.40625 35.203125 
L 16.40625 0 
z
" id="SourceSansPro-Regular-110"/>
       <path d="M 23.5 -1.203125 
Q 19.59375 -1.203125 16.9375 0 
Q 14.296875 1.203125 12.640625 3.296875 
Q 11 5.40625 10.296875 8.40625 
Q 9.59375 11.40625 9.59375 15 
L 9.59375 41.90625 
L 2.40625 41.90625 
L 2.40625 48.09375 
L 10 48.59375 
L 11 62.203125 
L 17.90625 62.203125 
L 17.90625 48.59375 
L 31 48.59375 
L 31 41.90625 
L 17.90625 41.90625 
L 17.90625 14.90625 
Q 17.90625 10.40625 19.546875 7.953125 
Q 21.203125 5.5 25.40625 5.5 
Q 26.703125 5.5 28.203125 5.890625 
Q 29.703125 6.296875 30.90625 6.796875 
L 32.5 0.59375 
Q 30.5 -0.09375 28.140625 -0.640625 
Q 25.796875 -1.203125 23.5 -1.203125 
z
" id="SourceSansPro-Regular-116"/>
       <path d="M 9 -20.90625 
Q 7.296875 -20.90625 5.890625 -20.65625 
Q 4.5 -20.40625 3.296875 -19.90625 
L 4.90625 -13.40625 
Q 5.703125 -13.59375 6.703125 -13.84375 
Q 7.703125 -14.09375 8.59375 -14.09375 
Q 12.796875 -14.09375 15.4375 -11.140625 
Q 18.09375 -8.203125 19.59375 -3.703125 
L 20.703125 -0.09375 
L 1.203125 48.59375 
L 9.703125 48.59375 
L 19.59375 21.703125 
Q 20.703125 18.5 21.953125 14.953125 
Q 23.203125 11.40625 24.296875 8 
L 24.703125 8 
Q 25.796875 11.296875 26.796875 14.890625 
Q 27.796875 18.5 28.796875 21.703125 
L 37.5 48.59375 
L 45.5 48.59375 
L 27.203125 -4 
Q 25.90625 -7.59375 24.296875 -10.6875 
Q 22.703125 -13.796875 20.5 -16.046875 
Q 18.296875 -18.296875 15.5 -19.59375 
Q 12.703125 -20.90625 9 -20.90625 
z
" id="SourceSansPro-Regular-121"/>
       <path d="M 18.703125 0 
L 1.203125 48.59375 
L 9.703125 48.59375 
L 18.90625 21 
Q 20 17.40625 21.140625 13.796875 
Q 22.296875 10.203125 23.40625 6.703125 
L 23.796875 6.703125 
Q 24.90625 10.203125 26 13.796875 
Q 27.09375 17.40625 28.203125 21 
L 37.40625 48.59375 
L 45.5 48.59375 
L 28.296875 0 
z
" id="SourceSansPro-Regular-118"/>
       <path d="M 9 0 
L 9 65.59375 
L 17.59375 65.59375 
L 41.296875 24.40625 
L 48.40625 10.796875 
L 48.796875 10.796875 
Q 48.5 15.796875 48.140625 21.140625 
Q 47.796875 26.5 47.796875 31.703125 
L 47.796875 65.59375 
L 55.703125 65.59375 
L 55.703125 0 
L 47.09375 0 
L 23.296875 41.296875 
L 16.203125 54.796875 
L 15.796875 54.796875 
Q 16.203125 49.796875 16.546875 44.640625 
Q 16.90625 39.5 16.90625 34.296875 
L 16.90625 0 
z
" id="SourceSansPro-Regular-78"/>
       <path d="M 20.296875 36.703125 
L 17.203125 26.703125 
L 36.90625 26.703125 
L 33.796875 36.703125 
Q 32 42.203125 30.390625 47.640625 
Q 28.796875 53.09375 27.203125 58.796875 
L 26.796875 58.796875 
Q 25.296875 53.09375 23.6875 47.640625 
Q 22.09375 42.203125 20.296875 36.703125 
z
M 0.296875 0 
L 22.5 65.59375 
L 31.90625 65.59375 
L 54.09375 0 
L 45.203125 0 
L 39 20 
L 15.09375 20 
L 8.796875 0 
z
" id="SourceSansPro-Regular-65"/>
      </defs>
      <use xlink:href="#SourceSansPro-Regular-105"/>
      <use x="24.599991" xlink:href="#SourceSansPro-Regular-110"/>
      <use x="79.299988" xlink:href="#SourceSansPro-Regular-116"/>
      <use x="113.099976" xlink:href="#SourceSansPro-Regular-101"/>
      <use x="162.699966" xlink:href="#SourceSansPro-Regular-110"/>
      <use x="217.399963" xlink:href="#SourceSansPro-Regular-115"/>
      <use x="259.299957" xlink:href="#SourceSansPro-Regular-105"/>
      <use x="283.899948" xlink:href="#SourceSansPro-Regular-116"/>
      <use x="317.699936" xlink:href="#SourceSansPro-Regular-121"/>
      <use x="364.399933" xlink:href="#SourceSansPro-Regular-32"/>
      <use x="384.399918" xlink:href="#SourceSansPro-Regular-118"/>
      <use x="431.099915" xlink:href="#SourceSansPro-Regular-115"/>
      <use x="472.999908" xlink:href="#SourceSansPro-Regular-32"/>
      <use x="492.999893" xlink:href="#SourceSansPro-Regular-78"/>
      <use x="557.69989" xlink:href="#SourceSansPro-Regular-79"/>
      <use x="624.099884" xlink:href="#SourceSansPro-Regular-65"/>
      <use x="678.499878" xlink:href="#SourceSansPro-Regular-72"/>
      <use x="743.699875" xlink:href="#SourceSansPro-Regular-32"/>
      <use x="763.69986" xlink:href="#SourceSansPro-Regular-72"/>
      <use x="828.899857" xlink:href="#SourceSansPro-Regular-83"/>
      <use x="882.29985" xlink:href="#SourceSansPro-Regular-81"/>
      <use x="948.699844" xlink:href="#SourceSansPro-Regular-67"/>
      <use x="1005.799835" xlink:href="#SourceSansPro-Regular-47"/>
      <use x="1040.79982" xlink:href="#SourceSansPro-Regular-67"/>
      <use x="1097.899811" xlink:href="#SourceSansPro-Regular-76"/>
      <use x="1146.499802" xlink:href="#SourceSansPro-Regular-73"/>
      <use x="1172.799789" xlink:href="#SourceSansPro-Regular-80"/>
      <use x="1229.39978" xlink:href="#SourceSansPro-Regular-45"/>
      <use x="1260.499771" xlink:href="#SourceSansPro-Regular-67"/>
      <use x="1317.599762" xlink:href="#SourceSansPro-Regular-79"/>
      <use x="1383.999756" xlink:href="#SourceSansPro-Regular-83"/>
      <use x="1437.39975" xlink:href="#SourceSansPro-Regular-89"/>
     </g>
    </g>
   </g>
   <g id="line2d_6">
    <path clip-path="url(#pb5a2098c62)" d="M 43.67 127.667692 
L 225.285 127.667692 
" style="fill:none;stroke:#808080;stroke-dasharray:1.85,0.8;stroke-dashoffset:0;stroke-width:0.5;"/>
   </g>
   <g id="patch_3">
    <path d="M 43.67 227.84 
L 43.67 10.8 
" style="fill:none;stroke:#000000;stroke-linecap:square;stroke-linejoin:miter;stroke-width:1.3;"/>
   </g>
   <g id="patch_4">
    <path d="M 225.285 227.84 
L 225.285 10.8 
" style="fill:none;stroke:#000000;stroke-linecap:square;stroke-linejoin:miter;stroke-width:1.3;"/>
   </g>
   <g id="patch_5">
    <path d="M 43.67 227.84 
L 225.285 227.84 
" style="fill:none;stroke:#000000;stroke-linecap:square;stroke-linejoin:miter;stroke-width:1.3;"/>
   </g>
   <g id="patch_6">
    <path d="M 43.67 10.8 
L 225.285 10.8 
" style="fill:none;stroke:#000000;stroke-linecap:square;stroke-linejoin:miter;stroke-width:1.3;"/>
   </g>
   <g id="PathCollection_5">
    <defs>
     <path d="M 0 2 
C 0.530406 2 1.03916 1.789267 1.414214 1.414214 
C 1.789267 1.03916 2 0.530406 2 -0 
C 2 -0.530406 1.789267 -1.03916 1.414214 -1.414214 
C 1.03916 -1.789267 0.530406 -2 0 -2 
C -0.530406 -2 -1.03916 -1.789267 -1.414214 -1.414214 
C -1.789267 -1.03916 -2 -0.530406 -2 0 
C -2 0.530406 -1.789267 1.03916 -1.414214 1.414214 
C -1.03916 1.789267 -0.530406 2 0 2 
z
" id="C0_0_00e3a5ca1b"/>
    </defs>
    <g clip-path="url(#pb5a2098c62)">
     <use style="fill:#4c72b0;" x="81.50122" xlink:href="#C0_0_00e3a5ca1b" y="37.537912"/>
    </g>
    <g clip-path="url(#pb5a2098c62)">
     <use style="fill:#4c72b0;" x="78.840194" xlink:href="#C0_0_00e3a5ca1b" y="68.049442"/>
    </g>
    <g clip-path="url(#pb5a2098c62)">
     <use style="fill:#4c72b0;" x="77.339833" xlink:href="#C0_0_00e3a5ca1b" y="63.958948"/>
    </g>
    <g clip-path="url(#pb5a2098c62)">
     <use style="fill:#4c72b0;" x="82.354718" xlink:href="#C0_0_00e3a5ca1b" y="57.688823"/>
    </g>
    <g clip-path="url(#pb5a2098c62)">
     <use style="fill:#4c72b0;" x="83.605954" xlink:href="#C0_0_00e3a5ca1b" y="76.547488"/>
    </g>
   </g>
   <g id="PathCollection_6">
    <defs>
     <path d="M 0 2 
C 0.530406 2 1.03916 1.789267 1.414214 1.414214 
C 1.789267 1.03916 2 0.530406 2 -0 
C 2 -0.530406 1.789267 -1.03916 1.414214 -1.414214 
C 1.03916 -1.789267 0.530406 -2 0 -2 
C -0.530406 -2 -1.03916 -1.789267 -1.414214 -1.414214 
C -1.789267 -1.03916 -2 -0.530406 -2 0 
C -2 0.530406 -1.789267 1.03916 -1.414214 1.414214 
C -1.03916 1.789267 -0.530406 2 0 2 
z
" id="C1_0_95f734d7ec"/>
    </defs>
    <g clip-path="url(#pb5a2098c62)">
     <use style="fill:#dd8452;" x="118.494147" xlink:href="#C1_0_95f734d7ec" y="102.910913"/>
    </g>
    <g clip-path="url(#pb5a2098c62)">
     <use style="fill:#dd8452;" x="115.806575" xlink:href="#C1_0_95f734d7ec" y="96.553115"/>
    </g>
    <g clip-path="url(#pb5a2098c62)">
     <use style="fill:#dd8452;" x="115.749704" xlink:href="#C1_0_95f734d7ec" y="112.781415"/>
    </g>
    <g clip-path="url(#pb5a2098c62)">
     <use style="fill:#dd8452;" x="120.748945" xlink:href="#C1_0_95f734d7ec" y="112.866008"/>
    </g>
    <g clip-path="url(#pb5a2098c62)">
     <use style="fill:#dd8452;" x="116.232955" xlink:href="#C1_0_95f734d7ec" y="109.939474"/>
    </g>
    <g clip-path="url(#pb5a2098c62)">
     <use style="fill:#dd8452;" x="116.635781" xlink:href="#C1_0_95f734d7ec" y="111.918683"/>
    </g>
    <g clip-path="url(#pb5a2098c62)">
     <use style="fill:#dd8452;" x="116.82213" xlink:href="#C1_0_95f734d7ec" y="84.110994"/>
    </g>
    <g clip-path="url(#pb5a2098c62)">
     <use style="fill:#dd8452;" x="115.392542" xlink:href="#C1_0_95f734d7ec" y="96.294999"/>
    </g>
    <g clip-path="url(#pb5a2098c62)">
     <use style="fill:#dd8452;" x="115.502425" xlink:href="#C1_0_95f734d7ec" y="108.283924"/>
    </g>
    <g clip-path="url(#pb5a2098c62)">
     <use style="fill:#dd8452;" x="118.258967" xlink:href="#C1_0_95f734d7ec" y="101.966198"/>
    </g>
    <g clip-path="url(#pb5a2098c62)">
     <use style="fill:#dd8452;" x="113.038885" xlink:href="#C1_0_95f734d7ec" y="109.852773"/>
    </g>
    <g clip-path="url(#pb5a2098c62)">
     <use style="fill:#dd8452;" x="117.646902" xlink:href="#C1_0_95f734d7ec" y="89.178649"/>
    </g>
    <g clip-path="url(#pb5a2098c62)">
     <use style="fill:#dd8452;" x="118.022503" xlink:href="#C1_0_95f734d7ec" y="95.595818"/>
    </g>
    <g clip-path="url(#pb5a2098c62)">
     <use style="fill:#dd8452;" x="116.221795" xlink:href="#C1_0_95f734d7ec" y="79.842427"/>
    </g>
   </g>
   <g id="PathCollection_7">
    <defs>
     <path d="M 0 2 
C 0.530406 2 1.03916 1.789267 1.414214 1.414214 
C 1.789267 1.03916 2 0.530406 2 -0 
C 2 -0.530406 1.789267 -1.03916 1.414214 -1.414214 
C 1.03916 -1.789267 0.530406 -2 0 -2 
C -0.530406 -2 -1.03916 -1.789267 -1.414214 -1.414214 
C -1.789267 -1.03916 -2 -0.530406 -2 0 
C -2 0.530406 -1.789267 1.03916 -1.414214 1.414214 
C -1.03916 1.789267 -0.530406 2 0 2 
z
" id="C2_0_ad9ffaa9e0"/>
    </defs>
    <g clip-path="url(#pb5a2098c62)">
     <use style="fill:#55a868;" x="148.322695" xlink:href="#C2_0_ad9ffaa9e0" y="77.06629"/>
    </g>
    <g clip-path="url(#pb5a2098c62)">
     <use style="fill:#55a868;" x="152.382796" xlink:href="#C2_0_ad9ffaa9e0" y="80.903801"/>
    </g>
   </g>
   <g id="PathCollection_8">
    <defs>
     <path d="M 0 2 
C 0.530406 2 1.03916 1.789267 1.414214 1.414214 
C 1.789267 1.03916 2 0.530406 2 -0 
C 2 -0.530406 1.789267 -1.03916 1.414214 -1.414214 
C 1.03916 -1.789267 0.530406 -2 0 -2 
C -0.530406 -2 -1.03916 -1.789267 -1.414214 -1.414214 
C -1.789267 -1.03916 -2 -0.530406 -2 0 
C -2 0.530406 -1.789267 1.03916 -1.414214 1.414214 
C -1.03916 1.789267 -0.530406 2 0 2 
z
" id="C3_0_834e6b2dd7"/>
    </defs>
    <g clip-path="url(#pb5a2098c62)">
     <use style="fill:#c44e52;" x="185.883632" xlink:href="#C3_0_834e6b2dd7" y="201.887473"/>
    </g>
    <g clip-path="url(#pb5a2098c62)">
     <use style="fill:#c44e52;" x="186.903823" xlink:href="#C3_0_834e6b2dd7" y="201.367459"/>
    </g>
    <g clip-path="url(#pb5a2098c62)">
     <use style="fill:#c44e52;" x="186.651945" xlink:href="#C3_0_834e6b2dd7" y="203.930042"/>
    </g>
    <g clip-path="url(#pb5a2098c62)">
     <use style="fill:#c44e52;" x="191.140824" xlink:href="#C3_0_834e6b2dd7" y="200.568601"/>
    </g>
    <g clip-path="url(#pb5a2098c62)">
     <use style="fill:#c44e52;" x="189.05379" xlink:href="#C3_0_834e6b2dd7" y="198.664089"/>
    </g>
    <g clip-path="url(#pb5a2098c62)">
     <use style="fill:#c44e52;" x="187.130663" xlink:href="#C3_0_834e6b2dd7" y="201.18978"/>
    </g>
    <g clip-path="url(#pb5a2098c62)">
     <use style="fill:#c44e52;" x="191.083241" xlink:href="#C3_0_834e6b2dd7" y="204.964085"/>
    </g>
    <g clip-path="url(#pb5a2098c62)">
     <use style="fill:#c44e52;" x="190.84791" xlink:href="#C3_0_834e6b2dd7" y="194.860332"/>
    </g>
    <g clip-path="url(#pb5a2098c62)">
     <use style="fill:#c44e52;" x="188.699282" xlink:href="#C3_0_834e6b2dd7" y="199.115798"/>
    </g>
    <g clip-path="url(#pb5a2098c62)">
     <use style="fill:#c44e52;" x="189.224608" xlink:href="#C3_0_834e6b2dd7" y="202.416155"/>
    </g>
    <g clip-path="url(#pb5a2098c62)">
     <use style="fill:#c44e52;" x="186.778788" xlink:href="#C3_0_834e6b2dd7" y="198.621895"/>
    </g>
    <g clip-path="url(#pb5a2098c62)">
     <use style="fill:#c44e52;" x="189.321092" xlink:href="#C3_0_834e6b2dd7" y="197.646745"/>
    </g>
    <g clip-path="url(#pb5a2098c62)">
     <use style="fill:#c44e52;" x="185.377214" xlink:href="#C3_0_834e6b2dd7" y="195.174595"/>
    </g>
    <g clip-path="url(#pb5a2098c62)">
     <use style="fill:#c44e52;" x="189.953224" xlink:href="#C3_0_834e6b2dd7" y="202.749098"/>
    </g>
    <g clip-path="url(#pb5a2098c62)">
     <use style="fill:#c44e52;" x="187.310406" xlink:href="#C3_0_834e6b2dd7" y="204.701171"/>
    </g>
    <g clip-path="url(#pb5a2098c62)">
     <use style="fill:#c44e52;" x="193.055629" xlink:href="#C3_0_834e6b2dd7" y="195.260882"/>
    </g>
    <g clip-path="url(#pb5a2098c62)">
     <use style="fill:#c44e52;" x="185.486093" xlink:href="#C3_0_834e6b2dd7" y="197.824937"/>
    </g>
    <g clip-path="url(#pb5a2098c62)">
     <use style="fill:#c44e52;" x="185.900635" xlink:href="#C3_0_834e6b2dd7" y="198.589751"/>
    </g>
    <g clip-path="url(#pb5a2098c62)">
     <use style="fill:#c44e52;" x="188.799605" xlink:href="#C3_0_834e6b2dd7" y="201.56193"/>
    </g>
    <g clip-path="url(#pb5a2098c62)">
     <use style="fill:#c44e52;" x="186.452279" xlink:href="#C3_0_834e6b2dd7" y="200.181353"/>
    </g>
    <g clip-path="url(#pb5a2098c62)">
     <use style="fill:#c44e52;" x="191.224515" xlink:href="#C3_0_834e6b2dd7" y="202.884569"/>
    </g>
    <g clip-path="url(#pb5a2098c62)">
     <use style="fill:#c44e52;" x="188.691802" xlink:href="#C3_0_834e6b2dd7" y="203.575375"/>
    </g>
    <g clip-path="url(#pb5a2098c62)">
     <use style="fill:#c44e52;" x="185.827214" xlink:href="#C3_0_834e6b2dd7" y="197.692637"/>
    </g>
    <g clip-path="url(#pb5a2098c62)">
     <use style="fill:#c44e52;" x="191.771749" xlink:href="#C3_0_834e6b2dd7" y="204.045137"/>
    </g>
    <g clip-path="url(#pb5a2098c62)">
     <use style="fill:#c44e52;" x="189.28555" xlink:href="#C3_0_834e6b2dd7" y="201.756846"/>
    </g>
    <g clip-path="url(#pb5a2098c62)">
     <use style="fill:#c44e52;" x="191.836367" xlink:href="#C3_0_834e6b2dd7" y="205.63924"/>
    </g>
    <g clip-path="url(#pb5a2098c62)">
     <use style="fill:#c44e52;" x="186.313251" xlink:href="#C3_0_834e6b2dd7" y="198.282844"/>
    </g>
    <g clip-path="url(#pb5a2098c62)">
     <use style="fill:#c44e52;" x="184.578694" xlink:href="#C3_0_834e6b2dd7" y="198.346992"/>
    </g>
    <g clip-path="url(#pb5a2098c62)">
     <use style="fill:#c44e52;" x="186.623745" xlink:href="#C3_0_834e6b2dd7" y="205.623157"/>
    </g>
    <g clip-path="url(#pb5a2098c62)">
     <use style="fill:#c44e52;" x="185.577008" xlink:href="#C3_0_834e6b2dd7" y="202.846539"/>
    </g>
    <g clip-path="url(#pb5a2098c62)">
     <use style="fill:#c44e52;" x="185.224137" xlink:href="#C3_0_834e6b2dd7" y="198.874768"/>
    </g>
    <g clip-path="url(#pb5a2098c62)">
     <use style="fill:#c44e52;" x="189.406121" xlink:href="#C3_0_834e6b2dd7" y="200.95903"/>
    </g>
    <g clip-path="url(#pb5a2098c62)">
     <use style="fill:#c44e52;" x="190.653686" xlink:href="#C3_0_834e6b2dd7" y="200.39278"/>
    </g>
    <g clip-path="url(#pb5a2098c62)">
     <use style="fill:#c44e52;" x="187.411287" xlink:href="#C3_0_834e6b2dd7" y="198.089002"/>
    </g>
    <g clip-path="url(#pb5a2098c62)">
     <use style="fill:#c44e52;" x="188.804977" xlink:href="#C3_0_834e6b2dd7" y="198.073529"/>
    </g>
    <g clip-path="url(#pb5a2098c62)">
     <use style="fill:#c44e52;" x="193.233212" xlink:href="#C3_0_834e6b2dd7" y="201.867904"/>
    </g>
    <g clip-path="url(#pb5a2098c62)">
     <use style="fill:#c44e52;" x="193.363803" xlink:href="#C3_0_834e6b2dd7" y="199.444447"/>
    </g>
    <g clip-path="url(#pb5a2098c62)">
     <use style="fill:#c44e52;" x="186.900244" xlink:href="#C3_0_834e6b2dd7" y="202.454751"/>
    </g>
    <g clip-path="url(#pb5a2098c62)">
     <use style="fill:#c44e52;" x="189.700922" xlink:href="#C3_0_834e6b2dd7" y="201.743527"/>
    </g>
    <g clip-path="url(#pb5a2098c62)">
     <use style="fill:#c44e52;" x="189.144239" xlink:href="#C3_0_834e6b2dd7" y="204.697882"/>
    </g>
    <g clip-path="url(#pb5a2098c62)">
     <use style="fill:#c44e52;" x="192.753401" xlink:href="#C3_0_834e6b2dd7" y="201.551673"/>
    </g>
    <g clip-path="url(#pb5a2098c62)">
     <use style="fill:#c44e52;" x="188.632299" xlink:href="#C3_0_834e6b2dd7" y="195.721187"/>
    </g>
    <g clip-path="url(#pb5a2098c62)">
     <use style="fill:#c44e52;" x="189.82505" xlink:href="#C3_0_834e6b2dd7" y="203.043826"/>
    </g>
    <g clip-path="url(#pb5a2098c62)">
     <use style="fill:#c44e52;" x="187.66219" xlink:href="#C3_0_834e6b2dd7" y="196.624194"/>
    </g>
    <g clip-path="url(#pb5a2098c62)">
     <use style="fill:#c44e52;" x="191.141728" xlink:href="#C3_0_834e6b2dd7" y="195.916796"/>
    </g>
    <g clip-path="url(#pb5a2098c62)">
     <use style="fill:#c44e52;" x="188.017978" xlink:href="#C3_0_834e6b2dd7" y="211.842421"/>
    </g>
    <g clip-path="url(#pb5a2098c62)">
     <use style="fill:#c44e52;" x="186.589379" xlink:href="#C3_0_834e6b2dd7" y="204.754913"/>
    </g>
    <g clip-path="url(#pb5a2098c62)">
     <use style="fill:#c44e52;" x="188.715391" xlink:href="#C3_0_834e6b2dd7" y="196.096873"/>
    </g>
    <g clip-path="url(#pb5a2098c62)">
     <use style="fill:#c44e52;" x="187.71395" xlink:href="#C3_0_834e6b2dd7" y="191.896127"/>
    </g>
    <g clip-path="url(#pb5a2098c62)">
     <use style="fill:#c44e52;" x="185.848607" xlink:href="#C3_0_834e6b2dd7" y="196.522155"/>
    </g>
    <g clip-path="url(#pb5a2098c62)">
     <use style="fill:#c44e52;" x="188.240633" xlink:href="#C3_0_834e6b2dd7" y="202.401254"/>
    </g>
    <g clip-path="url(#pb5a2098c62)">
     <use style="fill:#c44e52;" x="187.046893" xlink:href="#C3_0_834e6b2dd7" y="192.580121"/>
    </g>
   </g>
   <g id="text_8">
    <!-- (1.80) -->
    <g style="fill:#4c72b0;" transform="translate(68.262531 223.4992)scale(0.1 -0.1)">
     <defs>
      <path d="M 21.40625 -17.59375 
Q 15.203125 -7.59375 11.703125 3.5 
Q 8.203125 14.59375 8.203125 27.796875 
Q 8.203125 41 11.703125 52.046875 
Q 15.203125 63.09375 21.40625 73.203125 
L 26.5 70.796875 
Q 20.703125 61.203125 17.84375 50.25 
Q 15 39.296875 15 27.796875 
Q 15 16.296875 17.84375 5.34375 
Q 20.703125 -5.59375 26.5 -15.203125 
z
" id="SourceSansPro-Regular-40"/>
      <path d="M 25 -1.203125 
Q 20.5 -1.203125 16.640625 0.09375 
Q 12.796875 1.40625 10.046875 3.75 
Q 7.296875 6.09375 5.6875 9.296875 
Q 4.09375 12.5 4.09375 16.296875 
Q 4.09375 19.40625 5.140625 22.046875 
Q 6.203125 24.703125 7.84375 26.84375 
Q 9.5 29 11.640625 30.640625 
Q 13.796875 32.296875 16.09375 33.5 
L 16.09375 33.90625 
Q 12.59375 36.40625 9.890625 39.953125 
Q 7.203125 43.5 7.203125 48.59375 
Q 7.203125 52.296875 8.59375 55.296875 
Q 10 58.296875 12.390625 60.4375 
Q 14.796875 62.59375 18.09375 63.796875 
Q 21.40625 65 25.296875 65 
Q 29.5 65 32.796875 63.75 
Q 36.09375 62.5 38.4375 60.25 
Q 40.796875 58 42.046875 54.84375 
Q 43.296875 51.703125 43.296875 48 
Q 43.296875 45.5 42.4375 43.203125 
Q 41.59375 40.90625 40.34375 38.90625 
Q 39.09375 36.90625 37.546875 35.296875 
Q 36 33.703125 34.5 32.59375 
L 34.5 32.203125 
Q 36.59375 31 38.59375 29.453125 
Q 40.59375 27.90625 42.140625 25.953125 
Q 43.703125 24 44.640625 21.5 
Q 45.59375 19 45.59375 15.796875 
Q 45.59375 12.203125 44.09375 9.09375 
Q 42.59375 6 39.890625 3.703125 
Q 37.203125 1.40625 33.390625 0.09375 
Q 29.59375 -1.203125 25 -1.203125 
z
M 29.5 34.796875 
Q 32.703125 37.703125 34.453125 40.890625 
Q 36.203125 44.09375 36.203125 47.59375 
Q 36.203125 52.40625 33.296875 55.65625 
Q 30.40625 58.90625 25.09375 58.90625 
Q 20.59375 58.90625 17.6875 56.09375 
Q 14.796875 53.296875 14.796875 48.59375 
Q 14.796875 45.703125 16 43.640625 
Q 17.203125 41.59375 19.25 40 
Q 21.296875 38.40625 23.9375 37.15625 
Q 26.59375 35.90625 29.5 34.796875 
z
M 25.203125 4.90625 
Q 30.796875 4.90625 34.25 8 
Q 37.703125 11.09375 37.703125 16.09375 
Q 37.703125 19.203125 36.296875 21.390625 
Q 34.90625 23.59375 32.5 25.25 
Q 30.09375 26.90625 26.9375 28.25 
Q 23.796875 29.59375 20.40625 31 
Q 16.59375 28.40625 14.046875 24.953125 
Q 11.5 21.5 11.5 17.09375 
Q 11.5 14.40625 12.546875 12.203125 
Q 13.59375 10 15.4375 8.34375 
Q 17.296875 6.703125 19.796875 5.796875 
Q 22.296875 4.90625 25.203125 4.90625 
z
" id="SourceSansPro-Regular-56"/>
      <path d="M 8.90625 -17.59375 
L 3.796875 -15.203125 
Q 9.59375 -5.59375 12.4375 5.34375 
Q 15.296875 16.296875 15.296875 27.796875 
Q 15.296875 39.296875 12.4375 50.25 
Q 9.59375 61.203125 3.796875 70.796875 
L 8.90625 73.203125 
Q 15.09375 63.09375 18.59375 52.046875 
Q 22.09375 41 22.09375 27.796875 
Q 22.09375 14.59375 18.59375 3.5 
Q 15.09375 -7.59375 8.90625 -17.59375 
z
" id="SourceSansPro-Regular-41"/>
     </defs>
     <use xlink:href="#SourceSansPro-Regular-40"/>
     <use x="30.299988" xlink:href="#SourceSansPro-Regular-49"/>
     <use x="79.999985" xlink:href="#SourceSansPro-Regular-46"/>
     <use x="104.899979" xlink:href="#SourceSansPro-Regular-56"/>
     <use x="154.599976" xlink:href="#SourceSansPro-Regular-48"/>
     <use x="204.299973" xlink:href="#SourceSansPro-Regular-41"/>
    </g>
   </g>
   <g id="text_9">
    <!-- (1.32) -->
    <g style="fill:#dd8452;" transform="translate(104.585531 223.4992)scale(0.1 -0.1)">
     <defs>
      <path d="M 23.59375 -1.203125 
Q 19.796875 -1.203125 16.640625 -0.453125 
Q 13.5 0.296875 10.890625 1.546875 
Q 8.296875 2.796875 6.25 4.390625 
Q 4.203125 6 2.59375 7.796875 
L 6.796875 13.203125 
Q 9.703125 10.203125 13.546875 7.890625 
Q 17.40625 5.59375 23.09375 5.59375 
Q 28.90625 5.59375 32.59375 8.75 
Q 36.296875 11.90625 36.296875 17.296875 
Q 36.296875 20.09375 35.25 22.4375 
Q 34.203125 24.796875 31.796875 26.5 
Q 29.40625 28.203125 25.5 29.09375 
Q 21.59375 30 15.90625 30 
L 15.90625 36.296875 
Q 21 36.296875 24.453125 37.1875 
Q 27.90625 38.09375 30.046875 39.6875 
Q 32.203125 41.296875 33.09375 43.5 
Q 34 45.703125 34 48.203125 
Q 34 52.90625 31.046875 55.59375 
Q 28.09375 58.296875 23 58.296875 
Q 19 58.296875 15.640625 56.5 
Q 12.296875 54.703125 9.40625 51.796875 
L 5 57 
Q 8.703125 60.5 13.140625 62.75 
Q 17.59375 65 23.296875 65 
Q 27.5 65 31 63.890625 
Q 34.5 62.796875 37.046875 60.75 
Q 39.59375 58.703125 41 55.703125 
Q 42.40625 52.703125 42.40625 48.796875 
Q 42.40625 43 39.203125 39.296875 
Q 36 35.59375 30.796875 33.59375 
L 30.796875 33.203125 
Q 33.703125 32.5 36.203125 31.140625 
Q 38.703125 29.796875 40.59375 27.75 
Q 42.5 25.703125 43.546875 23 
Q 44.59375 20.296875 44.59375 17 
Q 44.59375 12.796875 42.9375 9.390625 
Q 41.296875 6 38.4375 3.640625 
Q 35.59375 1.296875 31.796875 0.046875 
Q 28 -1.203125 23.59375 -1.203125 
z
" id="SourceSansPro-Regular-51"/>
     </defs>
     <use xlink:href="#SourceSansPro-Regular-40"/>
     <use x="30.299988" xlink:href="#SourceSansPro-Regular-49"/>
     <use x="79.999985" xlink:href="#SourceSansPro-Regular-46"/>
     <use x="104.899979" xlink:href="#SourceSansPro-Regular-51"/>
     <use x="154.599976" xlink:href="#SourceSansPro-Regular-50"/>
     <use x="204.299973" xlink:href="#SourceSansPro-Regular-41"/>
    </g>
   </g>
   <g id="text_10">
    <!-- (1.58) -->
    <g style="fill:#55a868;" transform="translate(140.908531 223.4992)scale(0.1 -0.1)">
     <use xlink:href="#SourceSansPro-Regular-40"/>
     <use x="30.299988" xlink:href="#SourceSansPro-Regular-49"/>
     <use x="79.999985" xlink:href="#SourceSansPro-Regular-46"/>
     <use x="104.899979" xlink:href="#SourceSansPro-Regular-53"/>
     <use x="154.599976" xlink:href="#SourceSansPro-Regular-56"/>
     <use x="204.299973" xlink:href="#SourceSansPro-Regular-41"/>
    </g>
   </g>
   <g id="text_11">
    <!-- (0.13) -->
    <g style="fill:#c44e52;" transform="translate(177.231531 223.4992)scale(0.1 -0.1)">
     <use xlink:href="#SourceSansPro-Regular-40"/>
     <use x="30.299988" xlink:href="#SourceSansPro-Regular-48"/>
     <use x="79.999985" xlink:href="#SourceSansPro-Regular-46"/>
     <use x="104.899979" xlink:href="#SourceSansPro-Regular-49"/>
     <use x="154.599976" xlink:href="#SourceSansPro-Regular-51"/>
     <use x="204.299973" xlink:href="#SourceSansPro-Regular-41"/>
    </g>
   </g>
   <g id="text_12">
    <!-- (a) -->
    <g transform="translate(47.3023 26.8208)scale(0.16 -0.16)">
     <defs>
      <path d="M 20.40625 -17.90625 
Q 14.09375 -7.59375 10.640625 3.5 
Q 7.203125 14.59375 7.203125 27.796875 
Q 7.203125 41 10.640625 52.09375 
Q 14.09375 63.203125 20.40625 73.5 
L 29.59375 69.703125 
Q 24.09375 59.90625 21.59375 49.203125 
Q 19.09375 38.5 19.09375 27.796875 
Q 19.09375 17.09375 21.59375 6.390625 
Q 24.09375 -4.296875 29.59375 -14.09375 
z
" id="SourceSansPro-Bold-40"/>
      <path d="M 19 -1.203125 
Q 15.59375 -1.203125 12.84375 -0.046875 
Q 10.09375 1.09375 8.1875 3.140625 
Q 6.296875 5.203125 5.25 7.890625 
Q 4.203125 10.59375 4.203125 13.796875 
Q 4.203125 21.59375 10.796875 26 
Q 17.40625 30.40625 32.09375 31.90625 
Q 31.90625 35.203125 30.15625 37.140625 
Q 28.40625 39.09375 24.296875 39.09375 
Q 21.09375 39.09375 17.9375 37.890625 
Q 14.796875 36.703125 11.203125 34.59375 
L 5.90625 44.296875 
Q 10.703125 47.203125 15.953125 49 
Q 21.203125 50.796875 27.09375 50.796875 
Q 36.703125 50.796875 41.75 45.34375 
Q 46.796875 39.90625 46.796875 28.40625 
L 46.796875 0 
L 34.796875 0 
L 33.796875 5.09375 
L 33.40625 5.09375 
Q 30.203125 2.296875 26.703125 0.546875 
Q 23.203125 -1.203125 19 -1.203125 
z
M 24 10.203125 
Q 26.5 10.203125 28.296875 11.296875 
Q 30.09375 12.40625 32.09375 14.40625 
L 32.09375 23.09375 
Q 24.296875 22 21.296875 19.890625 
Q 18.296875 17.796875 18.296875 14.90625 
Q 18.296875 12.5 19.84375 11.34375 
Q 21.40625 10.203125 24 10.203125 
z
" id="SourceSansPro-Bold-97"/>
      <path d="M 14 -17.90625 
L 4.796875 -14.09375 
Q 10.40625 -4.296875 12.90625 6.390625 
Q 15.40625 17.09375 15.40625 27.796875 
Q 15.40625 38.5 12.90625 49.203125 
Q 10.40625 59.90625 4.796875 69.703125 
L 14 73.5 
Q 20.296875 63.203125 23.75 52.09375 
Q 27.203125 41 27.203125 27.796875 
Q 27.203125 14.59375 23.75 3.5 
Q 20.296875 -7.59375 14 -17.90625 
z
" id="SourceSansPro-Bold-41"/>
     </defs>
     <use xlink:href="#SourceSansPro-Bold-40"/>
     <use x="34.399994" xlink:href="#SourceSansPro-Bold-97"/>
     <use x="87.099991" xlink:href="#SourceSansPro-Bold-41"/>
    </g>
   </g>
   <g id="legend_1">
    <g id="patch_7">
     <path d="M 157.985 66.48125 
L 218.285 66.48125 
Q 220.285 66.48125 220.285 64.48125 
L 220.285 17.8 
Q 220.285 15.8 218.285 15.8 
L 157.985 15.8 
Q 155.985 15.8 155.985 17.8 
L 155.985 64.48125 
Q 155.985 66.48125 157.985 66.48125 
z
" style="fill:#ffffff;opacity:0.8;stroke:#cccccc;stroke-linejoin:miter;"/>
    </g>
    <g id="PathCollection_9">
     <path d="M 162.485 26.295313 
C 163.015406 26.295313 163.52416 26.08458 163.899214 25.709526 
C 164.274267 25.334472 164.485 24.825719 164.485 24.295313 
C 164.485 23.764906 164.274267 23.256153 163.899214 22.881099 
C 163.52416 22.506045 163.015406 22.295313 162.485 22.295313 
C 161.954594 22.295313 161.44584 22.506045 161.070786 22.881099 
C 160.695733 23.256153 160.485 23.764906 160.485 24.295313 
C 160.485 24.825719 160.695733 25.334472 161.070786 25.709526 
C 161.44584 26.08458 161.954594 26.295313 162.485 26.295313 
z
" style="fill:#4c72b0;"/>
    </g>
    <g id="text_13">
     <!-- HSQC CH -->
     <g transform="translate(172.985 26.920313)scale(0.1 -0.1)">
      <use xlink:href="#SourceSansPro-Regular-72"/>
      <use x="65.199997" xlink:href="#SourceSansPro-Regular-83"/>
      <use x="118.599991" xlink:href="#SourceSansPro-Regular-81"/>
      <use x="184.999985" xlink:href="#SourceSansPro-Regular-67"/>
      <use x="242.099976" xlink:href="#SourceSansPro-Regular-32"/>
      <use x="262.09996" xlink:href="#SourceSansPro-Regular-67"/>
      <use x="319.199951" xlink:href="#SourceSansPro-Regular-72"/>
     </g>
    </g>
    <g id="PathCollection_10">
     <path d="M 162.485 37.465625 
C 163.015406 37.465625 163.52416 37.254892 163.899214 36.879839 
C 164.274267 36.504785 164.485 35.996031 164.485 35.465625 
C 164.485 34.935219 164.274267 34.426465 163.899214 34.051411 
C 163.52416 33.676358 163.015406 33.465625 162.485 33.465625 
C 161.954594 33.465625 161.44584 33.676358 161.070786 34.051411 
C 160.695733 34.426465 160.485 34.935219 160.485 35.465625 
C 160.485 35.996031 160.695733 36.504785 161.070786 36.879839 
C 161.44584 37.254892 161.954594 37.465625 162.485 37.465625 
z
" style="fill:#dd8452;"/>
    </g>
    <g id="text_14">
     <!-- HSQC CH$_2$ -->
     <g transform="translate(172.985 38.090625)scale(0.1 -0.1)">
      <defs>
       <path d="M 19.1875 8.296875 
L 53.609375 8.296875 
L 53.609375 0 
L 7.328125 0 
L 7.328125 8.296875 
Q 12.9375 14.109375 22.625 23.890625 
Q 32.328125 33.6875 34.8125 36.53125 
Q 39.546875 41.84375 41.421875 45.53125 
Q 43.3125 49.21875 43.3125 52.78125 
Q 43.3125 58.59375 39.234375 62.25 
Q 35.15625 65.921875 28.609375 65.921875 
Q 23.96875 65.921875 18.8125 64.3125 
Q 13.671875 62.703125 7.8125 59.421875 
L 7.8125 69.390625 
Q 13.765625 71.78125 18.9375 73 
Q 24.125 74.21875 28.421875 74.21875 
Q 39.75 74.21875 46.484375 68.546875 
Q 53.21875 62.890625 53.21875 53.421875 
Q 53.21875 48.921875 51.53125 44.890625 
Q 49.859375 40.875 45.40625 35.40625 
Q 44.1875 33.984375 37.640625 27.21875 
Q 31.109375 20.453125 19.1875 8.296875 
z
" id="DejaVuSans-50"/>
      </defs>
      <use transform="translate(0 0.203125)" xlink:href="#SourceSansPro-Regular-72"/>
      <use transform="translate(65.199997 0.203125)" xlink:href="#SourceSansPro-Regular-83"/>
      <use transform="translate(118.599991 0.203125)" xlink:href="#SourceSansPro-Regular-81"/>
      <use transform="translate(184.999985 0.203125)" xlink:href="#SourceSansPro-Regular-67"/>
      <use transform="translate(242.099976 0.203125)" xlink:href="#SourceSansPro-Regular-32"/>
      <use transform="translate(262.09996 0.203125)" xlink:href="#SourceSansPro-Regular-67"/>
      <use transform="translate(319.199951 0.203125)" xlink:href="#SourceSansPro-Regular-72"/>
      <use transform="translate(385.356979 -16.203125)scale(0.7)" xlink:href="#DejaVuSans-50"/>
     </g>
    </g>
    <g id="PathCollection_11">
     <path d="M 162.485 48.635938 
C 163.015406 48.635938 163.52416 48.425205 163.899214 48.050151 
C 164.274267 47.675097 164.485 47.166344 164.485 46.635938 
C 164.485 46.105531 164.274267 45.596778 163.899214 45.221724 
C 163.52416 44.84667 163.015406 44.635938 162.485 44.635938 
C 161.954594 44.635938 161.44584 44.84667 161.070786 45.221724 
C 160.695733 45.596778 160.485 46.105531 160.485 46.635938 
C 160.485 47.166344 160.695733 47.675097 161.070786 48.050151 
C 161.44584 48.425205 161.954594 48.635938 162.485 48.635938 
z
" style="fill:#55a868;"/>
    </g>
    <g id="text_15">
     <!-- HSQC CH$_3$ -->
     <g transform="translate(172.985 49.260938)scale(0.1 -0.1)">
      <defs>
       <path d="M 40.578125 39.3125 
Q 47.65625 37.796875 51.625 33 
Q 55.609375 28.21875 55.609375 21.1875 
Q 55.609375 10.40625 48.1875 4.484375 
Q 40.765625 -1.421875 27.09375 -1.421875 
Q 22.515625 -1.421875 17.65625 -0.515625 
Q 12.796875 0.390625 7.625 2.203125 
L 7.625 11.71875 
Q 11.71875 9.328125 16.59375 8.109375 
Q 21.484375 6.890625 26.8125 6.890625 
Q 36.078125 6.890625 40.9375 10.546875 
Q 45.796875 14.203125 45.796875 21.1875 
Q 45.796875 27.640625 41.28125 31.265625 
Q 36.765625 34.90625 28.71875 34.90625 
L 20.21875 34.90625 
L 20.21875 43.015625 
L 29.109375 43.015625 
Q 36.375 43.015625 40.234375 45.921875 
Q 44.09375 48.828125 44.09375 54.296875 
Q 44.09375 59.90625 40.109375 62.90625 
Q 36.140625 65.921875 28.71875 65.921875 
Q 24.65625 65.921875 20.015625 65.03125 
Q 15.375 64.15625 9.8125 62.3125 
L 9.8125 71.09375 
Q 15.4375 72.65625 20.34375 73.4375 
Q 25.25 74.21875 29.59375 74.21875 
Q 40.828125 74.21875 47.359375 69.109375 
Q 53.90625 64.015625 53.90625 55.328125 
Q 53.90625 49.265625 50.4375 45.09375 
Q 46.96875 40.921875 40.578125 39.3125 
z
" id="DejaVuSans-51"/>
      </defs>
      <use transform="translate(0 0.203125)" xlink:href="#SourceSansPro-Regular-72"/>
      <use transform="translate(65.199997 0.203125)" xlink:href="#SourceSansPro-Regular-83"/>
      <use transform="translate(118.599991 0.203125)" xlink:href="#SourceSansPro-Regular-81"/>
      <use transform="translate(184.999985 0.203125)" xlink:href="#SourceSansPro-Regular-67"/>
      <use transform="translate(242.099976 0.203125)" xlink:href="#SourceSansPro-Regular-32"/>
      <use transform="translate(262.09996 0.203125)" xlink:href="#SourceSansPro-Regular-67"/>
      <use transform="translate(319.199951 0.203125)" xlink:href="#SourceSansPro-Regular-72"/>
      <use transform="translate(385.356979 -16.203125)scale(0.7)" xlink:href="#DejaVuSans-51"/>
     </g>
    </g>
    <g id="PathCollection_12">
     <path d="M 162.485 59.80625 
C 163.015406 59.80625 163.52416 59.595517 163.899214 59.220464 
C 164.274267 58.84541 164.485 58.336656 164.485 57.80625 
C 164.485 57.275844 164.274267 56.76709 163.899214 56.392036 
C 163.52416 56.016983 163.015406 55.80625 162.485 55.80625 
C 161.954594 55.80625 161.44584 56.016983 161.070786 56.392036 
C 160.695733 56.76709 160.485 57.275844 160.485 57.80625 
C 160.485 58.336656 160.695733 58.84541 161.070786 59.220464 
C 161.44584 59.595517 161.954594 59.80625 162.485 59.80625 
z
" style="fill:#c44e52;"/>
    </g>
    <g id="text_16">
     <!-- COSY -->
     <g transform="translate(172.985 60.43125)scale(0.1 -0.1)">
      <use xlink:href="#SourceSansPro-Regular-67"/>
      <use x="57.099991" xlink:href="#SourceSansPro-Regular-79"/>
      <use x="123.499985" xlink:href="#SourceSansPro-Regular-83"/>
      <use x="176.899979" xlink:href="#SourceSansPro-Regular-89"/>
     </g>
    </g>
   </g>
  </g>
  <g id="axes_2">
   <g id="patch_8">
    <path d="M 239.585 227.84 
L 421.2 227.84 
L 421.2 10.8 
L 239.585 10.8 
z
" style="fill:#ffffff;"/>
   </g>
   <g id="PathCollection_13"/>
   <g id="PathCollection_14"/>
   <g id="PathCollection_15"/>
   <g id="PathCollection_16"/>
   <g id="matplotlib.axis_3">
    <g id="text_17">
     <!-- NOAH seHSQC/CLIP-COSY -->
     <g transform="translate(276.2175 238.960312)scale(0.1 -0.1)">
      <use xlink:href="#SourceSansPro-Regular-78"/>
      <use x="64.699997" xlink:href="#SourceSansPro-Regular-79"/>
      <use x="131.099991" xlink:href="#SourceSansPro-Regular-65"/>
      <use x="185.499985" xlink:href="#SourceSansPro-Regular-72"/>
      <use x="250.699982" xlink:href="#SourceSansPro-Regular-32"/>
      <use x="270.699966" xlink:href="#SourceSansPro-Regular-115"/>
      <use x="312.59996" xlink:href="#SourceSansPro-Regular-101"/>
      <use x="362.199951" xlink:href="#SourceSansPro-Regular-72"/>
      <use x="427.399948" xlink:href="#SourceSansPro-Regular-83"/>
      <use x="480.799942" xlink:href="#SourceSansPro-Regular-81"/>
      <use x="547.199936" xlink:href="#SourceSansPro-Regular-67"/>
      <use x="604.299927" xlink:href="#SourceSansPro-Regular-47"/>
      <use x="639.299911" xlink:href="#SourceSansPro-Regular-67"/>
      <use x="696.399902" xlink:href="#SourceSansPro-Regular-76"/>
      <use x="744.999893" xlink:href="#SourceSansPro-Regular-73"/>
      <use x="771.299881" xlink:href="#SourceSansPro-Regular-80"/>
      <use x="827.899872" xlink:href="#SourceSansPro-Regular-45"/>
      <use x="858.999863" xlink:href="#SourceSansPro-Regular-67"/>
      <use x="916.099854" xlink:href="#SourceSansPro-Regular-79"/>
      <use x="982.499847" xlink:href="#SourceSansPro-Regular-83"/>
      <use x="1035.899841" xlink:href="#SourceSansPro-Regular-89"/>
     </g>
    </g>
   </g>
   <g id="line2d_7">
    <path clip-path="url(#p93d057ea15)" d="M 239.585 127.667692 
L 421.2 127.667692 
" style="fill:none;stroke:#808080;stroke-dasharray:1.85,0.8;stroke-dashoffset:0;stroke-width:0.5;"/>
   </g>
   <g id="patch_9">
    <path d="M 239.585 227.84 
L 239.585 10.8 
" style="fill:none;stroke:#000000;stroke-linecap:square;stroke-linejoin:miter;stroke-width:1.3;"/>
   </g>
   <g id="patch_10">
    <path d="M 421.2 227.84 
L 421.2 10.8 
" style="fill:none;stroke:#000000;stroke-linecap:square;stroke-linejoin:miter;stroke-width:1.3;"/>
   </g>
   <g id="patch_11">
    <path d="M 239.585 227.84 
L 421.2 227.84 
" style="fill:none;stroke:#000000;stroke-linecap:square;stroke-linejoin:miter;stroke-width:1.3;"/>
   </g>
   <g id="patch_12">
    <path d="M 239.585 10.8 
L 421.2 10.8 
" style="fill:none;stroke:#000000;stroke-linecap:square;stroke-linejoin:miter;stroke-width:1.3;"/>
   </g>
   <g id="PathCollection_17">
    <defs>
     <path d="M 0 2 
C 0.530406 2 1.03916 1.789267 1.414214 1.414214 
C 1.789267 1.03916 2 0.530406 2 -0 
C 2 -0.530406 1.789267 -1.03916 1.414214 -1.414214 
C 1.03916 -1.789267 0.530406 -2 0 -2 
C -0.530406 -2 -1.03916 -1.789267 -1.414214 -1.414214 
C -1.789267 -1.03916 -2 -0.530406 -2 0 
C -2 0.530406 -1.789267 1.03916 -1.414214 1.414214 
C -1.03916 1.789267 -0.530406 2 0 2 
z
" id="C4_0_44849166ae"/>
    </defs>
    <g clip-path="url(#p93d057ea15)">
     <use style="fill:#4c72b0;" x="279.440753" xlink:href="#C4_0_44849166ae" y="52.38609"/>
    </g>
    <g clip-path="url(#p93d057ea15)">
     <use style="fill:#4c72b0;" x="272.273649" xlink:href="#C4_0_44849166ae" y="80.706049"/>
    </g>
    <g clip-path="url(#p93d057ea15)">
     <use style="fill:#4c72b0;" x="274.604033" xlink:href="#C4_0_44849166ae" y="79.258001"/>
    </g>
    <g clip-path="url(#p93d057ea15)">
     <use style="fill:#4c72b0;" x="277.492914" xlink:href="#C4_0_44849166ae" y="106.005733"/>
    </g>
    <g clip-path="url(#p93d057ea15)">
     <use style="fill:#4c72b0;" x="276.891036" xlink:href="#C4_0_44849166ae" y="93.714231"/>
    </g>
   </g>
   <g id="PathCollection_18">
    <defs>
     <path d="M 0 2 
C 0.530406 2 1.03916 1.789267 1.414214 1.414214 
C 1.789267 1.03916 2 0.530406 2 -0 
C 2 -0.530406 1.789267 -1.03916 1.414214 -1.414214 
C 1.03916 -1.789267 0.530406 -2 0 -2 
C -0.530406 -2 -1.03916 -1.789267 -1.414214 -1.414214 
C -1.789267 -1.03916 -2 -0.530406 -2 0 
C -2 0.530406 -1.789267 1.03916 -1.414214 1.414214 
C -1.03916 1.789267 -0.530406 2 0 2 
z
" id="C5_0_224d68d406"/>
    </defs>
    <g clip-path="url(#p93d057ea15)">
     <use style="fill:#dd8452;" x="316.054268" xlink:href="#C5_0_224d68d406" y="110.785163"/>
    </g>
    <g clip-path="url(#p93d057ea15)">
     <use style="fill:#dd8452;" x="307.962763" xlink:href="#C5_0_224d68d406" y="111.326509"/>
    </g>
    <g clip-path="url(#p93d057ea15)">
     <use style="fill:#dd8452;" x="314.379327" xlink:href="#C5_0_224d68d406" y="110.068608"/>
    </g>
    <g clip-path="url(#p93d057ea15)">
     <use style="fill:#dd8452;" x="312.902626" xlink:href="#C5_0_224d68d406" y="111.101591"/>
    </g>
    <g clip-path="url(#p93d057ea15)">
     <use style="fill:#dd8452;" x="312.126447" xlink:href="#C5_0_224d68d406" y="109.477662"/>
    </g>
    <g clip-path="url(#p93d057ea15)">
     <use style="fill:#dd8452;" x="315.511209" xlink:href="#C5_0_224d68d406" y="109.338192"/>
    </g>
    <g clip-path="url(#p93d057ea15)">
     <use style="fill:#dd8452;" x="309.668116" xlink:href="#C5_0_224d68d406" y="103.490101"/>
    </g>
    <g clip-path="url(#p93d057ea15)">
     <use style="fill:#dd8452;" x="314.916755" xlink:href="#C5_0_224d68d406" y="114.11487"/>
    </g>
    <g clip-path="url(#p93d057ea15)">
     <use style="fill:#dd8452;" x="315.138145" xlink:href="#C5_0_224d68d406" y="122.423011"/>
    </g>
    <g clip-path="url(#p93d057ea15)">
     <use style="fill:#dd8452;" x="311.0677" xlink:href="#C5_0_224d68d406" y="108.543052"/>
    </g>
    <g clip-path="url(#p93d057ea15)">
     <use style="fill:#dd8452;" x="312.823679" xlink:href="#C5_0_224d68d406" y="112.540774"/>
    </g>
    <g clip-path="url(#p93d057ea15)">
     <use style="fill:#dd8452;" x="308.215834" xlink:href="#C5_0_224d68d406" y="123.183877"/>
    </g>
    <g clip-path="url(#p93d057ea15)">
     <use style="fill:#dd8452;" x="310.230032" xlink:href="#C5_0_224d68d406" y="119.204401"/>
    </g>
    <g clip-path="url(#p93d057ea15)">
     <use style="fill:#dd8452;" x="312.859433" xlink:href="#C5_0_224d68d406" y="100.473756"/>
    </g>
   </g>
   <g id="PathCollection_19">
    <defs>
     <path d="M 0 2 
C 0.530406 2 1.03916 1.789267 1.414214 1.414214 
C 1.789267 1.03916 2 0.530406 2 -0 
C 2 -0.530406 1.789267 -1.03916 1.414214 -1.414214 
C 1.03916 -1.789267 0.530406 -2 0 -2 
C -0.530406 -2 -1.03916 -1.789267 -1.414214 -1.414214 
C -1.789267 -1.03916 -2 -0.530406 -2 0 
C -2 0.530406 -1.789267 1.03916 -1.414214 1.414214 
C -1.03916 1.789267 -0.530406 2 0 2 
z
" id="C6_0_7e1652c227"/>
    </defs>
    <g clip-path="url(#p93d057ea15)">
     <use style="fill:#55a868;" x="345.615347" xlink:href="#C6_0_7e1652c227" y="101.252243"/>
    </g>
    <g clip-path="url(#p93d057ea15)">
     <use style="fill:#55a868;" x="344.450673" xlink:href="#C6_0_7e1652c227" y="139.878008"/>
    </g>
   </g>
   <g id="PathCollection_20">
    <defs>
     <path d="M 0 2 
C 0.530406 2 1.03916 1.789267 1.414214 1.414214 
C 1.789267 1.03916 2 0.530406 2 -0 
C 2 -0.530406 1.789267 -1.03916 1.414214 -1.414214 
C 1.03916 -1.789267 0.530406 -2 0 -2 
C -0.530406 -2 -1.03916 -1.789267 -1.414214 -1.414214 
C -1.789267 -1.03916 -2 -0.530406 -2 0 
C -2 0.530406 -1.789267 1.03916 -1.414214 1.414214 
C -1.03916 1.789267 -0.530406 2 0 2 
z
" id="C7_0_89864a5e20"/>
    </defs>
    <g clip-path="url(#p93d057ea15)">
     <use style="fill:#c44e52;" x="382.29058" xlink:href="#C7_0_89864a5e20" y="130.443789"/>
    </g>
    <g clip-path="url(#p93d057ea15)">
     <use style="fill:#c44e52;" x="381.343832" xlink:href="#C7_0_89864a5e20" y="141.791359"/>
    </g>
    <g clip-path="url(#p93d057ea15)">
     <use style="fill:#c44e52;" x="381.514317" xlink:href="#C7_0_89864a5e20" y="133.230848"/>
    </g>
    <g clip-path="url(#p93d057ea15)">
     <use style="fill:#c44e52;" x="385.794489" xlink:href="#C7_0_89864a5e20" y="130.384842"/>
    </g>
    <g clip-path="url(#p93d057ea15)">
     <use style="fill:#c44e52;" x="385.042164" xlink:href="#C7_0_89864a5e20" y="130.092128"/>
    </g>
    <g clip-path="url(#p93d057ea15)">
     <use style="fill:#c44e52;" x="387.594463" xlink:href="#C7_0_89864a5e20" y="129.612613"/>
    </g>
    <g clip-path="url(#p93d057ea15)">
     <use style="fill:#c44e52;" x="383.727602" xlink:href="#C7_0_89864a5e20" y="135.98237"/>
    </g>
    <g clip-path="url(#p93d057ea15)">
     <use style="fill:#c44e52;" x="385.785128" xlink:href="#C7_0_89864a5e20" y="127.949132"/>
    </g>
    <g clip-path="url(#p93d057ea15)">
     <use style="fill:#c44e52;" x="384.743491" xlink:href="#C7_0_89864a5e20" y="131.460334"/>
    </g>
    <g clip-path="url(#p93d057ea15)">
     <use style="fill:#c44e52;" x="384.700806" xlink:href="#C7_0_89864a5e20" y="133.084637"/>
    </g>
    <g clip-path="url(#p93d057ea15)">
     <use style="fill:#c44e52;" x="384.677227" xlink:href="#C7_0_89864a5e20" y="130.319434"/>
    </g>
    <g clip-path="url(#p93d057ea15)">
     <use style="fill:#c44e52;" x="386.361308" xlink:href="#C7_0_89864a5e20" y="131.33471"/>
    </g>
    <g clip-path="url(#p93d057ea15)">
     <use style="fill:#c44e52;" x="381.539636" xlink:href="#C7_0_89864a5e20" y="128.991415"/>
    </g>
    <g clip-path="url(#p93d057ea15)">
     <use style="fill:#c44e52;" x="385.215728" xlink:href="#C7_0_89864a5e20" y="140.159167"/>
    </g>
    <g clip-path="url(#p93d057ea15)">
     <use style="fill:#c44e52;" x="388.021072" xlink:href="#C7_0_89864a5e20" y="138.375331"/>
    </g>
    <g clip-path="url(#p93d057ea15)">
     <use style="fill:#c44e52;" x="385.653345" xlink:href="#C7_0_89864a5e20" y="134.38291"/>
    </g>
    <g clip-path="url(#p93d057ea15)">
     <use style="fill:#c44e52;" x="387.844134" xlink:href="#C7_0_89864a5e20" y="132.902609"/>
    </g>
    <g clip-path="url(#p93d057ea15)">
     <use style="fill:#c44e52;" x="382.199391" xlink:href="#C7_0_89864a5e20" y="132.815791"/>
    </g>
    <g clip-path="url(#p93d057ea15)">
     <use style="fill:#c44e52;" x="388.331276" xlink:href="#C7_0_89864a5e20" y="133.760906"/>
    </g>
    <g clip-path="url(#p93d057ea15)">
     <use style="fill:#c44e52;" x="388.588767" xlink:href="#C7_0_89864a5e20" y="134.983311"/>
    </g>
    <g clip-path="url(#p93d057ea15)">
     <use style="fill:#c44e52;" x="382.478699" xlink:href="#C7_0_89864a5e20" y="135.949811"/>
    </g>
    <g clip-path="url(#p93d057ea15)">
     <use style="fill:#c44e52;" x="387.668056" xlink:href="#C7_0_89864a5e20" y="148.325815"/>
    </g>
    <g clip-path="url(#p93d057ea15)">
     <use style="fill:#c44e52;" x="381.763598" xlink:href="#C7_0_89864a5e20" y="133.679488"/>
    </g>
    <g clip-path="url(#p93d057ea15)">
     <use style="fill:#c44e52;" x="386.485172" xlink:href="#C7_0_89864a5e20" y="131.217161"/>
    </g>
    <g clip-path="url(#p93d057ea15)">
     <use style="fill:#c44e52;" x="387.189491" xlink:href="#C7_0_89864a5e20" y="129.131377"/>
    </g>
    <g clip-path="url(#p93d057ea15)">
     <use style="fill:#c44e52;" x="383.302102" xlink:href="#C7_0_89864a5e20" y="134.000533"/>
    </g>
    <g clip-path="url(#p93d057ea15)">
     <use style="fill:#c44e52;" x="387.571205" xlink:href="#C7_0_89864a5e20" y="137.528679"/>
    </g>
    <g clip-path="url(#p93d057ea15)">
     <use style="fill:#c44e52;" x="381.991415" xlink:href="#C7_0_89864a5e20" y="132.06824"/>
    </g>
    <g clip-path="url(#p93d057ea15)">
     <use style="fill:#c44e52;" x="384.440514" xlink:href="#C7_0_89864a5e20" y="134.942296"/>
    </g>
    <g clip-path="url(#p93d057ea15)">
     <use style="fill:#c44e52;" x="388.352094" xlink:href="#C7_0_89864a5e20" y="139.068355"/>
    </g>
    <g clip-path="url(#p93d057ea15)">
     <use style="fill:#c44e52;" x="387.515006" xlink:href="#C7_0_89864a5e20" y="135.279373"/>
    </g>
    <g clip-path="url(#p93d057ea15)">
     <use style="fill:#c44e52;" x="389.389199" xlink:href="#C7_0_89864a5e20" y="135.55895"/>
    </g>
    <g clip-path="url(#p93d057ea15)">
     <use style="fill:#c44e52;" x="380.997581" xlink:href="#C7_0_89864a5e20" y="136.145179"/>
    </g>
    <g clip-path="url(#p93d057ea15)">
     <use style="fill:#c44e52;" x="381.90805" xlink:href="#C7_0_89864a5e20" y="142.130349"/>
    </g>
    <g clip-path="url(#p93d057ea15)">
     <use style="fill:#c44e52;" x="380.791324" xlink:href="#C7_0_89864a5e20" y="139.416677"/>
    </g>
    <g clip-path="url(#p93d057ea15)">
     <use style="fill:#c44e52;" x="387.933794" xlink:href="#C7_0_89864a5e20" y="140.059412"/>
    </g>
    <g clip-path="url(#p93d057ea15)">
     <use style="fill:#c44e52;" x="384.517886" xlink:href="#C7_0_89864a5e20" y="140.126333"/>
    </g>
    <g clip-path="url(#p93d057ea15)">
     <use style="fill:#c44e52;" x="385.906466" xlink:href="#C7_0_89864a5e20" y="129.173945"/>
    </g>
    <g clip-path="url(#p93d057ea15)">
     <use style="fill:#c44e52;" x="389.369864" xlink:href="#C7_0_89864a5e20" y="140.786564"/>
    </g>
    <g clip-path="url(#p93d057ea15)">
     <use style="fill:#c44e52;" x="389.012277" xlink:href="#C7_0_89864a5e20" y="131.081883"/>
    </g>
    <g clip-path="url(#p93d057ea15)">
     <use style="fill:#c44e52;" x="383.487961" xlink:href="#C7_0_89864a5e20" y="129.791905"/>
    </g>
    <g clip-path="url(#p93d057ea15)">
     <use style="fill:#c44e52;" x="382.804211" xlink:href="#C7_0_89864a5e20" y="128.970821"/>
    </g>
    <g clip-path="url(#p93d057ea15)">
     <use style="fill:#c44e52;" x="381.317163" xlink:href="#C7_0_89864a5e20" y="133.716869"/>
    </g>
    <g clip-path="url(#p93d057ea15)">
     <use style="fill:#c44e52;" x="385.835022" xlink:href="#C7_0_89864a5e20" y="132.610183"/>
    </g>
    <g clip-path="url(#p93d057ea15)">
     <use style="fill:#c44e52;" x="385.845609" xlink:href="#C7_0_89864a5e20" y="128.906615"/>
    </g>
    <g clip-path="url(#p93d057ea15)">
     <use style="fill:#c44e52;" x="381.217165" xlink:href="#C7_0_89864a5e20" y="138.834908"/>
    </g>
    <g clip-path="url(#p93d057ea15)">
     <use style="fill:#c44e52;" x="385.201647" xlink:href="#C7_0_89864a5e20" y="137.300138"/>
    </g>
    <g clip-path="url(#p93d057ea15)">
     <use style="fill:#c44e52;" x="384.472881" xlink:href="#C7_0_89864a5e20" y="134.191489"/>
    </g>
    <g clip-path="url(#p93d057ea15)">
     <use style="fill:#c44e52;" x="389.196217" xlink:href="#C7_0_89864a5e20" y="131.193177"/>
    </g>
    <g clip-path="url(#p93d057ea15)">
     <use style="fill:#c44e52;" x="385.960648" xlink:href="#C7_0_89864a5e20" y="132.591336"/>
    </g>
    <g clip-path="url(#p93d057ea15)">
     <use style="fill:#c44e52;" x="381.541848" xlink:href="#C7_0_89864a5e20" y="136.293741"/>
    </g>
    <g clip-path="url(#p93d057ea15)">
     <use style="fill:#c44e52;" x="389.061837" xlink:href="#C7_0_89864a5e20" y="131.555626"/>
    </g>
   </g>
   <g id="text_18">
    <!-- (1.54) -->
    <g style="fill:#4c72b0;" transform="translate(264.177531 223.4992)scale(0.1 -0.1)">
     <defs>
      <path d="M 30.40625 0 
L 30.40625 17.59375 
L 1.703125 17.59375 
L 1.703125 23 
L 29 63.796875 
L 38.203125 63.796875 
L 38.203125 24.203125 
L 46.90625 24.203125 
L 46.90625 17.59375 
L 38.203125 17.59375 
L 38.203125 0 
z
M 10.40625 24.203125 
L 30.40625 24.203125 
L 30.40625 42.703125 
Q 30.40625 45.296875 30.546875 48.84375 
Q 30.703125 52.40625 30.90625 55 
L 30.5 55 
Q 29.296875 52.703125 28 50.5 
Q 26.703125 48.296875 25.296875 46 
z
" id="SourceSansPro-Regular-52"/>
     </defs>
     <use xlink:href="#SourceSansPro-Regular-40"/>
     <use x="30.299988" xlink:href="#SourceSansPro-Regular-49"/>
     <use x="79.999985" xlink:href="#SourceSansPro-Regular-46"/>
     <use x="104.899979" xlink:href="#SourceSansPro-Regular-53"/>
     <use x="154.599976" xlink:href="#SourceSansPro-Regular-52"/>
     <use x="204.299973" xlink:href="#SourceSansPro-Regular-41"/>
    </g>
   </g>
   <g id="text_19">
    <!-- (1.19) -->
    <g style="fill:#dd8452;" transform="translate(300.500531 223.4992)scale(0.1 -0.1)">
     <defs>
      <path d="M 23.5 31 
Q 26.703125 31 30.25 33 
Q 33.796875 35 36.90625 39.5 
Q 36.09375 48.90625 32.5 53.703125 
Q 28.90625 58.5 22.796875 58.5 
Q 20.5 58.5 18.453125 57.5 
Q 16.40625 56.5 14.90625 54.640625 
Q 13.40625 52.796875 12.546875 50.1875 
Q 11.703125 47.59375 11.703125 44.5 
Q 11.703125 38.203125 14.59375 34.59375 
Q 17.5 31 23.5 31 
z
M 20.5 -1.203125 
Q 15.40625 -1.203125 11.546875 0.6875 
Q 7.703125 2.59375 5.09375 5.5 
L 9.703125 10.703125 
Q 11.703125 8.40625 14.453125 7 
Q 17.203125 5.59375 20.203125 5.59375 
Q 23.59375 5.59375 26.59375 7 
Q 29.59375 8.40625 31.890625 11.65625 
Q 34.203125 14.90625 35.59375 20.09375 
Q 37 25.296875 37.09375 33 
Q 34.09375 29.203125 30.09375 27 
Q 26.09375 24.796875 22.09375 24.796875 
Q 13.796875 24.796875 8.890625 29.6875 
Q 4 34.59375 4 44.5 
Q 4 49.09375 5.5 52.84375 
Q 7 56.59375 9.546875 59.296875 
Q 12.09375 62 15.546875 63.5 
Q 19 65 22.796875 65 
Q 27.5 65 31.546875 63.09375 
Q 35.59375 61.203125 38.546875 57.34375 
Q 41.5 53.5 43.140625 47.75 
Q 44.796875 42 44.796875 34.296875 
Q 44.796875 24.703125 42.796875 17.953125 
Q 40.796875 11.203125 37.390625 6.953125 
Q 34 2.703125 29.640625 0.75 
Q 25.296875 -1.203125 20.5 -1.203125 
z
" id="SourceSansPro-Regular-57"/>
     </defs>
     <use xlink:href="#SourceSansPro-Regular-40"/>
     <use x="30.299988" xlink:href="#SourceSansPro-Regular-49"/>
     <use x="79.999985" xlink:href="#SourceSansPro-Regular-46"/>
     <use x="104.899979" xlink:href="#SourceSansPro-Regular-49"/>
     <use x="154.599976" xlink:href="#SourceSansPro-Regular-57"/>
     <use x="204.299973" xlink:href="#SourceSansPro-Regular-41"/>
    </g>
   </g>
   <g id="text_20">
    <!-- (1.09) -->
    <g style="fill:#55a868;" transform="translate(336.823531 223.4992)scale(0.1 -0.1)">
     <use xlink:href="#SourceSansPro-Regular-40"/>
     <use x="30.299988" xlink:href="#SourceSansPro-Regular-49"/>
     <use x="79.999985" xlink:href="#SourceSansPro-Regular-46"/>
     <use x="104.899979" xlink:href="#SourceSansPro-Regular-48"/>
     <use x="154.599976" xlink:href="#SourceSansPro-Regular-57"/>
     <use x="204.299973" xlink:href="#SourceSansPro-Regular-41"/>
    </g>
   </g>
   <g id="text_21">
    <!-- (0.92) -->
    <g style="fill:#c44e52;" transform="translate(373.146531 223.4992)scale(0.1 -0.1)">
     <use xlink:href="#SourceSansPro-Regular-40"/>
     <use x="30.299988" xlink:href="#SourceSansPro-Regular-48"/>
     <use x="79.999985" xlink:href="#SourceSansPro-Regular-46"/>
     <use x="104.899979" xlink:href="#SourceSansPro-Regular-57"/>
     <use x="154.599976" xlink:href="#SourceSansPro-Regular-50"/>
     <use x="204.299973" xlink:href="#SourceSansPro-Regular-41"/>
    </g>
   </g>
   <g id="text_22">
    <!-- (b) -->
    <g transform="translate(243.2173 26.8208)scale(0.16 -0.16)">
     <defs>
      <path d="M 32.5 -1.203125 
Q 29.203125 -1.203125 25.84375 0.4375 
Q 22.5 2.09375 19.59375 5.296875 
L 19.203125 5.296875 
L 18 0 
L 6.5 0 
L 6.5 70.09375 
L 21.203125 70.09375 
L 21.203125 52.90625 
L 20.796875 45.296875 
Q 23.703125 47.90625 27.046875 49.34375 
Q 30.40625 50.796875 33.90625 50.796875 
Q 38.40625 50.796875 42 49 
Q 45.59375 47.203125 48.140625 43.953125 
Q 50.703125 40.703125 52.046875 36.046875 
Q 53.40625 31.40625 53.40625 25.703125 
Q 53.40625 19.296875 51.65625 14.296875 
Q 49.90625 9.296875 46.953125 5.84375 
Q 44 2.40625 40.25 0.59375 
Q 36.5 -1.203125 32.5 -1.203125 
z
M 29.09375 10.796875 
Q 32.90625 10.796875 35.59375 14.25 
Q 38.296875 17.703125 38.296875 25.40625 
Q 38.296875 38.796875 29.703125 38.796875 
Q 25.296875 38.796875 21.203125 34.296875 
L 21.203125 14 
Q 23.203125 12.203125 25.203125 11.5 
Q 27.203125 10.796875 29.09375 10.796875 
z
" id="SourceSansPro-Bold-98"/>
     </defs>
     <use xlink:href="#SourceSansPro-Bold-40"/>
     <use x="34.399994" xlink:href="#SourceSansPro-Bold-98"/>
     <use x="91.699982" xlink:href="#SourceSansPro-Bold-41"/>
    </g>
   </g>
   <g id="legend_2">
    <g id="patch_13">
     <path d="M 353.9 66.48125 
L 414.2 66.48125 
Q 416.2 66.48125 416.2 64.48125 
L 416.2 17.8 
Q 416.2 15.8 414.2 15.8 
L 353.9 15.8 
Q 351.9 15.8 351.9 17.8 
L 351.9 64.48125 
Q 351.9 66.48125 353.9 66.48125 
z
" style="fill:#ffffff;opacity:0.8;stroke:#cccccc;stroke-linejoin:miter;"/>
    </g>
    <g id="PathCollection_21">
     <path d="M 358.4 26.295313 
C 358.930406 26.295313 359.43916 26.08458 359.814214 25.709526 
C 360.189267 25.334472 360.4 24.825719 360.4 24.295313 
C 360.4 23.764906 360.189267 23.256153 359.814214 22.881099 
C 359.43916 22.506045 358.930406 22.295313 358.4 22.295313 
C 357.869594 22.295313 357.36084 22.506045 356.985786 22.881099 
C 356.610733 23.256153 356.4 23.764906 356.4 24.295313 
C 356.4 24.825719 356.610733 25.334472 356.985786 25.709526 
C 357.36084 26.08458 357.869594 26.295313 358.4 26.295313 
z
" style="fill:#4c72b0;"/>
    </g>
    <g id="text_23">
     <!-- HSQC CH -->
     <g transform="translate(368.9 26.920313)scale(0.1 -0.1)">
      <use xlink:href="#SourceSansPro-Regular-72"/>
      <use x="65.199997" xlink:href="#SourceSansPro-Regular-83"/>
      <use x="118.599991" xlink:href="#SourceSansPro-Regular-81"/>
      <use x="184.999985" xlink:href="#SourceSansPro-Regular-67"/>
      <use x="242.099976" xlink:href="#SourceSansPro-Regular-32"/>
      <use x="262.09996" xlink:href="#SourceSansPro-Regular-67"/>
      <use x="319.199951" xlink:href="#SourceSansPro-Regular-72"/>
     </g>
    </g>
    <g id="PathCollection_22">
     <path d="M 358.4 37.465625 
C 358.930406 37.465625 359.43916 37.254892 359.814214 36.879839 
C 360.189267 36.504785 360.4 35.996031 360.4 35.465625 
C 360.4 34.935219 360.189267 34.426465 359.814214 34.051411 
C 359.43916 33.676358 358.930406 33.465625 358.4 33.465625 
C 357.869594 33.465625 357.36084 33.676358 356.985786 34.051411 
C 356.610733 34.426465 356.4 34.935219 356.4 35.465625 
C 356.4 35.996031 356.610733 36.504785 356.985786 36.879839 
C 357.36084 37.254892 357.869594 37.465625 358.4 37.465625 
z
" style="fill:#dd8452;"/>
    </g>
    <g id="text_24">
     <!-- HSQC CH$_2$ -->
     <g transform="translate(368.9 38.090625)scale(0.1 -0.1)">
      <use transform="translate(0 0.203125)" xlink:href="#SourceSansPro-Regular-72"/>
      <use transform="translate(65.199997 0.203125)" xlink:href="#SourceSansPro-Regular-83"/>
      <use transform="translate(118.599991 0.203125)" xlink:href="#SourceSansPro-Regular-81"/>
      <use transform="translate(184.999985 0.203125)" xlink:href="#SourceSansPro-Regular-67"/>
      <use transform="translate(242.099976 0.203125)" xlink:href="#SourceSansPro-Regular-32"/>
      <use transform="translate(262.09996 0.203125)" xlink:href="#SourceSansPro-Regular-67"/>
      <use transform="translate(319.199951 0.203125)" xlink:href="#SourceSansPro-Regular-72"/>
      <use transform="translate(385.356979 -16.203125)scale(0.7)" xlink:href="#DejaVuSans-50"/>
     </g>
    </g>
    <g id="PathCollection_23">
     <path d="M 358.4 48.635938 
C 358.930406 48.635938 359.43916 48.425205 359.814214 48.050151 
C 360.189267 47.675097 360.4 47.166344 360.4 46.635938 
C 360.4 46.105531 360.189267 45.596778 359.814214 45.221724 
C 359.43916 44.84667 358.930406 44.635938 358.4 44.635938 
C 357.869594 44.635938 357.36084 44.84667 356.985786 45.221724 
C 356.610733 45.596778 356.4 46.105531 356.4 46.635938 
C 356.4 47.166344 356.610733 47.675097 356.985786 48.050151 
C 357.36084 48.425205 357.869594 48.635938 358.4 48.635938 
z
" style="fill:#55a868;"/>
    </g>
    <g id="text_25">
     <!-- HSQC CH$_3$ -->
     <g transform="translate(368.9 49.260938)scale(0.1 -0.1)">
      <use transform="translate(0 0.203125)" xlink:href="#SourceSansPro-Regular-72"/>
      <use transform="translate(65.199997 0.203125)" xlink:href="#SourceSansPro-Regular-83"/>
      <use transform="translate(118.599991 0.203125)" xlink:href="#SourceSansPro-Regular-81"/>
      <use transform="translate(184.999985 0.203125)" xlink:href="#SourceSansPro-Regular-67"/>
      <use transform="translate(242.099976 0.203125)" xlink:href="#SourceSansPro-Regular-32"/>
      <use transform="translate(262.09996 0.203125)" xlink:href="#SourceSansPro-Regular-67"/>
      <use transform="translate(319.199951 0.203125)" xlink:href="#SourceSansPro-Regular-72"/>
      <use transform="translate(385.356979 -16.203125)scale(0.7)" xlink:href="#DejaVuSans-51"/>
     </g>
    </g>
    <g id="PathCollection_24">
     <path d="M 358.4 59.80625 
C 358.930406 59.80625 359.43916 59.595517 359.814214 59.220464 
C 360.189267 58.84541 360.4 58.336656 360.4 57.80625 
C 360.4 57.275844 360.189267 56.76709 359.814214 56.392036 
C 359.43916 56.016983 358.930406 55.80625 358.4 55.80625 
C 357.869594 55.80625 357.36084 56.016983 356.985786 56.392036 
C 356.610733 56.76709 356.4 57.275844 356.4 57.80625 
C 356.4 58.336656 356.610733 58.84541 356.985786 59.220464 
C 357.36084 59.595517 357.869594 59.80625 358.4 59.80625 
z
" style="fill:#c44e52;"/>
    </g>
    <g id="text_26">
     <!-- COSY -->
     <g transform="translate(368.9 60.43125)scale(0.1 -0.1)">
      <use xlink:href="#SourceSansPro-Regular-67"/>
      <use x="57.099991" xlink:href="#SourceSansPro-Regular-79"/>
      <use x="123.499985" xlink:href="#SourceSansPro-Regular-83"/>
      <use x="176.899979" xlink:href="#SourceSansPro-Regular-89"/>
     </g>
    </g>
   </g>
  </g>
 </g>
 <defs>
  <clipPath id="pb5a2098c62">
   <rect height="217.04" width="181.615" x="43.67" y="10.8"/>
  </clipPath>
  <clipPath id="p93d057ea15">
   <rect height="217.04" width="181.615" x="239.585" y="10.8"/>
  </clipPath>
 </defs>
</svg>
