<?xml version="1.0" encoding="utf-8" standalone="no"?>
<!DOCTYPE svg PUBLIC "-//W3C//DTD SVG 1.1//EN"
  "http://www.w3.org/Graphics/SVG/1.1/DTD/svg11.dtd">
<!-- Created with matplotlib (https://matplotlib.org/) -->
<svg height="252pt" version="1.1" viewBox="0 0 432 252" width="432pt" xmlns="http://www.w3.org/2000/svg" xmlns:xlink="http://www.w3.org/1999/xlink">
 <metadata>
  <rdf:RDF xmlns:cc="http://creativecommons.org/ns#" xmlns:dc="http://purl.org/dc/elements/1.1/" xmlns:rdf="http://www.w3.org/1999/02/22-rdf-syntax-ns#">
   <cc:Work>
    <dc:type rdf:resource="http://purl.org/dc/dcmitype/StillImage"/>
    <dc:date>2020-11-19T16:26:25.552841</dc:date>
    <dc:format>image/svg+xml</dc:format>
    <dc:creator>
     <cc:Agent>
      <dc:title>Matplotlib v3.3.2, https://matplotlib.org/</dc:title>
     </cc:Agent>
    </dc:creator>
   </cc:Work>
  </rdf:RDF>
 </metadata>
 <defs>
  <style type="text/css">*{stroke-linecap:butt;stroke-linejoin:round;}</style>
 </defs>
 <g id="figure_1">
  <g id="patch_1">
   <path d="M 0 252 
L 432 252 
L 432 0 
L 0 0 
z
" style="fill:#ffffff;"/>
  </g>
  <g id="axes_1">
   <g id="patch_2">
    <path d="M 51.84 227.84 
L 202.599184 227.84 
L 202.599184 10.8 
L 51.84 10.8 
z
" style="fill:#ffffff;"/>
   </g>
   <g id="PathCollection_1"/>
   <g id="PathCollection_2"/>
   <g id="PathCollection_3"/>
   <g id="PathCollection_4"/>
   <g id="matplotlib.axis_1">
    <g id="text_1">
     <!-- CRK seHSQC/CLIP-COSY -->
     <g transform="translate(76.985217 238.960312)scale(0.1 -0.1)">
      <defs>
       <path d="M 33.796875 -1.203125 
Q 27.59375 -1.203125 22.390625 1.09375 
Q 17.203125 3.40625 13.34375 7.75 
Q 9.5 12.09375 7.34375 18.4375 
Q 5.203125 24.796875 5.203125 32.796875 
Q 5.203125 40.703125 7.390625 47 
Q 9.59375 53.296875 13.5 57.6875 
Q 17.40625 62.09375 22.703125 64.4375 
Q 28 66.796875 34.296875 66.796875 
Q 40.296875 66.796875 44.84375 64.34375 
Q 49.40625 61.90625 52.296875 58.703125 
L 47.796875 53.296875 
Q 45.203125 56.09375 41.890625 57.796875 
Q 38.59375 59.5 34.40625 59.5 
Q 29.703125 59.5 25.890625 57.640625 
Q 22.09375 55.796875 19.390625 52.34375 
Q 16.703125 48.90625 15.25 44 
Q 13.796875 39.09375 13.796875 33 
Q 13.796875 26.796875 15.25 21.84375 
Q 16.703125 16.90625 19.296875 13.40625 
Q 21.90625 9.90625 25.65625 8 
Q 29.40625 6.09375 34.09375 6.09375 
Q 38.90625 6.09375 42.5 8.046875 
Q 46.09375 10 49.296875 13.5 
L 53.90625 8.296875 
Q 50 3.796875 45.09375 1.296875 
Q 40.203125 -1.203125 33.796875 -1.203125 
z
" id="SourceSansPro-Regular-67"/>
       <path d="M 9 0 
L 9 65.59375 
L 29.5 65.59375 
Q 34.5 65.59375 38.75 64.640625 
Q 43 63.703125 46.046875 61.5 
Q 49.09375 59.296875 50.796875 55.796875 
Q 52.5 52.296875 52.5 47.203125 
Q 52.5 39.5 48.5 34.890625 
Q 44.5 30.296875 37.703125 28.59375 
L 54.40625 0 
L 45 0 
L 29.203125 27.703125 
L 17.296875 27.703125 
L 17.296875 0 
z
M 17.296875 34.5 
L 28.296875 34.5 
Q 36 34.5 40.09375 37.640625 
Q 44.203125 40.796875 44.203125 47.203125 
Q 44.203125 53.703125 40.09375 56.296875 
Q 36 58.90625 28.296875 58.90625 
L 17.296875 58.90625 
z
" id="SourceSansPro-Regular-82"/>
       <path d="M 9 0 
L 9 65.59375 
L 17.296875 65.59375 
L 17.296875 32.703125 
L 17.59375 32.703125 
L 44.90625 65.59375 
L 54.296875 65.59375 
L 33.796875 40.59375 
L 57.5 0 
L 48.203125 0 
L 28.59375 34.09375 
L 17.296875 20.796875 
L 17.296875 0 
z
" id="SourceSansPro-Regular-75"/>
       <path id="SourceSansPro-Regular-32"/>
       <path d="M 20.90625 -1.203125 
Q 15.703125 -1.203125 11 0.6875 
Q 6.296875 2.59375 2.796875 5.5 
L 6.90625 11 
Q 10.09375 8.40625 13.4375 6.796875 
Q 16.796875 5.203125 21.203125 5.203125 
Q 26 5.203125 28.390625 7.390625 
Q 30.796875 9.59375 30.796875 12.796875 
Q 30.796875 14.703125 29.796875 16.09375 
Q 28.796875 17.5 27.25 18.546875 
Q 25.703125 19.59375 23.703125 20.390625 
Q 21.703125 21.203125 19.703125 22 
Q 17.09375 22.90625 14.5 24.046875 
Q 11.90625 25.203125 9.84375 26.84375 
Q 7.796875 28.5 6.5 30.703125 
Q 5.203125 32.90625 5.203125 36 
Q 5.203125 38.90625 6.34375 41.453125 
Q 7.5 44 9.640625 45.84375 
Q 11.796875 47.703125 14.890625 48.75 
Q 18 49.796875 21.90625 49.796875 
Q 26.5 49.796875 30.34375 48.1875 
Q 34.203125 46.59375 37 44.296875 
L 33.09375 39.09375 
Q 30.59375 41 27.890625 42.203125 
Q 25.203125 43.40625 22 43.40625 
Q 17.40625 43.40625 15.25 41.296875 
Q 13.09375 39.203125 13.09375 36.40625 
Q 13.09375 34.703125 14 33.453125 
Q 14.90625 32.203125 16.40625 31.25 
Q 17.90625 30.296875 19.84375 29.546875 
Q 21.796875 28.796875 23.90625 28 
Q 26.5 27 29.140625 25.890625 
Q 31.796875 24.796875 33.890625 23.140625 
Q 36 21.5 37.34375 19.09375 
Q 38.703125 16.703125 38.703125 13.296875 
Q 38.703125 10.296875 37.546875 7.6875 
Q 36.40625 5.09375 34.15625 3.09375 
Q 31.90625 1.09375 28.546875 -0.046875 
Q 25.203125 -1.203125 20.90625 -1.203125 
z
" id="SourceSansPro-Regular-115"/>
       <path d="M 27.90625 -1.203125 
Q 23 -1.203125 18.75 0.546875 
Q 14.5 2.296875 11.34375 5.546875 
Q 8.203125 8.796875 6.390625 13.5 
Q 4.59375 18.203125 4.59375 24.203125 
Q 4.59375 30.203125 6.4375 34.953125 
Q 8.296875 39.703125 11.34375 43 
Q 14.40625 46.296875 18.296875 48.046875 
Q 22.203125 49.796875 26.40625 49.796875 
Q 31 49.796875 34.640625 48.1875 
Q 38.296875 46.59375 40.75 43.59375 
Q 43.203125 40.59375 44.5 36.390625 
Q 45.796875 32.203125 45.796875 27 
Q 45.796875 25.703125 45.75 24.453125 
Q 45.703125 23.203125 45.5 22.296875 
L 12.703125 22.296875 
Q 13.203125 14.5 17.546875 9.953125 
Q 21.90625 5.40625 28.90625 5.40625 
Q 32.40625 5.40625 35.34375 6.453125 
Q 38.296875 7.5 41 9.203125 
L 43.90625 3.796875 
Q 40.703125 1.796875 36.796875 0.296875 
Q 32.90625 -1.203125 27.90625 -1.203125 
z
M 12.59375 28.203125 
L 38.59375 28.203125 
Q 38.59375 35.59375 35.4375 39.4375 
Q 32.296875 43.296875 26.59375 43.296875 
Q 24 43.296875 21.640625 42.296875 
Q 19.296875 41.296875 17.390625 39.34375 
Q 15.5 37.40625 14.25 34.59375 
Q 13 31.796875 12.59375 28.203125 
z
" id="SourceSansPro-Regular-101"/>
       <path d="M 9 0 
L 9 65.59375 
L 17.296875 65.59375 
L 17.296875 38.09375 
L 47.796875 38.09375 
L 47.796875 65.59375 
L 56.203125 65.59375 
L 56.203125 0 
L 47.796875 0 
L 47.796875 30.90625 
L 17.296875 30.90625 
L 17.296875 0 
z
" id="SourceSansPro-Regular-72"/>
       <path d="M 27.203125 -1.203125 
Q 20.296875 -1.203125 14.390625 1.390625 
Q 8.5 4 4.203125 8.5 
L 9.203125 14.296875 
Q 12.703125 10.59375 17.453125 8.34375 
Q 22.203125 6.09375 27.296875 6.09375 
Q 33.796875 6.09375 37.390625 9.046875 
Q 41 12 41 16.796875 
Q 41 19.296875 40.140625 21.046875 
Q 39.296875 22.796875 37.84375 24.046875 
Q 36.40625 25.296875 34.40625 26.296875 
Q 32.40625 27.296875 30.09375 28.40625 
L 20.703125 32.5 
Q 18.40625 33.5 16 34.890625 
Q 13.59375 36.296875 11.6875 38.296875 
Q 9.796875 40.296875 8.59375 43.046875 
Q 7.40625 45.796875 7.40625 49.40625 
Q 7.40625 53.09375 8.953125 56.296875 
Q 10.5 59.5 13.25 61.84375 
Q 16 64.203125 19.75 65.5 
Q 23.5 66.796875 28 66.796875 
Q 33.90625 66.796875 38.90625 64.546875 
Q 43.90625 62.296875 47.40625 58.703125 
L 42.90625 53.296875 
Q 39.90625 56.203125 36.25 57.84375 
Q 32.59375 59.5 28 59.5 
Q 22.5 59.5 19.140625 56.953125 
Q 15.796875 54.40625 15.796875 49.90625 
Q 15.796875 47.5 16.75 45.84375 
Q 17.703125 44.203125 19.296875 42.953125 
Q 20.90625 41.703125 22.796875 40.75 
Q 24.703125 39.796875 26.703125 39 
L 36 35 
Q 38.796875 33.796875 41.296875 32.25 
Q 43.796875 30.703125 45.59375 28.640625 
Q 47.40625 26.59375 48.453125 23.84375 
Q 49.5 21.09375 49.5 17.5 
Q 49.5 13.59375 47.953125 10.1875 
Q 46.40625 6.796875 43.5 4.25 
Q 40.59375 1.703125 36.5 0.25 
Q 32.40625 -1.203125 27.203125 -1.203125 
z
" id="SourceSansPro-Regular-83"/>
       <path d="M 33.203125 5.703125 
Q 37.59375 5.703125 41.140625 7.59375 
Q 44.703125 9.5 47.25 13.09375 
Q 49.796875 16.703125 51.1875 21.75 
Q 52.59375 26.796875 52.59375 33.09375 
Q 52.59375 39.203125 51.1875 44.09375 
Q 49.796875 49 47.25 52.390625 
Q 44.703125 55.796875 41.140625 57.640625 
Q 37.59375 59.5 33.203125 59.5 
Q 28.796875 59.5 25.25 57.640625 
Q 21.703125 55.796875 19.140625 52.390625 
Q 16.59375 49 15.1875 44.09375 
Q 13.796875 39.203125 13.796875 33.09375 
Q 13.796875 26.796875 15.1875 21.75 
Q 16.59375 16.703125 19.140625 13.09375 
Q 21.703125 9.5 25.25 7.59375 
Q 28.796875 5.703125 33.203125 5.703125 
z
M 53.296875 -16.5 
Q 48.796875 -16.5 44.9375 -15.34375 
Q 41.09375 -14.203125 38.046875 -12.09375 
Q 35 -10 32.75 -7.140625 
Q 30.5 -4.296875 29.09375 -0.90625 
Q 23.703125 -0.203125 19.296875 2.5 
Q 14.90625 5.203125 11.75 9.59375 
Q 8.59375 14 6.890625 19.953125 
Q 5.203125 25.90625 5.203125 33.09375 
Q 5.203125 41 7.25 47.25 
Q 9.296875 53.5 13 57.84375 
Q 16.703125 62.203125 21.84375 64.5 
Q 27 66.796875 33.203125 66.796875 
Q 39.40625 66.796875 44.546875 64.4375 
Q 49.703125 62.09375 53.453125 57.75 
Q 57.203125 53.40625 59.25 47.15625 
Q 61.296875 40.90625 61.296875 33.09375 
Q 61.296875 26 59.640625 20.140625 
Q 58 14.296875 54.953125 9.9375 
Q 51.90625 5.59375 47.59375 2.84375 
Q 43.296875 0.09375 38.09375 -0.796875 
Q 40.40625 -5.203125 44.59375 -7.34375 
Q 48.796875 -9.5 54.203125 -9.5 
Q 56.40625 -9.5 58.046875 -9.25 
Q 59.703125 -9 61.09375 -8.59375 
L 62.703125 -15 
Q 61.203125 -15.59375 58.703125 -16.046875 
Q 56.203125 -16.5 53.296875 -16.5 
z
" id="SourceSansPro-Regular-81"/>
       <path d="M 1 -16 
L 27.703125 71 
L 33.703125 71 
L 7 -16 
z
" id="SourceSansPro-Regular-47"/>
       <path d="M 9 0 
L 9 65.59375 
L 17.296875 65.59375 
L 17.296875 7.09375 
L 46 7.09375 
L 46 0 
z
" id="SourceSansPro-Regular-76"/>
       <path d="M 9 0 
L 9 65.59375 
L 17.296875 65.59375 
L 17.296875 0 
z
" id="SourceSansPro-Regular-73"/>
       <path d="M 9 0 
L 9 65.59375 
L 27.703125 65.59375 
Q 33.203125 65.59375 37.75 64.59375 
Q 42.296875 63.59375 45.5 61.34375 
Q 48.703125 59.09375 50.5 55.390625 
Q 52.296875 51.703125 52.296875 46.296875 
Q 52.296875 41.09375 50.546875 37.296875 
Q 48.796875 33.5 45.59375 31 
Q 42.40625 28.5 37.953125 27.25 
Q 33.5 26 28.09375 26 
L 17.296875 26 
L 17.296875 0 
z
M 17.296875 32.796875 
L 27.09375 32.796875 
Q 35.703125 32.796875 39.84375 36.046875 
Q 44 39.296875 44 46.296875 
Q 44 53.40625 39.640625 56.15625 
Q 35.296875 58.90625 26.703125 58.90625 
L 17.296875 58.90625 
z
" id="SourceSansPro-Regular-80"/>
       <path d="M 4.09375 21.90625 
L 4.09375 28.203125 
L 27.09375 28.203125 
L 27.09375 21.90625 
z
" id="SourceSansPro-Regular-45"/>
       <path d="M 33.203125 -1.203125 
Q 27 -1.203125 21.84375 1.1875 
Q 16.703125 3.59375 13 8.046875 
Q 9.296875 12.5 7.25 18.84375 
Q 5.203125 25.203125 5.203125 33.09375 
Q 5.203125 41 7.25 47.25 
Q 9.296875 53.5 13 57.84375 
Q 16.703125 62.203125 21.84375 64.5 
Q 27 66.796875 33.203125 66.796875 
Q 39.40625 66.796875 44.546875 64.4375 
Q 49.703125 62.09375 53.453125 57.75 
Q 57.203125 53.40625 59.25 47.15625 
Q 61.296875 40.90625 61.296875 33.09375 
Q 61.296875 25.203125 59.25 18.84375 
Q 57.203125 12.5 53.453125 8.046875 
Q 49.703125 3.59375 44.546875 1.1875 
Q 39.40625 -1.203125 33.203125 -1.203125 
z
M 33.203125 6.09375 
Q 37.59375 6.09375 41.140625 8 
Q 44.703125 9.90625 47.25 13.453125 
Q 49.796875 17 51.1875 21.953125 
Q 52.59375 26.90625 52.59375 33.09375 
Q 52.59375 39.203125 51.1875 44.09375 
Q 49.796875 49 47.25 52.390625 
Q 44.703125 55.796875 41.140625 57.640625 
Q 37.59375 59.5 33.203125 59.5 
Q 28.796875 59.5 25.25 57.640625 
Q 21.703125 55.796875 19.140625 52.390625 
Q 16.59375 49 15.1875 44.09375 
Q 13.796875 39.203125 13.796875 33.09375 
Q 13.796875 26.90625 15.1875 21.953125 
Q 16.59375 17 19.140625 13.453125 
Q 21.703125 9.90625 25.25 8 
Q 28.796875 6.09375 33.203125 6.09375 
z
" id="SourceSansPro-Regular-79"/>
       <path d="M 19.59375 0 
L 19.59375 25.40625 
L -0.09375 65.59375 
L 8.796875 65.59375 
L 17.296875 47.09375 
Q 18.90625 43.5 20.40625 40 
Q 21.90625 36.5 23.59375 32.796875 
L 24 32.796875 
Q 25.703125 36.5 27.390625 40 
Q 29.09375 43.5 30.59375 47.09375 
L 39 65.59375 
L 47.703125 65.59375 
L 28 25.40625 
L 28 0 
z
" id="SourceSansPro-Regular-89"/>
      </defs>
      <use xlink:href="#SourceSansPro-Regular-67"/>
      <use x="57.099991" xlink:href="#SourceSansPro-Regular-82"/>
      <use x="113.999985" xlink:href="#SourceSansPro-Regular-75"/>
      <use x="171.899979" xlink:href="#SourceSansPro-Regular-32"/>
      <use x="191.899963" xlink:href="#SourceSansPro-Regular-115"/>
      <use x="233.799957" xlink:href="#SourceSansPro-Regular-101"/>
      <use x="283.399948" xlink:href="#SourceSansPro-Regular-72"/>
      <use x="348.599945" xlink:href="#SourceSansPro-Regular-83"/>
      <use x="401.999939" xlink:href="#SourceSansPro-Regular-81"/>
      <use x="468.399933" xlink:href="#SourceSansPro-Regular-67"/>
      <use x="525.499924" xlink:href="#SourceSansPro-Regular-47"/>
      <use x="560.499908" xlink:href="#SourceSansPro-Regular-67"/>
      <use x="617.599899" xlink:href="#SourceSansPro-Regular-76"/>
      <use x="666.19989" xlink:href="#SourceSansPro-Regular-73"/>
      <use x="692.499878" xlink:href="#SourceSansPro-Regular-80"/>
      <use x="749.099869" xlink:href="#SourceSansPro-Regular-45"/>
      <use x="780.19986" xlink:href="#SourceSansPro-Regular-67"/>
      <use x="837.29985" xlink:href="#SourceSansPro-Regular-79"/>
      <use x="903.699844" xlink:href="#SourceSansPro-Regular-83"/>
      <use x="957.099838" xlink:href="#SourceSansPro-Regular-89"/>
     </g>
    </g>
   </g>
   <g id="matplotlib.axis_2">
    <g id="ytick_1">
     <g id="line2d_1">
      <defs>
       <path d="M 0 0 
L -3.5 0 
" id="m890db7a565" style="stroke:#000000;stroke-width:0.8;"/>
      </defs>
      <g>
       <use style="stroke:#000000;stroke-width:0.8;" x="51.84" xlink:href="#m890db7a565" y="200.87387"/>
      </g>
     </g>
     <g id="text_2">
      <!-- 0.0 -->
      <g transform="translate(32.40875 204.434026)scale(0.1 -0.1)">
       <defs>
        <path d="M 24.90625 -1.203125 
Q 15.203125 -1.203125 9.796875 7.390625 
Q 4.40625 16 4.40625 32.09375 
Q 4.40625 48.203125 9.796875 56.59375 
Q 15.203125 65 24.90625 65 
Q 34.5 65 39.890625 56.59375 
Q 45.296875 48.203125 45.296875 32.09375 
Q 45.296875 16 39.890625 7.390625 
Q 34.5 -1.203125 24.90625 -1.203125 
z
M 24.90625 5.40625 
Q 27.703125 5.40625 29.953125 6.953125 
Q 32.203125 8.5 33.84375 11.75 
Q 35.5 15 36.390625 20.046875 
Q 37.296875 25.09375 37.296875 32.09375 
Q 37.296875 39.09375 36.390625 44.09375 
Q 35.5 49.09375 33.84375 52.25 
Q 32.203125 55.40625 29.953125 56.90625 
Q 27.703125 58.40625 24.90625 58.40625 
Q 22.09375 58.40625 19.796875 56.90625 
Q 17.5 55.40625 15.84375 52.25 
Q 14.203125 49.09375 13.296875 44.09375 
Q 12.40625 39.09375 12.40625 32.09375 
Q 12.40625 18.09375 15.84375 11.75 
Q 19.296875 5.40625 24.90625 5.40625 
z
" id="SourceSansPro-Regular-48"/>
        <path d="M 12.5 -1.203125 
Q 10 -1.203125 8.25 0.546875 
Q 6.5 2.296875 6.5 5 
Q 6.5 7.90625 8.25 9.65625 
Q 10 11.40625 12.5 11.40625 
Q 14.90625 11.40625 16.65625 9.65625 
Q 18.40625 7.90625 18.40625 5 
Q 18.40625 2.296875 16.65625 0.546875 
Q 14.90625 -1.203125 12.5 -1.203125 
z
" id="SourceSansPro-Regular-46"/>
       </defs>
       <use xlink:href="#SourceSansPro-Regular-48"/>
       <use x="49.699997" xlink:href="#SourceSansPro-Regular-46"/>
       <use x="74.599991" xlink:href="#SourceSansPro-Regular-48"/>
      </g>
     </g>
    </g>
    <g id="ytick_2">
     <g id="line2d_2">
      <g>
       <use style="stroke:#000000;stroke-width:0.8;" x="51.84" xlink:href="#m890db7a565" y="161.501309"/>
      </g>
     </g>
     <g id="text_3">
      <!-- 0.5 -->
      <g transform="translate(32.40875 165.061465)scale(0.1 -0.1)">
       <defs>
        <path d="M 23.40625 -1.203125 
Q 19.59375 -1.203125 16.4375 -0.453125 
Q 13.296875 0.296875 10.75 1.5 
Q 8.203125 2.703125 6.140625 4.25 
Q 4.09375 5.796875 2.5 7.5 
L 6.5 12.90625 
Q 9.296875 10 13.140625 7.796875 
Q 17 5.59375 22.59375 5.59375 
Q 25.5 5.59375 28.046875 6.640625 
Q 30.59375 7.703125 32.5 9.59375 
Q 34.40625 11.5 35.5 14.203125 
Q 36.59375 16.90625 36.59375 20.203125 
Q 36.59375 26.796875 32.890625 30.5 
Q 29.203125 34.203125 23 34.203125 
Q 19.703125 34.203125 17.34375 33.203125 
Q 15 32.203125 12.09375 30.296875 
L 7.703125 33.09375 
L 9.796875 63.796875 
L 41.703125 63.796875 
L 41.703125 56.703125 
L 17 56.703125 
L 15.296875 37.796875 
Q 17.59375 39 19.890625 39.703125 
Q 22.203125 40.40625 25.09375 40.40625 
Q 29.203125 40.40625 32.796875 39.203125 
Q 36.40625 38 39.09375 35.546875 
Q 41.796875 33.09375 43.34375 29.34375 
Q 44.90625 25.59375 44.90625 20.40625 
Q 44.90625 15.203125 43.09375 11.203125 
Q 41.296875 7.203125 38.296875 4.453125 
Q 35.296875 1.703125 31.4375 0.25 
Q 27.59375 -1.203125 23.40625 -1.203125 
z
" id="SourceSansPro-Regular-53"/>
       </defs>
       <use xlink:href="#SourceSansPro-Regular-48"/>
       <use x="49.699997" xlink:href="#SourceSansPro-Regular-46"/>
       <use x="74.599991" xlink:href="#SourceSansPro-Regular-53"/>
      </g>
     </g>
    </g>
    <g id="ytick_3">
     <g id="line2d_3">
      <g>
       <use style="stroke:#000000;stroke-width:0.8;" x="51.84" xlink:href="#m890db7a565" y="122.128748"/>
      </g>
     </g>
     <g id="text_4">
      <!-- 1.0 -->
      <g transform="translate(32.40875 125.688904)scale(0.1 -0.1)">
       <defs>
        <path d="M 7.90625 0 
L 7.90625 6.796875 
L 22.5 6.796875 
L 22.5 53.796875 
L 10.90625 53.796875 
L 10.90625 59.09375 
Q 15.296875 59.90625 18.546875 61.046875 
Q 21.796875 62.203125 24.40625 63.796875 
L 30.703125 63.796875 
L 30.703125 6.796875 
L 43.90625 6.796875 
L 43.90625 0 
z
" id="SourceSansPro-Regular-49"/>
       </defs>
       <use xlink:href="#SourceSansPro-Regular-49"/>
       <use x="49.699997" xlink:href="#SourceSansPro-Regular-46"/>
       <use x="74.599991" xlink:href="#SourceSansPro-Regular-48"/>
      </g>
     </g>
    </g>
    <g id="ytick_4">
     <g id="line2d_4">
      <g>
       <use style="stroke:#000000;stroke-width:0.8;" x="51.84" xlink:href="#m890db7a565" y="82.756187"/>
      </g>
     </g>
     <g id="text_5">
      <!-- 1.5 -->
      <g transform="translate(32.40875 86.316343)scale(0.1 -0.1)">
       <use xlink:href="#SourceSansPro-Regular-49"/>
       <use x="49.699997" xlink:href="#SourceSansPro-Regular-46"/>
       <use x="74.599991" xlink:href="#SourceSansPro-Regular-53"/>
      </g>
     </g>
    </g>
    <g id="ytick_5">
     <g id="line2d_5">
      <g>
       <use style="stroke:#000000;stroke-width:0.8;" x="51.84" xlink:href="#m890db7a565" y="43.383626"/>
      </g>
     </g>
     <g id="text_6">
      <!-- 2.0 -->
      <g transform="translate(32.40875 46.943782)scale(0.1 -0.1)">
       <defs>
        <path d="M 4 0 
L 4 4.90625 
Q 11.203125 12.09375 16.796875 17.890625 
Q 22.40625 23.703125 26.203125 28.640625 
Q 30 33.59375 32 37.75 
Q 34 41.90625 34 45.796875 
Q 34 51.296875 31 54.796875 
Q 28 58.296875 21.90625 58.296875 
Q 17.90625 58.296875 14.5 56.046875 
Q 11.09375 53.796875 8.296875 50.59375 
L 3.59375 55.296875 
Q 7.59375 59.703125 12.09375 62.34375 
Q 16.59375 65 22.90625 65 
Q 31.796875 65 36.890625 59.84375 
Q 42 54.703125 42 46.203125 
Q 42 41.703125 40.046875 37.140625 
Q 38.09375 32.59375 34.640625 27.75 
Q 31.203125 22.90625 26.453125 17.65625 
Q 21.703125 12.40625 16 6.5 
Q 18.59375 6.703125 21.390625 6.890625 
Q 24.203125 7.09375 26.703125 7.09375 
L 45.203125 7.09375 
L 45.203125 0 
z
" id="SourceSansPro-Regular-50"/>
       </defs>
       <use xlink:href="#SourceSansPro-Regular-50"/>
       <use x="49.699997" xlink:href="#SourceSansPro-Regular-46"/>
       <use x="74.599991" xlink:href="#SourceSansPro-Regular-48"/>
      </g>
     </g>
    </g>
    <g id="text_7">
     <!-- intensity vs NOAH HSQC/CLIP-COSY -->
     <g transform="translate(26.318125 193.57)rotate(-90)scale(0.1 -0.1)">
      <defs>
       <path d="M 8.203125 0 
L 8.203125 48.59375 
L 16.40625 48.59375 
L 16.40625 0 
z
M 12.40625 58.59375 
Q 10 58.59375 8.34375 60.09375 
Q 6.703125 61.59375 6.703125 63.90625 
Q 6.703125 66.296875 8.34375 67.75 
Q 10 69.203125 12.40625 69.203125 
Q 14.796875 69.203125 16.4375 67.75 
Q 18.09375 66.296875 18.09375 63.90625 
Q 18.09375 61.59375 16.4375 60.09375 
Q 14.796875 58.59375 12.40625 58.59375 
z
" id="SourceSansPro-Regular-105"/>
       <path d="M 8.203125 0 
L 8.203125 48.59375 
L 15 48.59375 
L 15.703125 41.59375 
L 16 41.59375 
Q 19.5 45.09375 23.34375 47.4375 
Q 27.203125 49.796875 32.296875 49.796875 
Q 40 49.796875 43.546875 45 
Q 47.09375 40.203125 47.09375 30.796875 
L 47.09375 0 
L 38.90625 0 
L 38.90625 29.703125 
Q 38.90625 36.59375 36.703125 39.640625 
Q 34.5 42.703125 29.703125 42.703125 
Q 25.90625 42.703125 23 40.796875 
Q 20.09375 38.90625 16.40625 35.203125 
L 16.40625 0 
z
" id="SourceSansPro-Regular-110"/>
       <path d="M 23.5 -1.203125 
Q 19.59375 -1.203125 16.9375 0 
Q 14.296875 1.203125 12.640625 3.296875 
Q 11 5.40625 10.296875 8.40625 
Q 9.59375 11.40625 9.59375 15 
L 9.59375 41.90625 
L 2.40625 41.90625 
L 2.40625 48.09375 
L 10 48.59375 
L 11 62.203125 
L 17.90625 62.203125 
L 17.90625 48.59375 
L 31 48.59375 
L 31 41.90625 
L 17.90625 41.90625 
L 17.90625 14.90625 
Q 17.90625 10.40625 19.546875 7.953125 
Q 21.203125 5.5 25.40625 5.5 
Q 26.703125 5.5 28.203125 5.890625 
Q 29.703125 6.296875 30.90625 6.796875 
L 32.5 0.59375 
Q 30.5 -0.09375 28.140625 -0.640625 
Q 25.796875 -1.203125 23.5 -1.203125 
z
" id="SourceSansPro-Regular-116"/>
       <path d="M 9 -20.90625 
Q 7.296875 -20.90625 5.890625 -20.65625 
Q 4.5 -20.40625 3.296875 -19.90625 
L 4.90625 -13.40625 
Q 5.703125 -13.59375 6.703125 -13.84375 
Q 7.703125 -14.09375 8.59375 -14.09375 
Q 12.796875 -14.09375 15.4375 -11.140625 
Q 18.09375 -8.203125 19.59375 -3.703125 
L 20.703125 -0.09375 
L 1.203125 48.59375 
L 9.703125 48.59375 
L 19.59375 21.703125 
Q 20.703125 18.5 21.953125 14.953125 
Q 23.203125 11.40625 24.296875 8 
L 24.703125 8 
Q 25.796875 11.296875 26.796875 14.890625 
Q 27.796875 18.5 28.796875 21.703125 
L 37.5 48.59375 
L 45.5 48.59375 
L 27.203125 -4 
Q 25.90625 -7.59375 24.296875 -10.6875 
Q 22.703125 -13.796875 20.5 -16.046875 
Q 18.296875 -18.296875 15.5 -19.59375 
Q 12.703125 -20.90625 9 -20.90625 
z
" id="SourceSansPro-Regular-121"/>
       <path d="M 18.703125 0 
L 1.203125 48.59375 
L 9.703125 48.59375 
L 18.90625 21 
Q 20 17.40625 21.140625 13.796875 
Q 22.296875 10.203125 23.40625 6.703125 
L 23.796875 6.703125 
Q 24.90625 10.203125 26 13.796875 
Q 27.09375 17.40625 28.203125 21 
L 37.40625 48.59375 
L 45.5 48.59375 
L 28.296875 0 
z
" id="SourceSansPro-Regular-118"/>
       <path d="M 9 0 
L 9 65.59375 
L 17.59375 65.59375 
L 41.296875 24.40625 
L 48.40625 10.796875 
L 48.796875 10.796875 
Q 48.5 15.796875 48.140625 21.140625 
Q 47.796875 26.5 47.796875 31.703125 
L 47.796875 65.59375 
L 55.703125 65.59375 
L 55.703125 0 
L 47.09375 0 
L 23.296875 41.296875 
L 16.203125 54.796875 
L 15.796875 54.796875 
Q 16.203125 49.796875 16.546875 44.640625 
Q 16.90625 39.5 16.90625 34.296875 
L 16.90625 0 
z
" id="SourceSansPro-Regular-78"/>
       <path d="M 20.296875 36.703125 
L 17.203125 26.703125 
L 36.90625 26.703125 
L 33.796875 36.703125 
Q 32 42.203125 30.390625 47.640625 
Q 28.796875 53.09375 27.203125 58.796875 
L 26.796875 58.796875 
Q 25.296875 53.09375 23.6875 47.640625 
Q 22.09375 42.203125 20.296875 36.703125 
z
M 0.296875 0 
L 22.5 65.59375 
L 31.90625 65.59375 
L 54.09375 0 
L 45.203125 0 
L 39 20 
L 15.09375 20 
L 8.796875 0 
z
" id="SourceSansPro-Regular-65"/>
      </defs>
      <use xlink:href="#SourceSansPro-Regular-105"/>
      <use x="24.599991" xlink:href="#SourceSansPro-Regular-110"/>
      <use x="79.299988" xlink:href="#SourceSansPro-Regular-116"/>
      <use x="113.099976" xlink:href="#SourceSansPro-Regular-101"/>
      <use x="162.699966" xlink:href="#SourceSansPro-Regular-110"/>
      <use x="217.399963" xlink:href="#SourceSansPro-Regular-115"/>
      <use x="259.299957" xlink:href="#SourceSansPro-Regular-105"/>
      <use x="283.899948" xlink:href="#SourceSansPro-Regular-116"/>
      <use x="317.699936" xlink:href="#SourceSansPro-Regular-121"/>
      <use x="364.399933" xlink:href="#SourceSansPro-Regular-32"/>
      <use x="384.399918" xlink:href="#SourceSansPro-Regular-118"/>
      <use x="431.099915" xlink:href="#SourceSansPro-Regular-115"/>
      <use x="472.999908" xlink:href="#SourceSansPro-Regular-32"/>
      <use x="492.999893" xlink:href="#SourceSansPro-Regular-78"/>
      <use x="557.69989" xlink:href="#SourceSansPro-Regular-79"/>
      <use x="624.099884" xlink:href="#SourceSansPro-Regular-65"/>
      <use x="678.499878" xlink:href="#SourceSansPro-Regular-72"/>
      <use x="743.699875" xlink:href="#SourceSansPro-Regular-32"/>
      <use x="763.69986" xlink:href="#SourceSansPro-Regular-72"/>
      <use x="828.899857" xlink:href="#SourceSansPro-Regular-83"/>
      <use x="882.29985" xlink:href="#SourceSansPro-Regular-81"/>
      <use x="948.699844" xlink:href="#SourceSansPro-Regular-67"/>
      <use x="1005.799835" xlink:href="#SourceSansPro-Regular-47"/>
      <use x="1040.79982" xlink:href="#SourceSansPro-Regular-67"/>
      <use x="1097.899811" xlink:href="#SourceSansPro-Regular-76"/>
      <use x="1146.499802" xlink:href="#SourceSansPro-Regular-73"/>
      <use x="1172.799789" xlink:href="#SourceSansPro-Regular-80"/>
      <use x="1229.39978" xlink:href="#SourceSansPro-Regular-45"/>
      <use x="1260.499771" xlink:href="#SourceSansPro-Regular-67"/>
      <use x="1317.599762" xlink:href="#SourceSansPro-Regular-79"/>
      <use x="1383.999756" xlink:href="#SourceSansPro-Regular-83"/>
      <use x="1437.39975" xlink:href="#SourceSansPro-Regular-89"/>
     </g>
    </g>
   </g>
   <g id="line2d_6">
    <path clip-path="url(#p2677405a63)" d="M 51.84 122.128748 
L 202.599184 122.128748 
" style="fill:none;stroke:#808080;stroke-dasharray:1.85,0.8;stroke-dashoffset:0;stroke-width:0.5;"/>
   </g>
   <g id="patch_3">
    <path d="M 51.84 227.84 
L 51.84 10.8 
" style="fill:none;stroke:#000000;stroke-linecap:square;stroke-linejoin:miter;stroke-width:1.3;"/>
   </g>
   <g id="patch_4">
    <path d="M 202.599184 227.84 
L 202.599184 10.8 
" style="fill:none;stroke:#000000;stroke-linecap:square;stroke-linejoin:miter;stroke-width:1.3;"/>
   </g>
   <g id="patch_5">
    <path d="M 51.84 227.84 
L 202.599184 227.84 
" style="fill:none;stroke:#000000;stroke-linecap:square;stroke-linejoin:miter;stroke-width:1.3;"/>
   </g>
   <g id="patch_6">
    <path d="M 51.84 10.8 
L 202.599184 10.8 
" style="fill:none;stroke:#000000;stroke-linecap:square;stroke-linejoin:miter;stroke-width:1.3;"/>
   </g>
   <g id="PathCollection_5">
    <defs>
     <path d="M 0 2.5 
C 0.663008 2.5 1.29895 2.236584 1.767767 1.767767 
C 2.236584 1.29895 2.5 0.663008 2.5 -0 
C 2.5 -0.663008 2.236584 -1.29895 1.767767 -1.767767 
C 1.29895 -2.236584 0.663008 -2.5 0 -2.5 
C -0.663008 -2.5 -1.29895 -2.236584 -1.767767 -1.767767 
C -2.236584 -1.29895 -2.5 -0.663008 -2.5 0 
C -2.5 0.663008 -2.236584 1.29895 -1.767767 1.767767 
C -1.29895 2.236584 -0.663008 2.5 0 2.5 
z
" id="C0_0_6229c4f09e"/>
    </defs>
    <g clip-path="url(#p2677405a63)">
     <use style="fill:#4c72b0;" x="83.090866" xlink:href="#C0_0_6229c4f09e" y="37.107879"/>
    </g>
    <g clip-path="url(#p2677405a63)">
     <use style="fill:#4c72b0;" x="85.478067" xlink:href="#C0_0_6229c4f09e" y="65.889894"/>
    </g>
    <g clip-path="url(#p2677405a63)">
     <use style="fill:#4c72b0;" x="84.643676" xlink:href="#C0_0_6229c4f09e" y="62.031266"/>
    </g>
    <g clip-path="url(#p2677405a63)">
     <use style="fill:#4c72b0;" x="84.424923" xlink:href="#C0_0_6229c4f09e" y="56.116556"/>
    </g>
    <g clip-path="url(#p2677405a63)">
     <use style="fill:#4c72b0;" x="79.412889" xlink:href="#C0_0_6229c4f09e" y="73.906238"/>
    </g>
   </g>
   <g id="PathCollection_6">
    <defs>
     <path d="M 0 2.5 
C 0.663008 2.5 1.29895 2.236584 1.767767 1.767767 
C 2.236584 1.29895 2.5 0.663008 2.5 -0 
C 2.5 -0.663008 2.236584 -1.29895 1.767767 -1.767767 
C 1.29895 -2.236584 0.663008 -2.5 0 -2.5 
C -0.663008 -2.5 -1.29895 -2.236584 -1.767767 -1.767767 
C -2.236584 -1.29895 -2.5 -0.663008 -2.5 0 
C -2.5 0.663008 -2.236584 1.29895 -1.767767 1.767767 
C -1.29895 2.236584 -0.663008 2.5 0 2.5 
z
" id="C1_0_14a8e16ab0"/>
    </defs>
    <g clip-path="url(#p2677405a63)">
     <use style="fill:#dd8452;" x="112.932265" xlink:href="#C1_0_14a8e16ab0" y="98.77528"/>
    </g>
    <g clip-path="url(#p2677405a63)">
     <use style="fill:#dd8452;" x="110.066833" xlink:href="#C1_0_14a8e16ab0" y="92.777867"/>
    </g>
    <g clip-path="url(#p2677405a63)">
     <use style="fill:#dd8452;" x="111.543156" xlink:href="#C1_0_14a8e16ab0" y="108.086283"/>
    </g>
    <g clip-path="url(#p2677405a63)">
     <use style="fill:#dd8452;" x="115.317166" xlink:href="#C1_0_14a8e16ab0" y="108.166081"/>
    </g>
    <g clip-path="url(#p2677405a63)">
     <use style="fill:#dd8452;" x="113.551571" xlink:href="#C1_0_14a8e16ab0" y="105.405435"/>
    </g>
    <g clip-path="url(#p2677405a63)">
     <use style="fill:#dd8452;" x="109.311614" xlink:href="#C1_0_14a8e16ab0" y="107.272454"/>
    </g>
    <g clip-path="url(#p2677405a63)">
     <use style="fill:#dd8452;" x="111.03478" xlink:href="#C1_0_14a8e16ab0" y="81.041014"/>
    </g>
    <g clip-path="url(#p2677405a63)">
     <use style="fill:#dd8452;" x="111.282638" xlink:href="#C1_0_14a8e16ab0" y="92.534382"/>
    </g>
    <g clip-path="url(#p2677405a63)">
     <use style="fill:#dd8452;" x="115.293563" xlink:href="#C1_0_14a8e16ab0" y="103.843727"/>
    </g>
    <g clip-path="url(#p2677405a63)">
     <use style="fill:#dd8452;" x="115.414226" xlink:href="#C1_0_14a8e16ab0" y="97.884115"/>
    </g>
    <g clip-path="url(#p2677405a63)">
     <use style="fill:#dd8452;" x="110.045102" xlink:href="#C1_0_14a8e16ab0" y="105.323649"/>
    </g>
    <g clip-path="url(#p2677405a63)">
     <use style="fill:#dd8452;" x="115.095754" xlink:href="#C1_0_14a8e16ab0" y="85.821415"/>
    </g>
    <g clip-path="url(#p2677405a63)">
     <use style="fill:#dd8452;" x="112.862918" xlink:href="#C1_0_14a8e16ab0" y="91.874834"/>
    </g>
    <g clip-path="url(#p2677405a63)">
     <use style="fill:#dd8452;" x="112.455351" xlink:href="#C1_0_14a8e16ab0" y="77.014407"/>
    </g>
   </g>
   <g id="PathCollection_7">
    <defs>
     <path d="M 0 2.5 
C 0.663008 2.5 1.29895 2.236584 1.767767 1.767767 
C 2.236584 1.29895 2.5 0.663008 2.5 -0 
C 2.5 -0.663008 2.236584 -1.29895 1.767767 -1.767767 
C 1.29895 -2.236584 0.663008 -2.5 0 -2.5 
C -0.663008 -2.5 -1.29895 -2.236584 -1.767767 -1.767767 
C -2.236584 -1.29895 -2.5 -0.663008 -2.5 0 
C -2.5 0.663008 -2.236584 1.29895 -1.767767 1.767767 
C -1.29895 2.236584 -0.663008 2.5 0 2.5 
z
" id="C2_0_02080f3141"/>
    </defs>
    <g clip-path="url(#p2677405a63)">
     <use style="fill:#55a868;" x="143.100495" xlink:href="#C2_0_02080f3141" y="74.395632"/>
    </g>
    <g clip-path="url(#p2677405a63)">
     <use style="fill:#55a868;" x="140.51542" xlink:href="#C2_0_02080f3141" y="78.015618"/>
    </g>
   </g>
   <g id="PathCollection_8">
    <defs>
     <path d="M 0 2.5 
C 0.663008 2.5 1.29895 2.236584 1.767767 1.767767 
C 2.236584 1.29895 2.5 0.663008 2.5 -0 
C 2.5 -0.663008 2.236584 -1.29895 1.767767 -1.767767 
C 1.29895 -2.236584 0.663008 -2.5 0 -2.5 
C -0.663008 -2.5 -1.29895 -2.236584 -1.767767 -1.767767 
C -2.236584 -1.29895 -2.5 -0.663008 -2.5 0 
C -2.5 0.663008 -2.236584 1.29895 -1.767767 1.767767 
C -1.29895 2.236584 -0.663008 2.5 0 2.5 
z
" id="C3_0_124abb5f22"/>
    </defs>
    <g clip-path="url(#p2677405a63)">
     <use style="fill:#c44e52;" x="171.480571" xlink:href="#C3_0_124abb5f22" y="192.141459"/>
    </g>
    <g clip-path="url(#p2677405a63)">
     <use style="fill:#c44e52;" x="174.671904" xlink:href="#C3_0_124abb5f22" y="191.650921"/>
    </g>
    <g clip-path="url(#p2677405a63)">
     <use style="fill:#c44e52;" x="172.871376" xlink:href="#C3_0_124abb5f22" y="194.068247"/>
    </g>
    <g clip-path="url(#p2677405a63)">
     <use style="fill:#c44e52;" x="169.829914" xlink:href="#C3_0_124abb5f22" y="190.897345"/>
    </g>
    <g clip-path="url(#p2677405a63)">
     <use style="fill:#c44e52;" x="171.724422" xlink:href="#C3_0_124abb5f22" y="189.100789"/>
    </g>
    <g clip-path="url(#p2677405a63)">
     <use style="fill:#c44e52;" x="169.644113" xlink:href="#C3_0_124abb5f22" y="191.483314"/>
    </g>
    <g clip-path="url(#p2677405a63)">
     <use style="fill:#c44e52;" x="170.626264" xlink:href="#C3_0_124abb5f22" y="195.043676"/>
    </g>
    <g clip-path="url(#p2677405a63)">
     <use style="fill:#c44e52;" x="173.974568" xlink:href="#C3_0_124abb5f22" y="185.512644"/>
    </g>
    <g clip-path="url(#p2677405a63)">
     <use style="fill:#c44e52;" x="169.14702" xlink:href="#C3_0_124abb5f22" y="189.526893"/>
    </g>
    <g clip-path="url(#p2677405a63)">
     <use style="fill:#c44e52;" x="169.739562" xlink:href="#C3_0_124abb5f22" y="192.640173"/>
    </g>
    <g clip-path="url(#p2677405a63)">
     <use style="fill:#c44e52;" x="170.559737" xlink:href="#C3_0_124abb5f22" y="189.060987"/>
    </g>
    <g clip-path="url(#p2677405a63)">
     <use style="fill:#c44e52;" x="174.321289" xlink:href="#C3_0_124abb5f22" y="188.141112"/>
    </g>
    <g clip-path="url(#p2677405a63)">
     <use style="fill:#c44e52;" x="174.2457" xlink:href="#C3_0_124abb5f22" y="185.809094"/>
    </g>
    <g clip-path="url(#p2677405a63)">
     <use style="fill:#c44e52;" x="169.956329" xlink:href="#C3_0_124abb5f22" y="192.954244"/>
    </g>
    <g clip-path="url(#p2677405a63)">
     <use style="fill:#c44e52;" x="174.918213" xlink:href="#C3_0_124abb5f22" y="194.795666"/>
    </g>
    <g clip-path="url(#p2677405a63)">
     <use style="fill:#c44e52;" x="175.841189" xlink:href="#C3_0_124abb5f22" y="185.890489"/>
    </g>
    <g clip-path="url(#p2677405a63)">
     <use style="fill:#c44e52;" x="174.620324" xlink:href="#C3_0_124abb5f22" y="188.309204"/>
    </g>
    <g clip-path="url(#p2677405a63)">
     <use style="fill:#c44e52;" x="174.813884" xlink:href="#C3_0_124abb5f22" y="189.030665"/>
    </g>
    <g clip-path="url(#p2677405a63)">
     <use style="fill:#c44e52;" x="173.386436" xlink:href="#C3_0_124abb5f22" y="191.834369"/>
    </g>
    <g clip-path="url(#p2677405a63)">
     <use style="fill:#c44e52;" x="175.735712" xlink:href="#C3_0_124abb5f22" y="190.532049"/>
    </g>
    <g clip-path="url(#p2677405a63)">
     <use style="fill:#c44e52;" x="175.097523" xlink:href="#C3_0_124abb5f22" y="193.082036"/>
    </g>
    <g clip-path="url(#p2677405a63)">
     <use style="fill:#c44e52;" x="169.153512" xlink:href="#C3_0_124abb5f22" y="193.733684"/>
    </g>
    <g clip-path="url(#p2677405a63)">
     <use style="fill:#c44e52;" x="171.117391" xlink:href="#C3_0_124abb5f22" y="188.184403"/>
    </g>
    <g clip-path="url(#p2677405a63)">
     <use style="fill:#c44e52;" x="168.688997" xlink:href="#C3_0_124abb5f22" y="194.176818"/>
    </g>
    <g clip-path="url(#p2677405a63)">
     <use style="fill:#c44e52;" x="170.241403" xlink:href="#C3_0_124abb5f22" y="192.018236"/>
    </g>
    <g clip-path="url(#p2677405a63)">
     <use style="fill:#c44e52;" x="175.328837" xlink:href="#C3_0_124abb5f22" y="195.680561"/>
    </g>
    <g clip-path="url(#p2677405a63)">
     <use style="fill:#c44e52;" x="169.97679" xlink:href="#C3_0_124abb5f22" y="188.741154"/>
    </g>
    <g clip-path="url(#p2677405a63)">
     <use style="fill:#c44e52;" x="170.925399" xlink:href="#C3_0_124abb5f22" y="188.801666"/>
    </g>
    <g clip-path="url(#p2677405a63)">
     <use style="fill:#c44e52;" x="176.070257" xlink:href="#C3_0_124abb5f22" y="195.665389"/>
    </g>
    <g clip-path="url(#p2677405a63)">
     <use style="fill:#c44e52;" x="169.307171" xlink:href="#C3_0_124abb5f22" y="193.046161"/>
    </g>
    <g clip-path="url(#p2677405a63)">
     <use style="fill:#c44e52;" x="168.830434" xlink:href="#C3_0_124abb5f22" y="189.299526"/>
    </g>
    <g clip-path="url(#p2677405a63)">
     <use style="fill:#c44e52;" x="169.156238" xlink:href="#C3_0_124abb5f22" y="191.265644"/>
    </g>
    <g clip-path="url(#p2677405a63)">
     <use style="fill:#c44e52;" x="169.548857" xlink:href="#C3_0_124abb5f22" y="190.731491"/>
    </g>
    <g clip-path="url(#p2677405a63)">
     <use style="fill:#c44e52;" x="174.873157" xlink:href="#C3_0_124abb5f22" y="188.5583"/>
    </g>
    <g clip-path="url(#p2677405a63)">
     <use style="fill:#c44e52;" x="174.827519" xlink:href="#C3_0_124abb5f22" y="188.543704"/>
    </g>
    <g clip-path="url(#p2677405a63)">
     <use style="fill:#c44e52;" x="175.960804" xlink:href="#C3_0_124abb5f22" y="192.122999"/>
    </g>
    <g clip-path="url(#p2677405a63)">
     <use style="fill:#c44e52;" x="170.322132" xlink:href="#C3_0_124abb5f22" y="189.836914"/>
    </g>
    <g clip-path="url(#p2677405a63)">
     <use style="fill:#c44e52;" x="174.927867" xlink:href="#C3_0_124abb5f22" y="192.676581"/>
    </g>
    <g clip-path="url(#p2677405a63)">
     <use style="fill:#c44e52;" x="175.278672" xlink:href="#C3_0_124abb5f22" y="192.005672"/>
    </g>
    <g clip-path="url(#p2677405a63)">
     <use style="fill:#c44e52;" x="174.902484" xlink:href="#C3_0_124abb5f22" y="194.792563"/>
    </g>
    <g clip-path="url(#p2677405a63)">
     <use style="fill:#c44e52;" x="175.329645" xlink:href="#C3_0_124abb5f22" y="191.824693"/>
    </g>
    <g clip-path="url(#p2677405a63)">
     <use style="fill:#c44e52;" x="174.825019" xlink:href="#C3_0_124abb5f22" y="186.324703"/>
    </g>
    <g clip-path="url(#p2677405a63)">
     <use style="fill:#c44e52;" x="174.252292" xlink:href="#C3_0_124abb5f22" y="193.232265"/>
    </g>
    <g clip-path="url(#p2677405a63)">
     <use style="fill:#c44e52;" x="176.157298" xlink:href="#C3_0_124abb5f22" y="187.176523"/>
    </g>
    <g clip-path="url(#p2677405a63)">
     <use style="fill:#c44e52;" x="172.968253" xlink:href="#C3_0_124abb5f22" y="186.509223"/>
    </g>
    <g clip-path="url(#p2677405a63)">
     <use style="fill:#c44e52;" x="169.482097" xlink:href="#C3_0_124abb5f22" y="201.532121"/>
    </g>
    <g clip-path="url(#p2677405a63)">
     <use style="fill:#c44e52;" x="173.284112" xlink:href="#C3_0_124abb5f22" y="194.846361"/>
    </g>
    <g clip-path="url(#p2677405a63)">
     <use style="fill:#c44e52;" x="175.057949" xlink:href="#C3_0_124abb5f22" y="186.679093"/>
    </g>
    <g clip-path="url(#p2677405a63)">
     <use style="fill:#c44e52;" x="168.856411" xlink:href="#C3_0_124abb5f22" y="182.716462"/>
    </g>
    <g clip-path="url(#p2677405a63)">
     <use style="fill:#c44e52;" x="174.328432" xlink:href="#C3_0_124abb5f22" y="187.080268"/>
    </g>
    <g clip-path="url(#p2677405a63)">
     <use style="fill:#c44e52;" x="173.887387" xlink:href="#C3_0_124abb5f22" y="192.626117"/>
    </g>
    <g clip-path="url(#p2677405a63)">
     <use style="fill:#c44e52;" x="173.68226" xlink:href="#C3_0_124abb5f22" y="183.361684"/>
    </g>
   </g>
   <g id="text_8">
    <!-- (1.80) -->
    <g style="fill:#4c72b0;" transform="translate(70.261368 223.4992)scale(0.1 -0.1)">
     <defs>
      <path d="M 21.40625 -17.59375 
Q 15.203125 -7.59375 11.703125 3.5 
Q 8.203125 14.59375 8.203125 27.796875 
Q 8.203125 41 11.703125 52.046875 
Q 15.203125 63.09375 21.40625 73.203125 
L 26.5 70.796875 
Q 20.703125 61.203125 17.84375 50.25 
Q 15 39.296875 15 27.796875 
Q 15 16.296875 17.84375 5.34375 
Q 20.703125 -5.59375 26.5 -15.203125 
z
" id="SourceSansPro-Regular-40"/>
      <path d="M 25 -1.203125 
Q 20.5 -1.203125 16.640625 0.09375 
Q 12.796875 1.40625 10.046875 3.75 
Q 7.296875 6.09375 5.6875 9.296875 
Q 4.09375 12.5 4.09375 16.296875 
Q 4.09375 19.40625 5.140625 22.046875 
Q 6.203125 24.703125 7.84375 26.84375 
Q 9.5 29 11.640625 30.640625 
Q 13.796875 32.296875 16.09375 33.5 
L 16.09375 33.90625 
Q 12.59375 36.40625 9.890625 39.953125 
Q 7.203125 43.5 7.203125 48.59375 
Q 7.203125 52.296875 8.59375 55.296875 
Q 10 58.296875 12.390625 60.4375 
Q 14.796875 62.59375 18.09375 63.796875 
Q 21.40625 65 25.296875 65 
Q 29.5 65 32.796875 63.75 
Q 36.09375 62.5 38.4375 60.25 
Q 40.796875 58 42.046875 54.84375 
Q 43.296875 51.703125 43.296875 48 
Q 43.296875 45.5 42.4375 43.203125 
Q 41.59375 40.90625 40.34375 38.90625 
Q 39.09375 36.90625 37.546875 35.296875 
Q 36 33.703125 34.5 32.59375 
L 34.5 32.203125 
Q 36.59375 31 38.59375 29.453125 
Q 40.59375 27.90625 42.140625 25.953125 
Q 43.703125 24 44.640625 21.5 
Q 45.59375 19 45.59375 15.796875 
Q 45.59375 12.203125 44.09375 9.09375 
Q 42.59375 6 39.890625 3.703125 
Q 37.203125 1.40625 33.390625 0.09375 
Q 29.59375 -1.203125 25 -1.203125 
z
M 29.5 34.796875 
Q 32.703125 37.703125 34.453125 40.890625 
Q 36.203125 44.09375 36.203125 47.59375 
Q 36.203125 52.40625 33.296875 55.65625 
Q 30.40625 58.90625 25.09375 58.90625 
Q 20.59375 58.90625 17.6875 56.09375 
Q 14.796875 53.296875 14.796875 48.59375 
Q 14.796875 45.703125 16 43.640625 
Q 17.203125 41.59375 19.25 40 
Q 21.296875 38.40625 23.9375 37.15625 
Q 26.59375 35.90625 29.5 34.796875 
z
M 25.203125 4.90625 
Q 30.796875 4.90625 34.25 8 
Q 37.703125 11.09375 37.703125 16.09375 
Q 37.703125 19.203125 36.296875 21.390625 
Q 34.90625 23.59375 32.5 25.25 
Q 30.09375 26.90625 26.9375 28.25 
Q 23.796875 29.59375 20.40625 31 
Q 16.59375 28.40625 14.046875 24.953125 
Q 11.5 21.5 11.5 17.09375 
Q 11.5 14.40625 12.546875 12.203125 
Q 13.59375 10 15.4375 8.34375 
Q 17.296875 6.703125 19.796875 5.796875 
Q 22.296875 4.90625 25.203125 4.90625 
z
" id="SourceSansPro-Regular-56"/>
      <path d="M 8.90625 -17.59375 
L 3.796875 -15.203125 
Q 9.59375 -5.59375 12.4375 5.34375 
Q 15.296875 16.296875 15.296875 27.796875 
Q 15.296875 39.296875 12.4375 50.25 
Q 9.59375 61.203125 3.796875 70.796875 
L 8.90625 73.203125 
Q 15.09375 63.09375 18.59375 52.046875 
Q 22.09375 41 22.09375 27.796875 
Q 22.09375 14.59375 18.59375 3.5 
Q 15.09375 -7.59375 8.90625 -17.59375 
z
" id="SourceSansPro-Regular-41"/>
     </defs>
     <use xlink:href="#SourceSansPro-Regular-40"/>
     <use x="30.299988" xlink:href="#SourceSansPro-Regular-49"/>
     <use x="79.999985" xlink:href="#SourceSansPro-Regular-46"/>
     <use x="104.899979" xlink:href="#SourceSansPro-Regular-56"/>
     <use x="154.599976" xlink:href="#SourceSansPro-Regular-48"/>
     <use x="204.299973" xlink:href="#SourceSansPro-Regular-41"/>
    </g>
   </g>
   <g id="text_9">
    <!-- (1.32) -->
    <g style="fill:#dd8452;" transform="translate(100.413205 223.4992)scale(0.1 -0.1)">
     <defs>
      <path d="M 23.59375 -1.203125 
Q 19.796875 -1.203125 16.640625 -0.453125 
Q 13.5 0.296875 10.890625 1.546875 
Q 8.296875 2.796875 6.25 4.390625 
Q 4.203125 6 2.59375 7.796875 
L 6.796875 13.203125 
Q 9.703125 10.203125 13.546875 7.890625 
Q 17.40625 5.59375 23.09375 5.59375 
Q 28.90625 5.59375 32.59375 8.75 
Q 36.296875 11.90625 36.296875 17.296875 
Q 36.296875 20.09375 35.25 22.4375 
Q 34.203125 24.796875 31.796875 26.5 
Q 29.40625 28.203125 25.5 29.09375 
Q 21.59375 30 15.90625 30 
L 15.90625 36.296875 
Q 21 36.296875 24.453125 37.1875 
Q 27.90625 38.09375 30.046875 39.6875 
Q 32.203125 41.296875 33.09375 43.5 
Q 34 45.703125 34 48.203125 
Q 34 52.90625 31.046875 55.59375 
Q 28.09375 58.296875 23 58.296875 
Q 19 58.296875 15.640625 56.5 
Q 12.296875 54.703125 9.40625 51.796875 
L 5 57 
Q 8.703125 60.5 13.140625 62.75 
Q 17.59375 65 23.296875 65 
Q 27.5 65 31 63.890625 
Q 34.5 62.796875 37.046875 60.75 
Q 39.59375 58.703125 41 55.703125 
Q 42.40625 52.703125 42.40625 48.796875 
Q 42.40625 43 39.203125 39.296875 
Q 36 35.59375 30.796875 33.59375 
L 30.796875 33.203125 
Q 33.703125 32.5 36.203125 31.140625 
Q 38.703125 29.796875 40.59375 27.75 
Q 42.5 25.703125 43.546875 23 
Q 44.59375 20.296875 44.59375 17 
Q 44.59375 12.796875 42.9375 9.390625 
Q 41.296875 6 38.4375 3.640625 
Q 35.59375 1.296875 31.796875 0.046875 
Q 28 -1.203125 23.59375 -1.203125 
z
" id="SourceSansPro-Regular-51"/>
     </defs>
     <use xlink:href="#SourceSansPro-Regular-40"/>
     <use x="30.299988" xlink:href="#SourceSansPro-Regular-49"/>
     <use x="79.999985" xlink:href="#SourceSansPro-Regular-46"/>
     <use x="104.899979" xlink:href="#SourceSansPro-Regular-51"/>
     <use x="154.599976" xlink:href="#SourceSansPro-Regular-50"/>
     <use x="204.299973" xlink:href="#SourceSansPro-Regular-41"/>
    </g>
   </g>
   <g id="text_10">
    <!-- (1.58) -->
    <g style="fill:#55a868;" transform="translate(130.565041 223.4992)scale(0.1 -0.1)">
     <use xlink:href="#SourceSansPro-Regular-40"/>
     <use x="30.299988" xlink:href="#SourceSansPro-Regular-49"/>
     <use x="79.999985" xlink:href="#SourceSansPro-Regular-46"/>
     <use x="104.899979" xlink:href="#SourceSansPro-Regular-53"/>
     <use x="154.599976" xlink:href="#SourceSansPro-Regular-56"/>
     <use x="204.299973" xlink:href="#SourceSansPro-Regular-41"/>
    </g>
   </g>
   <g id="text_11">
    <!-- (0.13) -->
    <g style="fill:#c44e52;" transform="translate(160.716878 223.4992)scale(0.1 -0.1)">
     <use xlink:href="#SourceSansPro-Regular-40"/>
     <use x="30.299988" xlink:href="#SourceSansPro-Regular-48"/>
     <use x="79.999985" xlink:href="#SourceSansPro-Regular-46"/>
     <use x="104.899979" xlink:href="#SourceSansPro-Regular-49"/>
     <use x="154.599976" xlink:href="#SourceSansPro-Regular-51"/>
     <use x="204.299973" xlink:href="#SourceSansPro-Regular-41"/>
    </g>
   </g>
   <g id="legend_1">
    <g id="patch_7">
     <path d="M 135.299184 66.48125 
L 195.599184 66.48125 
Q 197.599184 66.48125 197.599184 64.48125 
L 197.599184 17.8 
Q 197.599184 15.8 195.599184 15.8 
L 135.299184 15.8 
Q 133.299184 15.8 133.299184 17.8 
L 133.299184 64.48125 
Q 133.299184 66.48125 135.299184 66.48125 
z
" style="fill:#ffffff;opacity:0.8;stroke:#cccccc;stroke-linejoin:miter;"/>
    </g>
    <g id="PathCollection_9">
     <path d="M 139.799184 26.795312 
C 140.462191 26.795312 141.098133 26.531897 141.566951 26.063079 
C 142.035768 25.594262 142.299184 24.95832 142.299184 24.295312 
C 142.299184 23.632305 142.035768 22.996363 141.566951 22.527546 
C 141.098133 22.058728 140.462191 21.795312 139.799184 21.795312 
C 139.136176 21.795312 138.500234 22.058728 138.031417 22.527546 
C 137.562599 22.996363 137.299184 23.632305 137.299184 24.295312 
C 137.299184 24.95832 137.562599 25.594262 138.031417 26.063079 
C 138.500234 26.531897 139.136176 26.795312 139.799184 26.795312 
z
" style="fill:#4c72b0;"/>
    </g>
    <g id="text_12">
     <!-- HSQC CH -->
     <g transform="translate(150.299184 26.920312)scale(0.1 -0.1)">
      <use xlink:href="#SourceSansPro-Regular-72"/>
      <use x="65.199997" xlink:href="#SourceSansPro-Regular-83"/>
      <use x="118.599991" xlink:href="#SourceSansPro-Regular-81"/>
      <use x="184.999985" xlink:href="#SourceSansPro-Regular-67"/>
      <use x="242.099976" xlink:href="#SourceSansPro-Regular-32"/>
      <use x="262.09996" xlink:href="#SourceSansPro-Regular-67"/>
      <use x="319.199951" xlink:href="#SourceSansPro-Regular-72"/>
     </g>
    </g>
    <g id="PathCollection_10">
     <path d="M 139.799184 37.965625 
C 140.462191 37.965625 141.098133 37.702209 141.566951 37.233392 
C 142.035768 36.764575 142.299184 36.128633 142.299184 35.465625 
C 142.299184 34.802617 142.035768 34.166675 141.566951 33.697858 
C 141.098133 33.229041 140.462191 32.965625 139.799184 32.965625 
C 139.136176 32.965625 138.500234 33.229041 138.031417 33.697858 
C 137.562599 34.166675 137.299184 34.802617 137.299184 35.465625 
C 137.299184 36.128633 137.562599 36.764575 138.031417 37.233392 
C 138.500234 37.702209 139.136176 37.965625 139.799184 37.965625 
z
" style="fill:#dd8452;"/>
    </g>
    <g id="text_13">
     <!-- HSQC CH$_2$ -->
     <g transform="translate(150.299184 38.090625)scale(0.1 -0.1)">
      <defs>
       <path d="M 19.1875 8.296875 
L 53.609375 8.296875 
L 53.609375 0 
L 7.328125 0 
L 7.328125 8.296875 
Q 12.9375 14.109375 22.625 23.890625 
Q 32.328125 33.6875 34.8125 36.53125 
Q 39.546875 41.84375 41.421875 45.53125 
Q 43.3125 49.21875 43.3125 52.78125 
Q 43.3125 58.59375 39.234375 62.25 
Q 35.15625 65.921875 28.609375 65.921875 
Q 23.96875 65.921875 18.8125 64.3125 
Q 13.671875 62.703125 7.8125 59.421875 
L 7.8125 69.390625 
Q 13.765625 71.78125 18.9375 73 
Q 24.125 74.21875 28.421875 74.21875 
Q 39.75 74.21875 46.484375 68.546875 
Q 53.21875 62.890625 53.21875 53.421875 
Q 53.21875 48.921875 51.53125 44.890625 
Q 49.859375 40.875 45.40625 35.40625 
Q 44.1875 33.984375 37.640625 27.21875 
Q 31.109375 20.453125 19.1875 8.296875 
z
" id="DejaVuSans-50"/>
      </defs>
      <use transform="translate(0 0.203125)" xlink:href="#SourceSansPro-Regular-72"/>
      <use transform="translate(65.199997 0.203125)" xlink:href="#SourceSansPro-Regular-83"/>
      <use transform="translate(118.599991 0.203125)" xlink:href="#SourceSansPro-Regular-81"/>
      <use transform="translate(184.999985 0.203125)" xlink:href="#SourceSansPro-Regular-67"/>
      <use transform="translate(242.099976 0.203125)" xlink:href="#SourceSansPro-Regular-32"/>
      <use transform="translate(262.09996 0.203125)" xlink:href="#SourceSansPro-Regular-67"/>
      <use transform="translate(319.199951 0.203125)" xlink:href="#SourceSansPro-Regular-72"/>
      <use transform="translate(385.356979 -16.203125)scale(0.7)" xlink:href="#DejaVuSans-50"/>
     </g>
    </g>
    <g id="PathCollection_11">
     <path d="M 139.799184 49.135938 
C 140.462191 49.135938 141.098133 48.872522 141.566951 48.403704 
C 142.035768 47.934887 142.299184 47.298945 142.299184 46.635938 
C 142.299184 45.97293 142.035768 45.336988 141.566951 44.868171 
C 141.098133 44.399353 140.462191 44.135938 139.799184 44.135938 
C 139.136176 44.135938 138.500234 44.399353 138.031417 44.868171 
C 137.562599 45.336988 137.299184 45.97293 137.299184 46.635938 
C 137.299184 47.298945 137.562599 47.934887 138.031417 48.403704 
C 138.500234 48.872522 139.136176 49.135938 139.799184 49.135938 
z
" style="fill:#55a868;"/>
    </g>
    <g id="text_14">
     <!-- HSQC CH$_3$ -->
     <g transform="translate(150.299184 49.260938)scale(0.1 -0.1)">
      <defs>
       <path d="M 40.578125 39.3125 
Q 47.65625 37.796875 51.625 33 
Q 55.609375 28.21875 55.609375 21.1875 
Q 55.609375 10.40625 48.1875 4.484375 
Q 40.765625 -1.421875 27.09375 -1.421875 
Q 22.515625 -1.421875 17.65625 -0.515625 
Q 12.796875 0.390625 7.625 2.203125 
L 7.625 11.71875 
Q 11.71875 9.328125 16.59375 8.109375 
Q 21.484375 6.890625 26.8125 6.890625 
Q 36.078125 6.890625 40.9375 10.546875 
Q 45.796875 14.203125 45.796875 21.1875 
Q 45.796875 27.640625 41.28125 31.265625 
Q 36.765625 34.90625 28.71875 34.90625 
L 20.21875 34.90625 
L 20.21875 43.015625 
L 29.109375 43.015625 
Q 36.375 43.015625 40.234375 45.921875 
Q 44.09375 48.828125 44.09375 54.296875 
Q 44.09375 59.90625 40.109375 62.90625 
Q 36.140625 65.921875 28.71875 65.921875 
Q 24.65625 65.921875 20.015625 65.03125 
Q 15.375 64.15625 9.8125 62.3125 
L 9.8125 71.09375 
Q 15.4375 72.65625 20.34375 73.4375 
Q 25.25 74.21875 29.59375 74.21875 
Q 40.828125 74.21875 47.359375 69.109375 
Q 53.90625 64.015625 53.90625 55.328125 
Q 53.90625 49.265625 50.4375 45.09375 
Q 46.96875 40.921875 40.578125 39.3125 
z
" id="DejaVuSans-51"/>
      </defs>
      <use transform="translate(0 0.203125)" xlink:href="#SourceSansPro-Regular-72"/>
      <use transform="translate(65.199997 0.203125)" xlink:href="#SourceSansPro-Regular-83"/>
      <use transform="translate(118.599991 0.203125)" xlink:href="#SourceSansPro-Regular-81"/>
      <use transform="translate(184.999985 0.203125)" xlink:href="#SourceSansPro-Regular-67"/>
      <use transform="translate(242.099976 0.203125)" xlink:href="#SourceSansPro-Regular-32"/>
      <use transform="translate(262.09996 0.203125)" xlink:href="#SourceSansPro-Regular-67"/>
      <use transform="translate(319.199951 0.203125)" xlink:href="#SourceSansPro-Regular-72"/>
      <use transform="translate(385.356979 -16.203125)scale(0.7)" xlink:href="#DejaVuSans-51"/>
     </g>
    </g>
    <g id="PathCollection_12">
     <path d="M 139.799184 60.30625 
C 140.462191 60.30625 141.098133 60.042834 141.566951 59.574017 
C 142.035768 59.1052 142.299184 58.469258 142.299184 57.80625 
C 142.299184 57.143242 142.035768 56.5073 141.566951 56.038483 
C 141.098133 55.569666 140.462191 55.30625 139.799184 55.30625 
C 139.136176 55.30625 138.500234 55.569666 138.031417 56.038483 
C 137.562599 56.5073 137.299184 57.143242 137.299184 57.80625 
C 137.299184 58.469258 137.562599 59.1052 138.031417 59.574017 
C 138.500234 60.042834 139.136176 60.30625 139.799184 60.30625 
z
" style="fill:#c44e52;"/>
    </g>
    <g id="text_15">
     <!-- COSY -->
     <g transform="translate(150.299184 60.43125)scale(0.1 -0.1)">
      <use xlink:href="#SourceSansPro-Regular-67"/>
      <use x="57.099991" xlink:href="#SourceSansPro-Regular-79"/>
      <use x="123.499985" xlink:href="#SourceSansPro-Regular-83"/>
      <use x="176.899979" xlink:href="#SourceSansPro-Regular-89"/>
     </g>
    </g>
   </g>
  </g>
  <g id="axes_2">
   <g id="patch_8">
    <path d="M 270.440816 227.84 
L 421.2 227.84 
L 421.2 10.8 
L 270.440816 10.8 
z
" style="fill:#ffffff;"/>
   </g>
   <g id="PathCollection_13"/>
   <g id="PathCollection_14"/>
   <g id="PathCollection_15"/>
   <g id="PathCollection_16"/>
   <g id="matplotlib.axis_3">
    <g id="text_16">
     <!-- NOAH seHSQC/CLIP-COSY -->
     <g transform="translate(291.645408 238.960312)scale(0.1 -0.1)">
      <use xlink:href="#SourceSansPro-Regular-78"/>
      <use x="64.699997" xlink:href="#SourceSansPro-Regular-79"/>
      <use x="131.099991" xlink:href="#SourceSansPro-Regular-65"/>
      <use x="185.499985" xlink:href="#SourceSansPro-Regular-72"/>
      <use x="250.699982" xlink:href="#SourceSansPro-Regular-32"/>
      <use x="270.699966" xlink:href="#SourceSansPro-Regular-115"/>
      <use x="312.59996" xlink:href="#SourceSansPro-Regular-101"/>
      <use x="362.199951" xlink:href="#SourceSansPro-Regular-72"/>
      <use x="427.399948" xlink:href="#SourceSansPro-Regular-83"/>
      <use x="480.799942" xlink:href="#SourceSansPro-Regular-81"/>
      <use x="547.199936" xlink:href="#SourceSansPro-Regular-67"/>
      <use x="604.299927" xlink:href="#SourceSansPro-Regular-47"/>
      <use x="639.299911" xlink:href="#SourceSansPro-Regular-67"/>
      <use x="696.399902" xlink:href="#SourceSansPro-Regular-76"/>
      <use x="744.999893" xlink:href="#SourceSansPro-Regular-73"/>
      <use x="771.299881" xlink:href="#SourceSansPro-Regular-80"/>
      <use x="827.899872" xlink:href="#SourceSansPro-Regular-45"/>
      <use x="858.999863" xlink:href="#SourceSansPro-Regular-67"/>
      <use x="916.099854" xlink:href="#SourceSansPro-Regular-79"/>
      <use x="982.499847" xlink:href="#SourceSansPro-Regular-83"/>
      <use x="1035.899841" xlink:href="#SourceSansPro-Regular-89"/>
     </g>
    </g>
   </g>
   <g id="matplotlib.axis_4">
    <g id="ytick_6">
     <g id="line2d_7">
      <g>
       <use style="stroke:#000000;stroke-width:0.8;" x="270.440816" xlink:href="#m890db7a565" y="223.353694"/>
      </g>
     </g>
     <g id="text_17">
      <!-- 0.6 -->
      <g transform="translate(251.009566 226.91385)scale(0.1 -0.1)">
       <defs>
        <path d="M 26.796875 -1.203125 
Q 22.09375 -1.203125 18.09375 0.6875 
Q 14.09375 2.59375 11.140625 6.4375 
Q 8.203125 10.296875 6.5 16.046875 
Q 4.796875 21.796875 4.796875 29.5 
Q 4.796875 39.09375 6.796875 45.84375 
Q 8.796875 52.59375 12.1875 56.84375 
Q 15.59375 61.09375 19.9375 63.046875 
Q 24.296875 65 29.09375 65 
Q 34.296875 65 38.046875 63.046875 
Q 41.796875 61.09375 44.5 58.203125 
L 39.90625 53.09375 
Q 37.90625 55.40625 35.15625 56.75 
Q 32.40625 58.09375 29.40625 58.09375 
Q 26.09375 58.09375 23.09375 56.6875 
Q 20.09375 55.296875 17.796875 52.09375 
Q 15.5 48.90625 14.09375 43.75 
Q 12.703125 38.59375 12.59375 31 
Q 15.59375 34.703125 19.59375 36.84375 
Q 23.59375 39 27.5 39 
Q 35.796875 39 40.75 34.09375 
Q 45.703125 29.203125 45.703125 19.296875 
Q 45.703125 14.703125 44.203125 10.953125 
Q 42.703125 7.203125 40.09375 4.5 
Q 37.5 1.796875 34.09375 0.296875 
Q 30.703125 -1.203125 26.796875 -1.203125 
z
M 26.796875 5.296875 
Q 29.203125 5.296875 31.203125 6.296875 
Q 33.203125 7.296875 34.703125 9.140625 
Q 36.203125 11 37.046875 13.546875 
Q 37.90625 16.09375 37.90625 19.296875 
Q 37.90625 25.59375 35 29.1875 
Q 32.09375 32.796875 26.09375 32.796875 
Q 23 32.796875 19.390625 30.84375 
Q 15.796875 28.90625 12.796875 24.40625 
Q 13.59375 15 17.140625 10.140625 
Q 20.703125 5.296875 26.796875 5.296875 
z
" id="SourceSansPro-Regular-54"/>
       </defs>
       <use xlink:href="#SourceSansPro-Regular-48"/>
       <use x="49.699997" xlink:href="#SourceSansPro-Regular-46"/>
       <use x="74.599991" xlink:href="#SourceSansPro-Regular-54"/>
      </g>
     </g>
    </g>
    <g id="ytick_7">
     <g id="line2d_8">
      <g>
       <use style="stroke:#000000;stroke-width:0.8;" x="270.440816" xlink:href="#m890db7a565" y="194.740667"/>
      </g>
     </g>
     <g id="text_18">
      <!-- 0.8 -->
      <g transform="translate(251.009566 198.300823)scale(0.1 -0.1)">
       <use xlink:href="#SourceSansPro-Regular-48"/>
       <use x="49.699997" xlink:href="#SourceSansPro-Regular-46"/>
       <use x="74.599991" xlink:href="#SourceSansPro-Regular-56"/>
      </g>
     </g>
    </g>
    <g id="ytick_8">
     <g id="line2d_9">
      <g>
       <use style="stroke:#000000;stroke-width:0.8;" x="270.440816" xlink:href="#m890db7a565" y="166.12764"/>
      </g>
     </g>
     <g id="text_19">
      <!-- 1.0 -->
      <g transform="translate(251.009566 169.687796)scale(0.1 -0.1)">
       <use xlink:href="#SourceSansPro-Regular-49"/>
       <use x="49.699997" xlink:href="#SourceSansPro-Regular-46"/>
       <use x="74.599991" xlink:href="#SourceSansPro-Regular-48"/>
      </g>
     </g>
    </g>
    <g id="ytick_9">
     <g id="line2d_10">
      <g>
       <use style="stroke:#000000;stroke-width:0.8;" x="270.440816" xlink:href="#m890db7a565" y="137.514613"/>
      </g>
     </g>
     <g id="text_20">
      <!-- 1.2 -->
      <g transform="translate(251.009566 141.074769)scale(0.1 -0.1)">
       <use xlink:href="#SourceSansPro-Regular-49"/>
       <use x="49.699997" xlink:href="#SourceSansPro-Regular-46"/>
       <use x="74.599991" xlink:href="#SourceSansPro-Regular-50"/>
      </g>
     </g>
    </g>
    <g id="ytick_10">
     <g id="line2d_11">
      <g>
       <use style="stroke:#000000;stroke-width:0.8;" x="270.440816" xlink:href="#m890db7a565" y="108.901586"/>
      </g>
     </g>
     <g id="text_21">
      <!-- 1.4 -->
      <g transform="translate(251.009566 112.461742)scale(0.1 -0.1)">
       <defs>
        <path d="M 30.40625 0 
L 30.40625 17.59375 
L 1.703125 17.59375 
L 1.703125 23 
L 29 63.796875 
L 38.203125 63.796875 
L 38.203125 24.203125 
L 46.90625 24.203125 
L 46.90625 17.59375 
L 38.203125 17.59375 
L 38.203125 0 
z
M 10.40625 24.203125 
L 30.40625 24.203125 
L 30.40625 42.703125 
Q 30.40625 45.296875 30.546875 48.84375 
Q 30.703125 52.40625 30.90625 55 
L 30.5 55 
Q 29.296875 52.703125 28 50.5 
Q 26.703125 48.296875 25.296875 46 
z
" id="SourceSansPro-Regular-52"/>
       </defs>
       <use xlink:href="#SourceSansPro-Regular-49"/>
       <use x="49.699997" xlink:href="#SourceSansPro-Regular-46"/>
       <use x="74.599991" xlink:href="#SourceSansPro-Regular-52"/>
      </g>
     </g>
    </g>
    <g id="ytick_11">
     <g id="line2d_12">
      <g>
       <use style="stroke:#000000;stroke-width:0.8;" x="270.440816" xlink:href="#m890db7a565" y="80.288559"/>
      </g>
     </g>
     <g id="text_22">
      <!-- 1.6 -->
      <g transform="translate(251.009566 83.848715)scale(0.1 -0.1)">
       <use xlink:href="#SourceSansPro-Regular-49"/>
       <use x="49.699997" xlink:href="#SourceSansPro-Regular-46"/>
       <use x="74.599991" xlink:href="#SourceSansPro-Regular-54"/>
      </g>
     </g>
    </g>
    <g id="ytick_12">
     <g id="line2d_13">
      <g>
       <use style="stroke:#000000;stroke-width:0.8;" x="270.440816" xlink:href="#m890db7a565" y="51.675532"/>
      </g>
     </g>
     <g id="text_23">
      <!-- 1.8 -->
      <g transform="translate(251.009566 55.235688)scale(0.1 -0.1)">
       <use xlink:href="#SourceSansPro-Regular-49"/>
       <use x="49.699997" xlink:href="#SourceSansPro-Regular-46"/>
       <use x="74.599991" xlink:href="#SourceSansPro-Regular-56"/>
      </g>
     </g>
    </g>
    <g id="ytick_13">
     <g id="line2d_14">
      <g>
       <use style="stroke:#000000;stroke-width:0.8;" x="270.440816" xlink:href="#m890db7a565" y="23.062505"/>
      </g>
     </g>
     <g id="text_24">
      <!-- 2.0 -->
      <g transform="translate(251.009566 26.622661)scale(0.1 -0.1)">
       <use xlink:href="#SourceSansPro-Regular-50"/>
       <use x="49.699997" xlink:href="#SourceSansPro-Regular-46"/>
       <use x="74.599991" xlink:href="#SourceSansPro-Regular-48"/>
      </g>
     </g>
    </g>
    <g id="text_25">
     <!-- intensity vs NOAH HSQC/CLIP-COSY -->
     <g transform="translate(244.918941 193.57)rotate(-90)scale(0.1 -0.1)">
      <use xlink:href="#SourceSansPro-Regular-105"/>
      <use x="24.599991" xlink:href="#SourceSansPro-Regular-110"/>
      <use x="79.299988" xlink:href="#SourceSansPro-Regular-116"/>
      <use x="113.099976" xlink:href="#SourceSansPro-Regular-101"/>
      <use x="162.699966" xlink:href="#SourceSansPro-Regular-110"/>
      <use x="217.399963" xlink:href="#SourceSansPro-Regular-115"/>
      <use x="259.299957" xlink:href="#SourceSansPro-Regular-105"/>
      <use x="283.899948" xlink:href="#SourceSansPro-Regular-116"/>
      <use x="317.699936" xlink:href="#SourceSansPro-Regular-121"/>
      <use x="364.399933" xlink:href="#SourceSansPro-Regular-32"/>
      <use x="384.399918" xlink:href="#SourceSansPro-Regular-118"/>
      <use x="431.099915" xlink:href="#SourceSansPro-Regular-115"/>
      <use x="472.999908" xlink:href="#SourceSansPro-Regular-32"/>
      <use x="492.999893" xlink:href="#SourceSansPro-Regular-78"/>
      <use x="557.69989" xlink:href="#SourceSansPro-Regular-79"/>
      <use x="624.099884" xlink:href="#SourceSansPro-Regular-65"/>
      <use x="678.499878" xlink:href="#SourceSansPro-Regular-72"/>
      <use x="743.699875" xlink:href="#SourceSansPro-Regular-32"/>
      <use x="763.69986" xlink:href="#SourceSansPro-Regular-72"/>
      <use x="828.899857" xlink:href="#SourceSansPro-Regular-83"/>
      <use x="882.29985" xlink:href="#SourceSansPro-Regular-81"/>
      <use x="948.699844" xlink:href="#SourceSansPro-Regular-67"/>
      <use x="1005.799835" xlink:href="#SourceSansPro-Regular-47"/>
      <use x="1040.79982" xlink:href="#SourceSansPro-Regular-67"/>
      <use x="1097.899811" xlink:href="#SourceSansPro-Regular-76"/>
      <use x="1146.499802" xlink:href="#SourceSansPro-Regular-73"/>
      <use x="1172.799789" xlink:href="#SourceSansPro-Regular-80"/>
      <use x="1229.39978" xlink:href="#SourceSansPro-Regular-45"/>
      <use x="1260.499771" xlink:href="#SourceSansPro-Regular-67"/>
      <use x="1317.599762" xlink:href="#SourceSansPro-Regular-79"/>
      <use x="1383.999756" xlink:href="#SourceSansPro-Regular-83"/>
      <use x="1437.39975" xlink:href="#SourceSansPro-Regular-89"/>
     </g>
    </g>
   </g>
   <g id="line2d_15">
    <path clip-path="url(#p4cb434e242)" d="M 270.440816 166.12764 
L 421.2 166.12764 
" style="fill:none;stroke:#808080;stroke-dasharray:1.85,0.8;stroke-dashoffset:0;stroke-width:0.5;"/>
   </g>
   <g id="patch_9">
    <path d="M 270.440816 227.84 
L 270.440816 10.8 
" style="fill:none;stroke:#000000;stroke-linecap:square;stroke-linejoin:miter;stroke-width:1.3;"/>
   </g>
   <g id="patch_10">
    <path d="M 421.2 227.84 
L 421.2 10.8 
" style="fill:none;stroke:#000000;stroke-linecap:square;stroke-linejoin:miter;stroke-width:1.3;"/>
   </g>
   <g id="patch_11">
    <path d="M 270.440816 227.84 
L 421.2 227.84 
" style="fill:none;stroke:#000000;stroke-linecap:square;stroke-linejoin:miter;stroke-width:1.3;"/>
   </g>
   <g id="patch_12">
    <path d="M 270.440816 10.8 
L 421.2 10.8 
" style="fill:none;stroke:#000000;stroke-linecap:square;stroke-linejoin:miter;stroke-width:1.3;"/>
   </g>
   <g id="PathCollection_17">
    <defs>
     <path d="M 0 2.5 
C 0.663008 2.5 1.29895 2.236584 1.767767 1.767767 
C 2.236584 1.29895 2.5 0.663008 2.5 -0 
C 2.5 -0.663008 2.236584 -1.29895 1.767767 -1.767767 
C 1.29895 -2.236584 0.663008 -2.5 0 -2.5 
C -0.663008 -2.5 -1.29895 -2.236584 -1.767767 -1.767767 
C -2.236584 -1.29895 -2.5 -0.663008 -2.5 0 
C -2.5 0.663008 -2.236584 1.29895 -1.767767 1.767767 
C -1.29895 2.236584 -0.663008 2.5 0 2.5 
z
" id="C4_0_7d4f29d8ec"/>
    </defs>
    <g clip-path="url(#p4cb434e242)">
     <use style="fill:#4c72b0;" x="301.867512" xlink:href="#C4_0_7d4f29d8ec" y="37.107879"/>
    </g>
    <g clip-path="url(#p4cb434e242)">
     <use style="fill:#4c72b0;" x="299.327274" xlink:href="#C4_0_7d4f29d8ec" y="85.643434"/>
    </g>
    <g clip-path="url(#p4cb434e242)">
     <use style="fill:#4c72b0;" x="297.758391" xlink:href="#C4_0_7d4f29d8ec" y="83.161728"/>
    </g>
    <g clip-path="url(#p4cb434e242)">
     <use style="fill:#4c72b0;" x="300.042561" xlink:href="#C4_0_7d4f29d8ec" y="129.002755"/>
    </g>
    <g clip-path="url(#p4cb434e242)">
     <use style="fill:#4c72b0;" x="298.572006" xlink:href="#C4_0_7d4f29d8ec" y="107.937228"/>
    </g>
   </g>
   <g id="PathCollection_18">
    <defs>
     <path d="M 0 2.5 
C 0.663008 2.5 1.29895 2.236584 1.767767 1.767767 
C 2.236584 1.29895 2.5 0.663008 2.5 -0 
C 2.5 -0.663008 2.236584 -1.29895 1.767767 -1.767767 
C 1.29895 -2.236584 0.663008 -2.5 0 -2.5 
C -0.663008 -2.5 -1.29895 -2.236584 -1.767767 -1.767767 
C -2.236584 -1.29895 -2.5 -0.663008 -2.5 0 
C -2.5 0.663008 -2.236584 1.29895 -1.767767 1.767767 
C -1.29895 2.236584 -0.663008 2.5 0 2.5 
z
" id="C5_0_2b3db7b0ed"/>
    </defs>
    <g clip-path="url(#p4cb434e242)">
     <use style="fill:#dd8452;" x="327.760048" xlink:href="#C5_0_2b3db7b0ed" y="137.193879"/>
    </g>
    <g clip-path="url(#p4cb434e242)">
     <use style="fill:#dd8452;" x="327.000994" xlink:href="#C5_0_2b3db7b0ed" y="138.121654"/>
    </g>
    <g clip-path="url(#p4cb434e242)">
     <use style="fill:#dd8452;" x="328.591808" xlink:href="#C5_0_2b3db7b0ed" y="135.965826"/>
    </g>
    <g clip-path="url(#p4cb434e242)">
     <use style="fill:#dd8452;" x="327.335841" xlink:href="#C5_0_2b3db7b0ed" y="137.736182"/>
    </g>
    <g clip-path="url(#p4cb434e242)">
     <use style="fill:#dd8452;" x="327.834807" xlink:href="#C5_0_2b3db7b0ed" y="134.953046"/>
    </g>
    <g clip-path="url(#p4cb434e242)">
     <use style="fill:#dd8452;" x="331.894365" xlink:href="#C5_0_2b3db7b0ed" y="134.714019"/>
    </g>
    <g clip-path="url(#p4cb434e242)">
     <use style="fill:#dd8452;" x="334.189727" xlink:href="#C5_0_2b3db7b0ed" y="124.691394"/>
    </g>
    <g clip-path="url(#p4cb434e242)">
     <use style="fill:#dd8452;" x="333.567942" xlink:href="#C5_0_2b3db7b0ed" y="142.900426"/>
    </g>
    <g clip-path="url(#p4cb434e242)">
     <use style="fill:#dd8452;" x="334.231092" xlink:href="#C5_0_2b3db7b0ed" y="157.139154"/>
    </g>
    <g clip-path="url(#p4cb434e242)">
     <use style="fill:#dd8452;" x="329.27034" xlink:href="#C5_0_2b3db7b0ed" y="133.351285"/>
    </g>
    <g clip-path="url(#p4cb434e242)">
     <use style="fill:#dd8452;" x="334.302189" xlink:href="#C5_0_2b3db7b0ed" y="140.202695"/>
    </g>
    <g clip-path="url(#p4cb434e242)">
     <use style="fill:#dd8452;" x="330.570191" xlink:href="#C5_0_2b3db7b0ed" y="158.44315"/>
    </g>
    <g clip-path="url(#p4cb434e242)">
     <use style="fill:#dd8452;" x="328.622885" xlink:href="#C5_0_2b3db7b0ed" y="151.623009"/>
    </g>
    <g clip-path="url(#p4cb434e242)">
     <use style="fill:#dd8452;" x="332.677079" xlink:href="#C5_0_2b3db7b0ed" y="119.521896"/>
    </g>
   </g>
   <g id="PathCollection_19">
    <defs>
     <path d="M 0 2.5 
C 0.663008 2.5 1.29895 2.236584 1.767767 1.767767 
C 2.236584 1.29895 2.5 0.663008 2.5 -0 
C 2.5 -0.663008 2.236584 -1.29895 1.767767 -1.767767 
C 1.29895 -2.236584 0.663008 -2.5 0 -2.5 
C -0.663008 -2.5 -1.29895 -2.236584 -1.767767 -1.767767 
C -2.236584 -1.29895 -2.5 -0.663008 -2.5 0 
C -2.5 0.663008 -2.236584 1.29895 -1.767767 1.767767 
C -1.29895 2.236584 -0.663008 2.5 0 2.5 
z
" id="C6_0_0b88bf803b"/>
    </defs>
    <g clip-path="url(#p4cb434e242)">
     <use style="fill:#55a868;" x="364.377149" xlink:href="#C6_0_0b88bf803b" y="120.856088"/>
    </g>
    <g clip-path="url(#p4cb434e242)">
     <use style="fill:#55a868;" x="363.622858" xlink:href="#C6_0_0b88bf803b" y="187.054028"/>
    </g>
   </g>
   <g id="PathCollection_20">
    <defs>
     <path d="M 0 2.5 
C 0.663008 2.5 1.29895 2.236584 1.767767 1.767767 
C 2.236584 1.29895 2.5 0.663008 2.5 -0 
C 2.5 -0.663008 2.236584 -1.29895 1.767767 -1.767767 
C 1.29895 -2.236584 0.663008 -2.5 0 -2.5 
C -0.663008 -2.5 -1.29895 -2.236584 -1.767767 -1.767767 
C -2.236584 -1.29895 -2.5 -0.663008 -2.5 0 
C -2.5 0.663008 -2.236584 1.29895 -1.767767 1.767767 
C -1.29895 2.236584 -0.663008 2.5 0 2.5 
z
" id="C7_0_7b4653f831"/>
    </defs>
    <g clip-path="url(#p4cb434e242)">
     <use style="fill:#c44e52;" x="391.558507" xlink:href="#C7_0_7b4653f831" y="170.885393"/>
    </g>
    <g clip-path="url(#p4cb434e242)">
     <use style="fill:#c44e52;" x="394.455145" xlink:href="#C7_0_7b4653f831" y="190.333183"/>
    </g>
    <g clip-path="url(#p4cb434e242)">
     <use style="fill:#c44e52;" x="389.002415" xlink:href="#C7_0_7b4653f831" y="175.661936"/>
    </g>
    <g clip-path="url(#p4cb434e242)">
     <use style="fill:#c44e52;" x="393.63357" xlink:href="#C7_0_7b4653f831" y="170.784369"/>
    </g>
    <g clip-path="url(#p4cb434e242)">
     <use style="fill:#c44e52;" x="390.917747" xlink:href="#C7_0_7b4653f831" y="170.282707"/>
    </g>
    <g clip-path="url(#p4cb434e242)">
     <use style="fill:#c44e52;" x="391.445878" xlink:href="#C7_0_7b4653f831" y="169.4609"/>
    </g>
    <g clip-path="url(#p4cb434e242)">
     <use style="fill:#c44e52;" x="391.703468" xlink:href="#C7_0_7b4653f831" y="180.377572"/>
    </g>
    <g clip-path="url(#p4cb434e242)">
     <use style="fill:#c44e52;" x="394.26709" xlink:href="#C7_0_7b4653f831" y="166.609978"/>
    </g>
    <g clip-path="url(#p4cb434e242)">
     <use style="fill:#c44e52;" x="390.673172" xlink:href="#C7_0_7b4653f831" y="172.627578"/>
    </g>
    <g clip-path="url(#p4cb434e242)">
     <use style="fill:#c44e52;" x="392.710845" xlink:href="#C7_0_7b4653f831" y="175.411353"/>
    </g>
    <g clip-path="url(#p4cb434e242)">
     <use style="fill:#c44e52;" x="388.540824" xlink:href="#C7_0_7b4653f831" y="170.67227"/>
    </g>
    <g clip-path="url(#p4cb434e242)">
     <use style="fill:#c44e52;" x="390.05108" xlink:href="#C7_0_7b4653f831" y="172.41228"/>
    </g>
    <g clip-path="url(#p4cb434e242)">
     <use style="fill:#c44e52;" x="392.512785" xlink:href="#C7_0_7b4653f831" y="168.396274"/>
    </g>
    <g clip-path="url(#p4cb434e242)">
     <use style="fill:#c44e52;" x="387.450182" xlink:href="#C7_0_7b4653f831" y="187.535886"/>
    </g>
    <g clip-path="url(#p4cb434e242)">
     <use style="fill:#c44e52;" x="389.691469" xlink:href="#C7_0_7b4653f831" y="184.478696"/>
    </g>
    <g clip-path="url(#p4cb434e242)">
     <use style="fill:#c44e52;" x="388.798061" xlink:href="#C7_0_7b4653f831" y="177.636371"/>
    </g>
    <g clip-path="url(#p4cb434e242)">
     <use style="fill:#c44e52;" x="389.739665" xlink:href="#C7_0_7b4653f831" y="175.099389"/>
    </g>
    <g clip-path="url(#p4cb434e242)">
     <use style="fill:#c44e52;" x="393.101152" xlink:href="#C7_0_7b4653f831" y="174.950598"/>
    </g>
    <g clip-path="url(#p4cb434e242)">
     <use style="fill:#c44e52;" x="390.492019" xlink:href="#C7_0_7b4653f831" y="176.570363"/>
    </g>
    <g clip-path="url(#p4cb434e242)">
     <use style="fill:#c44e52;" x="392.003003" xlink:href="#C7_0_7b4653f831" y="178.665357"/>
    </g>
    <g clip-path="url(#p4cb434e242)">
     <use style="fill:#c44e52;" x="389.611221" xlink:href="#C7_0_7b4653f831" y="180.321771"/>
    </g>
    <g clip-path="url(#p4cb434e242)">
     <use style="fill:#c44e52;" x="390.147206" xlink:href="#C7_0_7b4653f831" y="201.532121"/>
    </g>
    <g clip-path="url(#p4cb434e242)">
     <use style="fill:#c44e52;" x="394.230966" xlink:href="#C7_0_7b4653f831" y="176.430826"/>
    </g>
    <g clip-path="url(#p4cb434e242)">
     <use style="fill:#c44e52;" x="391.888165" xlink:href="#C7_0_7b4653f831" y="172.21082"/>
    </g>
    <g clip-path="url(#p4cb434e242)">
     <use style="fill:#c44e52;" x="393.91" xlink:href="#C7_0_7b4653f831" y="168.636145"/>
    </g>
    <g clip-path="url(#p4cb434e242)">
     <use style="fill:#c44e52;" x="394.225274" xlink:href="#C7_0_7b4653f831" y="176.981043"/>
    </g>
    <g clip-path="url(#p4cb434e242)">
     <use style="fill:#c44e52;" x="392.088691" xlink:href="#C7_0_7b4653f831" y="183.027681"/>
    </g>
    <g clip-path="url(#p4cb434e242)">
     <use style="fill:#c44e52;" x="387.931832" xlink:href="#C7_0_7b4653f831" y="173.669424"/>
    </g>
    <g clip-path="url(#p4cb434e242)">
     <use style="fill:#c44e52;" x="393.171789" xlink:href="#C7_0_7b4653f831" y="178.595064"/>
    </g>
    <g clip-path="url(#p4cb434e242)">
     <use style="fill:#c44e52;" x="393.697637" xlink:href="#C7_0_7b4653f831" y="185.666422"/>
    </g>
    <g clip-path="url(#p4cb434e242)">
     <use style="fill:#c44e52;" x="393.347681" xlink:href="#C7_0_7b4653f831" y="179.172755"/>
    </g>
    <g clip-path="url(#p4cb434e242)">
     <use style="fill:#c44e52;" x="389.143531" xlink:href="#C7_0_7b4653f831" y="179.651903"/>
    </g>
    <g clip-path="url(#p4cb434e242)">
     <use style="fill:#c44e52;" x="390.207707" xlink:href="#C7_0_7b4653f831" y="180.656599"/>
    </g>
    <g clip-path="url(#p4cb434e242)">
     <use style="fill:#c44e52;" x="390.517382" xlink:href="#C7_0_7b4653f831" y="190.914153"/>
    </g>
    <g clip-path="url(#p4cb434e242)">
     <use style="fill:#c44e52;" x="388.400767" xlink:href="#C7_0_7b4653f831" y="186.263385"/>
    </g>
    <g clip-path="url(#p4cb434e242)">
     <use style="fill:#c44e52;" x="392.723134" xlink:href="#C7_0_7b4653f831" y="187.364922"/>
    </g>
    <g clip-path="url(#p4cb434e242)">
     <use style="fill:#c44e52;" x="388.988478" xlink:href="#C7_0_7b4653f831" y="187.479615"/>
    </g>
    <g clip-path="url(#p4cb434e242)">
     <use style="fill:#c44e52;" x="391.413692" xlink:href="#C7_0_7b4653f831" y="168.709099"/>
    </g>
    <g clip-path="url(#p4cb434e242)">
     <use style="fill:#c44e52;" x="394.780287" xlink:href="#C7_0_7b4653f831" y="188.611136"/>
    </g>
    <g clip-path="url(#p4cb434e242)">
     <use style="fill:#c44e52;" x="393.862541" xlink:href="#C7_0_7b4653f831" y="171.978977"/>
    </g>
    <g clip-path="url(#p4cb434e242)">
     <use style="fill:#c44e52;" x="388.6027" xlink:href="#C7_0_7b4653f831" y="169.768176"/>
    </g>
    <g clip-path="url(#p4cb434e242)">
     <use style="fill:#c44e52;" x="389.768083" xlink:href="#C7_0_7b4653f831" y="168.360979"/>
    </g>
    <g clip-path="url(#p4cb434e242)">
     <use style="fill:#c44e52;" x="388.849529" xlink:href="#C7_0_7b4653f831" y="176.494891"/>
    </g>
    <g clip-path="url(#p4cb434e242)">
     <use style="fill:#c44e52;" x="394.803495" xlink:href="#C7_0_7b4653f831" y="174.598222"/>
    </g>
    <g clip-path="url(#p4cb434e242)">
     <use style="fill:#c44e52;" x="394.774083" xlink:href="#C7_0_7b4653f831" y="168.25094"/>
    </g>
    <g clip-path="url(#p4cb434e242)">
     <use style="fill:#c44e52;" x="391.095329" xlink:href="#C7_0_7b4653f831" y="185.266334"/>
    </g>
    <g clip-path="url(#p4cb434e242)">
     <use style="fill:#c44e52;" x="390.132595" xlink:href="#C7_0_7b4653f831" y="182.636001"/>
    </g>
    <g clip-path="url(#p4cb434e242)">
     <use style="fill:#c44e52;" x="387.843108" xlink:href="#C7_0_7b4653f831" y="177.308308"/>
    </g>
    <g clip-path="url(#p4cb434e242)">
     <use style="fill:#c44e52;" x="389.533571" xlink:href="#C7_0_7b4653f831" y="172.169715"/>
    </g>
    <g clip-path="url(#p4cb434e242)">
     <use style="fill:#c44e52;" x="393.417873" xlink:href="#C7_0_7b4653f831" y="174.565921"/>
    </g>
    <g clip-path="url(#p4cb434e242)">
     <use style="fill:#c44e52;" x="392.587479" xlink:href="#C7_0_7b4653f831" y="180.911208"/>
    </g>
    <g clip-path="url(#p4cb434e242)">
     <use style="fill:#c44e52;" x="390.163895" xlink:href="#C7_0_7b4653f831" y="172.790892"/>
    </g>
   </g>
   <g id="text_26">
    <!-- (1.54) -->
    <g style="fill:#4c72b0;" transform="translate(288.862184 223.4992)scale(0.1 -0.1)">
     <use xlink:href="#SourceSansPro-Regular-40"/>
     <use x="30.299988" xlink:href="#SourceSansPro-Regular-49"/>
     <use x="79.999985" xlink:href="#SourceSansPro-Regular-46"/>
     <use x="104.899979" xlink:href="#SourceSansPro-Regular-53"/>
     <use x="154.599976" xlink:href="#SourceSansPro-Regular-52"/>
     <use x="204.299973" xlink:href="#SourceSansPro-Regular-41"/>
    </g>
   </g>
   <g id="text_27">
    <!-- (1.19) -->
    <g style="fill:#dd8452;" transform="translate(319.014021 223.4992)scale(0.1 -0.1)">
     <defs>
      <path d="M 23.5 31 
Q 26.703125 31 30.25 33 
Q 33.796875 35 36.90625 39.5 
Q 36.09375 48.90625 32.5 53.703125 
Q 28.90625 58.5 22.796875 58.5 
Q 20.5 58.5 18.453125 57.5 
Q 16.40625 56.5 14.90625 54.640625 
Q 13.40625 52.796875 12.546875 50.1875 
Q 11.703125 47.59375 11.703125 44.5 
Q 11.703125 38.203125 14.59375 34.59375 
Q 17.5 31 23.5 31 
z
M 20.5 -1.203125 
Q 15.40625 -1.203125 11.546875 0.6875 
Q 7.703125 2.59375 5.09375 5.5 
L 9.703125 10.703125 
Q 11.703125 8.40625 14.453125 7 
Q 17.203125 5.59375 20.203125 5.59375 
Q 23.59375 5.59375 26.59375 7 
Q 29.59375 8.40625 31.890625 11.65625 
Q 34.203125 14.90625 35.59375 20.09375 
Q 37 25.296875 37.09375 33 
Q 34.09375 29.203125 30.09375 27 
Q 26.09375 24.796875 22.09375 24.796875 
Q 13.796875 24.796875 8.890625 29.6875 
Q 4 34.59375 4 44.5 
Q 4 49.09375 5.5 52.84375 
Q 7 56.59375 9.546875 59.296875 
Q 12.09375 62 15.546875 63.5 
Q 19 65 22.796875 65 
Q 27.5 65 31.546875 63.09375 
Q 35.59375 61.203125 38.546875 57.34375 
Q 41.5 53.5 43.140625 47.75 
Q 44.796875 42 44.796875 34.296875 
Q 44.796875 24.703125 42.796875 17.953125 
Q 40.796875 11.203125 37.390625 6.953125 
Q 34 2.703125 29.640625 0.75 
Q 25.296875 -1.203125 20.5 -1.203125 
z
" id="SourceSansPro-Regular-57"/>
     </defs>
     <use xlink:href="#SourceSansPro-Regular-40"/>
     <use x="30.299988" xlink:href="#SourceSansPro-Regular-49"/>
     <use x="79.999985" xlink:href="#SourceSansPro-Regular-46"/>
     <use x="104.899979" xlink:href="#SourceSansPro-Regular-49"/>
     <use x="154.599976" xlink:href="#SourceSansPro-Regular-57"/>
     <use x="204.299973" xlink:href="#SourceSansPro-Regular-41"/>
    </g>
   </g>
   <g id="text_28">
    <!-- (1.09) -->
    <g style="fill:#55a868;" transform="translate(349.165858 223.4992)scale(0.1 -0.1)">
     <use xlink:href="#SourceSansPro-Regular-40"/>
     <use x="30.299988" xlink:href="#SourceSansPro-Regular-49"/>
     <use x="79.999985" xlink:href="#SourceSansPro-Regular-46"/>
     <use x="104.899979" xlink:href="#SourceSansPro-Regular-48"/>
     <use x="154.599976" xlink:href="#SourceSansPro-Regular-57"/>
     <use x="204.299973" xlink:href="#SourceSansPro-Regular-41"/>
    </g>
   </g>
   <g id="text_29">
    <!-- (0.92) -->
    <g style="fill:#c44e52;" transform="translate(379.317695 223.4992)scale(0.1 -0.1)">
     <use xlink:href="#SourceSansPro-Regular-40"/>
     <use x="30.299988" xlink:href="#SourceSansPro-Regular-48"/>
     <use x="79.999985" xlink:href="#SourceSansPro-Regular-46"/>
     <use x="104.899979" xlink:href="#SourceSansPro-Regular-57"/>
     <use x="154.599976" xlink:href="#SourceSansPro-Regular-50"/>
     <use x="204.299973" xlink:href="#SourceSansPro-Regular-41"/>
    </g>
   </g>
   <g id="legend_2">
    <g id="patch_13">
     <path d="M 353.9 66.48125 
L 414.2 66.48125 
Q 416.2 66.48125 416.2 64.48125 
L 416.2 17.8 
Q 416.2 15.8 414.2 15.8 
L 353.9 15.8 
Q 351.9 15.8 351.9 17.8 
L 351.9 64.48125 
Q 351.9 66.48125 353.9 66.48125 
z
" style="fill:#ffffff;opacity:0.8;stroke:#cccccc;stroke-linejoin:miter;"/>
    </g>
    <g id="PathCollection_21">
     <path d="M 358.4 26.795312 
C 359.063008 26.795312 359.69895 26.531897 360.167767 26.063079 
C 360.636584 25.594262 360.9 24.95832 360.9 24.295312 
C 360.9 23.632305 360.636584 22.996363 360.167767 22.527546 
C 359.69895 22.058728 359.063008 21.795312 358.4 21.795312 
C 357.736992 21.795312 357.10105 22.058728 356.632233 22.527546 
C 356.163416 22.996363 355.9 23.632305 355.9 24.295312 
C 355.9 24.95832 356.163416 25.594262 356.632233 26.063079 
C 357.10105 26.531897 357.736992 26.795312 358.4 26.795312 
z
" style="fill:#4c72b0;"/>
    </g>
    <g id="text_30">
     <!-- HSQC CH -->
     <g transform="translate(368.9 26.920312)scale(0.1 -0.1)">
      <use xlink:href="#SourceSansPro-Regular-72"/>
      <use x="65.199997" xlink:href="#SourceSansPro-Regular-83"/>
      <use x="118.599991" xlink:href="#SourceSansPro-Regular-81"/>
      <use x="184.999985" xlink:href="#SourceSansPro-Regular-67"/>
      <use x="242.099976" xlink:href="#SourceSansPro-Regular-32"/>
      <use x="262.09996" xlink:href="#SourceSansPro-Regular-67"/>
      <use x="319.199951" xlink:href="#SourceSansPro-Regular-72"/>
     </g>
    </g>
    <g id="PathCollection_22">
     <path d="M 358.4 37.965625 
C 359.063008 37.965625 359.69895 37.702209 360.167767 37.233392 
C 360.636584 36.764575 360.9 36.128633 360.9 35.465625 
C 360.9 34.802617 360.636584 34.166675 360.167767 33.697858 
C 359.69895 33.229041 359.063008 32.965625 358.4 32.965625 
C 357.736992 32.965625 357.10105 33.229041 356.632233 33.697858 
C 356.163416 34.166675 355.9 34.802617 355.9 35.465625 
C 355.9 36.128633 356.163416 36.764575 356.632233 37.233392 
C 357.10105 37.702209 357.736992 37.965625 358.4 37.965625 
z
" style="fill:#dd8452;"/>
    </g>
    <g id="text_31">
     <!-- HSQC CH$_2$ -->
     <g transform="translate(368.9 38.090625)scale(0.1 -0.1)">
      <use transform="translate(0 0.203125)" xlink:href="#SourceSansPro-Regular-72"/>
      <use transform="translate(65.199997 0.203125)" xlink:href="#SourceSansPro-Regular-83"/>
      <use transform="translate(118.599991 0.203125)" xlink:href="#SourceSansPro-Regular-81"/>
      <use transform="translate(184.999985 0.203125)" xlink:href="#SourceSansPro-Regular-67"/>
      <use transform="translate(242.099976 0.203125)" xlink:href="#SourceSansPro-Regular-32"/>
      <use transform="translate(262.09996 0.203125)" xlink:href="#SourceSansPro-Regular-67"/>
      <use transform="translate(319.199951 0.203125)" xlink:href="#SourceSansPro-Regular-72"/>
      <use transform="translate(385.356979 -16.203125)scale(0.7)" xlink:href="#DejaVuSans-50"/>
     </g>
    </g>
    <g id="PathCollection_23">
     <path d="M 358.4 49.135938 
C 359.063008 49.135938 359.69895 48.872522 360.167767 48.403704 
C 360.636584 47.934887 360.9 47.298945 360.9 46.635938 
C 360.9 45.97293 360.636584 45.336988 360.167767 44.868171 
C 359.69895 44.399353 359.063008 44.135938 358.4 44.135938 
C 357.736992 44.135938 357.10105 44.399353 356.632233 44.868171 
C 356.163416 45.336988 355.9 45.97293 355.9 46.635938 
C 355.9 47.298945 356.163416 47.934887 356.632233 48.403704 
C 357.10105 48.872522 357.736992 49.135938 358.4 49.135938 
z
" style="fill:#55a868;"/>
    </g>
    <g id="text_32">
     <!-- HSQC CH$_3$ -->
     <g transform="translate(368.9 49.260938)scale(0.1 -0.1)">
      <use transform="translate(0 0.203125)" xlink:href="#SourceSansPro-Regular-72"/>
      <use transform="translate(65.199997 0.203125)" xlink:href="#SourceSansPro-Regular-83"/>
      <use transform="translate(118.599991 0.203125)" xlink:href="#SourceSansPro-Regular-81"/>
      <use transform="translate(184.999985 0.203125)" xlink:href="#SourceSansPro-Regular-67"/>
      <use transform="translate(242.099976 0.203125)" xlink:href="#SourceSansPro-Regular-32"/>
      <use transform="translate(262.09996 0.203125)" xlink:href="#SourceSansPro-Regular-67"/>
      <use transform="translate(319.199951 0.203125)" xlink:href="#SourceSansPro-Regular-72"/>
      <use transform="translate(385.356979 -16.203125)scale(0.7)" xlink:href="#DejaVuSans-51"/>
     </g>
    </g>
    <g id="PathCollection_24">
     <path d="M 358.4 60.30625 
C 359.063008 60.30625 359.69895 60.042834 360.167767 59.574017 
C 360.636584 59.1052 360.9 58.469258 360.9 57.80625 
C 360.9 57.143242 360.636584 56.5073 360.167767 56.038483 
C 359.69895 55.569666 359.063008 55.30625 358.4 55.30625 
C 357.736992 55.30625 357.10105 55.569666 356.632233 56.038483 
C 356.163416 56.5073 355.9 57.143242 355.9 57.80625 
C 355.9 58.469258 356.163416 59.1052 356.632233 59.574017 
C 357.10105 60.042834 357.736992 60.30625 358.4 60.30625 
z
" style="fill:#c44e52;"/>
    </g>
    <g id="text_33">
     <!-- COSY -->
     <g transform="translate(368.9 60.43125)scale(0.1 -0.1)">
      <use xlink:href="#SourceSansPro-Regular-67"/>
      <use x="57.099991" xlink:href="#SourceSansPro-Regular-79"/>
      <use x="123.499985" xlink:href="#SourceSansPro-Regular-83"/>
      <use x="176.899979" xlink:href="#SourceSansPro-Regular-89"/>
     </g>
    </g>
   </g>
  </g>
  <g id="text_34">
   <!-- (a) -->
   <g transform="translate(0 19.24)scale(0.16 -0.16)">
    <defs>
     <path d="M 20.40625 -17.90625 
Q 14.09375 -7.59375 10.640625 3.5 
Q 7.203125 14.59375 7.203125 27.796875 
Q 7.203125 41 10.640625 52.09375 
Q 14.09375 63.203125 20.40625 73.5 
L 29.59375 69.703125 
Q 24.09375 59.90625 21.59375 49.203125 
Q 19.09375 38.5 19.09375 27.796875 
Q 19.09375 17.09375 21.59375 6.390625 
Q 24.09375 -4.296875 29.59375 -14.09375 
z
" id="SourceSansPro-Bold-40"/>
     <path d="M 19 -1.203125 
Q 15.59375 -1.203125 12.84375 -0.046875 
Q 10.09375 1.09375 8.1875 3.140625 
Q 6.296875 5.203125 5.25 7.890625 
Q 4.203125 10.59375 4.203125 13.796875 
Q 4.203125 21.59375 10.796875 26 
Q 17.40625 30.40625 32.09375 31.90625 
Q 31.90625 35.203125 30.15625 37.140625 
Q 28.40625 39.09375 24.296875 39.09375 
Q 21.09375 39.09375 17.9375 37.890625 
Q 14.796875 36.703125 11.203125 34.59375 
L 5.90625 44.296875 
Q 10.703125 47.203125 15.953125 49 
Q 21.203125 50.796875 27.09375 50.796875 
Q 36.703125 50.796875 41.75 45.34375 
Q 46.796875 39.90625 46.796875 28.40625 
L 46.796875 0 
L 34.796875 0 
L 33.796875 5.09375 
L 33.40625 5.09375 
Q 30.203125 2.296875 26.703125 0.546875 
Q 23.203125 -1.203125 19 -1.203125 
z
M 24 10.203125 
Q 26.5 10.203125 28.296875 11.296875 
Q 30.09375 12.40625 32.09375 14.40625 
L 32.09375 23.09375 
Q 24.296875 22 21.296875 19.890625 
Q 18.296875 17.796875 18.296875 14.90625 
Q 18.296875 12.5 19.84375 11.34375 
Q 21.40625 10.203125 24 10.203125 
z
" id="SourceSansPro-Bold-97"/>
     <path d="M 14 -17.90625 
L 4.796875 -14.09375 
Q 10.40625 -4.296875 12.90625 6.390625 
Q 15.40625 17.09375 15.40625 27.796875 
Q 15.40625 38.5 12.90625 49.203125 
Q 10.40625 59.90625 4.796875 69.703125 
L 14 73.5 
Q 20.296875 63.203125 23.75 52.09375 
Q 27.203125 41 27.203125 27.796875 
Q 27.203125 14.59375 23.75 3.5 
Q 20.296875 -7.59375 14 -17.90625 
z
" id="SourceSansPro-Bold-41"/>
    </defs>
    <use xlink:href="#SourceSansPro-Bold-40"/>
    <use x="34.399994" xlink:href="#SourceSansPro-Bold-97"/>
    <use x="87.099991" xlink:href="#SourceSansPro-Bold-41"/>
   </g>
  </g>
  <g id="text_35">
   <!-- (b) -->
   <g transform="translate(216 19.24)scale(0.16 -0.16)">
    <defs>
     <path d="M 32.5 -1.203125 
Q 29.203125 -1.203125 25.84375 0.4375 
Q 22.5 2.09375 19.59375 5.296875 
L 19.203125 5.296875 
L 18 0 
L 6.5 0 
L 6.5 70.09375 
L 21.203125 70.09375 
L 21.203125 52.90625 
L 20.796875 45.296875 
Q 23.703125 47.90625 27.046875 49.34375 
Q 30.40625 50.796875 33.90625 50.796875 
Q 38.40625 50.796875 42 49 
Q 45.59375 47.203125 48.140625 43.953125 
Q 50.703125 40.703125 52.046875 36.046875 
Q 53.40625 31.40625 53.40625 25.703125 
Q 53.40625 19.296875 51.65625 14.296875 
Q 49.90625 9.296875 46.953125 5.84375 
Q 44 2.40625 40.25 0.59375 
Q 36.5 -1.203125 32.5 -1.203125 
z
M 29.09375 10.796875 
Q 32.90625 10.796875 35.59375 14.25 
Q 38.296875 17.703125 38.296875 25.40625 
Q 38.296875 38.796875 29.703125 38.796875 
Q 25.296875 38.796875 21.203125 34.296875 
L 21.203125 14 
Q 23.203125 12.203125 25.203125 11.5 
Q 27.203125 10.796875 29.09375 10.796875 
z
" id="SourceSansPro-Bold-98"/>
    </defs>
    <use xlink:href="#SourceSansPro-Bold-40"/>
    <use x="34.399994" xlink:href="#SourceSansPro-Bold-98"/>
    <use x="91.699982" xlink:href="#SourceSansPro-Bold-41"/>
   </g>
  </g>
 </g>
 <defs>
  <clipPath id="p2677405a63">
   <rect height="217.04" width="150.759184" x="51.84" y="10.8"/>
  </clipPath>
  <clipPath id="p4cb434e242">
   <rect height="217.04" width="150.759184" x="270.440816" y="10.8"/>
  </clipPath>
 </defs>
</svg>
