<?xml version="1.0" encoding="utf-8" standalone="no"?>
<!DOCTYPE svg PUBLIC "-//W3C//DTD SVG 1.1//EN"
  "http://www.w3.org/Graphics/SVG/1.1/DTD/svg11.dtd">
<!-- Created with matplotlib (https://matplotlib.org/) -->
<svg height="252pt" version="1.1" viewBox="0 0 432 252" width="432pt" xmlns="http://www.w3.org/2000/svg" xmlns:xlink="http://www.w3.org/1999/xlink">
 <metadata>
  <rdf:RDF xmlns:cc="http://creativecommons.org/ns#" xmlns:dc="http://purl.org/dc/elements/1.1/" xmlns:rdf="http://www.w3.org/1999/02/22-rdf-syntax-ns#">
   <cc:Work>
    <dc:type rdf:resource="http://purl.org/dc/dcmitype/StillImage"/>
    <dc:date>2020-12-06T17:46:39.610987</dc:date>
    <dc:format>image/svg+xml</dc:format>
    <dc:creator>
     <cc:Agent>
      <dc:title>Matplotlib v3.3.2, https://matplotlib.org/</dc:title>
     </cc:Agent>
    </dc:creator>
   </cc:Work>
  </rdf:RDF>
 </metadata>
 <defs>
  <style type="text/css">*{stroke-linecap:butt;stroke-linejoin:round;}</style>
 </defs>
 <g id="figure_1">
  <g id="patch_1">
   <path d="M 0 252 
L 432 252 
L 432 0 
L 0 0 
z
" style="fill:#ffffff;"/>
  </g>
  <g id="axes_1">
   <g id="patch_2">
    <path d="M 48.78875 224.24 
L 225.684375 224.24 
L 225.684375 12.96 
L 48.78875 12.96 
z
" style="fill:#ffffff;"/>
   </g>
   <g id="PathCollection_1"/>
   <g id="PathCollection_2"/>
   <g id="PathCollection_3"/>
   <g id="PathCollection_4"/>
   <g id="matplotlib.axis_1">
    <g id="text_1">
     <!-- CRK seHSQC + CLIP-COSY -->
     <g transform="translate(60.050312 236.848125)scale(0.12 -0.12)">
      <defs>
       <path d="M 37.84375 73.6875 
Q 51.46875 73.6875 58.984375 66.5 
Q 66.5 59.328125 67.328125 50.203125 
L 57.859375 50.203125 
Q 56.25 57.125 51.4375 61.171875 
Q 46.625 65.234375 37.9375 65.234375 
Q 27.34375 65.234375 20.828125 57.78125 
Q 14.3125 50.34375 14.3125 34.96875 
Q 14.3125 22.359375 20.1875 14.515625 
Q 26.078125 6.6875 37.75 6.6875 
Q 48.484375 6.6875 54.109375 14.9375 
Q 57.078125 19.28125 58.546875 26.375 
L 68.015625 26.375 
Q 66.75 15.046875 59.625 7.375 
Q 51.078125 -1.859375 36.578125 -1.859375 
Q 24.078125 -1.859375 15.578125 5.71875 
Q 4.390625 15.71875 4.390625 36.625 
Q 4.390625 52.484375 12.796875 62.640625 
Q 21.875 73.6875 37.84375 73.6875 
z
M 35.890625 73.6875 
z
" id="Helvetica-67"/>
       <path d="M 40.96875 38.875 
Q 47.796875 38.875 51.78125 41.609375 
Q 55.765625 44.34375 55.765625 51.46875 
Q 55.765625 59.125 50.203125 61.921875 
Q 47.21875 63.375 42.234375 63.375 
L 18.5 63.375 
L 18.5 38.875 
z
M 8.796875 71.734375 
L 42 71.734375 
Q 50.203125 71.734375 55.515625 69.34375 
Q 65.625 64.75 65.625 52.390625 
Q 65.625 45.953125 62.953125 41.84375 
Q 60.296875 37.75 55.515625 35.25 
Q 59.71875 33.546875 61.84375 30.765625 
Q 63.96875 27.984375 64.203125 21.734375 
L 64.546875 12.109375 
Q 64.703125 8.015625 65.234375 6 
Q 66.109375 2.59375 68.359375 1.609375 
L 68.359375 0 
L 56.453125 0 
Q 55.953125 0.921875 55.65625 2.390625 
Q 55.375 3.859375 55.171875 8.0625 
L 54.59375 20.015625 
Q 54.25 27.046875 49.359375 29.4375 
Q 46.578125 30.765625 40.625 30.765625 
L 18.5 30.765625 
L 18.5 0 
L 8.796875 0 
z
" id="Helvetica-82"/>
       <path d="M 7.625 71.734375 
L 17.09375 71.734375 
L 17.09375 36.765625 
L 52.046875 71.734375 
L 65.484375 71.734375 
L 35.640625 42.828125 
L 66.3125 0 
L 53.65625 0 
L 28.5625 35.984375 
L 17.09375 25 
L 17.09375 0 
L 7.625 0 
z
" id="Helvetica-75"/>
       <path id="Helvetica-32"/>
       <path d="M 11.671875 16.40625 
Q 12.0625 12.015625 13.875 9.671875 
Q 17.1875 5.421875 25.390625 5.421875 
Q 30.28125 5.421875 33.984375 7.546875 
Q 37.703125 9.671875 37.703125 14.109375 
Q 37.703125 17.484375 34.71875 19.234375 
Q 32.8125 20.3125 27.203125 21.734375 
L 20.21875 23.484375 
Q 13.53125 25.140625 10.359375 27.203125 
Q 4.6875 30.765625 4.6875 37.0625 
Q 4.6875 44.484375 10.03125 49.0625 
Q 15.375 53.65625 24.421875 53.65625 
Q 36.234375 53.65625 41.453125 46.734375 
Q 44.734375 42.328125 44.625 37.25 
L 36.328125 37.25 
Q 36.078125 40.234375 34.234375 42.671875 
Q 31.203125 46.140625 23.734375 46.140625 
Q 18.75 46.140625 16.1875 44.234375 
Q 13.625 42.328125 13.625 39.203125 
Q 13.625 35.796875 17 33.734375 
Q 18.953125 32.515625 22.75 31.59375 
L 28.5625 30.171875 
Q 38.03125 27.875 41.265625 25.734375 
Q 46.390625 22.359375 46.390625 15.140625 
Q 46.390625 8.15625 41.09375 3.078125 
Q 35.796875 -2 24.953125 -2 
Q 13.28125 -2 8.421875 3.296875 
Q 3.5625 8.59375 3.21875 16.40625 
z
M 24.65625 53.5625 
z
" id="Helvetica-115"/>
       <path d="M 28.21875 53.46875 
Q 33.796875 53.46875 39.015625 50.859375 
Q 44.234375 48.25 46.96875 44.09375 
Q 49.609375 40.140625 50.484375 34.859375 
Q 51.265625 31.25 51.265625 23.34375 
L 12.9375 23.34375 
Q 13.1875 15.375 16.703125 10.5625 
Q 20.21875 5.765625 27.59375 5.765625 
Q 34.46875 5.765625 38.578125 10.296875 
Q 40.921875 12.9375 41.890625 16.40625 
L 50.53125 16.40625 
Q 50.203125 13.53125 48.265625 9.984375 
Q 46.34375 6.453125 43.953125 4.203125 
Q 39.9375 0.296875 34.03125 -1.078125 
Q 30.859375 -1.859375 26.859375 -1.859375 
Q 17.09375 -1.859375 10.296875 5.25 
Q 3.515625 12.359375 3.515625 25.140625 
Q 3.515625 37.75 10.34375 45.609375 
Q 17.1875 53.46875 28.21875 53.46875 
z
M 42.234375 30.328125 
Q 41.703125 36.03125 39.75 39.453125 
Q 36.140625 45.796875 27.6875 45.796875 
Q 21.625 45.796875 17.515625 41.421875 
Q 13.421875 37.0625 13.1875 30.328125 
z
M 27.390625 53.5625 
z
" id="Helvetica-101"/>
       <path d="M 7.859375 71.734375 
L 17.671875 71.734375 
L 17.671875 42.09375 
L 54.984375 42.09375 
L 54.984375 71.734375 
L 64.796875 71.734375 
L 64.796875 0 
L 54.984375 0 
L 54.984375 33.546875 
L 17.671875 33.546875 
L 17.671875 0 
L 7.859375 0 
z
" id="Helvetica-72"/>
       <path d="M 13.96875 23.140625 
Q 14.3125 17.046875 16.84375 13.234375 
Q 21.6875 6.109375 33.890625 6.109375 
Q 39.359375 6.109375 43.84375 7.671875 
Q 52.546875 10.6875 52.546875 18.5 
Q 52.546875 24.359375 48.875 26.859375 
Q 45.171875 29.296875 37.25 31.109375 
L 27.546875 33.296875 
Q 18.015625 35.453125 14.0625 38.03125 
Q 7.234375 42.53125 7.234375 51.46875 
Q 7.234375 61.140625 13.921875 67.328125 
Q 20.609375 73.53125 32.859375 73.53125 
Q 44.140625 73.53125 52.015625 68.078125 
Q 59.90625 62.640625 59.90625 50.6875 
L 50.78125 50.6875 
Q 50.046875 56.453125 47.65625 59.515625 
Q 43.21875 65.140625 32.5625 65.140625 
Q 23.96875 65.140625 20.203125 61.515625 
Q 16.453125 57.90625 16.453125 53.125 
Q 16.453125 47.859375 20.84375 45.40625 
Q 23.734375 43.84375 33.890625 41.5 
L 43.953125 39.203125 
Q 51.21875 37.546875 55.171875 34.671875 
Q 62.015625 29.640625 62.015625 20.0625 
Q 62.015625 8.15625 53.34375 3.03125 
Q 44.671875 -2.09375 33.203125 -2.09375 
Q 19.828125 -2.09375 12.25 4.734375 
Q 4.6875 11.53125 4.828125 23.140625 
z
M 33.59375 73.6875 
z
" id="Helvetica-83"/>
       <path d="M 73.25 0.203125 
L 68.359375 -5.71875 
L 57.28125 2.734375 
Q 53.265625 0.53125 48.609375 -0.78125 
Q 43.953125 -2.09375 38.421875 -2.09375 
Q 21.734375 -2.09375 12.25 8.84375 
Q 3.90625 19.484375 3.90625 35.5 
Q 3.90625 50.046875 11.140625 60.40625 
Q 20.40625 73.6875 38.578125 73.6875 
Q 57.5625 73.6875 66.703125 61.46875 
Q 73.828125 51.953125 73.828125 37.109375 
Q 73.828125 30.171875 72.125 23.78125 
Q 69.53125 14.015625 63.375 7.859375 
z
M 39.59375 6.59375 
Q 42.625 6.59375 45.265625 7 
Q 47.90625 7.421875 49.859375 8.640625 
L 42 14.796875 
L 46.875 20.796875 
L 56.25 13.53125 
Q 60.6875 18.609375 62.28125 24.90625 
Q 63.875 31.203125 63.875 36.96875 
Q 63.875 49.609375 57.25 57.328125 
Q 50.640625 65.046875 39.15625 65.046875 
Q 27.546875 65.046875 20.75 57.640625 
Q 13.96875 50.25 13.96875 34.859375 
Q 13.96875 21.921875 20.484375 14.25 
Q 27 6.59375 39.59375 6.59375 
z
" id="Helvetica-81"/>
       <path d="M 4.5 21.390625 
L 4.5 29.59375 
L 25.78125 29.59375 
L 25.78125 51.03125 
L 34.125 51.03125 
L 34.125 29.59375 
L 55.421875 29.59375 
L 55.421875 21.390625 
L 34.125 21.390625 
L 34.125 0 
L 25.78125 0 
L 25.78125 21.390625 
z
" id="Helvetica-43"/>
       <path d="M 7.625 71.734375 
L 17.328125 71.734375 
L 17.328125 8.546875 
L 53.65625 8.546875 
L 53.65625 0 
L 7.625 0 
z
" id="Helvetica-76"/>
       <path d="M 9.8125 71.734375 
L 19.625 71.734375 
L 19.625 0 
L 9.8125 0 
z
" id="Helvetica-73"/>
       <path d="M 8.546875 71.734375 
L 40.828125 71.734375 
Q 50.390625 71.734375 56.25 66.328125 
Q 62.109375 60.9375 62.109375 51.171875 
Q 62.109375 42.78125 56.875 36.546875 
Q 51.65625 30.328125 40.828125 30.328125 
L 18.265625 30.328125 
L 18.265625 0 
L 8.546875 0 
z
M 52.296875 51.125 
Q 52.296875 59.03125 46.4375 61.859375 
Q 43.21875 63.375 37.59375 63.375 
L 18.265625 63.375 
L 18.265625 38.53125 
L 37.59375 38.53125 
Q 44.140625 38.53125 48.21875 41.3125 
Q 52.296875 44.09375 52.296875 51.125 
z
" id="Helvetica-80"/>
       <path d="M 4.15625 32.375 
L 28.65625 32.375 
L 28.65625 23.34375 
L 4.15625 23.34375 
z
" id="Helvetica-45"/>
       <path d="M 38.578125 73.6875 
Q 57.5625 73.6875 66.703125 61.46875 
Q 73.828125 51.953125 73.828125 37.109375 
Q 73.828125 21.046875 65.671875 10.40625 
Q 56.109375 -2.09375 38.375 -2.09375 
Q 21.828125 -2.09375 12.359375 8.84375 
Q 3.90625 19.390625 3.90625 35.5 
Q 3.90625 50.046875 11.140625 60.40625 
Q 20.40625 73.6875 38.578125 73.6875 
z
M 39.546875 6.59375 
Q 52.390625 6.59375 58.125 15.796875 
Q 63.875 25 63.875 36.96875 
Q 63.875 49.609375 57.25 57.328125 
Q 50.640625 65.046875 39.15625 65.046875 
Q 28.03125 65.046875 21 57.390625 
Q 13.96875 49.75 13.96875 34.859375 
Q 13.96875 22.953125 20 14.765625 
Q 26.03125 6.59375 39.546875 6.59375 
z
M 38.875 73.6875 
z
" id="Helvetica-79"/>
       <path d="M 2.046875 71.734375 
L 13.375 71.734375 
L 33.984375 37.25 
L 54.59375 71.734375 
L 65.96875 71.734375 
L 38.875 28.90625 
L 38.875 0 
L 29.15625 0 
L 29.15625 28.90625 
z
M 34.125 71.734375 
z
" id="Helvetica-89"/>
      </defs>
      <use xlink:href="#Helvetica-67"/>
      <use x="72.216797" xlink:href="#Helvetica-82"/>
      <use x="144.433594" xlink:href="#Helvetica-75"/>
      <use x="211.132812" xlink:href="#Helvetica-32"/>
      <use x="238.916016" xlink:href="#Helvetica-115"/>
      <use x="288.916016" xlink:href="#Helvetica-101"/>
      <use x="344.53125" xlink:href="#Helvetica-72"/>
      <use x="416.748047" xlink:href="#Helvetica-83"/>
      <use x="483.447266" xlink:href="#Helvetica-81"/>
      <use x="561.230469" xlink:href="#Helvetica-67"/>
      <use x="633.447266" xlink:href="#Helvetica-32"/>
      <use x="661.230469" xlink:href="#Helvetica-43"/>
      <use x="719.628906" xlink:href="#Helvetica-32"/>
      <use x="747.412109" xlink:href="#Helvetica-67"/>
      <use x="819.628906" xlink:href="#Helvetica-76"/>
      <use x="875.244141" xlink:href="#Helvetica-73"/>
      <use x="903.027344" xlink:href="#Helvetica-80"/>
      <use x="969.726562" xlink:href="#Helvetica-45"/>
      <use x="1003.027344" xlink:href="#Helvetica-67"/>
      <use x="1075.244141" xlink:href="#Helvetica-79"/>
      <use x="1153.027344" xlink:href="#Helvetica-83"/>
      <use x="1219.726562" xlink:href="#Helvetica-89"/>
     </g>
    </g>
   </g>
   <g id="matplotlib.axis_2">
    <g id="ytick_1">
     <g id="line2d_1">
      <defs>
       <path d="M 0 0 
L -3.5 0 
" id="mc46f67a16d" style="stroke:#000000;stroke-width:0.8;"/>
      </defs>
      <g>
       <use style="stroke:#000000;stroke-width:0.8;" x="48.78875" xlink:href="#mc46f67a16d" y="202.383448"/>
      </g>
     </g>
     <g id="text_2">
      <!-- 0.0 -->
      <g transform="translate(27.89431 205.968732)scale(0.09996 -0.09996)">
       <defs>
        <path d="M 27.046875 69.921875 
Q 40.625 69.921875 46.6875 58.734375 
Q 51.375 50.09375 51.375 35.0625 
Q 51.375 20.796875 47.125 11.46875 
Q 40.96875 -1.90625 27 -1.90625 
Q 14.40625 -1.90625 8.25 9.03125 
Q 3.125 18.171875 3.125 33.546875 
Q 3.125 45.453125 6.203125 54 
Q 11.96875 69.921875 27.046875 69.921875 
z
M 26.953125 6.109375 
Q 33.796875 6.109375 37.84375 12.15625 
Q 41.890625 18.21875 41.890625 34.71875 
Q 41.890625 46.625 38.953125 54.3125 
Q 36.03125 62.015625 27.59375 62.015625 
Q 19.828125 62.015625 16.234375 54.703125 
Q 12.640625 47.40625 12.640625 33.203125 
Q 12.640625 22.515625 14.9375 16.015625 
Q 18.453125 6.109375 26.953125 6.109375 
z
" id="Helvetica-48"/>
        <path d="M 8.546875 10.640625 
L 18.75 10.640625 
L 18.75 0 
L 8.546875 0 
z
" id="Helvetica-46"/>
       </defs>
       <use xlink:href="#Helvetica-48"/>
       <use x="55.615234" xlink:href="#Helvetica-46"/>
       <use x="83.398438" xlink:href="#Helvetica-48"/>
      </g>
     </g>
    </g>
    <g id="ytick_2">
     <g id="line2d_2">
      <g>
       <use style="stroke:#000000;stroke-width:0.8;" x="48.78875" xlink:href="#mc46f67a16d" y="165.955862"/>
      </g>
     </g>
     <g id="text_3">
      <!-- 0.5 -->
      <g transform="translate(27.89431 169.541146)scale(0.09996 -0.09996)">
       <defs>
        <path d="M 12.359375 17.828125 
Q 13.234375 10.296875 19.34375 7.421875 
Q 22.46875 5.953125 26.5625 5.953125 
Q 34.375 5.953125 38.125 10.9375 
Q 41.890625 15.921875 41.890625 21.96875 
Q 41.890625 29.296875 37.421875 33.296875 
Q 32.953125 37.3125 26.703125 37.3125 
Q 22.171875 37.3125 18.921875 35.546875 
Q 15.671875 33.796875 13.375 30.671875 
L 5.765625 31.109375 
L 11.078125 68.75 
L 47.40625 68.75 
L 47.40625 60.25 
L 17.671875 60.25 
L 14.703125 40.828125 
Q 17.140625 42.671875 19.34375 43.609375 
Q 23.25 45.21875 28.375 45.21875 
Q 37.984375 45.21875 44.671875 39.015625 
Q 51.375 32.8125 51.375 23.296875 
Q 51.375 13.375 45.234375 5.796875 
Q 39.109375 -1.765625 25.6875 -1.765625 
Q 17.140625 -1.765625 10.5625 3.046875 
Q 4 7.859375 3.21875 17.828125 
z
" id="Helvetica-53"/>
       </defs>
       <use xlink:href="#Helvetica-48"/>
       <use x="55.615234" xlink:href="#Helvetica-46"/>
       <use x="83.398438" xlink:href="#Helvetica-53"/>
      </g>
     </g>
    </g>
    <g id="ytick_3">
     <g id="line2d_3">
      <g>
       <use style="stroke:#000000;stroke-width:0.8;" x="48.78875" xlink:href="#mc46f67a16d" y="129.528276"/>
      </g>
     </g>
     <g id="text_4">
      <!-- 1.0 -->
      <g transform="translate(27.89431 133.11356)scale(0.09996 -0.09996)">
       <defs>
        <path d="M 9.578125 49.515625 
L 9.578125 56.25 
Q 19.09375 57.171875 22.84375 59.34375 
Q 26.609375 61.53125 28.46875 69.625 
L 35.40625 69.625 
L 35.40625 0 
L 26.03125 0 
L 26.03125 49.515625 
z
" id="Helvetica-49"/>
       </defs>
       <use xlink:href="#Helvetica-49"/>
       <use x="55.615234" xlink:href="#Helvetica-46"/>
       <use x="83.398438" xlink:href="#Helvetica-48"/>
      </g>
     </g>
    </g>
    <g id="ytick_4">
     <g id="line2d_4">
      <g>
       <use style="stroke:#000000;stroke-width:0.8;" x="48.78875" xlink:href="#mc46f67a16d" y="93.10069"/>
      </g>
     </g>
     <g id="text_5">
      <!-- 1.5 -->
      <g transform="translate(27.89431 96.685974)scale(0.09996 -0.09996)">
       <use xlink:href="#Helvetica-49"/>
       <use x="55.615234" xlink:href="#Helvetica-46"/>
       <use x="83.398438" xlink:href="#Helvetica-53"/>
      </g>
     </g>
    </g>
    <g id="ytick_5">
     <g id="line2d_5">
      <g>
       <use style="stroke:#000000;stroke-width:0.8;" x="48.78875" xlink:href="#mc46f67a16d" y="56.673103"/>
      </g>
     </g>
     <g id="text_6">
      <!-- 2.0 -->
      <g transform="translate(27.89431 60.258388)scale(0.09996 -0.09996)">
       <defs>
        <path d="M 3.125 0 
Q 3.609375 9.03125 6.859375 15.71875 
Q 10.109375 22.40625 19.53125 27.875 
L 28.90625 33.296875 
Q 35.203125 36.96875 37.75 39.546875 
Q 41.75 43.609375 41.75 48.828125 
Q 41.75 54.9375 38.078125 58.515625 
Q 34.421875 62.109375 28.328125 62.109375 
Q 19.28125 62.109375 15.828125 55.28125 
Q 13.96875 51.609375 13.765625 45.125 
L 4.828125 45.125 
Q 4.984375 54.25 8.203125 60.015625 
Q 13.921875 70.171875 28.375 70.171875 
Q 40.375 70.171875 45.921875 63.671875 
Q 51.46875 57.171875 51.46875 49.21875 
Q 51.46875 40.828125 45.5625 34.859375 
Q 42.140625 31.390625 33.296875 26.46875 
L 26.609375 22.75 
Q 21.828125 20.125 19.09375 17.71875 
Q 14.203125 13.484375 12.9375 8.296875 
L 51.125 8.296875 
L 51.125 0 
L 3.125 0 
z
" id="Helvetica-50"/>
       </defs>
       <use xlink:href="#Helvetica-50"/>
       <use x="55.615234" xlink:href="#Helvetica-46"/>
       <use x="83.398438" xlink:href="#Helvetica-48"/>
      </g>
     </g>
    </g>
    <g id="ytick_6">
     <g id="line2d_6">
      <g>
       <use style="stroke:#000000;stroke-width:0.8;" x="48.78875" xlink:href="#mc46f67a16d" y="20.245517"/>
      </g>
     </g>
     <g id="text_7">
      <!-- 2.5 -->
      <g transform="translate(27.89431 23.830801)scale(0.09996 -0.09996)">
       <use xlink:href="#Helvetica-50"/>
       <use x="55.615234" xlink:href="#Helvetica-46"/>
       <use x="83.398438" xlink:href="#Helvetica-53"/>
      </g>
     </g>
    </g>
    <g id="text_8">
     <!-- intensity vs NOAH HSQC + CLIP-COSY -->
     <g transform="translate(21.32181 225.46)rotate(-90)scale(0.12 -0.12)">
      <defs>
       <path d="M 6.453125 52.046875 
L 15.375 52.046875 
L 15.375 0 
L 6.453125 0 
z
M 6.453125 71.734375 
L 15.375 71.734375 
L 15.375 61.765625 
L 6.453125 61.765625 
z
" id="Helvetica-105"/>
       <path d="M 6.453125 52.296875 
L 14.796875 52.296875 
L 14.796875 44.875 
Q 18.5 49.46875 22.65625 51.46875 
Q 26.8125 53.46875 31.890625 53.46875 
Q 43.015625 53.46875 46.921875 45.703125 
Q 49.078125 41.453125 49.078125 33.546875 
L 49.078125 0 
L 40.140625 0 
L 40.140625 32.953125 
Q 40.140625 37.75 38.71875 40.671875 
Q 36.375 45.5625 30.21875 45.5625 
Q 27.09375 45.5625 25.09375 44.921875 
Q 21.484375 43.84375 18.75 40.625 
Q 16.546875 38.03125 15.890625 35.265625 
Q 15.234375 32.515625 15.234375 27.390625 
L 15.234375 0 
L 6.453125 0 
z
M 27.09375 53.5625 
z
" id="Helvetica-110"/>
       <path d="M 8.203125 66.890625 
L 17.09375 66.890625 
L 17.09375 52.296875 
L 25.4375 52.296875 
L 25.4375 45.125 
L 17.09375 45.125 
L 17.09375 10.984375 
Q 17.09375 8.25 18.953125 7.328125 
Q 19.96875 6.78125 22.359375 6.78125 
Q 23 6.78125 23.734375 6.8125 
Q 24.46875 6.84375 25.4375 6.9375 
L 25.4375 0 
Q 23.921875 -0.4375 22.28125 -0.625 
Q 20.65625 -0.828125 18.75 -0.828125 
Q 12.59375 -0.828125 10.390625 2.3125 
Q 8.203125 5.46875 8.203125 10.5 
L 8.203125 45.125 
L 1.125 45.125 
L 1.125 52.296875 
L 8.203125 52.296875 
z
" id="Helvetica-116"/>
       <path d="M 39.109375 52.296875 
L 48.828125 52.296875 
Q 46.96875 47.265625 40.578125 29.34375 
Q 35.796875 15.875 32.5625 7.375 
Q 24.953125 -12.640625 21.828125 -17.03125 
Q 18.703125 -21.4375 11.078125 -21.4375 
Q 9.234375 -21.4375 8.234375 -21.28125 
Q 7.234375 -21.140625 5.765625 -20.75 
L 5.765625 -12.75 
Q 8.0625 -13.375 9.078125 -13.515625 
Q 10.109375 -13.671875 10.890625 -13.671875 
Q 13.328125 -13.671875 14.46875 -12.859375 
Q 15.625 -12.0625 16.40625 -10.890625 
Q 16.65625 -10.5 18.15625 -6.875 
Q 19.671875 -3.265625 20.359375 -1.515625 
L 1.03125 52.296875 
L 10.984375 52.296875 
L 25 9.71875 
z
M 24.953125 53.5625 
z
" id="Helvetica-121"/>
       <path d="M 10.75 52.296875 
L 24.703125 9.71875 
L 39.3125 52.296875 
L 48.921875 52.296875 
L 29.203125 0 
L 19.828125 0 
L 0.53125 52.296875 
z
" id="Helvetica-118"/>
       <path d="M 7.625 71.734375 
L 19.09375 71.734375 
L 55.328125 13.625 
L 55.328125 71.734375 
L 64.546875 71.734375 
L 64.546875 0 
L 53.65625 0 
L 16.890625 58.0625 
L 16.890625 0 
L 7.625 0 
z
M 35.453125 71.734375 
z
" id="Helvetica-78"/>
       <path d="M 44.4375 29.390625 
L 33.546875 61.078125 
L 21.96875 29.390625 
z
M 28.46875 71.734375 
L 39.453125 71.734375 
L 65.484375 0 
L 54.828125 0 
L 47.5625 21.484375 
L 19.1875 21.484375 
L 11.421875 0 
L 1.46875 0 
z
" id="Helvetica-65"/>
      </defs>
      <use xlink:href="#Helvetica-105"/>
      <use x="22.216797" xlink:href="#Helvetica-110"/>
      <use x="77.832031" xlink:href="#Helvetica-116"/>
      <use x="105.615234" xlink:href="#Helvetica-101"/>
      <use x="161.230469" xlink:href="#Helvetica-110"/>
      <use x="216.845703" xlink:href="#Helvetica-115"/>
      <use x="266.845703" xlink:href="#Helvetica-105"/>
      <use x="289.0625" xlink:href="#Helvetica-116"/>
      <use x="316.845703" xlink:href="#Helvetica-121"/>
      <use x="366.845703" xlink:href="#Helvetica-32"/>
      <use x="394.628906" xlink:href="#Helvetica-118"/>
      <use x="444.628906" xlink:href="#Helvetica-115"/>
      <use x="494.628906" xlink:href="#Helvetica-32"/>
      <use x="522.412109" xlink:href="#Helvetica-78"/>
      <use x="594.628906" xlink:href="#Helvetica-79"/>
      <use x="672.412109" xlink:href="#Helvetica-65"/>
      <use x="739.111328" xlink:href="#Helvetica-72"/>
      <use x="811.328125" xlink:href="#Helvetica-32"/>
      <use x="839.111328" xlink:href="#Helvetica-72"/>
      <use x="911.328125" xlink:href="#Helvetica-83"/>
      <use x="978.027344" xlink:href="#Helvetica-81"/>
      <use x="1055.810547" xlink:href="#Helvetica-67"/>
      <use x="1128.027344" xlink:href="#Helvetica-32"/>
      <use x="1155.810547" xlink:href="#Helvetica-43"/>
      <use x="1214.208984" xlink:href="#Helvetica-32"/>
      <use x="1241.992188" xlink:href="#Helvetica-67"/>
      <use x="1314.208984" xlink:href="#Helvetica-76"/>
      <use x="1369.824219" xlink:href="#Helvetica-73"/>
      <use x="1397.607422" xlink:href="#Helvetica-80"/>
      <use x="1464.306641" xlink:href="#Helvetica-45"/>
      <use x="1497.607422" xlink:href="#Helvetica-67"/>
      <use x="1569.824219" xlink:href="#Helvetica-79"/>
      <use x="1647.607422" xlink:href="#Helvetica-83"/>
      <use x="1714.306641" xlink:href="#Helvetica-89"/>
     </g>
    </g>
   </g>
   <g id="line2d_7">
    <path clip-path="url(#p35013fca26)" d="M 48.78875 129.528276 
L 225.684375 129.528276 
" style="fill:none;stroke:#808080;stroke-dasharray:1.85,0.8;stroke-dashoffset:0;stroke-width:0.5;"/>
   </g>
   <g id="patch_3">
    <path d="M 48.78875 224.24 
L 48.78875 12.96 
" style="fill:none;stroke:#000000;stroke-linecap:square;stroke-linejoin:miter;stroke-width:1.3;"/>
   </g>
   <g id="patch_4">
    <path d="M 225.684375 224.24 
L 225.684375 12.96 
" style="fill:none;stroke:#000000;stroke-linecap:square;stroke-linejoin:miter;stroke-width:1.3;"/>
   </g>
   <g id="patch_5">
    <path d="M 48.78875 224.24 
L 225.684375 224.24 
" style="fill:none;stroke:#000000;stroke-linecap:square;stroke-linejoin:miter;stroke-width:1.3;"/>
   </g>
   <g id="patch_6">
    <path d="M 48.78875 12.96 
L 225.684375 12.96 
" style="fill:none;stroke:#000000;stroke-linecap:square;stroke-linejoin:miter;stroke-width:1.3;"/>
   </g>
   <g id="PathCollection_5">
    <defs>
     <path d="M 0 2 
C 0.530406 2 1.03916 1.789267 1.414214 1.414214 
C 1.789267 1.03916 2 0.530406 2 -0 
C 2 -0.530406 1.789267 -1.03916 1.414214 -1.414214 
C 1.03916 -1.789267 0.530406 -2 0 -2 
C -0.530406 -2 -1.03916 -1.789267 -1.414214 -1.414214 
C -1.789267 -1.03916 -2 -0.530406 -2 0 
C -2 0.530406 -1.789267 1.03916 -1.414214 1.414214 
C -1.03916 1.789267 -0.530406 2 0 2 
z
" id="C0_0_a5ef689bd4"/>
    </defs>
    <g clip-path="url(#p35013fca26)">
     <use style="fill:#4c72b0;" x="85.974403" xlink:href="#C0_0_a5ef689bd4" y="50.866768"/>
    </g>
    <g clip-path="url(#p35013fca26)">
     <use style="fill:#4c72b0;" x="80.49899" xlink:href="#C0_0_a5ef689bd4" y="77.495956"/>
    </g>
    <g clip-path="url(#p35013fca26)">
     <use style="fill:#4c72b0;" x="87.048572" xlink:href="#C0_0_a5ef689bd4" y="73.925944"/>
    </g>
    <g clip-path="url(#p35013fca26)">
     <use style="fill:#4c72b0;" x="80.126931" xlink:href="#C0_0_a5ef689bd4" y="68.453641"/>
    </g>
    <g clip-path="url(#p35013fca26)">
     <use style="fill:#4c72b0;" x="86.353116" xlink:href="#C0_0_a5ef689bd4" y="84.912697"/>
    </g>
   </g>
   <g id="PathCollection_6">
    <defs>
     <path d="M 0 2 
C 0.530406 2 1.03916 1.789267 1.414214 1.414214 
C 1.789267 1.03916 2 0.530406 2 -0 
C 2 -0.530406 1.789267 -1.03916 1.414214 -1.414214 
C 1.03916 -1.789267 0.530406 -2 0 -2 
C -0.530406 -2 -1.03916 -1.789267 -1.414214 -1.414214 
C -1.789267 -1.03916 -2 -0.530406 -2 0 
C -2 0.530406 -1.789267 1.03916 -1.414214 1.414214 
C -1.03916 1.789267 -0.530406 2 0 2 
z
" id="C1_0_7362b7bd1d"/>
    </defs>
    <g clip-path="url(#p35013fca26)">
     <use style="fill:#dd8452;" x="120.786154" xlink:href="#C1_0_7362b7bd1d" y="107.921593"/>
    </g>
    <g clip-path="url(#p35013fca26)">
     <use style="fill:#dd8452;" x="116.616002" xlink:href="#C1_0_7362b7bd1d" y="102.372772"/>
    </g>
    <g clip-path="url(#p35013fca26)">
     <use style="fill:#dd8452;" x="122.415545" xlink:href="#C1_0_7362b7bd1d" y="116.536154"/>
    </g>
    <g clip-path="url(#p35013fca26)">
     <use style="fill:#dd8452;" x="117.519031" xlink:href="#C1_0_7362b7bd1d" y="116.609984"/>
    </g>
    <g clip-path="url(#p35013fca26)">
     <use style="fill:#dd8452;" x="123.683688" xlink:href="#C1_0_7362b7bd1d" y="114.055827"/>
    </g>
    <g clip-path="url(#p35013fca26)">
     <use style="fill:#dd8452;" x="115.894147" xlink:href="#C1_0_7362b7bd1d" y="115.783198"/>
    </g>
    <g clip-path="url(#p35013fca26)">
     <use style="fill:#dd8452;" x="121.499457" xlink:href="#C1_0_7362b7bd1d" y="91.513808"/>
    </g>
    <g clip-path="url(#p35013fca26)">
     <use style="fill:#dd8452;" x="120.267001" xlink:href="#C1_0_7362b7bd1d" y="102.147499"/>
    </g>
    <g clip-path="url(#p35013fca26)">
     <use style="fill:#dd8452;" x="119.978033" xlink:href="#C1_0_7362b7bd1d" y="112.610932"/>
    </g>
    <g clip-path="url(#p35013fca26)">
     <use style="fill:#dd8452;" x="116.710137" xlink:href="#C1_0_7362b7bd1d" y="107.097085"/>
    </g>
    <g clip-path="url(#p35013fca26)">
     <use style="fill:#dd8452;" x="116.310261" xlink:href="#C1_0_7362b7bd1d" y="113.980159"/>
    </g>
    <g clip-path="url(#p35013fca26)">
     <use style="fill:#dd8452;" x="120.375816" xlink:href="#C1_0_7362b7bd1d" y="95.936646"/>
    </g>
    <g clip-path="url(#p35013fca26)">
     <use style="fill:#dd8452;" x="116.517237" xlink:href="#C1_0_7362b7bd1d" y="101.537284"/>
    </g>
    <g clip-path="url(#p35013fca26)">
     <use style="fill:#dd8452;" x="116.934942" xlink:href="#C1_0_7362b7bd1d" y="87.788382"/>
    </g>
   </g>
   <g id="PathCollection_7">
    <defs>
     <path d="M 0 2 
C 0.530406 2 1.03916 1.789267 1.414214 1.414214 
C 1.789267 1.03916 2 0.530406 2 -0 
C 2 -0.530406 1.789267 -1.03916 1.414214 -1.414214 
C 1.03916 -1.789267 0.530406 -2 0 -2 
C -0.530406 -2 -1.03916 -1.789267 -1.414214 -1.414214 
C -1.789267 -1.03916 -2 -0.530406 -2 0 
C -2 0.530406 -1.789267 1.03916 -1.414214 1.414214 
C -1.03916 1.789267 -0.530406 2 0 2 
z
" id="C2_0_1a0d0e7e4e"/>
    </defs>
    <g clip-path="url(#p35013fca26)">
     <use style="fill:#55a868;" x="153.112237" xlink:href="#C2_0_1a0d0e7e4e" y="85.365485"/>
    </g>
    <g clip-path="url(#p35013fca26)">
     <use style="fill:#55a868;" x="153.725765" xlink:href="#C2_0_1a0d0e7e4e" y="88.714704"/>
    </g>
   </g>
   <g id="PathCollection_8">
    <defs>
     <path d="M 0 2 
C 0.530406 2 1.03916 1.789267 1.414214 1.414214 
C 1.789267 1.03916 2 0.530406 2 -0 
C 2 -0.530406 1.789267 -1.03916 1.414214 -1.414214 
C 1.03916 -1.789267 0.530406 -2 0 -2 
C -0.530406 -2 -1.03916 -1.789267 -1.414214 -1.414214 
C -1.789267 -1.03916 -2 -0.530406 -2 0 
C -2 0.530406 -1.789267 1.03916 -1.414214 1.414214 
C -1.03916 1.789267 -0.530406 2 0 2 
z
" id="C3_0_2a279e1ab5"/>
    </defs>
    <g clip-path="url(#p35013fca26)">
     <use style="fill:#c44e52;" x="193.789172" xlink:href="#C3_0_2a279e1ab5" y="194.304201"/>
    </g>
    <g clip-path="url(#p35013fca26)">
     <use style="fill:#c44e52;" x="194.48079" xlink:href="#C3_0_2a279e1ab5" y="193.850355"/>
    </g>
    <g clip-path="url(#p35013fca26)">
     <use style="fill:#c44e52;" x="189.943618" xlink:href="#C3_0_2a279e1ab5" y="196.08687"/>
    </g>
    <g clip-path="url(#p35013fca26)">
     <use style="fill:#c44e52;" x="191.972676" xlink:href="#C3_0_2a279e1ab5" y="193.153144"/>
    </g>
    <g clip-path="url(#p35013fca26)">
     <use style="fill:#c44e52;" x="187.027049" xlink:href="#C3_0_2a279e1ab5" y="191.490966"/>
    </g>
    <g clip-path="url(#p35013fca26)">
     <use style="fill:#c44e52;" x="194.527932" xlink:href="#C3_0_2a279e1ab5" y="193.695283"/>
    </g>
    <g clip-path="url(#p35013fca26)">
     <use style="fill:#c44e52;" x="192.069369" xlink:href="#C3_0_2a279e1ab5" y="196.989339"/>
    </g>
    <g clip-path="url(#p35013fca26)">
     <use style="fill:#c44e52;" x="192.536595" xlink:href="#C3_0_2a279e1ab5" y="188.171206"/>
    </g>
    <g clip-path="url(#p35013fca26)">
     <use style="fill:#c44e52;" x="190.872611" xlink:href="#C3_0_2a279e1ab5" y="191.885199"/>
    </g>
    <g clip-path="url(#p35013fca26)">
     <use style="fill:#c44e52;" x="188.728242" xlink:href="#C3_0_2a279e1ab5" y="194.765613"/>
    </g>
    <g clip-path="url(#p35013fca26)">
     <use style="fill:#c44e52;" x="186.502231" xlink:href="#C3_0_2a279e1ab5" y="191.454141"/>
    </g>
    <g clip-path="url(#p35013fca26)">
     <use style="fill:#c44e52;" x="189.824448" xlink:href="#C3_0_2a279e1ab5" y="190.603071"/>
    </g>
    <g clip-path="url(#p35013fca26)">
     <use style="fill:#c44e52;" x="189.119152" xlink:href="#C3_0_2a279e1ab5" y="188.445482"/>
    </g>
    <g clip-path="url(#p35013fca26)">
     <use style="fill:#c44e52;" x="192.925631" xlink:href="#C3_0_2a279e1ab5" y="195.056191"/>
    </g>
    <g clip-path="url(#p35013fca26)">
     <use style="fill:#c44e52;" x="186.062382" xlink:href="#C3_0_2a279e1ab5" y="196.75988"/>
    </g>
    <g clip-path="url(#p35013fca26)">
     <use style="fill:#c44e52;" x="187.496851" xlink:href="#C3_0_2a279e1ab5" y="188.520789"/>
    </g>
    <g clip-path="url(#p35013fca26)">
     <use style="fill:#c44e52;" x="189.546933" xlink:href="#C3_0_2a279e1ab5" y="190.75859"/>
    </g>
    <g clip-path="url(#p35013fca26)">
     <use style="fill:#c44e52;" x="190.425912" xlink:href="#C3_0_2a279e1ab5" y="191.426087"/>
    </g>
    <g clip-path="url(#p35013fca26)">
     <use style="fill:#c44e52;" x="188.006706" xlink:href="#C3_0_2a279e1ab5" y="194.02008"/>
    </g>
    <g clip-path="url(#p35013fca26)">
     <use style="fill:#c44e52;" x="189.851885" xlink:href="#C3_0_2a279e1ab5" y="192.815171"/>
    </g>
    <g clip-path="url(#p35013fca26)">
     <use style="fill:#c44e52;" x="194.415276" xlink:href="#C3_0_2a279e1ab5" y="195.174425"/>
    </g>
    <g clip-path="url(#p35013fca26)">
     <use style="fill:#c44e52;" x="189.417563" xlink:href="#C3_0_2a279e1ab5" y="195.777331"/>
    </g>
    <g clip-path="url(#p35013fca26)">
     <use style="fill:#c44e52;" x="190.986157" xlink:href="#C3_0_2a279e1ab5" y="190.643123"/>
    </g>
    <g clip-path="url(#p35013fca26)">
     <use style="fill:#c44e52;" x="186.212185" xlink:href="#C3_0_2a279e1ab5" y="196.18732"/>
    </g>
    <g clip-path="url(#p35013fca26)">
     <use style="fill:#c44e52;" x="194.144522" xlink:href="#C3_0_2a279e1ab5" y="194.190195"/>
    </g>
    <g clip-path="url(#p35013fca26)">
     <use style="fill:#c44e52;" x="186.722771" xlink:href="#C3_0_2a279e1ab5" y="197.578587"/>
    </g>
    <g clip-path="url(#p35013fca26)">
     <use style="fill:#c44e52;" x="194.115038" xlink:href="#C3_0_2a279e1ab5" y="191.158231"/>
    </g>
    <g clip-path="url(#p35013fca26)">
     <use style="fill:#c44e52;" x="192.396956" xlink:href="#C3_0_2a279e1ab5" y="191.214217"/>
    </g>
    <g clip-path="url(#p35013fca26)">
     <use style="fill:#c44e52;" x="187.365384" xlink:href="#C3_0_2a279e1ab5" y="197.56455"/>
    </g>
    <g clip-path="url(#p35013fca26)">
     <use style="fill:#c44e52;" x="192.83857" xlink:href="#C3_0_2a279e1ab5" y="195.141234"/>
    </g>
    <g clip-path="url(#p35013fca26)">
     <use style="fill:#c44e52;" x="192.253463" xlink:href="#C3_0_2a279e1ab5" y="191.674838"/>
    </g>
    <g clip-path="url(#p35013fca26)">
     <use style="fill:#c44e52;" x="190.376339" xlink:href="#C3_0_2a279e1ab5" y="193.493895"/>
    </g>
    <g clip-path="url(#p35013fca26)">
     <use style="fill:#c44e52;" x="194.267052" xlink:href="#C3_0_2a279e1ab5" y="192.999695"/>
    </g>
    <g clip-path="url(#p35013fca26)">
     <use style="fill:#c44e52;" x="185.961634" xlink:href="#C3_0_2a279e1ab5" y="190.989054"/>
    </g>
    <g clip-path="url(#p35013fca26)">
     <use style="fill:#c44e52;" x="189.142733" xlink:href="#C3_0_2a279e1ab5" y="190.97555"/>
    </g>
    <g clip-path="url(#p35013fca26)">
     <use style="fill:#c44e52;" x="194.266671" xlink:href="#C3_0_2a279e1ab5" y="194.287122"/>
    </g>
    <g clip-path="url(#p35013fca26)">
     <use style="fill:#c44e52;" x="190.073528" xlink:href="#C3_0_2a279e1ab5" y="192.17203"/>
    </g>
    <g clip-path="url(#p35013fca26)">
     <use style="fill:#c44e52;" x="190.961908" xlink:href="#C3_0_2a279e1ab5" y="194.799297"/>
    </g>
    <g clip-path="url(#p35013fca26)">
     <use style="fill:#c44e52;" x="193.097855" xlink:href="#C3_0_2a279e1ab5" y="194.178571"/>
    </g>
    <g clip-path="url(#p35013fca26)">
     <use style="fill:#c44e52;" x="192.670845" xlink:href="#C3_0_2a279e1ab5" y="196.757009"/>
    </g>
    <g clip-path="url(#p35013fca26)">
     <use style="fill:#c44e52;" x="187.099468" xlink:href="#C3_0_2a279e1ab5" y="194.011128"/>
    </g>
    <g clip-path="url(#p35013fca26)">
     <use style="fill:#c44e52;" x="188.608184" xlink:href="#C3_0_2a279e1ab5" y="188.922524"/>
    </g>
    <g clip-path="url(#p35013fca26)">
     <use style="fill:#c44e52;" x="189.053591" xlink:href="#C3_0_2a279e1ab5" y="195.313417"/>
    </g>
    <g clip-path="url(#p35013fca26)">
     <use style="fill:#c44e52;" x="194.165496" xlink:href="#C3_0_2a279e1ab5" y="189.710631"/>
    </g>
    <g clip-path="url(#p35013fca26)">
     <use style="fill:#c44e52;" x="191.631753" xlink:href="#C3_0_2a279e1ab5" y="189.093243"/>
    </g>
    <g clip-path="url(#p35013fca26)">
     <use style="fill:#c44e52;" x="191.073603" xlink:href="#C3_0_2a279e1ab5" y="202.992464"/>
    </g>
    <g clip-path="url(#p35013fca26)">
     <use style="fill:#c44e52;" x="186.349554" xlink:href="#C3_0_2a279e1ab5" y="196.806783"/>
    </g>
    <g clip-path="url(#p35013fca26)">
     <use style="fill:#c44e52;" x="187.800213" xlink:href="#C3_0_2a279e1ab5" y="189.250407"/>
    </g>
    <g clip-path="url(#p35013fca26)">
     <use style="fill:#c44e52;" x="188.185936" xlink:href="#C3_0_2a279e1ab5" y="185.584172"/>
    </g>
    <g clip-path="url(#p35013fca26)">
     <use style="fill:#c44e52;" x="187.137902" xlink:href="#C3_0_2a279e1ab5" y="189.621576"/>
    </g>
    <g clip-path="url(#p35013fca26)">
     <use style="fill:#c44e52;" x="193.850146" xlink:href="#C3_0_2a279e1ab5" y="194.752608"/>
    </g>
    <g clip-path="url(#p35013fca26)">
     <use style="fill:#c44e52;" x="189.754223" xlink:href="#C3_0_2a279e1ab5" y="186.181132"/>
    </g>
   </g>
   <g id="text_9">
    <!-- (1.80) -->
    <g style="fill:#4c72b0;" transform="translate(68.495688 220.0144)scale(0.12 -0.12)">
     <defs>
      <path d="M 29.59375 72.90625 
Q 21.921875 58.015625 19.625 50.984375 
Q 16.15625 40.28125 16.15625 26.265625 
Q 16.15625 12.109375 20.125 0.390625 
Q 22.5625 -6.84375 29.734375 -20.40625 
L 23.828125 -20.40625 
Q 16.703125 -9.28125 14.984375 -6.203125 
Q 13.28125 -3.125 11.28125 2.15625 
Q 8.546875 9.375 7.46875 17.578125 
Q 6.9375 21.828125 6.9375 25.6875 
Q 6.9375 40.140625 11.46875 51.421875 
Q 14.359375 58.59375 23.484375 72.90625 
z
" id="Helvetica-40"/>
      <path d="M 27.203125 40.625 
Q 33.015625 40.625 36.28125 43.875 
Q 39.546875 47.125 39.546875 51.609375 
Q 39.546875 55.515625 36.421875 58.78125 
Q 33.296875 62.0625 26.90625 62.0625 
Q 20.5625 62.0625 17.71875 58.78125 
Q 14.890625 55.515625 14.890625 51.125 
Q 14.890625 46.1875 18.546875 43.40625 
Q 22.21875 40.625 27.203125 40.625 
z
M 27.734375 6 
Q 33.84375 6 37.859375 9.296875 
Q 41.890625 12.59375 41.890625 19.140625 
Q 41.890625 25.921875 37.734375 29.4375 
Q 33.59375 32.953125 27.09375 32.953125 
Q 20.796875 32.953125 16.8125 29.359375 
Q 12.84375 25.78125 12.84375 19.4375 
Q 12.84375 13.96875 16.484375 9.984375 
Q 20.125 6 27.734375 6 
z
M 15.234375 37.25 
Q 11.578125 38.8125 9.515625 40.921875 
Q 5.671875 44.828125 5.671875 51.078125 
Q 5.671875 58.890625 11.328125 64.5 
Q 17 70.125 27.390625 70.125 
Q 37.453125 70.125 43.15625 64.8125 
Q 48.875 59.515625 48.875 52.4375 
Q 48.875 45.90625 45.5625 41.84375 
Q 43.703125 39.546875 39.796875 37.359375 
Q 44.140625 35.359375 46.625 32.765625 
Q 51.265625 27.875 51.265625 20.0625 
Q 51.265625 10.84375 45.0625 4.421875 
Q 38.875 -2 27.546875 -2 
Q 17.328125 -2 10.265625 3.53125 
Q 3.21875 9.078125 3.21875 19.625 
Q 3.21875 25.828125 6.25 30.34375 
Q 9.28125 34.859375 15.234375 37.25 
z
" id="Helvetica-56"/>
      <path d="M 3.46875 -20.40625 
Q 11.234375 -5.28125 13.484375 1.65625 
Q 16.890625 12.15625 16.890625 26.265625 
Q 16.890625 40.375 12.9375 52.09375 
Q 10.5 59.328125 3.328125 72.90625 
L 9.234375 72.90625 
Q 16.75 60.890625 18.328125 58.078125 
Q 19.921875 55.28125 21.78125 50.34375 
Q 24.125 44.234375 25.125 38.28125 
Q 26.125 32.328125 26.125 26.8125 
Q 26.125 12.359375 21.53125 1.03125 
Q 18.65625 -6.25 9.578125 -20.40625 
z
" id="Helvetica-41"/>
     </defs>
     <use xlink:href="#Helvetica-40"/>
     <use x="33.300781" xlink:href="#Helvetica-49"/>
     <use x="88.916016" xlink:href="#Helvetica-46"/>
     <use x="116.699219" xlink:href="#Helvetica-56"/>
     <use x="172.314453" xlink:href="#Helvetica-48"/>
     <use x="227.929688" xlink:href="#Helvetica-41"/>
    </g>
   </g>
   <g id="text_10">
    <!-- (1.32) -->
    <g style="fill:#dd8452;" transform="translate(103.874812 220.0144)scale(0.12 -0.12)">
     <defs>
      <path d="M 25.984375 -1.90625 
Q 13.578125 -1.90625 7.984375 4.90625 
Q 2.390625 11.71875 2.390625 21.484375 
L 11.578125 21.484375 
Q 12.15625 14.703125 14.109375 11.625 
Q 17.53125 6.109375 26.46875 6.109375 
Q 33.40625 6.109375 37.59375 9.8125 
Q 41.796875 13.53125 41.796875 19.390625 
Q 41.796875 26.609375 37.375 29.484375 
Q 32.953125 32.375 25.09375 32.375 
Q 24.21875 32.375 23.3125 32.34375 
Q 22.40625 32.328125 21.484375 32.28125 
L 21.484375 40.046875 
Q 22.859375 39.890625 23.78125 39.84375 
Q 24.703125 39.796875 25.78125 39.796875 
Q 30.71875 39.796875 33.890625 41.359375 
Q 39.453125 44.09375 39.453125 51.125 
Q 39.453125 56.34375 35.734375 59.171875 
Q 32.03125 62.015625 27.09375 62.015625 
Q 18.3125 62.015625 14.9375 56.15625 
Q 13.09375 52.9375 12.84375 46.96875 
L 4.15625 46.96875 
Q 4.15625 54.78125 7.28125 60.25 
Q 12.640625 70.015625 26.171875 70.015625 
Q 36.859375 70.015625 42.71875 65.25 
Q 48.578125 60.5 48.578125 51.46875 
Q 48.578125 45.015625 45.125 41.015625 
Q 42.96875 38.53125 39.546875 37.109375 
Q 45.0625 35.59375 48.15625 31.265625 
Q 51.265625 26.953125 51.265625 20.703125 
Q 51.265625 10.6875 44.671875 4.390625 
Q 38.09375 -1.90625 25.984375 -1.90625 
z
" id="Helvetica-51"/>
     </defs>
     <use xlink:href="#Helvetica-40"/>
     <use x="33.300781" xlink:href="#Helvetica-49"/>
     <use x="88.916016" xlink:href="#Helvetica-46"/>
     <use x="116.699219" xlink:href="#Helvetica-51"/>
     <use x="172.314453" xlink:href="#Helvetica-50"/>
     <use x="227.929688" xlink:href="#Helvetica-41"/>
    </g>
   </g>
   <g id="text_11">
    <!-- (1.58) -->
    <g style="fill:#55a868;" transform="translate(139.253937 220.0144)scale(0.12 -0.12)">
     <use xlink:href="#Helvetica-40"/>
     <use x="33.300781" xlink:href="#Helvetica-49"/>
     <use x="88.916016" xlink:href="#Helvetica-46"/>
     <use x="116.699219" xlink:href="#Helvetica-53"/>
     <use x="172.314453" xlink:href="#Helvetica-56"/>
     <use x="227.929688" xlink:href="#Helvetica-41"/>
    </g>
   </g>
   <g id="text_12">
    <!-- (0.13) -->
    <g style="fill:#c44e52;" transform="translate(174.633062 220.0144)scale(0.12 -0.12)">
     <use xlink:href="#Helvetica-40"/>
     <use x="33.300781" xlink:href="#Helvetica-48"/>
     <use x="88.916016" xlink:href="#Helvetica-46"/>
     <use x="116.699219" xlink:href="#Helvetica-49"/>
     <use x="172.314453" xlink:href="#Helvetica-51"/>
     <use x="227.929688" xlink:href="#Helvetica-41"/>
    </g>
   </g>
   <g id="text_13">
    <!-- (a) -->
    <g transform="translate(52.326663 27.315913)scale(0.14 -0.14)">
     <defs>
      <path d="M 10.0625 53.8125 
Q 13.921875 62.796875 21.34375 73.140625 
L 31.84375 73.140625 
L 28.859375 67.671875 
Q 22.703125 56.390625 20.3125 44.046875 
Q 18.75 35.9375 18.75 26.375 
Q 18.75 11.421875 23.09375 -1.125 
Q 25.640625 -8.546875 32.078125 -20.171875 
L 21.78125 -20.171875 
L 18.3125 -15.4375 
Q 14.9375 -11.140625 11.140625 -2.640625 
Q 4.34375 12.546875 4.34375 27.25 
Q 4.34375 40.625 10.0625 53.8125 
z
" id="Helvetica-Bold-40"/>
      <path d="M 35.84375 25.875 
Q 34.515625 25.046875 33.171875 24.53125 
Q 31.84375 24.03125 29.5 23.578125 
L 26.375 23 
Q 21.96875 22.21875 20.0625 21.09375 
Q 16.84375 19.1875 16.84375 15.1875 
Q 16.84375 11.625 18.8125 10.03125 
Q 20.796875 8.453125 23.640625 8.453125 
Q 28.125 8.453125 31.90625 11.078125 
Q 35.6875 13.71875 35.84375 20.703125 
z
M 27.390625 32.375 
Q 31.25 32.859375 32.90625 33.59375 
Q 35.890625 34.859375 35.890625 37.546875 
Q 35.890625 40.828125 33.609375 42.0625 
Q 31.34375 43.3125 26.953125 43.3125 
Q 22.015625 43.3125 19.96875 40.875 
Q 18.5 39.0625 18.015625 35.984375 
L 4.59375 35.984375 
Q 5.03125 42.96875 8.5 47.46875 
Q 14.015625 54.5 27.4375 54.5 
Q 36.1875 54.5 42.96875 51.03125 
Q 49.75 47.5625 49.75 37.9375 
L 49.75 13.53125 
Q 49.75 10.984375 49.859375 7.375 
Q 50 4.640625 50.6875 3.65625 
Q 51.375 2.6875 52.734375 2.046875 
L 52.734375 0 
L 37.59375 0 
Q 36.96875 1.609375 36.71875 3.015625 
Q 36.46875 4.4375 36.328125 6.25 
Q 33.453125 3.125 29.6875 0.921875 
Q 25.203125 -1.65625 19.53125 -1.65625 
Q 12.3125 -1.65625 7.59375 2.46875 
Q 2.875 6.59375 2.875 14.15625 
Q 2.875 23.96875 10.453125 28.375 
Q 14.59375 30.765625 22.65625 31.78125 
z
M 28.125 54.640625 
z
" id="Helvetica-Bold-97"/>
      <path d="M 11.765625 73.140625 
Q 19.1875 62.796875 23.046875 53.8125 
Q 28.765625 40.625 28.765625 27.25 
Q 28.765625 12.546875 21.96875 -2.640625 
Q 18.171875 -11.140625 14.796875 -15.4375 
L 11.328125 -20.171875 
L 1.03125 -20.171875 
Q 7.46875 -8.546875 10.015625 -1.125 
Q 14.359375 11.421875 14.359375 26.375 
Q 14.359375 35.9375 12.796875 44.046875 
Q 10.40625 56.390625 4.25 67.671875 
L 1.265625 73.140625 
L 11.765625 73.140625 
z
" id="Helvetica-Bold-41"/>
     </defs>
     <use xlink:href="#Helvetica-Bold-40"/>
     <use x="33.300781" xlink:href="#Helvetica-Bold-97"/>
     <use x="88.916016" xlink:href="#Helvetica-Bold-41"/>
    </g>
   </g>
   <g id="legend_1">
    <g id="patch_7">
     <path d="M 136.404375 80.1975 
L 217.284375 80.1975 
Q 219.684375 80.1975 219.684375 77.7975 
L 219.684375 21.36 
Q 219.684375 18.96 217.284375 18.96 
L 136.404375 18.96 
Q 134.004375 18.96 134.004375 21.36 
L 134.004375 77.7975 
Q 134.004375 80.1975 136.404375 80.1975 
z
" style="fill:#ffffff;opacity:0.8;stroke:#cccccc;stroke-linejoin:miter;"/>
    </g>
    <g id="PathCollection_9">
     <path d="M 141.804375 31.218125 
C 142.334781 31.218125 142.843535 31.007392 143.218589 30.632339 
C 143.593642 30.257285 143.804375 29.748531 143.804375 29.218125 
C 143.804375 28.687719 143.593642 28.178965 143.218589 27.803911 
C 142.843535 27.428858 142.334781 27.218125 141.804375 27.218125 
C 141.273969 27.218125 140.765215 27.428858 140.390161 27.803911 
C 140.015108 28.178965 139.804375 28.687719 139.804375 29.218125 
C 139.804375 29.748531 140.015108 30.257285 140.390161 30.632339 
C 140.765215 31.007392 141.273969 31.218125 141.804375 31.218125 
z
" style="fill:#4c72b0;"/>
    </g>
    <g id="text_14">
     <!-- HSQC CH -->
     <g transform="translate(154.404375 32.368125)scale(0.12 -0.12)">
      <use xlink:href="#Helvetica-72"/>
      <use x="72.216797" xlink:href="#Helvetica-83"/>
      <use x="138.916016" xlink:href="#Helvetica-81"/>
      <use x="216.699219" xlink:href="#Helvetica-67"/>
      <use x="288.916016" xlink:href="#Helvetica-32"/>
      <use x="316.699219" xlink:href="#Helvetica-67"/>
      <use x="388.916016" xlink:href="#Helvetica-72"/>
     </g>
    </g>
    <g id="PathCollection_10">
     <path d="M 141.804375 44.7275 
C 142.334781 44.7275 142.843535 44.516767 143.218589 44.141714 
C 143.593642 43.76666 143.804375 43.257906 143.804375 42.7275 
C 143.804375 42.197094 143.593642 41.68834 143.218589 41.313286 
C 142.843535 40.938233 142.334781 40.7275 141.804375 40.7275 
C 141.273969 40.7275 140.765215 40.938233 140.390161 41.313286 
C 140.015108 41.68834 139.804375 42.197094 139.804375 42.7275 
C 139.804375 43.257906 140.015108 43.76666 140.390161 44.141714 
C 140.765215 44.516767 141.273969 44.7275 141.804375 44.7275 
z
" style="fill:#dd8452;"/>
    </g>
    <g id="text_15">
     <!-- HSQC CH$_2$ -->
     <g transform="translate(154.404375 45.8775)scale(0.12 -0.12)">
      <use transform="translate(0 0.3125)" xlink:href="#Helvetica-72"/>
      <use transform="translate(72.216797 0.3125)" xlink:href="#Helvetica-83"/>
      <use transform="translate(138.916016 0.3125)" xlink:href="#Helvetica-81"/>
      <use transform="translate(216.699219 0.3125)" xlink:href="#Helvetica-67"/>
      <use transform="translate(288.916016 0.3125)" xlink:href="#Helvetica-32"/>
      <use transform="translate(316.699219 0.3125)" xlink:href="#Helvetica-67"/>
      <use transform="translate(388.916016 0.3125)" xlink:href="#Helvetica-72"/>
      <use transform="translate(462.048008 -15.376563)scale(0.7)" xlink:href="#Helvetica-50"/>
     </g>
    </g>
    <g id="PathCollection_11">
     <path d="M 141.804375 58.236875 
C 142.334781 58.236875 142.843535 58.026142 143.218589 57.651089 
C 143.593642 57.276035 143.804375 56.767281 143.804375 56.236875 
C 143.804375 55.706469 143.593642 55.197715 143.218589 54.822661 
C 142.843535 54.447608 142.334781 54.236875 141.804375 54.236875 
C 141.273969 54.236875 140.765215 54.447608 140.390161 54.822661 
C 140.015108 55.197715 139.804375 55.706469 139.804375 56.236875 
C 139.804375 56.767281 140.015108 57.276035 140.390161 57.651089 
C 140.765215 58.026142 141.273969 58.236875 141.804375 58.236875 
z
" style="fill:#55a868;"/>
    </g>
    <g id="text_16">
     <!-- HSQC CH$_3$ -->
     <g transform="translate(154.404375 59.386875)scale(0.12 -0.12)">
      <use transform="translate(0 0.3125)" xlink:href="#Helvetica-72"/>
      <use transform="translate(72.216797 0.3125)" xlink:href="#Helvetica-83"/>
      <use transform="translate(138.916016 0.3125)" xlink:href="#Helvetica-81"/>
      <use transform="translate(216.699219 0.3125)" xlink:href="#Helvetica-67"/>
      <use transform="translate(288.916016 0.3125)" xlink:href="#Helvetica-32"/>
      <use transform="translate(316.699219 0.3125)" xlink:href="#Helvetica-67"/>
      <use transform="translate(388.916016 0.3125)" xlink:href="#Helvetica-72"/>
      <use transform="translate(462.048008 -15.376563)scale(0.7)" xlink:href="#Helvetica-51"/>
     </g>
    </g>
    <g id="PathCollection_12">
     <path d="M 141.804375 71.74625 
C 142.334781 71.74625 142.843535 71.535517 143.218589 71.160464 
C 143.593642 70.78541 143.804375 70.276656 143.804375 69.74625 
C 143.804375 69.215844 143.593642 68.70709 143.218589 68.332036 
C 142.843535 67.956983 142.334781 67.74625 141.804375 67.74625 
C 141.273969 67.74625 140.765215 67.956983 140.390161 68.332036 
C 140.015108 68.70709 139.804375 69.215844 139.804375 69.74625 
C 139.804375 70.276656 140.015108 70.78541 140.390161 71.160464 
C 140.765215 71.535517 141.273969 71.74625 141.804375 71.74625 
z
" style="fill:#c44e52;"/>
    </g>
    <g id="text_17">
     <!-- COSY -->
     <g transform="translate(154.404375 72.89625)scale(0.12 -0.12)">
      <use xlink:href="#Helvetica-67"/>
      <use x="72.216797" xlink:href="#Helvetica-79"/>
      <use x="150" xlink:href="#Helvetica-83"/>
      <use x="216.699219" xlink:href="#Helvetica-89"/>
     </g>
    </g>
   </g>
  </g>
  <g id="axes_2">
   <g id="patch_8">
    <path d="M 242.144375 224.24 
L 419.04 224.24 
L 419.04 12.96 
L 242.144375 12.96 
z
" style="fill:#ffffff;"/>
   </g>
   <g id="PathCollection_13"/>
   <g id="PathCollection_14"/>
   <g id="PathCollection_15"/>
   <g id="PathCollection_16"/>
   <g id="matplotlib.axis_3">
    <g id="text_18">
     <!-- NOAH seHSQC + CLIP-COSY -->
     <g transform="translate(248.739062 236.848125)scale(0.12 -0.12)">
      <use xlink:href="#Helvetica-78"/>
      <use x="72.216797" xlink:href="#Helvetica-79"/>
      <use x="150" xlink:href="#Helvetica-65"/>
      <use x="216.699219" xlink:href="#Helvetica-72"/>
      <use x="288.916016" xlink:href="#Helvetica-32"/>
      <use x="316.699219" xlink:href="#Helvetica-115"/>
      <use x="366.699219" xlink:href="#Helvetica-101"/>
      <use x="422.314453" xlink:href="#Helvetica-72"/>
      <use x="494.53125" xlink:href="#Helvetica-83"/>
      <use x="561.230469" xlink:href="#Helvetica-81"/>
      <use x="639.013672" xlink:href="#Helvetica-67"/>
      <use x="711.230469" xlink:href="#Helvetica-32"/>
      <use x="739.013672" xlink:href="#Helvetica-43"/>
      <use x="797.412109" xlink:href="#Helvetica-32"/>
      <use x="825.195312" xlink:href="#Helvetica-67"/>
      <use x="897.412109" xlink:href="#Helvetica-76"/>
      <use x="953.027344" xlink:href="#Helvetica-73"/>
      <use x="980.810547" xlink:href="#Helvetica-80"/>
      <use x="1047.509766" xlink:href="#Helvetica-45"/>
      <use x="1080.810547" xlink:href="#Helvetica-67"/>
      <use x="1153.027344" xlink:href="#Helvetica-79"/>
      <use x="1230.810547" xlink:href="#Helvetica-83"/>
      <use x="1297.509766" xlink:href="#Helvetica-89"/>
     </g>
    </g>
   </g>
   <g id="line2d_8">
    <path clip-path="url(#pd6f2c7344b)" d="M 242.144375 129.528276 
L 419.04 129.528276 
" style="fill:none;stroke:#808080;stroke-dasharray:1.85,0.8;stroke-dashoffset:0;stroke-width:0.5;"/>
   </g>
   <g id="patch_9">
    <path d="M 242.144375 224.24 
L 242.144375 12.96 
" style="fill:none;stroke:#000000;stroke-linecap:square;stroke-linejoin:miter;stroke-width:1.3;"/>
   </g>
   <g id="patch_10">
    <path d="M 419.04 224.24 
L 419.04 12.96 
" style="fill:none;stroke:#000000;stroke-linecap:square;stroke-linejoin:miter;stroke-width:1.3;"/>
   </g>
   <g id="patch_11">
    <path d="M 242.144375 224.24 
L 419.04 224.24 
" style="fill:none;stroke:#000000;stroke-linecap:square;stroke-linejoin:miter;stroke-width:1.3;"/>
   </g>
   <g id="patch_12">
    <path d="M 242.144375 12.96 
L 419.04 12.96 
" style="fill:none;stroke:#000000;stroke-linecap:square;stroke-linejoin:miter;stroke-width:1.3;"/>
   </g>
   <g id="PathCollection_17">
    <defs>
     <path d="M 0 2 
C 0.530406 2 1.03916 1.789267 1.414214 1.414214 
C 1.789267 1.03916 2 0.530406 2 -0 
C 2 -0.530406 1.789267 -1.03916 1.414214 -1.414214 
C 1.03916 -1.789267 0.530406 -2 0 -2 
C -0.530406 -2 -1.03916 -1.789267 -1.414214 -1.414214 
C -1.789267 -1.03916 -2 -0.530406 -2 0 
C -2 0.530406 -1.789267 1.03916 -1.414214 1.414214 
C -1.03916 1.789267 -0.530406 2 0 2 
z
" id="C4_0_a642bd2309"/>
    </defs>
    <g clip-path="url(#pd6f2c7344b)">
     <use style="fill:#4c72b0;" x="274.777969" xlink:href="#C4_0_a642bd2309" y="63.825637"/>
    </g>
    <g clip-path="url(#pd6f2c7344b)">
     <use style="fill:#4c72b0;" x="278.829447" xlink:href="#C4_0_a642bd2309" y="88.542114"/>
    </g>
    <g clip-path="url(#pd6f2c7344b)">
     <use style="fill:#4c72b0;" x="280.467207" xlink:href="#C4_0_a642bd2309" y="87.278319"/>
    </g>
    <g clip-path="url(#pd6f2c7344b)">
     <use style="fill:#4c72b0;" x="278.759196" xlink:href="#C4_0_a642bd2309" y="110.622623"/>
    </g>
    <g clip-path="url(#pd6f2c7344b)">
     <use style="fill:#4c72b0;" x="278.349279" xlink:href="#C4_0_a642bd2309" y="99.895113"/>
    </g>
   </g>
   <g id="PathCollection_18">
    <defs>
     <path d="M 0 2 
C 0.530406 2 1.03916 1.789267 1.414214 1.414214 
C 1.789267 1.03916 2 0.530406 2 -0 
C 2 -0.530406 1.789267 -1.03916 1.414214 -1.414214 
C 1.03916 -1.789267 0.530406 -2 0 -2 
C -0.530406 -2 -1.03916 -1.789267 -1.414214 -1.414214 
C -1.789267 -1.03916 -2 -0.530406 -2 0 
C -2 0.530406 -1.789267 1.03916 -1.414214 1.414214 
C -1.03916 1.789267 -0.530406 2 0 2 
z
" id="C5_0_c9ac8984d0"/>
    </defs>
    <g clip-path="url(#pd6f2c7344b)">
     <use style="fill:#dd8452;" x="310.764276" xlink:href="#C5_0_c9ac8984d0" y="114.793909"/>
    </g>
    <g clip-path="url(#pd6f2c7344b)">
     <use style="fill:#dd8452;" x="315.136693" xlink:href="#C5_0_c9ac8984d0" y="115.266374"/>
    </g>
    <g clip-path="url(#pd6f2c7344b)">
     <use style="fill:#dd8452;" x="313.513227" xlink:href="#C5_0_c9ac8984d0" y="114.16853"/>
    </g>
    <g clip-path="url(#pd6f2c7344b)">
     <use style="fill:#dd8452;" x="310.137512" xlink:href="#C5_0_c9ac8984d0" y="115.070075"/>
    </g>
    <g clip-path="url(#pd6f2c7344b)">
     <use style="fill:#dd8452;" x="313.525793" xlink:href="#C5_0_c9ac8984d0" y="113.652777"/>
    </g>
    <g clip-path="url(#pd6f2c7344b)">
     <use style="fill:#dd8452;" x="311.246642" xlink:href="#C5_0_c9ac8984d0" y="113.531054"/>
    </g>
    <g clip-path="url(#pd6f2c7344b)">
     <use style="fill:#dd8452;" x="316.222047" xlink:href="#C5_0_c9ac8984d0" y="108.427084"/>
    </g>
    <g clip-path="url(#pd6f2c7344b)">
     <use style="fill:#dd8452;" x="310.9582" xlink:href="#C5_0_c9ac8984d0" y="117.699939"/>
    </g>
    <g clip-path="url(#pd6f2c7344b)">
     <use style="fill:#dd8452;" x="311.565129" xlink:href="#C5_0_c9ac8984d0" y="124.950937"/>
    </g>
    <g clip-path="url(#pd6f2c7344b)">
     <use style="fill:#dd8452;" x="316.667727" xlink:href="#C5_0_c9ac8984d0" y="112.837089"/>
    </g>
    <g clip-path="url(#pd6f2c7344b)">
     <use style="fill:#dd8452;" x="311.985874" xlink:href="#C5_0_c9ac8984d0" y="116.326133"/>
    </g>
    <g clip-path="url(#pd6f2c7344b)">
     <use style="fill:#dd8452;" x="312.43766" xlink:href="#C5_0_c9ac8984d0" y="125.61499"/>
    </g>
    <g clip-path="url(#pd6f2c7344b)">
     <use style="fill:#dd8452;" x="315.939619" xlink:href="#C5_0_c9ac8984d0" y="122.141868"/>
    </g>
    <g clip-path="url(#pd6f2c7344b)">
     <use style="fill:#dd8452;" x="312.22874" xlink:href="#C5_0_c9ac8984d0" y="105.794544"/>
    </g>
   </g>
   <g id="PathCollection_19">
    <defs>
     <path d="M 0 2 
C 0.530406 2 1.03916 1.789267 1.414214 1.414214 
C 1.789267 1.03916 2 0.530406 2 -0 
C 2 -0.530406 1.789267 -1.03916 1.414214 -1.414214 
C 1.03916 -1.789267 0.530406 -2 0 -2 
C -0.530406 -2 -1.03916 -1.789267 -1.414214 -1.414214 
C -1.789267 -1.03916 -2 -0.530406 -2 0 
C -2 0.530406 -1.789267 1.03916 -1.414214 1.414214 
C -1.03916 1.789267 -0.530406 2 0 2 
z
" id="C6_0_06bdc0de4e"/>
    </defs>
    <g clip-path="url(#pd6f2c7344b)">
     <use style="fill:#55a868;" x="347.685345" xlink:href="#C6_0_06bdc0de4e" y="106.473975"/>
    </g>
    <g clip-path="url(#pd6f2c7344b)">
     <use style="fill:#55a868;" x="349.771586" xlink:href="#C6_0_06bdc0de4e" y="140.18493"/>
    </g>
   </g>
   <g id="PathCollection_20">
    <defs>
     <path d="M 0 2 
C 0.530406 2 1.03916 1.789267 1.414214 1.414214 
C 1.789267 1.03916 2 0.530406 2 -0 
C 2 -0.530406 1.789267 -1.03916 1.414214 -1.414214 
C 1.03916 -1.789267 0.530406 -2 0 -2 
C -0.530406 -2 -1.03916 -1.789267 -1.414214 -1.414214 
C -1.789267 -1.03916 -2 -0.530406 -2 0 
C -2 0.530406 -1.789267 1.03916 -1.414214 1.414214 
C -1.03916 1.789267 -0.530406 2 0 2 
z
" id="C7_0_225cee37b8"/>
    </defs>
    <g clip-path="url(#pd6f2c7344b)">
     <use style="fill:#c44e52;" x="387.211899" xlink:href="#C7_0_225cee37b8" y="131.951137"/>
    </g>
    <g clip-path="url(#pd6f2c7344b)">
     <use style="fill:#c44e52;" x="386.535206" xlink:href="#C7_0_225cee37b8" y="141.854822"/>
    </g>
    <g clip-path="url(#pd6f2c7344b)">
     <use style="fill:#c44e52;" x="383.167509" xlink:href="#C7_0_225cee37b8" y="134.383566"/>
    </g>
    <g clip-path="url(#pd6f2c7344b)">
     <use style="fill:#c44e52;" x="380.767986" xlink:href="#C7_0_225cee37b8" y="131.899691"/>
    </g>
    <g clip-path="url(#pd6f2c7344b)">
     <use style="fill:#c44e52;" x="383.269624" xlink:href="#C7_0_225cee37b8" y="131.644222"/>
    </g>
    <g clip-path="url(#pd6f2c7344b)">
     <use style="fill:#c44e52;" x="382.847058" xlink:href="#C7_0_225cee37b8" y="131.225721"/>
    </g>
    <g clip-path="url(#pd6f2c7344b)">
     <use style="fill:#c44e52;" x="382.974129" xlink:href="#C7_0_225cee37b8" y="136.784979"/>
    </g>
    <g clip-path="url(#pd6f2c7344b)">
     <use style="fill:#c44e52;" x="383.907767" xlink:href="#C7_0_225cee37b8" y="129.773904"/>
    </g>
    <g clip-path="url(#pd6f2c7344b)">
     <use style="fill:#c44e52;" x="382.122451" xlink:href="#C7_0_225cee37b8" y="132.838335"/>
    </g>
    <g clip-path="url(#pd6f2c7344b)">
     <use style="fill:#c44e52;" x="383.587576" xlink:href="#C7_0_225cee37b8" y="134.255959"/>
    </g>
    <g clip-path="url(#pd6f2c7344b)">
     <use style="fill:#c44e52;" x="382.668638" xlink:href="#C7_0_225cee37b8" y="131.842605"/>
    </g>
    <g clip-path="url(#pd6f2c7344b)">
     <use style="fill:#c44e52;" x="386.03287" xlink:href="#C7_0_225cee37b8" y="132.728696"/>
    </g>
    <g clip-path="url(#pd6f2c7344b)">
     <use style="fill:#c44e52;" x="387.505226" xlink:href="#C7_0_225cee37b8" y="130.683566"/>
    </g>
    <g clip-path="url(#pd6f2c7344b)">
     <use style="fill:#c44e52;" x="385.43293" xlink:href="#C7_0_225cee37b8" y="140.430313"/>
    </g>
    <g clip-path="url(#pd6f2c7344b)">
     <use style="fill:#c44e52;" x="385.524814" xlink:href="#C7_0_225cee37b8" y="138.873456"/>
    </g>
    <g clip-path="url(#pd6f2c7344b)">
     <use style="fill:#c44e52;" x="385.505326" xlink:href="#C7_0_225cee37b8" y="135.389037"/>
    </g>
    <g clip-path="url(#pd6f2c7344b)">
     <use style="fill:#c44e52;" x="386.900744" xlink:href="#C7_0_225cee37b8" y="134.097092"/>
    </g>
    <g clip-path="url(#pd6f2c7344b)">
     <use style="fill:#c44e52;" x="383.269261" xlink:href="#C7_0_225cee37b8" y="134.021321"/>
    </g>
    <g clip-path="url(#pd6f2c7344b)">
     <use style="fill:#c44e52;" x="385.084797" xlink:href="#C7_0_225cee37b8" y="134.846178"/>
    </g>
    <g clip-path="url(#pd6f2c7344b)">
     <use style="fill:#c44e52;" x="382.910112" xlink:href="#C7_0_225cee37b8" y="135.913043"/>
    </g>
    <g clip-path="url(#pd6f2c7344b)">
     <use style="fill:#c44e52;" x="380.233326" xlink:href="#C7_0_225cee37b8" y="136.756563"/>
    </g>
    <g clip-path="url(#pd6f2c7344b)">
     <use style="fill:#c44e52;" x="387.511009" xlink:href="#C7_0_225cee37b8" y="147.557823"/>
    </g>
    <g clip-path="url(#pd6f2c7344b)">
     <use style="fill:#c44e52;" x="379.879395" xlink:href="#C7_0_225cee37b8" y="134.77512"/>
    </g>
    <g clip-path="url(#pd6f2c7344b)">
     <use style="fill:#c44e52;" x="384.145653" xlink:href="#C7_0_225cee37b8" y="132.626104"/>
    </g>
    <g clip-path="url(#pd6f2c7344b)">
     <use style="fill:#c44e52;" x="383.908013" xlink:href="#C7_0_225cee37b8" y="130.805719"/>
    </g>
    <g clip-path="url(#pd6f2c7344b)">
     <use style="fill:#c44e52;" x="379.953963" xlink:href="#C7_0_225cee37b8" y="135.055315"/>
    </g>
    <g clip-path="url(#pd6f2c7344b)">
     <use style="fill:#c44e52;" x="383.274585" xlink:href="#C7_0_225cee37b8" y="138.134534"/>
    </g>
    <g clip-path="url(#pd6f2c7344b)">
     <use style="fill:#c44e52;" x="385.860005" xlink:href="#C7_0_225cee37b8" y="133.36889"/>
    </g>
    <g clip-path="url(#pd6f2c7344b)">
     <use style="fill:#c44e52;" x="381.500617" xlink:href="#C7_0_225cee37b8" y="135.877247"/>
    </g>
    <g clip-path="url(#pd6f2c7344b)">
     <use style="fill:#c44e52;" x="385.52242" xlink:href="#C7_0_225cee37b8" y="139.478298"/>
    </g>
    <g clip-path="url(#pd6f2c7344b)">
     <use style="fill:#c44e52;" x="383.028023" xlink:href="#C7_0_225cee37b8" y="136.171433"/>
    </g>
    <g clip-path="url(#pd6f2c7344b)">
     <use style="fill:#c44e52;" x="385.723485" xlink:href="#C7_0_225cee37b8" y="136.415436"/>
    </g>
    <g clip-path="url(#pd6f2c7344b)">
     <use style="fill:#c44e52;" x="381.152064" xlink:href="#C7_0_225cee37b8" y="136.927072"/>
    </g>
    <g clip-path="url(#pd6f2c7344b)">
     <use style="fill:#c44e52;" x="387.473361" xlink:href="#C7_0_225cee37b8" y="142.150678"/>
    </g>
    <g clip-path="url(#pd6f2c7344b)">
     <use style="fill:#c44e52;" x="383.087393" xlink:href="#C7_0_225cee37b8" y="139.782299"/>
    </g>
    <g clip-path="url(#pd6f2c7344b)">
     <use style="fill:#c44e52;" x="379.438791" xlink:href="#C7_0_225cee37b8" y="140.343251"/>
    </g>
    <g clip-path="url(#pd6f2c7344b)">
     <use style="fill:#c44e52;" x="382.700541" xlink:href="#C7_0_225cee37b8" y="140.401657"/>
    </g>
    <g clip-path="url(#pd6f2c7344b)">
     <use style="fill:#c44e52;" x="383.581896" xlink:href="#C7_0_225cee37b8" y="130.84287"/>
    </g>
    <g clip-path="url(#pd6f2c7344b)">
     <use style="fill:#c44e52;" x="383.443791" xlink:href="#C7_0_225cee37b8" y="140.977879"/>
    </g>
    <g clip-path="url(#pd6f2c7344b)">
     <use style="fill:#c44e52;" x="380.383969" xlink:href="#C7_0_225cee37b8" y="132.508039"/>
    </g>
    <g clip-path="url(#pd6f2c7344b)">
     <use style="fill:#c44e52;" x="380.592449" xlink:href="#C7_0_225cee37b8" y="131.3822"/>
    </g>
    <g clip-path="url(#pd6f2c7344b)">
     <use style="fill:#c44e52;" x="382.047275" xlink:href="#C7_0_225cee37b8" y="130.665592"/>
    </g>
    <g clip-path="url(#pd6f2c7344b)">
     <use style="fill:#c44e52;" x="382.314163" xlink:href="#C7_0_225cee37b8" y="134.807744"/>
    </g>
    <g clip-path="url(#pd6f2c7344b)">
     <use style="fill:#c44e52;" x="386.252407" xlink:href="#C7_0_225cee37b8" y="133.841876"/>
    </g>
    <g clip-path="url(#pd6f2c7344b)">
     <use style="fill:#c44e52;" x="386.277349" xlink:href="#C7_0_225cee37b8" y="130.609556"/>
    </g>
    <g clip-path="url(#pd6f2c7344b)">
     <use style="fill:#c44e52;" x="383.79605" xlink:href="#C7_0_225cee37b8" y="139.274556"/>
    </g>
    <g clip-path="url(#pd6f2c7344b)">
     <use style="fill:#c44e52;" x="385.350628" xlink:href="#C7_0_225cee37b8" y="137.935072"/>
    </g>
    <g clip-path="url(#pd6f2c7344b)">
     <use style="fill:#c44e52;" x="384.660389" xlink:href="#C7_0_225cee37b8" y="135.221973"/>
    </g>
    <g clip-path="url(#pd6f2c7344b)">
     <use style="fill:#c44e52;" x="382.804405" xlink:href="#C7_0_225cee37b8" y="132.605171"/>
    </g>
    <g clip-path="url(#pd6f2c7344b)">
     <use style="fill:#c44e52;" x="386.191317" xlink:href="#C7_0_225cee37b8" y="133.825426"/>
    </g>
    <g clip-path="url(#pd6f2c7344b)">
     <use style="fill:#c44e52;" x="383.339836" xlink:href="#C7_0_225cee37b8" y="137.056731"/>
    </g>
    <g clip-path="url(#pd6f2c7344b)">
     <use style="fill:#c44e52;" x="383.220675" xlink:href="#C7_0_225cee37b8" y="132.921502"/>
    </g>
   </g>
   <g id="text_19">
    <!-- (1.54) -->
    <g style="fill:#4c72b0;" transform="translate(261.851312 220.0144)scale(0.12 -0.12)">
     <defs>
      <path d="M 33.0625 24.75 
L 33.0625 56.453125 
L 10.640625 24.75 
z
M 33.203125 0 
L 33.203125 17.09375 
L 2.546875 17.09375 
L 2.546875 25.6875 
L 34.578125 70.125 
L 42 70.125 
L 42 24.75 
L 52.296875 24.75 
L 52.296875 17.09375 
L 42 17.09375 
L 42 0 
z
" id="Helvetica-52"/>
     </defs>
     <use xlink:href="#Helvetica-40"/>
     <use x="33.300781" xlink:href="#Helvetica-49"/>
     <use x="88.916016" xlink:href="#Helvetica-46"/>
     <use x="116.699219" xlink:href="#Helvetica-53"/>
     <use x="172.314453" xlink:href="#Helvetica-52"/>
     <use x="227.929688" xlink:href="#Helvetica-41"/>
    </g>
   </g>
   <g id="text_20">
    <!-- (1.19) -->
    <g style="fill:#dd8452;" transform="translate(297.230437 220.0144)scale(0.12 -0.12)">
     <defs>
      <path d="M 13.28125 16.890625 
Q 13.671875 9.625 18.890625 6.84375 
Q 21.578125 5.375 24.953125 5.375 
Q 31.25 5.375 35.6875 10.625 
Q 40.140625 15.875 42 31.9375 
Q 39.0625 27.296875 34.734375 25.40625 
Q 30.421875 23.53125 25.4375 23.53125 
Q 15.328125 23.53125 9.4375 29.828125 
Q 3.5625 36.140625 3.5625 46.046875 
Q 3.5625 55.5625 9.375 62.78125 
Q 15.1875 70.015625 26.515625 70.015625 
Q 41.796875 70.015625 47.609375 56.25 
Q 50.828125 48.6875 50.828125 37.3125 
Q 50.828125 24.46875 46.96875 14.546875 
Q 40.578125 -1.953125 25.296875 -1.953125 
Q 15.046875 -1.953125 9.71875 3.421875 
Q 4.390625 8.796875 4.390625 16.890625 
z
M 26.609375 31.25 
Q 31.84375 31.25 36.15625 34.6875 
Q 40.484375 38.140625 40.484375 46.734375 
Q 40.484375 54.4375 36.59375 58.21875 
Q 32.71875 62.015625 26.703125 62.015625 
Q 20.265625 62.015625 16.484375 57.6875 
Q 12.703125 53.375 12.703125 46.140625 
Q 12.703125 39.3125 16.015625 35.28125 
Q 19.34375 31.25 26.609375 31.25 
z
" id="Helvetica-57"/>
     </defs>
     <use xlink:href="#Helvetica-40"/>
     <use x="33.300781" xlink:href="#Helvetica-49"/>
     <use x="88.916016" xlink:href="#Helvetica-46"/>
     <use x="116.699219" xlink:href="#Helvetica-49"/>
     <use x="172.314453" xlink:href="#Helvetica-57"/>
     <use x="227.929688" xlink:href="#Helvetica-41"/>
    </g>
   </g>
   <g id="text_21">
    <!-- (1.09) -->
    <g style="fill:#55a868;" transform="translate(332.609562 220.0144)scale(0.12 -0.12)">
     <use xlink:href="#Helvetica-40"/>
     <use x="33.300781" xlink:href="#Helvetica-49"/>
     <use x="88.916016" xlink:href="#Helvetica-46"/>
     <use x="116.699219" xlink:href="#Helvetica-48"/>
     <use x="172.314453" xlink:href="#Helvetica-57"/>
     <use x="227.929688" xlink:href="#Helvetica-41"/>
    </g>
   </g>
   <g id="text_22">
    <!-- (0.92) -->
    <g style="fill:#c44e52;" transform="translate(367.988687 220.0144)scale(0.12 -0.12)">
     <use xlink:href="#Helvetica-40"/>
     <use x="33.300781" xlink:href="#Helvetica-48"/>
     <use x="88.916016" xlink:href="#Helvetica-46"/>
     <use x="116.699219" xlink:href="#Helvetica-57"/>
     <use x="172.314453" xlink:href="#Helvetica-50"/>
     <use x="227.929688" xlink:href="#Helvetica-41"/>
    </g>
   </g>
   <g id="text_23">
    <!-- (b) -->
    <g transform="translate(245.682287 27.315913)scale(0.14 -0.14)">
     <defs>
      <path d="M 35.25 54.390625 
Q 45.75 54.390625 51.6875 46.828125 
Q 57.625 39.265625 57.625 27.296875 
Q 57.625 14.890625 51.765625 6.734375 
Q 45.90625 -1.421875 35.40625 -1.421875 
Q 28.8125 -1.421875 24.8125 1.21875 
Q 22.40625 2.78125 19.625 6.6875 
L 19.625 0 
L 6 0 
L 6 71.875 
L 19.875 71.875 
L 19.875 46.296875 
Q 22.515625 50 25.6875 51.953125 
Q 29.4375 54.390625 35.25 54.390625 
z
M 31.6875 10.0625 
Q 37.0625 10.0625 40.03125 14.40625 
Q 43.015625 18.75 43.015625 25.828125 
Q 43.015625 31.5 41.546875 35.203125 
Q 38.765625 42.234375 31.296875 42.234375 
Q 23.734375 42.234375 20.90625 35.359375 
Q 19.4375 31.6875 19.4375 25.875 
Q 19.4375 19.046875 22.453125 14.546875 
Q 25.484375 10.0625 31.6875 10.0625 
z
" id="Helvetica-Bold-98"/>
     </defs>
     <use xlink:href="#Helvetica-Bold-40"/>
     <use x="33.300781" xlink:href="#Helvetica-Bold-98"/>
     <use x="94.384766" xlink:href="#Helvetica-Bold-41"/>
    </g>
   </g>
   <g id="legend_2">
    <g id="patch_13">
     <path d="M 329.76 80.1975 
L 410.64 80.1975 
Q 413.04 80.1975 413.04 77.7975 
L 413.04 21.36 
Q 413.04 18.96 410.64 18.96 
L 329.76 18.96 
Q 327.36 18.96 327.36 21.36 
L 327.36 77.7975 
Q 327.36 80.1975 329.76 80.1975 
z
" style="fill:#ffffff;opacity:0.8;stroke:#cccccc;stroke-linejoin:miter;"/>
    </g>
    <g id="PathCollection_21">
     <path d="M 335.16 31.218125 
C 335.690406 31.218125 336.19916 31.007392 336.574214 30.632339 
C 336.949267 30.257285 337.16 29.748531 337.16 29.218125 
C 337.16 28.687719 336.949267 28.178965 336.574214 27.803911 
C 336.19916 27.428858 335.690406 27.218125 335.16 27.218125 
C 334.629594 27.218125 334.12084 27.428858 333.745786 27.803911 
C 333.370733 28.178965 333.16 28.687719 333.16 29.218125 
C 333.16 29.748531 333.370733 30.257285 333.745786 30.632339 
C 334.12084 31.007392 334.629594 31.218125 335.16 31.218125 
z
" style="fill:#4c72b0;"/>
    </g>
    <g id="text_24">
     <!-- HSQC CH -->
     <g transform="translate(347.76 32.368125)scale(0.12 -0.12)">
      <use xlink:href="#Helvetica-72"/>
      <use x="72.216797" xlink:href="#Helvetica-83"/>
      <use x="138.916016" xlink:href="#Helvetica-81"/>
      <use x="216.699219" xlink:href="#Helvetica-67"/>
      <use x="288.916016" xlink:href="#Helvetica-32"/>
      <use x="316.699219" xlink:href="#Helvetica-67"/>
      <use x="388.916016" xlink:href="#Helvetica-72"/>
     </g>
    </g>
    <g id="PathCollection_22">
     <path d="M 335.16 44.7275 
C 335.690406 44.7275 336.19916 44.516767 336.574214 44.141714 
C 336.949267 43.76666 337.16 43.257906 337.16 42.7275 
C 337.16 42.197094 336.949267 41.68834 336.574214 41.313286 
C 336.19916 40.938233 335.690406 40.7275 335.16 40.7275 
C 334.629594 40.7275 334.12084 40.938233 333.745786 41.313286 
C 333.370733 41.68834 333.16 42.197094 333.16 42.7275 
C 333.16 43.257906 333.370733 43.76666 333.745786 44.141714 
C 334.12084 44.516767 334.629594 44.7275 335.16 44.7275 
z
" style="fill:#dd8452;"/>
    </g>
    <g id="text_25">
     <!-- HSQC CH$_2$ -->
     <g transform="translate(347.76 45.8775)scale(0.12 -0.12)">
      <use transform="translate(0 0.3125)" xlink:href="#Helvetica-72"/>
      <use transform="translate(72.216797 0.3125)" xlink:href="#Helvetica-83"/>
      <use transform="translate(138.916016 0.3125)" xlink:href="#Helvetica-81"/>
      <use transform="translate(216.699219 0.3125)" xlink:href="#Helvetica-67"/>
      <use transform="translate(288.916016 0.3125)" xlink:href="#Helvetica-32"/>
      <use transform="translate(316.699219 0.3125)" xlink:href="#Helvetica-67"/>
      <use transform="translate(388.916016 0.3125)" xlink:href="#Helvetica-72"/>
      <use transform="translate(462.048008 -15.376563)scale(0.7)" xlink:href="#Helvetica-50"/>
     </g>
    </g>
    <g id="PathCollection_23">
     <path d="M 335.16 58.236875 
C 335.690406 58.236875 336.19916 58.026142 336.574214 57.651089 
C 336.949267 57.276035 337.16 56.767281 337.16 56.236875 
C 337.16 55.706469 336.949267 55.197715 336.574214 54.822661 
C 336.19916 54.447608 335.690406 54.236875 335.16 54.236875 
C 334.629594 54.236875 334.12084 54.447608 333.745786 54.822661 
C 333.370733 55.197715 333.16 55.706469 333.16 56.236875 
C 333.16 56.767281 333.370733 57.276035 333.745786 57.651089 
C 334.12084 58.026142 334.629594 58.236875 335.16 58.236875 
z
" style="fill:#55a868;"/>
    </g>
    <g id="text_26">
     <!-- HSQC CH$_3$ -->
     <g transform="translate(347.76 59.386875)scale(0.12 -0.12)">
      <use transform="translate(0 0.3125)" xlink:href="#Helvetica-72"/>
      <use transform="translate(72.216797 0.3125)" xlink:href="#Helvetica-83"/>
      <use transform="translate(138.916016 0.3125)" xlink:href="#Helvetica-81"/>
      <use transform="translate(216.699219 0.3125)" xlink:href="#Helvetica-67"/>
      <use transform="translate(288.916016 0.3125)" xlink:href="#Helvetica-32"/>
      <use transform="translate(316.699219 0.3125)" xlink:href="#Helvetica-67"/>
      <use transform="translate(388.916016 0.3125)" xlink:href="#Helvetica-72"/>
      <use transform="translate(462.048008 -15.376563)scale(0.7)" xlink:href="#Helvetica-51"/>
     </g>
    </g>
    <g id="PathCollection_24">
     <path d="M 335.16 71.74625 
C 335.690406 71.74625 336.19916 71.535517 336.574214 71.160464 
C 336.949267 70.78541 337.16 70.276656 337.16 69.74625 
C 337.16 69.215844 336.949267 68.70709 336.574214 68.332036 
C 336.19916 67.956983 335.690406 67.74625 335.16 67.74625 
C 334.629594 67.74625 334.12084 67.956983 333.745786 68.332036 
C 333.370733 68.70709 333.16 69.215844 333.16 69.74625 
C 333.16 70.276656 333.370733 70.78541 333.745786 71.160464 
C 334.12084 71.535517 334.629594 71.74625 335.16 71.74625 
z
" style="fill:#c44e52;"/>
    </g>
    <g id="text_27">
     <!-- COSY -->
     <g transform="translate(347.76 72.89625)scale(0.12 -0.12)">
      <use xlink:href="#Helvetica-67"/>
      <use x="72.216797" xlink:href="#Helvetica-79"/>
      <use x="150" xlink:href="#Helvetica-83"/>
      <use x="216.699219" xlink:href="#Helvetica-89"/>
     </g>
    </g>
   </g>
  </g>
 </g>
 <defs>
  <clipPath id="p35013fca26">
   <rect height="211.28" width="176.895625" x="48.78875" y="12.96"/>
  </clipPath>
  <clipPath id="pd6f2c7344b">
   <rect height="211.28" width="176.895625" x="242.144375" y="12.96"/>
  </clipPath>
 </defs>
</svg>
