<?xml version="1.0" encoding="utf-8" standalone="no"?>
<!DOCTYPE svg PUBLIC "-//W3C//DTD SVG 1.1//EN"
  "http://www.w3.org/Graphics/SVG/1.1/DTD/svg11.dtd">
<!-- Created with matplotlib (https://matplotlib.org/) -->
<svg height="288pt" version="1.1" viewBox="0 0 576 288" width="576pt" xmlns="http://www.w3.org/2000/svg" xmlns:xlink="http://www.w3.org/1999/xlink">
 <metadata>
  <rdf:RDF xmlns:cc="http://creativecommons.org/ns#" xmlns:dc="http://purl.org/dc/elements/1.1/" xmlns:rdf="http://www.w3.org/1999/02/22-rdf-syntax-ns#">
   <cc:Work>
    <dc:type rdf:resource="http://purl.org/dc/dcmitype/StillImage"/>
    <dc:date>2020-12-03T15:22:47.313795</dc:date>
    <dc:format>image/svg+xml</dc:format>
    <dc:creator>
     <cc:Agent>
      <dc:title>Matplotlib v3.3.2, https://matplotlib.org/</dc:title>
     </cc:Agent>
    </dc:creator>
   </cc:Work>
  </rdf:RDF>
 </metadata>
 <defs>
  <style type="text/css">*{stroke-linecap:butt;stroke-linejoin:round;}</style>
 </defs>
 <g id="figure_1">
  <g id="patch_1">
   <path d="M 0 288 
L 576 288 
L 576 0 
L 0 0 
z
" style="fill:#ffffff;"/>
  </g>
  <g id="axes_1">
   <g id="patch_2">
    <path d="M 43.58 246.76 
L 297.24 246.76 
L 297.24 26.16 
L 43.58 26.16 
z
" style="fill:#ffffff;"/>
   </g>
   <g id="matplotlib.axis_1">
    <g id="xtick_1">
     <g id="line2d_1">
      <defs>
       <path d="M 0 0 
L 0 3.5 
" id="m449bb51bdb" style="stroke:#000000;stroke-width:0.8;"/>
      </defs>
      <g>
       <use style="stroke:#000000;stroke-width:0.8;" x="285.71" xlink:href="#m449bb51bdb" y="246.76"/>
      </g>
     </g>
     <g id="text_1">
      <!-- 0.4 -->
      <g transform="translate(279.494375 260.880313)scale(0.1 -0.1)">
       <defs>
        <path d="M 24.90625 -1.203125 
Q 15.203125 -1.203125 9.796875 7.390625 
Q 4.40625 16 4.40625 32.09375 
Q 4.40625 48.203125 9.796875 56.59375 
Q 15.203125 65 24.90625 65 
Q 34.5 65 39.890625 56.59375 
Q 45.296875 48.203125 45.296875 32.09375 
Q 45.296875 16 39.890625 7.390625 
Q 34.5 -1.203125 24.90625 -1.203125 
z
M 24.90625 5.40625 
Q 27.703125 5.40625 29.953125 6.953125 
Q 32.203125 8.5 33.84375 11.75 
Q 35.5 15 36.390625 20.046875 
Q 37.296875 25.09375 37.296875 32.09375 
Q 37.296875 39.09375 36.390625 44.09375 
Q 35.5 49.09375 33.84375 52.25 
Q 32.203125 55.40625 29.953125 56.90625 
Q 27.703125 58.40625 24.90625 58.40625 
Q 22.09375 58.40625 19.796875 56.90625 
Q 17.5 55.40625 15.84375 52.25 
Q 14.203125 49.09375 13.296875 44.09375 
Q 12.40625 39.09375 12.40625 32.09375 
Q 12.40625 18.09375 15.84375 11.75 
Q 19.296875 5.40625 24.90625 5.40625 
z
" id="SourceSansPro-Regular-48"/>
        <path d="M 12.5 -1.203125 
Q 10 -1.203125 8.25 0.546875 
Q 6.5 2.296875 6.5 5 
Q 6.5 7.90625 8.25 9.65625 
Q 10 11.40625 12.5 11.40625 
Q 14.90625 11.40625 16.65625 9.65625 
Q 18.40625 7.90625 18.40625 5 
Q 18.40625 2.296875 16.65625 0.546875 
Q 14.90625 -1.203125 12.5 -1.203125 
z
" id="SourceSansPro-Regular-46"/>
        <path d="M 30.40625 0 
L 30.40625 17.59375 
L 1.703125 17.59375 
L 1.703125 23 
L 29 63.796875 
L 38.203125 63.796875 
L 38.203125 24.203125 
L 46.90625 24.203125 
L 46.90625 17.59375 
L 38.203125 17.59375 
L 38.203125 0 
z
M 10.40625 24.203125 
L 30.40625 24.203125 
L 30.40625 42.703125 
Q 30.40625 45.296875 30.546875 48.84375 
Q 30.703125 52.40625 30.90625 55 
L 30.5 55 
Q 29.296875 52.703125 28 50.5 
Q 26.703125 48.296875 25.296875 46 
z
" id="SourceSansPro-Regular-52"/>
       </defs>
       <use xlink:href="#SourceSansPro-Regular-48"/>
       <use x="49.699997" xlink:href="#SourceSansPro-Regular-46"/>
       <use x="74.599991" xlink:href="#SourceSansPro-Regular-52"/>
      </g>
     </g>
    </g>
    <g id="xtick_2">
     <g id="line2d_2">
      <g>
       <use style="stroke:#000000;stroke-width:0.8;" x="252.767143" xlink:href="#m449bb51bdb" y="246.76"/>
      </g>
     </g>
     <g id="text_2">
      <!-- 0.5 -->
      <g transform="translate(246.551518 260.880313)scale(0.1 -0.1)">
       <defs>
        <path d="M 23.40625 -1.203125 
Q 19.59375 -1.203125 16.4375 -0.453125 
Q 13.296875 0.296875 10.75 1.5 
Q 8.203125 2.703125 6.140625 4.25 
Q 4.09375 5.796875 2.5 7.5 
L 6.5 12.90625 
Q 9.296875 10 13.140625 7.796875 
Q 17 5.59375 22.59375 5.59375 
Q 25.5 5.59375 28.046875 6.640625 
Q 30.59375 7.703125 32.5 9.59375 
Q 34.40625 11.5 35.5 14.203125 
Q 36.59375 16.90625 36.59375 20.203125 
Q 36.59375 26.796875 32.890625 30.5 
Q 29.203125 34.203125 23 34.203125 
Q 19.703125 34.203125 17.34375 33.203125 
Q 15 32.203125 12.09375 30.296875 
L 7.703125 33.09375 
L 9.796875 63.796875 
L 41.703125 63.796875 
L 41.703125 56.703125 
L 17 56.703125 
L 15.296875 37.796875 
Q 17.59375 39 19.890625 39.703125 
Q 22.203125 40.40625 25.09375 40.40625 
Q 29.203125 40.40625 32.796875 39.203125 
Q 36.40625 38 39.09375 35.546875 
Q 41.796875 33.09375 43.34375 29.34375 
Q 44.90625 25.59375 44.90625 20.40625 
Q 44.90625 15.203125 43.09375 11.203125 
Q 41.296875 7.203125 38.296875 4.453125 
Q 35.296875 1.703125 31.4375 0.25 
Q 27.59375 -1.203125 23.40625 -1.203125 
z
" id="SourceSansPro-Regular-53"/>
       </defs>
       <use xlink:href="#SourceSansPro-Regular-48"/>
       <use x="49.699997" xlink:href="#SourceSansPro-Regular-46"/>
       <use x="74.599991" xlink:href="#SourceSansPro-Regular-53"/>
      </g>
     </g>
    </g>
    <g id="xtick_3">
     <g id="line2d_3">
      <g>
       <use style="stroke:#000000;stroke-width:0.8;" x="219.824286" xlink:href="#m449bb51bdb" y="246.76"/>
      </g>
     </g>
     <g id="text_3">
      <!-- 0.6 -->
      <g transform="translate(213.608661 260.880313)scale(0.1 -0.1)">
       <defs>
        <path d="M 26.796875 -1.203125 
Q 22.09375 -1.203125 18.09375 0.6875 
Q 14.09375 2.59375 11.140625 6.4375 
Q 8.203125 10.296875 6.5 16.046875 
Q 4.796875 21.796875 4.796875 29.5 
Q 4.796875 39.09375 6.796875 45.84375 
Q 8.796875 52.59375 12.1875 56.84375 
Q 15.59375 61.09375 19.9375 63.046875 
Q 24.296875 65 29.09375 65 
Q 34.296875 65 38.046875 63.046875 
Q 41.796875 61.09375 44.5 58.203125 
L 39.90625 53.09375 
Q 37.90625 55.40625 35.15625 56.75 
Q 32.40625 58.09375 29.40625 58.09375 
Q 26.09375 58.09375 23.09375 56.6875 
Q 20.09375 55.296875 17.796875 52.09375 
Q 15.5 48.90625 14.09375 43.75 
Q 12.703125 38.59375 12.59375 31 
Q 15.59375 34.703125 19.59375 36.84375 
Q 23.59375 39 27.5 39 
Q 35.796875 39 40.75 34.09375 
Q 45.703125 29.203125 45.703125 19.296875 
Q 45.703125 14.703125 44.203125 10.953125 
Q 42.703125 7.203125 40.09375 4.5 
Q 37.5 1.796875 34.09375 0.296875 
Q 30.703125 -1.203125 26.796875 -1.203125 
z
M 26.796875 5.296875 
Q 29.203125 5.296875 31.203125 6.296875 
Q 33.203125 7.296875 34.703125 9.140625 
Q 36.203125 11 37.046875 13.546875 
Q 37.90625 16.09375 37.90625 19.296875 
Q 37.90625 25.59375 35 29.1875 
Q 32.09375 32.796875 26.09375 32.796875 
Q 23 32.796875 19.390625 30.84375 
Q 15.796875 28.90625 12.796875 24.40625 
Q 13.59375 15 17.140625 10.140625 
Q 20.703125 5.296875 26.796875 5.296875 
z
" id="SourceSansPro-Regular-54"/>
       </defs>
       <use xlink:href="#SourceSansPro-Regular-48"/>
       <use x="49.699997" xlink:href="#SourceSansPro-Regular-46"/>
       <use x="74.599991" xlink:href="#SourceSansPro-Regular-54"/>
      </g>
     </g>
    </g>
    <g id="xtick_4">
     <g id="line2d_4">
      <g>
       <use style="stroke:#000000;stroke-width:0.8;" x="186.881429" xlink:href="#m449bb51bdb" y="246.76"/>
      </g>
     </g>
     <g id="text_4">
      <!-- 0.7 -->
      <g transform="translate(180.665804 260.880313)scale(0.1 -0.1)">
       <defs>
        <path d="M 17.703125 0 
Q 18.09375 9 19.296875 16.5 
Q 20.5 24 22.640625 30.75 
Q 24.796875 37.5 28.140625 43.796875 
Q 31.5 50.09375 36.203125 56.703125 
L 4.40625 56.703125 
L 4.40625 63.796875 
L 45.5 63.796875 
L 45.5 58.703125 
Q 39.796875 51.5 36.25 44.890625 
Q 32.703125 38.296875 30.59375 31.4375 
Q 28.5 24.59375 27.546875 16.9375 
Q 26.59375 9.296875 26.203125 0 
z
" id="SourceSansPro-Regular-55"/>
       </defs>
       <use xlink:href="#SourceSansPro-Regular-48"/>
       <use x="49.699997" xlink:href="#SourceSansPro-Regular-46"/>
       <use x="74.599991" xlink:href="#SourceSansPro-Regular-55"/>
      </g>
     </g>
    </g>
    <g id="xtick_5">
     <g id="line2d_5">
      <g>
       <use style="stroke:#000000;stroke-width:0.8;" x="153.938571" xlink:href="#m449bb51bdb" y="246.76"/>
      </g>
     </g>
     <g id="text_5">
      <!-- 0.8 -->
      <g transform="translate(147.722946 260.880313)scale(0.1 -0.1)">
       <defs>
        <path d="M 25 -1.203125 
Q 20.5 -1.203125 16.640625 0.09375 
Q 12.796875 1.40625 10.046875 3.75 
Q 7.296875 6.09375 5.6875 9.296875 
Q 4.09375 12.5 4.09375 16.296875 
Q 4.09375 19.40625 5.140625 22.046875 
Q 6.203125 24.703125 7.84375 26.84375 
Q 9.5 29 11.640625 30.640625 
Q 13.796875 32.296875 16.09375 33.5 
L 16.09375 33.90625 
Q 12.59375 36.40625 9.890625 39.953125 
Q 7.203125 43.5 7.203125 48.59375 
Q 7.203125 52.296875 8.59375 55.296875 
Q 10 58.296875 12.390625 60.4375 
Q 14.796875 62.59375 18.09375 63.796875 
Q 21.40625 65 25.296875 65 
Q 29.5 65 32.796875 63.75 
Q 36.09375 62.5 38.4375 60.25 
Q 40.796875 58 42.046875 54.84375 
Q 43.296875 51.703125 43.296875 48 
Q 43.296875 45.5 42.4375 43.203125 
Q 41.59375 40.90625 40.34375 38.90625 
Q 39.09375 36.90625 37.546875 35.296875 
Q 36 33.703125 34.5 32.59375 
L 34.5 32.203125 
Q 36.59375 31 38.59375 29.453125 
Q 40.59375 27.90625 42.140625 25.953125 
Q 43.703125 24 44.640625 21.5 
Q 45.59375 19 45.59375 15.796875 
Q 45.59375 12.203125 44.09375 9.09375 
Q 42.59375 6 39.890625 3.703125 
Q 37.203125 1.40625 33.390625 0.09375 
Q 29.59375 -1.203125 25 -1.203125 
z
M 29.5 34.796875 
Q 32.703125 37.703125 34.453125 40.890625 
Q 36.203125 44.09375 36.203125 47.59375 
Q 36.203125 52.40625 33.296875 55.65625 
Q 30.40625 58.90625 25.09375 58.90625 
Q 20.59375 58.90625 17.6875 56.09375 
Q 14.796875 53.296875 14.796875 48.59375 
Q 14.796875 45.703125 16 43.640625 
Q 17.203125 41.59375 19.25 40 
Q 21.296875 38.40625 23.9375 37.15625 
Q 26.59375 35.90625 29.5 34.796875 
z
M 25.203125 4.90625 
Q 30.796875 4.90625 34.25 8 
Q 37.703125 11.09375 37.703125 16.09375 
Q 37.703125 19.203125 36.296875 21.390625 
Q 34.90625 23.59375 32.5 25.25 
Q 30.09375 26.90625 26.9375 28.25 
Q 23.796875 29.59375 20.40625 31 
Q 16.59375 28.40625 14.046875 24.953125 
Q 11.5 21.5 11.5 17.09375 
Q 11.5 14.40625 12.546875 12.203125 
Q 13.59375 10 15.4375 8.34375 
Q 17.296875 6.703125 19.796875 5.796875 
Q 22.296875 4.90625 25.203125 4.90625 
z
" id="SourceSansPro-Regular-56"/>
       </defs>
       <use xlink:href="#SourceSansPro-Regular-48"/>
       <use x="49.699997" xlink:href="#SourceSansPro-Regular-46"/>
       <use x="74.599991" xlink:href="#SourceSansPro-Regular-56"/>
      </g>
     </g>
    </g>
    <g id="xtick_6">
     <g id="line2d_6">
      <g>
       <use style="stroke:#000000;stroke-width:0.8;" x="120.995714" xlink:href="#m449bb51bdb" y="246.76"/>
      </g>
     </g>
     <g id="text_6">
      <!-- 0.9 -->
      <g transform="translate(114.780089 260.880313)scale(0.1 -0.1)">
       <defs>
        <path d="M 23.5 31 
Q 26.703125 31 30.25 33 
Q 33.796875 35 36.90625 39.5 
Q 36.09375 48.90625 32.5 53.703125 
Q 28.90625 58.5 22.796875 58.5 
Q 20.5 58.5 18.453125 57.5 
Q 16.40625 56.5 14.90625 54.640625 
Q 13.40625 52.796875 12.546875 50.1875 
Q 11.703125 47.59375 11.703125 44.5 
Q 11.703125 38.203125 14.59375 34.59375 
Q 17.5 31 23.5 31 
z
M 20.5 -1.203125 
Q 15.40625 -1.203125 11.546875 0.6875 
Q 7.703125 2.59375 5.09375 5.5 
L 9.703125 10.703125 
Q 11.703125 8.40625 14.453125 7 
Q 17.203125 5.59375 20.203125 5.59375 
Q 23.59375 5.59375 26.59375 7 
Q 29.59375 8.40625 31.890625 11.65625 
Q 34.203125 14.90625 35.59375 20.09375 
Q 37 25.296875 37.09375 33 
Q 34.09375 29.203125 30.09375 27 
Q 26.09375 24.796875 22.09375 24.796875 
Q 13.796875 24.796875 8.890625 29.6875 
Q 4 34.59375 4 44.5 
Q 4 49.09375 5.5 52.84375 
Q 7 56.59375 9.546875 59.296875 
Q 12.09375 62 15.546875 63.5 
Q 19 65 22.796875 65 
Q 27.5 65 31.546875 63.09375 
Q 35.59375 61.203125 38.546875 57.34375 
Q 41.5 53.5 43.140625 47.75 
Q 44.796875 42 44.796875 34.296875 
Q 44.796875 24.703125 42.796875 17.953125 
Q 40.796875 11.203125 37.390625 6.953125 
Q 34 2.703125 29.640625 0.75 
Q 25.296875 -1.203125 20.5 -1.203125 
z
" id="SourceSansPro-Regular-57"/>
       </defs>
       <use xlink:href="#SourceSansPro-Regular-48"/>
       <use x="49.699997" xlink:href="#SourceSansPro-Regular-46"/>
       <use x="74.599991" xlink:href="#SourceSansPro-Regular-57"/>
      </g>
     </g>
    </g>
    <g id="xtick_7">
     <g id="line2d_7">
      <g>
       <use style="stroke:#000000;stroke-width:0.8;" x="88.052857" xlink:href="#m449bb51bdb" y="246.76"/>
      </g>
     </g>
     <g id="text_7">
      <!-- 1.0 -->
      <g transform="translate(81.837232 260.880313)scale(0.1 -0.1)">
       <defs>
        <path d="M 7.90625 0 
L 7.90625 6.796875 
L 22.5 6.796875 
L 22.5 53.796875 
L 10.90625 53.796875 
L 10.90625 59.09375 
Q 15.296875 59.90625 18.546875 61.046875 
Q 21.796875 62.203125 24.40625 63.796875 
L 30.703125 63.796875 
L 30.703125 6.796875 
L 43.90625 6.796875 
L 43.90625 0 
z
" id="SourceSansPro-Regular-49"/>
       </defs>
       <use xlink:href="#SourceSansPro-Regular-49"/>
       <use x="49.699997" xlink:href="#SourceSansPro-Regular-46"/>
       <use x="74.599991" xlink:href="#SourceSansPro-Regular-48"/>
      </g>
     </g>
    </g>
    <g id="xtick_8">
     <g id="line2d_8">
      <g>
       <use style="stroke:#000000;stroke-width:0.8;" x="55.11" xlink:href="#m449bb51bdb" y="246.76"/>
      </g>
     </g>
     <g id="text_8">
      <!-- MFA -->
      <g transform="translate(46.284219 260.880313)scale(0.1 -0.1)">
       <defs>
        <path d="M 9 0 
L 9 65.59375 
L 19 65.59375 
L 31.59375 30.59375 
Q 32.796875 27.203125 33.9375 23.75 
Q 35.09375 20.296875 36.296875 16.90625 
L 36.703125 16.90625 
Q 37.90625 20.296875 38.953125 23.75 
Q 40 27.203125 41.203125 30.59375 
L 53.59375 65.59375 
L 63.703125 65.59375 
L 63.703125 0 
L 55.90625 0 
L 55.90625 36.09375 
Q 55.90625 40.5 56.296875 45.796875 
Q 56.703125 51.09375 57 55.5 
L 56.59375 55.5 
L 51.40625 40.59375 
L 39 6.59375 
L 33.5 6.59375 
L 21.09375 40.59375 
L 15.90625 55.5 
L 15.5 55.5 
Q 15.796875 51.09375 16.140625 45.796875 
Q 16.5 40.5 16.5 36.09375 
L 16.5 0 
z
" id="SourceSansPro-Regular-77"/>
        <path d="M 9 0 
L 9 65.59375 
L 46.796875 65.59375 
L 46.796875 58.59375 
L 17.296875 58.59375 
L 17.296875 36.40625 
L 42.296875 36.40625 
L 42.296875 29.40625 
L 17.296875 29.40625 
L 17.296875 0 
z
" id="SourceSansPro-Regular-70"/>
        <path d="M 20.296875 36.703125 
L 17.203125 26.703125 
L 36.90625 26.703125 
L 33.796875 36.703125 
Q 32 42.203125 30.390625 47.640625 
Q 28.796875 53.09375 27.203125 58.796875 
L 26.796875 58.796875 
Q 25.296875 53.09375 23.6875 47.640625 
Q 22.09375 42.203125 20.296875 36.703125 
z
M 0.296875 0 
L 22.5 65.59375 
L 31.90625 65.59375 
L 54.09375 0 
L 45.203125 0 
L 39 20 
L 15.09375 20 
L 8.796875 0 
z
" id="SourceSansPro-Regular-65"/>
       </defs>
       <use xlink:href="#SourceSansPro-Regular-77"/>
       <use x="72.699982" xlink:href="#SourceSansPro-Regular-70"/>
       <use x="122.099976" xlink:href="#SourceSansPro-Regular-65"/>
      </g>
     </g>
    </g>
    <g id="text_9">
     <!-- value of $f$ -->
     <g transform="translate(151.46 274.050625)scale(0.1 -0.1)">
      <defs>
       <path d="M 18.703125 0 
L 1.203125 48.59375 
L 9.703125 48.59375 
L 18.90625 21 
Q 20 17.40625 21.140625 13.796875 
Q 22.296875 10.203125 23.40625 6.703125 
L 23.796875 6.703125 
Q 24.90625 10.203125 26 13.796875 
Q 27.09375 17.40625 28.203125 21 
L 37.40625 48.59375 
L 45.5 48.59375 
L 28.296875 0 
z
" id="SourceSansPro-Regular-118"/>
       <path d="M 19.40625 -1.203125 
Q 13.296875 -1.203125 9.25 2.390625 
Q 5.203125 6 5.203125 12.59375 
Q 5.203125 20.59375 12.296875 24.84375 
Q 19.40625 29.09375 35 30.796875 
Q 35 33.09375 34.546875 35.296875 
Q 34.09375 37.5 33 39.203125 
Q 31.90625 40.90625 29.953125 41.953125 
Q 28 43 25 43 
Q 20.796875 43 17.09375 41.390625 
Q 13.40625 39.796875 10.5 37.796875 
L 7.296875 43.5 
Q 10.703125 45.703125 15.59375 47.75 
Q 20.5 49.796875 26.40625 49.796875 
Q 35.296875 49.796875 39.296875 44.34375 
Q 43.296875 38.90625 43.296875 29.796875 
L 43.296875 0 
L 36.5 0 
L 35.796875 5.796875 
L 35.5 5.796875 
Q 32 2.90625 28 0.84375 
Q 24 -1.203125 19.40625 -1.203125 
z
M 21.796875 5.40625 
Q 25.296875 5.40625 28.390625 7.046875 
Q 31.5 8.703125 35 11.90625 
L 35 25.40625 
Q 28.90625 24.59375 24.75 23.5 
Q 20.59375 22.40625 18.046875 20.90625 
Q 15.5 19.40625 14.34375 17.453125 
Q 13.203125 15.5 13.203125 13.203125 
Q 13.203125 9 15.703125 7.203125 
Q 18.203125 5.40625 21.796875 5.40625 
z
" id="SourceSansPro-Regular-97"/>
       <path d="M 16.90625 -1.203125 
Q 12.203125 -1.203125 10.203125 1.59375 
Q 8.203125 4.40625 8.203125 9.796875 
L 8.203125 71.203125 
L 16.40625 71.203125 
L 16.40625 9.203125 
Q 16.40625 7.203125 17.09375 6.390625 
Q 17.796875 5.59375 18.703125 5.59375 
Q 19.09375 5.59375 19.4375 5.59375 
Q 19.796875 5.59375 20.5 5.796875 
L 21.59375 -0.40625 
Q 20.796875 -0.796875 19.6875 -1 
Q 18.59375 -1.203125 16.90625 -1.203125 
z
" id="SourceSansPro-Regular-108"/>
       <path d="M 22.40625 -1.203125 
Q 14.59375 -1.203125 11.046875 3.59375 
Q 7.5 8.40625 7.5 17.796875 
L 7.5 48.59375 
L 15.796875 48.59375 
L 15.796875 18.90625 
Q 15.796875 12 17.9375 8.953125 
Q 20.09375 5.90625 24.90625 5.90625 
Q 28.703125 5.90625 31.59375 7.84375 
Q 34.5 9.796875 38 14.09375 
L 38 48.59375 
L 46.203125 48.59375 
L 46.203125 0 
L 39.40625 0 
L 38.703125 7.59375 
L 38.40625 7.59375 
Q 35 3.59375 31.25 1.1875 
Q 27.5 -1.203125 22.40625 -1.203125 
z
" id="SourceSansPro-Regular-117"/>
       <path d="M 27.90625 -1.203125 
Q 23 -1.203125 18.75 0.546875 
Q 14.5 2.296875 11.34375 5.546875 
Q 8.203125 8.796875 6.390625 13.5 
Q 4.59375 18.203125 4.59375 24.203125 
Q 4.59375 30.203125 6.4375 34.953125 
Q 8.296875 39.703125 11.34375 43 
Q 14.40625 46.296875 18.296875 48.046875 
Q 22.203125 49.796875 26.40625 49.796875 
Q 31 49.796875 34.640625 48.1875 
Q 38.296875 46.59375 40.75 43.59375 
Q 43.203125 40.59375 44.5 36.390625 
Q 45.796875 32.203125 45.796875 27 
Q 45.796875 25.703125 45.75 24.453125 
Q 45.703125 23.203125 45.5 22.296875 
L 12.703125 22.296875 
Q 13.203125 14.5 17.546875 9.953125 
Q 21.90625 5.40625 28.90625 5.40625 
Q 32.40625 5.40625 35.34375 6.453125 
Q 38.296875 7.5 41 9.203125 
L 43.90625 3.796875 
Q 40.703125 1.796875 36.796875 0.296875 
Q 32.90625 -1.203125 27.90625 -1.203125 
z
M 12.59375 28.203125 
L 38.59375 28.203125 
Q 38.59375 35.59375 35.4375 39.4375 
Q 32.296875 43.296875 26.59375 43.296875 
Q 24 43.296875 21.640625 42.296875 
Q 19.296875 41.296875 17.390625 39.34375 
Q 15.5 37.40625 14.25 34.59375 
Q 13 31.796875 12.59375 28.203125 
z
" id="SourceSansPro-Regular-101"/>
       <path id="SourceSansPro-Regular-32"/>
       <path d="M 27.09375 -1.203125 
Q 22.59375 -1.203125 18.546875 0.5 
Q 14.5 2.203125 11.390625 5.453125 
Q 8.296875 8.703125 6.4375 13.453125 
Q 4.59375 18.203125 4.59375 24.203125 
Q 4.59375 30.296875 6.4375 35.046875 
Q 8.296875 39.796875 11.390625 43.09375 
Q 14.5 46.40625 18.546875 48.09375 
Q 22.59375 49.796875 27.09375 49.796875 
Q 31.59375 49.796875 35.640625 48.09375 
Q 39.703125 46.40625 42.796875 43.09375 
Q 45.90625 39.796875 47.75 35.046875 
Q 49.59375 30.296875 49.59375 24.203125 
Q 49.59375 18.203125 47.75 13.453125 
Q 45.90625 8.703125 42.796875 5.453125 
Q 39.703125 2.203125 35.640625 0.5 
Q 31.59375 -1.203125 27.09375 -1.203125 
z
M 27.09375 5.59375 
Q 30.203125 5.59375 32.796875 6.9375 
Q 35.40625 8.296875 37.25 10.75 
Q 39.09375 13.203125 40.09375 16.59375 
Q 41.09375 20 41.09375 24.203125 
Q 41.09375 28.40625 40.09375 31.84375 
Q 39.09375 35.296875 37.25 37.796875 
Q 35.40625 40.296875 32.796875 41.640625 
Q 30.203125 43 27.09375 43 
Q 24 43 21.390625 41.640625 
Q 18.796875 40.296875 16.9375 37.796875 
Q 15.09375 35.296875 14.09375 31.84375 
Q 13.09375 28.40625 13.09375 24.203125 
Q 13.09375 20 14.09375 16.59375 
Q 15.09375 13.203125 16.9375 10.75 
Q 18.796875 8.296875 21.390625 6.9375 
Q 24 5.59375 27.09375 5.59375 
z
" id="SourceSansPro-Regular-111"/>
       <path d="M 9.59375 0 
L 9.59375 41.90625 
L 3 41.90625 
L 3 48.09375 
L 9.59375 48.59375 
L 9.59375 56.296875 
Q 9.59375 63.796875 13.046875 68.09375 
Q 16.5 72.40625 23.796875 72.40625 
Q 26.09375 72.40625 28.140625 71.953125 
Q 30.203125 71.5 31.90625 70.796875 
L 30.09375 64.5 
Q 27.40625 65.703125 24.59375 65.703125 
Q 17.796875 65.703125 17.796875 56.296875 
L 17.796875 48.59375 
L 28.09375 48.59375 
L 28.09375 41.90625 
L 17.796875 41.90625 
L 17.796875 0 
z
" id="SourceSansPro-Regular-102"/>
       <path d="M 6.5 42.40625 
L 7.59375 48.09375 
L 14.09375 48.59375 
L 15.703125 56.703125 
Q 17.203125 64.09375 21.046875 68.25 
Q 24.90625 72.40625 31.09375 72.40625 
Q 33.703125 72.40625 35.796875 71.75 
Q 37.90625 71.09375 39.703125 70 
L 37 64.5 
Q 35.90625 65.203125 34.59375 65.703125 
Q 33.296875 66.203125 31.59375 66.203125 
Q 28.296875 66.203125 26.25 63.703125 
Q 24.203125 61.203125 23.40625 56.90625 
L 21.703125 48.59375 
L 31.5 48.59375 
L 30.296875 42.40625 
L 20.40625 42.40625 
L 11.90625 0 
L 4.296875 0 
L 12.796875 42.40625 
z
" id="SourceSansPro-Italic-102"/>
      </defs>
      <use transform="translate(0 0.59375)" xlink:href="#SourceSansPro-Regular-118"/>
      <use transform="translate(46.699997 0.59375)" xlink:href="#SourceSansPro-Regular-97"/>
      <use transform="translate(97.099991 0.59375)" xlink:href="#SourceSansPro-Regular-108"/>
      <use transform="translate(122.599976 0.59375)" xlink:href="#SourceSansPro-Regular-117"/>
      <use transform="translate(176.999969 0.59375)" xlink:href="#SourceSansPro-Regular-101"/>
      <use transform="translate(226.59996 0.59375)" xlink:href="#SourceSansPro-Regular-32"/>
      <use transform="translate(246.599945 0.59375)" xlink:href="#SourceSansPro-Regular-111"/>
      <use transform="translate(300.799942 0.59375)" xlink:href="#SourceSansPro-Regular-102"/>
      <use transform="translate(329.999939 0.59375)" xlink:href="#SourceSansPro-Regular-32"/>
      <use transform="translate(349.999924 0.59375)" xlink:href="#SourceSansPro-Italic-102"/>
     </g>
    </g>
   </g>
   <g id="matplotlib.axis_2">
    <g id="ytick_1">
     <g id="line2d_9">
      <defs>
       <path d="M 0 0 
L -3.5 0 
" id="m7c620ec5f7" style="stroke:#000000;stroke-width:0.8;"/>
      </defs>
      <g>
       <use style="stroke:#000000;stroke-width:0.8;" x="43.58" xlink:href="#m7c620ec5f7" y="237.568333"/>
      </g>
     </g>
     <g id="text_10">
      <!-- 0.0 -->
      <g transform="translate(24.14875 241.12849)scale(0.1 -0.1)">
       <use xlink:href="#SourceSansPro-Regular-48"/>
       <use x="49.699997" xlink:href="#SourceSansPro-Regular-46"/>
       <use x="74.599991" xlink:href="#SourceSansPro-Regular-48"/>
      </g>
     </g>
    </g>
    <g id="ytick_2">
     <g id="line2d_10">
      <g>
       <use style="stroke:#000000;stroke-width:0.8;" x="43.58" xlink:href="#m7c620ec5f7" y="200.801667"/>
      </g>
     </g>
     <g id="text_11">
      <!-- 0.2 -->
      <g transform="translate(24.14875 204.361823)scale(0.1 -0.1)">
       <defs>
        <path d="M 4 0 
L 4 4.90625 
Q 11.203125 12.09375 16.796875 17.890625 
Q 22.40625 23.703125 26.203125 28.640625 
Q 30 33.59375 32 37.75 
Q 34 41.90625 34 45.796875 
Q 34 51.296875 31 54.796875 
Q 28 58.296875 21.90625 58.296875 
Q 17.90625 58.296875 14.5 56.046875 
Q 11.09375 53.796875 8.296875 50.59375 
L 3.59375 55.296875 
Q 7.59375 59.703125 12.09375 62.34375 
Q 16.59375 65 22.90625 65 
Q 31.796875 65 36.890625 59.84375 
Q 42 54.703125 42 46.203125 
Q 42 41.703125 40.046875 37.140625 
Q 38.09375 32.59375 34.640625 27.75 
Q 31.203125 22.90625 26.453125 17.65625 
Q 21.703125 12.40625 16 6.5 
Q 18.59375 6.703125 21.390625 6.890625 
Q 24.203125 7.09375 26.703125 7.09375 
L 45.203125 7.09375 
L 45.203125 0 
z
" id="SourceSansPro-Regular-50"/>
       </defs>
       <use xlink:href="#SourceSansPro-Regular-48"/>
       <use x="49.699997" xlink:href="#SourceSansPro-Regular-46"/>
       <use x="74.599991" xlink:href="#SourceSansPro-Regular-50"/>
      </g>
     </g>
    </g>
    <g id="ytick_3">
     <g id="line2d_11">
      <g>
       <use style="stroke:#000000;stroke-width:0.8;" x="43.58" xlink:href="#m7c620ec5f7" y="164.035"/>
      </g>
     </g>
     <g id="text_12">
      <!-- 0.4 -->
      <g transform="translate(24.14875 167.595156)scale(0.1 -0.1)">
       <use xlink:href="#SourceSansPro-Regular-48"/>
       <use x="49.699997" xlink:href="#SourceSansPro-Regular-46"/>
       <use x="74.599991" xlink:href="#SourceSansPro-Regular-52"/>
      </g>
     </g>
    </g>
    <g id="ytick_4">
     <g id="line2d_12">
      <g>
       <use style="stroke:#000000;stroke-width:0.8;" x="43.58" xlink:href="#m7c620ec5f7" y="127.268333"/>
      </g>
     </g>
     <g id="text_13">
      <!-- 0.6 -->
      <g transform="translate(24.14875 130.82849)scale(0.1 -0.1)">
       <use xlink:href="#SourceSansPro-Regular-48"/>
       <use x="49.699997" xlink:href="#SourceSansPro-Regular-46"/>
       <use x="74.599991" xlink:href="#SourceSansPro-Regular-54"/>
      </g>
     </g>
    </g>
    <g id="ytick_5">
     <g id="line2d_13">
      <g>
       <use style="stroke:#000000;stroke-width:0.8;" x="43.58" xlink:href="#m7c620ec5f7" y="90.501667"/>
      </g>
     </g>
     <g id="text_14">
      <!-- 0.8 -->
      <g transform="translate(24.14875 94.061823)scale(0.1 -0.1)">
       <use xlink:href="#SourceSansPro-Regular-48"/>
       <use x="49.699997" xlink:href="#SourceSansPro-Regular-46"/>
       <use x="74.599991" xlink:href="#SourceSansPro-Regular-56"/>
      </g>
     </g>
    </g>
    <g id="ytick_6">
     <g id="line2d_14">
      <g>
       <use style="stroke:#000000;stroke-width:0.8;" x="43.58" xlink:href="#m7c620ec5f7" y="53.735"/>
      </g>
     </g>
     <g id="text_15">
      <!-- 1.0 -->
      <g transform="translate(24.14875 57.295156)scale(0.1 -0.1)">
       <use xlink:href="#SourceSansPro-Regular-49"/>
       <use x="49.699997" xlink:href="#SourceSansPro-Regular-46"/>
       <use x="74.599991" xlink:href="#SourceSansPro-Regular-48"/>
      </g>
     </g>
    </g>
    <g id="text_16">
     <!-- Relative intensity -->
     <g transform="translate(18.058125 172.534219)rotate(-90)scale(0.1 -0.1)">
      <defs>
       <path d="M 9 0 
L 9 65.59375 
L 29.5 65.59375 
Q 34.5 65.59375 38.75 64.640625 
Q 43 63.703125 46.046875 61.5 
Q 49.09375 59.296875 50.796875 55.796875 
Q 52.5 52.296875 52.5 47.203125 
Q 52.5 39.5 48.5 34.890625 
Q 44.5 30.296875 37.703125 28.59375 
L 54.40625 0 
L 45 0 
L 29.203125 27.703125 
L 17.296875 27.703125 
L 17.296875 0 
z
M 17.296875 34.5 
L 28.296875 34.5 
Q 36 34.5 40.09375 37.640625 
Q 44.203125 40.796875 44.203125 47.203125 
Q 44.203125 53.703125 40.09375 56.296875 
Q 36 58.90625 28.296875 58.90625 
L 17.296875 58.90625 
z
" id="SourceSansPro-Regular-82"/>
       <path d="M 23.5 -1.203125 
Q 19.59375 -1.203125 16.9375 0 
Q 14.296875 1.203125 12.640625 3.296875 
Q 11 5.40625 10.296875 8.40625 
Q 9.59375 11.40625 9.59375 15 
L 9.59375 41.90625 
L 2.40625 41.90625 
L 2.40625 48.09375 
L 10 48.59375 
L 11 62.203125 
L 17.90625 62.203125 
L 17.90625 48.59375 
L 31 48.59375 
L 31 41.90625 
L 17.90625 41.90625 
L 17.90625 14.90625 
Q 17.90625 10.40625 19.546875 7.953125 
Q 21.203125 5.5 25.40625 5.5 
Q 26.703125 5.5 28.203125 5.890625 
Q 29.703125 6.296875 30.90625 6.796875 
L 32.5 0.59375 
Q 30.5 -0.09375 28.140625 -0.640625 
Q 25.796875 -1.203125 23.5 -1.203125 
z
" id="SourceSansPro-Regular-116"/>
       <path d="M 8.203125 0 
L 8.203125 48.59375 
L 16.40625 48.59375 
L 16.40625 0 
z
M 12.40625 58.59375 
Q 10 58.59375 8.34375 60.09375 
Q 6.703125 61.59375 6.703125 63.90625 
Q 6.703125 66.296875 8.34375 67.75 
Q 10 69.203125 12.40625 69.203125 
Q 14.796875 69.203125 16.4375 67.75 
Q 18.09375 66.296875 18.09375 63.90625 
Q 18.09375 61.59375 16.4375 60.09375 
Q 14.796875 58.59375 12.40625 58.59375 
z
" id="SourceSansPro-Regular-105"/>
       <path d="M 8.203125 0 
L 8.203125 48.59375 
L 15 48.59375 
L 15.703125 41.59375 
L 16 41.59375 
Q 19.5 45.09375 23.34375 47.4375 
Q 27.203125 49.796875 32.296875 49.796875 
Q 40 49.796875 43.546875 45 
Q 47.09375 40.203125 47.09375 30.796875 
L 47.09375 0 
L 38.90625 0 
L 38.90625 29.703125 
Q 38.90625 36.59375 36.703125 39.640625 
Q 34.5 42.703125 29.703125 42.703125 
Q 25.90625 42.703125 23 40.796875 
Q 20.09375 38.90625 16.40625 35.203125 
L 16.40625 0 
z
" id="SourceSansPro-Regular-110"/>
       <path d="M 20.90625 -1.203125 
Q 15.703125 -1.203125 11 0.6875 
Q 6.296875 2.59375 2.796875 5.5 
L 6.90625 11 
Q 10.09375 8.40625 13.4375 6.796875 
Q 16.796875 5.203125 21.203125 5.203125 
Q 26 5.203125 28.390625 7.390625 
Q 30.796875 9.59375 30.796875 12.796875 
Q 30.796875 14.703125 29.796875 16.09375 
Q 28.796875 17.5 27.25 18.546875 
Q 25.703125 19.59375 23.703125 20.390625 
Q 21.703125 21.203125 19.703125 22 
Q 17.09375 22.90625 14.5 24.046875 
Q 11.90625 25.203125 9.84375 26.84375 
Q 7.796875 28.5 6.5 30.703125 
Q 5.203125 32.90625 5.203125 36 
Q 5.203125 38.90625 6.34375 41.453125 
Q 7.5 44 9.640625 45.84375 
Q 11.796875 47.703125 14.890625 48.75 
Q 18 49.796875 21.90625 49.796875 
Q 26.5 49.796875 30.34375 48.1875 
Q 34.203125 46.59375 37 44.296875 
L 33.09375 39.09375 
Q 30.59375 41 27.890625 42.203125 
Q 25.203125 43.40625 22 43.40625 
Q 17.40625 43.40625 15.25 41.296875 
Q 13.09375 39.203125 13.09375 36.40625 
Q 13.09375 34.703125 14 33.453125 
Q 14.90625 32.203125 16.40625 31.25 
Q 17.90625 30.296875 19.84375 29.546875 
Q 21.796875 28.796875 23.90625 28 
Q 26.5 27 29.140625 25.890625 
Q 31.796875 24.796875 33.890625 23.140625 
Q 36 21.5 37.34375 19.09375 
Q 38.703125 16.703125 38.703125 13.296875 
Q 38.703125 10.296875 37.546875 7.6875 
Q 36.40625 5.09375 34.15625 3.09375 
Q 31.90625 1.09375 28.546875 -0.046875 
Q 25.203125 -1.203125 20.90625 -1.203125 
z
" id="SourceSansPro-Regular-115"/>
       <path d="M 9 -20.90625 
Q 7.296875 -20.90625 5.890625 -20.65625 
Q 4.5 -20.40625 3.296875 -19.90625 
L 4.90625 -13.40625 
Q 5.703125 -13.59375 6.703125 -13.84375 
Q 7.703125 -14.09375 8.59375 -14.09375 
Q 12.796875 -14.09375 15.4375 -11.140625 
Q 18.09375 -8.203125 19.59375 -3.703125 
L 20.703125 -0.09375 
L 1.203125 48.59375 
L 9.703125 48.59375 
L 19.59375 21.703125 
Q 20.703125 18.5 21.953125 14.953125 
Q 23.203125 11.40625 24.296875 8 
L 24.703125 8 
Q 25.796875 11.296875 26.796875 14.890625 
Q 27.796875 18.5 28.796875 21.703125 
L 37.5 48.59375 
L 45.5 48.59375 
L 27.203125 -4 
Q 25.90625 -7.59375 24.296875 -10.6875 
Q 22.703125 -13.796875 20.5 -16.046875 
Q 18.296875 -18.296875 15.5 -19.59375 
Q 12.703125 -20.90625 9 -20.90625 
z
" id="SourceSansPro-Regular-121"/>
      </defs>
      <use xlink:href="#SourceSansPro-Regular-82"/>
      <use x="56.899994" xlink:href="#SourceSansPro-Regular-101"/>
      <use x="106.499985" xlink:href="#SourceSansPro-Regular-108"/>
      <use x="131.999969" xlink:href="#SourceSansPro-Regular-97"/>
      <use x="182.399963" xlink:href="#SourceSansPro-Regular-116"/>
      <use x="216.199951" xlink:href="#SourceSansPro-Regular-105"/>
      <use x="240.799942" xlink:href="#SourceSansPro-Regular-118"/>
      <use x="287.499939" xlink:href="#SourceSansPro-Regular-101"/>
      <use x="337.09993" xlink:href="#SourceSansPro-Regular-32"/>
      <use x="357.099915" xlink:href="#SourceSansPro-Regular-105"/>
      <use x="381.699905" xlink:href="#SourceSansPro-Regular-110"/>
      <use x="436.399902" xlink:href="#SourceSansPro-Regular-116"/>
      <use x="470.19989" xlink:href="#SourceSansPro-Regular-101"/>
      <use x="519.799881" xlink:href="#SourceSansPro-Regular-110"/>
      <use x="574.499878" xlink:href="#SourceSansPro-Regular-115"/>
      <use x="616.399872" xlink:href="#SourceSansPro-Regular-105"/>
      <use x="640.999863" xlink:href="#SourceSansPro-Regular-116"/>
      <use x="674.79985" xlink:href="#SourceSansPro-Regular-121"/>
     </g>
    </g>
   </g>
   <g id="line2d_15">
    <path clip-path="url(#p78a3ddc89d)" d="M 88.052857 54.018788 
L 120.995714 74.55566 
L 153.938571 92.30234 
L 186.881429 110.202101 
L 219.824286 128.427181 
L 252.767143 145.102169 
L 285.71 162.679136 
" style="fill:none;stroke:#4c72b0;stroke-linecap:square;stroke-width:1.5;"/>
    <defs>
     <path d="M 0 3 
C 0.795609 3 1.55874 2.683901 2.12132 2.12132 
C 2.683901 1.55874 3 0.795609 3 0 
C 3 -0.795609 2.683901 -1.55874 2.12132 -2.12132 
C 1.55874 -2.683901 0.795609 -3 0 -3 
C -0.795609 -3 -1.55874 -2.683901 -2.12132 -2.12132 
C -2.683901 -1.55874 -3 -0.795609 -3 0 
C -3 0.795609 -2.683901 1.55874 -2.12132 2.12132 
C -1.55874 2.683901 -0.795609 3 0 3 
z
" id="m8c4bb52685" style="stroke:#4c72b0;"/>
    </defs>
    <g clip-path="url(#p78a3ddc89d)">
     <use style="fill:#4c72b0;stroke:#4c72b0;" x="88.052857" xlink:href="#m8c4bb52685" y="54.018788"/>
     <use style="fill:#4c72b0;stroke:#4c72b0;" x="120.995714" xlink:href="#m8c4bb52685" y="74.55566"/>
     <use style="fill:#4c72b0;stroke:#4c72b0;" x="153.938571" xlink:href="#m8c4bb52685" y="92.30234"/>
     <use style="fill:#4c72b0;stroke:#4c72b0;" x="186.881429" xlink:href="#m8c4bb52685" y="110.202101"/>
     <use style="fill:#4c72b0;stroke:#4c72b0;" x="219.824286" xlink:href="#m8c4bb52685" y="128.427181"/>
     <use style="fill:#4c72b0;stroke:#4c72b0;" x="252.767143" xlink:href="#m8c4bb52685" y="145.102169"/>
     <use style="fill:#4c72b0;stroke:#4c72b0;" x="285.71" xlink:href="#m8c4bb52685" y="162.679136"/>
    </g>
   </g>
   <g id="line2d_16">
    <path clip-path="url(#p78a3ddc89d)" d="M 88.052857 186.262191 
L 120.995714 136.670919 
L 153.938571 118.541292 
L 186.881429 105.664971 
L 219.824286 96.108682 
L 252.767143 88.040534 
L 285.71 82.392368 
" style="fill:none;stroke:#dd8452;stroke-linecap:square;stroke-width:1.5;"/>
    <defs>
     <path d="M 0 3 
C 0.795609 3 1.55874 2.683901 2.12132 2.12132 
C 2.683901 1.55874 3 0.795609 3 0 
C 3 -0.795609 2.683901 -1.55874 2.12132 -2.12132 
C 1.55874 -2.683901 0.795609 -3 0 -3 
C -0.795609 -3 -1.55874 -2.683901 -2.12132 -2.12132 
C -2.683901 -1.55874 -3 -0.795609 -3 0 
C -3 0.795609 -2.683901 1.55874 -2.12132 2.12132 
C -1.55874 2.683901 -0.795609 3 0 3 
z
" id="mf91a9c3255" style="stroke:#dd8452;"/>
    </defs>
    <g clip-path="url(#p78a3ddc89d)">
     <use style="fill:#dd8452;stroke:#dd8452;" x="88.052857" xlink:href="#mf91a9c3255" y="186.262191"/>
     <use style="fill:#dd8452;stroke:#dd8452;" x="120.995714" xlink:href="#mf91a9c3255" y="136.670919"/>
     <use style="fill:#dd8452;stroke:#dd8452;" x="153.938571" xlink:href="#mf91a9c3255" y="118.541292"/>
     <use style="fill:#dd8452;stroke:#dd8452;" x="186.881429" xlink:href="#mf91a9c3255" y="105.664971"/>
     <use style="fill:#dd8452;stroke:#dd8452;" x="219.824286" xlink:href="#mf91a9c3255" y="96.108682"/>
     <use style="fill:#dd8452;stroke:#dd8452;" x="252.767143" xlink:href="#mf91a9c3255" y="88.040534"/>
     <use style="fill:#dd8452;stroke:#dd8452;" x="285.71" xlink:href="#mf91a9c3255" y="82.392368"/>
    </g>
   </g>
   <g id="line2d_17">
    <path clip-path="url(#p78a3ddc89d)" d="M 88.052857 65.623523 
L 120.995714 67.599696 
L 153.938571 68.360978 
L 186.881429 69.137969 
L 219.824286 69.833701 
L 252.767143 68.867792 
L 285.71 69.799243 
" style="fill:none;stroke:#55a868;stroke-linecap:square;stroke-width:1.5;"/>
    <defs>
     <path d="M 0 3 
C 0.795609 3 1.55874 2.683901 2.12132 2.12132 
C 2.683901 1.55874 3 0.795609 3 0 
C 3 -0.795609 2.683901 -1.55874 2.12132 -2.12132 
C 1.55874 -2.683901 0.795609 -3 0 -3 
C -0.795609 -3 -1.55874 -2.683901 -2.12132 -2.12132 
C -2.683901 -1.55874 -3 -0.795609 -3 0 
C -3 0.795609 -2.683901 1.55874 -2.12132 2.12132 
C -1.55874 2.683901 -0.795609 3 0 3 
z
" id="mbec898f537" style="stroke:#55a868;"/>
    </defs>
    <g clip-path="url(#p78a3ddc89d)">
     <use style="fill:#55a868;stroke:#55a868;" x="88.052857" xlink:href="#mbec898f537" y="65.623523"/>
     <use style="fill:#55a868;stroke:#55a868;" x="120.995714" xlink:href="#mbec898f537" y="67.599696"/>
     <use style="fill:#55a868;stroke:#55a868;" x="153.938571" xlink:href="#mbec898f537" y="68.360978"/>
     <use style="fill:#55a868;stroke:#55a868;" x="186.881429" xlink:href="#mbec898f537" y="69.137969"/>
     <use style="fill:#55a868;stroke:#55a868;" x="219.824286" xlink:href="#mbec898f537" y="69.833701"/>
     <use style="fill:#55a868;stroke:#55a868;" x="252.767143" xlink:href="#mbec898f537" y="68.867792"/>
     <use style="fill:#55a868;stroke:#55a868;" x="285.71" xlink:href="#mbec898f537" y="69.799243"/>
    </g>
   </g>
   <g id="line2d_18">
    <path clip-path="url(#p78a3ddc89d)" d="M 55.11 105.828646 
" style="fill:none;stroke:#4c72b0;stroke-linecap:square;stroke-width:1.5;"/>
    <g clip-path="url(#p78a3ddc89d)">
     <use style="fill:#4c72b0;stroke:#4c72b0;" x="55.11" xlink:href="#m8c4bb52685" y="105.828646"/>
    </g>
   </g>
   <g id="line2d_19">
    <path clip-path="url(#p78a3ddc89d)" d="M 43.58 105.828646 
L 297.24 105.828646 
" style="fill:none;stroke:#4c72b0;stroke-dasharray:1.85,0.8;stroke-dashoffset:0;stroke-width:0.5;"/>
   </g>
   <g id="line2d_20">
    <path clip-path="url(#p78a3ddc89d)" d="M 55.11 128.431265 
" style="fill:none;stroke:#dd8452;stroke-linecap:square;stroke-width:1.5;"/>
    <g clip-path="url(#p78a3ddc89d)">
     <use style="fill:#dd8452;stroke:#dd8452;" x="55.11" xlink:href="#mf91a9c3255" y="128.431265"/>
    </g>
   </g>
   <g id="line2d_21">
    <path clip-path="url(#p78a3ddc89d)" d="M 43.58 128.431265 
L 297.24 128.431265 
" style="fill:none;stroke:#dd8452;stroke-dasharray:1.85,0.8;stroke-dashoffset:0;stroke-width:0.5;"/>
   </g>
   <g id="line2d_22">
    <path clip-path="url(#p78a3ddc89d)" d="M 55.11 209.727937 
" style="fill:none;stroke:#55a868;stroke-linecap:square;stroke-width:1.5;"/>
    <g clip-path="url(#p78a3ddc89d)">
     <use style="fill:#55a868;stroke:#55a868;" x="55.11" xlink:href="#mbec898f537" y="209.727937"/>
    </g>
   </g>
   <g id="line2d_23">
    <path clip-path="url(#p78a3ddc89d)" d="M 43.58 209.727937 
L 297.24 209.727937 
" style="fill:none;stroke:#55a868;stroke-dasharray:1.85,0.8;stroke-dashoffset:0;stroke-width:0.5;"/>
   </g>
   <g id="patch_3">
    <path d="M 43.58 246.76 
L 43.58 26.16 
" style="fill:none;stroke:#000000;stroke-linecap:square;stroke-linejoin:miter;stroke-width:1.3;"/>
   </g>
   <g id="patch_4">
    <path d="M 297.24 246.76 
L 297.24 26.16 
" style="fill:none;stroke:#000000;stroke-linecap:square;stroke-linejoin:miter;stroke-width:1.3;"/>
   </g>
   <g id="patch_5">
    <path d="M 43.58 246.76 
L 297.24 246.76 
" style="fill:none;stroke:#000000;stroke-linecap:square;stroke-linejoin:miter;stroke-width:1.3;"/>
   </g>
   <g id="patch_6">
    <path d="M 43.58 26.16 
L 297.24 26.16 
" style="fill:none;stroke:#000000;stroke-linecap:square;stroke-linejoin:miter;stroke-width:1.3;"/>
   </g>
   <g id="text_17">
    <!-- (a) -->
    <g transform="translate(48.6532 42.252)scale(0.16 -0.16)">
     <defs>
      <path d="M 20.40625 -17.90625 
Q 14.09375 -7.59375 10.640625 3.5 
Q 7.203125 14.59375 7.203125 27.796875 
Q 7.203125 41 10.640625 52.09375 
Q 14.09375 63.203125 20.40625 73.5 
L 29.59375 69.703125 
Q 24.09375 59.90625 21.59375 49.203125 
Q 19.09375 38.5 19.09375 27.796875 
Q 19.09375 17.09375 21.59375 6.390625 
Q 24.09375 -4.296875 29.59375 -14.09375 
z
" id="SourceSansPro-Bold-40"/>
      <path d="M 19 -1.203125 
Q 15.59375 -1.203125 12.84375 -0.046875 
Q 10.09375 1.09375 8.1875 3.140625 
Q 6.296875 5.203125 5.25 7.890625 
Q 4.203125 10.59375 4.203125 13.796875 
Q 4.203125 21.59375 10.796875 26 
Q 17.40625 30.40625 32.09375 31.90625 
Q 31.90625 35.203125 30.15625 37.140625 
Q 28.40625 39.09375 24.296875 39.09375 
Q 21.09375 39.09375 17.9375 37.890625 
Q 14.796875 36.703125 11.203125 34.59375 
L 5.90625 44.296875 
Q 10.703125 47.203125 15.953125 49 
Q 21.203125 50.796875 27.09375 50.796875 
Q 36.703125 50.796875 41.75 45.34375 
Q 46.796875 39.90625 46.796875 28.40625 
L 46.796875 0 
L 34.796875 0 
L 33.796875 5.09375 
L 33.40625 5.09375 
Q 30.203125 2.296875 26.703125 0.546875 
Q 23.203125 -1.203125 19 -1.203125 
z
M 24 10.203125 
Q 26.5 10.203125 28.296875 11.296875 
Q 30.09375 12.40625 32.09375 14.40625 
L 32.09375 23.09375 
Q 24.296875 22 21.296875 19.890625 
Q 18.296875 17.796875 18.296875 14.90625 
Q 18.296875 12.5 19.84375 11.34375 
Q 21.40625 10.203125 24 10.203125 
z
" id="SourceSansPro-Bold-97"/>
      <path d="M 14 -17.90625 
L 4.796875 -14.09375 
Q 10.40625 -4.296875 12.90625 6.390625 
Q 15.40625 17.09375 15.40625 27.796875 
Q 15.40625 38.5 12.90625 49.203125 
Q 10.40625 59.90625 4.796875 69.703125 
L 14 73.5 
Q 20.296875 63.203125 23.75 52.09375 
Q 27.203125 41 27.203125 27.796875 
Q 27.203125 14.59375 23.75 3.5 
Q 20.296875 -7.59375 14 -17.90625 
z
" id="SourceSansPro-Bold-41"/>
     </defs>
     <use xlink:href="#SourceSansPro-Bold-40"/>
     <use x="34.399994" xlink:href="#SourceSansPro-Bold-97"/>
     <use x="87.099991" xlink:href="#SourceSansPro-Bold-41"/>
    </g>
   </g>
   <g id="text_18">
    <!-- NOAH-3 SSCc -->
    <g transform="translate(136.749062 20.16)scale(0.12 -0.12)">
     <defs>
      <path d="M 9 0 
L 9 65.59375 
L 17.59375 65.59375 
L 41.296875 24.40625 
L 48.40625 10.796875 
L 48.796875 10.796875 
Q 48.5 15.796875 48.140625 21.140625 
Q 47.796875 26.5 47.796875 31.703125 
L 47.796875 65.59375 
L 55.703125 65.59375 
L 55.703125 0 
L 47.09375 0 
L 23.296875 41.296875 
L 16.203125 54.796875 
L 15.796875 54.796875 
Q 16.203125 49.796875 16.546875 44.640625 
Q 16.90625 39.5 16.90625 34.296875 
L 16.90625 0 
z
" id="SourceSansPro-Regular-78"/>
      <path d="M 33.203125 -1.203125 
Q 27 -1.203125 21.84375 1.1875 
Q 16.703125 3.59375 13 8.046875 
Q 9.296875 12.5 7.25 18.84375 
Q 5.203125 25.203125 5.203125 33.09375 
Q 5.203125 41 7.25 47.25 
Q 9.296875 53.5 13 57.84375 
Q 16.703125 62.203125 21.84375 64.5 
Q 27 66.796875 33.203125 66.796875 
Q 39.40625 66.796875 44.546875 64.4375 
Q 49.703125 62.09375 53.453125 57.75 
Q 57.203125 53.40625 59.25 47.15625 
Q 61.296875 40.90625 61.296875 33.09375 
Q 61.296875 25.203125 59.25 18.84375 
Q 57.203125 12.5 53.453125 8.046875 
Q 49.703125 3.59375 44.546875 1.1875 
Q 39.40625 -1.203125 33.203125 -1.203125 
z
M 33.203125 6.09375 
Q 37.59375 6.09375 41.140625 8 
Q 44.703125 9.90625 47.25 13.453125 
Q 49.796875 17 51.1875 21.953125 
Q 52.59375 26.90625 52.59375 33.09375 
Q 52.59375 39.203125 51.1875 44.09375 
Q 49.796875 49 47.25 52.390625 
Q 44.703125 55.796875 41.140625 57.640625 
Q 37.59375 59.5 33.203125 59.5 
Q 28.796875 59.5 25.25 57.640625 
Q 21.703125 55.796875 19.140625 52.390625 
Q 16.59375 49 15.1875 44.09375 
Q 13.796875 39.203125 13.796875 33.09375 
Q 13.796875 26.90625 15.1875 21.953125 
Q 16.59375 17 19.140625 13.453125 
Q 21.703125 9.90625 25.25 8 
Q 28.796875 6.09375 33.203125 6.09375 
z
" id="SourceSansPro-Regular-79"/>
      <path d="M 9 0 
L 9 65.59375 
L 17.296875 65.59375 
L 17.296875 38.09375 
L 47.796875 38.09375 
L 47.796875 65.59375 
L 56.203125 65.59375 
L 56.203125 0 
L 47.796875 0 
L 47.796875 30.90625 
L 17.296875 30.90625 
L 17.296875 0 
z
" id="SourceSansPro-Regular-72"/>
      <path d="M 4.09375 21.90625 
L 4.09375 28.203125 
L 27.09375 28.203125 
L 27.09375 21.90625 
z
" id="SourceSansPro-Regular-45"/>
      <path d="M 23.59375 -1.203125 
Q 19.796875 -1.203125 16.640625 -0.453125 
Q 13.5 0.296875 10.890625 1.546875 
Q 8.296875 2.796875 6.25 4.390625 
Q 4.203125 6 2.59375 7.796875 
L 6.796875 13.203125 
Q 9.703125 10.203125 13.546875 7.890625 
Q 17.40625 5.59375 23.09375 5.59375 
Q 28.90625 5.59375 32.59375 8.75 
Q 36.296875 11.90625 36.296875 17.296875 
Q 36.296875 20.09375 35.25 22.4375 
Q 34.203125 24.796875 31.796875 26.5 
Q 29.40625 28.203125 25.5 29.09375 
Q 21.59375 30 15.90625 30 
L 15.90625 36.296875 
Q 21 36.296875 24.453125 37.1875 
Q 27.90625 38.09375 30.046875 39.6875 
Q 32.203125 41.296875 33.09375 43.5 
Q 34 45.703125 34 48.203125 
Q 34 52.90625 31.046875 55.59375 
Q 28.09375 58.296875 23 58.296875 
Q 19 58.296875 15.640625 56.5 
Q 12.296875 54.703125 9.40625 51.796875 
L 5 57 
Q 8.703125 60.5 13.140625 62.75 
Q 17.59375 65 23.296875 65 
Q 27.5 65 31 63.890625 
Q 34.5 62.796875 37.046875 60.75 
Q 39.59375 58.703125 41 55.703125 
Q 42.40625 52.703125 42.40625 48.796875 
Q 42.40625 43 39.203125 39.296875 
Q 36 35.59375 30.796875 33.59375 
L 30.796875 33.203125 
Q 33.703125 32.5 36.203125 31.140625 
Q 38.703125 29.796875 40.59375 27.75 
Q 42.5 25.703125 43.546875 23 
Q 44.59375 20.296875 44.59375 17 
Q 44.59375 12.796875 42.9375 9.390625 
Q 41.296875 6 38.4375 3.640625 
Q 35.59375 1.296875 31.796875 0.046875 
Q 28 -1.203125 23.59375 -1.203125 
z
" id="SourceSansPro-Regular-51"/>
      <path d="M 27.203125 -1.203125 
Q 20.296875 -1.203125 14.390625 1.390625 
Q 8.5 4 4.203125 8.5 
L 9.203125 14.296875 
Q 12.703125 10.59375 17.453125 8.34375 
Q 22.203125 6.09375 27.296875 6.09375 
Q 33.796875 6.09375 37.390625 9.046875 
Q 41 12 41 16.796875 
Q 41 19.296875 40.140625 21.046875 
Q 39.296875 22.796875 37.84375 24.046875 
Q 36.40625 25.296875 34.40625 26.296875 
Q 32.40625 27.296875 30.09375 28.40625 
L 20.703125 32.5 
Q 18.40625 33.5 16 34.890625 
Q 13.59375 36.296875 11.6875 38.296875 
Q 9.796875 40.296875 8.59375 43.046875 
Q 7.40625 45.796875 7.40625 49.40625 
Q 7.40625 53.09375 8.953125 56.296875 
Q 10.5 59.5 13.25 61.84375 
Q 16 64.203125 19.75 65.5 
Q 23.5 66.796875 28 66.796875 
Q 33.90625 66.796875 38.90625 64.546875 
Q 43.90625 62.296875 47.40625 58.703125 
L 42.90625 53.296875 
Q 39.90625 56.203125 36.25 57.84375 
Q 32.59375 59.5 28 59.5 
Q 22.5 59.5 19.140625 56.953125 
Q 15.796875 54.40625 15.796875 49.90625 
Q 15.796875 47.5 16.75 45.84375 
Q 17.703125 44.203125 19.296875 42.953125 
Q 20.90625 41.703125 22.796875 40.75 
Q 24.703125 39.796875 26.703125 39 
L 36 35 
Q 38.796875 33.796875 41.296875 32.25 
Q 43.796875 30.703125 45.59375 28.640625 
Q 47.40625 26.59375 48.453125 23.84375 
Q 49.5 21.09375 49.5 17.5 
Q 49.5 13.59375 47.953125 10.1875 
Q 46.40625 6.796875 43.5 4.25 
Q 40.59375 1.703125 36.5 0.25 
Q 32.40625 -1.203125 27.203125 -1.203125 
z
" id="SourceSansPro-Regular-83"/>
      <path d="M 33.796875 -1.203125 
Q 27.59375 -1.203125 22.390625 1.09375 
Q 17.203125 3.40625 13.34375 7.75 
Q 9.5 12.09375 7.34375 18.4375 
Q 5.203125 24.796875 5.203125 32.796875 
Q 5.203125 40.703125 7.390625 47 
Q 9.59375 53.296875 13.5 57.6875 
Q 17.40625 62.09375 22.703125 64.4375 
Q 28 66.796875 34.296875 66.796875 
Q 40.296875 66.796875 44.84375 64.34375 
Q 49.40625 61.90625 52.296875 58.703125 
L 47.796875 53.296875 
Q 45.203125 56.09375 41.890625 57.796875 
Q 38.59375 59.5 34.40625 59.5 
Q 29.703125 59.5 25.890625 57.640625 
Q 22.09375 55.796875 19.390625 52.34375 
Q 16.703125 48.90625 15.25 44 
Q 13.796875 39.09375 13.796875 33 
Q 13.796875 26.796875 15.25 21.84375 
Q 16.703125 16.90625 19.296875 13.40625 
Q 21.90625 9.90625 25.65625 8 
Q 29.40625 6.09375 34.09375 6.09375 
Q 38.90625 6.09375 42.5 8.046875 
Q 46.09375 10 49.296875 13.5 
L 53.90625 8.296875 
Q 50 3.796875 45.09375 1.296875 
Q 40.203125 -1.203125 33.796875 -1.203125 
z
" id="SourceSansPro-Regular-67"/>
      <path d="M 27.40625 -1.203125 
Q 22.59375 -1.203125 18.390625 0.5 
Q 14.203125 2.203125 11.140625 5.453125 
Q 8.09375 8.703125 6.34375 13.453125 
Q 4.59375 18.203125 4.59375 24.203125 
Q 4.59375 30.296875 6.5 35.046875 
Q 8.40625 39.796875 11.59375 43.09375 
Q 14.796875 46.40625 19.046875 48.09375 
Q 23.296875 49.796875 28 49.796875 
Q 32.796875 49.796875 36.1875 48.09375 
Q 39.59375 46.40625 42.203125 44.09375 
L 38 38.703125 
Q 35.90625 40.59375 33.546875 41.796875 
Q 31.203125 43 28.296875 43 
Q 25 43 22.203125 41.640625 
Q 19.40625 40.296875 17.40625 37.796875 
Q 15.40625 35.296875 14.25 31.84375 
Q 13.09375 28.40625 13.09375 24.203125 
Q 13.09375 20 14.1875 16.59375 
Q 15.296875 13.203125 17.25 10.75 
Q 19.203125 8.296875 22 6.9375 
Q 24.796875 5.59375 28.09375 5.59375 
Q 31.5 5.59375 34.34375 7.046875 
Q 37.203125 8.5 39.5 10.5 
L 43.09375 5 
Q 39.796875 2.09375 35.796875 0.4375 
Q 31.796875 -1.203125 27.40625 -1.203125 
z
" id="SourceSansPro-Regular-99"/>
     </defs>
     <use xlink:href="#SourceSansPro-Regular-78"/>
     <use x="64.699997" xlink:href="#SourceSansPro-Regular-79"/>
     <use x="131.099991" xlink:href="#SourceSansPro-Regular-65"/>
     <use x="185.499985" xlink:href="#SourceSansPro-Regular-72"/>
     <use x="250.699982" xlink:href="#SourceSansPro-Regular-45"/>
     <use x="281.799973" xlink:href="#SourceSansPro-Regular-51"/>
     <use x="331.499969" xlink:href="#SourceSansPro-Regular-32"/>
     <use x="351.499954" xlink:href="#SourceSansPro-Regular-83"/>
     <use x="404.899948" xlink:href="#SourceSansPro-Regular-83"/>
     <use x="458.299942" xlink:href="#SourceSansPro-Regular-67"/>
     <use x="515.399933" xlink:href="#SourceSansPro-Regular-99"/>
    </g>
   </g>
   <g id="legend_1">
    <g id="patch_7">
     <path d="M 222.088437 241.76 
L 290.24 241.76 
Q 292.24 241.76 292.24 239.76 
L 292.24 198.249063 
Q 292.24 196.249063 290.24 196.249063 
L 222.088437 196.249063 
Q 220.088437 196.249063 220.088437 198.249063 
L 220.088437 239.76 
Q 220.088437 241.76 222.088437 241.76 
z
" style="fill:#ffffff;opacity:0.8;stroke:#cccccc;stroke-linejoin:miter;"/>
    </g>
    <g id="line2d_24">
     <path d="M 224.088437 203.869375 
L 244.088437 203.869375 
" style="fill:none;stroke:#4c72b0;stroke-linecap:square;stroke-width:1.5;"/>
    </g>
    <g id="line2d_25">
     <g>
      <use style="fill:#4c72b0;stroke:#4c72b0;" x="234.088437" xlink:href="#m8c4bb52685" y="203.869375"/>
     </g>
    </g>
    <g id="text_19">
     <!-- HSQC #1 -->
     <g transform="translate(252.088437 207.369375)scale(0.1 -0.1)">
      <defs>
       <path d="M 33.203125 5.703125 
Q 37.59375 5.703125 41.140625 7.59375 
Q 44.703125 9.5 47.25 13.09375 
Q 49.796875 16.703125 51.1875 21.75 
Q 52.59375 26.796875 52.59375 33.09375 
Q 52.59375 39.203125 51.1875 44.09375 
Q 49.796875 49 47.25 52.390625 
Q 44.703125 55.796875 41.140625 57.640625 
Q 37.59375 59.5 33.203125 59.5 
Q 28.796875 59.5 25.25 57.640625 
Q 21.703125 55.796875 19.140625 52.390625 
Q 16.59375 49 15.1875 44.09375 
Q 13.796875 39.203125 13.796875 33.09375 
Q 13.796875 26.796875 15.1875 21.75 
Q 16.59375 16.703125 19.140625 13.09375 
Q 21.703125 9.5 25.25 7.59375 
Q 28.796875 5.703125 33.203125 5.703125 
z
M 53.296875 -16.5 
Q 48.796875 -16.5 44.9375 -15.34375 
Q 41.09375 -14.203125 38.046875 -12.09375 
Q 35 -10 32.75 -7.140625 
Q 30.5 -4.296875 29.09375 -0.90625 
Q 23.703125 -0.203125 19.296875 2.5 
Q 14.90625 5.203125 11.75 9.59375 
Q 8.59375 14 6.890625 19.953125 
Q 5.203125 25.90625 5.203125 33.09375 
Q 5.203125 41 7.25 47.25 
Q 9.296875 53.5 13 57.84375 
Q 16.703125 62.203125 21.84375 64.5 
Q 27 66.796875 33.203125 66.796875 
Q 39.40625 66.796875 44.546875 64.4375 
Q 49.703125 62.09375 53.453125 57.75 
Q 57.203125 53.40625 59.25 47.15625 
Q 61.296875 40.90625 61.296875 33.09375 
Q 61.296875 26 59.640625 20.140625 
Q 58 14.296875 54.953125 9.9375 
Q 51.90625 5.59375 47.59375 2.84375 
Q 43.296875 0.09375 38.09375 -0.796875 
Q 40.40625 -5.203125 44.59375 -7.34375 
Q 48.796875 -9.5 54.203125 -9.5 
Q 56.40625 -9.5 58.046875 -9.25 
Q 59.703125 -9 61.09375 -8.59375 
L 62.703125 -15 
Q 61.203125 -15.59375 58.703125 -16.046875 
Q 56.203125 -16.5 53.296875 -16.5 
z
" id="SourceSansPro-Regular-81"/>
       <path d="M 9 0 
L 11.5 20.40625 
L 3.5 20.40625 
L 3.5 26.09375 
L 12.203125 26.09375 
L 14 40.90625 
L 5.5 40.90625 
L 5.5 46.703125 
L 14.703125 46.703125 
L 17 65 
L 22.296875 65 
L 20 46.703125 
L 33.296875 46.703125 
L 35.703125 65 
L 41 65 
L 38.59375 46.703125 
L 46.703125 46.703125 
L 46.703125 40.90625 
L 38 40.90625 
L 36.203125 26.09375 
L 44.703125 26.09375 
L 44.703125 20.40625 
L 35.5 20.40625 
L 33 0 
L 27.703125 0 
L 30.09375 20.40625 
L 16.90625 20.40625 
L 14.40625 0 
z
M 17.59375 26.09375 
L 30.796875 26.09375 
L 32.59375 40.90625 
L 19.40625 40.90625 
z
" id="SourceSansPro-Regular-35"/>
      </defs>
      <use xlink:href="#SourceSansPro-Regular-72"/>
      <use x="65.199997" xlink:href="#SourceSansPro-Regular-83"/>
      <use x="118.599991" xlink:href="#SourceSansPro-Regular-81"/>
      <use x="184.999985" xlink:href="#SourceSansPro-Regular-67"/>
      <use x="242.099976" xlink:href="#SourceSansPro-Regular-32"/>
      <use x="262.09996" xlink:href="#SourceSansPro-Regular-35"/>
      <use x="311.799957" xlink:href="#SourceSansPro-Regular-49"/>
     </g>
    </g>
    <g id="line2d_26">
     <path d="M 224.088437 218.039688 
L 244.088437 218.039688 
" style="fill:none;stroke:#dd8452;stroke-linecap:square;stroke-width:1.5;"/>
    </g>
    <g id="line2d_27">
     <g>
      <use style="fill:#dd8452;stroke:#dd8452;" x="234.088437" xlink:href="#mf91a9c3255" y="218.039688"/>
     </g>
    </g>
    <g id="text_20">
     <!-- HSQC #2 -->
     <g transform="translate(252.088437 221.539688)scale(0.1 -0.1)">
      <use xlink:href="#SourceSansPro-Regular-72"/>
      <use x="65.199997" xlink:href="#SourceSansPro-Regular-83"/>
      <use x="118.599991" xlink:href="#SourceSansPro-Regular-81"/>
      <use x="184.999985" xlink:href="#SourceSansPro-Regular-67"/>
      <use x="242.099976" xlink:href="#SourceSansPro-Regular-32"/>
      <use x="262.09996" xlink:href="#SourceSansPro-Regular-35"/>
      <use x="311.799957" xlink:href="#SourceSansPro-Regular-50"/>
     </g>
    </g>
    <g id="line2d_28">
     <path d="M 224.088437 232.21 
L 244.088437 232.21 
" style="fill:none;stroke:#55a868;stroke-linecap:square;stroke-width:1.5;"/>
    </g>
    <g id="line2d_29">
     <g>
      <use style="fill:#55a868;stroke:#55a868;" x="234.088437" xlink:href="#mbec898f537" y="232.21"/>
     </g>
    </g>
    <g id="text_21">
     <!-- COSY -->
     <g transform="translate(252.088437 235.71)scale(0.1 -0.1)">
      <defs>
       <path d="M 19.59375 0 
L 19.59375 25.40625 
L -0.09375 65.59375 
L 8.796875 65.59375 
L 17.296875 47.09375 
Q 18.90625 43.5 20.40625 40 
Q 21.90625 36.5 23.59375 32.796875 
L 24 32.796875 
Q 25.703125 36.5 27.390625 40 
Q 29.09375 43.5 30.59375 47.09375 
L 39 65.59375 
L 47.703125 65.59375 
L 28 25.40625 
L 28 0 
z
" id="SourceSansPro-Regular-89"/>
      </defs>
      <use xlink:href="#SourceSansPro-Regular-67"/>
      <use x="57.099991" xlink:href="#SourceSansPro-Regular-79"/>
      <use x="123.499985" xlink:href="#SourceSansPro-Regular-83"/>
      <use x="176.899979" xlink:href="#SourceSansPro-Regular-89"/>
     </g>
    </g>
   </g>
  </g>
  <g id="axes_2">
   <g id="patch_8">
    <path d="M 311.54 246.76 
L 565.2 246.76 
L 565.2 26.16 
L 311.54 26.16 
z
" style="fill:#ffffff;"/>
   </g>
   <g id="matplotlib.axis_3">
    <g id="xtick_9">
     <g id="line2d_30">
      <g>
       <use style="stroke:#000000;stroke-width:0.8;" x="553.67" xlink:href="#m449bb51bdb" y="246.76"/>
      </g>
     </g>
     <g id="text_22">
      <!-- 0.4 -->
      <g transform="translate(547.454375 260.880313)scale(0.1 -0.1)">
       <use xlink:href="#SourceSansPro-Regular-48"/>
       <use x="49.699997" xlink:href="#SourceSansPro-Regular-46"/>
       <use x="74.599991" xlink:href="#SourceSansPro-Regular-52"/>
      </g>
     </g>
    </g>
    <g id="xtick_10">
     <g id="line2d_31">
      <g>
       <use style="stroke:#000000;stroke-width:0.8;" x="520.727143" xlink:href="#m449bb51bdb" y="246.76"/>
      </g>
     </g>
     <g id="text_23">
      <!-- 0.5 -->
      <g transform="translate(514.511518 260.880313)scale(0.1 -0.1)">
       <use xlink:href="#SourceSansPro-Regular-48"/>
       <use x="49.699997" xlink:href="#SourceSansPro-Regular-46"/>
       <use x="74.599991" xlink:href="#SourceSansPro-Regular-53"/>
      </g>
     </g>
    </g>
    <g id="xtick_11">
     <g id="line2d_32">
      <g>
       <use style="stroke:#000000;stroke-width:0.8;" x="487.784286" xlink:href="#m449bb51bdb" y="246.76"/>
      </g>
     </g>
     <g id="text_24">
      <!-- 0.6 -->
      <g transform="translate(481.568661 260.880313)scale(0.1 -0.1)">
       <use xlink:href="#SourceSansPro-Regular-48"/>
       <use x="49.699997" xlink:href="#SourceSansPro-Regular-46"/>
       <use x="74.599991" xlink:href="#SourceSansPro-Regular-54"/>
      </g>
     </g>
    </g>
    <g id="xtick_12">
     <g id="line2d_33">
      <g>
       <use style="stroke:#000000;stroke-width:0.8;" x="454.841429" xlink:href="#m449bb51bdb" y="246.76"/>
      </g>
     </g>
     <g id="text_25">
      <!-- 0.7 -->
      <g transform="translate(448.625804 260.880313)scale(0.1 -0.1)">
       <use xlink:href="#SourceSansPro-Regular-48"/>
       <use x="49.699997" xlink:href="#SourceSansPro-Regular-46"/>
       <use x="74.599991" xlink:href="#SourceSansPro-Regular-55"/>
      </g>
     </g>
    </g>
    <g id="xtick_13">
     <g id="line2d_34">
      <g>
       <use style="stroke:#000000;stroke-width:0.8;" x="421.898571" xlink:href="#m449bb51bdb" y="246.76"/>
      </g>
     </g>
     <g id="text_26">
      <!-- 0.8 -->
      <g transform="translate(415.682946 260.880313)scale(0.1 -0.1)">
       <use xlink:href="#SourceSansPro-Regular-48"/>
       <use x="49.699997" xlink:href="#SourceSansPro-Regular-46"/>
       <use x="74.599991" xlink:href="#SourceSansPro-Regular-56"/>
      </g>
     </g>
    </g>
    <g id="xtick_14">
     <g id="line2d_35">
      <g>
       <use style="stroke:#000000;stroke-width:0.8;" x="388.955714" xlink:href="#m449bb51bdb" y="246.76"/>
      </g>
     </g>
     <g id="text_27">
      <!-- 0.9 -->
      <g transform="translate(382.740089 260.880313)scale(0.1 -0.1)">
       <use xlink:href="#SourceSansPro-Regular-48"/>
       <use x="49.699997" xlink:href="#SourceSansPro-Regular-46"/>
       <use x="74.599991" xlink:href="#SourceSansPro-Regular-57"/>
      </g>
     </g>
    </g>
    <g id="xtick_15">
     <g id="line2d_36">
      <g>
       <use style="stroke:#000000;stroke-width:0.8;" x="356.012857" xlink:href="#m449bb51bdb" y="246.76"/>
      </g>
     </g>
     <g id="text_28">
      <!-- 1.0 -->
      <g transform="translate(349.797232 260.880313)scale(0.1 -0.1)">
       <use xlink:href="#SourceSansPro-Regular-49"/>
       <use x="49.699997" xlink:href="#SourceSansPro-Regular-46"/>
       <use x="74.599991" xlink:href="#SourceSansPro-Regular-48"/>
      </g>
     </g>
    </g>
    <g id="xtick_16">
     <g id="line2d_37">
      <g>
       <use style="stroke:#000000;stroke-width:0.8;" x="323.07" xlink:href="#m449bb51bdb" y="246.76"/>
      </g>
     </g>
     <g id="text_29">
      <!-- MFA -->
      <g transform="translate(314.244219 260.880313)scale(0.1 -0.1)">
       <use xlink:href="#SourceSansPro-Regular-77"/>
       <use x="72.699982" xlink:href="#SourceSansPro-Regular-70"/>
       <use x="122.099976" xlink:href="#SourceSansPro-Regular-65"/>
      </g>
     </g>
    </g>
    <g id="text_30">
     <!-- value of $f$ -->
     <g transform="translate(419.42 274.050625)scale(0.1 -0.1)">
      <use transform="translate(0 0.59375)" xlink:href="#SourceSansPro-Regular-118"/>
      <use transform="translate(46.699997 0.59375)" xlink:href="#SourceSansPro-Regular-97"/>
      <use transform="translate(97.099991 0.59375)" xlink:href="#SourceSansPro-Regular-108"/>
      <use transform="translate(122.599976 0.59375)" xlink:href="#SourceSansPro-Regular-117"/>
      <use transform="translate(176.999969 0.59375)" xlink:href="#SourceSansPro-Regular-101"/>
      <use transform="translate(226.59996 0.59375)" xlink:href="#SourceSansPro-Regular-32"/>
      <use transform="translate(246.599945 0.59375)" xlink:href="#SourceSansPro-Regular-111"/>
      <use transform="translate(300.799942 0.59375)" xlink:href="#SourceSansPro-Regular-102"/>
      <use transform="translate(329.999939 0.59375)" xlink:href="#SourceSansPro-Regular-32"/>
      <use transform="translate(349.999924 0.59375)" xlink:href="#SourceSansPro-Italic-102"/>
     </g>
    </g>
   </g>
   <g id="matplotlib.axis_4">
    <g id="ytick_7">
     <g id="line2d_38">
      <g>
       <use style="stroke:#000000;stroke-width:0.8;" x="311.54" xlink:href="#m7c620ec5f7" y="237.568333"/>
      </g>
     </g>
    </g>
    <g id="ytick_8">
     <g id="line2d_39">
      <g>
       <use style="stroke:#000000;stroke-width:0.8;" x="311.54" xlink:href="#m7c620ec5f7" y="200.801667"/>
      </g>
     </g>
    </g>
    <g id="ytick_9">
     <g id="line2d_40">
      <g>
       <use style="stroke:#000000;stroke-width:0.8;" x="311.54" xlink:href="#m7c620ec5f7" y="164.035"/>
      </g>
     </g>
    </g>
    <g id="ytick_10">
     <g id="line2d_41">
      <g>
       <use style="stroke:#000000;stroke-width:0.8;" x="311.54" xlink:href="#m7c620ec5f7" y="127.268333"/>
      </g>
     </g>
    </g>
    <g id="ytick_11">
     <g id="line2d_42">
      <g>
       <use style="stroke:#000000;stroke-width:0.8;" x="311.54" xlink:href="#m7c620ec5f7" y="90.501667"/>
      </g>
     </g>
    </g>
    <g id="ytick_12">
     <g id="line2d_43">
      <g>
       <use style="stroke:#000000;stroke-width:0.8;" x="311.54" xlink:href="#m7c620ec5f7" y="53.735"/>
      </g>
     </g>
    </g>
   </g>
   <g id="line2d_44">
    <path clip-path="url(#p2c11228c4f)" d="M 356.012857 53.344487 
L 388.955714 74.4929 
L 421.898571 91.622788 
L 454.841429 110.008415 
L 487.784286 128.325727 
L 520.727143 145.222205 
L 553.67 162.668712 
" style="fill:none;stroke:#4c72b0;stroke-linecap:square;stroke-width:1.5;"/>
    <g clip-path="url(#p2c11228c4f)">
     <use style="fill:#4c72b0;stroke:#4c72b0;" x="356.012857" xlink:href="#m8c4bb52685" y="53.344487"/>
     <use style="fill:#4c72b0;stroke:#4c72b0;" x="388.955714" xlink:href="#m8c4bb52685" y="74.4929"/>
     <use style="fill:#4c72b0;stroke:#4c72b0;" x="421.898571" xlink:href="#m8c4bb52685" y="91.622788"/>
     <use style="fill:#4c72b0;stroke:#4c72b0;" x="454.841429" xlink:href="#m8c4bb52685" y="110.008415"/>
     <use style="fill:#4c72b0;stroke:#4c72b0;" x="487.784286" xlink:href="#m8c4bb52685" y="128.325727"/>
     <use style="fill:#4c72b0;stroke:#4c72b0;" x="520.727143" xlink:href="#m8c4bb52685" y="145.222205"/>
     <use style="fill:#4c72b0;stroke:#4c72b0;" x="553.67" xlink:href="#m8c4bb52685" y="162.668712"/>
    </g>
   </g>
   <g id="line2d_45">
    <path clip-path="url(#p2c11228c4f)" d="M 356.012857 177.621528 
L 388.955714 115.895718 
L 421.898571 92.623717 
L 454.841429 77.397015 
L 487.784286 65.382147 
L 520.727143 55.567585 
L 553.67 48.715168 
" style="fill:none;stroke:#dd8452;stroke-linecap:square;stroke-width:1.5;"/>
    <g clip-path="url(#p2c11228c4f)">
     <use style="fill:#dd8452;stroke:#dd8452;" x="356.012857" xlink:href="#mf91a9c3255" y="177.621528"/>
     <use style="fill:#dd8452;stroke:#dd8452;" x="388.955714" xlink:href="#mf91a9c3255" y="115.895718"/>
     <use style="fill:#dd8452;stroke:#dd8452;" x="421.898571" xlink:href="#mf91a9c3255" y="92.623717"/>
     <use style="fill:#dd8452;stroke:#dd8452;" x="454.841429" xlink:href="#mf91a9c3255" y="77.397015"/>
     <use style="fill:#dd8452;stroke:#dd8452;" x="487.784286" xlink:href="#mf91a9c3255" y="65.382147"/>
     <use style="fill:#dd8452;stroke:#dd8452;" x="520.727143" xlink:href="#mf91a9c3255" y="55.567585"/>
     <use style="fill:#dd8452;stroke:#dd8452;" x="553.67" xlink:href="#mf91a9c3255" y="48.715168"/>
    </g>
   </g>
   <g id="line2d_46">
    <path clip-path="url(#p2c11228c4f)" d="M 356.012857 79.217419 
L 388.955714 81.174563 
L 421.898571 81.500457 
L 454.841429 82.230301 
L 487.784286 82.52138 
L 520.727143 83.078934 
L 553.67 83.419963 
" style="fill:none;stroke:#55a868;stroke-linecap:square;stroke-width:1.5;"/>
    <g clip-path="url(#p2c11228c4f)">
     <use style="fill:#55a868;stroke:#55a868;" x="356.012857" xlink:href="#mbec898f537" y="79.217419"/>
     <use style="fill:#55a868;stroke:#55a868;" x="388.955714" xlink:href="#mbec898f537" y="81.174563"/>
     <use style="fill:#55a868;stroke:#55a868;" x="421.898571" xlink:href="#mbec898f537" y="81.500457"/>
     <use style="fill:#55a868;stroke:#55a868;" x="454.841429" xlink:href="#mbec898f537" y="82.230301"/>
     <use style="fill:#55a868;stroke:#55a868;" x="487.784286" xlink:href="#mbec898f537" y="82.52138"/>
     <use style="fill:#55a868;stroke:#55a868;" x="520.727143" xlink:href="#mbec898f537" y="83.078934"/>
     <use style="fill:#55a868;stroke:#55a868;" x="553.67" xlink:href="#mbec898f537" y="83.419963"/>
    </g>
   </g>
   <g id="line2d_47">
    <path clip-path="url(#p2c11228c4f)" d="M 323.07 105.828646 
" style="fill:none;stroke:#4c72b0;stroke-linecap:square;stroke-width:1.5;"/>
    <g clip-path="url(#p2c11228c4f)">
     <use style="fill:#4c72b0;stroke:#4c72b0;" x="323.07" xlink:href="#m8c4bb52685" y="105.828646"/>
    </g>
   </g>
   <g id="line2d_48">
    <path clip-path="url(#p2c11228c4f)" d="M 311.54 105.828646 
L 565.2 105.828646 
" style="fill:none;stroke:#4c72b0;stroke-dasharray:1.85,0.8;stroke-dashoffset:0;stroke-width:0.5;"/>
   </g>
   <g id="line2d_49">
    <path clip-path="url(#p2c11228c4f)" d="M 323.07 128.431265 
" style="fill:none;stroke:#dd8452;stroke-linecap:square;stroke-width:1.5;"/>
    <g clip-path="url(#p2c11228c4f)">
     <use style="fill:#dd8452;stroke:#dd8452;" x="323.07" xlink:href="#mf91a9c3255" y="128.431265"/>
    </g>
   </g>
   <g id="line2d_50">
    <path clip-path="url(#p2c11228c4f)" d="M 311.54 128.431265 
L 565.2 128.431265 
" style="fill:none;stroke:#dd8452;stroke-dasharray:1.85,0.8;stroke-dashoffset:0;stroke-width:0.5;"/>
   </g>
   <g id="line2d_51">
    <path clip-path="url(#p2c11228c4f)" d="M 323.07 209.727937 
" style="fill:none;stroke:#55a868;stroke-linecap:square;stroke-width:1.5;"/>
    <g clip-path="url(#p2c11228c4f)">
     <use style="fill:#55a868;stroke:#55a868;" x="323.07" xlink:href="#mbec898f537" y="209.727937"/>
    </g>
   </g>
   <g id="line2d_52">
    <path clip-path="url(#p2c11228c4f)" d="M 311.54 209.727937 
L 565.2 209.727937 
" style="fill:none;stroke:#55a868;stroke-dasharray:1.85,0.8;stroke-dashoffset:0;stroke-width:0.5;"/>
   </g>
   <g id="patch_9">
    <path d="M 311.54 246.76 
L 311.54 26.16 
" style="fill:none;stroke:#000000;stroke-linecap:square;stroke-linejoin:miter;stroke-width:1.3;"/>
   </g>
   <g id="patch_10">
    <path d="M 565.2 246.76 
L 565.2 26.16 
" style="fill:none;stroke:#000000;stroke-linecap:square;stroke-linejoin:miter;stroke-width:1.3;"/>
   </g>
   <g id="patch_11">
    <path d="M 311.54 246.76 
L 565.2 246.76 
" style="fill:none;stroke:#000000;stroke-linecap:square;stroke-linejoin:miter;stroke-width:1.3;"/>
   </g>
   <g id="patch_12">
    <path d="M 311.54 26.16 
L 565.2 26.16 
" style="fill:none;stroke:#000000;stroke-linecap:square;stroke-linejoin:miter;stroke-width:1.3;"/>
   </g>
   <g id="text_31">
    <!-- (b) -->
    <g transform="translate(316.6132 42.252)scale(0.16 -0.16)">
     <defs>
      <path d="M 32.5 -1.203125 
Q 29.203125 -1.203125 25.84375 0.4375 
Q 22.5 2.09375 19.59375 5.296875 
L 19.203125 5.296875 
L 18 0 
L 6.5 0 
L 6.5 70.09375 
L 21.203125 70.09375 
L 21.203125 52.90625 
L 20.796875 45.296875 
Q 23.703125 47.90625 27.046875 49.34375 
Q 30.40625 50.796875 33.90625 50.796875 
Q 38.40625 50.796875 42 49 
Q 45.59375 47.203125 48.140625 43.953125 
Q 50.703125 40.703125 52.046875 36.046875 
Q 53.40625 31.40625 53.40625 25.703125 
Q 53.40625 19.296875 51.65625 14.296875 
Q 49.90625 9.296875 46.953125 5.84375 
Q 44 2.40625 40.25 0.59375 
Q 36.5 -1.203125 32.5 -1.203125 
z
M 29.09375 10.796875 
Q 32.90625 10.796875 35.59375 14.25 
Q 38.296875 17.703125 38.296875 25.40625 
Q 38.296875 38.796875 29.703125 38.796875 
Q 25.296875 38.796875 21.203125 34.296875 
L 21.203125 14 
Q 23.203125 12.203125 25.203125 11.5 
Q 27.203125 10.796875 29.09375 10.796875 
z
" id="SourceSansPro-Bold-98"/>
     </defs>
     <use xlink:href="#SourceSansPro-Bold-40"/>
     <use x="34.399994" xlink:href="#SourceSansPro-Bold-98"/>
     <use x="91.699982" xlink:href="#SourceSansPro-Bold-41"/>
    </g>
   </g>
   <g id="text_32">
    <!-- NOAH-3 SSpCc -->
    <g transform="translate(401.379062 20.16)scale(0.12 -0.12)">
     <defs>
      <path d="M 8.203125 -20.5 
L 8.203125 48.59375 
L 15 48.59375 
L 15.703125 43 
L 16 43 
Q 19.296875 45.796875 23.25 47.796875 
Q 27.203125 49.796875 31.5 49.796875 
Q 36.203125 49.796875 39.796875 48.046875 
Q 43.40625 46.296875 45.796875 43.046875 
Q 48.203125 39.796875 49.453125 35.25 
Q 50.703125 30.703125 50.703125 25 
Q 50.703125 18.796875 49 13.9375 
Q 47.296875 9.09375 44.390625 5.6875 
Q 41.5 2.296875 37.703125 0.546875 
Q 33.90625 -1.203125 29.703125 -1.203125 
Q 26.296875 -1.203125 22.9375 0.296875 
Q 19.59375 1.796875 16.203125 4.40625 
L 16.40625 -4.09375 
L 16.40625 -20.5 
z
M 28.296875 5.703125 
Q 31.296875 5.703125 33.84375 7.046875 
Q 36.40625 8.40625 38.25 10.84375 
Q 40.09375 13.296875 41.140625 16.890625 
Q 42.203125 20.5 42.203125 25 
Q 42.203125 29 41.5 32.296875 
Q 40.796875 35.59375 39.25 37.9375 
Q 37.703125 40.296875 35.25 41.59375 
Q 32.796875 42.90625 29.40625 42.90625 
Q 26.296875 42.90625 23.140625 41.203125 
Q 20 39.5 16.40625 36.296875 
L 16.40625 10.796875 
Q 19.703125 8 22.796875 6.84375 
Q 25.90625 5.703125 28.296875 5.703125 
z
" id="SourceSansPro-Regular-112"/>
     </defs>
     <use xlink:href="#SourceSansPro-Regular-78"/>
     <use x="64.699997" xlink:href="#SourceSansPro-Regular-79"/>
     <use x="131.099991" xlink:href="#SourceSansPro-Regular-65"/>
     <use x="185.499985" xlink:href="#SourceSansPro-Regular-72"/>
     <use x="250.699982" xlink:href="#SourceSansPro-Regular-45"/>
     <use x="281.799973" xlink:href="#SourceSansPro-Regular-51"/>
     <use x="331.499969" xlink:href="#SourceSansPro-Regular-32"/>
     <use x="351.499954" xlink:href="#SourceSansPro-Regular-83"/>
     <use x="404.899948" xlink:href="#SourceSansPro-Regular-83"/>
     <use x="458.299942" xlink:href="#SourceSansPro-Regular-112"/>
     <use x="513.799927" xlink:href="#SourceSansPro-Regular-67"/>
     <use x="570.899918" xlink:href="#SourceSansPro-Regular-99"/>
    </g>
   </g>
   <g id="legend_2">
    <g id="patch_13">
     <path d="M 480.898437 241.76 
L 558.2 241.76 
Q 560.2 241.76 560.2 239.76 
L 560.2 198.249063 
Q 560.2 196.249063 558.2 196.249063 
L 480.898437 196.249063 
Q 478.898437 196.249063 478.898437 198.249063 
L 478.898437 239.76 
Q 478.898437 241.76 480.898437 241.76 
z
" style="fill:#ffffff;opacity:0.8;stroke:#cccccc;stroke-linejoin:miter;"/>
    </g>
    <g id="line2d_53">
     <path d="M 482.898437 203.869375 
L 502.898437 203.869375 
" style="fill:none;stroke:#4c72b0;stroke-linecap:square;stroke-width:1.5;"/>
    </g>
    <g id="line2d_54">
     <g>
      <use style="fill:#4c72b0;stroke:#4c72b0;" x="492.898437" xlink:href="#m8c4bb52685" y="203.869375"/>
     </g>
    </g>
    <g id="text_33">
     <!-- HSQC #1 -->
     <g transform="translate(510.898437 207.369375)scale(0.1 -0.1)">
      <use xlink:href="#SourceSansPro-Regular-72"/>
      <use x="65.199997" xlink:href="#SourceSansPro-Regular-83"/>
      <use x="118.599991" xlink:href="#SourceSansPro-Regular-81"/>
      <use x="184.999985" xlink:href="#SourceSansPro-Regular-67"/>
      <use x="242.099976" xlink:href="#SourceSansPro-Regular-32"/>
      <use x="262.09996" xlink:href="#SourceSansPro-Regular-35"/>
      <use x="311.799957" xlink:href="#SourceSansPro-Regular-49"/>
     </g>
    </g>
    <g id="line2d_55">
     <path d="M 482.898437 218.039688 
L 502.898437 218.039688 
" style="fill:none;stroke:#dd8452;stroke-linecap:square;stroke-width:1.5;"/>
    </g>
    <g id="line2d_56">
     <g>
      <use style="fill:#dd8452;stroke:#dd8452;" x="492.898437" xlink:href="#mf91a9c3255" y="218.039688"/>
     </g>
    </g>
    <g id="text_34">
     <!-- seHSQC #2 -->
     <g transform="translate(510.898437 221.539688)scale(0.1 -0.1)">
      <use xlink:href="#SourceSansPro-Regular-115"/>
      <use x="41.899994" xlink:href="#SourceSansPro-Regular-101"/>
      <use x="91.499985" xlink:href="#SourceSansPro-Regular-72"/>
      <use x="156.699982" xlink:href="#SourceSansPro-Regular-83"/>
      <use x="210.099976" xlink:href="#SourceSansPro-Regular-81"/>
      <use x="276.499969" xlink:href="#SourceSansPro-Regular-67"/>
      <use x="333.59996" xlink:href="#SourceSansPro-Regular-32"/>
      <use x="353.599945" xlink:href="#SourceSansPro-Regular-35"/>
      <use x="403.299942" xlink:href="#SourceSansPro-Regular-50"/>
     </g>
    </g>
    <g id="line2d_57">
     <path d="M 482.898437 232.21 
L 502.898437 232.21 
" style="fill:none;stroke:#55a868;stroke-linecap:square;stroke-width:1.5;"/>
    </g>
    <g id="line2d_58">
     <g>
      <use style="fill:#55a868;stroke:#55a868;" x="492.898437" xlink:href="#mbec898f537" y="232.21"/>
     </g>
    </g>
    <g id="text_35">
     <!-- COSY -->
     <g transform="translate(510.898437 235.71)scale(0.1 -0.1)">
      <use xlink:href="#SourceSansPro-Regular-67"/>
      <use x="57.099991" xlink:href="#SourceSansPro-Regular-79"/>
      <use x="123.499985" xlink:href="#SourceSansPro-Regular-83"/>
      <use x="176.899979" xlink:href="#SourceSansPro-Regular-89"/>
     </g>
    </g>
   </g>
  </g>
 </g>
 <defs>
  <clipPath id="p78a3ddc89d">
   <rect height="220.6" width="253.66" x="43.58" y="26.16"/>
  </clipPath>
  <clipPath id="p2c11228c4f">
   <rect height="220.6" width="253.66" x="311.54" y="26.16"/>
  </clipPath>
 </defs>
</svg>
