<?xml version="1.0" encoding="utf-8" standalone="no"?>
<!DOCTYPE svg PUBLIC "-//W3C//DTD SVG 1.1//EN"
  "http://www.w3.org/Graphics/SVG/1.1/DTD/svg11.dtd">
<!-- Created with matplotlib (https://matplotlib.org/) -->
<svg height="288pt" version="1.1" viewBox="0 0 576 288" width="576pt" xmlns="http://www.w3.org/2000/svg" xmlns:xlink="http://www.w3.org/1999/xlink">
 <metadata>
  <rdf:RDF xmlns:cc="http://creativecommons.org/ns#" xmlns:dc="http://purl.org/dc/elements/1.1/" xmlns:rdf="http://www.w3.org/1999/02/22-rdf-syntax-ns#">
   <cc:Work>
    <dc:type rdf:resource="http://purl.org/dc/dcmitype/StillImage"/>
    <dc:date>2020-12-14T01:18:31.834139</dc:date>
    <dc:format>image/svg+xml</dc:format>
    <dc:creator>
     <cc:Agent>
      <dc:title>Matplotlib v3.3.2, https://matplotlib.org/</dc:title>
     </cc:Agent>
    </dc:creator>
   </cc:Work>
  </rdf:RDF>
 </metadata>
 <defs>
  <style type="text/css">*{stroke-linecap:butt;stroke-linejoin:round;}</style>
 </defs>
 <g id="figure_1">
  <g id="patch_1">
   <path d="M 0 288 
L 576 288 
L 576 0 
L 0 0 
z
" style="fill:#ffffff;"/>
  </g>
  <g id="axes_1">
   <g id="patch_2">
    <path d="M 48.53 242.44 
L 76.858824 242.44 
L 76.858824 30.48 
L 48.53 30.48 
z
" style="fill:#ffffff;"/>
   </g>
   <g id="matplotlib.axis_1">
    <g id="xtick_1">
     <g id="line2d_1">
      <defs>
       <path d="M 0 0 
L 0 3.5 
" id="mde800611f7" style="stroke:#000000;stroke-width:0.8;"/>
      </defs>
      <g>
       <use style="stroke:#000000;stroke-width:0.8;" x="62.694412" xlink:href="#mde800611f7" y="242.44"/>
      </g>
     </g>
     <g id="text_1">
      <!-- MFA -->
      <g transform="translate(52.144727 256.610568)scale(0.09996 -0.09996)">
       <defs>
        <path d="M 7.375 71.734375 
L 21.296875 71.734375 
L 41.890625 11.078125 
L 62.359375 71.734375 
L 76.125 71.734375 
L 76.125 0 
L 66.890625 0 
L 66.890625 42.328125 
Q 66.890625 44.53125 66.984375 49.609375 
Q 67.09375 54.6875 67.09375 60.5 
L 46.625 0 
L 37.015625 0 
L 16.40625 60.5 
L 16.40625 58.296875 
Q 16.40625 55.671875 16.53125 50.265625 
Q 16.65625 44.875 16.65625 42.328125 
L 16.65625 0 
L 7.375 0 
z
" id="Helvetica-77"/>
        <path d="M 8.546875 71.734375 
L 58.296875 71.734375 
L 58.296875 62.9375 
L 18.265625 62.9375 
L 18.265625 41.15625 
L 53.46875 41.15625 
L 53.46875 32.625 
L 18.265625 32.625 
L 18.265625 0 
L 8.546875 0 
z
" id="Helvetica-70"/>
        <path d="M 44.4375 29.390625 
L 33.546875 61.078125 
L 21.96875 29.390625 
z
M 28.46875 71.734375 
L 39.453125 71.734375 
L 65.484375 0 
L 54.828125 0 
L 47.5625 21.484375 
L 19.1875 21.484375 
L 11.421875 0 
L 1.46875 0 
z
" id="Helvetica-65"/>
       </defs>
       <use xlink:href="#Helvetica-77"/>
       <use x="83.300781" xlink:href="#Helvetica-70"/>
       <use x="144.384766" xlink:href="#Helvetica-65"/>
      </g>
     </g>
    </g>
   </g>
   <g id="matplotlib.axis_2">
    <g id="ytick_1">
     <g id="line2d_2">
      <defs>
       <path d="M 0 0 
L -3.5 0 
" id="mf3df1df63a" style="stroke:#000000;stroke-width:0.8;"/>
      </defs>
      <g>
       <use style="stroke:#000000;stroke-width:0.8;" x="48.53" xlink:href="#mf3df1df63a" y="233.608333"/>
      </g>
     </g>
     <g id="text_2">
      <!-- 0.0 -->
      <g transform="translate(27.63556 237.193617)scale(0.09996 -0.09996)">
       <defs>
        <path d="M 27.046875 69.921875 
Q 40.625 69.921875 46.6875 58.734375 
Q 51.375 50.09375 51.375 35.0625 
Q 51.375 20.796875 47.125 11.46875 
Q 40.96875 -1.90625 27 -1.90625 
Q 14.40625 -1.90625 8.25 9.03125 
Q 3.125 18.171875 3.125 33.546875 
Q 3.125 45.453125 6.203125 54 
Q 11.96875 69.921875 27.046875 69.921875 
z
M 26.953125 6.109375 
Q 33.796875 6.109375 37.84375 12.15625 
Q 41.890625 18.21875 41.890625 34.71875 
Q 41.890625 46.625 38.953125 54.3125 
Q 36.03125 62.015625 27.59375 62.015625 
Q 19.828125 62.015625 16.234375 54.703125 
Q 12.640625 47.40625 12.640625 33.203125 
Q 12.640625 22.515625 14.9375 16.015625 
Q 18.453125 6.109375 26.953125 6.109375 
z
" id="Helvetica-48"/>
        <path d="M 8.546875 10.640625 
L 18.75 10.640625 
L 18.75 0 
L 8.546875 0 
z
" id="Helvetica-46"/>
       </defs>
       <use xlink:href="#Helvetica-48"/>
       <use x="55.615234" xlink:href="#Helvetica-46"/>
       <use x="83.398438" xlink:href="#Helvetica-48"/>
      </g>
     </g>
    </g>
    <g id="ytick_2">
     <g id="line2d_3">
      <g>
       <use style="stroke:#000000;stroke-width:0.8;" x="48.53" xlink:href="#mf3df1df63a" y="198.281667"/>
      </g>
     </g>
     <g id="text_3">
      <!-- 0.2 -->
      <g transform="translate(27.63556 201.866951)scale(0.09996 -0.09996)">
       <defs>
        <path d="M 3.125 0 
Q 3.609375 9.03125 6.859375 15.71875 
Q 10.109375 22.40625 19.53125 27.875 
L 28.90625 33.296875 
Q 35.203125 36.96875 37.75 39.546875 
Q 41.75 43.609375 41.75 48.828125 
Q 41.75 54.9375 38.078125 58.515625 
Q 34.421875 62.109375 28.328125 62.109375 
Q 19.28125 62.109375 15.828125 55.28125 
Q 13.96875 51.609375 13.765625 45.125 
L 4.828125 45.125 
Q 4.984375 54.25 8.203125 60.015625 
Q 13.921875 70.171875 28.375 70.171875 
Q 40.375 70.171875 45.921875 63.671875 
Q 51.46875 57.171875 51.46875 49.21875 
Q 51.46875 40.828125 45.5625 34.859375 
Q 42.140625 31.390625 33.296875 26.46875 
L 26.609375 22.75 
Q 21.828125 20.125 19.09375 17.71875 
Q 14.203125 13.484375 12.9375 8.296875 
L 51.125 8.296875 
L 51.125 0 
L 3.125 0 
z
" id="Helvetica-50"/>
       </defs>
       <use xlink:href="#Helvetica-48"/>
       <use x="55.615234" xlink:href="#Helvetica-46"/>
       <use x="83.398438" xlink:href="#Helvetica-50"/>
      </g>
     </g>
    </g>
    <g id="ytick_3">
     <g id="line2d_4">
      <g>
       <use style="stroke:#000000;stroke-width:0.8;" x="48.53" xlink:href="#mf3df1df63a" y="162.955"/>
      </g>
     </g>
     <g id="text_4">
      <!-- 0.4 -->
      <g transform="translate(27.63556 166.540284)scale(0.09996 -0.09996)">
       <defs>
        <path d="M 33.0625 24.75 
L 33.0625 56.453125 
L 10.640625 24.75 
z
M 33.203125 0 
L 33.203125 17.09375 
L 2.546875 17.09375 
L 2.546875 25.6875 
L 34.578125 70.125 
L 42 70.125 
L 42 24.75 
L 52.296875 24.75 
L 52.296875 17.09375 
L 42 17.09375 
L 42 0 
z
" id="Helvetica-52"/>
       </defs>
       <use xlink:href="#Helvetica-48"/>
       <use x="55.615234" xlink:href="#Helvetica-46"/>
       <use x="83.398438" xlink:href="#Helvetica-52"/>
      </g>
     </g>
    </g>
    <g id="ytick_4">
     <g id="line2d_5">
      <g>
       <use style="stroke:#000000;stroke-width:0.8;" x="48.53" xlink:href="#mf3df1df63a" y="127.628333"/>
      </g>
     </g>
     <g id="text_5">
      <!-- 0.6 -->
      <g transform="translate(27.63556 131.213617)scale(0.09996 -0.09996)">
       <defs>
        <path d="M 29.25 70.21875 
Q 40.96875 70.21875 45.578125 64.140625 
Q 50.203125 58.0625 50.203125 51.609375 
L 41.5 51.609375 
Q 40.71875 55.765625 39.015625 58.109375 
Q 35.84375 62.5 29.390625 62.5 
Q 22.015625 62.5 17.671875 55.6875 
Q 13.328125 48.875 12.84375 36.1875 
Q 15.875 40.625 20.453125 42.828125 
Q 24.65625 44.78125 29.828125 44.78125 
Q 38.625 44.78125 45.15625 39.15625 
Q 51.703125 33.546875 51.703125 22.40625 
Q 51.703125 12.890625 45.5 5.53125 
Q 39.3125 -1.8125 27.828125 -1.8125 
Q 18.015625 -1.8125 10.890625 5.640625 
Q 3.765625 13.09375 3.765625 30.71875 
Q 3.765625 43.75 6.9375 52.828125 
Q 13.03125 70.21875 29.25 70.21875 
z
M 28.609375 6 
Q 35.546875 6 38.984375 10.65625 
Q 42.4375 15.328125 42.4375 21.6875 
Q 42.4375 27.046875 39.359375 31.90625 
Q 36.28125 36.765625 28.171875 36.765625 
Q 22.515625 36.765625 18.234375 33 
Q 13.96875 29.25 13.96875 21.6875 
Q 13.96875 15.046875 17.84375 10.515625 
Q 21.734375 6 28.609375 6 
z
" id="Helvetica-54"/>
       </defs>
       <use xlink:href="#Helvetica-48"/>
       <use x="55.615234" xlink:href="#Helvetica-46"/>
       <use x="83.398438" xlink:href="#Helvetica-54"/>
      </g>
     </g>
    </g>
    <g id="ytick_5">
     <g id="line2d_6">
      <g>
       <use style="stroke:#000000;stroke-width:0.8;" x="48.53" xlink:href="#mf3df1df63a" y="92.301667"/>
      </g>
     </g>
     <g id="text_6">
      <!-- 0.8 -->
      <g transform="translate(27.63556 95.886951)scale(0.09996 -0.09996)">
       <defs>
        <path d="M 27.203125 40.625 
Q 33.015625 40.625 36.28125 43.875 
Q 39.546875 47.125 39.546875 51.609375 
Q 39.546875 55.515625 36.421875 58.78125 
Q 33.296875 62.0625 26.90625 62.0625 
Q 20.5625 62.0625 17.71875 58.78125 
Q 14.890625 55.515625 14.890625 51.125 
Q 14.890625 46.1875 18.546875 43.40625 
Q 22.21875 40.625 27.203125 40.625 
z
M 27.734375 6 
Q 33.84375 6 37.859375 9.296875 
Q 41.890625 12.59375 41.890625 19.140625 
Q 41.890625 25.921875 37.734375 29.4375 
Q 33.59375 32.953125 27.09375 32.953125 
Q 20.796875 32.953125 16.8125 29.359375 
Q 12.84375 25.78125 12.84375 19.4375 
Q 12.84375 13.96875 16.484375 9.984375 
Q 20.125 6 27.734375 6 
z
M 15.234375 37.25 
Q 11.578125 38.8125 9.515625 40.921875 
Q 5.671875 44.828125 5.671875 51.078125 
Q 5.671875 58.890625 11.328125 64.5 
Q 17 70.125 27.390625 70.125 
Q 37.453125 70.125 43.15625 64.8125 
Q 48.875 59.515625 48.875 52.4375 
Q 48.875 45.90625 45.5625 41.84375 
Q 43.703125 39.546875 39.796875 37.359375 
Q 44.140625 35.359375 46.625 32.765625 
Q 51.265625 27.875 51.265625 20.0625 
Q 51.265625 10.84375 45.0625 4.421875 
Q 38.875 -2 27.546875 -2 
Q 17.328125 -2 10.265625 3.53125 
Q 3.21875 9.078125 3.21875 19.625 
Q 3.21875 25.828125 6.25 30.34375 
Q 9.28125 34.859375 15.234375 37.25 
z
" id="Helvetica-56"/>
       </defs>
       <use xlink:href="#Helvetica-48"/>
       <use x="55.615234" xlink:href="#Helvetica-46"/>
       <use x="83.398438" xlink:href="#Helvetica-56"/>
      </g>
     </g>
    </g>
    <g id="ytick_6">
     <g id="line2d_7">
      <g>
       <use style="stroke:#000000;stroke-width:0.8;" x="48.53" xlink:href="#mf3df1df63a" y="56.975"/>
      </g>
     </g>
     <g id="text_7">
      <!-- 1.0 -->
      <g transform="translate(27.63556 60.560284)scale(0.09996 -0.09996)">
       <defs>
        <path d="M 9.578125 49.515625 
L 9.578125 56.25 
Q 19.09375 57.171875 22.84375 59.34375 
Q 26.609375 61.53125 28.46875 69.625 
L 35.40625 69.625 
L 35.40625 0 
L 26.03125 0 
L 26.03125 49.515625 
z
" id="Helvetica-49"/>
       </defs>
       <use xlink:href="#Helvetica-49"/>
       <use x="55.615234" xlink:href="#Helvetica-46"/>
       <use x="83.398438" xlink:href="#Helvetica-48"/>
      </g>
     </g>
    </g>
    <g id="text_8">
     <!-- Relative intensity -->
     <g transform="translate(21.06306 181.8125)rotate(-90)scale(0.12 -0.12)">
      <defs>
       <path d="M 40.96875 38.875 
Q 47.796875 38.875 51.78125 41.609375 
Q 55.765625 44.34375 55.765625 51.46875 
Q 55.765625 59.125 50.203125 61.921875 
Q 47.21875 63.375 42.234375 63.375 
L 18.5 63.375 
L 18.5 38.875 
z
M 8.796875 71.734375 
L 42 71.734375 
Q 50.203125 71.734375 55.515625 69.34375 
Q 65.625 64.75 65.625 52.390625 
Q 65.625 45.953125 62.953125 41.84375 
Q 60.296875 37.75 55.515625 35.25 
Q 59.71875 33.546875 61.84375 30.765625 
Q 63.96875 27.984375 64.203125 21.734375 
L 64.546875 12.109375 
Q 64.703125 8.015625 65.234375 6 
Q 66.109375 2.59375 68.359375 1.609375 
L 68.359375 0 
L 56.453125 0 
Q 55.953125 0.921875 55.65625 2.390625 
Q 55.375 3.859375 55.171875 8.0625 
L 54.59375 20.015625 
Q 54.25 27.046875 49.359375 29.4375 
Q 46.578125 30.765625 40.625 30.765625 
L 18.5 30.765625 
L 18.5 0 
L 8.796875 0 
z
" id="Helvetica-82"/>
       <path d="M 28.21875 53.46875 
Q 33.796875 53.46875 39.015625 50.859375 
Q 44.234375 48.25 46.96875 44.09375 
Q 49.609375 40.140625 50.484375 34.859375 
Q 51.265625 31.25 51.265625 23.34375 
L 12.9375 23.34375 
Q 13.1875 15.375 16.703125 10.5625 
Q 20.21875 5.765625 27.59375 5.765625 
Q 34.46875 5.765625 38.578125 10.296875 
Q 40.921875 12.9375 41.890625 16.40625 
L 50.53125 16.40625 
Q 50.203125 13.53125 48.265625 9.984375 
Q 46.34375 6.453125 43.953125 4.203125 
Q 39.9375 0.296875 34.03125 -1.078125 
Q 30.859375 -1.859375 26.859375 -1.859375 
Q 17.09375 -1.859375 10.296875 5.25 
Q 3.515625 12.359375 3.515625 25.140625 
Q 3.515625 37.75 10.34375 45.609375 
Q 17.1875 53.46875 28.21875 53.46875 
z
M 42.234375 30.328125 
Q 41.703125 36.03125 39.75 39.453125 
Q 36.140625 45.796875 27.6875 45.796875 
Q 21.625 45.796875 17.515625 41.421875 
Q 13.421875 37.0625 13.1875 30.328125 
z
M 27.390625 53.5625 
z
" id="Helvetica-101"/>
       <path d="M 6.6875 71.734375 
L 15.484375 71.734375 
L 15.484375 0 
L 6.6875 0 
z
" id="Helvetica-108"/>
       <path d="M 13.1875 13.921875 
Q 13.1875 10.109375 15.96875 7.90625 
Q 18.75 5.71875 22.5625 5.71875 
Q 27.203125 5.71875 31.546875 7.859375 
Q 38.875 11.421875 38.875 19.53125 
L 38.875 26.609375 
Q 37.25 25.59375 34.703125 24.90625 
Q 32.171875 24.21875 29.734375 23.921875 
L 24.421875 23.25 
Q 19.625 22.609375 17.234375 21.234375 
Q 13.1875 18.953125 13.1875 13.921875 
z
M 34.46875 31.6875 
Q 37.5 32.078125 38.53125 34.234375 
Q 39.109375 35.40625 39.109375 37.59375 
Q 39.109375 42.09375 35.90625 44.109375 
Q 32.71875 46.140625 26.765625 46.140625 
Q 19.875 46.140625 17 42.4375 
Q 15.375 40.375 14.890625 36.328125 
L 6.6875 36.328125 
Q 6.9375 46 12.96875 49.78125 
Q 19 53.5625 26.953125 53.5625 
Q 36.1875 53.5625 41.9375 50.046875 
Q 47.65625 46.53125 47.65625 39.109375 
L 47.65625 8.984375 
Q 47.65625 7.625 48.21875 6.78125 
Q 48.78125 5.953125 50.59375 5.953125 
Q 51.171875 5.953125 51.90625 6.03125 
Q 52.640625 6.109375 53.46875 6.25 
L 53.46875 -0.25 
Q 51.421875 -0.828125 50.34375 -0.96875 
Q 49.265625 -1.125 47.40625 -1.125 
Q 42.875 -1.125 40.828125 2.09375 
Q 39.75 3.8125 39.3125 6.9375 
Q 36.625 3.421875 31.59375 0.828125 
Q 26.5625 -1.765625 20.515625 -1.765625 
Q 13.234375 -1.765625 8.609375 2.65625 
Q 4 7.078125 4 13.71875 
Q 4 21 8.546875 25 
Q 13.09375 29 20.453125 29.9375 
z
M 27.203125 53.5625 
z
" id="Helvetica-97"/>
       <path d="M 8.203125 66.890625 
L 17.09375 66.890625 
L 17.09375 52.296875 
L 25.4375 52.296875 
L 25.4375 45.125 
L 17.09375 45.125 
L 17.09375 10.984375 
Q 17.09375 8.25 18.953125 7.328125 
Q 19.96875 6.78125 22.359375 6.78125 
Q 23 6.78125 23.734375 6.8125 
Q 24.46875 6.84375 25.4375 6.9375 
L 25.4375 0 
Q 23.921875 -0.4375 22.28125 -0.625 
Q 20.65625 -0.828125 18.75 -0.828125 
Q 12.59375 -0.828125 10.390625 2.3125 
Q 8.203125 5.46875 8.203125 10.5 
L 8.203125 45.125 
L 1.125 45.125 
L 1.125 52.296875 
L 8.203125 52.296875 
z
" id="Helvetica-116"/>
       <path d="M 6.453125 52.046875 
L 15.375 52.046875 
L 15.375 0 
L 6.453125 0 
z
M 6.453125 71.734375 
L 15.375 71.734375 
L 15.375 61.765625 
L 6.453125 61.765625 
z
" id="Helvetica-105"/>
       <path d="M 10.75 52.296875 
L 24.703125 9.71875 
L 39.3125 52.296875 
L 48.921875 52.296875 
L 29.203125 0 
L 19.828125 0 
L 0.53125 52.296875 
z
" id="Helvetica-118"/>
       <path id="Helvetica-32"/>
       <path d="M 6.453125 52.296875 
L 14.796875 52.296875 
L 14.796875 44.875 
Q 18.5 49.46875 22.65625 51.46875 
Q 26.8125 53.46875 31.890625 53.46875 
Q 43.015625 53.46875 46.921875 45.703125 
Q 49.078125 41.453125 49.078125 33.546875 
L 49.078125 0 
L 40.140625 0 
L 40.140625 32.953125 
Q 40.140625 37.75 38.71875 40.671875 
Q 36.375 45.5625 30.21875 45.5625 
Q 27.09375 45.5625 25.09375 44.921875 
Q 21.484375 43.84375 18.75 40.625 
Q 16.546875 38.03125 15.890625 35.265625 
Q 15.234375 32.515625 15.234375 27.390625 
L 15.234375 0 
L 6.453125 0 
z
M 27.09375 53.5625 
z
" id="Helvetica-110"/>
       <path d="M 11.671875 16.40625 
Q 12.0625 12.015625 13.875 9.671875 
Q 17.1875 5.421875 25.390625 5.421875 
Q 30.28125 5.421875 33.984375 7.546875 
Q 37.703125 9.671875 37.703125 14.109375 
Q 37.703125 17.484375 34.71875 19.234375 
Q 32.8125 20.3125 27.203125 21.734375 
L 20.21875 23.484375 
Q 13.53125 25.140625 10.359375 27.203125 
Q 4.6875 30.765625 4.6875 37.0625 
Q 4.6875 44.484375 10.03125 49.0625 
Q 15.375 53.65625 24.421875 53.65625 
Q 36.234375 53.65625 41.453125 46.734375 
Q 44.734375 42.328125 44.625 37.25 
L 36.328125 37.25 
Q 36.078125 40.234375 34.234375 42.671875 
Q 31.203125 46.140625 23.734375 46.140625 
Q 18.75 46.140625 16.1875 44.234375 
Q 13.625 42.328125 13.625 39.203125 
Q 13.625 35.796875 17 33.734375 
Q 18.953125 32.515625 22.75 31.59375 
L 28.5625 30.171875 
Q 38.03125 27.875 41.265625 25.734375 
Q 46.390625 22.359375 46.390625 15.140625 
Q 46.390625 8.15625 41.09375 3.078125 
Q 35.796875 -2 24.953125 -2 
Q 13.28125 -2 8.421875 3.296875 
Q 3.5625 8.59375 3.21875 16.40625 
z
M 24.65625 53.5625 
z
" id="Helvetica-115"/>
       <path d="M 39.109375 52.296875 
L 48.828125 52.296875 
Q 46.96875 47.265625 40.578125 29.34375 
Q 35.796875 15.875 32.5625 7.375 
Q 24.953125 -12.640625 21.828125 -17.03125 
Q 18.703125 -21.4375 11.078125 -21.4375 
Q 9.234375 -21.4375 8.234375 -21.28125 
Q 7.234375 -21.140625 5.765625 -20.75 
L 5.765625 -12.75 
Q 8.0625 -13.375 9.078125 -13.515625 
Q 10.109375 -13.671875 10.890625 -13.671875 
Q 13.328125 -13.671875 14.46875 -12.859375 
Q 15.625 -12.0625 16.40625 -10.890625 
Q 16.65625 -10.5 18.15625 -6.875 
Q 19.671875 -3.265625 20.359375 -1.515625 
L 1.03125 52.296875 
L 10.984375 52.296875 
L 25 9.71875 
z
M 24.953125 53.5625 
z
" id="Helvetica-121"/>
      </defs>
      <use xlink:href="#Helvetica-82"/>
      <use x="72.216797" xlink:href="#Helvetica-101"/>
      <use x="127.832031" xlink:href="#Helvetica-108"/>
      <use x="150.048828" xlink:href="#Helvetica-97"/>
      <use x="205.664062" xlink:href="#Helvetica-116"/>
      <use x="233.447266" xlink:href="#Helvetica-105"/>
      <use x="255.664062" xlink:href="#Helvetica-118"/>
      <use x="305.664062" xlink:href="#Helvetica-101"/>
      <use x="361.279297" xlink:href="#Helvetica-32"/>
      <use x="389.0625" xlink:href="#Helvetica-105"/>
      <use x="411.279297" xlink:href="#Helvetica-110"/>
      <use x="466.894531" xlink:href="#Helvetica-116"/>
      <use x="494.677734" xlink:href="#Helvetica-101"/>
      <use x="550.292969" xlink:href="#Helvetica-110"/>
      <use x="605.908203" xlink:href="#Helvetica-115"/>
      <use x="655.908203" xlink:href="#Helvetica-105"/>
      <use x="678.125" xlink:href="#Helvetica-116"/>
      <use x="705.908203" xlink:href="#Helvetica-121"/>
     </g>
    </g>
   </g>
   <g id="line2d_8">
    <path clip-path="url(#p604fc50dc3)" d="M 62.694412 107.028351 
" style="fill:none;stroke:#4c72b0;stroke-linecap:square;stroke-width:1.5;"/>
    <defs>
     <path d="M 0 3 
C 0.795609 3 1.55874 2.683901 2.12132 2.12132 
C 2.683901 1.55874 3 0.795609 3 0 
C 3 -0.795609 2.683901 -1.55874 2.12132 -2.12132 
C 1.55874 -2.683901 0.795609 -3 0 -3 
C -0.795609 -3 -1.55874 -2.683901 -2.12132 -2.12132 
C -2.683901 -1.55874 -3 -0.795609 -3 0 
C -3 0.795609 -2.683901 1.55874 -2.12132 2.12132 
C -1.55874 2.683901 -0.795609 3 0 3 
z
" id="m28cddf1a07" style="stroke:#4c72b0;"/>
    </defs>
    <g clip-path="url(#p604fc50dc3)">
     <use style="fill:#4c72b0;stroke:#4c72b0;" x="62.694412" xlink:href="#m28cddf1a07" y="107.028351"/>
    </g>
   </g>
   <g id="line2d_9">
    <path clip-path="url(#p604fc50dc3)" d="M 48.53 107.028351 
L 76.858824 107.028351 
" style="fill:none;stroke:#4c72b0;stroke-dasharray:1.85,0.8;stroke-dashoffset:0;stroke-width:0.5;"/>
   </g>
   <g id="line2d_10">
    <path clip-path="url(#p604fc50dc3)" d="M 62.694412 128.745718 
" style="fill:none;stroke:#dd8452;stroke-linecap:square;stroke-width:1.5;"/>
    <defs>
     <path d="M 0 3 
C 0.795609 3 1.55874 2.683901 2.12132 2.12132 
C 2.683901 1.55874 3 0.795609 3 0 
C 3 -0.795609 2.683901 -1.55874 2.12132 -2.12132 
C 1.55874 -2.683901 0.795609 -3 0 -3 
C -0.795609 -3 -1.55874 -2.683901 -2.12132 -2.12132 
C -2.683901 -1.55874 -3 -0.795609 -3 0 
C -3 0.795609 -2.683901 1.55874 -2.12132 2.12132 
C -1.55874 2.683901 -0.795609 3 0 3 
z
" id="m5aa040755b" style="stroke:#dd8452;"/>
    </defs>
    <g clip-path="url(#p604fc50dc3)">
     <use style="fill:#dd8452;stroke:#dd8452;" x="62.694412" xlink:href="#m5aa040755b" y="128.745718"/>
    </g>
   </g>
   <g id="line2d_11">
    <path clip-path="url(#p604fc50dc3)" d="M 48.53 128.745718 
L 76.858824 128.745718 
" style="fill:none;stroke:#dd8452;stroke-dasharray:1.85,0.8;stroke-dashoffset:0;stroke-width:0.5;"/>
   </g>
   <g id="line2d_12">
    <path clip-path="url(#p604fc50dc3)" d="M 62.694412 206.858332 
" style="fill:none;stroke:#55a868;stroke-linecap:square;stroke-width:1.5;"/>
    <defs>
     <path d="M -3 3 
L 3 -3 
M -3 -3 
L 3 3 
" id="m5051107785" style="stroke:#55a868;"/>
    </defs>
    <g clip-path="url(#p604fc50dc3)">
     <use style="fill:#55a868;stroke:#55a868;" x="62.694412" xlink:href="#m5051107785" y="206.858332"/>
    </g>
   </g>
   <g id="line2d_13">
    <path clip-path="url(#p604fc50dc3)" d="M 48.53 206.858332 
L 76.858824 206.858332 
" style="fill:none;stroke:#55a868;stroke-dasharray:1.85,0.8;stroke-dashoffset:0;stroke-width:0.5;"/>
   </g>
   <g id="patch_3">
    <path d="M 48.53 242.44 
L 48.53 30.48 
" style="fill:none;stroke:#000000;stroke-linecap:square;stroke-linejoin:miter;stroke-width:1.3;"/>
   </g>
   <g id="patch_4">
    <path d="M 76.858824 242.44 
L 76.858824 30.48 
" style="fill:none;stroke:#000000;stroke-linecap:square;stroke-linejoin:miter;stroke-width:1.3;"/>
   </g>
   <g id="patch_5">
    <path d="M 48.53 242.44 
L 76.858824 242.44 
" style="fill:none;stroke:#000000;stroke-linecap:square;stroke-linejoin:miter;stroke-width:1.3;"/>
   </g>
   <g id="patch_6">
    <path d="M 48.53 30.48 
L 76.858824 30.48 
" style="fill:none;stroke:#000000;stroke-linecap:square;stroke-linejoin:miter;stroke-width:1.3;"/>
   </g>
   <g id="text_9">
    <!-- (a) -->
    <g transform="translate(52.779324 44.849513)scale(0.14 -0.14)">
     <defs>
      <path d="M 10.0625 53.8125 
Q 13.921875 62.796875 21.34375 73.140625 
L 31.84375 73.140625 
L 28.859375 67.671875 
Q 22.703125 56.390625 20.3125 44.046875 
Q 18.75 35.9375 18.75 26.375 
Q 18.75 11.421875 23.09375 -1.125 
Q 25.640625 -8.546875 32.078125 -20.171875 
L 21.78125 -20.171875 
L 18.3125 -15.4375 
Q 14.9375 -11.140625 11.140625 -2.640625 
Q 4.34375 12.546875 4.34375 27.25 
Q 4.34375 40.625 10.0625 53.8125 
z
" id="Helvetica-Bold-40"/>
      <path d="M 35.84375 25.875 
Q 34.515625 25.046875 33.171875 24.53125 
Q 31.84375 24.03125 29.5 23.578125 
L 26.375 23 
Q 21.96875 22.21875 20.0625 21.09375 
Q 16.84375 19.1875 16.84375 15.1875 
Q 16.84375 11.625 18.8125 10.03125 
Q 20.796875 8.453125 23.640625 8.453125 
Q 28.125 8.453125 31.90625 11.078125 
Q 35.6875 13.71875 35.84375 20.703125 
z
M 27.390625 32.375 
Q 31.25 32.859375 32.90625 33.59375 
Q 35.890625 34.859375 35.890625 37.546875 
Q 35.890625 40.828125 33.609375 42.0625 
Q 31.34375 43.3125 26.953125 43.3125 
Q 22.015625 43.3125 19.96875 40.875 
Q 18.5 39.0625 18.015625 35.984375 
L 4.59375 35.984375 
Q 5.03125 42.96875 8.5 47.46875 
Q 14.015625 54.5 27.4375 54.5 
Q 36.1875 54.5 42.96875 51.03125 
Q 49.75 47.5625 49.75 37.9375 
L 49.75 13.53125 
Q 49.75 10.984375 49.859375 7.375 
Q 50 4.640625 50.6875 3.65625 
Q 51.375 2.6875 52.734375 2.046875 
L 52.734375 0 
L 37.59375 0 
Q 36.96875 1.609375 36.71875 3.015625 
Q 36.46875 4.4375 36.328125 6.25 
Q 33.453125 3.125 29.6875 0.921875 
Q 25.203125 -1.65625 19.53125 -1.65625 
Q 12.3125 -1.65625 7.59375 2.46875 
Q 2.875 6.59375 2.875 14.15625 
Q 2.875 23.96875 10.453125 28.375 
Q 14.59375 30.765625 22.65625 31.78125 
z
M 28.125 54.640625 
z
" id="Helvetica-Bold-97"/>
      <path d="M 11.765625 73.140625 
Q 19.1875 62.796875 23.046875 53.8125 
Q 28.765625 40.625 28.765625 27.25 
Q 28.765625 12.546875 21.96875 -2.640625 
Q 18.171875 -11.140625 14.796875 -15.4375 
L 11.328125 -20.171875 
L 1.03125 -20.171875 
Q 7.46875 -8.546875 10.015625 -1.125 
Q 14.359375 11.421875 14.359375 26.375 
Q 14.359375 35.9375 12.796875 44.046875 
Q 10.40625 56.390625 4.25 67.671875 
L 1.265625 73.140625 
L 11.765625 73.140625 
z
" id="Helvetica-Bold-41"/>
     </defs>
     <use xlink:href="#Helvetica-Bold-40"/>
     <use x="33.300781" xlink:href="#Helvetica-Bold-97"/>
     <use x="88.916016" xlink:href="#Helvetica-Bold-41"/>
    </g>
   </g>
   <g id="text_10">
    <!-- MFA -->
    <g transform="translate(47.496787 24.48)scale(0.144 -0.144)">
     <use xlink:href="#Helvetica-77"/>
     <use x="83.300781" xlink:href="#Helvetica-70"/>
     <use x="144.384766" xlink:href="#Helvetica-65"/>
    </g>
   </g>
  </g>
  <g id="axes_2">
   <g id="patch_7">
    <path d="M 93.318824 242.44 
L 319.949412 242.44 
L 319.949412 30.48 
L 93.318824 30.48 
z
" style="fill:#ffffff;"/>
   </g>
   <g id="matplotlib.axis_3">
    <g id="xtick_2">
     <g id="line2d_14">
      <g>
       <use style="stroke:#000000;stroke-width:0.8;" x="309.648021" xlink:href="#mde800611f7" y="242.44"/>
      </g>
     </g>
     <g id="text_11">
      <!-- 0.4 -->
      <g transform="translate(302.700801 256.610568)scale(0.09996 -0.09996)">
       <use xlink:href="#Helvetica-48"/>
       <use x="55.615234" xlink:href="#Helvetica-46"/>
       <use x="83.398438" xlink:href="#Helvetica-52"/>
      </g>
     </g>
    </g>
    <g id="xtick_3">
     <g id="line2d_15">
      <g>
       <use style="stroke:#000000;stroke-width:0.8;" x="275.310053" xlink:href="#mde800611f7" y="242.44"/>
      </g>
     </g>
     <g id="text_12">
      <!-- 0.5 -->
      <g transform="translate(268.362833 256.610568)scale(0.09996 -0.09996)">
       <defs>
        <path d="M 12.359375 17.828125 
Q 13.234375 10.296875 19.34375 7.421875 
Q 22.46875 5.953125 26.5625 5.953125 
Q 34.375 5.953125 38.125 10.9375 
Q 41.890625 15.921875 41.890625 21.96875 
Q 41.890625 29.296875 37.421875 33.296875 
Q 32.953125 37.3125 26.703125 37.3125 
Q 22.171875 37.3125 18.921875 35.546875 
Q 15.671875 33.796875 13.375 30.671875 
L 5.765625 31.109375 
L 11.078125 68.75 
L 47.40625 68.75 
L 47.40625 60.25 
L 17.671875 60.25 
L 14.703125 40.828125 
Q 17.140625 42.671875 19.34375 43.609375 
Q 23.25 45.21875 28.375 45.21875 
Q 37.984375 45.21875 44.671875 39.015625 
Q 51.375 32.8125 51.375 23.296875 
Q 51.375 13.375 45.234375 5.796875 
Q 39.109375 -1.765625 25.6875 -1.765625 
Q 17.140625 -1.765625 10.5625 3.046875 
Q 4 7.859375 3.21875 17.828125 
z
" id="Helvetica-53"/>
       </defs>
       <use xlink:href="#Helvetica-48"/>
       <use x="55.615234" xlink:href="#Helvetica-46"/>
       <use x="83.398438" xlink:href="#Helvetica-53"/>
      </g>
     </g>
    </g>
    <g id="xtick_4">
     <g id="line2d_16">
      <g>
       <use style="stroke:#000000;stroke-width:0.8;" x="240.972086" xlink:href="#mde800611f7" y="242.44"/>
      </g>
     </g>
     <g id="text_13">
      <!-- 0.6 -->
      <g transform="translate(234.024866 256.610568)scale(0.09996 -0.09996)">
       <use xlink:href="#Helvetica-48"/>
       <use x="55.615234" xlink:href="#Helvetica-46"/>
       <use x="83.398438" xlink:href="#Helvetica-54"/>
      </g>
     </g>
    </g>
    <g id="xtick_5">
     <g id="line2d_17">
      <g>
       <use style="stroke:#000000;stroke-width:0.8;" x="206.634118" xlink:href="#mde800611f7" y="242.44"/>
      </g>
     </g>
     <g id="text_14">
      <!-- 0.7 -->
      <g transform="translate(199.686898 256.610568)scale(0.09996 -0.09996)">
       <defs>
        <path d="M 52.296875 68.75 
L 52.296875 61.078125 
Q 48.921875 57.8125 43.328125 49.703125 
Q 37.75 41.609375 33.453125 32.234375 
Q 29.203125 23.09375 27 15.578125 
Q 25.59375 10.75 23.34375 0 
L 13.625 0 
Q 16.9375 20.015625 28.265625 39.84375 
Q 34.96875 51.46875 42.328125 59.90625 
L 3.65625 59.90625 
L 3.65625 68.75 
z
" id="Helvetica-55"/>
       </defs>
       <use xlink:href="#Helvetica-48"/>
       <use x="55.615234" xlink:href="#Helvetica-46"/>
       <use x="83.398438" xlink:href="#Helvetica-55"/>
      </g>
     </g>
    </g>
    <g id="xtick_6">
     <g id="line2d_18">
      <g>
       <use style="stroke:#000000;stroke-width:0.8;" x="172.29615" xlink:href="#mde800611f7" y="242.44"/>
      </g>
     </g>
     <g id="text_15">
      <!-- 0.8 -->
      <g transform="translate(165.34893 256.610568)scale(0.09996 -0.09996)">
       <use xlink:href="#Helvetica-48"/>
       <use x="55.615234" xlink:href="#Helvetica-46"/>
       <use x="83.398438" xlink:href="#Helvetica-56"/>
      </g>
     </g>
    </g>
    <g id="xtick_7">
     <g id="line2d_19">
      <g>
       <use style="stroke:#000000;stroke-width:0.8;" x="137.958182" xlink:href="#mde800611f7" y="242.44"/>
      </g>
     </g>
     <g id="text_16">
      <!-- 0.9 -->
      <g transform="translate(131.010962 256.610568)scale(0.09996 -0.09996)">
       <defs>
        <path d="M 13.28125 16.890625 
Q 13.671875 9.625 18.890625 6.84375 
Q 21.578125 5.375 24.953125 5.375 
Q 31.25 5.375 35.6875 10.625 
Q 40.140625 15.875 42 31.9375 
Q 39.0625 27.296875 34.734375 25.40625 
Q 30.421875 23.53125 25.4375 23.53125 
Q 15.328125 23.53125 9.4375 29.828125 
Q 3.5625 36.140625 3.5625 46.046875 
Q 3.5625 55.5625 9.375 62.78125 
Q 15.1875 70.015625 26.515625 70.015625 
Q 41.796875 70.015625 47.609375 56.25 
Q 50.828125 48.6875 50.828125 37.3125 
Q 50.828125 24.46875 46.96875 14.546875 
Q 40.578125 -1.953125 25.296875 -1.953125 
Q 15.046875 -1.953125 9.71875 3.421875 
Q 4.390625 8.796875 4.390625 16.890625 
z
M 26.609375 31.25 
Q 31.84375 31.25 36.15625 34.6875 
Q 40.484375 38.140625 40.484375 46.734375 
Q 40.484375 54.4375 36.59375 58.21875 
Q 32.71875 62.015625 26.703125 62.015625 
Q 20.265625 62.015625 16.484375 57.6875 
Q 12.703125 53.375 12.703125 46.140625 
Q 12.703125 39.3125 16.015625 35.28125 
Q 19.34375 31.25 26.609375 31.25 
z
" id="Helvetica-57"/>
       </defs>
       <use xlink:href="#Helvetica-48"/>
       <use x="55.615234" xlink:href="#Helvetica-46"/>
       <use x="83.398438" xlink:href="#Helvetica-57"/>
      </g>
     </g>
    </g>
    <g id="xtick_8">
     <g id="line2d_20">
      <g>
       <use style="stroke:#000000;stroke-width:0.8;" x="103.620214" xlink:href="#mde800611f7" y="242.44"/>
      </g>
     </g>
     <g id="text_17">
      <!-- 1.0 -->
      <g transform="translate(96.672994 256.610568)scale(0.09996 -0.09996)">
       <use xlink:href="#Helvetica-49"/>
       <use x="55.615234" xlink:href="#Helvetica-46"/>
       <use x="83.398438" xlink:href="#Helvetica-48"/>
      </g>
     </g>
    </g>
    <g id="text_18">
     <!-- value of $f$ -->
     <g transform="translate(182.274118 271.302234)scale(0.12 -0.12)">
      <defs>
       <path d="M 15.234375 52.296875 
L 15.234375 17.578125 
Q 15.234375 13.578125 16.5 11.03125 
Q 18.84375 6.34375 25.25 6.34375 
Q 34.421875 6.34375 37.75 14.546875 
Q 39.546875 18.953125 39.546875 26.609375 
L 39.546875 52.296875 
L 48.34375 52.296875 
L 48.34375 0 
L 40.046875 0 
L 40.140625 7.71875 
Q 38.421875 4.734375 35.890625 2.6875 
Q 30.859375 -1.421875 23.6875 -1.421875 
Q 12.5 -1.421875 8.453125 6.0625 
Q 6.25 10.0625 6.25 16.75 
L 6.25 52.296875 
z
M 27.296875 53.5625 
z
" id="Helvetica-117"/>
       <path d="M 27.203125 5.671875 
Q 35.9375 5.671875 39.1875 12.28125 
Q 42.4375 18.890625 42.4375 27 
Q 42.4375 34.328125 40.09375 38.921875 
Q 36.375 46.140625 27.296875 46.140625 
Q 19.234375 46.140625 15.578125 39.984375 
Q 11.921875 33.84375 11.921875 25.140625 
Q 11.921875 16.796875 15.578125 11.234375 
Q 19.234375 5.671875 27.203125 5.671875 
z
M 27.546875 53.8125 
Q 37.640625 53.8125 44.625 47.0625 
Q 51.609375 40.328125 51.609375 27.25 
Q 51.609375 14.59375 45.453125 6.34375 
Q 39.3125 -1.90625 26.375 -1.90625 
Q 15.578125 -1.90625 9.21875 5.390625 
Q 2.875 12.703125 2.875 25 
Q 2.875 38.1875 9.5625 46 
Q 16.265625 53.8125 27.546875 53.8125 
z
M 27.25 53.5625 
z
" id="Helvetica-111"/>
       <path d="M 8.640625 60.25 
Q 8.84375 65.71875 10.546875 68.265625 
Q 13.625 72.75 22.40625 72.75 
Q 23.25 72.75 24.125 72.703125 
Q 25 72.65625 26.125 72.5625 
L 26.125 64.546875 
Q 24.75 64.65625 24.140625 64.671875 
Q 23.53125 64.703125 23 64.703125 
Q 19 64.703125 18.21875 62.625 
Q 17.4375 60.546875 17.4375 52.046875 
L 26.125 52.046875 
L 26.125 45.125 
L 17.328125 45.125 
L 17.328125 0 
L 8.640625 0 
L 8.640625 45.125 
L 1.375 45.125 
L 1.375 52.046875 
L 8.640625 52.046875 
L 8.640625 60.25 
z
" id="Helvetica-102"/>
       <path d="M 25.046875 68.265625 
Q 29.046875 72.75 37.84375 72.75 
Q 38.671875 72.75 39.546875 72.703125 
Q 40.4375 72.65625 41.5 72.5625 
L 39.796875 64.546875 
Q 38.484375 64.65625 37.859375 64.671875 
Q 37.25 64.703125 36.71875 64.703125 
Q 32.71875 64.703125 31.5 62.625 
Q 30.28125 60.546875 28.46875 52.046875 
L 37.15625 52.046875 
L 35.6875 45.125 
L 26.90625 45.125 
L 17.328125 0 
L 8.640625 0 
L 18.21875 45.125 
L 10.9375 45.125 
L 12.40625 52.046875 
L 19.671875 52.046875 
L 21.4375 60.25 
Q 22.796875 65.71875 25.046875 68.265625 
z
" id="Helvetica-Oblique-102"/>
      </defs>
      <use transform="translate(0 0.25)" xlink:href="#Helvetica-118"/>
      <use transform="translate(50 0.25)" xlink:href="#Helvetica-97"/>
      <use transform="translate(105.615234 0.25)" xlink:href="#Helvetica-108"/>
      <use transform="translate(127.832031 0.25)" xlink:href="#Helvetica-117"/>
      <use transform="translate(183.447266 0.25)" xlink:href="#Helvetica-101"/>
      <use transform="translate(239.0625 0.25)" xlink:href="#Helvetica-32"/>
      <use transform="translate(266.845703 0.25)" xlink:href="#Helvetica-111"/>
      <use transform="translate(322.460938 0.25)" xlink:href="#Helvetica-102"/>
      <use transform="translate(350.244141 0.25)" xlink:href="#Helvetica-32"/>
      <use transform="translate(378.027344 0.25)" xlink:href="#Helvetica-Oblique-102"/>
     </g>
    </g>
   </g>
   <g id="matplotlib.axis_4">
    <g id="ytick_7">
     <g id="line2d_21">
      <g>
       <use style="stroke:#000000;stroke-width:0.8;" x="93.318824" xlink:href="#mf3df1df63a" y="233.608333"/>
      </g>
     </g>
    </g>
    <g id="ytick_8">
     <g id="line2d_22">
      <g>
       <use style="stroke:#000000;stroke-width:0.8;" x="93.318824" xlink:href="#mf3df1df63a" y="198.281667"/>
      </g>
     </g>
    </g>
    <g id="ytick_9">
     <g id="line2d_23">
      <g>
       <use style="stroke:#000000;stroke-width:0.8;" x="93.318824" xlink:href="#mf3df1df63a" y="162.955"/>
      </g>
     </g>
    </g>
    <g id="ytick_10">
     <g id="line2d_24">
      <g>
       <use style="stroke:#000000;stroke-width:0.8;" x="93.318824" xlink:href="#mf3df1df63a" y="127.628333"/>
      </g>
     </g>
    </g>
    <g id="ytick_11">
     <g id="line2d_25">
      <g>
       <use style="stroke:#000000;stroke-width:0.8;" x="93.318824" xlink:href="#mf3df1df63a" y="92.301667"/>
      </g>
     </g>
    </g>
    <g id="ytick_12">
     <g id="line2d_26">
      <g>
       <use style="stroke:#000000;stroke-width:0.8;" x="93.318824" xlink:href="#mf3df1df63a" y="56.975"/>
      </g>
     </g>
    </g>
   </g>
   <g id="line2d_27">
    <path clip-path="url(#p29b9c5fe78)" d="M 103.620214 57.247674 
L 137.958182 76.9802 
L 172.29615 94.031815 
L 206.634118 111.230515 
L 240.972086 128.741793 
L 275.310053 144.763691 
L 309.648021 161.652239 
" style="fill:none;stroke:#4c72b0;stroke-linecap:square;stroke-width:1.5;"/>
    <g clip-path="url(#p29b9c5fe78)">
     <use style="fill:#4c72b0;stroke:#4c72b0;" x="103.620214" xlink:href="#m28cddf1a07" y="57.247674"/>
     <use style="fill:#4c72b0;stroke:#4c72b0;" x="137.958182" xlink:href="#m28cddf1a07" y="76.9802"/>
     <use style="fill:#4c72b0;stroke:#4c72b0;" x="172.29615" xlink:href="#m28cddf1a07" y="94.031815"/>
     <use style="fill:#4c72b0;stroke:#4c72b0;" x="206.634118" xlink:href="#m28cddf1a07" y="111.230515"/>
     <use style="fill:#4c72b0;stroke:#4c72b0;" x="240.972086" xlink:href="#m28cddf1a07" y="128.741793"/>
     <use style="fill:#4c72b0;stroke:#4c72b0;" x="275.310053" xlink:href="#m28cddf1a07" y="144.763691"/>
     <use style="fill:#4c72b0;stroke:#4c72b0;" x="309.648021" xlink:href="#m28cddf1a07" y="161.652239"/>
    </g>
   </g>
   <g id="line2d_28">
    <path clip-path="url(#p29b9c5fe78)" d="M 103.620214 184.311643 
L 137.958182 136.662659 
L 172.29615 119.243094 
L 206.634118 106.871086 
L 240.972086 97.689078 
L 275.310053 89.936926 
L 309.648021 84.509976 
" style="fill:none;stroke:#dd8452;stroke-linecap:square;stroke-width:1.5;"/>
    <g clip-path="url(#p29b9c5fe78)">
     <use style="fill:#dd8452;stroke:#dd8452;" x="103.620214" xlink:href="#m5aa040755b" y="184.311643"/>
     <use style="fill:#dd8452;stroke:#dd8452;" x="137.958182" xlink:href="#m5aa040755b" y="136.662659"/>
     <use style="fill:#dd8452;stroke:#dd8452;" x="172.29615" xlink:href="#m5aa040755b" y="119.243094"/>
     <use style="fill:#dd8452;stroke:#dd8452;" x="206.634118" xlink:href="#m5aa040755b" y="106.871086"/>
     <use style="fill:#dd8452;stroke:#dd8452;" x="240.972086" xlink:href="#m5aa040755b" y="97.689078"/>
     <use style="fill:#dd8452;stroke:#dd8452;" x="275.310053" xlink:href="#m5aa040755b" y="89.936926"/>
     <use style="fill:#dd8452;stroke:#dd8452;" x="309.648021" xlink:href="#m5aa040755b" y="84.509976"/>
    </g>
   </g>
   <g id="line2d_29">
    <path clip-path="url(#p29b9c5fe78)" d="M 103.620214 68.397898 
L 137.958182 70.296672 
L 172.29615 71.028138 
L 206.634118 71.774698 
L 240.972086 72.443181 
L 275.310053 71.515102 
L 309.648021 72.410072 
" style="fill:none;stroke:#55a868;stroke-linecap:square;stroke-width:1.5;"/>
    <g clip-path="url(#p29b9c5fe78)">
     <use style="fill:#55a868;stroke:#55a868;" x="103.620214" xlink:href="#m5051107785" y="68.397898"/>
     <use style="fill:#55a868;stroke:#55a868;" x="137.958182" xlink:href="#m5051107785" y="70.296672"/>
     <use style="fill:#55a868;stroke:#55a868;" x="172.29615" xlink:href="#m5051107785" y="71.028138"/>
     <use style="fill:#55a868;stroke:#55a868;" x="206.634118" xlink:href="#m5051107785" y="71.774698"/>
     <use style="fill:#55a868;stroke:#55a868;" x="240.972086" xlink:href="#m5051107785" y="72.443181"/>
     <use style="fill:#55a868;stroke:#55a868;" x="275.310053" xlink:href="#m5051107785" y="71.515102"/>
     <use style="fill:#55a868;stroke:#55a868;" x="309.648021" xlink:href="#m5051107785" y="72.410072"/>
    </g>
   </g>
   <g id="line2d_30">
    <path clip-path="url(#p29b9c5fe78)" d="M 93.318824 107.028351 
L 319.949412 107.028351 
" style="fill:none;stroke:#4c72b0;stroke-dasharray:1.85,0.8;stroke-dashoffset:0;stroke-width:0.5;"/>
   </g>
   <g id="line2d_31">
    <path clip-path="url(#p29b9c5fe78)" d="M 93.318824 128.745718 
L 319.949412 128.745718 
" style="fill:none;stroke:#dd8452;stroke-dasharray:1.85,0.8;stroke-dashoffset:0;stroke-width:0.5;"/>
   </g>
   <g id="line2d_32">
    <path clip-path="url(#p29b9c5fe78)" d="M 93.318824 206.858332 
L 319.949412 206.858332 
" style="fill:none;stroke:#55a868;stroke-dasharray:1.85,0.8;stroke-dashoffset:0;stroke-width:0.5;"/>
   </g>
   <g id="patch_8">
    <path d="M 93.318824 242.44 
L 93.318824 30.48 
" style="fill:none;stroke:#000000;stroke-linecap:square;stroke-linejoin:miter;stroke-width:1.3;"/>
   </g>
   <g id="patch_9">
    <path d="M 319.949412 242.44 
L 319.949412 30.48 
" style="fill:none;stroke:#000000;stroke-linecap:square;stroke-linejoin:miter;stroke-width:1.3;"/>
   </g>
   <g id="patch_10">
    <path d="M 93.318824 242.44 
L 319.949412 242.44 
" style="fill:none;stroke:#000000;stroke-linecap:square;stroke-linejoin:miter;stroke-width:1.3;"/>
   </g>
   <g id="patch_11">
    <path d="M 93.318824 30.48 
L 319.949412 30.48 
" style="fill:none;stroke:#000000;stroke-linecap:square;stroke-linejoin:miter;stroke-width:1.3;"/>
   </g>
   <g id="text_19">
    <!-- (b) -->
    <g transform="translate(97.851435 44.849513)scale(0.14 -0.14)">
     <defs>
      <path d="M 35.25 54.390625 
Q 45.75 54.390625 51.6875 46.828125 
Q 57.625 39.265625 57.625 27.296875 
Q 57.625 14.890625 51.765625 6.734375 
Q 45.90625 -1.421875 35.40625 -1.421875 
Q 28.8125 -1.421875 24.8125 1.21875 
Q 22.40625 2.78125 19.625 6.6875 
L 19.625 0 
L 6 0 
L 6 71.875 
L 19.875 71.875 
L 19.875 46.296875 
Q 22.515625 50 25.6875 51.953125 
Q 29.4375 54.390625 35.25 54.390625 
z
M 31.6875 10.0625 
Q 37.0625 10.0625 40.03125 14.40625 
Q 43.015625 18.75 43.015625 25.828125 
Q 43.015625 31.5 41.546875 35.203125 
Q 38.765625 42.234375 31.296875 42.234375 
Q 23.734375 42.234375 20.90625 35.359375 
Q 19.4375 31.6875 19.4375 25.875 
Q 19.4375 19.046875 22.453125 14.546875 
Q 25.484375 10.0625 31.6875 10.0625 
z
" id="Helvetica-Bold-98"/>
     </defs>
     <use xlink:href="#Helvetica-Bold-40"/>
     <use x="33.300781" xlink:href="#Helvetica-Bold-98"/>
     <use x="94.384766" xlink:href="#Helvetica-Bold-41"/>
    </g>
   </g>
   <g id="text_20">
    <!-- NOAH-3 SS$\rm C^c$ -->
    <g transform="translate(159.834118 24.48)scale(0.144 -0.144)">
     <defs>
      <path d="M 7.625 71.734375 
L 19.09375 71.734375 
L 55.328125 13.625 
L 55.328125 71.734375 
L 64.546875 71.734375 
L 64.546875 0 
L 53.65625 0 
L 16.890625 58.0625 
L 16.890625 0 
L 7.625 0 
z
M 35.453125 71.734375 
z
" id="Helvetica-78"/>
      <path d="M 38.578125 73.6875 
Q 57.5625 73.6875 66.703125 61.46875 
Q 73.828125 51.953125 73.828125 37.109375 
Q 73.828125 21.046875 65.671875 10.40625 
Q 56.109375 -2.09375 38.375 -2.09375 
Q 21.828125 -2.09375 12.359375 8.84375 
Q 3.90625 19.390625 3.90625 35.5 
Q 3.90625 50.046875 11.140625 60.40625 
Q 20.40625 73.6875 38.578125 73.6875 
z
M 39.546875 6.59375 
Q 52.390625 6.59375 58.125 15.796875 
Q 63.875 25 63.875 36.96875 
Q 63.875 49.609375 57.25 57.328125 
Q 50.640625 65.046875 39.15625 65.046875 
Q 28.03125 65.046875 21 57.390625 
Q 13.96875 49.75 13.96875 34.859375 
Q 13.96875 22.953125 20 14.765625 
Q 26.03125 6.59375 39.546875 6.59375 
z
M 38.875 73.6875 
z
" id="Helvetica-79"/>
      <path d="M 7.859375 71.734375 
L 17.671875 71.734375 
L 17.671875 42.09375 
L 54.984375 42.09375 
L 54.984375 71.734375 
L 64.796875 71.734375 
L 64.796875 0 
L 54.984375 0 
L 54.984375 33.546875 
L 17.671875 33.546875 
L 17.671875 0 
L 7.859375 0 
z
" id="Helvetica-72"/>
      <path d="M 4.15625 32.375 
L 28.65625 32.375 
L 28.65625 23.34375 
L 4.15625 23.34375 
z
" id="Helvetica-45"/>
      <path d="M 25.984375 -1.90625 
Q 13.578125 -1.90625 7.984375 4.90625 
Q 2.390625 11.71875 2.390625 21.484375 
L 11.578125 21.484375 
Q 12.15625 14.703125 14.109375 11.625 
Q 17.53125 6.109375 26.46875 6.109375 
Q 33.40625 6.109375 37.59375 9.8125 
Q 41.796875 13.53125 41.796875 19.390625 
Q 41.796875 26.609375 37.375 29.484375 
Q 32.953125 32.375 25.09375 32.375 
Q 24.21875 32.375 23.3125 32.34375 
Q 22.40625 32.328125 21.484375 32.28125 
L 21.484375 40.046875 
Q 22.859375 39.890625 23.78125 39.84375 
Q 24.703125 39.796875 25.78125 39.796875 
Q 30.71875 39.796875 33.890625 41.359375 
Q 39.453125 44.09375 39.453125 51.125 
Q 39.453125 56.34375 35.734375 59.171875 
Q 32.03125 62.015625 27.09375 62.015625 
Q 18.3125 62.015625 14.9375 56.15625 
Q 13.09375 52.9375 12.84375 46.96875 
L 4.15625 46.96875 
Q 4.15625 54.78125 7.28125 60.25 
Q 12.640625 70.015625 26.171875 70.015625 
Q 36.859375 70.015625 42.71875 65.25 
Q 48.578125 60.5 48.578125 51.46875 
Q 48.578125 45.015625 45.125 41.015625 
Q 42.96875 38.53125 39.546875 37.109375 
Q 45.0625 35.59375 48.15625 31.265625 
Q 51.265625 26.953125 51.265625 20.703125 
Q 51.265625 10.6875 44.671875 4.390625 
Q 38.09375 -1.90625 25.984375 -1.90625 
z
" id="Helvetica-51"/>
      <path d="M 13.96875 23.140625 
Q 14.3125 17.046875 16.84375 13.234375 
Q 21.6875 6.109375 33.890625 6.109375 
Q 39.359375 6.109375 43.84375 7.671875 
Q 52.546875 10.6875 52.546875 18.5 
Q 52.546875 24.359375 48.875 26.859375 
Q 45.171875 29.296875 37.25 31.109375 
L 27.546875 33.296875 
Q 18.015625 35.453125 14.0625 38.03125 
Q 7.234375 42.53125 7.234375 51.46875 
Q 7.234375 61.140625 13.921875 67.328125 
Q 20.609375 73.53125 32.859375 73.53125 
Q 44.140625 73.53125 52.015625 68.078125 
Q 59.90625 62.640625 59.90625 50.6875 
L 50.78125 50.6875 
Q 50.046875 56.453125 47.65625 59.515625 
Q 43.21875 65.140625 32.5625 65.140625 
Q 23.96875 65.140625 20.203125 61.515625 
Q 16.453125 57.90625 16.453125 53.125 
Q 16.453125 47.859375 20.84375 45.40625 
Q 23.734375 43.84375 33.890625 41.5 
L 43.953125 39.203125 
Q 51.21875 37.546875 55.171875 34.671875 
Q 62.015625 29.640625 62.015625 20.0625 
Q 62.015625 8.15625 53.34375 3.03125 
Q 44.671875 -2.09375 33.203125 -2.09375 
Q 19.828125 -2.09375 12.25 4.734375 
Q 4.6875 11.53125 4.828125 23.140625 
z
M 33.59375 73.6875 
z
" id="Helvetica-83"/>
      <path d="M 37.84375 73.6875 
Q 51.46875 73.6875 58.984375 66.5 
Q 66.5 59.328125 67.328125 50.203125 
L 57.859375 50.203125 
Q 56.25 57.125 51.4375 61.171875 
Q 46.625 65.234375 37.9375 65.234375 
Q 27.34375 65.234375 20.828125 57.78125 
Q 14.3125 50.34375 14.3125 34.96875 
Q 14.3125 22.359375 20.1875 14.515625 
Q 26.078125 6.6875 37.75 6.6875 
Q 48.484375 6.6875 54.109375 14.9375 
Q 57.078125 19.28125 58.546875 26.375 
L 68.015625 26.375 
Q 66.75 15.046875 59.625 7.375 
Q 51.078125 -1.859375 36.578125 -1.859375 
Q 24.078125 -1.859375 15.578125 5.71875 
Q 4.390625 15.71875 4.390625 36.625 
Q 4.390625 52.484375 12.796875 62.640625 
Q 21.875 73.6875 37.84375 73.6875 
z
M 35.890625 73.6875 
z
" id="Helvetica-67"/>
      <path d="M 26.609375 53.8125 
Q 35.453125 53.8125 40.984375 49.515625 
Q 46.53125 45.21875 47.65625 34.71875 
L 39.109375 34.71875 
Q 38.328125 39.546875 35.546875 42.75 
Q 32.765625 45.953125 26.609375 45.953125 
Q 18.21875 45.953125 14.59375 37.75 
Q 12.25 32.421875 12.25 24.609375 
Q 12.25 16.75 15.5625 11.375 
Q 18.890625 6 26.03125 6 
Q 31.5 6 34.6875 9.34375 
Q 37.890625 12.703125 39.109375 18.5 
L 47.65625 18.5 
Q 46.1875 8.109375 40.328125 3.296875 
Q 34.46875 -1.515625 25.34375 -1.515625 
Q 15.09375 -1.515625 8.984375 5.984375 
Q 2.875 13.484375 2.875 24.703125 
Q 2.875 38.484375 9.5625 46.140625 
Q 16.265625 53.8125 26.609375 53.8125 
z
M 25.25 53.5625 
z
" id="Helvetica-99"/>
     </defs>
     <use transform="translate(0 0.723438)" xlink:href="#Helvetica-78"/>
     <use transform="translate(72.216797 0.723438)" xlink:href="#Helvetica-79"/>
     <use transform="translate(150 0.723438)" xlink:href="#Helvetica-65"/>
     <use transform="translate(216.699219 0.723438)" xlink:href="#Helvetica-72"/>
     <use transform="translate(288.916016 0.723438)" xlink:href="#Helvetica-45"/>
     <use transform="translate(322.216797 0.723438)" xlink:href="#Helvetica-51"/>
     <use transform="translate(377.832031 0.723438)" xlink:href="#Helvetica-32"/>
     <use transform="translate(405.615234 0.723438)" xlink:href="#Helvetica-83"/>
     <use transform="translate(472.314453 0.723438)" xlink:href="#Helvetica-83"/>
     <use transform="translate(539.013672 0.723438)" xlink:href="#Helvetica-67"/>
     <use transform="translate(612.145664 37.33125)scale(0.7)" xlink:href="#Helvetica-99"/>
    </g>
   </g>
   <g id="legend_1">
    <g id="patch_12">
     <path d="M 221.798787 236.44 
L 311.549412 236.44 
Q 313.949412 236.44 313.949412 234.04 
L 313.949412 183.911875 
Q 313.949412 181.511875 311.549412 181.511875 
L 221.798787 181.511875 
Q 219.398787 181.511875 219.398787 183.911875 
L 219.398787 234.04 
Q 219.398787 236.44 221.798787 236.44 
z
" style="fill:#ffffff;opacity:0.8;stroke:#cccccc;stroke-linejoin:miter;"/>
    </g>
    <g id="line2d_33">
     <path d="M 224.198787 190.72 
L 248.198787 190.72 
" style="fill:none;stroke:#4c72b0;stroke-linecap:square;stroke-width:1.5;"/>
    </g>
    <g id="line2d_34">
     <g>
      <use style="fill:#4c72b0;stroke:#4c72b0;" x="236.198787" xlink:href="#m28cddf1a07" y="190.72"/>
     </g>
    </g>
    <g id="text_21">
     <!-- HSQC #1 -->
     <g transform="translate(257.798787 194.92)scale(0.12 -0.12)">
      <defs>
       <path d="M 73.25 0.203125 
L 68.359375 -5.71875 
L 57.28125 2.734375 
Q 53.265625 0.53125 48.609375 -0.78125 
Q 43.953125 -2.09375 38.421875 -2.09375 
Q 21.734375 -2.09375 12.25 8.84375 
Q 3.90625 19.484375 3.90625 35.5 
Q 3.90625 50.046875 11.140625 60.40625 
Q 20.40625 73.6875 38.578125 73.6875 
Q 57.5625 73.6875 66.703125 61.46875 
Q 73.828125 51.953125 73.828125 37.109375 
Q 73.828125 30.171875 72.125 23.78125 
Q 69.53125 14.015625 63.375 7.859375 
z
M 39.59375 6.59375 
Q 42.625 6.59375 45.265625 7 
Q 47.90625 7.421875 49.859375 8.640625 
L 42 14.796875 
L 46.875 20.796875 
L 56.25 13.53125 
Q 60.6875 18.609375 62.28125 24.90625 
Q 63.875 31.203125 63.875 36.96875 
Q 63.875 49.609375 57.25 57.328125 
Q 50.640625 65.046875 39.15625 65.046875 
Q 27.546875 65.046875 20.75 57.640625 
Q 13.96875 50.25 13.96875 34.859375 
Q 13.96875 21.921875 20.484375 14.25 
Q 27 6.59375 39.59375 6.59375 
z
" id="Helvetica-81"/>
       <path d="M 1.46875 27.390625 
L 12.84375 27.390625 
L 17.4375 44.1875 
L 6.109375 44.1875 
L 7.625 49.859375 
L 18.953125 49.859375 
L 24.75 71.734375 
L 32.03125 71.734375 
L 26.125 49.859375 
L 36.921875 49.859375 
L 42.921875 71.734375 
L 50.09375 71.734375 
L 44.1875 49.859375 
L 55.515625 49.859375 
L 54 44.1875 
L 42.671875 44.1875 
L 38.03125 27.390625 
L 49.421875 27.390625 
L 47.90625 21.734375 
L 36.671875 21.734375 
L 30.671875 0 
L 23.484375 0 
L 29.390625 21.734375 
L 18.5 21.734375 
L 12.703125 0 
L 5.421875 0 
L 11.328125 21.734375 
L 0 21.734375 
z
M 30.765625 27.390625 
L 35.40625 44.1875 
L 24.609375 44.1875 
L 20.125 27.390625 
z
" id="Helvetica-35"/>
      </defs>
      <use xlink:href="#Helvetica-72"/>
      <use x="72.216797" xlink:href="#Helvetica-83"/>
      <use x="138.916016" xlink:href="#Helvetica-81"/>
      <use x="216.699219" xlink:href="#Helvetica-67"/>
      <use x="288.916016" xlink:href="#Helvetica-32"/>
      <use x="316.699219" xlink:href="#Helvetica-35"/>
      <use x="372.314453" xlink:href="#Helvetica-49"/>
     </g>
    </g>
    <g id="line2d_35">
     <path d="M 224.198787 207.829375 
L 248.198787 207.829375 
" style="fill:none;stroke:#dd8452;stroke-linecap:square;stroke-width:1.5;"/>
    </g>
    <g id="line2d_36">
     <g>
      <use style="fill:#dd8452;stroke:#dd8452;" x="236.198787" xlink:href="#m5aa040755b" y="207.829375"/>
     </g>
    </g>
    <g id="text_22">
     <!-- HSQC #2 -->
     <g transform="translate(257.798787 212.029375)scale(0.12 -0.12)">
      <use xlink:href="#Helvetica-72"/>
      <use x="72.216797" xlink:href="#Helvetica-83"/>
      <use x="138.916016" xlink:href="#Helvetica-81"/>
      <use x="216.699219" xlink:href="#Helvetica-67"/>
      <use x="288.916016" xlink:href="#Helvetica-32"/>
      <use x="316.699219" xlink:href="#Helvetica-35"/>
      <use x="372.314453" xlink:href="#Helvetica-50"/>
     </g>
    </g>
    <g id="line2d_37">
     <path d="M 224.198787 224.93875 
L 248.198787 224.93875 
" style="fill:none;stroke:#55a868;stroke-linecap:square;stroke-width:1.5;"/>
    </g>
    <g id="line2d_38">
     <g>
      <use style="fill:#55a868;stroke:#55a868;" x="236.198787" xlink:href="#m5051107785" y="224.93875"/>
     </g>
    </g>
    <g id="text_23">
     <!-- COSY -->
     <g transform="translate(257.798787 229.13875)scale(0.12 -0.12)">
      <defs>
       <path d="M 2.046875 71.734375 
L 13.375 71.734375 
L 33.984375 37.25 
L 54.59375 71.734375 
L 65.96875 71.734375 
L 38.875 28.90625 
L 38.875 0 
L 29.15625 0 
L 29.15625 28.90625 
z
M 34.125 71.734375 
z
" id="Helvetica-89"/>
      </defs>
      <use xlink:href="#Helvetica-67"/>
      <use x="72.216797" xlink:href="#Helvetica-79"/>
      <use x="150" xlink:href="#Helvetica-83"/>
      <use x="216.699219" xlink:href="#Helvetica-89"/>
     </g>
    </g>
   </g>
  </g>
  <g id="axes_3">
   <g id="patch_13">
    <path d="M 336.409412 242.44 
L 563.04 242.44 
L 563.04 30.48 
L 336.409412 30.48 
z
" style="fill:#ffffff;"/>
   </g>
   <g id="matplotlib.axis_5">
    <g id="xtick_9">
     <g id="line2d_39">
      <g>
       <use style="stroke:#000000;stroke-width:0.8;" x="552.73861" xlink:href="#mde800611f7" y="242.44"/>
      </g>
     </g>
     <g id="text_24">
      <!-- 0.4 -->
      <g transform="translate(545.79139 256.610568)scale(0.09996 -0.09996)">
       <use xlink:href="#Helvetica-48"/>
       <use x="55.615234" xlink:href="#Helvetica-46"/>
       <use x="83.398438" xlink:href="#Helvetica-52"/>
      </g>
     </g>
    </g>
    <g id="xtick_10">
     <g id="line2d_40">
      <g>
       <use style="stroke:#000000;stroke-width:0.8;" x="518.400642" xlink:href="#mde800611f7" y="242.44"/>
      </g>
     </g>
     <g id="text_25">
      <!-- 0.5 -->
      <g transform="translate(511.453422 256.610568)scale(0.09996 -0.09996)">
       <use xlink:href="#Helvetica-48"/>
       <use x="55.615234" xlink:href="#Helvetica-46"/>
       <use x="83.398438" xlink:href="#Helvetica-53"/>
      </g>
     </g>
    </g>
    <g id="xtick_11">
     <g id="line2d_41">
      <g>
       <use style="stroke:#000000;stroke-width:0.8;" x="484.062674" xlink:href="#mde800611f7" y="242.44"/>
      </g>
     </g>
     <g id="text_26">
      <!-- 0.6 -->
      <g transform="translate(477.115454 256.610568)scale(0.09996 -0.09996)">
       <use xlink:href="#Helvetica-48"/>
       <use x="55.615234" xlink:href="#Helvetica-46"/>
       <use x="83.398438" xlink:href="#Helvetica-54"/>
      </g>
     </g>
    </g>
    <g id="xtick_12">
     <g id="line2d_42">
      <g>
       <use style="stroke:#000000;stroke-width:0.8;" x="449.724706" xlink:href="#mde800611f7" y="242.44"/>
      </g>
     </g>
     <g id="text_27">
      <!-- 0.7 -->
      <g transform="translate(442.777486 256.610568)scale(0.09996 -0.09996)">
       <use xlink:href="#Helvetica-48"/>
       <use x="55.615234" xlink:href="#Helvetica-46"/>
       <use x="83.398438" xlink:href="#Helvetica-55"/>
      </g>
     </g>
    </g>
    <g id="xtick_13">
     <g id="line2d_43">
      <g>
       <use style="stroke:#000000;stroke-width:0.8;" x="415.386738" xlink:href="#mde800611f7" y="242.44"/>
      </g>
     </g>
     <g id="text_28">
      <!-- 0.8 -->
      <g transform="translate(408.439518 256.610568)scale(0.09996 -0.09996)">
       <use xlink:href="#Helvetica-48"/>
       <use x="55.615234" xlink:href="#Helvetica-46"/>
       <use x="83.398438" xlink:href="#Helvetica-56"/>
      </g>
     </g>
    </g>
    <g id="xtick_14">
     <g id="line2d_44">
      <g>
       <use style="stroke:#000000;stroke-width:0.8;" x="381.04877" xlink:href="#mde800611f7" y="242.44"/>
      </g>
     </g>
     <g id="text_29">
      <!-- 0.9 -->
      <g transform="translate(374.10155 256.610568)scale(0.09996 -0.09996)">
       <use xlink:href="#Helvetica-48"/>
       <use x="55.615234" xlink:href="#Helvetica-46"/>
       <use x="83.398438" xlink:href="#Helvetica-57"/>
      </g>
     </g>
    </g>
    <g id="xtick_15">
     <g id="line2d_45">
      <g>
       <use style="stroke:#000000;stroke-width:0.8;" x="346.710802" xlink:href="#mde800611f7" y="242.44"/>
      </g>
     </g>
     <g id="text_30">
      <!-- 1.0 -->
      <g transform="translate(339.763582 256.610568)scale(0.09996 -0.09996)">
       <use xlink:href="#Helvetica-49"/>
       <use x="55.615234" xlink:href="#Helvetica-46"/>
       <use x="83.398438" xlink:href="#Helvetica-48"/>
      </g>
     </g>
    </g>
    <g id="text_31">
     <!-- value of $f$ -->
     <g transform="translate(425.364706 271.302234)scale(0.12 -0.12)">
      <use transform="translate(0 0.25)" xlink:href="#Helvetica-118"/>
      <use transform="translate(50 0.25)" xlink:href="#Helvetica-97"/>
      <use transform="translate(105.615234 0.25)" xlink:href="#Helvetica-108"/>
      <use transform="translate(127.832031 0.25)" xlink:href="#Helvetica-117"/>
      <use transform="translate(183.447266 0.25)" xlink:href="#Helvetica-101"/>
      <use transform="translate(239.0625 0.25)" xlink:href="#Helvetica-32"/>
      <use transform="translate(266.845703 0.25)" xlink:href="#Helvetica-111"/>
      <use transform="translate(322.460938 0.25)" xlink:href="#Helvetica-102"/>
      <use transform="translate(350.244141 0.25)" xlink:href="#Helvetica-32"/>
      <use transform="translate(378.027344 0.25)" xlink:href="#Helvetica-Oblique-102"/>
     </g>
    </g>
   </g>
   <g id="matplotlib.axis_6">
    <g id="ytick_13">
     <g id="line2d_46">
      <g>
       <use style="stroke:#000000;stroke-width:0.8;" x="336.409412" xlink:href="#mf3df1df63a" y="233.608333"/>
      </g>
     </g>
    </g>
    <g id="ytick_14">
     <g id="line2d_47">
      <g>
       <use style="stroke:#000000;stroke-width:0.8;" x="336.409412" xlink:href="#mf3df1df63a" y="198.281667"/>
      </g>
     </g>
    </g>
    <g id="ytick_15">
     <g id="line2d_48">
      <g>
       <use style="stroke:#000000;stroke-width:0.8;" x="336.409412" xlink:href="#mf3df1df63a" y="162.955"/>
      </g>
     </g>
    </g>
    <g id="ytick_16">
     <g id="line2d_49">
      <g>
       <use style="stroke:#000000;stroke-width:0.8;" x="336.409412" xlink:href="#mf3df1df63a" y="127.628333"/>
      </g>
     </g>
    </g>
    <g id="ytick_17">
     <g id="line2d_50">
      <g>
       <use style="stroke:#000000;stroke-width:0.8;" x="336.409412" xlink:href="#mf3df1df63a" y="92.301667"/>
      </g>
     </g>
    </g>
    <g id="ytick_18">
     <g id="line2d_51">
      <g>
       <use style="stroke:#000000;stroke-width:0.8;" x="336.409412" xlink:href="#mf3df1df63a" y="56.975"/>
      </g>
     </g>
    </g>
   </g>
   <g id="line2d_52">
    <path clip-path="url(#p4dbaa0b6ba)" d="M 346.710802 56.599781 
L 381.04877 76.919898 
L 415.386738 93.378878 
L 449.724706 111.044415 
L 484.062674 128.644314 
L 518.400642 144.879025 
L 552.73861 161.642224 
" style="fill:none;stroke:#4c72b0;stroke-linecap:square;stroke-width:1.5;"/>
    <g clip-path="url(#p4dbaa0b6ba)">
     <use style="fill:#4c72b0;stroke:#4c72b0;" x="346.710802" xlink:href="#m28cddf1a07" y="56.599781"/>
     <use style="fill:#4c72b0;stroke:#4c72b0;" x="381.04877" xlink:href="#m28cddf1a07" y="76.919898"/>
     <use style="fill:#4c72b0;stroke:#4c72b0;" x="415.386738" xlink:href="#m28cddf1a07" y="93.378878"/>
     <use style="fill:#4c72b0;stroke:#4c72b0;" x="449.724706" xlink:href="#m28cddf1a07" y="111.044415"/>
     <use style="fill:#4c72b0;stroke:#4c72b0;" x="484.062674" xlink:href="#m28cddf1a07" y="128.644314"/>
     <use style="fill:#4c72b0;stroke:#4c72b0;" x="518.400642" xlink:href="#m28cddf1a07" y="144.879025"/>
     <use style="fill:#4c72b0;stroke:#4c72b0;" x="552.73861" xlink:href="#m28cddf1a07" y="161.642224"/>
    </g>
   </g>
   <g id="line2d_53">
    <path clip-path="url(#p4dbaa0b6ba)" d="M 346.710802 176.009399 
L 381.04877 116.701137 
L 415.386738 94.340605 
L 449.724706 79.710271 
L 484.062674 68.165976 
L 518.400642 58.73581 
L 552.73861 52.151775 
" style="fill:none;stroke:#dd8452;stroke-linecap:square;stroke-width:1.5;"/>
    <g clip-path="url(#p4dbaa0b6ba)">
     <use style="fill:#dd8452;stroke:#dd8452;" x="346.710802" xlink:href="#m5aa040755b" y="176.009399"/>
     <use style="fill:#dd8452;stroke:#dd8452;" x="381.04877" xlink:href="#m5aa040755b" y="116.701137"/>
     <use style="fill:#dd8452;stroke:#dd8452;" x="415.386738" xlink:href="#m5aa040755b" y="94.340605"/>
     <use style="fill:#dd8452;stroke:#dd8452;" x="449.724706" xlink:href="#m5aa040755b" y="79.710271"/>
     <use style="fill:#dd8452;stroke:#dd8452;" x="484.062674" xlink:href="#m5aa040755b" y="68.165976"/>
     <use style="fill:#dd8452;stroke:#dd8452;" x="518.400642" xlink:href="#m5aa040755b" y="58.73581"/>
     <use style="fill:#dd8452;stroke:#dd8452;" x="552.73861" xlink:href="#m5aa040755b" y="52.151775"/>
    </g>
   </g>
   <g id="line2d_54">
    <path clip-path="url(#p4dbaa0b6ba)" d="M 346.710802 81.459377 
L 381.04877 83.339867 
L 415.386738 83.652998 
L 449.724706 84.354257 
L 484.062674 84.633935 
L 518.400642 85.169652 
L 552.73861 85.497324 
" style="fill:none;stroke:#55a868;stroke-linecap:square;stroke-width:1.5;"/>
    <g clip-path="url(#p4dbaa0b6ba)">
     <use style="fill:#55a868;stroke:#55a868;" x="346.710802" xlink:href="#m5051107785" y="81.459377"/>
     <use style="fill:#55a868;stroke:#55a868;" x="381.04877" xlink:href="#m5051107785" y="83.339867"/>
     <use style="fill:#55a868;stroke:#55a868;" x="415.386738" xlink:href="#m5051107785" y="83.652998"/>
     <use style="fill:#55a868;stroke:#55a868;" x="449.724706" xlink:href="#m5051107785" y="84.354257"/>
     <use style="fill:#55a868;stroke:#55a868;" x="484.062674" xlink:href="#m5051107785" y="84.633935"/>
     <use style="fill:#55a868;stroke:#55a868;" x="518.400642" xlink:href="#m5051107785" y="85.169652"/>
     <use style="fill:#55a868;stroke:#55a868;" x="552.73861" xlink:href="#m5051107785" y="85.497324"/>
    </g>
   </g>
   <g id="line2d_55">
    <path clip-path="url(#p4dbaa0b6ba)" d="M 336.409412 107.028351 
L 563.04 107.028351 
" style="fill:none;stroke:#4c72b0;stroke-dasharray:1.85,0.8;stroke-dashoffset:0;stroke-width:0.5;"/>
   </g>
   <g id="line2d_56">
    <path clip-path="url(#p4dbaa0b6ba)" d="M 336.409412 128.745718 
L 563.04 128.745718 
" style="fill:none;stroke:#dd8452;stroke-dasharray:1.85,0.8;stroke-dashoffset:0;stroke-width:0.5;"/>
   </g>
   <g id="line2d_57">
    <path clip-path="url(#p4dbaa0b6ba)" d="M 336.409412 206.858332 
L 563.04 206.858332 
" style="fill:none;stroke:#55a868;stroke-dasharray:1.85,0.8;stroke-dashoffset:0;stroke-width:0.5;"/>
   </g>
   <g id="patch_14">
    <path d="M 336.409412 242.44 
L 336.409412 30.48 
" style="fill:none;stroke:#000000;stroke-linecap:square;stroke-linejoin:miter;stroke-width:1.3;"/>
   </g>
   <g id="patch_15">
    <path d="M 563.04 242.44 
L 563.04 30.48 
" style="fill:none;stroke:#000000;stroke-linecap:square;stroke-linejoin:miter;stroke-width:1.3;"/>
   </g>
   <g id="patch_16">
    <path d="M 336.409412 242.44 
L 563.04 242.44 
" style="fill:none;stroke:#000000;stroke-linecap:square;stroke-linejoin:miter;stroke-width:1.3;"/>
   </g>
   <g id="patch_17">
    <path d="M 336.409412 30.48 
L 563.04 30.48 
" style="fill:none;stroke:#000000;stroke-linecap:square;stroke-linejoin:miter;stroke-width:1.3;"/>
   </g>
   <g id="text_32">
    <!-- (c) -->
    <g transform="translate(340.942024 44.849513)scale(0.14 -0.14)">
     <defs>
      <path d="M 38.28125 34.125 
Q 37.890625 37.109375 36.28125 39.5 
Q 33.9375 42.71875 29 42.71875 
Q 21.96875 42.71875 19.390625 35.75 
Q 18.015625 32.03125 18.015625 25.875 
Q 18.015625 20.015625 19.390625 16.453125 
Q 21.875 9.8125 28.765625 9.8125 
Q 33.640625 9.8125 35.6875 12.453125 
Q 37.75 15.09375 38.1875 19.28125 
L 52.390625 19.28125 
Q 51.90625 12.9375 47.796875 7.28125 
Q 41.265625 -1.859375 28.421875 -1.859375 
Q 15.578125 -1.859375 9.515625 5.75 
Q 3.46875 13.375 3.46875 25.53125 
Q 3.46875 39.265625 10.15625 46.875 
Q 16.84375 54.5 28.609375 54.5 
Q 38.625 54.5 45 50 
Q 51.375 45.515625 52.546875 34.125 
z
M 28.859375 54.640625 
z
" id="Helvetica-Bold-99"/>
     </defs>
     <use xlink:href="#Helvetica-Bold-40"/>
     <use x="33.300781" xlink:href="#Helvetica-Bold-99"/>
     <use x="88.916016" xlink:href="#Helvetica-Bold-41"/>
    </g>
   </g>
   <g id="text_33">
    <!-- NOAH-3 S$\rm S^{+}C^c$ -->
    <g transform="translate(399.684706 24.48)scale(0.144 -0.144)">
     <defs>
      <path d="M 4.5 21.390625 
L 4.5 29.59375 
L 25.78125 29.59375 
L 25.78125 51.03125 
L 34.125 51.03125 
L 34.125 29.59375 
L 55.421875 29.59375 
L 55.421875 21.390625 
L 34.125 21.390625 
L 34.125 0 
L 25.78125 0 
L 25.78125 21.390625 
z
" id="Helvetica-43"/>
     </defs>
     <use transform="translate(0 0.723438)" xlink:href="#Helvetica-78"/>
     <use transform="translate(72.216797 0.723438)" xlink:href="#Helvetica-79"/>
     <use transform="translate(150 0.723438)" xlink:href="#Helvetica-65"/>
     <use transform="translate(216.699219 0.723438)" xlink:href="#Helvetica-72"/>
     <use transform="translate(288.916016 0.723438)" xlink:href="#Helvetica-45"/>
     <use transform="translate(322.216797 0.723438)" xlink:href="#Helvetica-51"/>
     <use transform="translate(377.832031 0.723438)" xlink:href="#Helvetica-32"/>
     <use transform="translate(405.615234 0.723438)" xlink:href="#Helvetica-83"/>
     <use transform="translate(472.314453 0.723438)" xlink:href="#Helvetica-83"/>
     <use transform="translate(539.928867 37.33125)scale(0.7)" xlink:href="#Helvetica-43"/>
     <use transform="translate(583.422617 0.723438)" xlink:href="#Helvetica-67"/>
     <use transform="translate(656.554609 37.33125)scale(0.7)" xlink:href="#Helvetica-99"/>
    </g>
   </g>
   <g id="legend_2">
    <g id="patch_18">
     <path d="M 452.21625 236.44 
L 554.64 236.44 
Q 557.04 236.44 557.04 234.04 
L 557.04 183.911875 
Q 557.04 181.511875 554.64 181.511875 
L 452.21625 181.511875 
Q 449.81625 181.511875 449.81625 183.911875 
L 449.81625 234.04 
Q 449.81625 236.44 452.21625 236.44 
z
" style="fill:#ffffff;opacity:0.8;stroke:#cccccc;stroke-linejoin:miter;"/>
    </g>
    <g id="line2d_58">
     <path d="M 454.61625 190.72 
L 478.61625 190.72 
" style="fill:none;stroke:#4c72b0;stroke-linecap:square;stroke-width:1.5;"/>
    </g>
    <g id="line2d_59">
     <g>
      <use style="fill:#4c72b0;stroke:#4c72b0;" x="466.61625" xlink:href="#m28cddf1a07" y="190.72"/>
     </g>
    </g>
    <g id="text_34">
     <!-- HSQC #1 -->
     <g transform="translate(488.21625 194.92)scale(0.12 -0.12)">
      <use xlink:href="#Helvetica-72"/>
      <use x="72.216797" xlink:href="#Helvetica-83"/>
      <use x="138.916016" xlink:href="#Helvetica-81"/>
      <use x="216.699219" xlink:href="#Helvetica-67"/>
      <use x="288.916016" xlink:href="#Helvetica-32"/>
      <use x="316.699219" xlink:href="#Helvetica-35"/>
      <use x="372.314453" xlink:href="#Helvetica-49"/>
     </g>
    </g>
    <g id="line2d_60">
     <path d="M 454.61625 207.829375 
L 478.61625 207.829375 
" style="fill:none;stroke:#dd8452;stroke-linecap:square;stroke-width:1.5;"/>
    </g>
    <g id="line2d_61">
     <g>
      <use style="fill:#dd8452;stroke:#dd8452;" x="466.61625" xlink:href="#m5aa040755b" y="207.829375"/>
     </g>
    </g>
    <g id="text_35">
     <!-- seHSQC #2 -->
     <g transform="translate(488.21625 212.029375)scale(0.12 -0.12)">
      <use xlink:href="#Helvetica-115"/>
      <use x="50" xlink:href="#Helvetica-101"/>
      <use x="105.615234" xlink:href="#Helvetica-72"/>
      <use x="177.832031" xlink:href="#Helvetica-83"/>
      <use x="244.53125" xlink:href="#Helvetica-81"/>
      <use x="322.314453" xlink:href="#Helvetica-67"/>
      <use x="394.53125" xlink:href="#Helvetica-32"/>
      <use x="422.314453" xlink:href="#Helvetica-35"/>
      <use x="477.929688" xlink:href="#Helvetica-50"/>
     </g>
    </g>
    <g id="line2d_62">
     <path d="M 454.61625 224.93875 
L 478.61625 224.93875 
" style="fill:none;stroke:#55a868;stroke-linecap:square;stroke-width:1.5;"/>
    </g>
    <g id="line2d_63">
     <g>
      <use style="fill:#55a868;stroke:#55a868;" x="466.61625" xlink:href="#m5051107785" y="224.93875"/>
     </g>
    </g>
    <g id="text_36">
     <!-- COSY -->
     <g transform="translate(488.21625 229.13875)scale(0.12 -0.12)">
      <use xlink:href="#Helvetica-67"/>
      <use x="72.216797" xlink:href="#Helvetica-79"/>
      <use x="150" xlink:href="#Helvetica-83"/>
      <use x="216.699219" xlink:href="#Helvetica-89"/>
     </g>
    </g>
   </g>
  </g>
 </g>
 <defs>
  <clipPath id="p604fc50dc3">
   <rect height="211.96" width="28.328824" x="48.53" y="30.48"/>
  </clipPath>
  <clipPath id="p29b9c5fe78">
   <rect height="211.96" width="226.630588" x="93.318824" y="30.48"/>
  </clipPath>
  <clipPath id="p4dbaa0b6ba">
   <rect height="211.96" width="226.630588" x="336.409412" y="30.48"/>
  </clipPath>
 </defs>
</svg>
