<?xml version="1.0" encoding="UTF-8" standalone="no"?>
<svg
   xmlns:dc="http://purl.org/dc/elements/1.1/"
   xmlns:cc="http://creativecommons.org/ns#"
   xmlns:rdf="http://www.w3.org/1999/02/22-rdf-syntax-ns#"
   xmlns:svg="http://www.w3.org/2000/svg"
   xmlns="http://www.w3.org/2000/svg"
   xmlns:sodipodi="http://sodipodi.sourceforge.net/DTD/sodipodi-0.dtd"
   xmlns:inkscape="http://www.inkscape.org/namespaces/inkscape"
   width="297mm"
   height="420mm"
   viewBox="0 0 297 420"
   version="1.1"
   id="svg8"
   inkscape:version="1.0.1 (c497b03c, 2020-09-10)"
   sodipodi:docname="toc_graphic.svg"
   inkscape:export-filename="/Users/yongrenjie/dphil/paper/hsqc/figures/pprogs.png"
   inkscape:export-xdpi="600"
   inkscape:export-ydpi="600">
  <defs
     id="defs2">
    <rect
       x="125.67708"
       y="59.53125"
       width="7.9375"
       height="2.6458333"
       id="rect2417" />
    <rect
       x="66.145836"
       y="30.427082"
       width="11.90625"
       height="7.9375"
       id="rect2405" />
    <rect
       id="rect2417-5"
       height="2.6458333"
       width="7.9375"
       y="59.53125"
       x="125.67708" />
    <rect
       id="rect3112"
       height="2.6458333"
       width="7.9375"
       y="59.53125"
       x="125.67708" />
    <rect
       x="125.67708"
       y="59.53125"
       width="7.9375"
       height="2.6458333"
       id="rect2417-5-4" />
    <rect
       x="125.67708"
       y="59.53125"
       width="7.9375"
       height="2.6458333"
       id="rect1299" />
    <rect
       id="rect2417-2"
       height="2.6458333"
       width="7.9375"
       y="59.53125"
       x="125.67708" />
    <rect
       id="rect1704"
       height="2.6458333"
       width="7.9375"
       y="59.53125"
       x="125.67708" />
    <rect
       x="125.67708"
       y="59.53125"
       width="7.9375"
       height="2.6458333"
       id="rect2417-2-5" />
    <rect
       x="125.67708"
       y="59.53125"
       width="7.9375"
       height="2.6458333"
       id="rect1911" />
    <rect
       id="rect2417-7"
       height="2.6458333"
       width="7.9375"
       y="59.53125"
       x="125.67708" />
    <rect
       id="rect628"
       height="2.6458333"
       width="7.9375"
       y="59.53125"
       x="125.67708" />
    <rect
       x="125.67708"
       y="59.53125"
       width="7.9375"
       height="2.6458333"
       id="rect2417-7-0" />
    <rect
       x="125.67708"
       y="59.53125"
       width="7.9375"
       height="2.6458333"
       id="rect1265" />
    <rect
       id="rect2417-7-0-8"
       height="2.6458333"
       width="7.9375"
       y="59.53125"
       x="125.67708" />
    <rect
       id="rect1352"
       height="2.6458333"
       width="7.9375"
       y="59.53125"
       x="125.67708" />
    <rect
       x="125.67708"
       y="59.53125"
       width="7.9375"
       height="2.6458333"
       id="rect2417-7-2" />
    <rect
       x="125.67708"
       y="59.53125"
       width="7.9375"
       height="2.6458333"
       id="rect1645" />
    <rect
       id="rect2417-7-0-3"
       height="2.6458333"
       width="7.9375"
       y="59.53125"
       x="125.67708" />
    <rect
       id="rect1648"
       height="2.6458333"
       width="7.9375"
       y="59.53125"
       x="125.67708" />
    <rect
       x="125.67708"
       y="59.53125"
       width="7.9375"
       height="2.6458333"
       id="rect2417-7-4" />
    <rect
       x="125.67708"
       y="59.53125"
       width="7.9375"
       height="2.6458333"
       id="rect1937" />
    <rect
       x="125.67708"
       y="59.53125"
       width="7.9375"
       height="2.6458333"
       id="rect2417-7-6" />
    <rect
       x="125.67708"
       y="59.53125"
       width="7.9375"
       height="2.6458333"
       id="rect2315" />
    <rect
       id="rect2417-7-0-0"
       height="2.6458333"
       width="7.9375"
       y="59.53125"
       x="125.67708" />
    <rect
       id="rect2318"
       height="2.6458333"
       width="7.9375"
       y="59.53125"
       x="125.67708" />
    <rect
       id="rect2417-7-4-4"
       height="2.6458333"
       width="7.9375"
       y="59.53125"
       x="125.67708" />
    <rect
       id="rect2321"
       height="2.6458333"
       width="7.9375"
       y="59.53125"
       x="125.67708" />
    <rect
       x="125.67708"
       y="59.53125"
       width="7.9375"
       height="2.6458333"
       id="rect2417-5-7" />
    <rect
       x="125.67708"
       y="59.53125"
       width="7.9375"
       height="2.6458333"
       id="rect1918" />
    <rect
       x="125.67708"
       y="59.53125"
       width="7.9375"
       height="2.6458333"
       id="rect2417-5-7-9" />
    <rect
       x="125.67708"
       y="59.53125"
       width="7.9375"
       height="2.6458333"
       id="rect1827" />
    <rect
       x="125.67708"
       y="59.53125"
       width="7.9375"
       height="2.6458333"
       id="rect2417-5-7-9-5" />
    <rect
       x="125.67708"
       y="59.53125"
       width="7.9375"
       height="2.6458333"
       id="rect2715" />
    <rect
       x="125.67708"
       y="59.53125"
       width="7.9375"
       height="2.6458333"
       id="rect2417-5-7-9-5-2" />
    <rect
       x="125.67708"
       y="59.53125"
       width="7.9375"
       height="2.6458333"
       id="rect2051" />
    <rect
       id="rect2417-5-8"
       height="2.6458333"
       width="7.9375"
       y="59.53125"
       x="125.67708" />
    <rect
       id="rect2285"
       height="2.6458333"
       width="7.9375"
       y="59.53125"
       x="125.67708" />
    <rect
       x="125.67708"
       y="59.53125"
       width="7.9375"
       height="2.6458333"
       id="rect2417-5-7-9-5-2-7" />
    <rect
       x="125.67708"
       y="59.53125"
       width="7.9375"
       height="2.6458333"
       id="rect1277" />
    <rect
       id="rect2417-5-8-1-4-9"
       height="2.6458333"
       width="7.9375"
       y="59.53125"
       x="125.67708" />
    <rect
       id="rect1761"
       height="2.6458333"
       width="7.9375"
       y="59.53125"
       x="125.67708" />
  </defs>
  <sodipodi:namedview
     id="base"
     pagecolor="#ffffff"
     bordercolor="#666666"
     borderopacity="1.0"
     inkscape:pageopacity="0.0"
     inkscape:pageshadow="2"
     inkscape:zoom="1.3666019"
     inkscape:cx="387.72604"
     inkscape:cy="-29.566662"
     inkscape:document-units="mm"
     inkscape:current-layer="layer1"
     inkscape:document-rotation="0"
     showgrid="true"
     inkscape:window-width="1750"
     inkscape:window-height="987"
     inkscape:window-x="42"
     inkscape:window-y="25"
     inkscape:window-maximized="0"
     inkscape:snap-object-midpoints="false"
     inkscape:snap-text-baseline="true"
     inkscape:snap-grids="true">
    <inkscape:grid
       type="xygrid"
       id="grid1346" />
  </sodipodi:namedview>
  <metadata
     id="metadata5">
    <rdf:RDF>
      <cc:Work
         rdf:about="">
        <dc:format>image/svg+xml</dc:format>
        <dc:type
           rdf:resource="http://purl.org/dc/dcmitype/StillImage" />
        <dc:title />
      </cc:Work>
    </rdf:RDF>
  </metadata>
  <g
     inkscape:label="Layer 1"
     inkscape:groupmode="layer"
     id="layer1">
    <path
       inkscape:export-filename="/Users/yongrenjie/Desktop/path3919-7-8-61.png"
       id="path10-2-0-1-2-1-6-1-2"
       d="M 15.875001,15.875 H 150.81251"
       style="fill:none;stroke:#000000;stroke-width:0.264583px;stroke-linecap:butt;stroke-linejoin:miter;stroke-opacity:1"
       inkscape:export-xdpi="500"
       inkscape:export-ydpi="500" />
    <path
       inkscape:export-filename="/Users/yongrenjie/Desktop/path3919-7-8-61.png"
       id="path10-2-0-1-2-1-6-1-2-5"
       d="M 15.875001,21.166666 H 150.8125"
       style="fill:none;stroke:#000000;stroke-width:0.264583px;stroke-linecap:butt;stroke-linejoin:miter;stroke-opacity:1"
       inkscape:export-xdpi="500"
       inkscape:export-ydpi="500" />
    <path
       inkscape:export-filename="/Users/yongrenjie/Desktop/path3919-7-8-61.png"
       id="path10-2-0-1-2-1-6-1-2-5-9"
       d="M 15.875001,26.458333 H 150.81249"
       style="fill:none;stroke:#000000;stroke-width:0.264583px;stroke-linecap:butt;stroke-linejoin:miter;stroke-opacity:1"
       inkscape:export-xdpi="500"
       inkscape:export-ydpi="500" />
    <text
       transform="translate(-15.874945,9.2603853)"
       xml:space="preserve"
       id="text2403"
       style="font-size:2.82222999999999979px;line-height:1.25;font-family:Helvetica;-inkscape-font-specification:Helvetica;white-space:pre;shape-inside:url(#rect2405);stroke-width:1;font-weight:normal;font-style:normal;font-stretch:normal;font-variant:normal;"
       inkscape:export-xdpi="500"
       inkscape:export-ydpi="500" />
    <text
       xml:space="preserve"
       style="font-size:2.11667000000000005px;line-height:1.25;font-family:Helvetica;-inkscape-font-specification:Helvetica;stroke-width:0.264583;font-weight:normal;font-style:normal;font-stretch:normal;font-variant:normal;"
       x="62.177143"
       y="43.656212"
       id="text2411"
       inkscape:export-xdpi="500"
       inkscape:export-ydpi="500"><tspan
         sodipodi:role="line"
         id="tspan2409"
         x="62.177143"
         y="43.656212"
         style="font-size:2.11667000000000005px;stroke-width:0.264583;-inkscape-font-specification:Helvetica;font-family:Helvetica;font-weight:normal;font-style:normal;font-stretch:normal;font-variant:normal;" /><tspan
         sodipodi:role="line"
         x="62.177143"
         y="46.302048"
         style="font-size:2.11667000000000005px;stroke-width:0.264583;-inkscape-font-specification:Helvetica;font-family:Helvetica;font-weight:normal;font-style:normal;font-stretch:normal;font-variant:normal;"
         id="tspan2413" /></text>
    <path
       inkscape:export-filename="/Users/yongrenjie/Desktop/path3919-7-8-61.png"
       id="path10-2-0-1-2-1-6-1"
       d="M 15.875001,10.583333 H 150.81251"
       style="fill:none;stroke:#000000;stroke-width:0.264583px;stroke-linecap:butt;stroke-linejoin:miter;stroke-opacity:1"
       inkscape:export-xdpi="500"
       inkscape:export-ydpi="500" />
    <rect
       style="fill:#ffd5d5;stroke:#aa0000;stroke-width:0.3"
       id="rect3686"
       width="25.135424"
       height="21.166666"
       x="22.489578"
       y="7.9375"
       ry="1.8666387" />
    <text
       xml:space="preserve"
       style="font-style:normal;font-variant:normal;font-weight:bold;font-stretch:normal;font-size:3.88056px;line-height:1.25;font-family:Helvetica;-inkscape-font-specification:'Helvetica Bold';fill:#aa0000;fill-opacity:1;stroke-width:0.264583"
       x="23.929766"
       y="19.758846"
       id="text3690"><tspan
         sodipodi:role="line"
         id="tspan3688"
         x="23.929766"
         y="19.758846"
         style="font-style:normal;font-variant:normal;font-weight:bold;font-stretch:normal;font-size:3.88056px;font-family:Helvetica;-inkscape-font-specification:'Helvetica Bold';fill:#aa0000;fill-opacity:1;stroke-width:0.264583"><tspan
   style="font-size:65%;baseline-shift:super"
   id="tspan1365">15</tspan>N seHSQC</tspan></text>
    <path
       inkscape:export-filename="/Users/yongrenjie/Desktop/path3919-7-8-61.png"
       id="path3919-7-8-6-5-2-3-9"
       title="cos(x)*exp(-x/15)"
       d="m 47.906581,6.6759614 c 0.0857,0.0705 0.171229,0.54038 0.256769,1.2622303 0.08561,0.7216814 0.17123,1.6875804 0.25691,2.6436203 0.08551,0.95605 0.171221,1.893351 0.256761,2.58929 0.0855,0.69595 0.171219,1.144181 0.256758,1.26017 0.0857,0.115992 0.171223,-0.10074 0.256922,-0.567719 0.0855,-0.466981 0.171091,-1.179611 0.256749,-1.944351 0.0855,-0.764739 0.171222,-1.57461 0.25677,-2.2313089 0.08551,-0.65669 0.171212,-1.15434 0.25677,-1.3883914 0.08559,-0.2342 0.17122,-0.2029 0.256892,0.0618 0.08551,0.2647214 0.171079,0.7601404 0.25676,1.3462904 0.0855,0.5861509 0.17123,1.2574599 0.256778,1.8452009 0.08561,0.587899 0.171211,1.086809 0.256741,1.38553 0.0857,0.298709 0.171241,0.394839 0.25691,0.28378 0.0855,-0.11091 0.17123,-0.42758 0.25678,-0.85515 0.08551,-0.42758 0.171222,-0.96193 0.25675,-1.465301 0.0857,-0.503199 0.171219,-0.9708198 0.25677,-1.2938499 0.08561,-0.323179 0.17122,-0.499069 0.2569,-0.499069 0.0855,-1.6e-4 0.17122,0.175409 0.25677,0.468249 0.0855,0.2928401 0.17124,0.7000699 0.25675,1.1138209 0.08559,0.413599 0.171229,0.829729 0.25692,1.14847 0.0855,0.31858 0.17108,0.537049 0.256748,0.612209 0.08551,0.075 0.171242,0.006 0.256771,-0.17653 0.08561,-0.182889 0.17122,-0.4781 0.256769,-0.804469 0.08561,-0.326361 0.171221,-0.680841 0.256922,-0.976061 0.0855,-0.295069 0.171059,-0.5281588 0.256739,-0.6490698 0.08549,-0.1209191 0.171229,-0.1287101 0.256781,-0.0319 0.08561,0.0968 0.171219,0.2971198 0.256759,0.5434008 0.08561,0.24628 0.171231,0.536259 0.256911,0.79652 0.08551,0.26011 0.171219,0.487959 0.256758,0.63207 0.0855,0.144119 0.171232,0.20307 0.25677,0.170649 0.08559,-0.0322 0.171222,-0.155549 0.256901,-0.33192 0.0855,-0.17637 0.171079,-0.4039 0.25676,-0.62365 0.0855,-0.219749 0.171229,-0.429479 0.25677,-0.579789 0.0855,-0.150471 0.17122,-0.240251 0.25676,-0.253431"
       style="fill:none;stroke:#aa0000;stroke-width:0.264999;stroke-miterlimit:4;stroke-dasharray:none;stroke-dashoffset:0;stroke-opacity:1"
       inkscape:export-xdpi="500"
       inkscape:export-ydpi="500" />
    <path
       inkscape:export-filename="/Users/yongrenjie/Desktop/path3919-7-8-61.png"
       id="path3919-7-8-6-5-2-3-9-7"
       title="cos(x)*exp(-x/15)"
       d="m 111.35052,6.6759616 c 0.0857,0.0705 0.17123,0.54038 0.25677,1.2622297 0.0856,0.7216814 0.17123,1.6875801 0.25691,2.6436197 0.0855,0.95605 0.17122,1.893352 0.25676,2.58929 0.0855,0.695951 0.17122,1.144181 0.25676,1.260171 0.0857,0.115992 0.17122,-0.100741 0.25692,-0.56772 0.0855,-0.466981 0.17109,-1.17961 0.25675,-1.944351 0.0855,-0.764738 0.17122,-1.57461 0.25677,-2.2313086 0.0855,-0.6566897 0.17121,-1.1543397 0.25677,-1.3883911 0.0856,-0.2342 0.17122,-0.202899 0.25689,0.0618 0.0855,0.2647214 0.17108,0.7601404 0.25676,1.3462901 0.0855,0.5861506 0.17123,1.2574596 0.25678,1.8452006 0.0856,0.587899 0.17121,1.086809 0.25674,1.38553 0.0857,0.298709 0.17124,0.394839 0.25691,0.28378 0.0855,-0.11091 0.17123,-0.42758 0.25678,-0.85515 0.0855,-0.42758 0.17122,-0.96193 0.25675,-1.465301 0.0857,-0.503199 0.17122,-0.9708197 0.25677,-1.2938496 0.0856,-0.3231787 0.17122,-0.4990687 0.2569,-0.4990687 0.0855,-1.6e-4 0.17122,0.175409 0.25677,0.468249 0.0855,0.2928396 0.17124,0.7000693 0.25675,1.1138203 0.0856,0.413599 0.17123,0.829729 0.25692,1.14847 0.0855,0.31858 0.17108,0.537049 0.25675,0.612209 0.0855,0.075 0.17124,0.006 0.25677,-0.17653 0.0856,-0.182889 0.17122,-0.4781 0.25677,-0.804469 0.0856,-0.326361 0.17122,-0.680841 0.25692,-0.976061 0.0855,-0.295069 0.17106,-0.5281587 0.25674,-0.6490697 0.0855,-0.1209189 0.17123,-0.1287099 0.25678,-0.0319 0.0856,0.0968 0.17122,0.2971197 0.25676,0.5434007 0.0856,0.24628 0.17123,0.536259 0.25691,0.79652 0.0855,0.26011 0.17122,0.487959 0.25676,0.63207 0.0855,0.144119 0.17123,0.20307 0.25677,0.170649 0.0856,-0.0322 0.17122,-0.155549 0.2569,-0.33192 0.0855,-0.17637 0.17108,-0.4039 0.25676,-0.62365 0.0855,-0.219749 0.17123,-0.429479 0.25677,-0.579789 0.0855,-0.150471 0.17122,-0.240251 0.25676,-0.253431"
       style="fill:none;stroke:#000000;stroke-width:0.264999;stroke-miterlimit:4;stroke-dasharray:none;stroke-dashoffset:0;stroke-opacity:1"
       inkscape:export-xdpi="500"
       inkscape:export-ydpi="500" />
    <text
       xml:space="preserve"
       style="font-size:2.82222999999999979px;line-height:1.25;font-family:Helvetica;-inkscape-font-specification:Helvetica;stroke-width:0.264583;font-weight:normal;font-style:normal;font-stretch:normal;font-variant:normal;"
       x="51.59375"
       y="19.843748"
       id="text3762"><tspan
         sodipodi:role="line"
         id="tspan3760"
         x="51.59375"
         y="19.843748"
         style="stroke-width:0.264583;-inkscape-font-specification:Helvetica;font-family:Helvetica;font-weight:normal;font-style:normal;font-stretch:normal;font-variant:normal;" /></text>
    <rect
       style="fill:#d5e5ff;fill-opacity:1;stroke:#003380;stroke-width:0.3;stroke-opacity:1"
       id="rect3686-9"
       width="25.135426"
       height="21.166666"
       x="57.03606"
       y="7.9375"
       ry="1.8666387" />
    <text
       xml:space="preserve"
       style="font-style:normal;font-variant:normal;font-weight:normal;font-stretch:normal;font-size:3.88056px;line-height:1.25;font-family:Helvetica;-inkscape-font-specification:Helvetica;fill:#003380;stroke-width:0.264583"
       x="58.47625"
       y="19.758846"
       id="text3690-6"><tspan
         sodipodi:role="line"
         id="tspan3688-4"
         x="58.47625"
         y="19.758846"
         style="font-style:normal;font-variant:normal;font-weight:bold;font-stretch:normal;font-size:3.88056px;font-family:Helvetica;-inkscape-font-specification:Helvetica;fill:#003380;stroke-width:0.264583"><tspan
   style="font-size:65%;baseline-shift:super"
   id="tspan1369">13</tspan>C seHSQC</tspan></text>
    <path
       inkscape:export-filename="/Users/yongrenjie/Desktop/path3919-7-8-61.png"
       id="path3919-7-8-6-5-2-3-9-78"
       title="cos(x)*exp(-x/15)"
       d="m 82.307268,6.6759612 c 0.0857,0.0705 0.17122,0.54038 0.25676,1.2622303 0.0856,0.7216814 0.17123,1.6875801 0.25692,2.6436195 0.0855,0.95605 0.17122,1.893352 0.25676,2.58929 0.0855,0.695951 0.17121,1.144181 0.25675,1.260171 0.0857,0.115992 0.17123,-0.100741 0.25693,-0.56772 0.0855,-0.466981 0.17109,-1.17961 0.25675,-1.944351 0.0855,-0.764738 0.17122,-1.57461 0.25677,-2.2313084 0.0855,-0.6566897 0.17121,-1.1543397 0.25677,-1.3883911 0.0856,-0.2342 0.17121,-0.202899 0.25688,0.0618 0.0855,0.2647214 0.17108,0.7601404 0.25676,1.3462901 0.0855,0.5861504 0.17123,1.2574594 0.25678,1.8452004 0.0856,0.587899 0.17121,1.086809 0.25674,1.38553 0.0857,0.298709 0.17124,0.394839 0.25691,0.28378 0.0855,-0.11091 0.17123,-0.42758 0.25678,-0.85515 0.0855,-0.42758 0.17123,-0.96193 0.25675,-1.465301 0.0857,-0.503199 0.17122,-0.9708196 0.25677,-1.2938494 0.0856,-0.3231787 0.17122,-0.4990687 0.2569,-0.4990687 0.0855,-1.6e-4 0.17122,0.175409 0.25677,0.468249 0.0855,0.2928395 0.17124,0.7000691 0.25675,1.1138201 0.0856,0.413599 0.17123,0.829729 0.25692,1.14847 0.0855,0.31858 0.17108,0.537049 0.25675,0.612209 0.0855,0.075 0.17124,0.006 0.25677,-0.17653 0.0856,-0.182889 0.17122,-0.4781 0.25677,-0.804469 0.0856,-0.326361 0.17122,-0.680841 0.25692,-0.976061 0.0855,-0.295069 0.17106,-0.5281586 0.25674,-0.6490696 0.0855,-0.1209188 0.17123,-0.1287098 0.25678,-0.0319 0.0856,0.0968 0.17122,0.2971196 0.25676,0.5434006 0.0856,0.24628 0.17123,0.536259 0.25691,0.79652 0.0855,0.26011 0.17122,0.487959 0.25676,0.63207 0.0855,0.144119 0.17123,0.20307 0.25677,0.170649 0.0856,-0.0322 0.17122,-0.155549 0.2569,-0.33192 0.0855,-0.17637 0.17108,-0.4039 0.25676,-0.62365 0.0855,-0.219749 0.17123,-0.429479 0.25677,-0.579789 0.0855,-0.150471 0.17122,-0.240251 0.25676,-0.253431"
       style="fill:none;stroke:#003380;stroke-width:0.264999;stroke-miterlimit:4;stroke-dasharray:none;stroke-dashoffset:0;stroke-opacity:1"
       inkscape:export-xdpi="500"
       inkscape:export-ydpi="500" />
    <rect
       style="fill:#ffffff;stroke:#000000;stroke-width:0.3"
       id="rect3686-0-9-7"
       width="19.843752"
       height="21.166666"
       x="120.61086"
       y="7.9375019"
       ry="2.645833" />
    <text
       xml:space="preserve"
       style="font-style:normal;font-variant:normal;font-weight:normal;font-stretch:normal;font-size:3.88056px;line-height:1.25;font-family:Helvetica;-inkscape-font-specification:Helvetica;stroke-width:0.264583"
       x="121.02525"
       y="19.758846"
       id="text3690-7-9"><tspan
         sodipodi:role="line"
         id="tspan3688-9-8"
         x="121.02525"
         y="19.758846"
         style="font-style:normal;font-variant:normal;font-weight:bold;font-stretch:normal;font-size:3.88056px;font-family:Helvetica;-inkscape-font-specification:Helvetica;stroke-width:0.264583"><tspan
   style="font-size:65%;baseline-shift:super"
   id="tspan1375">1</tspan>H TOCSY</tspan></text>
    <path
       inkscape:export-filename="/Users/yongrenjie/Desktop/path3919-7-8-61.png"
       id="path3919-7-8-6-5-2-3-9-7-1"
       title="cos(x)*exp(-x/15)"
       d="m 140.45468,6.6759616 c 0.0857,0.0705 0.17123,0.54038 0.25677,1.2622293 0.0856,0.7216814 0.17123,1.6875804 0.25691,2.6436201 0.0855,0.95605 0.17122,1.893352 0.25676,2.58929 0.0855,0.695951 0.17122,1.144181 0.25676,1.260171 0.0857,0.115992 0.17122,-0.100741 0.25692,-0.56772 0.0855,-0.466981 0.17109,-1.17961 0.25675,-1.944351 0.0855,-0.764738 0.17122,-1.57461 0.25677,-2.2313087 0.0855,-0.65669 0.17121,-1.15434 0.25677,-1.3883914 0.0856,-0.2342 0.17122,-0.202899 0.25689,0.0618 0.0855,0.2647214 0.17108,0.7601404 0.25676,1.3462904 0.0855,0.5861507 0.17123,1.2574597 0.25678,1.8452007 0.0856,0.587899 0.17121,1.086809 0.25674,1.38553 0.0857,0.298709 0.17124,0.394839 0.25691,0.28378 0.0855,-0.11091 0.17123,-0.42758 0.25678,-0.85515 0.0855,-0.42758 0.17122,-0.96193 0.25675,-1.465301 0.0857,-0.503199 0.17122,-0.9708197 0.25677,-1.2938497 0.0856,-0.323179 0.17122,-0.499069 0.2569,-0.499069 0.0855,-1.6e-4 0.17122,0.175409 0.25677,0.468249 0.0855,0.29284 0.17124,0.7000697 0.25675,1.1138207 0.0856,0.413599 0.17123,0.829729 0.25692,1.14847 0.0855,0.31858 0.17108,0.537049 0.25675,0.612209 0.0855,0.075 0.17124,0.006 0.25677,-0.17653 0.0856,-0.182889 0.17122,-0.4781 0.25677,-0.804469 0.0856,-0.326361 0.17122,-0.680841 0.25692,-0.976061 0.0855,-0.295069 0.17106,-0.5281587 0.25674,-0.6490697 0.0855,-0.120919 0.17123,-0.12871 0.25678,-0.0319 0.0856,0.0968 0.17122,0.2971197 0.25676,0.5434007 0.0856,0.24628 0.17123,0.536259 0.25691,0.79652 0.0855,0.26011 0.17122,0.487959 0.25676,0.63207 0.0855,0.144119 0.17123,0.20307 0.25677,0.170649 0.0856,-0.0322 0.17122,-0.155549 0.2569,-0.33192 0.0855,-0.17637 0.17108,-0.4039 0.25676,-0.62365 0.0855,-0.219749 0.17123,-0.429479 0.25677,-0.579789 0.0855,-0.150471 0.17122,-0.240251 0.25676,-0.253431"
       style="fill:none;stroke:#000000;stroke-width:0.264999;stroke-miterlimit:4;stroke-dasharray:none;stroke-dashoffset:0;stroke-opacity:1"
       inkscape:export-xdpi="500"
       inkscape:export-ydpi="500" />
    <text
       xml:space="preserve"
       style="font-size:4.23332999999999959px;line-height:1.25;font-family:Helvetica;-inkscape-font-specification:Helvetica;stroke-width:0.264583;font-weight:normal;font-style:normal;font-stretch:normal;font-variant:normal;"
       x="17.197914"
       y="9.260416"
       id="text3808"><tspan
         sodipodi:role="line"
         id="tspan3806"
         x="17.197914"
         y="9.260416"
         style="font-size:4.23332999999999959px;stroke-width:0.264583;-inkscape-font-specification:Helvetica;font-family:Helvetica;font-weight:normal;font-style:normal;font-stretch:normal;font-variant:normal;"><tspan
           style="font-style:italic;-inkscape-font-specification:Helvetica;font-family:Helvetica;font-weight:normal;font-stretch:normal;font-variant:normal"
           id="tspan3810">d</tspan><tspan
           style="font-size:65%;baseline-shift:sub;-inkscape-font-specification:Helvetica;font-family:Helvetica;font-weight:normal;font-style:normal;font-stretch:normal;font-variant:normal;"
           id="tspan3812">1</tspan></tspan></text>
    <text
       inkscape:export-filename="/Users/yongrenjie/Desktop/path3919-7-8-61.png"
       xml:space="preserve"
       style="font-style:normal;font-variant:normal;font-weight:normal;font-stretch:normal;font-size:3.52777px;line-height:1.25;font-family:Helvetica;-inkscape-font-specification:Helvetica;fill:#000000;fill-opacity:1;stroke:none;stroke-width:0.264583"
       x="11.26149"
       y="12.020373"
       id="text14-2-7-9-8-5-2"
       inkscape:export-xdpi="500"
       inkscape:export-ydpi="500"><tspan
         sodipodi:role="line"
         id="tspan12-5-03-1-2-8-7"
         x="11.26149"
         y="12.020373"
         style="font-style:normal;font-variant:normal;font-weight:normal;font-stretch:normal;font-size:3.52777px;font-family:Helvetica;-inkscape-font-specification:Helvetica;stroke-width:0.264583"><tspan
   style="font-style:normal;font-variant:normal;font-weight:normal;font-stretch:normal;font-size:2.29306px;font-family:Helvetica;-inkscape-font-specification:Helvetica;baseline-shift:super;stroke-width:0.264583"
   id="tspan16-1-9-7-5-1-4">1</tspan>H</tspan></text>
    <text
       inkscape:export-filename="/Users/yongrenjie/Desktop/path3919-7-8-61.png"
       id="text20-1-3-7-1-7-3-4"
       y="17.304632"
       x="9.6774035"
       style="font-style:normal;font-variant:normal;font-weight:normal;font-stretch:normal;font-size:3.52777px;line-height:1.25;font-family:Helvetica;-inkscape-font-specification:Helvetica;fill:#000000;fill-opacity:1;stroke:none;stroke-width:0.264583"
       xml:space="preserve"
       inkscape:export-xdpi="500"
       inkscape:export-ydpi="500"><tspan
         style="font-style:normal;font-variant:normal;font-weight:normal;font-stretch:normal;font-size:3.52777px;font-family:Helvetica;-inkscape-font-specification:Helvetica;stroke-width:0.264583"
         y="17.304632"
         x="9.6774035"
         id="tspan18-9-4-2-8-4-8-6"
         sodipodi:role="line"><tspan
   id="tspan26-3-6-3-8-0-4-7"
   style="font-style:normal;font-variant:normal;font-weight:normal;font-stretch:normal;font-size:2.29306px;font-family:Helvetica;-inkscape-font-specification:Helvetica;baseline-shift:super;stroke-width:0.264583">13</tspan>C</tspan></text>
    <text
       inkscape:export-filename="/Users/yongrenjie/Desktop/path3919-7-8-61.png"
       xml:space="preserve"
       style="font-style:normal;font-variant:normal;font-weight:normal;font-stretch:normal;font-size:3.52777px;line-height:1.25;font-family:Helvetica;-inkscape-font-specification:Helvetica;fill:#000000;fill-opacity:1;stroke:none;stroke-width:0.264583"
       x="11.321712"
       y="27.283831"
       id="text24-6-9-5-5-4-7"
       inkscape:export-xdpi="500"
       inkscape:export-ydpi="500"><tspan
         sodipodi:role="line"
         id="tspan22-4-9-5-7-7-1"
         x="11.321712"
         y="27.283831"
         style="font-style:italic;font-variant:normal;font-weight:normal;font-stretch:normal;font-size:3.52777px;font-family:Helvetica;-inkscape-font-specification:Helvetica;stroke-width:0.264583">G<tspan
   style="font-style:italic;font-variant:normal;font-weight:normal;font-stretch:normal;font-size:2.29306px;font-family:Helvetica;-inkscape-font-specification:Helvetica;baseline-shift:sub;stroke-width:0.264583"
   id="tspan28-4-1-4-4-1-2">z</tspan></tspan></text>
    <text
       inkscape:export-filename="/Users/yongrenjie/Desktop/path3919-7-8-61.png"
       id="text20-1-3-7-1-7-3-4-0"
       y="22.603706"
       x="9.8044033"
       style="font-style:normal;font-variant:normal;font-weight:normal;font-stretch:normal;font-size:3.52777px;line-height:1.25;font-family:Helvetica;-inkscape-font-specification:Helvetica;fill:#000000;fill-opacity:1;stroke:none;stroke-width:0.264583"
       xml:space="preserve"
       inkscape:export-xdpi="500"
       inkscape:export-ydpi="500"><tspan
         style="font-style:normal;font-variant:normal;font-weight:normal;font-stretch:normal;font-size:3.52777px;font-family:Helvetica;-inkscape-font-specification:Helvetica;stroke-width:0.264583"
         y="22.603706"
         x="9.8044033"
         id="tspan18-9-4-2-8-4-8-6-4"
         sodipodi:role="line"><tspan
   id="tspan26-3-6-3-8-0-4-7-7"
   style="font-style:normal;font-variant:normal;font-weight:normal;font-stretch:normal;font-size:2.29306px;font-family:Helvetica;-inkscape-font-specification:Helvetica;baseline-shift:super;stroke-width:0.264583">15</tspan>N</tspan></text>
    <rect
       style="fill:#ffffff;stroke:#000000;stroke-width:0.3"
       id="rect3686-7"
       width="19.843752"
       height="21.166666"
       x="91.416077"
       y="7.9206047"
       ry="2.645833" />
    <text
       xml:space="preserve"
       style="font-style:normal;font-variant:normal;font-weight:normal;font-stretch:normal;font-size:3.88056px;line-height:1.25;font-family:Helvetica;-inkscape-font-specification:Helvetica;stroke-width:0.264583"
       x="93.126534"
       y="19.758846"
       id="text3690-5"><tspan
         sodipodi:role="line"
         id="tspan3688-0"
         x="93.126534"
         y="19.758846"
         style="font-style:normal;font-variant:normal;font-weight:bold;font-stretch:normal;font-size:3.88056px;font-family:Helvetica;-inkscape-font-specification:Helvetica;stroke-width:0.264583"><tspan
   style="font-size:65%;baseline-shift:super"
   id="tspan1371">1</tspan>H COSY</tspan></text>
    <text
       xml:space="preserve"
       style="font-size:2.82222999999999979px;line-height:1.25;font-family:Helvetica;-inkscape-font-specification:Helvetica;stroke-width:0.264583;font-weight:normal;font-style:normal;font-stretch:normal;font-variant:normal;"
       x="84.666664"
       y="19.84375"
       id="text1286"><tspan
         sodipodi:role="line"
         id="tspan1284"
         x="84.666664"
         y="19.84375"
         style="stroke-width:0.264583;-inkscape-font-specification:Helvetica;font-family:Helvetica;font-weight:normal;font-style:normal;font-stretch:normal;font-variant:normal;" /></text>
    <text
       xml:space="preserve"
       style="font-style:normal;font-variant:normal;font-weight:bold;font-stretch:normal;font-size:3.175px;line-height:1.25;font-family:Helvetica;-inkscape-font-specification:'Helvetica Bold';fill:#aa0000;fill-opacity:1;stroke-width:0.264583"
       x="35.026283"
       y="34.395832"
       id="text3690-4"><tspan
         sodipodi:role="line"
         x="35.026283"
         y="34.395832"
         style="font-style:normal;font-variant:normal;font-weight:normal;font-stretch:normal;font-size:3.175px;font-family:Helvetica;-inkscape-font-specification:'Helvetica Bold';text-align:center;text-anchor:middle;fill:#aa0000;fill-opacity:1;stroke-width:0.264583"
         id="tspan1442">up to <tspan
   style="font-weight:bold"
   id="tspan1450">4.5×</tspan> S/N</tspan><tspan
         sodipodi:role="line"
         x="35.026283"
         y="38.364582"
         style="font-style:normal;font-variant:normal;font-weight:normal;font-stretch:normal;font-size:3.175px;font-family:Helvetica;-inkscape-font-specification:'Helvetica Bold';text-align:center;text-anchor:middle;fill:#aa0000;fill-opacity:1;stroke-width:0.264583"
         id="tspan1417">vs HMQC</tspan></text>
    <text
       xml:space="preserve"
       style="font-style:normal;font-variant:normal;font-weight:bold;font-stretch:normal;font-size:3.175px;line-height:1.25;font-family:Helvetica;-inkscape-font-specification:'Helvetica Bold';fill:#003380;fill-opacity:1;stroke-width:0.264583"
       x="69.627029"
       y="34.395832"
       id="text3690-4-7"><tspan
         sodipodi:role="line"
         x="69.627029"
         y="34.395832"
         style="font-style:normal;font-variant:normal;font-weight:normal;font-stretch:normal;font-size:3.175px;font-family:Helvetica;-inkscape-font-specification:'Helvetica Bold';text-align:center;text-anchor:middle;fill:#003380;fill-opacity:1;stroke-width:0.264583"
         id="tspan1417-3">up to <tspan
   style="font-weight:bold"
   id="tspan1456">1.8×</tspan> S/N</tspan><tspan
         sodipodi:role="line"
         x="69.627029"
         y="38.364582"
         style="font-style:normal;font-variant:normal;font-weight:normal;font-stretch:normal;font-size:3.175px;font-family:Helvetica;-inkscape-font-specification:'Helvetica Bold';text-align:center;text-anchor:middle;fill:#003380;fill-opacity:1;stroke-width:0.264583"
         id="tspan1454">vs HSQC</tspan></text>
    <text
       xml:space="preserve"
       style="font-style:normal;font-variant:normal;font-weight:bold;font-stretch:normal;font-size:3.175px;line-height:1.25;font-family:Helvetica;-inkscape-font-specification:'Helvetica Bold';fill:#000000;fill-opacity:1;stroke-width:0.264583"
       x="115.94077"
       y="34.395832"
       id="text3690-4-7-8"><tspan
         sodipodi:role="line"
         x="115.94077"
         y="34.395832"
         style="font-style:normal;font-variant:normal;font-weight:normal;font-stretch:normal;font-size:3.175px;font-family:Helvetica;-inkscape-font-specification:'Helvetica Bold';text-align:center;text-anchor:middle;fill:#000000;fill-opacity:1;stroke-width:0.264583"
         id="tspan1454-3">unused magnetisation preserved</tspan><tspan
         sodipodi:role="line"
         x="115.94077"
         y="38.364582"
         style="font-style:normal;font-variant:normal;font-weight:normal;font-stretch:normal;font-size:3.175px;font-family:Helvetica;-inkscape-font-specification:'Helvetica Bold';text-align:center;text-anchor:middle;fill:#000000;fill-opacity:1;stroke-width:0.264583"
         id="tspan1485">for homonuclear spectra</tspan></text>
  </g>
</svg>
